<?xml version="1.0" encoding="UTF-8"?>
<svg id="Layer_2" data-name="Layer 2" xmlns="http://www.w3.org/2000/svg" viewBox="0 0 166.15 180.86">
  <defs>
    <style>
      .cls-1 {
        fill: #abadae;
      }

      .cls-1, .cls-2, .cls-3, .cls-4, .cls-5 {
        stroke-width: 0px;
      }

      .cls-2 {
        fill: #999b9c;
      }

      .cls-3 {
        fill: #898b8c;
      }

      .cls-4 {
        fill: #57c4f2;
      }

      .cls-5 {
        fill: #71cbf4;
      }
    </style>
  </defs>
  <g id="Capa_1" data-name="Capa 1">
    <g>
      <path class="cls-1" d="M165.98,160.26c.11-.14.16-.29.17-.43h0c0-3.43-30.32-6.23-68.62-6.43v-4.15c-.14.54-.62,1.05-1.39,1.52.76-.47,1.23-.98,1.37-1.51.03-.1.04-.21.04-.31h0c0-1.2-1.74-2.3-4.61-3.13v-3.68c.64,0,1.28,0,1.92,0,27.04,0,48.95-1.72,48.96-3.85h0v-8.45c-.4.47-1.88.92-4.25,1.33,2.34-.41,3.8-.85,4.19-1.32.07-.08.11-.17.11-.26h0c0-2.12-21.94-3.85-49.01-3.85-16.39,0-30.9.63-39.8,1.6-1.88-2.35-4.77-3.86-8.02-3.86-3.85,0-7.2,2.12-8.96,5.25-16.95-4.03-29.71-20.99-29.72-41.23,0-19.95,12.4-36.7,28.99-41.04,1.85,2.72,4.97,4.5,8.5,4.5,2.03,0,3.91-.6,5.51-1.61l.28,1.02,1.1,4.01c-1.39.94-2.12,1.81-1.93,2.48h0c.01.05.03.1.06.14l2.04,7.42c.2.71,1.39,1.09,3.26,1.16l-.54.95-1.25,2.2h0s-.01.02-.02.02h0s-.05.12-.05.12c-.34.94,1.09,2.65,3.32,3.92,2.32,1.32,4.62,1.65,5.14.74,0,0,0-.02.01-.03h0s2.11-3.7,2.11-3.7l.61-1.07.54,1.97.67,2.44h0s0,.02,0,.03h0c.28,1.01,2.59,1.25,5.16.55,2.47-.68,4.28-1.99,4.18-2.98l-.02-.12s0-.02-.01-.03h0s-1.26-4.6-1.26-4.6l1.29.74,1.5.85,2.2,1.25h0s.01,0,.02.01c.91.52,2.72-.94,4.04-3.26,1.27-2.23,1.62-4.43.85-5.07l-.1-.07s-.02,0-.03-.01h0s-2.2-1.26-2.2-1.26h0l-1-.57c1.5-.98,2.28-1.89,2.09-2.58h0s-2.02-7.36-2.02-7.36c-.01.47-.41,1.03-1.13,1.63.71-.6,1.1-1.15,1.11-1.61,0-.08,0-.16-.03-.23h0c-.18-.67-1.25-1.04-2.93-1.14l-1.13-4.13-6.22-22.63c1.27-1.35,1.85-2.7,1.53-3.89h0s-3.62-13.16-3.62-13.16c.07.72-.16,1.49-.65,2.27.48-.78.71-1.54.64-2.26-.01-.14-.04-.27-.08-.41h0c-.91-3.31-8.49-4.11-16.92-1.79-8.44,2.32-14.54,6.88-13.63,10.19h0c.02.09.06.17.09.26l3.65,13.28h0c.33,1.19,1.52,2.05,3.3,2.57l.76,2.76h0v.05c-.09,0-.19-.02-.3-.02-4.81,0-8.84,3.31-9.96,7.78-8.52,2.06-16.32,6.78-22.61,13.77C4.72,61.47,0,74.1,0,87.51c0,13.41,4.72,26.04,13.28,35.55,6.64,7.39,14.99,12.23,24.07,14.09,1.4,4.01,5.21,6.89,9.69,6.89,3.1,0,5.87-1.38,7.75-3.54,3.18.35,7.1.67,11.59.92v4.4c-2.86.83-4.61,1.92-4.61,3.13h0c0,.07,0,.14.02.21v4.83c-24.85,1.03-42.06,3.26-42.06,5.84h0c0,.1.03.2.08.3v14.28c0,3.56,32.74,6.45,73.12,6.45s73.12-2.89,73.12-6.45h0v-14.17c-.59.79-2.8,1.54-6.33,2.23,3.48-.68,5.66-1.43,6.25-2.21Z"/>
      <path class="cls-2" d="M19.82,160.13v14.28c0,3.56,32.74,6.45,73.12,6.45s73.12-2.89,73.12-6.45h0v-14.17c-.59.79-2.8,1.54-6.33,2.23-11.45,2.24-37.05,3.81-66.79,3.81-39.27,0-71.32-2.72-73.12-6.14Z"/>
      <path class="cls-2" d="M61.8,149.16v10.35h0c0,2.58,8,4.67,17.87,4.67s17.87-2.09,17.87-4.67h0v-10.26c-.14.54-.62,1.05-1.39,1.52-2.71,1.68-9.07,2.85-16.48,2.85-9.61,0-17.44-1.98-17.87-4.46Z"/>
      <path class="cls-3" d="M66.38,145.82v.77h0c0,2.58,5.95,4.67,13.28,4.67s13.28-2.09,13.28-4.67h0v-4.45c-9.89-.03-19.02-.29-26.56-.71v4.4Z"/>
      <path class="cls-2" d="M56.13,40.69c0,3.65-1.91,6.84-4.77,8.67l.28,1.02,1.1,4.01c-1.39.94-2.12,1.81-1.93,2.48h0c.01.05.03.1.06.14.85,1.68,7.93,1.26,16.14-.99,6.09-1.67,11.12-3.89,13.27-5.7.71-.6,1.1-1.15,1.11-1.61,0-.08,0-.16-.03-.23h0c-.18-.67-1.25-1.04-2.93-1.14l-1.13-4.13-6.22-22.63c-2.26,2.4-6.69,4.81-12.09,6.29-5.4,1.48-10.44,1.68-13.61.77l.76,2.76h0v.05c5.55.16,9.98,4.69,9.98,10.26Z"/>
      <path class="cls-2" d="M71.61,62.83c-.52.16-1.05.32-1.59.48-.31.09-.63.18-.94.27-.26.07-.52.14-.77.21-.54.14-1.07.28-1.6.4-4.24,1.01-8.01,1.49-10.54,1.4l-.54.95-1.25,2.2h0s-.01.02-.02.02h0s-.05.12-.05.12c-.34.94,1.09,2.65,3.32,3.92,2.32,1.32,4.62,1.65,5.14.74,0,0,0-.02.01-.03h0s2.11-3.7,2.11-3.7l.61-1.07.54,1.97.67,2.44h0s0,.02,0,.03h0c.28,1.01,2.59,1.25,5.16.55,2.47-.68,4.28-1.99,4.18-2.98l-.02-.12s0-.02-.01-.03h0s-1.26-4.6-1.26-4.6l1.29.74,1.5.85,2.2,1.25h0s.01,0,.02.01c.91.52,2.72-.94,4.04-3.26,1.27-2.23,1.62-4.43.85-5.07l-.1-.07s-.02,0-.03-.01h0s-2.2-1.26-2.2-1.26h0l-1.01-.57h0c-2.09,1.37-5.56,2.9-9.72,4.21Z"/>
      <path class="cls-2" d="M55.27,13.3c6.33-1.74,11.34-4.74,13.07-7.52.48-.78.71-1.54.64-2.26-.01-.14-.04-.27-.07-.41h0c-.91-3.31-8.49-4.11-16.92-1.79-8.44,2.32-14.54,6.88-13.63,10.18h0c.02.09.06.18.09.26,1.23,3.09,8.62,3.79,16.83,1.53ZM52.53,3.31c5.64-1.55,10.71-1.01,11.32,1.2h0c.02.09.04.18.05.27.04.35-.04.71-.2,1.09-.88,1.97-4.41,4.2-8.97,5.45-4.59,1.26-8.8,1.14-10.54-.14-.4-.29-.67-.65-.78-1.06-.61-2.21,3.47-5.26,9.12-6.81Z"/>
      <path class="cls-4" d="M44.19,11.18c.88-1.97,4.41-4.2,8.96-5.45,4.59-1.26,8.8-1.14,10.54.14.17-.37.24-.74.2-1.09,0-.09-.03-.18-.05-.27h0c-.61-2.21-5.68-2.75-11.32-1.2-5.64,1.55-9.73,4.6-9.12,6.81.11.41.38.77.78,1.06Z"/>
      <path class="cls-5" d="M53.15,5.73c-4.55,1.25-8.08,3.47-8.96,5.45,1.74,1.28,5.95,1.4,10.54.14,4.55-1.25,8.08-3.47,8.97-5.45-1.74-1.28-5.95-1.4-10.54-.14Z"/>
      <path class="cls-2" d="M57.16,132.05c.09.56.15,1.13.15,1.72,0,2.58-.96,4.93-2.53,6.74,3.18.35,7.1.67,11.59.92,7.54.42,16.67.68,26.56.71.64,0,1.28,0,1.92,0,27.04,0,48.95-1.72,48.96-3.85h0v-8.45c-.4.47-1.88.92-4.25,1.33-7.67,1.34-24.8,2.27-44.71,2.27-15.16,0-28.71-.54-37.7-1.39Z"/>
      <circle class="cls-2" cx="47.04" cy="133.77" r="4.95"/>
      <path class="cls-2" d="M45.85,45.63c2.73,0,4.95-2.21,4.95-4.95s-2.21-4.95-4.95-4.95-4.95,2.21-4.95,4.95,2.21,4.95,4.95,4.95Z"/>
    </g>
  </g>
</svg>