<?xml version="1.0" encoding="UTF-8"?>
<svg id="Layer_2" data-name="Layer 2" xmlns="http://www.w3.org/2000/svg" viewBox="0 0 141.81 177.98">
  <defs>
    <style>
      .cls-1 {
        fill: #6ba55f;
      }

      .cls-1, .cls-2, .cls-3, .cls-4, .cls-5, .cls-6 {
        stroke-width: 0px;
      }

      .cls-2 {
        fill: #abadae;
      }

      .cls-3 {
        fill: #86c276;
      }

      .cls-4 {
        fill: #8dd3f6;
      }

      .cls-5 {
        fill: #71cbf4;
      }

      .cls-6 {
        fill: #3abff0;
      }
    </style>
  </defs>
  <g id="Capa_1" data-name="Capa 1">
    <g>
      <path class="cls-2" d="M141.55,165.38c-.09-.23-.21-.44-.33-.64l-17.11-44.7c.16-.49.26-1.02.26-1.6,0-4.12-4.58-6.03-6.08-6.65-1.81-.75-4.09-1.45-6.81-2.08-.14.33-.28.65-.42.98-.13-.03-.25-.06-.38-.09-.02,0-.04,0-.06-.01,2.24-5.12,3.49-10.77,3.49-16.72,0-17.03-10.2-31.67-24.82-38.17V14.07c3.6-1.49,5.79-3.46,5.79-5.63,0-4.66-10.18-8.44-22.74-8.44s-22.74,3.78-22.74,8.44c0,2.16,2.19,4.13,5.79,5.63v41.61c-14.62,6.5-24.82,21.14-24.82,38.17,0,5.74,1.16,11.21,3.25,16.18-.23.04-.45.09-.68.13-.15-.32-.3-.65-.44-.98-3.79.76-6.88,1.63-9.19,2.59-1.5.63-6.08,2.53-6.08,6.65,0,.58.1,1.11.26,1.6L.59,164.74c-.16.25-.3.53-.4.83-.08.24-.13.49-.16.75,0,.02,0,.04,0,.06-.01.11-.03.23-.03.34,0,.02,0,.04,0,.05,0,.02,0,.05,0,.07.01.43.11.86.25,1.23.16.4.37.74.6,1.04.45.58.97,1,1.54,1.37,1.06.69,2.33,1.23,3.87,1.74,2.68.89,6.18,1.66,10.44,2.36,6.38,1.04,14.44,1.89,23.66,2.47,9.21.59,19.58.92,30.54.92,18.99,0,36.18-.99,48.72-2.6,3.14-.4,5.98-.85,8.5-1.32,1.89-.36,3.6-.74,5.11-1.14,1.14-.3,2.17-.62,3.09-.96,1.39-.51,2.53-1.04,3.5-1.76.48-.36.94-.78,1.32-1.35.19-.28.35-.6.47-.96.1-.3.15-.62.17-.95,0-.06.01-.11.01-.17,0-.01,0-.03,0-.04,0-.48-.1-.94-.26-1.35ZM120.41,124.07l14.09,36.83c-2.52-.75-5.67-1.42-9.39-2.03-6.38-1.04-14.44-1.88-23.66-2.47-7.68-.49-16.17-.8-25.12-.89v-20.08c6.29-.59,12.17-2.58,17.33-5.65,4.81-.43,9.26-.99,13.19-1.68,4.84-.85,8.69-1.87,11.45-3.01.48-.2,1.26-.53,2.11-1.01ZM108.99,115.24c-.16.32-.31.65-.47.97,3.92.82,6.22,1.63,7.53,2.22-1.78.81-5.39,2.01-12.44,3.11,1.76-1.99,3.34-4.14,4.7-6.44.23.05.46.09.68.14ZM36.66,115.57c-.29-.29-.56-.6-.81-.92.09-.02.17-.03.26-.05,1.53,2.67,3.34,5.15,5.4,7.41-.94-.12-1.86-.25-2.75-.39-7.41-1.13-11.16-2.37-12.99-3.2,1.65-.75,4.85-1.83,10.9-2.86ZM21.41,124.07c.85.49,1.64.81,2.11,1.01,2.75,1.15,6.6,2.16,11.45,3.01,4.83.85,10.44,1.51,16.55,1.95,5.88,3.39,12.66,5.39,19.9,5.55v19.89c-.17,0-.34,0-.51,0-18.99,0-36.18.99-48.71,2.6-3.14.4-5.98.84-8.5,1.32-1.89.36-3.6.74-5.11,1.14-.44.12-.85.24-1.26.36l14.09-36.83ZM132.98,167.89c-2.47.73-5.88,1.44-9.99,2.07-6.18.95-13.96,1.73-22.82,2.27-8.86.54-18.79.85-29.27.85-18.81,0-35.85-.98-48.09-2.56-3.06-.39-5.81-.82-8.21-1.28-1.8-.34-3.4-.7-4.77-1.07-1.03-.27-1.92-.55-2.67-.82-.58-.21-1.08-.42-1.46-.62.71-.36,1.78-.77,3.13-1.16,2.47-.73,5.88-1.44,9.99-2.07,6.18-.95,13.96-1.73,22.82-2.27,8.86-.54,18.79-.85,29.27-.85,18.81,0,35.85.98,48.09,2.56,3.06.39,5.81.82,8.21,1.28,1.8.34,3.4.7,4.77,1.06,1.03.27,1.92.55,2.67.83.58.21,1.08.42,1.46.62-.71.36-1.78.77-3.12,1.16Z"/>
      <path class="cls-4" d="M41.51,122.01c1.18.16,2.4.3,3.66.44-7.56-7.19-12.28-17.34-12.28-28.6,0-16.97,10.71-31.43,25.74-37.01V15.17c3.82,1.07,8.57,1.71,13.73,1.71s9.92-.64,13.73-1.71v41.67c15.03,5.58,25.74,20.04,25.74,37.01,0,11.06-4.55,21.05-11.88,28.21,1.07-.14,2.11-.28,3.12-.44.19-.03.36-.06.55-.09,1.76-1.99,3.34-4.14,4.7-6.44.86-1.45,1.64-2.97,2.32-4.53,2.24-5.12,3.49-10.77,3.49-16.72,0-17.03-10.2-31.67-24.82-38.17V14.07c3.6-1.49,5.79-3.46,5.79-5.63,0-4.66-10.18-8.44-22.74-8.44s-22.74,3.78-22.74,8.44c0,2.16,2.19,4.13,5.79,5.63v41.61c-14.62,6.5-24.82,21.14-24.82,38.17,0,5.74,1.16,11.21,3.25,16.18.66,1.58,1.43,3.1,2.27,4.57,1.53,2.67,3.34,5.15,5.4,7.41ZM54.51,8.44c0-2.53,7.99-4.59,17.84-4.59s17.84,2.05,17.84,4.59-7.99,4.59-17.84,4.59-17.84-2.05-17.84-4.59Z"/>
      <path class="cls-4" d="M72.35,135.62c1.34,0,2.67-.07,3.98-.19,6.29-.59,12.17-2.58,17.33-5.65-1.93.17-3.91.32-5.95.45-4.72,2-9.91,3.1-15.36,3.1s-10.3-1.04-14.9-2.92c-2.02-.1-4-.21-5.93-.36,5.88,3.39,12.66,5.39,19.9,5.55.31,0,.62.02.93.02Z"/>
      <path class="cls-5" d="M86.08,56.84V15.17c-3.82,1.07-8.57,1.71-13.73,1.71s-9.92-.64-13.73-1.71v41.67c-15.03,5.58-25.74,20.04-25.74,37.01,0,11.26,4.72,21.41,12.28,28.6,1.46.16,2.96.3,4.51.43-8.62-6.74-14.17-17.24-14.17-29.03,0-10.17,4.12-19.38,10.79-26.05h.01c.16-2.16,5.04-4.04,12.32-5.11,3.99-.58,8.69-.92,13.73-.92s9.75.34,13.73.92c7.28,1.07,12.16,2.95,12.32,5.11h.01c6.66,6.67,10.79,15.88,10.79,26.05,0,11.62-5.38,21.97-13.78,28.73,1.56-.16,3.07-.33,4.53-.52,7.33-7.17,11.88-17.15,11.88-28.21,0-16.97-10.71-31.43-25.74-37.01Z"/>
      <path class="cls-5" d="M87.71,130.22c-5.33.33-11,.5-16.8.5-4.61,0-9.12-.11-13.46-.32,4.6,1.88,9.63,2.92,14.9,2.92s10.64-1.1,15.36-3.1Z"/>
      <path class="cls-5" d="M90.19,8.44c0-2.53-7.99-4.59-17.84-4.59s-17.84,2.05-17.84,4.59,7.99,4.59,17.84,4.59,17.84-2.05,17.84-4.59ZM72.35,8.23c6.06,0,11.2,1.31,13.03,3.13-3.26.9-7.89,1.45-13.03,1.45s-9.77-.56-13.03-1.45c1.82-1.82,6.96-3.13,13.03-3.13Z"/>
      <path class="cls-6" d="M85.37,11.37c-1.82-1.82-6.96-3.13-13.03-3.13s-11.2,1.31-13.03,3.13c3.26.9,7.88,1.45,13.03,1.45s9.77-.56,13.03-1.45Z"/>
      <path class="cls-3" d="M109.2,93.85c0-10.17-4.12-19.38-10.79-26.05h-.01s.01.07.01.11c0,3.39-11.67,6.14-26.06,6.14s-26.06-2.75-26.06-6.14c0-.04,0-.07.01-.11h-.01c-6.66,6.67-10.79,15.88-10.79,26.05,0,11.8,5.55,22.29,14.17,29.03,6.57.55,13.82.85,21.24.85,8.67,0,17.11-.4,24.5-1.15,8.4-6.75,13.78-17.11,13.78-28.73Z"/>
      <path class="cls-1" d="M72.35,74.05c14.39,0,26.06-2.75,26.06-6.14,0-.04,0-.07-.01-.11-.16-2.16-5.04-4.04-12.32-5.11-3.99-.58-8.69-.92-13.73-.92s-9.75.34-13.73.92c-7.28,1.07-12.16,2.95-12.32,5.11,0,.04-.01.07-.01.11,0,3.39,11.67,6.14,26.06,6.14Z"/>
    </g>
  </g>
</svg>