<?xml version="1.0" encoding="UTF-8"?>
<svg id="Layer_2" data-name="Layer 2" xmlns="http://www.w3.org/2000/svg" viewBox="0 0 172.39 180.86">
  <defs>
    <style>
      .cls-1 {
        fill: #318ece;
      }

      .cls-1, .cls-2, .cls-3, .cls-4, .cls-5, .cls-6 {
        stroke-width: 0px;
      }

      .cls-2 {
        fill: #2e82bb;
      }

      .cls-3 {
        fill: #b9babc;
      }

      .cls-4 {
        fill: #e25e5d;
      }

      .cls-5 {
        fill: #ea544f;
      }

      .cls-6 {
        fill: #ec6360;
      }
    </style>
  </defs>
  <g id="Capa_1" data-name="Capa 1">
    <g>
      <path class="cls-3" d="M147.76,16.21c-12.33-1-23.39,6.51-27.39,17.61l-34.73,1C81.73,14.97,64.23,0,43.23,0,19.35,0,0,19.35,0,43.23c0,19.92,13.47,36.69,31.8,41.7.5,18.43.21,21.6.86,43.02-11.07,2.58-19.69,12.08-20.62,24.01-1.16,14.76,9.87,27.66,24.63,28.82,14.76,1.16,27.66-9.87,28.82-24.63.97-12.37-6.62-23.43-17.8-27.37-.68-21.85-.41-25.32-.85-42.46,20.01-1.65,36.15-16.93,39.13-36.53l33.46-.96c2.5,11.14,12,19.85,23.98,20.83,14.76,1.2,27.69-9.78,28.89-24.54,1.2-14.76-9.78-27.69-24.54-28.89Z"/>
      <path class="cls-1" d="M147.76,16.21c-12.33-1-23.39,6.51-27.39,17.61l3.79-.11c.73.94,2.28,3.19,2.6,6.46.43,4.42-1.7,7.63-2.32,8.5l-5.02.14c2.5,11.14,12,19.85,23.98,20.83,14.76,1.2,27.69-9.78,28.89-24.54,1.2-14.76-9.78-27.69-24.54-28.89ZM139.68,34.2c-3.46,2.36-7.8,2.03-9.69-.74-1.89-2.77-.61-6.93,2.85-9.29,3.46-2.36,7.8-2.03,9.69.74,1.89,2.77.61,6.93-2.85,9.29Z"/>
      <path class="cls-2" d="M132.83,24.17c-3.46,2.36-4.74,6.52-2.85,9.29,1.89,2.77,6.23,3.1,9.69.74,3.46-2.36,4.74-6.52,2.85-9.29-1.89-2.77-6.23-3.1-9.69-.74Z"/>
      <path class="cls-6" d="M85.64,34.82C81.73,14.97,64.23,0,43.23,0,19.35,0,0,19.35,0,43.23c0,19.92,13.47,36.69,31.8,41.7-.09-3.36-.21-7.22-.36-11.8.6-.55,3.75-3.34,8.42-3.08.89.05,1.7.2,2.43.41,2.36-4.28,6.58-9.17,12.05-13.59,10.7-8.65,22.12-12.25,25.52-8.05,3.4,4.2-2.52,14.62-13.21,23.27-7.21,5.83-14.74,9.36-19.93,9.76.05,1.58.09,3.06.12,4.45,20.01-1.65,36.15-16.93,39.13-36.53.32-2.14.49-4.32.49-6.55,0-2.88-.28-5.69-.82-8.41ZM32.59,29.97c-5.26,4.25-12.27,4.29-15.67.08-3.4-4.2-1.89-11.06,3.36-15.31,5.26-4.25,12.28-4.29,15.68-.08,3.4,4.2,1.89,11.06-3.37,15.31Z"/>
      <path class="cls-4" d="M20.28,14.75c-5.26,4.25-6.76,11.11-3.36,15.31,3.4,4.2,10.42,4.17,15.67-.08,5.26-4.25,6.76-11.1,3.37-15.31-3.4-4.2-10.42-4.17-15.68.08Z"/>
      <path class="cls-5" d="M46.72,81.86c5.19-.4,12.73-3.93,19.93-9.76,10.69-8.65,16.61-19.07,13.21-23.27-3.4-4.2-14.82-.6-25.52,8.05-5.47,4.42-9.69,9.31-12.05,13.59,2.09.6,3.53,1.67,4.14,2.16.12,3.45.21,6.5.29,9.23Z"/>
      <path class="cls-1" d="M40.62,137.18c-1.92.09-3.56-.35-4.83-.9,1.68,2.76.4,6.76-2.96,9.07-3.46,2.37-7.8,2.06-9.69-.71-1.9-2.76-.63-6.93,2.82-9.3,2.23-1.53,4.83-1.94,6.9-1.29-.07-2.19-.14-4.21-.2-6.1-11.07,2.58-19.69,12.08-20.62,24.01-1.16,14.76,9.87,27.66,24.63,28.82,14.76,1.16,27.66-9.87,28.82-24.63.97-12.37-6.62-23.43-17.8-27.37.05,1.61.11,3.32.17,5.15-.55.57-3.11,3.06-7.24,3.26Z"/>
      <path class="cls-2" d="M25.96,135.33c-3.46,2.37-4.72,6.54-2.82,9.3,1.9,2.76,6.24,3.08,9.69.71,3.36-2.31,4.64-6.31,2.96-9.07-1.59-.7-2.61-1.58-2.92-1.85,0-.13,0-.25-.01-.38-2.07-.65-4.67-.24-6.9,1.29Z"/>
    </g>
  </g>
</svg>