<?xml version="1.0" encoding="UTF-8"?>
<svg id="Layer_2" data-name="Layer 2" xmlns="http://www.w3.org/2000/svg" viewBox="0 0 147.69 180.86">
  <defs>
    <style>
      .cls-1 {
        fill: #fcd377;
      }

      .cls-1, .cls-2, .cls-3, .cls-4, .cls-5 {
        stroke-width: 0px;
      }

      .cls-2 {
        fill: #8dd3f6;
      }

      .cls-3 {
        fill: #71cbf4;
      }

      .cls-4 {
        fill: #3abff0;
      }

      .cls-5 {
        fill: #eac06b;
      }
    </style>
  </defs>
  <g id="Capa_1" data-name="Capa 1">
    <g>
      <path class="cls-2" d="M142.68,57.77c-4.97-6.02-11.49-8.84-14.57-6.3-1.43,1.18-1.85,3.3-1.42,5.84l-32.93,27.18c-4.51-4.23-9.73-7.71-15.46-10.26V18.76c4.8-1.99,7.72-4.62,7.72-7.5,0-6.22-13.58-11.26-30.33-11.26s-30.33,5.04-30.33,11.26c0,2.88,2.92,5.51,7.72,7.5v55.48C13.6,82.9,0,102.44,0,125.16c0,30.76,24.94,55.7,55.7,55.7s55.7-24.94,55.7-55.7c0-8.43-1.88-16.43-5.23-23.59l33.92-28.01c2.41.91,4.58.89,6.01-.29,3.08-2.54,1.55-9.48-3.42-15.5Z"/>
      <path class="cls-3" d="M55.7,177.79c29.07,0,52.64-23.57,52.64-52.64,0-7.69-1.65-14.99-4.61-21.57-.28-.63-.58-1.25-.88-1.86l35.25-29.1c-2.22-1.24-4.52-3.17-6.57-5.65-2.04-2.48-3.5-5.1-4.3-7.52l-34.4,28.4c-.48-.47-.96-.94-1.45-1.39-4.99-4.6-10.87-8.25-17.36-10.66V20.23c-5.09,1.43-11.43,2.29-18.32,2.29s-13.23-.85-18.32-2.29v55.57C17.35,83.24,3.06,102.53,3.06,125.16c0,29.07,23.57,52.64,52.64,52.64ZM20.95,90.42h.01c.21-2.88,6.72-5.39,16.42-6.81,5.32-.78,11.59-1.23,18.32-1.23s13,.45,18.32,1.23c9.13,1.34,15.43,3.64,16.32,6.31.06.17.09.34.1.51h.02c3.93,3.93,7.19,8.52,9.61,13.59,3.06,6.4,4.77,13.57,4.77,21.14,0,27.14-22,49.14-49.14,49.14S6.56,152.3,6.56,125.16c0-13.56,5.5-25.85,14.38-34.74Z"/>
      <path class="cls-3" d="M79.49,11.26c0-3.38-10.65-6.12-23.79-6.12s-23.79,2.74-23.79,6.12,10.65,6.12,23.79,6.12,23.79-2.74,23.79-6.12ZM55.7,10.98c8.09,0,14.94,1.75,17.37,4.18-4.34,1.19-10.52,1.94-17.37,1.94s-13.03-.75-17.37-1.94c2.43-2.43,9.28-4.18,17.37-4.18Z"/>
      <path class="cls-4" d="M73.07,15.16c-2.43-2.43-9.29-4.18-17.37-4.18s-14.94,1.75-17.37,4.18c4.34,1.19,10.52,1.94,17.37,1.94s13.03-.75,17.37-1.94Z"/>
      <path class="cls-3" d="M144.16,70.92c1.67-1.38-.13-6.33-4.03-11.05-3.9-4.72-8.42-7.43-10.09-6.05-1.67,1.38.13,6.33,4.03,11.05,3.9,4.72,8.42,7.43,10.09,6.05ZM137.24,62.26c2.4,2.91,3.57,6.09,3.08,7.95-1.88-1.07-4.08-2.99-6.11-5.45-2.03-2.46-3.5-4.99-4.19-7.04,1.92-.12,4.82,1.63,7.22,4.53Z"/>
      <path class="cls-4" d="M140.32,70.21c.48-1.87-.68-5.05-3.08-7.95-2.4-2.91-5.3-4.65-7.22-4.53.7,2.05,2.16,4.57,4.19,7.04,2.03,2.46,4.23,4.38,6.11,5.45Z"/>
      <path class="cls-1" d="M55.7,174.3c27.14,0,49.14-22,49.14-49.14,0-7.57-1.71-14.74-4.77-21.14-2.42-5.07-5.69-9.67-9.61-13.59h-.02s.02.1.02.14c0,4.52-15.56,8.19-34.76,8.19s-34.76-3.67-34.76-8.19c0-.05.01-.1.01-.14h-.01c-8.89,8.89-14.38,21.17-14.38,34.74,0,27.14,22,49.14,49.14,49.14Z"/>
      <path class="cls-5" d="M55.7,98.75c19.19,0,34.76-3.67,34.76-8.19,0-.05-.01-.1-.02-.14-.01-.17-.05-.34-.1-.51-.89-2.66-7.19-4.97-16.32-6.31-5.32-.78-11.59-1.23-18.32-1.23s-13,.45-18.32,1.23c-9.71,1.42-16.21,3.94-16.42,6.81,0,.05-.01.1-.01.14,0,4.52,15.56,8.19,34.76,8.19Z"/>
    </g>
  </g>
</svg>