<?xml version="1.0" encoding="UTF-8"?>
<svg id="Layer_2" data-name="Layer 2" xmlns="http://www.w3.org/2000/svg" viewBox="0 0 180.86 180.86">
  <defs>
    <style>
      .cls-1 {
        fill: #ea8a68;
      }

      .cls-1, .cls-2, .cls-3, .cls-4, .cls-5 {
        stroke-width: 0px;
      }

      .cls-2 {
        fill: #e25e5d;
      }

      .cls-3 {
        fill: #8dd3f6;
      }

      .cls-4 {
        fill: #71cbf4;
      }

      .cls-5 {
        fill: #ec6360;
      }
    </style>
  </defs>
  <g id="Capa_1" data-name="Capa 1">
    <g>
      <path class="cls-3" d="M171.19,9.66c-13.59-13.59-36.49-12.74-51.13,1.91-6.74,6.74-10.56,15.22-11.39,23.74-.25,2.57-2.87,3.79-5.44,2.66-2.3-1.02-3.98-1.22-4.76-.44-2.04,2.04,2.66,10.2,10.96,19.72L11.11,155.57.47,173.6c-2.09,3.54,3.25,8.88,6.79,6.79l18.03-10.64,98.32-98.32c9.52,8.3,17.68,13,19.72,10.96.78-.78.57-2.46-.44-4.76-1.13-2.57.09-5.19,2.66-5.44,8.52-.84,17-4.65,23.74-11.39,14.65-14.65,15.5-37.54,1.9-51.13Z"/>
      <path class="cls-4" d="M110.56,58.52L14.38,154.71l-10.98,17.11c-2.15,3.36,2.28,7.79,5.64,5.64l17.11-10.98,96.19-96.19c-1.98-1.77-4.01-3.69-6.05-5.72-2.04-2.04-3.95-4.07-5.72-6.05ZM27.28,162.81l-16.12,11.31c-3.16,2.22-6.64-1.26-4.42-4.42l11.31-16.12,46.64-46.64,15.69,2.76-53.1,53.1Z"/>
      <path class="cls-1" d="M18.05,153.58l-11.31,16.12c-2.22,3.16,1.26,6.64,4.42,4.42l16.12-11.31,53.1-53.1-15.69-2.76-46.64,46.64Z"/>
      <path class="cls-5" d="M116.28,64.57c2.04,2.04,4.07,3.95,6.05,5.72.43.38.85.76,1.28,1.13,9.52,8.3,17.68,13,19.72,10.96.78-.78.57-2.46-.44-4.76-1.13-2.57.09-5.19,2.66-5.44,8.52-.84,17-4.65,23.74-11.39,14.65-14.65,15.5-37.54,1.9-51.13-13.59-13.59-36.49-12.74-51.13,1.91-6.74,6.74-10.56,15.22-11.39,23.74-.25,2.57-2.87,3.79-5.44,2.66-2.3-1.02-3.98-1.22-4.76-.44-2.04,2.04,2.66,10.2,10.96,19.72.37.42.74.85,1.13,1.28,1.77,1.98,3.69,4.01,5.72,6.05ZM143.13,7.45c7.71-.68,14.94,1.55,16.17,4.98,1.22,3.43-4.04,6.76-11.75,7.44-7.71.68-14.94-1.55-16.16-4.98-1.22-3.43,4.04-6.76,11.75-7.44Z"/>
      <path class="cls-2" d="M147.54,19.87c7.71-.68,12.97-4.01,11.75-7.44-1.22-3.43-8.46-5.66-16.17-4.98-7.71.68-12.97,4.01-11.75,7.44,1.22,3.43,8.46,5.66,16.16,4.98Z"/>
    </g>
  </g>
</svg>