<?xml version="1.0" encoding="UTF-8"?>
<svg id="Layer_2" data-name="Layer 2" xmlns="http://www.w3.org/2000/svg" viewBox="0 0 153.7 180.86">
  <defs>
    <style>
      .cls-1 {
        fill: #e25e5d;
      }

      .cls-1, .cls-2, .cls-3, .cls-4, .cls-5 {
        stroke-width: 0px;
      }

      .cls-2 {
        fill: #8dd3f6;
      }

      .cls-3 {
        fill: #71cbf4;
      }

      .cls-4 {
        fill: #3abff0;
      }

      .cls-5 {
        fill: #ec6360;
      }
    </style>
  </defs>
  <g id="Capa_1" data-name="Capa 1">
    <g>
      <path class="cls-2" d="M151.04,151.82c-7.2-14.21-16.78-30.58-29.5-47.71-6.89-9.29-13.83-17.61-20.56-25.03V19.28c4.93-2.05,7.94-4.75,7.94-7.71,0-6.39-13.96-11.57-31.17-11.57s-31.17,5.18-31.17,11.57c0,2.96,3,5.66,7.94,7.71v57.86c-7.28,7.9-14.84,16.88-22.34,26.98-12.72,17.13-22.3,33.5-29.5,47.71-3.06,4.16-3.52,9.7-1.19,14.3,1.81,3.59,4.93,5.45,6.38,6.24,20.86,11.32,117.15,11.32,138.01,0,1.45-.79,4.56-2.65,6.38-6.24,2.33-4.6,1.87-10.15-1.19-14.3Z"/>
      <path class="cls-3" d="M102.2,11.57c0-3.47-10.95-6.29-24.46-6.29s-24.46,2.82-24.46,6.29,10.95,6.29,24.46,6.29,24.46-2.82,24.46-6.29ZM77.74,11.29c8.31,0,15.36,1.8,17.86,4.3-4.46,1.23-10.81,1.99-17.86,1.99s-13.39-.77-17.86-1.99c2.5-2.5,9.54-4.3,17.86-4.3Z"/>
      <path class="cls-4" d="M95.6,15.58c-2.5-2.5-9.54-4.3-17.86-4.3s-15.36,1.8-17.86,4.3c4.46,1.23,10.81,1.99,17.86,1.99s13.39-.77,17.86-1.99Z"/>
      <path class="cls-3" d="M14.03,167.64c18.99,10.31,106.66,10.31,125.64,0,1.32-.72,4.15-2.41,5.81-5.68,2.12-4.19,1.7-9.24-1.08-13.02-6.56-12.94-15.28-27.84-26.86-43.43-5.54-7.46-11.11-14.25-16.56-20.38-1.48-1.67-2.95-3.28-4.41-4.86V20.79c-5.23,1.47-11.75,2.35-18.83,2.35s-13.6-.88-18.83-2.35v57.58c-1.46,1.54-2.93,3.13-4.41,4.77-6.01,6.65-12.19,14.09-18.34,22.37-11.58,15.6-20.3,30.49-26.86,43.43-2.78,3.78-3.2,8.83-1.08,13.02,1.65,3.27,4.49,4.96,5.81,5.68ZM15.16,146.41c5.99-11.82,13.96-25.43,24.53-39.67.15-.21.31-.41.46-.61h.05c.96-4.61,17.1-8.28,36.88-8.28s36.93,3.9,36.93,8.71c0,.05-.01.11-.02.16,0,0,.01.01.02.02,10.58,14.24,18.54,27.85,24.53,39.67,2.54,3.46,2.93,8.07.99,11.89-1.51,2.98-4.1,4.53-5.3,5.19-17.34,9.42-97.42,9.42-114.76,0-1.2-.65-3.79-2.2-5.3-5.19-1.94-3.83-1.55-8.44.99-11.89Z"/>
      <path class="cls-5" d="M19.47,163.49c17.34,9.42,97.42,9.42,114.76,0,1.2-.65,3.79-2.2,5.3-5.19,1.94-3.83,1.55-8.44-.99-11.89-5.99-11.82-13.96-25.43-24.53-39.67,0,0-.01-.01-.02-.02-.36,4.74-16.74,8.55-36.91,8.55s-36.93-3.9-36.93-8.71c0-.15.02-.29.05-.43h-.05c-.15.21-.31.41-.46.61-10.58,14.24-18.54,27.85-24.53,39.67-2.54,3.46-2.93,8.07-.99,11.89,1.51,2.98,4.1,4.53,5.3,5.19Z"/>
      <path class="cls-1" d="M77.08,115.27c20.17,0,36.55-3.81,36.91-8.55,0-.05.02-.11.02-.16,0-4.81-16.53-8.71-36.93-8.71s-35.93,3.67-36.88,8.28c-.03.14-.05.29-.05.43,0,4.81,16.53,8.71,36.93,8.71Z"/>
    </g>
  </g>
</svg>