<?xml version="1.0" encoding="UTF-8"?>
<svg id="Layer_2" data-name="Layer 2" xmlns="http://www.w3.org/2000/svg" viewBox="0 0 145.42 180.48">
  <defs>
    <style>
      .cls-1 {
        fill: #796aad;
      }

      .cls-1, .cls-2, .cls-3, .cls-4, .cls-5, .cls-6, .cls-7, .cls-8, .cls-9 {
        stroke-width: 0px;
      }

      .cls-2 {
        fill: #abadae;
      }

      .cls-3 {
        fill: #6c5ea6;
      }

      .cls-4 {
        fill: #57c4f2;
      }

      .cls-5 {
        fill: #b9babc;
      }

      .cls-6 {
        fill: #655d94;
      }

      .cls-7 {
        fill: #8dd3f6;
      }

      .cls-8 {
        fill: #71cbf4;
      }

      .cls-9 {
        fill: #d8d8d8;
      }
    </style>
  </defs>
  <g id="Capa_1" data-name="Capa 1">
    <g>
      <path class="cls-7" d="M145.26,160.25v-40.72c-.59,2.32-2.78,4.53-6.29,6.56,3.46-2.01,5.62-4.2,6.21-6.51.1-.42.16-.84.16-1.26h0c0-9.19-25.01-16.84-58.23-18.59-.02-1.36-.31-2.66-.82-3.85,3.28-2.16,5.63-5.63,6.29-9.67.07,0,.13,0,.19,0,9.24,0,16.73-7.49,16.73-16.73,0-2.31-.47-4.51-1.31-6.51,6.64-3.52,11.16-10.5,11.16-18.54,0-11.58-9.39-20.97-20.97-20.97-2.27,0-4.45.36-6.49,1.03C88.25,10.41,75.46,0,60.23,0,42.17,0,27.53,14.64,27.53,32.7c0,2.12.21,4.2.6,6.21-8.16,2.87-14.02,10.64-14.02,19.79,0,11.58,9.39,20.97,20.97,20.97,1.47,0,2.9-.15,4.29-.44,1.22,8.1,7.49,14.34,15.18,14.76-.45,1.15-.71,2.4-.71,3.71,0,.78.1,1.54.26,2.28C22.96,102.11,0,109.51,0,118.31h0c0,.3.03.6.08.89v42H.08c0,.05,0,.1,0,.16,0,.05,0,.1,0,.16H.08c0,10.47,32.54,18.96,72.67,18.96s70.01-7.82,72.5-17.7c.1-.42.16-.84.16-1.26h0c0-.43-.06-.85-.16-1.27Z"/>
      <path class="cls-4" d="M145.26,161.21c0,10.47-32.5,18.96-72.59,18.96S.41,171.76.09,161.36c0,.05,0,.1,0,.16H.08c0,10.47,32.54,18.96,72.67,18.96s70.01-7.82,72.5-17.7c.1-.42.16-.84.16-1.26h0c0-.43-.06-.85-.16-1.27v.95h0Z"/>
      <path class="cls-4" d="M125.82,149.87c0,2.49-2.02,4.51-4.51,4.51s-4.51-2.02-4.51-4.51c0-1.24.5-2.36,1.3-3.17-12.43-2.59-28.19-4.15-45.34-4.15-13.93,0-26.94,1.02-37.99,2.8.43.68.68,1.48.68,2.34,0,2.43-1.97,4.4-4.4,4.4s-4.4-1.97-4.4-4.4c0-.29.03-.58.08-.85-11.25,2.4-19.68,5.67-23.81,9.42v3.88h0c0,8.11,31.23,14.68,69.75,14.68s69.75-6.57,69.75-14.67h0v-4.03c-3.28-2.88-9.11-5.48-16.82-7.61.14.43.21.89.21,1.37ZM72.75,166.17c-21.42,0-38.78-3.79-38.78-8.47s17.36-8.47,38.78-8.47,38.78,3.79,38.78,8.47-17.36,8.47-38.78,8.47Z"/>
      <path class="cls-1" d="M72.75,149.22c-21.42,0-38.78,3.79-38.78,8.47s17.36,8.47,38.78,8.47,38.78-3.79,38.78-8.47-17.36-8.47-38.78-8.47ZM52.8,157.69c-5.21,0-9.44-.92-9.44-2.06s4.23-2.06,9.44-2.06,9.44.92,9.44,2.06-4.23,2.06-9.44,2.06ZM89.09,161.82c-6.53,0-11.83-1.16-11.83-2.58s5.29-2.58,11.83-2.58,11.83,1.16,11.83,2.58-5.29,2.58-11.83,2.58Z"/>
      <path class="cls-3" d="M52.8,153.57c-5.21,0-9.44.92-9.44,2.06s4.23,2.06,9.44,2.06,9.44-.92,9.44-2.06-4.23-2.06-9.44-2.06Z"/>
      <path class="cls-6" d="M89.09,156.65c-6.53,0-11.83,1.16-11.83,2.58s5.29,2.58,11.83,2.58,11.83-1.16,11.83-2.58-5.29-2.58-11.83-2.58Z"/>
      <path class="cls-8" d="M.08,119.2v42H.08c0,.05,0,.1,0,.16.32,10.4,32.69,18.81,72.58,18.81s72.58-8.49,72.59-18.96h0v-41.68c-.59,2.32-2.78,4.53-6.29,6.56-11.37,6.6-36.78,11.19-66.3,11.19C33.68,137.27,1.87,129.26.08,119.2ZM142.42,127.88v32.26h0c0,8.11-31.23,14.68-69.75,14.68S2.92,168.25,2.91,160.14h0v-33.23c0,8.11,31.27,14.68,69.83,14.68s67.28-6.05,69.68-13.7Z"/>
      <path class="cls-8" d="M70.75,115.98c0-1.07.38-2.05,1.01-2.82-.63-.97-1.01-2.13-1.01-3.38,0-.58.08-1.13.23-1.66-.67-.49-1.28-1.05-1.81-1.68-1.52.9-3.28,1.42-5.17,1.42-2.39,0-4.58-.83-6.31-2.21-2.52.13-4.97.29-7.36.47.13.47.2.96.2,1.47,0,3.14-2.55,5.69-5.69,5.69s-5.69-2.55-5.69-5.69c0-.11.01-.21.02-.32-17.67,2.3-29.41,6.36-29.41,10.98h0c0,2.36,3.07,4.58,8.43,6.49,10.68-3.8,30.46-6.39,53.2-6.48-.4-.67-.64-1.45-.64-2.29Z"/>
      <path class="cls-8" d="M82.91,108.12c.15.53.23,1.09.23,1.66,0,2.47-1.45,4.59-3.54,5.59.03.2.05.4.05.6,0,.86-.25,1.67-.68,2.35,4.48.09,8.82.28,12.97.55,0-.06,0-.12,0-.18,0-4.53,3.67-8.21,8.21-8.21s8.21,3.67,8.21,8.21c0,.62-.08,1.22-.21,1.81,7.84,1.1,14.41,2.55,19.17,4.25,5.36-1.91,8.43-4.12,8.43-6.49h0c0-6.28-21.61-11.51-50.34-12.72-.67,1-1.52,1.87-2.49,2.58Z"/>
      <path class="cls-4" d="M100.14,126.91c-4.47,0-8.1-3.58-8.2-8.03-4.15-.27-8.49-.46-12.97-.55-.79,1.26-2.18,2.1-3.77,2.1s-3.03-.87-3.81-2.16c-22.74.1-42.52,2.68-53.2,6.48,10.89,3.88,31.24,6.49,54.56,6.49s43.67-2.61,54.56-6.49c-4.76-1.7-11.33-3.15-19.17-4.25-.82,3.66-4.09,6.4-8,6.4ZM70.75,128.79c-2.23,0-4.04-1.81-4.04-4.04s1.81-4.04,4.04-4.04,4.04,1.81,4.04,4.04-1.81,4.04-4.04,4.04Z"/>
      <path class="cls-2" d="M90.44,47.82c-.34.46-.72.89-1.11,1.3.72.06,1.42.17,2.1.32-.37-.51-.7-1.05-.99-1.62Z"/>
      <path class="cls-2" d="M57.69,105.66c1.74,1.38,3.93,2.21,6.31,2.21,1.89,0,3.65-.52,5.17-1.42.53.63,1.14,1.19,1.81,1.68-.15.53-.23,1.09-.23,1.66,0,1.25.37,2.41,1.01,3.38-.63.77-1.01,1.75-1.01,2.82,0,.84.24,1.62.64,2.29.78,1.29,2.19,2.16,3.81,2.16s2.98-.84,3.77-2.1c.43-.68.68-1.49.68-2.35,0-.21-.02-.41-.05-.6,2.09-.99,3.54-3.12,3.54-5.59,0-.58-.08-1.13-.23-1.66.97-.71,1.82-1.57,2.49-2.58,1.08-1.62,1.72-3.56,1.72-5.65,0-.06,0-.11,0-.17-.02-1.36-.31-2.66-.82-3.85,3.28-2.16,5.63-5.63,6.29-9.67.07,0,.13,0,.19,0,9.24,0,16.73-7.49,16.73-16.73,0-2.31-.47-4.51-1.31-6.51,6.64-3.52,11.16-10.5,11.16-18.54,0-11.58-9.39-20.97-20.97-20.97-2.27,0-4.45.36-6.49,1.03C88.25,10.41,75.46,0,60.23,0,42.17,0,27.53,14.64,27.53,32.7c0,2.12.21,4.2.6,6.21-8.16,2.87-14.02,10.64-14.02,19.79,0,11.58,9.39,20.97,20.97,20.97,1.47,0,2.9-.15,4.29-.44,1.22,8.1,7.49,14.34,15.18,14.76-.45,1.15-.71,2.4-.71,3.71,0,.78.1,1.54.26,2.28.52,2.29,1.81,4.28,3.59,5.69ZM43.36,74.52c-1.55,0-2.94-.7-3.87-1.8-.02-.03-.05-.06-.07-.08-1.61.91-3.47,1.42-5.46,1.42-6.17,0-11.17-5-11.17-11.17s5-11.17,11.17-11.17,11.04,4.88,11.16,10.93c0,.08,0,.16,0,.23,0,.62-.05,1.23-.15,1.82,1.99.68,3.42,2.56,3.42,4.77,0,2.79-2.26,5.05-5.05,5.05ZM50.12,64.96c-1.92,0-3.51-1.46-3.7-3.34-.01-.12-.02-.25-.02-.38,0-2.05,1.66-3.71,3.71-3.71,1.16,0,2.19.53,2.87,1.36.53.64.84,1.46.84,2.36,0,2.05-1.66,3.71-3.71,3.71ZM53.88,33.36c-1.02.48-2.16.75-3.36.75-4.39,0-7.95-3.56-7.95-7.95s3.56-7.95,7.95-7.95c.29,0,.58.02.86.05,2.17-6.43,8.24-11.05,15.4-11.05,8.98,0,16.26,7.28,16.26,16.26,0,1.07-.11,2.11-.3,3.13,1.06.25,2.07.62,3.02,1.11,2.77,1.41,4.98,3.74,6.24,6.59,2.26-2.68,5.65-4.39,9.43-4.39,6.81,0,12.33,5.52,12.33,12.33s-5.52,12.33-12.33,12.33c-.4,0-.8-.02-1.2-.06-.05,0-.1-.01-.15-.02,2.6,2.9,4.19,6.72,4.19,10.92,0,7.44-4.97,13.71-11.76,15.69-1.46.43-2.99.66-4.59.66-.02,0-.03,0-.05,0h0c0,2.79-2.26,5.05-5.05,5.05s-5.05-2.26-5.05-5.05c0-1.06.33-2.05.9-2.87-2.85-1.96-5.05-4.8-6.2-8.13-.58-1.68-.9-3.47-.9-5.35,0-4.96,2.21-9.4,5.7-12.4-3.56-.63-6.64-2.66-8.65-5.5-1.55-2.2-2.47-4.88-2.47-7.78,0,0,0-.01,0-.02-5-.19-9.42-2.63-12.28-6.35Z"/>
      <path class="cls-5" d="M66.15,39.73c0,2.9.92,5.58,2.47,7.78,2.01,2.84,5.08,4.87,8.65,5.5-3.49,3-5.7,7.44-5.7,12.4,0,1.87.32,3.67.9,5.35,1.15,3.33,3.35,6.17,6.2,8.13-.56.81-.9,1.8-.9,2.87,0,2.79,2.26,5.05,5.05,5.05s5.05-2.26,5.05-5.05h0s.03,0,.05,0c1.59,0,3.13-.23,4.59-.66,6.79-1.98,11.76-8.26,11.76-15.69,0-4.2-1.59-8.03-4.19-10.92.05,0,.1.01.15.02.39.04.79.06,1.2.06,6.81,0,12.33-5.52,12.33-12.33s-5.52-12.33-12.33-12.33c-3.78,0-7.17,1.71-9.43,4.39-1.26-2.85-3.47-5.18-6.24-6.59-.95-.48-1.96-.86-3.02-1.11.2-1.01.3-2.06.3-3.13,0-8.98-7.28-16.26-16.26-16.26-7.16,0-13.23,4.63-15.4,11.05,3.99.43,7.09,3.8,7.09,7.9,0,3.19-1.88,5.93-4.59,7.2,2.85,3.72,7.28,6.16,12.28,6.35,0,0,0,.01,0,.02ZM90.44,47.82c.29.57.62,1.11.99,1.62-.69-.15-1.39-.26-2.1-.32.4-.41.77-.84,1.11-1.3Z"/>
      <path class="cls-5" d="M44.99,64.71c.1-.59.15-1.2.15-1.82,0-.08,0-.16,0-.23-.13-6.06-5.07-10.93-11.16-10.93s-11.17,5-11.17,11.17,5,11.17,11.17,11.17c1.98,0,3.84-.52,5.46-1.42.02.03.05.06.07.08.93,1.1,2.31,1.8,3.87,1.8,2.79,0,5.05-2.26,5.05-5.05,0-2.22-1.43-4.09-3.42-4.77Z"/>
      <path class="cls-9" d="M58.47,26.16c0-4.1-3.11-7.47-7.09-7.9-.28-.03-.57-.05-.86-.05-4.39,0-7.95,3.56-7.95,7.95s3.56,7.95,7.95,7.95c1.2,0,2.34-.27,3.36-.75,2.71-1.27,4.59-4.01,4.59-7.2Z"/>
      <path class="cls-9" d="M50.12,57.53c-2.05,0-3.71,1.66-3.71,3.71,0,.13,0,.25.02.38.19,1.87,1.77,3.34,3.7,3.34,2.05,0,3.71-1.66,3.71-3.71,0-.89-.32-1.72-.84-2.36-.68-.83-1.71-1.36-2.87-1.36Z"/>
      <path class="cls-1" d="M100.14,126.91c3.91,0,7.18-2.74,8-6.4.13-.58.21-1.18.21-1.81,0-4.53-3.68-8.21-8.21-8.21s-8.21,3.67-8.21,8.21c0,.06,0,.12,0,.18.1,4.45,3.73,8.03,8.2,8.03ZM102.25,121.29c2.03-1.64,4.2-2.33,4.85-1.53.64.8-.48,2.78-2.51,4.42-2.03,1.64-4.2,2.33-4.85,1.53-.64-.8.48-2.78,2.51-4.42ZM95.78,113.29c1-.81,2.33-.81,2.98-.02.65.8.36,2.1-.64,2.91-1,.81-2.33.81-2.98.02-.65-.8-.36-2.1.64-2.91Z"/>
      <path class="cls-3" d="M98.12,116.18c1-.81,1.28-2.11.64-2.91-.65-.8-1.98-.79-2.98.02-1,.81-1.28,2.11-.64,2.91.65.8,1.98.79,2.98-.02Z"/>
      <path class="cls-6" d="M104.59,124.18c2.03-1.64,3.15-3.62,2.51-4.42-.65-.8-2.82-.11-4.85,1.53-2.03,1.64-3.15,3.62-2.51,4.42.65.8,2.82.11,4.85-1.53Z"/>
      <path class="cls-1" d="M70.75,120.72c-2.23,0-4.04,1.81-4.04,4.04s1.81,4.04,4.04,4.04,4.04-1.81,4.04-4.04-1.81-4.04-4.04-4.04ZM69.76,123.51c-.49.4-1.15.4-1.46,0-.32-.39-.18-1.03.31-1.43.49-.4,1.15-.4,1.46,0,.32.39.18,1.03-.31,1.43ZM74.17,125.28c.32.39-.24,1.37-1.23,2.17-1,.81-2.07,1.14-2.38.75-.32-.39.23-1.36,1.23-2.17,1-.81,2.07-1.14,2.38-.75Z"/>
      <path class="cls-3" d="M68.61,122.09c-.49.4-.63,1.04-.31,1.43.32.39.97.39,1.46,0,.49-.4.63-1.04.31-1.43-.32-.39-.97-.39-1.46,0Z"/>
      <path class="cls-6" d="M70.56,128.2c.32.39,1.38.06,2.38-.75,1-.81,1.55-1.78,1.23-2.17-.32-.39-1.38-.06-2.38.75-1,.81-1.55,1.78-1.23,2.17Z"/>
      <path class="cls-1" d="M31.04,152.09c2.43,0,4.4-1.97,4.4-4.4,0-.86-.25-1.66-.68-2.34-.78-1.23-2.15-2.05-3.72-2.05-2.14,0-3.92,1.53-4.31,3.55-.05.28-.08.56-.08.85,0,2.43,1.97,4.4,4.4,4.4ZM32.17,149.08c1.09-.88,2.25-1.25,2.6-.82.35.43-.26,1.49-1.34,2.37-1.09.88-2.25,1.25-2.6.82-.35-.43.26-1.49,1.34-2.37ZM28.71,144.8c.54-.43,1.25-.44,1.59,0,.35.43.19,1.13-.34,1.56-.54.43-1.25.44-1.59,0-.35-.43-.19-1.13.34-1.56Z"/>
      <path class="cls-3" d="M29.96,146.34c.53-.43.69-1.13.34-1.56-.35-.43-1.06-.42-1.59,0-.53.43-.69,1.13-.34,1.56.35.43,1.06.42,1.59,0Z"/>
      <path class="cls-6" d="M33.42,150.63c1.09-.88,1.69-1.94,1.34-2.37-.35-.43-1.51-.06-2.6.82-1.09.88-1.69,1.94-1.34,2.37.35.43,1.51.06,2.6-.82Z"/>
      <path class="cls-1" d="M121.3,154.38c2.49,0,4.51-2.02,4.51-4.51,0-.48-.08-.94-.21-1.37-.58-1.82-2.28-3.14-4.3-3.14-1.25,0-2.39.51-3.21,1.34-.81.82-1.3,1.94-1.3,3.17,0,2.49,2.02,4.51,4.51,4.51ZM122.46,151.3c1.12-.9,2.31-1.28,2.66-.84s-.26,1.53-1.38,2.43c-1.12.9-2.31,1.28-2.66.84-.35-.44.26-1.53,1.38-2.43ZM118.91,146.9c.55-.44,1.28-.45,1.64,0,.35.44.2,1.15-.35,1.6-.55.44-1.28.45-1.64,0-.35-.44-.2-1.15.35-1.6Z"/>
      <path class="cls-3" d="M120.19,148.49c.55-.44.71-1.16.35-1.6-.36-.44-1.09-.43-1.64,0-.55.44-.71,1.16-.35,1.6.35.44,1.09.44,1.64,0Z"/>
      <path class="cls-6" d="M123.75,152.89c1.12-.9,1.73-1.99,1.38-2.43s-1.55-.06-2.66.84c-1.12.9-1.73,1.99-1.38,2.43.35.44,1.55.06,2.66-.84Z"/>
      <path class="cls-1" d="M44.84,113.29c3.14,0,5.69-2.55,5.69-5.69,0-.51-.07-1-.2-1.47-.65-2.43-2.86-4.22-5.49-4.22-3.03,0-5.5,2.38-5.67,5.37,0,.11-.02.21-.02.32,0,3.14,2.55,5.69,5.69,5.69ZM46.31,109.4c1.41-1.14,2.91-1.61,3.36-1.06.45.55-.33,1.92-1.74,3.06-1.41,1.14-2.91,1.61-3.36,1.06-.45-.55.33-1.92,1.74-3.06ZM41.83,103.85c.69-.56,1.61-.56,2.06-.01.45.55.25,1.46-.44,2.01-.69.56-1.62.56-2.06.01-.45-.55-.25-1.45.44-2.01Z"/>
      <path class="cls-3" d="M43.45,105.86c.69-.56.89-1.46.44-2.01-.45-.55-1.37-.55-2.06.01-.69.56-.89,1.46-.44,2.01.45.55,1.37.55,2.06-.01Z"/>
      <path class="cls-6" d="M47.93,111.4c1.41-1.14,2.19-2.51,1.74-3.06-.45-.55-1.95-.08-3.36,1.06-1.41,1.14-2.19,2.51-1.74,3.06.45.55,1.95.08,3.36-1.06Z"/>
    </g>
  </g>
</svg>