<?xml version="1.0" encoding="UTF-8"?>
<svg id="Layer_2" data-name="Layer 2" xmlns="http://www.w3.org/2000/svg" viewBox="0 0 128.51 185.21">
  <defs>
    <style>
      .cls-1 {
        fill: #abadae;
      }

      .cls-1, .cls-2, .cls-3, .cls-4, .cls-5 {
        stroke-width: 0px;
      }

      .cls-2 {
        fill: #999b9c;
      }

      .cls-3 {
        fill: #57c4f2;
      }

      .cls-4 {
        fill: #b9babc;
      }

      .cls-5 {
        fill: #71cbf4;
      }
    </style>
  </defs>
  <g id="Capa_1" data-name="Capa 1">
    <g>
      <path class="cls-4" d="M110.71,9.59l.03-.05-8.55-4.83c-20.03-11.31-46.97-1.55-60.16,21.8-13.01,23.04-7.78,50.68,11.59,62.29l-5.93,10.5c-2.09-.62-3.69-.62-4.13.17L.12,176.39c-.73,1.29,1.94,4.16,5.95,6.43,4.01,2.26,7.85,3.06,8.58,1.77l43.44-76.92c.44-.78-.38-2.16-1.99-3.62l5.92-10.47.97.55.03-.05c19.82,9.76,45.55-.1,58.35-22.76,12.8-22.66,7.96-49.79-10.64-61.72Z"/>
      <path class="cls-2" d="M114.58,67.49c-11.48,20.32-33.36,30.35-52.05,25.16l-.52.93.97.55.03-.05c19.82,9.76,45.55-.1,58.35-22.76,12.8-22.66,7.96-49.79-10.64-61.72l.03-.05-8.55-4.83c20.03,11.31,25.58,39.42,12.39,62.78Z"/>
      <path class="cls-2" d="M50.33,104.44c-2.32-1.31-3.78-3.12-3.26-4.03l.62-1.1c-2.09-.62-3.69-.62-4.13.17-.73,1.29,1.94,4.16,5.95,6.43,4.01,2.26,7.85,3.06,8.58,1.77.44-.78-.38-2.16-1.99-3.62l-.62,1.1c-.52.92-2.82.6-5.14-.71Z"/>
      <path class="cls-1" d="M47.07,100.4c-.52.92.94,2.72,3.26,4.03,2.32,1.31,4.62,1.63,5.14.71l.62-1.1,5.92-10.47.52-.93c-2.79-.77-5.51-1.88-8.11-3.35h0c-.27-.16-.53-.33-.8-.49l-5.93,10.5-.62,1.1Z"/>
      <path class="cls-5" d="M55.57,34.16c-9.97,17.65-6.78,38.64,6.8,48.91,15.81,6.36,35.45-1.74,45.43-19.4,9.98-17.67,6.77-38.67-6.84-48.93-15.8-6.33-35.42,1.77-45.39,19.42Z"/>
      <path class="cls-3" d="M60.26,82.12c.09.04.17.09.26.13.41.2.83.39,1.25.57.14.06.29.12.43.18.06.03.12.05.19.08,0,0-.01,0-.02-.01-13.58-10.26-16.77-31.25-6.8-48.91,9.97-17.65,29.59-25.75,45.39-19.42,0,0,.01,0,.02,0-.04-.03-.08-.05-.11-.08-.38-.29-.78-.56-1.18-.83-.12-.08-.24-.17-.36-.25-.52-.34-1.06-.67-1.61-.98-16.29-9.2-38.2-1.26-48.93,17.73-10.73,19-6.22,41.85,10.08,51.06.46.26.92.5,1.38.73Z"/>
    </g>
  </g>
</svg>