<?xml version="1.0" encoding="UTF-8"?>
<svg id="Layer_2" data-name="Layer 2" xmlns="http://www.w3.org/2000/svg" viewBox="0 0 180.86 134.43">
  <defs>
    <style>
      .cls-1 {
        fill: #796aad;
      }

      .cls-1, .cls-2, .cls-3, .cls-4, .cls-5, .cls-6, .cls-7, .cls-8, .cls-9, .cls-10, .cls-11 {
        stroke-width: 0px;
      }

      .cls-2 {
        fill: #abadae;
      }

      .cls-3 {
        fill: #b9babc;
      }

      .cls-4 {
        fill: #e25e5d;
      }

      .cls-5 {
        fill: #fcd377;
      }

      .cls-6 {
        fill: #655d94;
      }

      .cls-7 {
        fill: #8dd3f6;
      }

      .cls-8 {
        fill: #71cbf4;
      }

      .cls-9 {
        fill: #3abff0;
      }

      .cls-10 {
        fill: #ec6360;
      }

      .cls-11 {
        fill: #eac06b;
      }
    </style>
  </defs>
  <g id="Capa_1" data-name="Capa 1">
    <g>
      <path class="cls-3" d="M180.86,112.28h0c0-3.75-40.49-6.79-90.43-6.79-25.62,0-48.75.8-65.21,2.09V21.33h37.58v9.86c-2.94,3.2-6,6.82-9.03,10.91-5.14,6.93-9.02,13.54-11.93,19.29-1.24,1.68-1.42,3.92-.48,5.78.73,1.45,1.99,2.2,2.58,2.52,8.43,4.58,47.37,4.58,55.8,0,.59-.32,1.84-1.07,2.58-2.52.94-1.86.75-4.1-.48-5.78-2.91-5.75-6.79-12.36-11.93-19.29-2.79-3.76-5.59-7.11-8.31-10.11v-10.65h33.39v43.6c0,4.52,3.67,8.19,8.19,8.19s8.19-3.67,8.19-8.19V21.33h11.76v43.6c0,4.52,3.67,8.19,8.19,8.19s8.19-3.67,8.19-8.19V21.33h13.08c1.96,0,3.56-1.59,3.56-3.56v-.1c0-1.96-1.59-3.56-3.56-3.56h-13.08v-7.32c1.74-.72,2.8-1.67,2.8-2.72,0-2.25-4.92-4.08-10.99-4.08s-10.99,1.83-10.99,4.08c0,1.04,1.06,2,2.8,2.72v7.32h-11.76v-7.32c1.74-.72,2.8-1.67,2.8-2.72,0-2.25-4.92-4.08-10.99-4.08s-10.99,1.83-10.99,4.08c0,1.04,1.06,2,2.8,2.72v7.32h-33.39v-6.32c2-.83,3.21-1.92,3.21-3.12,0-2.58-5.64-4.68-12.6-4.68s-12.6,2.09-12.6,4.68c0,1.2,1.21,2.29,3.21,3.12v6.32H7.69c-1.96,0-3.56,1.59-3.56,3.56v.1c0,1.96,1.59,3.56,3.56,3.56h6.39v87.31c-8.92,1.05-14.08,2.3-14.08,3.64h0c0,.11.04.21.1.32v15.03H.1c0,3.75,40.44,6.79,90.33,6.79s90.32-3.04,90.33-6.79h0v-14.92c-.73.83-3.46,1.62-7.83,2.35,4.31-.72,7-1.5,7.73-2.33.13-.15.2-.3.2-.45Z"/>
      <path class="cls-7" d="M116.54,7.33c1.84.52,4.14.83,6.63.83s4.79-.31,6.63-.83v6.79h1.55v-7.32c1.74-.72,2.8-1.67,2.8-2.72,0-2.25-4.92-4.08-10.99-4.08s-10.99,1.83-10.99,4.08c0,1.04,1.06,2,2.8,2.72v7.32h1.55v-6.79ZM114.55,4.08c0-1.22,3.86-2.22,8.62-2.22s8.62.99,8.62,2.22c0,.59-.89,1.12-2.33,1.51,0,0,0,0,0,0-.02,0-.05.01-.08.02-.13.03-.26.07-.4.1-.07.02-.14.03-.22.05-.14.03-.29.06-.44.09-.08.02-.16.03-.24.05-.15.03-.31.05-.46.08-.09.01-.17.03-.26.04-.16.02-.32.04-.48.06-.1.01-.19.03-.29.04-.16.02-.33.03-.5.05-.1,0-.2.02-.31.03-.18.01-.36.03-.54.04-.1,0-.2.01-.31.02-.2.01-.4.02-.6.02-.09,0-.18,0-.28.01-.3,0-.6.01-.9.01s-.6,0-.9-.01c-.09,0-.18,0-.28-.01-.2,0-.4-.01-.6-.02-.1,0-.2-.01-.31-.02-.18-.01-.36-.02-.54-.04-.1,0-.2-.02-.31-.03-.17-.02-.34-.03-.5-.05-.1-.01-.19-.02-.29-.04-.16-.02-.33-.04-.48-.06-.09-.01-.18-.03-.26-.04-.16-.03-.31-.05-.46-.08-.08-.01-.16-.03-.24-.05-.15-.03-.3-.06-.44-.09-.07-.02-.14-.03-.22-.05-.14-.03-.27-.07-.4-.1-.02,0-.05-.01-.07-.02,0,0,0,0,0,0-1.44-.4-2.33-.93-2.33-1.51Z"/>
      <path class="cls-7" d="M129.81,64.98c0,3.66-2.97,6.63-6.63,6.63s-6.63-2.97-6.63-6.63V23.88h-1.55v41.05c0,4.52,3.67,8.19,8.19,8.19s8.19-3.67,8.19-8.19V23.88h-1.55v41.1Z"/>
      <path class="cls-8" d="M123.17,71.61c3.66,0,6.63-2.97,6.63-6.63V23.88h-13.27v41.1c0,3.66,2.97,6.63,6.63,6.63ZM117.69,36.22c0-1.18,2.45-2.14,5.48-2.14s5.48.96,5.48,2.14v28.05c0,2.98-2.42,5.4-5.4,5.4h-.16c-2.98,0-5.4-2.42-5.4-5.4v-28.05Z"/>
      <path class="cls-8" d="M123.17,8.16c-2.49,0-4.79-.31-6.63-.83v6.79h13.27v-6.79c-1.84.52-4.14.83-6.63.83Z"/>
      <path class="cls-8" d="M123.17,4.08c2.93,0,5.41.63,6.29,1.51,1.44-.4,2.33-.93,2.33-1.51,0-1.22-3.86-2.22-8.62-2.22s-8.62.99-8.62,2.22c0,.59.89,1.12,2.33,1.51.88-.88,3.36-1.51,6.29-1.51Z"/>
      <path class="cls-9" d="M116.88,5.59s0,0,0,0c.02,0,.05.01.07.02.13.03.26.07.4.1.07.02.14.03.22.05.14.03.29.06.44.09.08.01.16.03.24.05.15.03.31.05.46.08.09.01.17.03.26.04.16.02.32.04.48.06.1.01.19.02.29.04.16.02.33.03.5.05.1,0,.2.02.31.03.18.01.36.03.54.04.1,0,.2.01.31.02.2.01.4.02.6.02.09,0,.18,0,.28.01.3,0,.6.01.9.01s.6,0,.9-.01c.09,0,.18,0,.28-.01.2,0,.4-.01.6-.02.1,0,.21-.01.31-.02.18-.01.36-.02.54-.04.1,0,.21-.02.31-.03.17-.02.34-.03.5-.05.1-.01.19-.02.29-.04.16-.02.32-.04.48-.06.09-.01.18-.03.26-.04.16-.02.31-.05.46-.08.08-.01.16-.03.24-.05.15-.03.29-.06.44-.09.07-.02.14-.03.22-.05.14-.03.27-.07.4-.1.02,0,.05-.01.08-.02,0,0,0,0,0,0-.88-.88-3.36-1.51-6.29-1.51s-5.41.63-6.29,1.51Z"/>
      <path class="cls-1" d="M123.09,69.67h.16c2.98,0,5.4-2.42,5.4-5.4v-28.05c0,1.18-2.45,2.14-5.48,2.14s-5.48-.96-5.48-2.14v28.05c0,2.98,2.42,5.4,5.4,5.4Z"/>
      <path class="cls-6" d="M123.17,38.36c3.03,0,5.48-.96,5.48-2.14s-2.45-2.14-5.48-2.14-5.48.96-5.48,2.14,2.45,2.14,5.48,2.14Z"/>
      <path class="cls-7" d="M79.81,32.46c.59.64,1.18,1.29,1.78,1.96,2.2,2.48,4.46,5.22,6.7,8.24,4.68,6.31,8.21,12.33,10.86,17.56,1.13,1.53,1.3,3.57.44,5.26-.67,1.32-1.81,2.01-2.35,2.3-7.68,4.17-43.12,4.17-50.8,0-.53-.29-1.68-.97-2.35-2.3-.86-1.69-.69-3.73.44-5.26,2.65-5.23,6.18-11.25,10.86-17.56,2.49-3.35,4.98-6.35,7.41-9.04.6-.66,1.19-1.31,1.78-1.93v-7.81h-1.78v7.31c-2.94,3.2-6,6.82-9.03,10.91-5.14,6.93-9.02,13.54-11.93,19.29-1.24,1.68-1.42,3.92-.48,5.78.73,1.45,1.99,2.2,2.58,2.52,8.43,4.58,47.37,4.58,55.8,0,.59-.32,1.84-1.07,2.58-2.52.94-1.86.75-4.1-.48-5.78-2.91-5.75-6.79-12.36-11.93-19.29-2.79-3.76-5.59-7.11-8.31-10.11v-8.1h-1.78v8.58Z"/>
      <path class="cls-7" d="M64.59,8.41c2.12.6,4.75.95,7.61.95s5.5-.35,7.61-.95v5.71h1.78v-6.32c2-.83,3.21-1.92,3.21-3.12,0-2.58-5.64-4.68-12.6-4.68s-12.6,2.09-12.6,4.68c0,1.2,1.21,2.29,3.21,3.12v6.32h1.78v-5.71ZM62.31,4.68c0-1.4,4.43-2.54,9.89-2.54s9.89,1.14,9.89,2.54-4.43,2.54-9.89,2.54-9.89-1.14-9.89-2.54Z"/>
      <path class="cls-8" d="M72.2,9.36c-2.86,0-5.5-.35-7.61-.95v5.71h15.22v-5.71c-2.12.6-4.75.95-7.61.95Z"/>
      <path class="cls-8" d="M82.09,4.68c0-1.4-4.43-2.54-9.89-2.54s-9.89,1.14-9.89,2.54,4.43,2.54,9.89,2.54,9.89-1.14,9.89-2.54ZM72.2,4.56c3.36,0,6.21.73,7.22,1.74-1.8.5-4.37.81-7.22.81s-5.41-.31-7.22-.81c1.01-1.01,3.86-1.74,7.22-1.74Z"/>
      <path class="cls-9" d="M79.42,6.3c-1.01-1.01-3.86-1.74-7.22-1.74s-6.21.73-7.22,1.74c1.8.5,4.37.81,7.22.81s5.41-.31,7.22-.81Z"/>
      <path class="cls-8" d="M62.8,33.62c-2.43,2.69-4.93,5.69-7.41,9.04-4.68,6.31-8.21,12.33-10.86,17.56-1.13,1.53-1.3,3.57-.44,5.26.67,1.32,1.81,2.01,2.35,2.3,7.68,4.17,43.12,4.17,50.8,0,.53-.29,1.68-.97,2.35-2.3.86-1.69.69-3.73-.44-5.26-2.65-5.23-6.18-11.25-10.86-17.56-2.24-3.02-4.49-5.76-6.7-8.24-.6-.67-1.19-1.32-1.78-1.96v-8.58h-15.22v7.81c-.59.62-1.18,1.27-1.78,1.93ZM71.93,39.56c8.25,0,14.93,1.58,14.93,3.52,0,.02,0,.04,0,.06,0,0,0,0,0,0,4.28,5.76,7.5,11.26,9.92,16.04,1.03,1.4,1.18,3.26.4,4.81-.61,1.21-1.66,1.83-2.14,2.1-7.01,3.81-39.39,3.81-46.4,0-.49-.26-1.53-.89-2.14-2.1-.78-1.55-.63-3.41.4-4.81,2.42-4.78,5.64-10.28,9.92-16.04.06-.08.12-.17.19-.25h.02c.39-1.86,6.91-3.35,14.91-3.35Z"/>
      <path class="cls-10" d="M71.93,46.6c-8.25,0-14.93-1.58-14.93-3.52,0-.06,0-.12.02-.18h-.02c-.06.08-.12.16-.19.25-4.28,5.76-7.5,11.26-9.92,16.04-1.03,1.4-1.18,3.26-.4,4.81.61,1.21,1.66,1.83,2.14,2.1,7.01,3.81,39.39,3.81,46.4,0,.49-.26,1.53-.89,2.14-2.1.78-1.55.63-3.41-.4-4.81-2.42-4.78-5.64-10.28-9.92-16.04,0,0,0,0,0,0-.15,1.91-6.77,3.46-14.92,3.46Z"/>
      <path class="cls-4" d="M57.02,42.91c-.01.06-.02.12-.02.18,0,1.94,6.68,3.52,14.93,3.52s14.78-1.54,14.92-3.46c0-.02,0-.04,0-.06,0-1.95-6.68-3.52-14.93-3.52s-14.52,1.48-14.91,3.35Z"/>
      <path class="cls-2" d="M90.43,105.5c-25.62,0-48.75.8-65.21,2.09V21.33h-11.14v87.31c-8.92,1.05-14.08,2.3-14.08,3.64h0c0,.11.04.21.1.32,2.22,3.6,41.81,6.47,90.33,6.47,36.73,0,68.34-1.64,82.5-4,4.31-.72,7-1.5,7.73-2.33.13-.15.2-.3.2-.45h0c0-3.75-40.49-6.79-90.43-6.79Z"/>
      <polygon class="cls-9" points="62.8 23.88 64.59 23.88 79.81 23.88 81.59 23.88 81.59 21.33 62.8 21.33 62.8 23.88"/>
      <polygon class="cls-9" points="114.99 23.88 116.54 23.88 129.81 23.88 131.36 23.88 131.36 21.33 114.99 21.33 114.99 23.88"/>
      <path class="cls-7" d="M157.94,64.98c0,3.66-2.97,6.63-6.63,6.63s-6.63-2.97-6.63-6.63V23.88h-1.55v41.05c0,4.52,3.67,8.19,8.19,8.19s8.19-3.67,8.19-8.19V23.88h-1.55v41.1Z"/>
      <path class="cls-7" d="M144.67,7.33c1.84.52,4.14.83,6.63.83s4.79-.31,6.63-.83v6.79h1.55v-7.32c1.74-.72,2.8-1.67,2.8-2.72,0-2.25-4.92-4.08-10.99-4.08s-10.99,1.83-10.99,4.08c0,1.04,1.06,2,2.8,2.72v7.32h1.55v-6.79ZM142.69,4.08c0-1.22,3.86-2.22,8.62-2.22s8.62.99,8.62,2.22c0,.59-.89,1.12-2.33,1.51,0,0,0,0,0,0-.02,0-.05.01-.07.02-.13.03-.27.07-.4.1-.07.02-.14.03-.21.05-.14.03-.29.06-.44.09-.08.02-.15.03-.23.05-.15.03-.31.05-.47.08-.09.01-.17.03-.26.04-.16.02-.32.04-.48.06-.1.01-.19.02-.29.04-.16.02-.33.03-.51.05-.1,0-.2.02-.3.03-.18.01-.36.03-.54.04-.1,0-.2.01-.3.02-.2.01-.4.02-.6.02-.09,0-.18,0-.27.01-.3,0-.6.01-.9.01s-.6,0-.9-.01c-.09,0-.18,0-.28-.01-.2,0-.4-.01-.6-.02-.1,0-.2-.01-.31-.02-.18-.01-.36-.02-.54-.04-.1,0-.2-.02-.31-.03-.17-.02-.34-.03-.5-.05-.1-.01-.19-.02-.29-.04-.16-.02-.33-.04-.48-.06-.09-.01-.18-.03-.26-.04-.16-.03-.31-.05-.46-.08-.08-.01-.16-.03-.24-.05-.15-.03-.3-.06-.44-.09-.07-.02-.14-.03-.22-.05-.14-.03-.27-.07-.4-.1-.02,0-.05-.01-.07-.02,0,0,0,0,0,0-1.44-.4-2.33-.93-2.33-1.51Z"/>
      <path class="cls-8" d="M151.31,71.61c3.66,0,6.63-2.97,6.63-6.63V23.88h-13.27v41.1c0,3.66,2.97,6.63,6.63,6.63ZM145.83,36.22c0-1.18,2.45-2.14,5.48-2.14s5.48.96,5.48,2.14v28.05c0,2.98-2.42,5.4-5.4,5.4h-.16c-2.98,0-5.4-2.42-5.4-5.4v-28.05Z"/>
      <path class="cls-8" d="M151.31,8.16c-2.49,0-4.79-.31-6.63-.83v6.79h13.27v-6.79c-1.84.52-4.14.83-6.63.83Z"/>
      <path class="cls-8" d="M151.31,4.08c2.93,0,5.41.63,6.29,1.51,1.44-.4,2.33-.93,2.33-1.51,0-1.22-3.86-2.22-8.62-2.22s-8.62.99-8.62,2.22c0,.59.89,1.12,2.33,1.51.88-.88,3.36-1.51,6.29-1.51Z"/>
      <path class="cls-9" d="M145.02,5.59s0,0,0,0c.02,0,.05.01.07.02.13.03.26.07.4.1.07.02.14.03.22.05.14.03.29.06.44.09.08.01.16.03.24.05.15.03.31.05.46.08.09.01.17.03.26.04.16.02.32.04.48.06.1.01.19.02.29.04.16.02.33.03.5.05.1,0,.2.02.31.03.18.01.36.03.54.04.1,0,.2.01.31.02.2.01.4.02.6.02.09,0,.18,0,.28.01.3,0,.6.01.9.01s.6,0,.9-.01c.09,0,.18,0,.27-.01.2,0,.4-.01.6-.02.1,0,.2-.01.3-.02.18-.01.36-.02.54-.04.1,0,.2-.02.3-.03.17-.02.34-.03.51-.05.1-.01.19-.02.29-.04.16-.02.33-.04.48-.06.09-.01.17-.03.26-.04.16-.02.31-.05.47-.08.08-.01.16-.03.23-.05.15-.03.3-.06.44-.09.07-.02.14-.03.21-.05.14-.03.27-.07.4-.1.02,0,.05-.01.07-.02,0,0,0,0,0,0-.88-.88-3.36-1.51-6.29-1.51s-5.41.63-6.29,1.51Z"/>
      <path class="cls-5" d="M151.23,69.67h.16c2.98,0,5.4-2.42,5.4-5.4v-28.05c0,1.18-2.45,2.14-5.48,2.14s-5.48-.96-5.48-2.14v28.05c0,2.98,2.42,5.4,5.4,5.4Z"/>
      <path class="cls-11" d="M151.31,38.36c3.03,0,5.48-.96,5.48-2.14s-2.45-2.14-5.48-2.14-5.48.96-5.48,2.14,2.45,2.14,5.48,2.14Z"/>
      <polygon class="cls-9" points="143.12 23.88 144.67 23.88 157.94 23.88 159.5 23.88 159.5 21.33 143.12 21.33 143.12 23.88"/>
      <rect class="cls-2" x="5.68" y="15.71" width="168.91" height="2.01"/>
      <polygon class="cls-2" points="143.12 18.42 131.36 18.42 114.99 18.42 113.66 18.42 113.66 19.42 174.59 19.42 174.59 18.42 159.5 18.42 143.12 18.42"/>
    </g>
  </g>
</svg>