<?xml version="1.0" encoding="UTF-8"?>
<svg id="Layer_2" data-name="Layer 2" xmlns="http://www.w3.org/2000/svg" viewBox="0 0 169.01 180.85">
  <defs>
    <style>
      .cls-1 {
        fill: #6ba55f;
      }

      .cls-1, .cls-2, .cls-3, .cls-4 {
        stroke-width: 0px;
      }

      .cls-2 {
        fill: #abadae;
      }

      .cls-3 {
        fill: #86c276;
      }

      .cls-4 {
        fill: #98c989;
      }
    </style>
  </defs>
  <g id="Capa_1" data-name="Capa 1">
    <g>
      <path class="cls-2" d="M151.65,102.31s-.05-.04-.08-.07c-.33-.27-.67-.54-1.01-.81-.15-.12-.29-.23-.44-.35-.03-.02-.05-.04-.08-.07-.9-.71-1.83-1.42-2.78-2.13-.05-.04-.1-.07-.15-.11-.46-.34-.92-.68-1.39-1.03-.04-.03-.09-.06-.13-.09-.49-.36-.99-.72-1.5-1.08h0c-5.61-4.02-11.93-8.08-18.79-12.09.14-.15.28-.3.42-.46,0,0,0,0,0,0,6.18-6.63,11.66-13.12,16.24-19.25.04-.05.07-.1.11-.15.53-.71,1.05-1.42,1.55-2.12.07-.1.14-.19.21-.29.16-.22.31-.43.47-.65,10.62-15,14.02-25.44,10.13-31.07-.02-.03-.05-.07-.07-.11-.15-.21-.31-.42-.49-.62,0,0,0,0,0,0-.13-.15-.27-.3-.42-.44-.07-.07-.15-.14-.22-.2-.06-.06-.12-.11-.19-.17-.12-.1-.24-.2-.37-.29,0,0,0,0,0,0-4.95-3.77-14.63-2.11-28.85,4.95-.16.08-.32.16-.47.24-.31.15-.61.31-.92.47-.3.15-.61.31-.91.47-.15.08-.29.15-.44.23-.05.03-.1.06-.16.08-.28.15-.56.3-.84.45-.23.12-.46.25-.7.37-.25.13-.5.27-.75.41-.28.15-.56.31-.85.47-.2.11-.4.22-.6.33-.36.2-.71.4-1.07.6-.13.07-.26.15-.39.22-.45.26-.9.52-1.36.78-.04.03-.09.05-.13.08-4.28,2.5-8.73,5.32-13.29,8.42-1.11-.5-2.25-.95-3.42-1.35-2.29-6.82-4.72-13.14-7.23-18.81-.03-.07-.06-.13-.09-.2-.18-.41-.37-.83-.55-1.23,0,0,0-.02-.01-.03-.08-.17-.15-.33-.23-.49-.14-.31-.28-.62-.43-.92-.17-.37-.35-.73-.52-1.09-.05-.1-.1-.2-.14-.3C81.02,7.62,74.08-.03,67.64,0c0,0,0,0,0,0s0,0,0,0c-.23,0-.46.01-.69.03-.04,0-.08,0-.12,0-.24.03-.49.06-.73.11,0,0-.01,0-.02,0,0,0,0,0-.01,0-.27.06-.53.13-.8.21-.05.02-.1.03-.14.05-6.28,2.1-9.85,11.93-10.63,29.26,0,.15-.01.3-.02.45-.02.37-.03.74-.05,1.12,0,.13,0,.26-.01.38-.01.47-.03.95-.04,1.43,0,.35-.02.71-.02,1.07,0,.45-.01.9-.01,1.35,0,.41,0,.81,0,1.23,0,.06,0,.12,0,.18,0,.17,0,.35,0,.53,0,.77,0,1.55.02,2.33,0,.2,0,.41.01.61.02.85.04,1.7.06,2.57,0,.15,0,.3.01.45.03.97.07,1.95.12,2.93,0,.06,0,.11,0,.17.1,2.21.24,4.47.41,6.78-.66-.21-1.31-.4-1.97-.6-.22-.07-.44-.13-.66-.2-.73-.22-1.46-.44-2.19-.65-.02,0-.05-.01-.07-.02-.19-.05-.37-.1-.56-.16-1.16-.33-2.31-.65-3.45-.96-.48-.13-.96-.26-1.43-.38-.49-.13-.98-.26-1.47-.38-.79-.2-1.57-.39-2.34-.58-.32-.08-.64-.15-.95-.23-.84-.2-1.68-.39-2.51-.57-.27-.06-.54-.12-.81-.18-.83-.18-1.65-.35-2.47-.51-.14-.03-.29-.06-.44-.09-.11-.02-.21-.04-.31-.06-.58-.11-1.15-.22-1.72-.32-.05,0-.1-.02-.15-.03-.09-.02-.17-.03-.26-.04-16.42-2.92-26.48-1.64-29.95,3.81-.05.08-.1.15-.14.23-.04.07-.09.15-.13.22-.09.17-.18.33-.26.51,0,0,0,0,0,.01-.12.25-.21.51-.3.77-.01.04-.03.09-.04.13-2,6.25,3.69,14.83,16.96,25.55.03.03.06.05.09.08.33.26.66.53,1,.79.15.12.3.24.46.36.03.02.05.04.08.06.42.33.85.66,1.29,1,.05.04.1.08.15.11.43.33.85.65,1.29.98.09.07.19.14.28.21.42.31.84.62,1.26.94.06.05.13.09.19.14,5.5,4.02,11.74,8.11,18.54,12.14,0,0,0,0,0,0,.58.34,1.15.68,1.74,1.02-6.34,6.76-11.95,13.39-16.62,19.64-.06.08-.12.16-.18.24-.51.68-1,1.35-1.48,2.02-.1.14-.21.29-.31.43-.14.19-.27.38-.41.57-.34.48-.68.96-1.01,1.44,0,0,0,0,0,0-9.83,14.23-12.89,24.18-9.13,29.63.02.04.05.07.07.11.15.21.31.42.48.62,0,0,0,0,0,0,.2.23.41.44.64.64.04.04.08.08.12.12.18.16.37.3.56.44.22.16.45.31.68.44.03.02.07.04.1.06,1.59.91,3.57,1.37,5.95,1.37,5.32,0,12.6-2.28,21.78-6.81.18-.09.36-.18.54-.26.31-.15.62-.31.93-.47.33-.17.67-.34,1.01-.52.17-.09.33-.17.49-.25.07-.04.15-.08.22-.12.35-.19.71-.38,1.07-.57.22-.12.44-.23.66-.35.54-.29,1.08-.59,1.62-.89.36-.2.73-.41,1.09-.61.2-.11.4-.23.6-.34.42-.24.84-.48,1.27-.73.13-.08.26-.15.4-.23.48-.28.96-.56,1.44-.85.05-.03.09-.06.14-.08,4.53-2.7,9.23-5.75,14.05-9.1,1.8,5.56,3.68,10.82,5.64,15.7,0,.02.02.04.03.07.54,1.36,1.09,2.68,1.65,3.98.12.27.23.55.35.82.11.26.23.52.34.78.16.37.33.75.5,1.11.08.18.17.37.25.55.04.09.08.19.12.28.21.45.41.9.62,1.34.01.02.02.05.03.07,7.52,16.08,14.68,24.2,21.29,24.2.49,0,.97-.05,1.45-.14.05,0,.11-.01.16-.02,0,0,0,0,0,0,.28-.06.54-.13.81-.21.04-.01.09-.03.13-.04,6.28-2.1,9.86-11.94,10.64-29.31,0-.09,0-.18.01-.27.02-.42.04-.83.05-1.26,0-.2.01-.4.02-.59,0-.16,0-.32.01-.47.04-1.48.06-3,.06-4.55v-.04c0-5.12-.22-10.6-.64-16.35,4.21,1.31,8.28,2.46,12.2,3.45.02,0,.04,0,.06.01.72.18,1.43.36,2.14.52.11.03.21.05.32.08.62.15,1.23.29,1.84.43.16.04.31.07.47.11.57.13,1.14.25,1.7.37.17.04.33.07.5.11.7.15,1.39.29,2.08.42,0,0,0,0,.01,0,.73.14,1.46.28,2.17.41.03,0,.07.01.1.02.54.1,1.06.18,1.58.27.16.03.32.05.48.08,4.92.8,9.24,1.21,12.94,1.21,7.26,0,12.14-1.55,14.61-4.63,0,0,0,0,0,0,.09-.11.18-.23.27-.35.11-.16.22-.32.33-.49.04-.06.07-.12.1-.18.12-.21.23-.42.34-.64,0,0,0,0,0-.01.12-.25.21-.51.3-.77.01-.04.03-.08.04-.12,2.01-6.25-3.69-14.84-16.97-25.56ZM110.51,46.8c.2-.13.41-.26.62-.39.6-.38,1.2-.75,1.79-1.11.41-.25.83-.5,1.24-.75.45-.27.91-.55,1.35-.81.89-.53,1.77-1.04,2.64-1.54.03-.02.06-.03.09-.05.78-.45,1.55-.88,2.31-1.3.02-.01.05-.02.07-.04.67-.37,1.34-.73,2-1.08.15-.08.29-.16.44-.23.52-.28,1.04-.54,1.55-.8.2-.1.41-.21.61-.31.7-.35,1.39-.69,2.07-1.02.11-.05.22-.11.34-.16.59-.28,1.17-.55,1.74-.81.08-.04.16-.07.25-.11,1.33-.6,2.61-1.15,3.85-1.63,2.57-1.02,4.92-1.78,7.01-2.29,2.09-.51,3.91-.75,5.38-.75,1.17,0,2.11.15,2.81.4.05.02.09.03.13.05.12.04.23.09.33.14.1.05.19.1.28.15.04.02.09.05.12.07.11.07.22.15.31.23.02.01.04.03.05.04.11.1.22.2.31.3.21.24.38.52.52.85.02.04.03.08.05.12.03.07.05.14.08.21.15.49.25,1.09.25,1.84,0,1.27-.28,2.93-.91,4.85-1.08,3.37-3.16,7.57-6.12,12.29-.01.02-.02.03-.03.05-.38.6-.77,1.21-1.17,1.83-.04.06-.08.12-.12.18-.4.61-.81,1.22-1.24,1.85-.06.09-.12.17-.18.26-.2.29-.41.58-.61.87-.13.18-.25.37-.39.55-.01.02-.02.03-.03.05-.45.64-.92,1.29-1.4,1.94-.14.19-.28.38-.42.57-.45.61-.92,1.23-1.39,1.85-.21.27-.42.55-.63.82-.27.36-.55.71-.83,1.07-.29.37-.58.74-.87,1.11-.07.09-.15.18-.22.27-.73.91-1.47,1.83-2.24,2.76-.06.07-.12.14-.17.21-2.16,2.6-4.47,5.28-6.93,8-.29.32-.59.65-.88.97-1.65-12.03-8.62-22.35-18.47-28.53,1.59-1.06,3.15-2.07,4.69-3.04ZM108.06,116.42c.16,1.42.32,2.83.46,4.22-1.51-.51-3.03-1.05-4.57-1.6,1.43-.79,2.8-1.67,4.11-2.62ZM59.21,36.33c0-.34,0-.68,0-1.01,0-.46.01-.91.02-1.37,0-.18,0-.36,0-.53.01-.66.03-1.31.05-1.95,0-.2.02-.4.02-.59.01-.36.03-.72.04-1.07.02-.37.04-.72.06-1.08,0-.17.02-.34.03-.5.09-1.6.22-3.14.37-4.61.3-2.96.72-5.62,1.23-7.95.77-3.49,1.78-6.23,2.89-8.01.54-.88,1.1-1.53,1.62-1.95.02-.01.03-.02.05-.04.1-.08.19-.15.29-.21.05-.03.09-.06.14-.09.06-.04.12-.07.18-.1.06-.03.12-.06.18-.09.06-.03.11-.05.17-.07.05-.02.1-.04.16-.06.11-.04.22-.07.33-.09.03,0,.06,0,.08-.01.16-.03.33-.05.5-.05.21,0,.43.02.67.07.23.04.48.11.74.21,1,.36,2.26,1.16,3.63,2.46,2.41,2.25,5.12,5.95,7.86,10.8.75,1.33,1.51,2.74,2.26,4.24.05.09.09.18.13.27.19.38.38.77.58,1.16.07.15.14.29.21.44.17.36.35.72.52,1.08.08.16.16.33.23.49.23.49.46.99.69,1.49.01.02.02.05.03.07,2.25,4.95,4.49,10.58,6.65,16.75-2.38-.44-4.83-.68-7.34-.68-9.32,0-17.9,3.18-24.71,8.51-.26-3.64-.43-7.14-.52-10.48-.01-.42-.02-.83-.03-1.24,0-.34-.01-.67-.02-1.01-.01-.8-.02-1.61-.02-2.39,0-.26,0-.51,0-.77ZM35.8,85.77c-.1-.07-.2-.13-.3-.2-.36-.23-.72-.47-1.08-.71-.58-.38-1.16-.77-1.73-1.15-.17-.11-.34-.23-.51-.34-.6-.4-1.19-.81-1.77-1.21-.36-.25-.71-.49-1.06-.74-.29-.2-.58-.41-.87-.61-.58-.41-1.16-.83-1.73-1.24-.19-.14-.39-.28-.58-.42-.62-.46-1.24-.91-1.84-1.37-.12-.09-.24-.18-.35-.27-.65-.5-1.3-.99-1.92-1.48-.09-.07-.18-.14-.26-.21-.32-.25-.63-.5-.94-.75-.14-.11-.27-.22-.41-.33-.24-.19-.47-.38-.7-.57-.19-.16-.38-.32-.57-.47-.11-.09-.22-.18-.33-.28-.46-.38-.9-.76-1.33-1.13-.01-.01-.03-.03-.04-.04-3.09-2.67-5.66-5.2-7.66-7.53-1.7-1.98-2.97-3.81-3.78-5.39-.41-.79-.7-1.52-.88-2.17-.18-.62-.26-1.16-.26-1.62,0-.02,0-.05,0-.07,0-.07,0-.13,0-.2.02-.44.11-.84.27-1.18,0-.01.01-.03.02-.04.04-.09.09-.17.14-.26.03-.05.07-.11.11-.16.03-.04.06-.08.09-.12.04-.05.09-.11.14-.16.04-.05.08-.09.13-.14.04-.04.08-.08.13-.12.07-.07.15-.13.23-.2.03-.02.06-.05.09-.07.08-.06.17-.13.26-.19,0,0,.01,0,.02-.01.77-.52,1.92-1,3.44-1.34,1.74-.39,3.93-.61,6.5-.61,2.96,0,6.42.28,10.28.84.01,0,.02,0,.03,0,.55.08,1.1.16,1.66.25.13.02.27.04.4.06.46.08.93.16,1.4.24.21.04.41.07.62.11.19.04.39.07.59.11.36.07.72.13,1.09.21.11.02.23.05.34.07.95.19,1.92.39,2.9.6.14.03.29.06.44.1.9.2,1.81.41,2.73.62.28.07.56.13.84.2.79.19,1.59.39,2.4.6.44.11.88.23,1.32.34.48.13.97.26,1.45.39.78.21,1.57.43,2.37.66.18.05.37.1.55.16,1.09.31,2.2.64,3.32.97,0,0,.01,0,.02,0,.85.26,1.71.52,2.57.79-5.9,6.99-9.46,16.02-9.46,25.88,0,2.6.26,5.14.73,7.6-3.24-1.91-6.33-3.82-9.26-5.72ZM57.34,134.78c-.18.11-.35.22-.53.33-.48.3-.96.59-1.43.88-.34.2-.67.4-1,.6-.36.22-.73.44-1.09.65-.17.1-.34.2-.52.3-.62.36-1.23.72-1.83,1.07-.79.45-1.56.89-2.34,1.31-.14.07-.27.15-.41.22-.58.32-1.16.63-1.73.93-.16.09-.33.18-.49.26-.68.36-1.35.7-2.01,1.04-.08.04-.15.08-.23.11-.67.34-1.33.66-1.98.97-.03.01-.05.03-.08.04-.52.25-1.03.49-1.54.72-.03.01-.06.03-.09.04-1.55.71-3.04,1.35-4.47,1.92-2.57,1.02-4.92,1.78-7.01,2.29-2.09.51-3.91.75-5.38.75-1.17,0-2.12-.15-2.82-.4-.02,0-.03-.01-.05-.02-.16-.06-.3-.12-.43-.18-.04-.02-.07-.04-.1-.05-.09-.05-.17-.09-.25-.14-.05-.03-.1-.07-.15-.1-.06-.04-.12-.09-.18-.14-.04-.03-.08-.06-.12-.09-.09-.08-.18-.17-.26-.26,0,0,0,0-.01-.01-.07-.08-.13-.16-.19-.24,0,0,0,0,0,0-.12-.18-.23-.38-.32-.6-.01-.03-.03-.07-.04-.11-.03-.07-.06-.15-.08-.23-.15-.48-.25-1.09-.25-1.83,0-1.27.28-2.93.91-4.85,1.08-3.37,3.16-7.57,6.12-12.29.01-.02.02-.03.03-.05.23-.37.47-.75.72-1.13.04-.06.08-.12.12-.19.27-.41.54-.83.82-1.24.03-.05.07-.1.1-.15.2-.29.4-.59.6-.88.12-.18.24-.36.37-.54.06-.09.13-.18.19-.27.26-.37.52-.75.79-1.13.12-.17.25-.34.37-.51.2-.28.4-.56.6-.84.1-.14.21-.28.31-.42.25-.35.51-.7.77-1.05.06-.08.13-.17.19-.25.32-.42.64-.85.96-1.28.02-.02.03-.04.05-.07.48-.62.96-1.25,1.46-1.89.27-.35.55-.7.83-1.05.21-.26.42-.53.63-.79.36-.44.72-.89,1.08-1.34.09-.1.17-.21.26-.32,2.35-2.87,4.89-5.82,7.62-8.84,1.18-1.31,2.4-2.62,3.64-3.95,3.78,8.97,10.73,16.27,19.44,20.52.12.41.23.82.35,1.23,0,0,0,0,0,0,.56,1.96,1.13,3.9,1.7,5.8-4,2.81-7.89,5.4-11.63,7.73ZM72.64,122.28c.7.22,1.41.41,2.12.59-.54.4-1.07.79-1.6,1.17-.17-.58-.35-1.17-.52-1.76ZM109.8,145.63c0,.06,0,.12,0,.18,0,.48-.01.95-.02,1.41,0,.13,0,.26,0,.38,0,.43-.02.85-.04,1.27,0,.14,0,.29-.01.43-.01.37-.03.74-.04,1.11,0,.19-.01.39-.02.57-.02.53-.05,1.05-.08,1.56,0,.08,0,.15-.01.23-.03.46-.06.92-.09,1.37,0,.04,0,.07,0,.11-.07,1.02-.16,2.01-.26,2.97-.3,2.96-.71,5.62-1.23,7.95-.77,3.49-1.78,6.23-2.89,8.01-.55.89-1.1,1.53-1.62,1.96-.01.01-.03.02-.04.03-.1.08-.2.15-.3.22-.04.03-.09.06-.13.09-.06.04-.12.07-.19.11-.06.03-.12.06-.18.09-.06.03-.11.05-.17.07-.05.02-.11.05-.16.06-.1.03-.21.06-.31.08,0,0-.01,0-.02,0-.1.02-.21.04-.31.05-.02,0-.04,0-.05,0-.09,0-.18.01-.28,0-.02,0-.05,0-.07,0-.08,0-.17,0-.26-.02-.04,0-.09-.01-.13-.02-.07,0-.13-.02-.2-.03-.08-.02-.16-.03-.24-.06-.03,0-.06-.01-.09-.02-.12-.03-.24-.07-.36-.12-1-.36-2.26-1.16-3.63-2.46-2.41-2.25-5.12-5.95-7.86-10.8-.25-.44-.5-.88-.74-1.34-.01-.02-.02-.04-.03-.06-.25-.46-.5-.92-.74-1.39-.02-.04-.04-.07-.06-.11-.21-.41-.43-.82-.64-1.24-.06-.12-.12-.24-.18-.36-.17-.34-.34-.69-.51-1.03-.09-.19-.18-.37-.28-.56-.14-.3-.29-.6-.43-.91-.11-.23-.22-.46-.33-.7-.13-.27-.26-.55-.38-.83-.13-.28-.26-.56-.39-.84-.17-.37-.34-.75-.51-1.13-.08-.18-.16-.36-.24-.55-.24-.55-.48-1.1-.72-1.66,0-.01-.01-.03-.02-.04-.29-.67-.57-1.35-.86-2.04-.15-.37-.3-.74-.45-1.11-.12-.31-.25-.62-.37-.93-.19-.47-.37-.94-.56-1.42-.06-.16-.12-.32-.18-.48-1.23-3.17-2.44-6.52-3.63-10.04-.52-1.53-1.03-3.1-1.53-4.69,1.78-1.29,3.58-2.61,5.38-3.97,0,0,0,0,0,0,.47-.36.94-.71,1.42-1.07,1,.07,2.01.13,3.04.13,4.56,0,8.94-.77,13.03-2.17,1.06.4,2.11.79,3.15,1.17,0,0,0,0,0,0,2.81,1.03,5.59,2,8.33,2.91.4,4.82.64,9.42.75,13.73,0,.03,0,.06,0,.09.01.62.02,1.23.03,1.84,0,.27,0,.54,0,.81,0,.41,0,.82,0,1.23,0,.66,0,1.32,0,1.97ZM164.1,125.61c-.03.4-.11.75-.25,1.07,0,.02-.01.04-.02.05-.05.1-.1.2-.16.3-.03.05-.06.09-.09.14-.03.05-.07.1-.11.15-.04.05-.08.1-.12.15-.05.05-.09.1-.14.16-.03.04-.07.07-.11.11-.08.07-.16.15-.25.22-.02.02-.04.03-.06.05-.76.6-2.01,1.17-3.73,1.56-1.74.4-3.93.61-6.5.61-2.97,0-6.43-.28-10.3-.84-.03,0-.06,0-.08-.01-.54-.08-1.09-.16-1.64-.25-.1-.02-.2-.03-.29-.05-.52-.08-1.04-.17-1.57-.27-.15-.03-.3-.05-.45-.08-.27-.05-.55-.1-.82-.15-.28-.05-.55-.1-.83-.16-.25-.05-.5-.1-.75-.15-.31-.06-.62-.12-.93-.19-.28-.06-.56-.12-.85-.18-.26-.05-.52-.11-.78-.17-.35-.08-.7-.15-1.06-.23-.16-.04-.32-.07-.49-.11-.46-.1-.92-.21-1.39-.32h0c-5.19-1.22-10.81-2.79-16.73-4.69-.3-3.16-.65-6.39-1.07-9.67,6.21-6.05,10.47-14.1,11.74-23.1,7.54,4.46,14.27,8.91,19.95,13.17.03.02.06.04.09.06.18.13.35.26.52.39.27.21.55.41.82.62.1.08.2.16.3.23.32.25.65.5.96.75.09.07.19.15.28.22.32.26.64.51.95.76.13.11.27.22.4.32.24.19.47.38.7.57.19.16.38.31.57.47.11.09.22.18.33.28.45.38.9.76,1.33,1.13.02.01.03.03.05.04,3.09,2.67,5.66,5.2,7.66,7.53,1.7,1.98,2.97,3.81,3.78,5.39.41.79.7,1.52.88,2.17.18.64.26,1.2.26,1.67,0,0,0,.01,0,.02,0,.09,0,.18-.01.26Z"/>
      <path class="cls-3" d="M124.27,89.54c-5.47-3.24-11.31-6.45-17.42-9.57.41,1.87.81,3.75,1.2,5.65.2.98.39,1.96.59,2.94,4.57-1.56,8.26-1.5,9.91.54,2.54,3.14-.51,9.99-6.94,16.73.34,2.3.65,4.58.93,6.83,6.21-6.05,10.47-14.1,11.74-23.1,0,0,0,0,0,0Z"/>
      <path class="cls-3" d="M64.56,56.44c4.67-2.93,10.31-2.65,13.18.9,1.09,1.35,1.62,2.99,1.67,4.73.34.14.67.27,1.01.41,4.68-3.76,9.33-7.32,13.91-10.62-.81-2.55-1.64-5.04-2.48-7.46,0,0,0,0-.01,0-2.38-.44-4.83-.68-7.34-.68-9.32,0-17.9,3.18-24.71,8.51-.76.59-1.51,1.21-2.22,1.86,2.3.74,4.63,1.53,6.99,2.36Z"/>
      <path class="cls-3" d="M45.06,91.48c.18.94.39,1.87.63,2.78,6.25-6.54,13.15-13.19,20.5-19.73-2.44-.1-4.66-1.06-6.14-2.89-2.49-3.08-2.14-7.68.51-11.43-2.29-.78-4.55-1.52-6.77-2.21,0,0,0,0,0,0-5.9,6.99-9.46,16.02-9.46,25.88,0,2.6.26,5.14.73,7.6Z"/>
      <path class="cls-3" d="M100.94,47.23c-1.11-.5-2.25-.95-3.42-1.35.33,1,.67,2,.99,3.02.81-.56,1.62-1.12,2.43-1.67Z"/>
      <path class="cls-3" d="M97.53,121.88c2.23-.77,4.38-1.72,6.42-2.85,1.43-.79,2.8-1.67,4.11-2.62,0,0,0,0,0,0-.25-2.14-.52-4.31-.82-6.51-.32.27-.65.54-.98.81-9.94,8.03-20.56,11.38-23.71,7.48-3.16-3.91,2.34-13.59,12.27-21.62,3.09-2.5,6.24-4.54,9.21-6.05-.25-1.3-.51-2.61-.78-3.92-.65-3.19-1.34-6.34-2.06-9.44-2.86-1.4-5.78-2.78-8.74-4.14-3.76-1.72-7.51-3.36-11.22-4.91-3.12,2.55-6.24,5.19-9.35,7.91-8.89,7.77-17.14,15.72-24.43,23.48,0,0,0,0,0,0,3.78,8.97,10.73,16.27,19.44,20.52,1.83.89,3.74,1.65,5.72,2.26.7.22,1.41.41,2.12.59,2.17.54,4.41.9,6.71,1.07,1,.08,2.01.13,3.04.13,4.56,0,8.94-.77,13.03-2.17Z"/>
      <path class="cls-3" d="M124.67,84.11c0-.08,0-.15,0-.23,0-1.87-.14-3.71-.39-5.52-1.65-12.03-8.62-22.35-18.47-28.53,0,0,0,0,0,0-1.9,1.27-3.83,2.58-5.77,3.95,1.93,6.36,3.74,13.07,5.39,20,6.74,3.35,13.19,6.82,19.24,10.33Z"/>
      <path class="cls-3" d="M94.5,68.57c1.76.8,3.5,1.62,5.23,2.44-1.22-4.89-2.52-9.64-3.88-14.22-3.39,2.48-6.83,5.09-10.29,7.83,2.97,1.27,5.95,2.58,8.94,3.95Z"/>
      <path class="cls-1" d="M64.56,56.44c4.85,1.7,9.82,3.58,14.85,5.62-.05-1.73-.58-3.38-1.67-4.73-2.87-3.55-8.51-3.83-13.18-.9Z"/>
      <path class="cls-1" d="M60.05,71.65c1.48,1.83,3.7,2.78,6.14,2.89.83-.73,1.66-1.47,2.49-2.2,2.47-2.16,4.96-4.28,7.44-6.34-5.3-2.12-10.5-4.05-15.56-5.78-2.65,3.75-3,8.35-.51,11.43Z"/>
      <path class="cls-4" d="M118.54,89.09c-1.65-2.04-5.34-2.1-9.91-.54,1.15,5.85,2.14,11.62,2.97,17.27,6.44-6.74,9.48-13.59,6.94-16.73Z"/>
      <path class="cls-4" d="M82.55,118.19c3.16,3.91,13.78.56,23.71-7.48.33-.27.66-.54.98-.81-.86-6.3-1.93-12.8-3.21-19.39-2.97,1.51-6.13,3.56-9.21,6.05-9.94,8.04-15.43,17.72-12.27,21.62Z"/>
    </g>
  </g>
</svg>