<?xml version="1.0" encoding="UTF-8"?>
<svg id="Layer_2" data-name="Layer 2" xmlns="http://www.w3.org/2000/svg" viewBox="0 0 77.18 180.86">
  <defs>
    <style>
      .cls-1 {
        fill: #ea8a68;
      }

      .cls-1, .cls-2, .cls-3, .cls-4, .cls-5, .cls-6, .cls-7, .cls-8 {
        stroke-width: 0px;
      }

      .cls-2 {
        fill: #abadae;
      }

      .cls-3 {
        fill: #b9babc;
      }

      .cls-4 {
        fill: #8dd3f6;
      }

      .cls-5 {
        fill: #71cbf4;
      }

      .cls-6 {
        fill: #3abff0;
      }

      .cls-7 {
        fill: #d8d8d8;
      }

      .cls-8 {
        fill: #e77361;
      }
    </style>
  </defs>
  <g id="Capa_1" data-name="Capa 1">
    <g>
      <path class="cls-4" d="M48.87,65.53c-.09-.38-.21-.75-.36-1.1,2.21-1.45,3.77-3.79,4.22-6.5.05,0,.09,0,.14,0,6.21,0,11.25-5.03,11.25-11.25,0-1.55-.31-3.03-.88-4.37,4.46-2.37,7.5-7.06,7.5-12.46,0-7.78-6.31-14.09-14.09-14.09-1.52,0-2.99.24-4.36.69C49.83,6.99,41.23,0,31,0,18.86,0,9.02,9.84,9.02,21.98c0,1.43.14,2.82.4,4.17-5.49,1.93-9.42,7.15-9.42,13.3,0,7.78,6.31,14.09,14.09,14.09.99,0,1.95-.1,2.88-.3.82,5.44,5.04,9.64,10.2,9.92-.3.77-.48,1.61-.48,2.5,0,.07,0,.14.01.22-14.43,1.63-24.74,5.91-24.74,10.93,0,1.95,1.56,3.79,4.3,5.4v92.16c0,3.58,14.91,6.49,33.3,6.49s33.3-2.91,33.3-6.49v-92.16c2.75-1.62,4.31-3.45,4.31-5.41,0-5.43-12.04-9.99-28.31-11.27Z"/>
      <path class="cls-5" d="M8.42,83.32v88.15c0,.18.05.36.13.54,1.41,3.1,14.76,5.53,31.03,5.53s29.61-2.43,31.03-5.53c.08-.18.13-.36.13-.54v-88.15c-6.76,3.09-18.19,5.12-31.15,5.12s-24.4-2.03-31.16-5.12ZM68.56,118.05v51.81c0,3.23-12.98,5.84-28.98,5.84s-28.98-2.61-28.98-5.84v-51.81h0c0-3.07,12.97-5.56,28.98-5.56s28.98,2.49,28.98,5.56Z"/>
      <path class="cls-1" d="M39.58,123.61c-16,0-28.98-2.49-28.98-5.56h0v51.81c0,3.23,12.97,5.84,28.98,5.84s28.98-2.61,28.98-5.84v-51.81c0,3.07-12.97,5.56-28.98,5.56ZM31.3,168.32H14.32c-.53,0-.96-.42-.98-.95,0-.01,0-.02,0-.03,0-.54.44-.98.98-.98h16.98c.54,0,.98.44.98.98s-.44.98-.98.98ZM31.3,158.31H14.32c-.54,0-.98-.44-.98-.98s.44-.98.98-.98h16.98c.54,0,.98.44.98.98s-.44.98-.98.98ZM31.3,148.29H14.32c-.54,0-.98-.44-.98-.98s.44-.98.98-.98h16.98c.54,0,.98.44.98.98s-.44.98-.98.98ZM31.3,138.27H14.32c-.54,0-.98-.44-.98-.98s.44-.98.98-.98h16.98c.54,0,.98.44.98.98s-.44.98-.98.98ZM31.3,128.25H14.32c-.54,0-.98-.44-.98-.98s.44-.98.98-.98h16.98c.54,0,.98.44.98.98s-.44.98-.98.98Z"/>
      <path class="cls-8" d="M10.6,118.05c0,3.07,12.97,5.56,28.98,5.56s28.98-2.49,28.98-5.56-12.97-5.56-28.98-5.56-28.98,2.49-28.98,5.56Z"/>
      <path class="cls-5" d="M72.87,76.8c0-3.7-10.17-6.82-24.08-7.79-.43,1.49-1.34,2.76-2.56,3.65.1.36.16.73.16,1.12,0,.61-.14,1.19-.37,1.72,9.77.62,17.98,2.6,22.54,5.3,2.75-1.18,4.32-2.54,4.32-4Z"/>
      <path class="cls-5" d="M6.28,76.8c0,1.45,1.57,2.82,4.32,4,5.35-3.17,15.72-5.36,27.76-5.49-.19-.47-.29-.99-.29-1.52,0-.39.06-.76.16-1.12-.45-.33-.86-.7-1.22-1.13-1.02.6-2.2.96-3.47.96-2.46,0-4.62-1.31-5.82-3.26-12.53,1.16-21.43,4.12-21.43,7.58Z"/>
      <path class="cls-6" d="M39.58,84.91c12.42,0,23.25-1.66,28.98-4.11-4.56-2.7-12.76-4.69-22.54-5.3-.41.89-1.12,1.62-2,2.04.02.13.03.27.03.41,0,1.65-1.34,2.99-2.99,2.99s-2.99-1.34-2.99-2.99c0-.72.25-1.38.68-1.89-.15-.23-.28-.48-.38-.75-12.04.14-22.41,2.33-27.76,5.49,5.72,2.46,16.55,4.11,28.98,4.11Z"/>
      <path class="cls-6" d="M31.3,166.36H14.32c-.54,0-.98.44-.98.98,0,.01,0,.02,0,.03.02.53.45.95.98.95h16.98c.54,0,.98-.44.98-.98s-.44-.98-.98-.98Z"/>
      <path class="cls-6" d="M31.3,156.34H14.32c-.54,0-.98.44-.98.98s.44.98.98.98h16.98c.54,0,.98-.44.98-.98s-.44-.98-.98-.98Z"/>
      <path class="cls-6" d="M31.3,146.33H14.32c-.54,0-.98.44-.98.98s.44.98.98.98h16.98c.54,0,.98-.44.98-.98s-.44-.98-.98-.98Z"/>
      <path class="cls-6" d="M31.3,136.31H14.32c-.54,0-.98.44-.98.98s.44.98.98.98h16.98c.54,0,.98-.44.98-.98s-.44-.98-.98-.98Z"/>
      <path class="cls-6" d="M31.3,126.29H14.32c-.54,0-.98.44-.98.98s.44.98.98.98h16.98c.54,0,.98-.44.98-.98s-.44-.98-.98-.98Z"/>
      <path class="cls-2" d="M14.09,53.54c.99,0,1.95-.1,2.88-.3.82,5.44,5.04,9.64,10.2,9.92-.3.77-.48,1.61-.48,2.5,0,.07,0,.14.01.22.04,1.23.4,2.37,1,3.36,1.2,1.95,3.35,3.26,5.82,3.26,1.27,0,2.45-.35,3.47-.96.36.42.77.8,1.22,1.13-.1.36-.16.73-.16,1.12,0,.54.11,1.05.29,1.52.1.26.23.51.38.75-.42.52-.68,1.17-.68,1.89,0,1.65,1.34,2.99,2.99,2.99s2.99-1.34,2.99-2.99c0-.14-.01-.27-.03-.41.89-.42,1.6-1.14,2-2.04.24-.52.37-1.1.37-1.72,0-.39-.06-.76-.16-1.12,1.22-.89,2.14-2.16,2.56-3.65.17-.6.27-1.23.27-1.88,0-.55-.07-1.09-.2-1.6-.09-.38-.21-.75-.36-1.1,2.21-1.45,3.77-3.79,4.22-6.5.05,0,.09,0,.14,0,6.21,0,11.25-5.03,11.25-11.25,0-1.55-.31-3.03-.88-4.37,4.46-2.37,7.5-7.06,7.5-12.46,0-7.78-6.31-14.09-14.09-14.09-1.52,0-2.99.24-4.36.69C49.83,6.99,41.23,0,31,0,18.86,0,9.02,9.84,9.02,21.98c0,1.43.14,2.82.4,4.17-5.49,1.93-9.42,7.15-9.42,13.3,0,7.78,6.31,14.09,14.09,14.09ZM24.2,43.65c-1.29,0-2.35-.99-2.47-2.25,0-.08-.03-.16-.03-.25,0-1.38,1.12-2.5,2.5-2.5.77,0,1.46.36,1.92.91.36.43.58.98.58,1.58,0,1.38-1.12,2.5-2.5,2.5ZM24.47,12.24c.19,0,.39.01.58.03,1.46-4.32,5.54-7.43,10.35-7.43,6.03,0,10.93,4.89,10.93,10.93,0,.72-.07,1.42-.2,2.11.71.17,1.39.42,2.03.74,1.86.95,3.35,2.51,4.2,4.43,1.52-1.81,3.79-2.96,6.34-2.96,4.58,0,8.29,3.71,8.29,8.29s-3.71,8.29-8.29,8.29c-.27,0-.54-.01-.81-.04-.03,0-.07,0-.1-.01,1.75,1.95,2.82,4.52,2.82,7.34,0,5-3.34,9.21-7.91,10.55-.98.29-2.01.44-3.08.44-.01,0-.02,0-.03,0h0c0,1.87-1.52,3.39-3.39,3.39s-3.39-1.52-3.39-3.39c0-.72.22-1.38.6-1.93-1.92-1.32-3.39-3.22-4.17-5.46-.39-1.13-.61-2.34-.61-3.6,0-3.34,1.49-6.32,3.84-8.34-2.39-.43-4.46-1.79-5.81-3.7-1.04-1.48-1.66-3.28-1.66-5.22,0,0,0,0,0-.01-3.36-.13-6.33-1.77-8.25-4.27-.69.32-1.45.51-2.26.51-2.95,0-5.34-2.39-5.34-5.34s2.39-5.34,5.34-5.34ZM13.35,34.76c4.09,0,7.42,3.28,7.5,7.35,0,.05,0,.1,0,.15,0,.42-.04.82-.11,1.22,1.34.45,2.3,1.72,2.3,3.21,0,1.87-1.52,3.39-3.39,3.39-1.04,0-1.98-.47-2.6-1.21-.02-.02-.03-.04-.05-.06-1.08.61-2.33.96-3.67.96-4.15,0-7.51-3.36-7.51-7.51s3.36-7.51,7.51-7.51Z"/>
      <path class="cls-2" d="M51.3,32.12c-.23.31-.48.61-.75.89.49.04.96.11,1.43.22-.25-.35-.48-.72-.68-1.1Z"/>
      <path class="cls-3" d="M29.81,17.58c0,2.14-1.26,3.98-3.09,4.84,1.92,2.5,4.89,4.14,8.25,4.27,0,0,0,0,0,.01,0,1.95.62,3.75,1.66,5.22,1.35,1.91,3.42,3.27,5.81,3.7-2.35,2.01-3.84,5-3.84,8.34,0,1.26.22,2.47.61,3.6.78,2.24,2.25,4.14,4.17,5.46-.38.55-.6,1.21-.6,1.93,0,1.87,1.52,3.39,3.39,3.39s3.39-1.52,3.39-3.39h0s.02,0,.03,0c1.07,0,2.1-.16,3.08-.44,4.57-1.33,7.91-5.55,7.91-10.55,0-2.82-1.07-5.4-2.82-7.34.03,0,.07,0,.1.01.27.03.53.04.81.04,4.58,0,8.29-3.71,8.29-8.29s-3.71-8.29-8.29-8.29c-2.54,0-4.82,1.15-6.34,2.96-.85-1.92-2.34-3.48-4.2-4.43-.64-.32-1.32-.57-2.03-.74.13-.68.2-1.39.2-2.11,0-6.03-4.89-10.93-10.93-10.93-4.81,0-8.89,3.11-10.35,7.43,2.68.29,4.77,2.55,4.77,5.31ZM51.3,32.12c.2.39.42.75.68,1.1-.47-.1-.94-.18-1.43-.22.27-.28.52-.58.75-.89Z"/>
      <path class="cls-3" d="M13.35,49.77c1.33,0,2.58-.35,3.67-.96.02.02.03.04.05.06.62.74,1.55,1.21,2.6,1.21,1.87,0,3.39-1.52,3.39-3.39,0-1.49-.96-2.76-2.3-3.21.06-.4.11-.8.11-1.22,0-.05,0-.1,0-.15-.08-4.07-3.41-7.35-7.5-7.35s-7.51,3.36-7.51,7.51,3.36,7.51,7.51,7.51Z"/>
      <path class="cls-7" d="M24.47,22.92c.81,0,1.57-.18,2.26-.51,1.82-.85,3.09-2.69,3.09-4.84,0-2.76-2.09-5.02-4.77-5.31-.19-.02-.38-.03-.58-.03-2.95,0-5.34,2.39-5.34,5.34s2.39,5.34,5.34,5.34Z"/>
      <path class="cls-7" d="M24.2,38.66c-1.38,0-2.5,1.12-2.5,2.5,0,.08.02.16.03.25.12,1.26,1.18,2.25,2.47,2.25,1.38,0,2.5-1.12,2.5-2.5,0-.6-.22-1.15-.58-1.58-.46-.55-1.14-.91-1.92-.91Z"/>
    </g>
  </g>
</svg>