<?xml version="1.0" encoding="UTF-8"?>
<svg id="Layer_2" data-name="Layer 2" xmlns="http://www.w3.org/2000/svg" viewBox="0 0 117.58 180.86">
  <defs>
    <style>
      .cls-1 {
        fill: #ea8a68;
      }

      .cls-1, .cls-2, .cls-3, .cls-4, .cls-5 {
        stroke-width: 0px;
      }

      .cls-2 {
        fill: #8dd3f6;
      }

      .cls-3 {
        fill: #71cbf4;
      }

      .cls-4 {
        fill: #3abff0;
      }

      .cls-5 {
        fill: #e77361;
      }
    </style>
  </defs>
  <g id="Capa_1" data-name="Capa 1">
    <g>
      <path class="cls-2" d="M58.79,0C26.32,0,0,8.14,0,18.18c0,3.05,2.43,5.93,6.72,8.45v144.07c0,5.6,23.31,10.15,52.06,10.15s52.06-4.54,52.06-10.15V26.64c4.3-2.53,6.73-5.4,6.73-8.46C117.58,8.14,91.26,0,58.79,0Z"/>
      <path class="cls-3" d="M10.07,28.37v137.81h0c0,.29.07.57.2.85,2.2,4.85,23.08,8.65,48.51,8.65s46.31-3.8,48.51-8.65c.13-.28.2-.56.2-.85h0V28.37c-10.57,4.83-28.44,8-48.7,8s-38.14-3.17-48.71-8ZM104.09,82.66v81c0,5.04-20.28,9.13-45.31,9.13s-45.31-4.09-45.31-9.13v-81h0c0-4.8,20.28-8.69,45.3-8.69s45.3,3.89,45.3,8.69Z"/>
      <path class="cls-1" d="M58.79,91.35c-25.02,0-45.3-3.89-45.3-8.69h0v81c0,5.04,20.28,9.13,45.31,9.13s45.31-4.09,45.31-9.13v-81c0,4.8-20.28,8.69-45.3,8.69ZM45.84,160.71h-26.54c-.54,0-.98-.44-.98-.98,0-.06,0-.12.02-.18.09-.45.48-.8.96-.8h26.54c.54,0,.98.44.98.98s-.44.98-.98.98ZM45.84,145.05h-26.54c-.54,0-.98-.44-.98-.98s.44-.98.98-.98h26.54c.54,0,.98.44.98.98s-.44.98-.98.98ZM45.84,129.39h-26.54c-.54,0-.98-.44-.98-.98s.44-.98.98-.98h26.54c.54,0,.98.44.98.98s-.44.98-.98.98ZM45.84,113.73h-26.54c-.54,0-.98-.44-.98-.98s.44-.98.98-.98h26.54c.54,0,.98.44.98.98s-.44.98-.98.98ZM45.84,98.07h-26.54c-.54,0-.98-.44-.98-.98s.44-.98.98-.98h26.54c.54,0,.98.44.98.98s-.44.98-.98.98Z"/>
      <ellipse class="cls-5" cx="58.79" cy="82.66" rx="45.3" ry="8.69"/>
      <path class="cls-3" d="M13.49,24.43c8.64-5.12,25.68-8.6,45.3-8.6s36.66,3.48,45.3,8.6c4.3-1.84,6.75-3.98,6.75-6.25,0-7-23.31-12.68-52.05-12.68S6.73,11.18,6.73,18.18c0,2.27,2.46,4.4,6.75,6.25Z"/>
      <path class="cls-4" d="M13.49,24.43c8.95,3.84,25.88,6.43,45.3,6.43s36.36-2.59,45.3-6.43c-8.64-5.12-25.68-8.6-45.3-8.6s-36.66,3.48-45.3,8.6Z"/>
      <path class="cls-4" d="M45.84,158.75h-26.54c-.48,0-.88.34-.96.8-.01.06-.02.12-.02.18,0,.54.44.98.98.98h26.54c.54,0,.98-.44.98-.98s-.44-.98-.98-.98Z"/>
      <path class="cls-4" d="M45.84,143.09h-26.54c-.54,0-.98.44-.98.98s.44.98.98.98h26.54c.54,0,.98-.44.98-.98s-.44-.98-.98-.98Z"/>
      <path class="cls-4" d="M45.84,127.43h-26.54c-.54,0-.98.44-.98.98s.44.98.98.98h26.54c.54,0,.98-.44.98-.98s-.44-.98-.98-.98Z"/>
      <path class="cls-4" d="M45.84,111.76h-26.54c-.54,0-.98.44-.98.98s.44.98.98.98h26.54c.54,0,.98-.44.98-.98s-.44-.98-.98-.98Z"/>
      <path class="cls-4" d="M45.84,96.1h-26.54c-.54,0-.98.44-.98.98s.44.98.98.98h26.54c.54,0,.98-.44.98-.98s-.44-.98-.98-.98Z"/>
    </g>
  </g>
</svg>