<?xml version="1.0" encoding="UTF-8"?>
<svg id="Layer_2" data-name="Layer 2" xmlns="http://www.w3.org/2000/svg" viewBox="0 0 180.09 180.86">
  <defs>
    <style>
      .cls-1 {
        fill: #796aad;
      }

      .cls-1, .cls-2, .cls-3, .cls-4, .cls-5, .cls-6, .cls-7, .cls-8, .cls-9, .cls-10 {
        stroke-width: 0px;
      }

      .cls-2 {
        fill: #abadae;
      }

      .cls-3 {
        fill: #b9babc;
      }

      .cls-4 {
        fill: #e25e5d;
      }

      .cls-5 {
        fill: #655d94;
      }

      .cls-6 {
        fill: #8dd3f6;
      }

      .cls-7 {
        fill: #71cbf4;
      }

      .cls-8 {
        fill: #3abff0;
      }

      .cls-9 {
        fill: #7060a6;
      }

      .cls-10 {
        fill: #ec6360;
      }
    </style>
  </defs>
  <g id="Capa_1" data-name="Capa 1">
    <g>
      <path class="cls-6" d="M178.06,158.75c-5.48-10.82-12.78-23.29-22.47-36.33-5.25-7.07-10.53-13.41-15.66-19.07v-45.54s.05-.02.08-.03c.07-.03.14-.06.2-.09.17-.07.34-.15.5-.22.05-.02.1-.05.14-.07.18-.08.35-.17.52-.25.02,0,.03-.02.05-.02,1-.51,1.86-1.06,2.55-1.65,0,0,.02-.01.03-.02.13-.11.24-.22.36-.32.02-.02.04-.03.05-.05.11-.1.21-.21.31-.32.02-.02.04-.04.06-.06.09-.1.18-.21.26-.32.02-.02.04-.05.05-.07.08-.11.16-.22.23-.33.01-.02.03-.04.04-.07.07-.11.13-.22.19-.34,0-.02.02-.03.03-.05.06-.12.11-.24.16-.36,0,0,0,0,0,0h0c.15-.4.24-.82.24-1.24,0-4.24-8.05-7.77-18.79-8.62v-15.78c0-15.18-12.35-27.54-27.54-27.54h-56.28C28.18,0,15.83,12.35,15.83,27.54v15.64c-9.06.77-15.83,3.77-15.83,7.37,0,.08.02.17.02.25h0s.01.07.02.11c0,.07.02.14.03.22.03.14.07.28.12.42H.18c.04.12.1.24.16.37,0,0,0,0,0,0,.06.12.13.24.2.36,0,0,0,0,0,0,.07.12.16.23.24.35,0,0,0,0,0,0,.09.11.18.23.28.34,0,0,0,0,.01.01.1.11.21.22.32.33,0,0,.01.01.02.02.11.11.23.21.36.31,0,0,.02.01.03.02.12.1.25.2.39.3.01,0,.03.02.04.03.13.1.27.19.42.29.02.01.03.02.05.03.14.09.29.18.44.27.02.01.04.03.07.04.15.09.3.17.46.26.03.01.06.03.08.04.16.08.32.16.48.24.03.02.07.03.1.05.16.08.33.15.5.23.04.02.08.04.13.05.07.03.15.06.22.09v107.83c0,8.39,6.8,15.18,15.18,15.18s15.18-6.8,15.18-15.18V55.59c.07-.03.14-.06.21-.09.05-.02.09-.04.14-.06.16-.07.32-.14.48-.22.04-.02.08-.04.12-.06.16-.08.32-.16.47-.23.03-.02.07-.03.1-.05.15-.08.3-.16.45-.25.03-.02.05-.03.08-.05.15-.09.29-.17.43-.26.02-.01.04-.03.06-.04.14-.09.27-.18.4-.28.02-.01.04-.03.05-.04.13-.1.26-.19.37-.29.01-.01.03-.02.04-.03.12-.1.24-.2.34-.3.01,0,.02-.02.03-.03.11-.1.21-.21.31-.31,0,0,.01-.02.02-.03.1-.11.19-.22.27-.32,0,0,.01-.01.02-.02.08-.11.16-.22.23-.33,0,0,0-.01.01-.02.07-.11.14-.23.19-.34,0,0,0-.01,0-.02.06-.12.11-.23.15-.35,0,0,0-.01,0-.01.04-.12.08-.24.1-.36,0,0,0,0,0-.01.03-.12.05-.24.06-.36,0,0,0,0,0,0h0c0-.08.02-.17.02-.25,0-3.6-6.77-6.6-15.83-7.37v-15.64c0-10.17,8.28-18.45,18.45-18.45h56.28c10.17,0,18.45,8.28,18.45,18.45v15.72c-11.14.73-19.6,4.33-19.6,8.68,0,.42.08.83.24,1.24h0s0,0,0,0c.05.12.1.24.16.36,0,.02.02.03.03.05.06.11.12.22.19.34.01.02.03.04.04.07.07.11.15.22.23.33.02.02.03.05.05.07.08.11.17.21.26.32.02.02.04.04.06.06.1.11.2.21.31.32.02.02.04.03.05.05.11.11.23.22.36.32,0,0,.02.01.02.02.69.58,1.55,1.14,2.55,1.65.02,0,.03.02.05.02.17.09.34.17.52.25.05.02.1.05.15.07.16.07.33.15.5.22.07.03.13.06.2.09.03.01.05.02.08.03v44.06c-5.55,6.02-11.3,12.85-17.01,20.55-9.69,13.05-16.98,25.51-22.47,36.33-2.33,3.16-2.68,7.39-.91,10.89,1.38,2.73,3.75,4.15,4.86,4.75,15.88,8.62,89.22,8.62,105.1,0,1.1-.6,3.47-2.02,4.86-4.75,1.77-3.51,1.42-7.73-.91-10.89Z"/>
      <path class="cls-6" d="M178.06,158.75c-5.48-10.82-12.78-23.29-22.47-36.33-5.25-7.07-10.53-13.41-15.66-19.07v-45.54s.05-.02.08-.03c.07-.03.14-.06.2-.09.17-.07.34-.15.5-.22.05-.02.1-.05.14-.07.18-.08.35-.17.52-.25.02,0,.03-.02.05-.02,1-.51,1.86-1.06,2.55-1.65,0,0,.02-.01.03-.02.13-.11.24-.22.36-.32.02-.02.04-.03.05-.05.11-.1.21-.21.31-.32.02-.02.04-.04.06-.06.09-.1.18-.21.26-.32.02-.02.04-.05.05-.07.08-.11.16-.22.23-.33.01-.02.03-.04.04-.07.07-.11.13-.22.19-.34,0-.02.02-.03.03-.05.06-.12.11-.24.16-.36,0,0,0,0,0,0h0c.15-.4.24-.82.24-1.24,0-4.24-8.05-7.77-18.79-8.62v-15.78c0-15.18-12.35-27.54-27.54-27.54h-56.28C28.18,0,15.83,12.35,15.83,27.54v15.64c-9.06.77-15.83,3.77-15.83,7.37,0,.08.02.17.02.25h0s.01.07.02.11c0,.07.02.14.03.22.03.14.07.28.12.42H.18c.04.12.1.24.16.37,0,0,0,0,0,0,.06.12.13.24.2.36,0,0,0,0,0,0,.07.12.16.23.24.35,0,0,0,0,0,0,.09.11.18.23.28.34,0,0,0,0,.01.01.1.11.21.22.32.33,0,0,.01.01.02.02.11.11.23.21.36.31,0,0,.02.01.03.02.12.1.25.2.39.3.01,0,.03.02.04.03.13.1.27.19.42.29.02.01.03.02.05.03.14.09.29.18.44.27.02.01.04.03.07.04.15.09.3.17.46.26.03.01.06.03.08.04.16.08.32.16.48.24.03.02.07.03.1.05.16.08.33.15.5.23.04.02.08.04.13.05.07.03.15.06.22.09v107.83c0,8.39,6.8,15.18,15.18,15.18s15.18-6.8,15.18-15.18V55.59c.07-.03.14-.06.21-.09.05-.02.09-.04.14-.06.16-.07.32-.14.48-.22.04-.02.08-.04.12-.06.16-.08.32-.16.47-.23.03-.02.07-.03.1-.05.15-.08.3-.16.45-.25.03-.02.05-.03.08-.05.15-.09.29-.17.43-.26.02-.01.04-.03.06-.04.14-.09.27-.18.4-.28.02-.01.04-.03.05-.04.13-.1.26-.19.37-.29.01-.01.03-.02.04-.03.12-.1.24-.2.34-.3.01,0,.02-.02.03-.03.11-.1.21-.21.31-.31,0,0,.01-.02.02-.03.1-.11.19-.22.27-.32,0,0,.01-.01.02-.02.08-.11.16-.22.23-.33,0,0,0-.01.01-.02.07-.11.14-.23.19-.34,0,0,0-.01,0-.02.06-.12.11-.23.15-.35,0,0,0-.01,0-.01.04-.12.08-.24.1-.36,0,0,0,0,0-.01.03-.12.05-.24.06-.36,0,0,0,0,0,0h0c0-.08.02-.17.02-.25,0-3.6-6.77-6.6-15.83-7.37v-15.64c0-10.17,8.28-18.45,18.45-18.45h56.28c10.17,0,18.45,8.28,18.45,18.45v15.72c-11.14.73-19.6,4.33-19.6,8.68,0,.42.08.83.24,1.24h0s0,0,0,0c.05.12.1.24.16.36,0,.02.02.03.03.05.06.11.12.22.19.34.01.02.03.04.04.07.07.11.15.22.23.33.02.02.03.05.05.07.08.11.17.21.26.32.02.02.04.04.06.06.1.11.2.21.31.32.02.02.04.03.05.05.11.11.23.22.36.32,0,0,.02.01.02.02.69.58,1.55,1.14,2.55,1.65.02,0,.03.02.05.02.17.09.34.17.52.25.05.02.1.05.15.07.16.07.33.15.5.22.07.03.13.06.2.09.03.01.05.02.08.03v44.06c-5.55,6.02-11.3,12.85-17.01,20.55-9.69,13.05-16.98,25.51-22.47,36.33-2.33,3.16-2.68,7.39-.91,10.89,1.38,2.73,3.75,4.15,4.86,4.75,15.88,8.62,89.22,8.62,105.1,0,1.1-.6,3.47-2.02,4.86-4.75,1.77-3.51,1.42-7.73-.91-10.89Z"/>
      <path class="cls-7" d="M135.84,55.08c-2.31.64-5.29,1.11-8.65,1.35v.12c.18-.01.35-.02.52-.04.1,0,.2-.02.3-.02.17-.01.34-.03.51-.04.11-.01.23-.02.34-.03.15-.01.3-.03.45-.05.12-.01.23-.02.35-.04.14-.02.28-.03.42-.05.12-.01.23-.03.35-.04.15-.02.29-.04.43-.06.1-.01.21-.03.31-.04.23-.03.45-.06.67-.1.12-.02.24-.04.36-.06.11-.02.23-.04.34-.06.12-.02.25-.04.37-.06.1-.02.2-.04.3-.06.12-.02.25-.05.37-.07.09-.02.18-.04.27-.05.13-.03.25-.05.37-.08.08-.02.15-.03.22-.05.46-.1.9-.21,1.32-.33.05-.01.1-.03.15-.04.12-.03.24-.07.36-.11.06-.02.11-.03.17-.05.12-.04.23-.07.35-.11.05-.02.1-.03.15-.05.12-.04.23-.08.34-.12.03-.01.07-.02.1-.04.41-.15.78-.3,1.12-.46,0,0,.01,0,.02,0,.1-.05.2-.1.3-.14.03-.01.05-.03.08-.04.09-.05.18-.09.26-.14.03-.02.05-.03.08-.05.08-.05.16-.1.24-.14.02-.01.04-.02.06-.04.27-.17.5-.35.69-.53h0c.41-.39.63-.81.63-1.24,0-2.2-5.79-4.06-13.67-4.62v4.79c4.07.5,7.27,1.6,8.65,2.97Z"/>
      <path class="cls-7" d="M108.64,55.08c1.47-1.47,5.01-2.62,9.46-3.07v-4.76c-8.29.48-14.49,2.39-14.49,4.67,0,.43.22.84.63,1.24h0c.19.18.42.36.69.53.02.01.04.03.06.04.08.05.16.1.24.14.03.02.05.03.08.05.08.05.17.09.26.14.03.01.06.03.08.04.1.05.19.1.3.14,0,0,.01,0,.02,0,.34.16.71.31,1.12.45.04.01.07.03.11.04.11.04.23.08.34.12.05.02.1.03.15.05.11.04.23.07.34.11.06.02.12.03.18.05.12.03.24.07.36.1.05.01.11.03.16.04.41.11.85.22,1.3.32.08.02.16.04.24.05.12.03.24.05.37.08.09.02.19.04.28.06.12.02.24.05.36.07.1.02.21.04.31.06.12.02.24.04.36.06.12.02.23.04.35.06.11.02.23.04.34.06.22.03.45.07.68.1.1.01.2.03.3.04.15.02.3.04.45.06.11.01.22.03.34.04.14.02.29.03.43.05.11.01.23.03.34.04.15.02.3.03.46.05.11.01.22.02.33.03.17.02.34.03.51.04.1,0,.19.02.29.02.27.02.53.04.8.06.05,0,.1,0,.15,0,.13,0,.25.01.38.02v-.12c-3.69-.22-6.96-.71-9.46-1.4Z"/>
      <path class="cls-8" d="M127.19,52.11v4.32c3.36-.24,6.33-.71,8.65-1.35-1.38-1.38-4.58-2.47-8.65-2.97Z"/>
      <path class="cls-8" d="M118.1,56.48v-4.46c-4.45.45-7.99,1.6-9.46,3.07,2.5.69,5.77,1.18,9.46,1.4Z"/>
      <path class="cls-7" d="M152.54,123.48c-4.22-5.68-8.46-10.85-12.61-15.52-1.13-1.27-2.25-2.5-3.36-3.7v-45.3c-.09.03-.18.05-.27.07-.11.03-.23.06-.34.09-.18.05-.36.1-.54.14-.11.03-.23.05-.35.08-.38.09-.76.18-1.16.26-.11.02-.21.05-.32.07-.16.03-.32.06-.48.09-.17.03-.33.06-.5.1-.16.03-.32.06-.48.08-.17.03-.35.06-.52.09-.16.03-.33.05-.49.07-.18.03-.36.05-.55.08-.16.02-.33.04-.49.07-.19.02-.38.05-.57.07-.16.02-.33.04-.49.06-.2.02-.39.04-.59.06-.16.02-.33.03-.5.05-.2.02-.41.04-.61.05-.05,0-.09,0-.14.01v13.67c0,1.22-2.03,2.21-4.54,2.21s-4.54-.99-4.54-2.21v-13.61c-.15,0-.3-.02-.45-.03-.17-.01-.33-.03-.5-.04-.2-.02-.41-.03-.61-.05-.17-.02-.33-.03-.49-.05-.2-.02-.39-.04-.59-.06-.17-.02-.33-.04-.49-.06-.19-.02-.38-.05-.57-.07-.16-.02-.33-.04-.49-.07-.18-.03-.36-.05-.54-.08-.16-.02-.33-.05-.49-.07-.18-.03-.35-.06-.52-.09-.16-.03-.32-.05-.48-.08-.17-.03-.33-.06-.5-.1-.16-.03-.32-.06-.48-.09-.11-.02-.21-.05-.32-.07-.39-.08-.78-.17-1.16-.26-.11-.03-.23-.05-.34-.08-.18-.05-.36-.09-.54-.14-.11-.03-.23-.06-.34-.09-.09-.02-.18-.05-.27-.07v43.85c-1.11,1.18-2.23,2.38-3.35,3.63-4.58,5.06-9.29,10.73-13.97,17.04-8.82,11.88-15.46,23.22-20.46,33.08-2.12,2.88-2.44,6.72-.83,9.92,1.26,2.49,3.42,3.78,4.42,4.32,14.46,7.85,81.23,7.85,95.69,0,1-.54,3.16-1.84,4.42-4.32,1.61-3.19,1.29-7.04-.83-9.92-4.99-9.85-11.64-21.2-20.46-33.08ZM115.58,94.88c.11-.97.4-1.88.84-2.69l5.81-12.27,5.81,12.27c.56,1.03.89,2.22.89,3.49,0,.23-.01.47-.03.69-.33,3.53-3.16,6.29-6.62,6.34h-.1c-3.68-.05-6.65-3.18-6.65-7.03,0-.27.02-.54.05-.8ZM169.3,163.68c-1.15,2.27-3.12,3.45-4.04,3.95-13.21,7.17-74.19,7.17-87.4,0-.92-.5-2.89-1.68-4.04-3.95-1.47-2.92-1.18-6.43.75-9.06,4.56-9,10.63-19.36,18.68-30.21.12-.16.23-.31.35-.47h.03c.73-3.51,13.02-6.3,28.09-6.3s28.12,2.97,28.12,6.63c0,.04-.01.08-.01.12,0,0,0,.01.01.02,8.05,10.85,14.12,21.21,18.68,30.21,1.94,2.63,2.23,6.14.75,9.06Z"/>
      <path class="cls-10" d="M149.86,124.41s0-.01-.01-.02c-.28,3.61-12.75,6.51-28.11,6.51s-28.12-2.97-28.12-6.63c0-.11.01-.22.03-.33h-.03c-.12.16-.23.31-.35.47-8.05,10.85-14.12,21.21-18.68,30.21-1.94,2.63-2.23,6.14-.75,9.06,1.15,2.27,3.12,3.45,4.04,3.95,13.21,7.17,74.19,7.17,87.4,0,.92-.5,2.89-1.68,4.04-3.95,1.47-2.92,1.18-6.43-.75-9.06-4.56-9-10.63-19.36-18.68-30.21Z"/>
      <path class="cls-4" d="M121.74,130.91c15.36,0,27.84-2.9,28.11-6.51,0-.04.01-.08.01-.12,0-3.66-12.59-6.63-28.12-6.63s-27.36,2.79-28.09,6.3c-.02.11-.03.22-.03.33,0,3.66,12.59,6.63,28.12,6.63Z"/>
      <path class="cls-7" d="M32.15,56.72c-.17.05-.35.09-.52.13-.1.02-.2.05-.3.07-.17.04-.34.08-.52.12-.11.02-.22.05-.33.07-.17.04-.34.07-.52.11-.12.02-.24.05-.36.07-.17.03-.34.06-.51.09-.13.02-.26.04-.39.06-.17.03-.33.06-.5.08-.14.02-.28.04-.42.06-.16.02-.33.05-.5.07-.15.02-.3.04-.44.06-.16.02-.33.04-.49.06-.16.02-.32.03-.48.05-.16.02-.32.03-.48.05-.16.02-.33.03-.49.04v16.3c0,1.22-2.03,2.21-4.54,2.21s-4.54-.99-4.54-2.21v-16.3c-.17-.01-.33-.03-.5-.04-.16-.02-.32-.03-.48-.05-.16-.02-.32-.03-.48-.05-.17-.02-.33-.04-.49-.06-.15-.02-.3-.04-.44-.06-.17-.02-.33-.05-.5-.07-.14-.02-.28-.04-.41-.06-.17-.03-.34-.06-.51-.08-.13-.02-.25-.04-.38-.06-.17-.03-.35-.06-.52-.1-.12-.02-.24-.04-.35-.07-.18-.03-.35-.07-.52-.11-.11-.02-.21-.05-.32-.07-.18-.04-.35-.08-.53-.12-.1-.02-.19-.05-.29-.07-.18-.04-.35-.09-.53-.14-.09-.02-.17-.05-.26-.07-.09-.02-.18-.05-.26-.07v106.93c0,6.8,5.51,12.31,12.31,12.31s12.31-5.51,12.31-12.31V56.57c-.09.02-.17.05-.26.07-.09.02-.18.05-.27.07ZM30.54,162.18c0,5.53-4.48,10.02-10.02,10.02h-.3c-5.53,0-10.02-4.48-10.02-10.02v-72.68c0-2.19,4.55-3.97,10.16-3.97s10.16,1.78,10.16,3.97v72.68Z"/>
      <path class="cls-1" d="M20.37,93.47c-5.61,0-10.16-1.78-10.16-3.97v72.68c0,5.53,4.49,10.02,10.02,10.02h.3c5.53,0,10.02-4.48,10.02-10.02v-72.68c0,2.19-4.55,3.97-10.16,3.97Z"/>
      <path class="cls-7" d="M4.39,50.55c0,.08.01.17.03.25h0c.16.67.94,1.3,2.21,1.85,0,0,0,0,0,0,.11.05.23.1.36.15.02,0,.03.01.05.02.11.04.23.09.35.13.03,0,.05.02.08.03.11.04.23.08.35.12.04.01.07.02.11.04.11.04.23.07.35.11.05.01.09.03.13.04.09.03.19.05.28.08,1.15-1.15,3.78-2.07,7.13-2.51v-4.23c-6.61.5-11.44,2.08-11.44,3.94Z"/>
      <path class="cls-7" d="M28.49,54.09c.13-.02.26-.04.39-.06.01,0,.03,0,.04,0-.19.03-.38.06-.57.09.05,0,.09-.01.14-.02Z"/>
      <path class="cls-7" d="M25.75,54.42c.06,0,.12-.01.18-.02-.15.01-.29.03-.44.04.09,0,.18-.01.26-.02Z"/>
      <path class="cls-7" d="M27.16,54.27c.1-.01.19-.02.29-.04-.16.02-.33.04-.49.06.07,0,.14-.02.2-.02Z"/>
      <path class="cls-7" d="M9.3,53.51c.06.01.12.03.18.04.12.03.24.06.36.08-.19-.04-.37-.08-.55-.13,0,0,0,0,0,0Z"/>
      <path class="cls-7" d="M27.83,54.18c.13-.02.25-.04.38-.05-.18.03-.37.05-.55.08.06,0,.12-.01.17-.02Z"/>
      <path class="cls-7" d="M10.04,53.68c.12.03.25.05.37.08.01,0,.02,0,.03,0-.19-.04-.38-.08-.57-.12.05.01.11.02.16.04Z"/>
      <path class="cls-7" d="M8.78,53.38c.05.01.1.03.16.04.09.02.18.05.27.07-.16-.04-.31-.08-.46-.12.01,0,.02,0,.03,0Z"/>
      <path class="cls-7" d="M29.13,53.99c.13-.02.26-.04.39-.07.03,0,.05,0,.08-.01-.19.03-.38.07-.57.1.04,0,.07-.01.11-.02Z"/>
      <path class="cls-7" d="M14.29,54.35c.08,0,.16.02.24.02-.15-.02-.31-.03-.46-.05.07,0,.15.02.22.03Z"/>
      <path class="cls-7" d="M11.87,54.03c.13.02.26.04.39.06.05,0,.09.01.14.02-.19-.03-.38-.06-.57-.09.01,0,.02,0,.04,0Z"/>
      <path class="cls-7" d="M15,54.42c.09,0,.18.02.26.02-.15-.01-.3-.03-.44-.04.06,0,.12.01.18.02Z"/>
      <path class="cls-7" d="M11.23,53.92c.13.02.25.05.38.07.03,0,.07.01.11.02-.19-.03-.39-.07-.57-.1.03,0,.06.01.08.02Z"/>
      <path class="cls-7" d="M10.63,53.8c.12.03.25.05.38.07.02,0,.05,0,.07.01-.19-.04-.39-.07-.57-.11.04,0,.08.02.12.02Z"/>
      <path class="cls-7" d="M29.74,53.88c.13-.02.25-.05.38-.07.04,0,.08-.02.11-.02-.18.04-.37.07-.56.11.02,0,.04,0,.06-.01Z"/>
      <path class="cls-7" d="M25.16,54.47c-.08,0-.16.01-.24.02h0s.07,0,.1,0c.05,0,.09,0,.14-.01Z"/>
      <path class="cls-7" d="M12.91,54.18c.06,0,.12.02.17.02-.19-.03-.37-.05-.56-.08.13.02.25.04.38.05Z"/>
      <path class="cls-7" d="M15.73,54.48s.07,0,.1,0h0c-.08,0-.16-.01-.24-.02.05,0,.09,0,.14.01Z"/>
      <path class="cls-7" d="M13.59,54.27c.07,0,.14.02.21.02-.17-.02-.33-.04-.49-.06.1.01.19.02.29.04Z"/>
      <path class="cls-7" d="M26.46,54.35c.07,0,.15-.02.22-.03-.15.02-.3.03-.46.05.08,0,.16-.02.24-.02Z"/>
      <path class="cls-7" d="M31.27,53.55c.06-.01.12-.03.18-.04,0,0,0,0,.01,0-.18.04-.36.09-.55.13.12-.03.24-.06.36-.08Z"/>
      <path class="cls-7" d="M31.81,53.42c.05-.01.1-.03.16-.04.01,0,.02,0,.04-.01-.15.04-.31.08-.47.12.09-.02.18-.05.27-.07Z"/>
      <path class="cls-7" d="M32.33,53.28s.09-.03.14-.04c.12-.04.24-.07.35-.11.04-.01.07-.02.11-.04.12-.04.24-.08.35-.12.03,0,.05-.02.08-.03.12-.04.24-.09.35-.13.02,0,.03-.01.05-.02.12-.05.24-.1.35-.14,0,0,0,0,.01,0,1.26-.55,2.04-1.17,2.2-1.84h0c.02-.08.03-.17.03-.25,0-1.86-4.83-3.44-11.44-3.94v4.23c3.35.44,5.98,1.37,7.12,2.51.09-.03.19-.05.28-.08Z"/>
      <path class="cls-7" d="M30.34,53.76c.13-.03.25-.05.37-.08.05-.01.11-.02.16-.04-.18.04-.37.08-.56.12,0,0,.02,0,.03,0Z"/>
      <path class="cls-8" d="M25.47,54.44s0,0,.01,0c.15-.01.3-.03.44-.04.09,0,.19-.02.28-.03,0,0,.01,0,.02,0,.15-.02.31-.03.46-.05.08,0,.16-.02.24-.03.01,0,.02,0,.03,0,.16-.02.33-.04.49-.06.06,0,.12-.01.18-.02.01,0,.03,0,.04,0,.19-.02.37-.05.55-.08.03,0,.06,0,.09-.01.02,0,.03,0,.05,0,.19-.03.38-.06.57-.09.03,0,.07-.01.1-.02.19-.03.39-.07.57-.1,0,0,0,0,0,0,.03,0,.05,0,.08-.01.19-.04.38-.07.56-.11.02,0,.05,0,.07-.01.19-.04.38-.08.56-.12,0,0,.01,0,.02,0,0,0,.02,0,.02,0,.19-.04.37-.09.55-.13.03,0,.05-.01.08-.02.16-.04.31-.08.47-.12.01,0,.03,0,.04-.01-1.15-1.15-3.78-2.07-7.12-2.51v3.65c.08,0,.16-.01.24-.02.1,0,.21-.02.31-.03Z"/>
      <path class="cls-8" d="M8.75,53.37c.15.04.3.08.46.12.03,0,.06.01.08.02.18.04.36.09.55.13,0,0,.02,0,.02,0,0,0,.01,0,.02,0,.19.04.37.08.57.12,0,0,.02,0,.03,0,.01,0,.02,0,.03,0,.19.04.38.07.57.11.03,0,.05,0,.08.01.19.03.38.07.57.1.03,0,.07.01.1.02.19.03.38.06.57.09.02,0,.04,0,.05,0,.03,0,.05,0,.08.01.18.03.37.05.56.08.01,0,.03,0,.04,0,.06,0,.12.01.17.02.16.02.33.04.49.06.01,0,.02,0,.03,0,.08,0,.15.02.23.03.15.02.31.03.46.05,0,0,.02,0,.02,0,.09,0,.18.02.28.03.15.01.29.03.44.04,0,0,0,0,.01,0,.1,0,.21.02.31.03.08,0,.16.01.24.02v-3.65c-3.35.44-5.98,1.37-7.13,2.51.01,0,.03,0,.04.01Z"/>
      <path class="cls-5" d="M20.37,85.53c-5.61,0-10.16,1.78-10.16,3.97s4.55,3.97,10.16,3.97,10.16-1.78,10.16-3.97-4.55-3.97-10.16-3.97Z"/>
      <path class="cls-3" d="M122.64,72.01c2.51,0,4.54.99,4.54,2.21v-13.67h0c-1.6.12-3.25.19-4.95.19-1.41,0-2.79-.05-4.14-.14v13.61c0-1.22,2.03-2.21,4.54-2.21Z"/>
      <path class="cls-3" d="M118.1,52.02v4.58h0c1.33.08,2.71.12,4.14.12,1.72,0,3.38-.06,4.95-.17h0v-29.01c0-15.18-12.35-27.54-27.54-27.54h-56.28C28.18,0,15.83,12.35,15.83,27.54v26.95h0c1.44.11,2.97.17,4.54.17s3.1-.06,4.54-.17h0v-26.95c0-10.17,8.28-18.45,18.45-18.45h56.28c10.17,0,18.45,8.28,18.45,18.45v24.48Z"/>
      <path class="cls-3" d="M20.37,72.01c2.51,0,4.54.99,4.54,2.21v-16.3c-1.46.12-2.98.19-4.54.19s-3.08-.07-4.54-.19v16.3c0-1.22,2.03-2.21,4.54-2.21Z"/>
      <path class="cls-2" d="M20.37,72.01c-2.51,0-4.54.99-4.54,2.21s2.03,2.21,4.54,2.21,4.54-.99,4.54-2.21-2.03-2.21-4.54-2.21Z"/>
      <path class="cls-2" d="M122.64,72.01c-2.51,0-4.54.99-4.54,2.21s2.03,2.21,4.54,2.21,4.54-.99,4.54-2.21-2.03-2.21-4.54-2.21Z"/>
      <path class="cls-1" d="M122.19,102.71h.1c3.46-.05,6.29-2.81,6.62-6.34.02-.23.03-.46.03-.69,0-1.27-.32-2.46-.89-3.49l-5.81-12.27-5.81,12.27c-.44.81-.73,1.72-.84,2.69-.03.26-.05.53-.05.8,0,3.85,2.97,6.98,6.65,7.03ZM121.81,84.18c.38-.28,1.26.25,1.97,1.2.7.95.96,1.94.58,2.23-.38.28-1.26-.25-1.97-1.2-.7-.95-.96-1.94-.58-2.23ZM118.54,92.67c1.11-.49,2.78.87,3.74,3.03.96,2.16.83,4.32-.28,4.8-1.11.49-2.78-.87-3.74-3.03-.96-2.16-.83-4.32.28-4.81Z"/>
      <path class="cls-5" d="M122,100.51c1.11-.49,1.23-2.64.28-4.8-.96-2.16-2.63-3.52-3.74-3.03-1.11.49-1.23,2.64-.28,4.81.96,2.16,2.63,3.52,3.74,3.03Z"/>
      <path class="cls-9" d="M124.35,87.6c.38-.28.12-1.28-.58-2.23-.7-.95-1.58-1.48-1.97-1.2-.38.28-.12,1.28.58,2.23.7.95,1.58,1.48,1.97,1.2Z"/>
    </g>
  </g>
</svg>