<?xml version="1.0" encoding="UTF-8"?>
<svg id="Layer_2" data-name="Layer 2" xmlns="http://www.w3.org/2000/svg" viewBox="0 0 111.39 180.51">
  <defs>
    <style>
      .cls-1 {
        fill: #796aad;
      }

      .cls-1, .cls-2, .cls-3, .cls-4, .cls-5, .cls-6, .cls-7 {
        stroke-width: 0px;
      }

      .cls-2 {
        fill: #e25e5d;
      }

      .cls-3 {
        fill: #655d94;
      }

      .cls-4 {
        fill: #8dd3f6;
      }

      .cls-5 {
        fill: #71cbf4;
      }

      .cls-6 {
        fill: #3abff0;
      }

      .cls-7 {
        fill: #ec6360;
      }
    </style>
  </defs>
  <g id="Capa_1" data-name="Capa 1">
    <g>
      <path class="cls-4" d="M103.44,2.49c-8.22-5.12-19.36-2.09-24.88,6.77-2.54,4.08-3.44,8.68-2.88,12.95.17,1.29-.98,2.19-2.37,1.93-1.25-.24-2.09-.15-2.39.33-.77,1.23,2.47,4.7,7.63,8.43l-7.77,12.48c-7.33-1.62-16.32-2.58-26.03-2.58C20.04,42.79,0,48.99,0,56.64c0,.23.02.45.05.67H.05s0,0,0,0c.03.22.09.44.16.66,0,0,0,.02,0,.02.07.22.15.43.25.64,0,.01.01.02.02.03.1.21.22.42.35.62,0,.01.02.03.03.04.13.2.28.41.44.61.01.02.03.03.04.05.16.2.34.4.52.59.02.02.03.03.05.05.19.19.39.39.61.58.02.02.04.04.06.05.22.19.45.38.69.56.02.02.05.03.07.05.25.19.5.37.77.55.03.02.05.03.08.05.27.18.56.36.86.54.03.01.05.03.08.04v109.71c0,4.27,17.75,7.73,39.64,7.73s39.64-3.46,39.64-7.73V63.08s0,0,0,0c.03-.01.05-.03.08-.05.3-.18.58-.36.86-.54.02-.02.05-.03.07-.05.27-.18.53-.37.78-.55.02-.02.05-.03.07-.05.24-.19.47-.37.69-.56.02-.02.04-.03.06-.05.22-.19.42-.38.61-.58.02-.02.03-.03.05-.05.19-.2.36-.39.52-.59.01-.02.03-.03.04-.05.16-.2.31-.4.44-.61,0-.01.02-.03.03-.04.13-.21.25-.41.35-.62,0-.01.01-.02.02-.03.1-.21.19-.43.25-.64,0,0,0-.02,0-.02.07-.22.12-.44.16-.66,0,0,0,0,0,0h0c.03-.22.05-.45.05-.67,0-3.08-3.25-5.92-8.73-8.22l6.34-10.19c5.62,2.99,10.16,4.36,10.93,3.13.29-.47,0-1.27-.76-2.29-.85-1.13-.55-2.56.68-2.97,4.09-1.38,7.81-4.23,10.35-8.3,5.52-8.86,3.32-20.19-4.9-25.31Z"/>
      <path class="cls-5" d="M81.12,64.72c-.39.17-.8.34-1.21.5,0,0-.02,0-.03.01-.64.25-1.32.49-2.01.73-1.16.39-2.38.77-3.68,1.12-.02,0-.04,0-.05.01-.5.13-1.01.26-1.52.39-.03,0-.06.02-.1.02-.51.12-1.02.24-1.55.36-.05.01-.09.02-.14.03-.52.11-1.04.23-1.57.33-.06.01-.11.02-.17.03-.24.05-.49.1-.74.14l-18.24,29.3-1.52,1.45c17.25.37,30.67,3.17,30.67,6.58v61.68c0,3.84-15.45,6.95-34.5,6.95s-34.5-3.11-34.5-6.95v-61.68h0c0-3.31,12.62-6.04,29.12-6.54l2.15-6.83,13.87-22.28c-.6.05-1.19.09-1.8.12-.07,0-.14,0-.21.01-.64.04-1.29.07-1.95.1-.06,0-.12,0-.18,0-.67.03-1.34.06-2.01.08-.05,0-.1,0-.14,0-.69.02-1.39.04-2.08.05-.03,0-.06,0-.08,0-.72.01-1.45.02-2.18.02s-1.45,0-2.17-.02c-.03,0-.06,0-.08,0-.7-.01-1.39-.03-2.08-.05-.05,0-.1,0-.14,0-.67-.02-1.34-.05-2.01-.08-.06,0-.12,0-.18,0-.65-.03-1.3-.07-1.94-.1-.07,0-.15,0-.22-.01-.63-.04-1.26-.08-1.88-.13-.08,0-.16-.01-.24-.02-.61-.05-1.22-.1-1.83-.16-.08,0-.17-.02-.25-.02-.6-.06-1.19-.12-1.78-.18-.08,0-.17-.02-.26-.03-.58-.06-1.16-.13-1.74-.2-.08-.01-.17-.02-.25-.03-.57-.07-1.14-.15-1.7-.23-.08-.01-.16-.02-.24-.03-.56-.08-1.11-.17-1.66-.25-.08-.01-.15-.03-.23-.04-.55-.09-1.09-.18-1.63-.28-.07-.01-.13-.02-.2-.04-.54-.1-1.07-.2-1.6-.31-.06-.01-.12-.02-.18-.04-.53-.11-1.05-.22-1.57-.33-.05-.01-.1-.02-.15-.03-.52-.12-1.03-.24-1.54-.36-.04,0-.07-.02-.11-.03-.51-.13-1.02-.26-1.51-.39-.02,0-.04-.01-.06-.02-.51-.14-1.01-.28-1.49-.42,0,0,0,0,0,0-1.12-.33-2.19-.68-3.19-1.05-.33-.12-.66-.25-.99-.37-.01,0-.02,0-.04-.01-.41-.16-.81-.33-1.21-.49-.02,0-.04-.02-.06-.03-.23-.1-.46-.2-.68-.3v104.94c0,.22.06.43.16.65,1.68,3.69,17.57,6.58,36.94,6.58s35.26-2.89,36.94-6.58c.1-.21.16-.43.16-.65v-104.94c-.22.1-.45.2-.68.3-.02,0-.04.01-.05.02Z"/>
      <path class="cls-1" d="M44.76,112.36c-19.05,0-34.5-2.96-34.5-6.62h0v61.68c0,3.84,15.45,6.95,34.5,6.95s34.5-3.11,34.5-6.95v-61.68c0,3.66-15.44,6.62-34.5,6.62ZM34.91,165.41H14.7c-.54,0-.98-.44-.98-.98,0-.01,0-.03,0-.04.02-.52.45-.94.98-.94h20.21c.54,0,.98.44.98.98s-.44.98-.98.98ZM34.91,153.48H14.7c-.54,0-.98-.44-.98-.98s.44-.98.98-.98h20.21c.54,0,.98.44.98.98s-.44.98-.98.98ZM34.91,141.55H14.7c-.54,0-.98-.44-.98-.98s.44-.98.98-.98h20.21c.54,0,.98.44.98.98s-.44.98-.98.98ZM34.91,129.63H14.7c-.54,0-.98-.44-.98-.98s.44-.98.98-.98h20.21c.54,0,.98.44.98.98s-.44.98-.98.98ZM34.91,117.7H14.7c-.54,0-.98-.44-.98-.98s.44-.98.98-.98h20.21c.54,0,.98.44.98.98s-.44.98-.98.98Z"/>
      <path class="cls-3" d="M10.27,105.74c0,3.66,15.44,6.62,34.5,6.62s34.5-2.96,34.5-6.62c0-3.41-13.42-6.21-30.67-6.58l-6.12,5.83c-1.5,1.43-4.73-.58-4.11-2.56l1.02-3.24c-16.5.5-29.12,3.23-29.12,6.54Z"/>
      <path class="cls-5" d="M8.38,60.47c.2.11.4.22.61.33.03.02.06.03.09.05.24.12.48.23.74.35.07.03.14.06.21.09.08.04.17.07.26.11,6.58-3.89,19.55-6.55,34.49-6.55,6.96,0,13.49.58,19.15,1.58l4.67-7.51c-6.63-1.22-14.88-1.94-23.82-1.94-21.89,0-39.64,4.32-39.64,9.65,0,.23.03.45.1.67h0c.04.15.1.29.17.44,0,.02.02.04.03.06.14.29.34.57.58.85.02.02.04.04.06.07.25.27.55.55.89.81.03.03.07.05.1.08.17.13.35.26.54.38,0,0,0,0,.01,0,.2.13.4.25.62.38.05.03.1.06.15.09Z"/>
      <path class="cls-5" d="M74.17,59.07c1.96.71,3.67,1.49,5.09,2.32.09-.04.17-.07.26-.11.07-.03.14-.06.21-.09.25-.12.5-.23.74-.35.03-.02.06-.03.09-.05.21-.11.41-.22.61-.33.05-.03.1-.06.15-.09.22-.12.43-.25.62-.38,0,0,0,0,.01,0,.19-.13.37-.25.54-.38.04-.03.07-.05.1-.08.34-.27.64-.54.89-.81.02-.02.04-.04.06-.07.24-.28.44-.56.58-.85,0-.02.02-.04.03-.06.07-.14.13-.29.17-.44h0c.06-.22.1-.45.1-.67,0-1.81-2.06-3.51-5.63-4.96l-4.6,7.39Z"/>
      <path class="cls-6" d="M10.27,61.4c.13.06.26.11.39.17.06.03.13.05.19.08.27.11.56.22.85.33.08.03.16.06.24.09.23.08.47.16.71.25.09.03.19.06.29.09.31.1.63.2.96.3.06.02.12.03.18.05.29.09.58.17.87.25.11.03.22.06.34.09.29.08.59.16.89.23.08.02.15.04.22.06.37.09.74.18,1.12.27.12.03.24.05.36.08.29.07.59.13.9.2.12.03.23.05.35.07.4.08.8.16,1.21.24.1.02.21.04.31.06.33.06.67.12,1.01.18.14.02.27.05.41.07.41.07.82.14,1.24.2.05,0,.09.01.14.02.44.07.88.13,1.32.2.14.02.29.04.43.06.37.05.74.1,1.11.15.11.01.23.03.34.04.47.06.95.12,1.44.17.13.01.26.03.39.04.39.04.78.08,1.17.12.14.01.29.03.43.04.5.05,1.01.1,1.52.14.08,0,.16.01.24.02.45.04.9.07,1.36.11.15.01.31.02.46.03.46.03.92.06,1.38.09.08,0,.16.01.24.02.54.03,1.08.06,1.62.09.15,0,.3.01.45.02.44.02.87.04,1.32.05.14,0,.28.01.42.02.56.02,1.11.04,1.68.05.11,0,.23,0,.34,0,.47.01.94.02,1.41.03.16,0,.32,0,.47,0,.58,0,1.16.01,1.74.01s1.17,0,1.75-.01c.16,0,.31,0,.47,0,.47,0,.95-.01,1.42-.03.11,0,.23,0,.34,0,.56-.01,1.12-.03,1.68-.05.14,0,.27-.01.41-.02.44-.02.88-.04,1.32-.06.15,0,.3-.01.44-.02.54-.03,1.09-.06,1.62-.09.08,0,.16-.01.24-.02.47-.03.93-.06,1.39-.09.15-.01.31-.02.46-.03.46-.03.91-.07,1.37-.11.08,0,.15-.01.23-.02.08,0,.15-.01.23-.02l5.79-9.3c-5.66-1.01-12.19-1.58-19.15-1.58-14.94,0-27.91,2.65-34.49,6.55Z"/>
      <path class="cls-6" d="M71.21,63.83c.14-.03.29-.06.43-.09.12-.03.24-.05.35-.08.38-.09.76-.18,1.12-.27.07-.02.15-.04.22-.06.3-.08.6-.16.89-.23.11-.03.22-.06.34-.09.3-.08.59-.17.88-.25.06-.02.12-.03.17-.05.33-.1.65-.2.97-.3.1-.03.19-.06.28-.09.24-.08.48-.16.71-.25.08-.03.16-.06.24-.09.29-.11.58-.22.85-.33.07-.03.13-.05.19-.08.13-.06.26-.11.39-.17-1.41-.84-3.13-1.62-5.09-2.32l-2.96,4.76Z"/>
      <path class="cls-6" d="M34.91,163.44H14.7c-.53,0-.96.42-.98.94,0,.01,0,.03,0,.04,0,.54.44.98.98.98h20.21c.54,0,.98-.44.98-.98s-.44-.98-.98-.98Z"/>
      <path class="cls-6" d="M34.91,151.52H14.7c-.54,0-.98.44-.98.98s.44.98.98.98h20.21c.54,0,.98-.44.98-.98s-.44-.98-.98-.98Z"/>
      <path class="cls-6" d="M34.91,139.59H14.7c-.54,0-.98.44-.98.98s.44.98.98.98h20.21c.54,0,.98-.44.98-.98s-.44-.98-.98-.98Z"/>
      <path class="cls-6" d="M34.91,127.67H14.7c-.54,0-.98.44-.98.98s.44.98.98.98h20.21c.54,0,.98-.44.98-.98s-.44-.98-.98-.98Z"/>
      <path class="cls-6" d="M34.91,115.74H14.7c-.54,0-.98.44-.98.98s.44.98.98.98h20.21c.54,0,.98-.44.98-.98s-.44-.98-.98-.98Z"/>
      <path class="cls-5" d="M43.68,101.47c-1.3,1.45-3.4.14-2.67-1.66l3.71-9.2,12.88-20.69c-.37.03-.75.07-1.13.1l-13.43,21.57-3.43,9.65c-.67,1.89,2.01,3.56,3.41,2.12l7.15-7.34,17.05-27.39c-.39.07-.79.14-1.19.21l-15.72,25.25-6.62,7.39Z"/>
      <path class="cls-5" d="M60.33,65.52l1.95-3.13,8.02-.44-1.47,2.35c.41-.08.82-.16,1.21-.24l16.34-26.25c-1.17-.64-2.39-1.35-3.62-2.12-1.23-.77-2.4-1.54-3.5-2.31l-20.07,32.24c.38-.04.76-.07,1.14-.11Z"/>
      <path class="cls-3" d="M44.71,90.6l-3.71,9.2c-.73,1.8,1.38,3.11,2.67,1.66l6.62-7.39,15.72-25.25c-2.66.44-5.47.81-8.42,1.08l-12.88,20.69Z"/>
      <path class="cls-3" d="M62.28,62.39l-1.95,3.13c3.05-.32,5.9-.72,8.5-1.21l1.47-2.35-8.02.44Z"/>
      <path class="cls-7" d="M97.99,36.1c4.09-1.38,7.81-4.23,10.35-8.3,5.52-8.86,3.32-20.19-4.9-25.31-8.22-5.12-19.36-2.09-24.88,6.77-2.54,4.08-3.44,8.68-2.88,12.95.17,1.29-.98,2.19-2.37,1.93-1.25-.24-2.09-.15-2.39.33-.77,1.23,2.47,4.7,7.63,8.43.23.17.46.33.7.5,1.1.77,2.27,1.55,3.5,2.31,1.23.77,2.45,1.48,3.62,2.12.25.14.51.27.76.41,5.62,2.99,10.16,4.36,10.93,3.13.29-.47,0-1.27-.76-2.29-.85-1.13-.55-2.56.68-2.97ZM93,10.2c-3.7,1.21-7.51.95-8.5-.6-.99-1.54,1.21-3.78,4.92-4.99,3.71-1.21,7.51-.95,8.5.6.99,1.54-1.21,3.78-4.91,4.99Z"/>
      <path class="cls-2" d="M97.92,5.21c-.99-1.54-4.8-1.81-8.5-.6-3.7,1.21-5.91,3.45-4.92,4.99.99,1.54,4.8,1.81,8.5.6s5.9-3.45,4.91-4.99Z"/>
    </g>
  </g>
</svg>