<?xml version="1.0" encoding="UTF-8"?>
<svg id="Layer_2" data-name="Layer 2" xmlns="http://www.w3.org/2000/svg" viewBox="0 0 180.86 164.7">
  <defs>
    <style>
      .cls-1 {
        fill: #6ba55f;
      }

      .cls-1, .cls-2, .cls-3, .cls-4, .cls-5, .cls-6, .cls-7, .cls-8, .cls-9 {
        stroke-width: 0px;
      }

      .cls-2 {
        fill: #abadae;
      }

      .cls-3 {
        fill: #999b9c;
      }

      .cls-4 {
        fill: #b9babc;
      }

      .cls-5 {
        fill: #86c276;
      }

      .cls-6 {
        fill: #8dd3f6;
      }

      .cls-7 {
        fill: #71cbf4;
      }

      .cls-8 {
        fill: #3abff0;
      }

      .cls-9 {
        fill: #98c989;
      }
    </style>
  </defs>
  <g id="Capa_1" data-name="Capa 1">
    <g>
      <g>
        <path class="cls-6" d="M175.53,91.42L88.02,9.05c1.38-3.64,1.45-6.58-.13-8.06-3.39-3.19-13.11,1.63-21.7,10.76-8.6,9.13-12.82,19.12-9.43,22.31,1.57,1.48,4.51,1.23,8.05-.36l87.51,82.37c6.81,6.41,17.52,6.08,23.92-.72,6.41-6.81,6.08-17.52-.72-23.92Z"/>
        <path class="cls-4" d="M127.55,111.17c-.52,2.04-2.44,3.98-5.53,5.76,3.04-1.76,4.94-3.69,5.45-5.72.09-.37.14-.74.14-1.11h0c0-7.74-20.25-14.25-47.69-16.12,1.02-2.26,1.6-4.79,1.6-7.46,0-3.16-.81-6.12-2.21-8.68l-14.48-30.57-14.48,30.57c-1.4,2.56-2.21,5.52-2.21,8.68,0,2.62.55,5.1,1.54,7.33C21.24,95.54,0,102.18,0,110.11h0c0,.26.03.52.07.78v36.88H.07s0,.09,0,.14c0,.05,0,.09,0,.14H.07c0,9.2,28.57,16.65,63.81,16.65s61.48-6.86,63.67-15.54c.09-.37.14-.74.14-1.11h0c0-.38-.05-.75-.14-1.11v-35.76Z"/>
      </g>
      <path class="cls-7" d="M173.99,113.21c5.19-5.52,4.93-14.2-.59-19.39L86.62,12.14c-1.83,3.51-4.62,7.41-8.15,11.16-3.53,3.75-7.25,6.77-10.65,8.81l86.78,81.69c5.52,5.19,14.2,4.93,19.39-.59ZM100.72,44.25c4.29-4.56,9.21-6.89,10.99-5.22l58.98,55.52c4.49,4.23,4.7,11.29.48,15.78l-.23.24c-4.23,4.49-11.29,4.7-15.78.48l-58.98-55.52c-1.78-1.68.25-6.73,4.54-11.28Z"/>
      <path class="cls-5" d="M170.95,110.57l.23-.24c4.23-4.49,4.01-11.56-.48-15.78l-58.98-55.52c1.78,1.68-.25,6.73-4.54,11.28-4.29,4.56-9.21,6.89-10.99,5.22l58.98,55.52c4.49,4.23,11.56,4.01,15.78-.48Z"/>
      <path class="cls-7" d="M83.52,10.19c1.45-2.73,1.9-4.82,1.02-5.65-1.84-1.73-8.8,2.67-15.55,9.83-6.74,7.16-10.72,14.38-8.87,16.11.88.83,2.94.25,5.57-1.36-.08-2.57,2.49-7.21,6.64-11.62,4.15-4.41,8.62-7.25,11.19-7.33Z"/>
      <path class="cls-8" d="M68.01,27.57c.17-.13.35-.26.52-.39.03-.02.06-.05.09-.07.17-.13.34-.26.51-.4.04-.03.07-.06.11-.09.16-.13.33-.26.49-.4.04-.04.09-.07.13-.11.16-.13.32-.27.48-.4.05-.04.1-.08.15-.13.16-.13.31-.27.47-.4.06-.05.11-.1.17-.15.15-.13.3-.27.46-.41.06-.05.12-.11.18-.16.15-.13.3-.27.44-.4.07-.06.14-.12.2-.19.14-.13.29-.27.44-.41.07-.07.14-.13.21-.2.15-.14.29-.28.44-.43.07-.07.14-.13.21-.2.15-.14.29-.29.44-.44.07-.07.14-.14.21-.21.16-.16.31-.32.47-.48.06-.06.12-.12.18-.18.22-.22.43-.45.65-.68.43-.46.86-.92,1.27-1.39.01-.02.03-.03.04-.05.4-.45.78-.89,1.15-1.33.02-.03.04-.05.06-.08.37-.43.72-.87,1.06-1.29.02-.03.04-.06.07-.08.34-.43.66-.85.98-1.27.02-.03.04-.05.06-.07.31-.42.61-.84.9-1.24.01-.02.03-.04.04-.06.29-.41.56-.82.82-1.22,0-.01.02-.02.02-.04.26-.41.51-.8.74-1.19,0,0,0,0,0-.01.22-.38.43-.75.62-1.11,0-.01.02-.03.02-.04h0c-2.57.08-7.04,2.92-11.19,7.33-4.15,4.41-6.71,9.05-6.64,11.62h0s0,0,0,0c.18-.11.36-.22.54-.34,0,0,0,0,0,0,.18-.12.36-.24.55-.36,0,0,.02-.01.03-.02.18-.12.36-.25.54-.37.02-.01.03-.02.05-.03.18-.12.35-.25.53-.38.02-.02.05-.03.07-.05Z"/>
      <path class="cls-1" d="M107.17,50.31c4.29-4.56,6.32-9.61,4.54-11.28-1.78-1.68-6.7.66-10.99,5.22-4.29,4.56-6.32,9.61-4.54,11.28,1.78,1.68,6.7-.66,10.99-5.22Z"/>
      <path class="cls-3" d="M.07,148.05H.07c0,9.2,28.57,16.65,63.81,16.65s61.48-6.86,63.67-15.54c.09-.37.14-.74.14-1.11h0c0-.38-.05-.75-.14-1.11v.84h0c0,9.2-28.54,16.65-63.74,16.65S.36,157.04.08,147.91c0,.05,0,.09,0,.14H.07Z"/>
      <path class="cls-3" d="M63.81,159.72c33.83,0,61.25-5.77,61.25-12.89h0v-3.54c-7.83-6.89-32.25-11.91-61.18-11.91s-53.65,5.08-61.32,12.04v3.41h0c0,7.12,27.42,12.89,61.25,12.89ZM63.88,137.24c18.81,0,34.05,3.33,34.05,7.44s-15.25,7.44-34.05,7.44-34.06-3.33-34.06-7.44,15.25-7.44,34.06-7.44Z"/>
      <path class="cls-5" d="M63.88,152.13c18.81,0,34.05-3.33,34.05-7.44s-15.25-7.44-34.05-7.44-34.06,3.33-34.06,7.44,15.25,7.44,34.06,7.44ZM78.23,143.77c5.74,0,10.38,1.02,10.38,2.27s-4.65,2.27-10.38,2.27-10.38-1.02-10.38-2.27,4.65-2.27,10.38-2.27ZM46.36,141.06c4.58,0,8.29.81,8.29,1.81s-3.71,1.81-8.29,1.81-8.29-.81-8.29-1.81,3.71-1.81,8.29-1.81Z"/>
      <path class="cls-9" d="M46.36,144.69c4.58,0,8.29-.81,8.29-1.81s-3.71-1.81-8.29-1.81-8.29.81-8.29,1.81,3.71,1.81,8.29,1.81Z"/>
      <path class="cls-1" d="M78.23,148.31c5.74,0,10.38-1.02,10.38-2.27s-4.65-2.27-10.38-2.27-10.38,1.02-10.38,2.27,4.65,2.27,10.38,2.27Z"/>
      <path class="cls-2" d="M63.81,164.42c35.2,0,63.73-7.45,63.74-16.65h0v-36.6c-.52,2.04-2.44,3.98-5.53,5.76-9.99,5.79-32.29,9.82-58.21,9.82C29.58,126.76,1.64,119.72.07,110.89v36.88H.07s0,.09,0,.14c.28,9.13,28.71,16.51,63.73,16.51ZM2.56,146.84v-29.18c0,7.12,27.46,12.89,61.32,12.89s59.08-5.31,61.18-12.03v28.32h0c0,7.12-27.42,12.89-61.25,12.89s-61.25-5.77-61.25-12.89h0Z"/>
      <path class="cls-2" d="M64.71,104.05c-4.56-.07-8.68-2.03-11.67-5.16-25.35,1.04-44.47,5.65-44.47,11.18h0c0,2.08,2.69,4.02,7.4,5.7,9.56-3.41,27.44-5.7,47.91-5.7s38.34,2.29,47.91,5.7c4.71-1.68,7.4-3.62,7.4-5.7h0c0-5.4-18.2-9.92-42.63-11.1-2.98,3.08-7.07,5.01-11.59,5.08h-.26Z"/>
      <path class="cls-3" d="M15.98,115.76c9.56,3.41,27.44,5.7,47.91,5.7s38.34-2.29,47.91-5.7c-9.56-3.41-27.44-5.7-47.91-5.7s-38.34,2.29-47.91,5.7Z"/>
      <path class="cls-5" d="M64.71,104.05h.26c4.52-.07,8.61-1.99,11.59-5.08,1.39-1.43,2.54-3.11,3.38-4.98,1.02-2.26,1.6-4.79,1.6-7.46,0-3.16-.81-6.12-2.21-8.68l-14.48-30.57-14.48,30.57c-1.4,2.56-2.21,5.52-2.21,8.68,0,2.62.55,5.1,1.54,7.33.83,1.88,1.97,3.58,3.35,5.02,2.99,3.13,7.11,5.09,11.67,5.16ZM63.77,57.89c.95-.71,3.14.63,4.9,2.99,1.75,2.36,2.4,4.84,1.45,5.55-.95.71-3.14-.63-4.9-2.99-1.75-2.36-2.4-4.84-1.45-5.55ZM55.63,79.04c2.76-1.22,6.93,2.16,9.31,7.55,2.38,5.39,2.07,10.75-.69,11.97-2.76,1.22-6.93-2.16-9.31-7.55-2.38-5.39-2.07-10.75.69-11.97Z"/>
      <path class="cls-1" d="M64.25,98.56c2.76-1.22,3.07-6.58.69-11.97-2.38-5.39-6.55-8.77-9.31-7.55-2.76,1.22-3.07,6.58-.69,11.97,2.38,5.39,6.55,8.77,9.31,7.55Z"/>
      <path class="cls-9" d="M70.11,66.42c.95-.71.3-3.19-1.45-5.55-1.75-2.36-3.94-3.69-4.9-2.99-.95.71-.3,3.19,1.45,5.55,1.75,2.36,3.94,3.69,4.9,2.99Z"/>
    </g>
  </g>
</svg>