<?xml version="1.0" encoding="UTF-8"?>
<svg id="Layer_2" data-name="Layer 2" xmlns="http://www.w3.org/2000/svg" viewBox="0 0 44.47 180.1">
  <defs>
    <style>
      .cls-1 {
        fill: #6ba55f;
      }

      .cls-1, .cls-2, .cls-3, .cls-4, .cls-5, .cls-6 {
        stroke-width: 0px;
      }

      .cls-2 {
        fill: #86c276;
      }

      .cls-3 {
        fill: #8dd3f6;
      }

      .cls-4 {
        fill: #71cbf4;
      }

      .cls-5 {
        fill: #3abff0;
      }

      .cls-6 {
        fill: #98c989;
      }
    </style>
  </defs>
  <g id="Capa_1" data-name="Capa 1">
    <g>
      <g>
        <path class="cls-2" d="M34.61,15.72c-5.44,0-9.86,4.41-9.86,9.86s4.41,9.86,9.86,9.86,9.86-4.41,9.86-9.86-4.41-9.86-9.86-9.86Z"/>
        <path class="cls-2" d="M7.34,19.19c-3.78,0-6.85,3.07-6.85,6.85s3.07,6.85,6.85,6.85,6.85-3.07,6.85-6.85-3.07-6.85-6.85-6.85Z"/>
        <path class="cls-2" d="M27.12,6.85c0-3.78-3.07-6.85-6.85-6.85s-6.85,3.07-6.85,6.85,3.07,6.85,6.85,6.85,6.85-3.07,6.85-6.85Z"/>
      </g>
      <path class="cls-3" d="M21.58,36.47c-11.92,0-21.58,3.59-21.58,8.01,0,2.05,2.08,3.92,5.5,5.34v114.2c0,8.88,7.2,16.08,16.08,16.08s16.08-7.2,16.08-16.08V49.82c3.42-1.42,5.5-3.29,5.5-5.34,0-4.42-9.66-8.01-21.58-8.01Z"/>
      <path class="cls-4" d="M8.55,50.86v113.25c0,7.2,5.83,13.03,13.03,13.03s13.03-5.83,13.03-13.03V50.86c-3.62,1.02-8.14,1.63-13.03,1.63s-9.41-.61-13.03-1.63ZM32.34,85.74v76.97c0,5.86-4.75,10.61-10.61,10.61h-.31c-5.86,0-10.61-4.75-10.61-10.61v-76.97c0-2.32,4.82-4.21,10.77-4.21s10.77,1.88,10.77,4.21Z"/>
      <path class="cls-2" d="M21.58,89.94c-5.95,0-10.77-1.88-10.77-4.21v76.97c0,5.86,4.75,10.61,10.61,10.61h.31c5.86,0,10.61-4.75,10.61-10.61v-76.97c0,2.32-4.82,4.21-10.77,4.21Z"/>
      <path class="cls-4" d="M23.94,44.55c4.7.29,8.52,1.41,10,2.9,2.83-.78,4.57-1.82,4.57-2.97,0-2.17-6.16-3.96-14.22-4.3.27.57.42,1.2.42,1.87,0,.93-.29,1.79-.77,2.5Z"/>
      <path class="cls-4" d="M9.22,47.45c1.22-1.22,4.01-2.2,7.57-2.67-.59-.75-.95-1.7-.95-2.73,0-.6.12-1.18.34-1.7-6.7.58-11.53,2.21-11.53,4.13,0,1.15,1.74,2.2,4.57,2.97Z"/>
      <path class="cls-5" d="M20.28,46.49c-1.42,0-2.67-.67-3.49-1.7-3.56.47-6.35,1.45-7.57,2.67h0s0,0,0,0c.19.05.39.1.59.15,0,0,0,0,0,0,.2.05.4.1.61.14.01,0,.02,0,.03,0,.2.04.4.09.61.13.02,0,.04,0,.06.01.2.04.4.08.6.12.03,0,.06.01.09.02.2.04.4.07.6.1.04,0,.08.01.12.02.19.03.39.06.59.09.05,0,.1.01.15.02.19.03.39.05.58.08.06,0,.11.02.17.02.19.02.38.05.58.07.07,0,.14.02.2.02.19.02.37.04.56.06.08,0,.15.02.23.02.18.02.37.03.56.05.09,0,.17.02.26.02.18.01.37.03.55.04.09,0,.18.01.28.02.18.01.36.02.54.03.1,0,.2.01.3.02.18,0,.36.02.55.03.1,0,.21,0,.31.01.18,0,.37.01.56.02.1,0,.21,0,.31.01.2,0,.4,0,.61.01.09,0,.18,0,.27,0,.3,0,.59,0,.89,0s.6,0,.89,0c.09,0,.18,0,.27,0,.2,0,.41,0,.61-.01.11,0,.21,0,.31-.01.19,0,.37-.01.56-.02.1,0,.21,0,.31-.01.18,0,.36-.02.54-.03.1,0,.2-.01.3-.02.18-.01.36-.02.54-.03.09,0,.18-.01.28-.02.18-.01.37-.03.55-.04.09,0,.17-.01.26-.02.19-.02.37-.03.56-.05.08,0,.16-.02.23-.02.19-.02.38-.04.56-.06.07,0,.13-.02.2-.02.2-.02.39-.05.58-.07.06,0,.11-.01.17-.02.2-.03.39-.05.59-.08.05,0,.1-.01.14-.02.2-.03.4-.06.59-.09.04,0,.08-.01.11-.02.2-.03.4-.07.6-.1.03,0,.06-.01.09-.02.21-.04.41-.08.61-.12.02,0,.04,0,.06-.01.21-.04.41-.09.61-.13,0,0,.02,0,.03,0,.21-.05.41-.09.61-.14,0,0,0,0,0,0,.2-.05.4-.1.59-.15,0,0,0,0,0,0h0c-1.49-1.49-5.3-2.61-10-2.9-.8,1.17-2.14,1.93-3.66,1.93Z"/>
      <path class="cls-1" d="M10.81,85.74c0,2.32,4.82,4.21,10.77,4.21s10.77-1.88,10.77-4.21-4.82-4.21-10.77-4.21-10.77,1.88-10.77,4.21Z"/>
      <path class="cls-2" d="M16.79,44.79c.81,1.03,2.07,1.7,3.49,1.7,1.52,0,2.86-.77,3.66-1.93.49-.71.77-1.57.77-2.5,0-.67-.15-1.3-.42-1.87-.71-1.51-2.24-2.56-4.01-2.56s-3.43,1.13-4.09,2.73c-.22.52-.34,1.1-.34,1.7,0,1.03.36,1.98.95,2.73ZM21.41,43.45c1.1-.89,2.27-1.26,2.62-.83.35.43-.26,1.5-1.35,2.39-1.1.89-2.27,1.26-2.62.82-.35-.43.26-1.5,1.35-2.39ZM17.92,39.13c.54-.44,1.26-.44,1.61,0,.35.43.19,1.13-.35,1.57s-1.26.44-1.61,0c-.35-.43-.19-1.13.35-1.57Z"/>
      <path class="cls-1" d="M19.18,40.69c.54-.44.69-1.14.35-1.57-.35-.43-1.07-.43-1.61,0-.54.44-.69,1.14-.35,1.57.35.43,1.07.43,1.61,0Z"/>
      <path class="cls-6" d="M22.68,45.01c1.1-.89,1.7-1.95,1.35-2.39-.35-.43-1.52-.06-2.62.83-1.1.89-1.7,1.95-1.35,2.39.35.43,1.52.06,2.62-.82Z"/>
      <path class="cls-1" d="M32.19,22.55c1.2-.97,1.54-2.53.77-3.49-.78-.96-2.38-.95-3.57.02-1.2.97-1.54,2.53-.77,3.49.77.96,2.37.95,3.57-.02Z"/>
      <path class="cls-6" d="M39.95,32.16c2.44-1.97,3.79-4.35,3.01-5.31-.77-.96-3.38-.14-5.82,1.83-2.44,1.97-3.79,4.35-3.01,5.3.78.96,3.38.14,5.82-1.83Z"/>
      <path class="cls-1" d="M5.65,23.94c.83-.67,1.07-1.76.53-2.43-.54-.67-1.65-.66-2.48.01-.83.67-1.07,1.76-.53,2.43.54.67,1.65.66,2.48-.01Z"/>
      <path class="cls-6" d="M11.05,30.62c1.69-1.37,2.63-3.02,2.09-3.69-.54-.67-2.35-.1-4.04,1.27-1.69,1.37-2.63,3.02-2.09,3.69.54.67,2.35.1,4.04-1.27Z"/>
      <path class="cls-1" d="M18.59,4.75c.83-.67,1.07-1.76.53-2.43-.54-.67-1.65-.66-2.48.01-.83.67-1.07,1.76-.53,2.43.54.67,1.65.66,2.48-.01Z"/>
      <path class="cls-6" d="M23.99,11.42c1.69-1.37,2.63-3.02,2.09-3.69-.54-.67-2.35-.1-4.04,1.27-1.69,1.37-2.63,3.02-2.09,3.69.54.67,2.35.1,4.04-1.27Z"/>
    </g>
  </g>
</svg>