<?xml version="1.0" encoding="UTF-8"?>
<svg id="Layer_2" data-name="Layer 2" xmlns="http://www.w3.org/2000/svg" viewBox="0 0 136.73 180.86">
  <defs>
    <style>
      .cls-1 {
        fill: #fcd377;
      }

      .cls-1, .cls-2, .cls-3, .cls-4, .cls-5 {
        stroke-width: 0px;
      }

      .cls-2 {
        fill: #8dd3f6;
      }

      .cls-3 {
        fill: #71cbf4;
      }

      .cls-4 {
        fill: #3abff0;
      }

      .cls-5 {
        fill: #eac06b;
      }
    </style>
  </defs>
  <g id="Capa_1" data-name="Capa 1">
    <g>
      <path class="cls-2" d="M68.36,0C30.61,0,0,8.14,0,18.18c0,3.05,2.83,5.93,7.82,8.45v144.07c0,5.6,27.1,10.15,60.54,10.15s60.54-4.54,60.54-10.15V26.64c5-2.53,7.83-5.4,7.83-8.46,0-10.04-30.61-18.18-68.36-18.18Z"/>
      <path class="cls-3" d="M11.71,28.37v137.81h0c0,.29.08.57.23.85,2.56,4.85,26.84,8.65,56.42,8.65s53.86-3.8,56.42-8.65c.15-.28.23-.56.23-.85h0V28.37c-12.29,4.83-33.07,8-56.64,8s-44.36-3.17-56.65-8ZM39.32,39.96c5.42,0,9.8,4.4,9.79,9.82,0,5.42-4.4,9.8-9.82,9.79-5.42,0-9.8-4.4-9.79-9.82,0-5.42,4.4-9.8,9.82-9.79ZM97.68,45.19c3.89,0,7.04,3.16,7.03,7.05,0,3.89-3.16,7.04-7.05,7.03-3.89,0-7.04-3.16-7.03-7.05,0-3.89,3.16-7.04,7.05-7.03ZM80.03,58.35c0,1.18-.24,2.3-.64,3.33,23.8.95,41.66,4.93,41.66,9.69v92.29c0,5.04-23.59,9.13-52.69,9.13s-52.69-4.09-52.69-9.13v-92.29h.01c0-5.09,20.44-9.29,46.74-9.84-.37-1-.59-2.08-.59-3.2,0-5.02,4.09-9.09,9.11-9.08,5.02,0,9.09,4.09,9.08,9.11Z"/>
      <path class="cls-1" d="M68.36,81.28c-29.09,0-52.68-4.43-52.68-9.9h-.01v92.29c0,5.04,23.59,9.13,52.69,9.13s52.69-4.09,52.69-9.13v-92.29c0,5.47-23.59,9.9-52.68,9.9ZM53.31,160.71h-30.86c-.54,0-.98-.44-.98-.98,0-.09.01-.17.03-.24.11-.42.49-.74.95-.74h30.86c.54,0,.98.44.98.98s-.44.98-.98.98ZM53.31,145.05h-30.86c-.54,0-.98-.44-.98-.98s.44-.98.98-.98h30.86c.54,0,.98.44.98.98s-.44.98-.98.98ZM53.31,129.39h-30.86c-.54,0-.98-.44-.98-.98s.44-.98.98-.98h30.86c.54,0,.98.44.98.98s-.44.98-.98.98ZM53.31,113.73h-30.86c-.54,0-.98-.44-.98-.98s.44-.98.98-.98h30.86c.54,0,.98.44.98.98s-.44.98-.98.98ZM53.31,98.07h-30.86c-.54,0-.98-.44-.98-.98s.44-.98.98-.98h30.86c.54,0,.98.44.98.98s-.44.98-.98.98Z"/>
      <path class="cls-5" d="M70.92,67.44c-3.89,0-7.2-2.46-8.5-5.9-26.3.56-46.74,4.75-46.74,9.84,0,5.47,23.59,9.9,52.68,9.9s52.68-4.43,52.68-9.9c0-4.76-17.86-8.73-41.66-9.69-1.34,3.37-4.62,5.75-8.46,5.75Z"/>
      <path class="cls-3" d="M15.68,24.43c10.05-5.12,29.86-8.6,52.68-8.6s42.63,3.48,52.68,8.6c5-1.84,7.85-3.98,7.85-6.25,0-7-27.1-12.68-60.53-12.68S7.83,11.18,7.83,18.18c0,2.27,2.86,4.4,7.85,6.25Z"/>
      <path class="cls-4" d="M15.68,24.43c10.4,3.84,30.1,6.43,52.68,6.43s42.28-2.59,52.68-6.43c-10.05-5.12-29.86-8.6-52.68-8.6s-42.63,3.48-52.68,8.6Z"/>
      <path class="cls-4" d="M53.31,158.75h-30.86c-.46,0-.84.31-.95.74-.02.08-.03.16-.03.24,0,.54.44.98.98.98h30.86c.54,0,.98-.44.98-.98s-.44-.98-.98-.98Z"/>
      <path class="cls-4" d="M53.31,143.09h-30.86c-.54,0-.98.44-.98.98s.44.98.98.98h30.86c.54,0,.98-.44.98-.98s-.44-.98-.98-.98Z"/>
      <path class="cls-4" d="M53.31,127.43h-30.86c-.54,0-.98.44-.98.98s.44.98.98.98h30.86c.54,0,.98-.44.98-.98s-.44-.98-.98-.98Z"/>
      <path class="cls-4" d="M53.31,111.76h-30.86c-.54,0-.98.44-.98.98s.44.98.98.98h30.86c.54,0,.98-.44.98-.98s-.44-.98-.98-.98Z"/>
      <path class="cls-4" d="M53.31,96.1h-30.86c-.54,0-.98.44-.98.98s.44.98.98.98h30.86c.54,0,.98-.44.98-.98s-.44-.98-.98-.98Z"/>
      <path class="cls-1" d="M39.29,59.57c5.42,0,9.81-4.38,9.82-9.79,0-5.42-4.38-9.81-9.79-9.82-5.42,0-9.81,4.38-9.82,9.79,0,5.42,4.38,9.81,9.79,9.82ZM34.11,43.3c1.19-.96,2.79-.97,3.56-.01.77.95.43,2.51-.77,3.47-1.19.96-2.78.97-3.56.01-.77-.95-.43-2.51.77-3.47Z"/>
      <path class="cls-5" d="M36.89,46.76c1.19-.96,1.54-2.52.77-3.47-.77-.96-2.36-.95-3.56.01-1.19.96-1.54,2.52-.77,3.47.77.96,2.36.95,3.56-.01Z"/>
      <path class="cls-1" d="M61.84,58.33c0,1.13.21,2.21.59,3.2,1.29,3.44,4.6,5.9,8.5,5.9,3.84,0,7.13-2.38,8.46-5.75.41-1.03.64-2.15.64-3.33,0-5.02-4.06-9.1-9.08-9.11-5.02,0-9.1,4.06-9.11,9.08ZM66.11,52.34c1.11-.89,2.58-.9,3.3-.01.71.89.39,2.33-.71,3.22-1.11.89-2.58.9-3.3.01-.71-.89-.4-2.33.71-3.22Z"/>
      <path class="cls-5" d="M68.7,55.55c1.11-.89,1.43-2.33.71-3.22-.71-.89-2.19-.88-3.3.01-1.11.89-1.43,2.33-.71,3.22.71.89,2.19.88,3.3-.01Z"/>
      <path class="cls-1" d="M97.66,59.28c3.89,0,7.05-3.14,7.05-7.03,0-3.89-3.14-7.05-7.03-7.05-3.89,0-7.05,3.14-7.05,7.03,0,3.89,3.14,7.05,7.03,7.05ZM93.93,47.59c.86-.69,2-.7,2.55-.01.55.69.31,1.8-.55,2.49-.86.69-2,.7-2.55.01-.55-.69-.31-1.8.55-2.49Z"/>
      <path class="cls-5" d="M95.94,50.07c.86-.69,1.1-1.81.55-2.49-.55-.69-1.7-.68-2.55.01s-1.1,1.81-.55,2.49c.55.69,1.7.68,2.55-.01Z"/>
    </g>
  </g>
</svg>