<?xml version="1.0" encoding="UTF-8"?>
<svg id="Layer_2" data-name="Layer 2" xmlns="http://www.w3.org/2000/svg" viewBox="0 0 106.36 180.86">
  <defs>
    <style>
      .cls-1 {
        fill: #8dd3f6;
      }

      .cls-1, .cls-2, .cls-3 {
        stroke-width: 0px;
      }

      .cls-2 {
        fill: #71cbf4;
      }

      .cls-3 {
        fill: #3abff0;
      }
    </style>
  </defs>
  <g id="Capa_1" data-name="Capa 1">
    <g>
      <path class="cls-2" d="M99.32,97.38L53.18,0,7.04,97.38c-4.47,8.16-7.04,17.59-7.04,27.66,0,30.57,23.56,55.38,52.77,55.81h.82c29.21-.43,52.77-25.24,52.77-55.81,0-10.07-2.57-19.51-7.04-27.66Z"/>
      <path class="cls-3" d="M23.83,101.18c-8.8,3.89-9.77,20.96-2.19,38.13,7.59,17.17,20.87,27.95,29.67,24.06,8.8-3.89,9.77-20.96,2.19-38.13-7.59-17.17-20.87-27.95-29.67-24.06Z"/>
      <path class="cls-1" d="M49.76,33.79c-3.03,2.25-.97,10.17,4.61,17.68,5.58,7.51,12.56,11.77,15.6,9.51,3.03-2.25.97-10.17-4.61-17.68-5.58-7.51-12.56-11.77-15.6-9.51Z"/>
    </g>
  </g>
</svg>