<?xml version="1.0" encoding="UTF-8"?>
<svg id="Layer_2" data-name="Layer 2" xmlns="http://www.w3.org/2000/svg" viewBox="0 0 85.32 180.86">
  <defs>
    <style>
      .cls-1 {
        fill: #8dd3f6;
      }

      .cls-1, .cls-2, .cls-3, .cls-4 {
        stroke-width: 0px;
      }

      .cls-2 {
        fill: #71cbf4;
      }

      .cls-3 {
        fill: #3abff0;
      }

      .cls-4 {
        fill: #ec6360;
      }
    </style>
  </defs>
  <g id="Capa_1" data-name="Capa 1">
    <g>
      <path class="cls-1" d="M59.05,98.8V16.39C59.05,7.34,51.71,0,42.66,0s-16.39,7.34-16.39,16.39v82.41C10.85,105.22,0,120.44,0,138.2c0,23.56,19.1,42.66,42.66,42.66s42.66-19.1,42.66-42.66c0-17.75-10.85-32.97-26.27-39.4Z"/>
      <path class="cls-2" d="M55.94,97.64V16.3c0-7.33-5.95-13.28-13.28-13.28s-13.28,5.95-13.28,13.28v84.57c-15.35,5.46-26.34,20.11-26.34,37.33,0,21.88,17.74,39.62,39.62,39.62s39.62-17.74,39.62-39.62c0-17.22-10.99-31.87-26.34-37.33v-3.22ZM32.11,18.93h10.55c.54,0,.98.44.98.98s-.44.98-.98.98h-10.55c-.54,0-.98-.44-.98-.98s.44-.98.98-.98ZM32.11,31.6h10.55c.54,0,.98.44.98.98s-.44.98-.98.98h-10.55c-.54,0-.98-.44-.98-.98s.44-.98.98-.98ZM75.63,138.2c0,18.2-14.76,32.96-32.96,32.96s-32.96-14.76-32.96-32.96c0-13.48,8.09-25.06,19.68-30.17.89-.39,1.8-.74,2.73-1.06v-35.38c-.54,0-.98-.44-.98-.98s.44-.98.98-.98v-10.71c-.54,0-.98-.44-.98-.98s.44-.98.98-.98v-10.71c-.54,0-.98-.44-.98-.98s.44-.98.98-.98v-3.61h21.11v66.3c.93.31,1.84.67,2.73,1.06,11.59,5.11,19.68,16.69,19.68,30.17Z"/>
      <path class="cls-4" d="M53.21,106.97V40.67h-21.11v3.61h10.55c.54,0,.98.44.98.98s-.44.98-.98.98h-10.55v10.71h10.55c.54,0,.98.44.98.98s-.44.98-.98.98h-10.55v10.71h10.55c.54,0,.98.44.98.98s-.44.98-.98.98h-10.55v35.38c-.93.31-1.84.67-2.73,1.06-11.59,5.11-19.68,16.69-19.68,30.17,0,18.2,14.76,32.96,32.96,32.96s32.96-14.76,32.96-32.96c0-13.48-8.09-25.06-19.68-30.17-.89-.39-1.8-.74-2.73-1.06Z"/>
      <path class="cls-3" d="M43.64,70.61c0-.54-.44-.98-.98-.98h-10.55c-.54,0-.98.44-.98.98s.44.98.98.98h10.55c.54,0,.98-.44.98-.98Z"/>
      <path class="cls-3" d="M43.64,57.93c0-.54-.44-.98-.98-.98h-10.55c-.54,0-.98.44-.98.98s.44.98.98.98h10.55c.54,0,.98-.44.98-.98Z"/>
      <path class="cls-3" d="M43.64,45.26c0-.54-.44-.98-.98-.98h-10.55c-.54,0-.98.44-.98.98s.44.98.98.98h10.55c.54,0,.98-.44.98-.98Z"/>
      <path class="cls-3" d="M32.11,33.57h10.55c.54,0,.98-.44.98-.98s-.44-.98-.98-.98h-10.55c-.54,0-.98.44-.98.98s.44.98.98.98Z"/>
      <path class="cls-3" d="M32.11,20.89h10.55c.54,0,.98-.44.98-.98s-.44-.98-.98-.98h-10.55c-.54,0-.98.44-.98.98s.44.98.98.98Z"/>
    </g>
  </g>
</svg>