<?xml version="1.0" encoding="UTF-8"?>
<svg id="Layer_2" data-name="Layer 2" xmlns="http://www.w3.org/2000/svg" viewBox="0 0 177.97 180.86">
  <defs>
    <style>
      .cls-1 {
        fill: #796aad;
      }

      .cls-1, .cls-2, .cls-3, .cls-4, .cls-5, .cls-6, .cls-7, .cls-8, .cls-9 {
        stroke-width: 0px;
      }

      .cls-2 {
        fill: #abadae;
      }

      .cls-3 {
        fill: #999b9c;
      }

      .cls-4 {
        fill: #b9babc;
      }

      .cls-5 {
        fill: #655d94;
      }

      .cls-6 {
        fill: #8dd3f6;
      }

      .cls-7 {
        fill: #71cbf4;
      }

      .cls-8 {
        fill: #3abff0;
      }

      .cls-9 {
        fill: #7060a6;
      }
    </style>
  </defs>
  <g id="Capa_1" data-name="Capa 1">
    <g>
      <path class="cls-4" d="M177.84,164.97v-31.99c-.46,1.83-2.18,3.56-4.94,5.15,2.72-1.58,4.42-3.3,4.88-5.11.08-.33.13-.66.13-.99h0c0-7.71-22.46-14.06-51.24-14.82l-4.09-8.63c2.14-.17,3.78-1.08,3.78-2.17V27.46c0-15.14-12.32-27.46-27.46-27.46h-55.66C28.1,0,15.78,12.32,15.78,27.46v15.59c-9.04.76-15.78,3.76-15.78,7.35,0,.08.02.17.02.25h0s.01.07.02.11c0,.07.02.14.03.22.03.14.07.28.12.42,0,0,0,0,0,0,.04.12.1.24.15.36,0,0,0,0,0,0,.06.12.12.24.2.35,0,0,0,0,0,0,.07.12.15.23.24.34,0,0,0,0,0,.01.09.11.18.22.28.33,0,0,.01.01.02.02.1.11.2.21.32.32,0,0,.02.01.02.02.11.1.23.21.35.31.01,0,.02.02.03.03.12.1.25.2.38.29.01.01.03.02.05.03.13.09.27.19.41.28.02.01.04.03.06.04.14.09.28.18.43.27.02.01.05.03.07.04.15.08.3.17.45.25.03.02.06.03.09.05.15.08.31.16.47.24.04.02.07.03.11.05.16.08.32.15.49.22.04.02.09.04.13.06.07.03.14.06.22.09v107.51c0,8.36,6.78,15.14,15.14,15.14s15.14-6.78,15.14-15.14V55.42c.07-.03.14-.06.22-.09.04-.02.09-.04.13-.06.17-.07.33-.15.49-.22.04-.02.07-.03.11-.05.16-.08.32-.16.48-.24.03-.01.06-.03.09-.05.16-.08.31-.17.46-.25.02-.01.05-.03.07-.04.15-.09.29-.18.43-.27.02-.01.04-.02.06-.04.14-.09.28-.19.41-.28.01-.01.03-.02.04-.03.13-.1.26-.2.38-.29.01,0,.02-.02.03-.03.12-.1.24-.2.35-.31,0,0,.02-.01.02-.02.11-.11.22-.21.32-.32,0,0,.01-.01.01-.02.1-.11.19-.22.28-.33,0,0,0,0,0-.01.09-.11.17-.23.24-.34,0,0,0,0,0,0,.07-.12.14-.24.2-.35,0,0,0,0,0,0,.06-.12.11-.24.15-.36,0,0,0,0,0,0,.05-.14.09-.28.12-.42.02-.07.02-.14.03-.22,0-.04.01-.07.02-.11h0c0-.08.02-.17.02-.25,0-3.59-6.75-6.59-15.78-7.35v-15.59c0-10.14,8.25-18.4,18.4-18.4h55.66c10.14,0,18.39,8.25,18.39,18.4v78.95c0,1.14,1.77,2.07,4.04,2.19l-4.06,8.56c-29.87.48-53.54,6.95-53.54,14.87h0c0,.24.02.47.06.7v32.99h0s0,.08,0,.12c0,.04,0,.08,0,.12h0c0,8.23,25.56,14.9,57.08,14.9s54.99-6.14,56.95-13.9c.08-.33.13-.66.13-.99h0c0-.33-.05-.67-.13-.99Z"/>
      <path class="cls-3" d="M177.84,165.72h0c0,8.23-25.53,14.9-57.02,14.9s-56.76-6.6-57.01-14.77c0,.04,0,.08,0,.12h0c0,8.23,25.56,14.9,57.08,14.9s54.99-6.14,56.95-13.9c.08-.33.13-.66.13-.99h0c0-.33-.05-.67-.13-.99v.75Z"/>
      <path class="cls-3" d="M120.82,176.41c30.26,0,54.79-5.16,54.79-11.53h0v-3.16c-7-6.16-28.85-10.65-54.73-10.65s-48,4.55-54.86,10.77v3.05h0c0,6.37,24.53,11.53,54.79,11.53ZM120.89,156.3c16.82,0,30.46,2.98,30.46,6.66s-13.64,6.66-30.46,6.66-30.46-2.98-30.46-6.66,13.64-6.66,30.46-6.66Z"/>
      <path class="cls-1" d="M120.89,169.61c16.82,0,30.46-2.98,30.46-6.66s-13.64-6.66-30.46-6.66-30.46,2.98-30.46,6.66,13.64,6.66,30.46,6.66ZM133.72,162.14c5.13,0,9.29.91,9.29,2.03s-4.16,2.03-9.29,2.03-9.29-.91-9.29-2.03,4.16-2.03,9.29-2.03ZM105.21,159.72c4.09,0,7.41.73,7.41,1.62s-3.32,1.62-7.41,1.62-7.41-.73-7.41-1.62,3.32-1.62,7.41-1.62Z"/>
      <path class="cls-9" d="M105.21,162.96c4.09,0,7.41-.73,7.41-1.62s-3.32-1.62-7.41-1.62-7.41.73-7.41,1.62,3.32,1.62,7.41,1.62Z"/>
      <path class="cls-5" d="M133.72,166.2c5.13,0,9.29-.91,9.29-2.03s-4.16-2.03-9.29-2.03-9.29.91-9.29,2.03,4.16,2.03,9.29,2.03Z"/>
      <path class="cls-2" d="M120.82,180.61c31.49,0,57.01-6.67,57.02-14.89h0v-32.74c-.46,1.83-2.18,3.56-4.94,5.15-8.94,5.18-28.89,8.79-52.07,8.79-30.63,0-55.62-6.29-57.02-14.2v32.99h0s0,.08,0,.12c.25,8.17,25.68,14.77,57.01,14.77ZM66.03,164.88v-26.11c0,6.37,24.56,11.53,54.86,11.53s52.85-4.75,54.73-10.76v25.34h0c0,6.37-24.53,11.53-54.79,11.53s-54.79-5.16-54.79-11.53h0Z"/>
      <path class="cls-2" d="M130.49,127.35c0,1.76-.49,3.4-1.33,4.78,14.79.51,27.35,2.38,34.58,4.95,4.21-1.5,6.62-3.24,6.62-5.1h0c0-5.07-17.95-9.27-41.47-10.06l.46.98c.72,1.31,1.13,2.82,1.13,4.44Z"/>
      <path class="cls-2" d="M113.42,127.35c0-1.62.41-3.13,1.13-4.44l.5-1.04c-24.57.6-43.64,4.9-43.64,10.12h0c0,1.86,2.41,3.6,6.62,5.1,7.58-2.7,21-4.61,36.69-5.02-.82-1.37-1.3-2.98-1.3-4.72Z"/>
      <path class="cls-3" d="M122.02,136.3h-.13c-3.03-.04-5.68-1.73-7.17-4.24-15.7.4-29.11,2.32-36.69,5.02,8.56,3.05,24.54,5.1,42.86,5.1s34.3-2.05,42.86-5.1c-7.24-2.58-19.8-4.44-34.58-4.95-1.5,2.47-4.13,4.13-7.14,4.18Z"/>
      <path class="cls-7" d="M32.06,56.55c-.17.05-.35.09-.53.14-.09.02-.19.05-.28.07-.17.04-.35.08-.53.12-.1.02-.21.05-.32.07-.17.04-.35.07-.52.11-.11.02-.23.04-.35.07-.17.03-.34.07-.52.1-.12.02-.25.04-.38.06-.17.03-.34.06-.51.08-.14.02-.27.04-.41.06-.17.02-.33.05-.5.07-.14.02-.29.04-.43.05-.17.02-.33.04-.5.06-.15.02-.31.03-.46.05-.16.02-.33.04-.49.05-.16.02-.33.03-.49.04h0v16.26c0,1.22-2.03,2.2-4.53,2.2s-4.53-.99-4.53-2.2v-16.26c-.16-.01-.33-.03-.49-.04-.16-.02-.33-.03-.49-.05-.16-.02-.31-.03-.47-.05-.17-.02-.33-.04-.49-.06-.15-.02-.29-.04-.44-.06-.17-.02-.33-.05-.5-.07-.14-.02-.28-.04-.42-.06-.17-.03-.34-.05-.5-.08-.13-.02-.26-.04-.38-.06-.17-.03-.34-.06-.51-.09-.12-.02-.24-.04-.35-.07-.17-.03-.34-.07-.52-.11-.11-.02-.22-.05-.32-.07-.18-.04-.35-.08-.52-.12-.1-.02-.19-.05-.29-.07-.18-.04-.35-.09-.52-.13-.09-.02-.18-.05-.26-.07-.09-.02-.17-.05-.26-.07v106.61c0,6.78,5.49,12.27,12.27,12.27s12.27-5.49,12.27-12.27V56.41c-.09.02-.17.05-.26.07-.08.02-.17.04-.26.07ZM30.45,161.7c0,5.52-4.47,9.99-9.99,9.99h-.29c-5.52,0-9.99-4.47-9.99-9.99v-72.46c0-2.19,4.54-3.96,10.13-3.96s10.13,1.77,10.13,3.96v72.46Z"/>
      <path class="cls-1" d="M20.31,93.2c-5.6,0-10.13-1.77-10.13-3.96v72.46c0,5.52,4.47,9.99,9.99,9.99h.29c5.52,0,9.99-4.47,9.99-9.99v-72.46c0,2.19-4.54,3.96-10.13,3.96Z"/>
      <path class="cls-6" d="M36.25,50.4c0,.08-.01.17-.03.25-.16.67-.94,1.29-2.2,1.84,0,0,0,0-.01,0-.11.05-.23.1-.35.15-.02,0-.03.01-.05.02-.12.04-.24.09-.36.13-.02,0-.05.02-.07.03-.12.04-.24.08-.36.12-.03.01-.06.02-.1.03-.12.04-.24.07-.36.11-.04.01-.08.02-.12.04-.09.03-.19.05-.29.08-.01,0-.02,0-.04.01-.02,0-.03,0-.05.01-.05.01-.09.03-.14.04-.09.02-.19.05-.29.07-.02,0-.05.01-.07.02,0,0-.02,0-.02,0-.05.01-.1.03-.16.04-.12.03-.25.06-.38.09,0,0,0,0-.01,0t0,0c-.06.01-.11.03-.17.04-.13.03-.26.06-.4.08-.01,0-.02,0-.03,0,0,0-.02,0-.03,0-.04,0-.08.02-.12.02-.13.03-.27.05-.41.08-.02,0-.05,0-.07.01-.02,0-.03,0-.05,0-.03,0-.05,0-.08.01-.14.02-.28.05-.42.07-.03,0-.07.01-.1.02-.02,0-.04,0-.07.01-.01,0-.02,0-.03,0-.14.02-.29.05-.43.07-.05,0-.09.01-.14.02-.01,0-.02,0-.03,0-.03,0-.07,0-.1.01-.13.02-.25.04-.38.05-.06,0-.11.01-.17.02,0,0-.01,0-.02,0-.07,0-.13.02-.2.03-.09.01-.19.02-.28.04-.07,0-.13.02-.2.02,0,0,0,0,0,0-.09.01-.18.02-.26.03-.07,0-.15.02-.22.02-.07,0-.14.01-.21.02,0,0,0,0-.01,0-.1.01-.21.02-.31.03-.06,0-.12.01-.18.02-.07,0-.14.01-.21.02-.01,0-.02,0-.03,0-.12,0-.23.02-.35.03-.05,0-.09,0-.14.01-.03,0-.05,0-.08,0h0c-1.44.11-2.96.17-4.53.17s-3.09-.06-4.53-.17h0s-.05,0-.08,0c-.05,0-.1,0-.14-.01-.11,0-.23-.02-.34-.03-.01,0-.02,0-.03,0-.07,0-.14-.01-.21-.02-.06,0-.12-.01-.18-.02-.1,0-.2-.02-.31-.03,0,0,0,0,0,0-.07,0-.14-.01-.22-.02-.08,0-.15-.02-.23-.03-.09,0-.17-.02-.26-.03,0,0,0,0-.01,0-.07,0-.14-.02-.2-.02-.1-.01-.19-.02-.29-.04-.06,0-.13-.02-.19-.02,0,0-.01,0-.02,0-.06,0-.12-.01-.17-.02-.13-.02-.26-.04-.39-.06-.03,0-.06,0-.09-.01-.01,0-.02,0-.03,0-.05,0-.09-.01-.14-.02-.14-.02-.29-.04-.43-.07-.01,0-.02,0-.04,0-.02,0-.04,0-.07-.01-.04,0-.07-.01-.11-.02-.14-.02-.28-.05-.41-.07-.03,0-.06-.01-.08-.02-.01,0-.03,0-.04,0-.02,0-.05,0-.07-.01-.14-.03-.27-.05-.4-.08-.04,0-.08-.02-.13-.03,0,0,0,0-.01,0,0,0,0,0-.01,0-.01,0-.02,0-.03,0-.13-.03-.27-.06-.4-.08-.06-.01-.11-.03-.17-.04,0,0,0,0,0,0,0,0,0,0,0,0-.13-.03-.26-.06-.38-.09-.05-.01-.11-.03-.16-.04,0,0-.02,0-.02,0-.02,0-.04-.01-.07-.02-.1-.02-.19-.05-.29-.07-.05-.01-.09-.03-.14-.04-.02,0-.03,0-.05-.01-.01,0-.02,0-.04,0-.1-.03-.19-.05-.28-.08-.04-.01-.08-.02-.13-.04-.12-.04-.24-.07-.36-.11-.03-.01-.07-.02-.1-.03-.12-.04-.24-.08-.36-.12-.03,0-.05-.02-.08-.03-.12-.04-.24-.09-.35-.13-.02,0-.03-.01-.05-.02-.12-.05-.24-.1-.35-.14,0,0,0,0-.01,0-1.26-.54-2.04-1.17-2.19-1.84-.02-.08-.03-.17-.03-.25,0-1.86,4.81-3.43,11.41-3.93v-3.42c-9.04.76-15.78,3.76-15.78,7.35,0,.08.02.17.02.25h0s.01.07.02.11c0,.07.02.14.03.22.03.14.07.28.12.42,0,0,0,0,0,0,.04.12.1.24.15.36,0,0,0,0,0,0,.06.12.12.24.2.35,0,0,0,0,0,0,.07.12.15.23.24.34,0,0,0,0,0,.01.09.11.18.22.28.33,0,0,.01.01.02.02.1.11.2.21.32.32,0,0,.02.01.02.02.11.1.23.21.35.31.01,0,.02.02.03.03.12.1.25.2.38.29.01.01.03.02.05.03.13.09.27.19.41.28.02.01.04.03.06.04.14.09.28.18.43.27.02.01.05.03.07.04.15.08.3.17.45.25.03.02.06.03.09.05.15.08.31.16.47.24.04.02.07.03.11.05.16.08.32.15.49.22.04.02.09.04.13.06.07.03.14.06.22.09v107.51c0,8.36,6.78,15.14,15.14,15.14s15.14-6.78,15.14-15.14V55.42c.07-.03.14-.06.22-.09.04-.02.09-.04.13-.06.17-.07.33-.15.49-.22.04-.02.07-.03.11-.05.16-.08.32-.16.48-.24.03-.01.06-.03.09-.05.16-.08.31-.17.46-.25.02-.01.05-.03.07-.04.15-.09.29-.18.43-.27.02-.01.04-.02.06-.04.14-.09.28-.19.41-.28.01-.01.03-.02.04-.03.13-.1.26-.2.38-.29.01,0,.02-.02.03-.03.12-.1.24-.2.35-.31,0,0,.02-.01.02-.02.11-.11.22-.21.32-.32,0,0,.01-.01.01-.02.1-.11.19-.22.28-.33,0,0,0,0,0-.01.09-.11.17-.23.24-.34,0,0,0,0,0,0,.07-.12.14-.24.2-.35,0,0,0,0,0,0,.06-.12.11-.24.15-.36,0,0,0,0,0,0,.05-.14.09-.28.12-.42.02-.07.02-.14.03-.22,0-.04.01-.07.02-.11h0c0-.08.02-.17.02-.25,0-3.59-6.75-6.59-15.78-7.35v3.42c6.59.5,11.41,2.07,11.41,3.93ZM32.58,163.02c0,6.78-5.49,12.27-12.27,12.27s-12.27-5.49-12.27-12.27V56.41c.09.02.17.05.26.07.09.02.18.05.26.07.17.05.35.09.52.13.1.02.19.05.29.07.17.04.35.08.52.12.11.02.22.05.32.07.17.04.34.07.52.11.12.02.23.04.35.07.17.03.34.06.51.09.13.02.26.04.38.06.17.03.33.06.5.08.14.02.28.04.42.06.16.02.33.05.5.07.15.02.29.04.44.06.16.02.33.04.49.06.15.02.31.03.47.05.16.02.32.03.49.05.16.02.33.03.49.04,1.46.12,2.97.19,4.53.19s3.07-.07,4.53-.19h0c.16-.01.33-.03.49-.04.17-.02.33-.03.49-.05.15-.02.31-.03.46-.05.17-.02.33-.04.5-.06.14-.02.29-.04.43-.05.17-.02.33-.05.5-.07.14-.02.27-.04.41-.06.17-.03.34-.06.51-.08.13-.02.25-.04.38-.06.17-.03.35-.06.52-.1.12-.02.23-.04.35-.07.18-.03.35-.07.52-.11.11-.02.21-.04.32-.07.18-.04.35-.08.53-.12.09-.02.19-.04.28-.07.18-.04.35-.09.53-.14.09-.02.17-.05.26-.07.09-.02.17-.05.26-.07v106.61Z"/>
      <path class="cls-7" d="M4.38,50.4c0,.08.01.17.03.25.16.67.94,1.29,2.19,1.84,0,0,0,0,.01,0,.11.05.23.1.35.14.02,0,.03.01.05.02.11.04.23.09.35.13.03,0,.05.02.08.03.12.04.24.08.36.12.03.01.07.02.1.03.12.04.24.07.36.11.04.01.08.02.13.04.09.03.19.05.28.08,1.15-1.15,3.77-2.06,7.1-2.51v-4.22c-6.59.5-11.41,2.07-11.41,3.93Z"/>
      <path class="cls-7" d="M32.24,53.12s.08-.02.12-.04c.12-.04.25-.07.36-.11.03-.01.06-.02.1-.03.12-.04.24-.08.36-.12.02,0,.05-.02.07-.03.12-.04.24-.09.36-.13.02,0,.03-.01.05-.02.12-.05.24-.1.35-.15,0,0,0,0,.01,0,1.26-.54,2.04-1.17,2.2-1.84.02-.08.03-.17.03-.25,0-1.86-4.81-3.43-11.41-3.93v4.22c3.34.44,5.96,1.36,7.1,2.51.1-.03.19-.05.29-.08Z"/>
      <path class="cls-7" d="M14.26,54.19c.07,0,.14.01.22.02,0,0,0,0,0,0-.15-.01-.3-.03-.45-.05.08,0,.15.02.23.03Z"/>
      <path class="cls-7" d="M27.06,54.11c.09-.01.19-.02.28-.04-.16.02-.32.04-.48.06.07,0,.13-.02.2-.02Z"/>
      <path class="cls-7" d="M25.44,54.28c.07,0,.14-.01.21-.02.06,0,.12-.01.18-.02-.14.01-.28.03-.42.04,0,0,.02,0,.03,0Z"/>
      <path class="cls-7" d="M9.28,53.35c.05.01.11.03.16.04.12.03.25.06.38.09-.19-.04-.38-.09-.56-.13,0,0,.02,0,.02,0Z"/>
      <path class="cls-7" d="M8.76,53.22s.09.03.14.04c.09.03.19.05.29.07-.16-.04-.32-.08-.48-.12.02,0,.03,0,.05.01Z"/>
      <path class="cls-7" d="M10,53.52c.13.03.26.06.4.08.01,0,.02,0,.03,0-.2-.04-.4-.08-.6-.13.06.01.11.03.17.04Z"/>
      <path class="cls-7" d="M26.15,54.21c.07,0,.14-.01.21-.02.08,0,.15-.02.22-.02-.15.02-.3.03-.44.05,0,0,0,0,.01,0Z"/>
      <path class="cls-7" d="M15.7,54.32s.05,0,.08,0h0c-.07,0-.15-.01-.22-.02.05,0,.09,0,.14.01Z"/>
      <path class="cls-7" d="M30.23,53.61c.13-.03.27-.06.4-.08.06-.01.11-.03.17-.04-.2.04-.39.09-.6.13.01,0,.02,0,.03,0Z"/>
      <path class="cls-7" d="M14.97,54.26c.07,0,.14.01.21.02,0,0,.02,0,.03,0-.14-.01-.28-.03-.42-.04.06,0,.12.01.18.02Z"/>
      <path class="cls-7" d="M25.07,54.31c-.07,0-.15.01-.22.02h0s.05,0,.08,0c.05,0,.09,0,.14-.01Z"/>
      <path class="cls-7" d="M29.64,53.72c.14-.03.27-.05.41-.08.04,0,.08-.02.12-.02-.2.04-.4.08-.6.12.02,0,.05,0,.07-.01Z"/>
      <path class="cls-7" d="M29.03,53.83c.14-.02.28-.05.42-.07.03,0,.05-.01.08-.01-.2.04-.4.07-.6.1.03,0,.07-.01.1-.02Z"/>
      <path class="cls-7" d="M28.39,53.93c.15-.02.29-.04.43-.07.01,0,.02,0,.03,0-.2.03-.4.06-.6.09.05,0,.09-.01.14-.02Z"/>
      <path class="cls-7" d="M10.58,53.64c.13.03.27.05.4.08.02,0,.05,0,.07.01-.2-.04-.41-.08-.6-.12.04,0,.08.02.13.03Z"/>
      <path class="cls-7" d="M27.73,54.03c.13-.02.26-.04.38-.05-.18.03-.37.05-.55.08.06,0,.11-.01.17-.02Z"/>
      <path class="cls-7" d="M31.73,53.26s.09-.03.14-.04c.02,0,.03,0,.05-.01-.15.04-.31.08-.47.12.1-.02.19-.05.29-.07Z"/>
      <path class="cls-7" d="M31.19,53.39c.05-.01.1-.03.16-.04,0,0,.02,0,.02,0-.18.05-.37.09-.56.13.13-.03.25-.06.38-.09Z"/>
      <path class="cls-7" d="M12.89,54.03c.06,0,.11.01.17.02-.19-.03-.38-.05-.56-.08.13.02.26.04.39.06Z"/>
      <path class="cls-7" d="M11.81,53.86c.14.02.28.05.43.07.05,0,.09.01.14.02-.2-.03-.41-.06-.6-.09.01,0,.02,0,.04,0Z"/>
      <path class="cls-7" d="M11.19,53.76c.14.02.27.05.41.07.04,0,.07.01.11.02-.2-.03-.41-.07-.61-.11.03,0,.06.01.08.02Z"/>
      <path class="cls-7" d="M13.57,54.11c.07,0,.14.02.2.02-.16-.02-.33-.04-.49-.06.1.01.19.02.29.04Z"/>
      <path class="cls-8" d="M8.71,53.21c.16.04.31.08.48.12.02,0,.04.01.07.02.18.05.37.09.56.13,0,0,0,0,0,0,0,0,0,0,0,0,.2.04.39.09.6.13,0,0,0,0,.01,0,0,0,0,0,.01,0,.2.04.4.08.6.12.01,0,.03,0,.04,0,.2.04.4.07.61.11.02,0,.04,0,.07.01.2.03.4.06.6.09.01,0,.02,0,.03,0,.03,0,.06,0,.09.01.18.03.37.05.56.08,0,0,.01,0,.02,0,.06,0,.13.02.19.02.16.02.33.04.49.06,0,0,0,0,.01,0,.08.01.17.02.26.03.15.02.3.03.45.05.1.01.2.02.31.03.14.01.28.03.42.04.11,0,.23.02.34.03.07,0,.15.01.22.02v-3.64c-3.34.44-5.96,1.36-7.1,2.51.01,0,.02,0,.04,0Z"/>
      <path class="cls-8" d="M25.41,54.28c.14-.01.28-.03.42-.04.1,0,.21-.02.31-.03.15-.01.3-.03.44-.05.09,0,.18-.02.26-.03,0,0,0,0,0,0,.16-.02.32-.04.48-.06.07,0,.14-.02.2-.03,0,0,.01,0,.02,0,.19-.02.37-.05.55-.08.03,0,.07,0,.1-.01.01,0,.02,0,.03,0,.2-.03.41-.06.6-.09.02,0,.04,0,.07-.01.2-.03.41-.07.6-.1.02,0,.03,0,.05,0,.2-.04.4-.08.6-.12,0,0,.02,0,.03,0,.2-.04.4-.08.6-.13t0,0s0,0,.01,0c.19-.04.38-.09.56-.13.02,0,.05-.01.07-.02.16-.04.32-.08.47-.12.01,0,.02,0,.04-.01-1.15-1.15-3.77-2.06-7.1-2.51v3.64c.07,0,.15-.01.22-.02.12,0,.23-.02.35-.03Z"/>
      <path class="cls-5" d="M20.31,85.28c-5.6,0-10.13,1.77-10.13,3.96s4.54,3.96,10.13,3.96,10.13-1.77,10.13-3.96-4.54-3.96-10.13-3.96Z"/>
      <path class="cls-4" d="M20.31,71.8c2.5,0,4.53.99,4.53,2.2v-16.26c-1.46.12-2.97.19-4.53.19s-3.07-.07-4.53-.19v16.26c0-1.22,2.03-2.2,4.53-2.2Z"/>
      <path class="cls-2" d="M20.31,71.8c-2.5,0-4.53.99-4.53,2.2s2.03,2.2,4.53,2.2,4.53-.99,4.53-2.2-2.03-2.2-4.53-2.2Z"/>
      <path class="cls-2" d="M122.57,108.57c2.14-.17,3.78-1.08,3.78-2.17,0-1.22-2.03-2.2-4.53-2.2s-4.53.99-4.53,2.2c0,1.14,1.77,2.07,4.04,2.19l.62-1.32.61,1.3Z"/>
      <path class="cls-1" d="M114.55,122.91c-.72,1.31-1.13,2.82-1.13,4.44,0,1.73.48,3.35,1.3,4.72,1.5,2.51,4.14,4.19,7.17,4.24h.13c3.01-.04,5.63-1.7,7.14-4.18.84-1.38,1.33-3.02,1.33-4.78,0-1.62-.41-3.13-1.13-4.44l-.46-.98-2.24-4.72-4.09-8.63-.61-1.3-.62,1.32-4.06,8.56-2.23,4.71-.5,1.04ZM121.41,112.7c.49-.36,1.61.32,2.5,1.53.9,1.21,1.23,2.48.74,2.84s-1.61-.32-2.5-1.53c-.9-1.2-1.23-2.48-.74-2.84ZM117.25,123.51c1.41-.62,3.54,1.11,4.76,3.86,1.22,2.76,1.06,5.5-.35,6.12-1.41.62-3.54-1.11-4.76-3.86-1.22-2.76-1.06-5.5.35-6.12Z"/>
      <path class="cls-5" d="M121.66,133.5c1.41-.62,1.57-3.36.35-6.12-1.22-2.76-3.35-4.48-4.76-3.86-1.41.62-1.57,3.36-.35,6.12,1.22,2.76,3.35,4.49,4.76,3.86Z"/>
      <path class="cls-9" d="M124.65,117.06c.49-.36.16-1.63-.74-2.84-.9-1.21-2.02-1.89-2.5-1.53-.49.36-.16,1.63.74,2.84.9,1.21,2.02,1.89,2.5,1.53Z"/>
    </g>
  </g>
</svg>