<?xml version="1.0" encoding="UTF-8"?>
<svg id="Layer_2" data-name="Layer 2" xmlns="http://www.w3.org/2000/svg" viewBox="0 0 114.29 180.86">
  <defs>
    <style>
      .cls-1 {
        fill: #6ba55f;
      }

      .cls-1, .cls-2, .cls-3, .cls-4, .cls-5 {
        stroke-width: 0px;
      }

      .cls-2 {
        fill: #86c276;
      }

      .cls-3 {
        fill: #8dd3f6;
      }

      .cls-4 {
        fill: #71cbf4;
      }

      .cls-5 {
        fill: #3abff0;
      }
    </style>
  </defs>
  <g id="Capa_1" data-name="Capa 1">
    <g>
      <path class="cls-3" d="M80.34,72.95V19.25c4.93-2.04,7.92-4.74,7.92-7.7,0-6.38-13.93-11.55-31.11-11.55s-31.11,5.17-31.11,11.55c0,2.96,3,5.65,7.92,7.7v53.7C13.95,82.18,0,102.97,0,127.15c0,16.97,6.87,32.27,17.89,43.08h.01c.23,5.88,17.71,10.62,39.25,10.62s39.02-4.75,39.25-10.62h.01c11.01-10.81,17.89-26.11,17.89-43.08,0-24.18-13.95-44.98-33.96-54.2Z"/>
      <path class="cls-4" d="M20.03,166.62s.01.01.02.02h.01c.22,5.27,16.74,9.53,37.09,9.53s36.87-4.26,37.09-9.53h.01s.01-.01.02-.02c10.4-9.69,16.89-23.41,16.89-38.62,0-21.19-12.59-39.49-30.81-48.03-1.43-.67-2.9-1.28-4.4-1.83V20.75c-5.22,1.47-11.73,2.35-18.79,2.35s-13.57-.87-18.79-2.35v57.39c-1.5.55-2.97,1.16-4.4,1.83C15.74,88.51,3.14,106.81,3.14,128c0,15.21,6.49,28.93,16.88,38.62ZM21.32,92.91c0-3.13,6.82-5.87,17.04-7.4,5.46-.82,11.9-1.29,18.79-1.29s13.33.47,18.79,1.29c10.22,1.53,17.04,4.27,17.04,7.4,9.02,8.97,14.59,21.3,14.59,34.92s-5.86,26.58-15.29,35.6c-.16.16-.33.32-.49.47h0c-.2,4.92-15.62,8.9-34.63,8.9s-34.42-3.97-34.63-8.9h0c-.17-.15-.33-.31-.49-.47-9.43-9.02-15.29-21.63-15.29-35.6s5.57-25.95,14.59-34.92Z"/>
      <path class="cls-4" d="M81.56,11.55c0-3.47-10.93-6.28-24.41-6.28s-24.41,2.81-24.41,6.28,10.93,6.28,24.41,6.28,24.41-2.81,24.41-6.28ZM57.15,11.27c8.3,0,15.33,1.8,17.82,4.29-4.45,1.22-10.79,1.99-17.82,1.99s-13.37-.77-17.82-1.99c2.49-2.49,9.53-4.29,17.82-4.29Z"/>
      <path class="cls-2" d="M22.02,163.43c.16.16.33.32.49.47h0c.2,4.92,15.62,8.9,34.63,8.9s34.42-3.97,34.63-8.9h0c.17-.15.33-.31.49-.47,9.43-9.02,15.29-21.63,15.29-35.6s-5.57-25.95-14.59-34.92c0,4.8-16.04,8.69-35.83,8.69s-35.83-3.89-35.83-8.69c-9.02,8.97-14.59,21.3-14.59,34.92s5.86,26.58,15.29,35.6Z"/>
      <path class="cls-1" d="M57.15,101.61c19.79,0,35.83-3.89,35.83-8.69,0-3.13-6.82-5.87-17.04-7.4-5.46-.82-11.9-1.29-18.79-1.29s-13.33.47-18.79,1.29c-10.22,1.53-17.04,4.27-17.04,7.4,0,4.8,16.04,8.69,35.83,8.69Z"/>
      <path class="cls-5" d="M74.97,15.55c-2.49-2.49-9.53-4.29-17.82-4.29s-15.33,1.8-17.82,4.29c4.45,1.22,10.79,1.99,17.82,1.99s13.37-.77,17.82-1.99Z"/>
    </g>
  </g>
</svg>