<?xml version="1.0" encoding="UTF-8"?>
<svg id="Layer_2" data-name="Layer 2" xmlns="http://www.w3.org/2000/svg" viewBox="0 0 173.94 180.86">
  <defs>
    <style>
      .cls-1 {
        fill: #318ece;
      }

      .cls-1, .cls-2, .cls-3, .cls-4, .cls-5, .cls-6 {
        stroke-width: 0px;
      }

      .cls-2 {
        fill: #2e82bb;
      }

      .cls-3 {
        fill: #b9babc;
      }

      .cls-4 {
        fill: #e25e5d;
      }

      .cls-5 {
        fill: #ea544f;
      }

      .cls-6 {
        fill: #ec6360;
      }
    </style>
  </defs>
  <g id="Capa_1" data-name="Capa 1">
    <g>
      <path class="cls-3" d="M157.93,85.85c-8-.86-15.33,3.67-18.38,10.67l-22.82-5.05c.08-.89.13-1.79.13-2.71,0-15.45-12.11-28.07-27.36-28.88-.19-8.79-.09-12-.47-24.5,7.41-1.73,13.17-8.08,13.8-16.06C103.61,9.46,96.23.83,86.35.06c-9.88-.77-18.51,6.6-19.28,16.48-.65,8.28,4.43,15.68,11.91,18.31.43,13.66.3,16.58.52,26.26-11.85,3.61-20.48,14.63-20.48,27.67,0,.77.04,1.53.1,2.28l-24.73,5.47c-3.05-7.01-10.38-11.54-18.38-10.67C6.16,86.92-.96,95.76.11,105.61c1.06,9.85,9.91,16.97,19.76,15.9,8.23-.89,14.55-7.21,15.79-15.02l25.97-5.74c3.52,7.73,10.35,13.64,18.68,15.91.33,12.33.14,14.45.58,28.79-7.41,1.73-13.17,8.08-13.8,16.07-.77,9.87,6.6,18.51,16.48,19.28,9.88.77,18.51-6.6,19.28-16.48.65-8.28-4.43-15.68-11.91-18.31-.46-14.62-.28-16.94-.57-28.42,10.51-.87,19.42-7.35,23.73-16.44l24.2,5.35c1.24,7.8,7.56,14.13,15.79,15.02,9.85,1.06,18.69-6.06,19.76-15.9,1.06-9.85-6.06-18.69-15.9-19.76Z"/>
      <path class="cls-1" d="M83.71,29.22c1.29-.06,2.38.23,3.23.61-1.12-1.85-.27-4.52,1.98-6.07,2.31-1.59,5.22-1.38,6.49.47s.42,4.64-1.89,6.22c-1.49,1.03-3.23,1.3-4.62.86.05,1.46.09,2.82.13,4.08,7.41-1.73,13.17-8.08,13.8-16.06C103.61,9.46,96.23.83,86.35.06c-9.88-.77-18.51,6.6-19.28,16.48-.65,8.28,4.43,15.68,11.91,18.31-.03-1.08-.07-2.22-.11-3.45.37-.38,2.08-2.05,4.84-2.18Z"/>
      <path class="cls-2" d="M93.52,30.46c2.31-1.59,3.16-4.37,1.89-6.22s-4.17-2.06-6.49-.47c-2.25,1.54-3.1,4.22-1.98,6.07,1.06.47,1.75,1.05,1.95,1.24,0,.09,0,.17,0,.25,1.39.43,3.12.16,4.62-.86Z"/>
      <path class="cls-1" d="M30.65,103.13c-.84-2.85.16-5.23.45-5.87l3.28-.72c-3.05-7.01-10.38-11.54-18.38-10.67C6.16,86.92-.96,95.76.11,105.61c1.06,9.85,9.91,16.97,19.76,15.9,8.23-.89,14.55-7.21,15.79-15.02l-2.48.55c-.6-.52-1.9-1.81-2.52-3.92ZM28.67,114.41c-1.98,1.99-4.87,2.32-6.46.73-1.59-1.58-1.27-4.48.71-6.46,1.98-1.99,4.87-2.32,6.46-.73,1.59,1.58,1.27,4.48-.71,6.46Z"/>
      <path class="cls-2" d="M22.92,108.68c-1.98,1.99-2.29,4.88-.71,6.46,1.59,1.58,4.48,1.25,6.46-.73,1.98-1.99,2.29-4.88.71-6.46-1.59-1.58-4.48-1.25-6.46.73Z"/>
      <path class="cls-1" d="M157.93,85.85c-8-.86-15.33,3.67-18.38,10.67l3.28.72c.29.64,1.29,3.02.45,5.87-.62,2.11-1.92,3.4-2.52,3.92l-2.48-.55c1.24,7.8,7.56,14.13,15.79,15.02,9.85,1.06,18.69-6.06,19.76-15.9,1.06-9.85-6.06-18.69-15.9-19.76ZM151.73,115.14c-1.59,1.58-4.48,1.25-6.46-.73-1.98-1.99-2.29-4.88-.71-6.46,1.59-1.58,4.48-1.25,6.46.73,1.98,1.99,2.3,4.88.71,6.46Z"/>
      <path class="cls-2" d="M144.56,107.94c-1.59,1.58-1.27,4.48.71,6.46,1.98,1.99,4.87,2.32,6.46.73,1.59-1.58,1.27-4.48-.71-6.46-1.98-1.99-4.87-2.32-6.46-.73Z"/>
      <path class="cls-6" d="M116.86,88.78c0-15.45-12.11-28.07-27.36-28.88-.52-.03-1.04-.04-1.57-.04-2.94,0-5.77.44-8.44,1.26-11.85,3.61-20.48,14.63-20.48,27.67,0,.77.04,1.53.1,2.28.27,3.44,1.14,6.7,2.5,9.7,3.52,7.73,10.35,13.64,18.68,15.91-.06-2.25-.14-4.83-.24-7.89.4-.37,2.51-2.23,5.63-2.06.59.03,1.14.14,1.63.28,1.58-2.86,4.4-6.13,8.06-9.09,7.16-5.79,14.8-8.2,17.07-5.38,2.27,2.81-1.68,9.78-8.84,15.57-4.82,3.9-9.86,6.26-13.34,6.53.03,1.06.06,2.04.08,2.97,10.51-.87,19.42-7.35,23.73-16.44,1.41-2.98,2.33-6.23,2.65-9.67.08-.89.13-1.79.13-2.71ZM80.82,79.91c-3.52,2.84-8.21,2.87-10.49.06-2.27-2.81-1.27-7.4,2.25-10.24,3.52-2.84,8.21-2.87,10.49-.06,2.27,2.81,1.27,7.4-2.25,10.24Z"/>
      <path class="cls-4" d="M72.59,69.72c-3.52,2.84-4.53,7.43-2.25,10.24,2.27,2.81,6.97,2.79,10.49-.06,3.52-2.84,4.53-7.43,2.25-10.24-2.27-2.81-6.97-2.79-10.49.06Z"/>
      <path class="cls-5" d="M90.27,114.62c3.47-.27,8.51-2.63,13.34-6.53,7.16-5.79,11.11-12.76,8.84-15.57-2.27-2.81-9.92-.4-17.07,5.38-3.66,2.96-6.48,6.23-8.06,9.09,1.4.4,2.36,1.12,2.77,1.45.08,2.31.14,4.35.19,6.17Z"/>
      <path class="cls-1" d="M86.19,151.63c-1.29.06-2.38-.23-3.23-.61,1.12,1.85.27,4.52-1.98,6.07-2.31,1.59-5.22,1.38-6.49-.47-1.27-1.85-.42-4.64,1.89-6.22,1.49-1.03,3.23-1.3,4.62-.86-.05-1.46-.09-2.82-.13-4.08-7.41,1.73-13.17,8.08-13.8,16.07-.77,9.87,6.6,18.51,16.48,19.28,9.88.77,18.51-6.6,19.28-16.48.65-8.28-4.43-15.68-11.91-18.31.03,1.08.07,2.22.11,3.45-.37.38-2.08,2.05-4.84,2.18Z"/>
      <path class="cls-2" d="M76.38,150.4c-2.31,1.59-3.16,4.37-1.89,6.22,1.27,1.85,4.17,2.06,6.49.47,2.25-1.54,3.1-4.22,1.98-6.07-1.06-.47-1.75-1.05-1.95-1.24,0-.09,0-.17,0-.25-1.39-.43-3.12-.16-4.62.86Z"/>
    </g>
  </g>
</svg>