<?xml version="1.0" encoding="UTF-8"?>
<svg id="Layer_2" data-name="Layer 2" xmlns="http://www.w3.org/2000/svg" viewBox="0 0 47.71 180.86">
  <defs>
    <style>
      .cls-1 {
        fill: #abadae;
      }

      .cls-1, .cls-2, .cls-3, .cls-4, .cls-5, .cls-6 {
        stroke-width: 0px;
      }

      .cls-2 {
        fill: #fcd377;
      }

      .cls-3 {
        fill: #8dd3f6;
      }

      .cls-4 {
        fill: #71cbf4;
      }

      .cls-5 {
        fill: #3abff0;
      }

      .cls-6 {
        fill: #eac06b;
      }
    </style>
  </defs>
  <g id="Capa_1" data-name="Capa 1">
    <g>
      <path class="cls-3" d="M39.32,24.18V4.81c0-2.66-6.92-4.81-15.46-4.81s-15.46,2.15-15.46,4.81v19.36C3.26,25.8,0,28.22,0,30.92c0,2.27,2.3,4.34,6.08,5.9v126.26c0,9.82,7.96,17.78,17.78,17.78h0c9.82,0,17.78-7.96,17.78-17.78V36.82c3.78-1.57,6.08-3.63,6.08-5.9,0-2.7-3.26-5.12-8.39-6.74Z"/>
      <path class="cls-4" d="M23.86,177.58h0c7.96,0,14.41-6.45,14.41-14.41V37.97c-4,1.13-8.99,1.8-14.41,1.8s-10.41-.67-14.41-1.8v125.2c0,7.96,6.45,14.41,14.41,14.41ZM11.72,56.26c2.2-.03,4.38-.05,6.54-.05s4.29.02,6.38.05c.54,0,.97.45.97,1,0,.54-.45.98-1,.97-2.08-.03-4.2-.05-6.35-.05s-4.32.02-6.51.05h0c-.54,0-.99-.43-1-.97,0-.54.43-.99.97-1ZM11.72,68.44c2.2-.03,4.38-.05,6.54-.05s4.29.02,6.38.05c.54,0,.97.45.97,1,0,.54-.45.97-1,.97-2.08-.03-4.2-.05-6.35-.05s-4.32.02-6.51.05h0c-.54,0-.99-.43-1-.97,0-.54.43-.99.97-1ZM11.74,131.33h0c-.54,0-.99-.43-1-.97,0-.54.43-.99.97-1,.08,0,.16,0,.24,0v-10.22c-.07,0-.14,0-.21,0h0c-.54,0-.99-.43-1-.97,0-.54.43-.99.97-1,.08,0,.16,0,.24,0v-10.22c-.07,0-.14,0-.21,0h0c-.54,0-.99-.43-1-.97,0-.54.43-.99.97-1,.08,0,.16,0,.24,0v-10.22c-.07,0-.14,0-.21,0h0c-.54,0-.99-.43-1-.97,0-.54.43-.99.97-1,.08,0,.16,0,.24,0v-10.22c-.07,0-.14,0-.21,0h0c-.54,0-.99-.43-1-.97,0-.54.43-.99.97-1,.08,0,.16,0,.24,0v-4.09c0-2.57,5.33-4.65,11.9-4.65s11.9,2.08,11.9,4.65v85.1c0,6.48-5.25,11.73-11.73,11.73h-.35c-6.48,0-11.73-5.25-11.73-11.73v-30.31c-.07,0-.14,0-.21,0Z"/>
      <path class="cls-2" d="M11.95,76.53v4.09c2.04-.03,4.06-.04,6.06-.04-3.62-.8-6.06-2.31-6.06-4.05Z"/>
      <path class="cls-2" d="M23.68,173.36h.35c6.48,0,11.73-5.25,11.73-11.73v-85.1c0,2.35-4.48,4.3-10.29,4.61.08.14.13.31.13.49,0,.54-.45.98-1,.97-2.08-.03-4.2-.05-6.35-.05s-4.18.01-6.3.04v10.22c2.12-.03,4.22-.04,6.3-.04s4.29.02,6.38.05c.54,0,.97.45.97,1,0,.54-.45.97-1,.97-2.08-.03-4.2-.05-6.35-.05s-4.18.02-6.3.04v10.22c2.12-.03,4.22-.04,6.3-.04s4.29.02,6.38.05c.54,0,.97.45.97,1,0,.54-.45.97-1,.97-2.08-.03-4.2-.05-6.35-.05s-4.18.02-6.3.04v10.22c2.12-.03,4.22-.04,6.3-.04s4.29.02,6.38.05c.54,0,.97.45.97,1,0,.54-.45.98-1,.97-2.08-.03-4.2-.05-6.35-.05s-4.18.02-6.3.04v10.22c2.12-.03,4.22-.04,6.3-.04s4.29.02,6.38.05c.54,0,.97.45.97,1,0,.54-.45.97-1,.97-2.08-.03-4.2-.05-6.35-.05s-4.18.02-6.3.04v30.31c0,6.48,5.25,11.73,11.73,11.73Z"/>
      <path class="cls-1" d="M23.86,35.73c8.54,0,15.46-2.16,15.46-4.81V4.81c0-2.66-6.92-4.81-15.46-4.81s-15.46,2.15-15.46,4.81v26.1c0,2.66,6.92,4.81,15.46,4.81Z"/>
      <path class="cls-6" d="M18.02,80.58c.08,0,.16,0,.24,0,2.16,0,4.29.02,6.38.05.36,0,.68.21.84.51,5.81-.31,10.29-2.25,10.29-4.61,0-2.57-5.33-4.65-11.9-4.65s-11.9,2.08-11.9,4.65c0,1.74,2.44,3.25,6.06,4.05Z"/>
      <path class="cls-5" d="M11.75,58.22h0c2.19-.03,4.36-.05,6.51-.05s4.27.02,6.35.05c.54,0,.99-.42,1-.97,0-.54-.42-.99-.97-1-2.09-.03-4.22-.05-6.38-.05s-4.34.02-6.54.05c-.54,0-.98.45-.97,1,0,.54.45.98,1,.97Z"/>
      <path class="cls-5" d="M11.75,70.41h0c2.19-.03,4.36-.05,6.51-.05s4.27.02,6.35.05c.54,0,.99-.43,1-.97,0-.54-.42-.99-.97-1-2.09-.03-4.22-.05-6.38-.05s-4.34.02-6.54.05c-.54,0-.98.45-.97,1,0,.54.45.98,1,.97Z"/>
      <path class="cls-5" d="M24.6,82.59c.54,0,.99-.42,1-.97,0-.18-.05-.34-.13-.49-.16-.3-.48-.5-.84-.51-2.09-.03-4.22-.05-6.38-.05-.08,0-.16,0-.24,0-2,0-4.03.02-6.06.04-.08,0-.16,0-.24,0-.54,0-.98.45-.97,1,0,.54.45.98,1,.97h0c.07,0,.14,0,.21,0,2.12-.03,4.22-.04,6.3-.04s4.27.02,6.35.05Z"/>
      <path class="cls-5" d="M24.6,94.77c.54,0,.99-.43,1-.97,0-.54-.42-.99-.97-1-2.09-.03-4.22-.05-6.38-.05s-4.18.02-6.3.04c-.08,0-.16,0-.24,0-.54,0-.98.45-.97,1,0,.54.45.98,1,.97h0c.07,0,.14,0,.21,0,2.12-.03,4.22-.04,6.3-.04s4.27.02,6.35.05Z"/>
      <path class="cls-5" d="M24.6,106.96c.54,0,.99-.42,1-.97,0-.54-.42-.99-.97-1-2.09-.03-4.22-.05-6.38-.05s-4.18.02-6.3.04c-.08,0-.16,0-.24,0-.54,0-.98.45-.97,1,0,.54.45.98,1,.97h0c.07,0,.14,0,.21,0,2.12-.03,4.22-.04,6.3-.04s4.27.02,6.35.05Z"/>
      <path class="cls-5" d="M24.6,119.14c.54,0,.99-.42,1-.97,0-.54-.42-.99-.97-1-2.09-.03-4.22-.05-6.38-.05s-4.18.02-6.3.04c-.08,0-.16,0-.24,0-.54,0-.98.45-.97,1,0,.54.45.98,1,.97h0c.07,0,.14,0,.21,0,2.12-.03,4.22-.04,6.3-.04s4.27.02,6.35.05Z"/>
      <path class="cls-5" d="M24.6,131.33c.54,0,.99-.43,1-.97,0-.54-.42-.99-.97-1-2.09-.03-4.22-.05-6.38-.05s-4.18.02-6.3.04c-.08,0-.16,0-.24,0-.54,0-.98.45-.97,1,0,.54.45.98,1,.97h0c.07,0,.14,0,.21,0,2.12-.03,4.22-.04,6.3-.04s4.27.02,6.35.05Z"/>
    </g>
  </g>
</svg>