<?xml version="1.0" encoding="UTF-8"?>
<svg id="Layer_2" data-name="Layer 2" xmlns="http://www.w3.org/2000/svg" viewBox="0 0 109.25 181.69">
  <defs>
    <style>
      .cls-1 {
        fill: #f9c03f;
      }

      .cls-1, .cls-2, .cls-3, .cls-4, .cls-5, .cls-6, .cls-7, .cls-8, .cls-9, .cls-10, .cls-11 {
        stroke-width: 0px;
      }

      .cls-2 {
        fill: #7c6daf;
      }

      .cls-3 {
        fill: #796aad;
      }

      .cls-4 {
        fill: #abadae;
      }

      .cls-5 {
        fill: #b9babc;
      }

      .cls-6 {
        fill: #fcd377;
      }

      .cls-7 {
        fill: #655d94;
      }

      .cls-8 {
        fill: #8dd3f6;
      }

      .cls-9 {
        fill: #71cbf4;
      }

      .cls-10 {
        fill: #3abff0;
      }

      .cls-11 {
        fill: #d8d8d8;
      }
    </style>
  </defs>
  <g id="Capa_1" data-name="Capa 1">
    <g>
      <g>
        <path class="cls-8" d="M69.87,24.92s.02.01.04.02c-.2.64-.13,1.32.19,1.88-.17.14-.32.31-.42.52-.25.49-.23,1.05,0,1.51-.06.07-.12.14-.16.22-.18.36-.13.78.1,1.08-.02.03-.04.05-.05.08-.18.36-.04.8.32.98.36.18.8.04.98-.31.08-.16.09-.33.06-.48.17-.09.31-.24.4-.42.04-.08.07-.17.09-.26.14-.02.27-.06.39-.11.15.25.37.46.65.6.82.42,1.82.1,2.24-.72.1-.19.15-.4.17-.6,1.15.52,2.53.08,3.31-1.01.18.15.38.28.59.39,1.69.87,3.76.2,4.62-1.49.68-1.33.41-2.9-.57-3.93.21-.26.39-.55.55-.86,1.35-2.63.31-5.86-2.32-7.21-2.22-1.14-4.85-.57-6.44,1.21-.25-.25-.54-.47-.87-.64-1.69-.87-3.76-.2-4.62,1.49-.6,1.17-.46,2.52.24,3.53-.27.23-.51.51-.68.85-.69,1.35-.16,3,1.19,3.69Z"/>
        <path class="cls-8" d="M108.81,163.4c-.14-.36-.31-.71-.51-1.04l-12.92-40.09c0-.11.02-.23.02-.35,0-3.14-3.49-4.6-4.64-5.07-1.38-.57-3.12-1.1-5.19-1.58-.03.08-.07.16-.1.24-.11-.03-.22-.05-.34-.08,1.57-3.77,2.45-7.91,2.45-12.25,0-12.99-7.78-24.16-18.93-29.12v-31.74c2.75-1.14,4.42-2.64,4.42-4.29,0-3.29-6.66-6.01-15.26-6.39.07-.46.06-.94-.07-1.41-.12-.46-.33-.87-.61-1.22.87-.98,1.33-2.29,1.2-3.65.02,0,.05,0,.07-.01,2.98-.79,4.75-3.84,3.96-6.82-.2-.74-.54-1.41-.98-1.98,1.84-1.7,2.7-4.33,2.01-6.92-.99-3.73-4.81-5.95-8.54-4.96-.73.19-1.4.5-2,.89-2.37-4.23-7.38-6.48-12.29-5.18-5.81,1.54-9.28,7.5-7.74,13.32.18.69.43,1.34.72,1.95-2.38,1.62-3.61,4.62-2.83,7.56.99,3.73,4.81,5.95,8.54,4.96.47-.13.92-.3,1.35-.51,1.08,2.5,3.63,3.97,6.14,3.45-.05.41-.02.84.09,1.26.01.04.03.09.04.13-5.09,1.12-8.5,3.18-8.5,5.54,0,1.65,1.67,3.15,4.42,4.29v31.74c-11.15,4.96-18.93,16.13-18.93,29.12,0,4.18.81,8.17,2.28,11.83-.18.04-.36.07-.54.11-.04-.08-.07-.16-.11-.24-2.89.58-5.25,1.24-7.01,1.97-1.15.48-4.64,1.93-4.64,5.07,0,.12.01.23.02.35L.94,162.36c-.26.43-.47.89-.63,1.38C.11,164.36,0,165.01,0,165.67c0,.06,0,.12,0,.18,0,.01,0,.03,0,.04.03.71.17,1.4.42,2.04.26.67.62,1.28,1.05,1.85.81,1.06,1.86,1.97,3.1,2.8,2.17,1.45,4.95,2.69,8.27,3.79,4.99,1.64,11.21,2.96,18.3,3.88,7.09.92,15.05,1.43,23.47,1.43,7.29,0,14.25-.39,20.59-1.08,4.76-.52,9.17-1.22,13.13-2.08,2.97-.64,5.69-1.36,8.12-2.17,3.64-1.21,6.62-2.58,8.86-4.23,1.12-.83,2.06-1.74,2.77-2.81.35-.53.64-1.11.84-1.72.18-.55.28-1.13.3-1.72h0c0-.07,0-.14,0-.21,0-.78-.16-1.56-.43-2.27ZM83.43,120c-.04.08-.08.16-.12.24,2.99.63,4.74,1.24,5.74,1.7-1.36.62-4.11,1.53-9.49,2.37,1.22-1.37,2.32-2.85,3.29-4.42.19.04.39.08.57.12ZM28.5,119.75c-.07-.07-.14-.15-.21-.22.02,0,.05,0,.07-.01,1.1,1.85,2.39,3.57,3.83,5.15-.72-.09-1.42-.19-2.1-.3-5.66-.86-8.51-1.81-9.91-2.44,1.26-.57,3.7-1.39,8.31-2.18ZM17.54,126.59c.38.18.71.32.94.42,2.1.87,5.04,1.65,8.73,2.3,3.68.65,7.97,1.15,12.62,1.49,4.68,2.7,10.1,4.25,15.89,4.25s11.49-1.63,16.25-4.46c3.67-.33,7.07-.75,10.06-1.28,3.69-.65,6.63-1.42,8.73-2.3.23-.1.56-.24.94-.42l9.8,30.39c-1.52-.73-3.23-1.4-5.11-2.02-4.98-1.64-11.21-2.96-18.3-3.88-6.04-.78-12.72-1.26-19.76-1.39-.09-.11-.19-.22-.27-.33-.66-.89-1.07-1.95-.81-2.93.14-.51.45-.96.83-1.35.37-.38.78-.66,1.22-.99-2.49.56-4.89,1.64-6.82,3.03-1.05.75-1.9,1.63-2.54,2.59-5.59.13-10.94.48-15.91,1.03-4.76.52-9.17,1.23-13.13,2.08-2.97.64-5.69,1.36-8.12,2.17-1.86.62-3.54,1.28-5.04,1.99l9.8-30.39ZM104.32,166.19c-.07.19-.2.42-.4.68-.37.5-1.02,1.1-1.95,1.72-1.62,1.09-4.05,2.21-7.1,3.21-4.58,1.51-10.54,2.79-17.41,3.67-6.86.89-14.63,1.39-22.85,1.39-7.12,0-13.91-.38-20.06-1.06-4.61-.51-8.87-1.19-12.65-2-2.83-.61-5.39-1.29-7.61-2.03-3.34-1.1-5.93-2.35-7.51-3.53-.79-.59-1.33-1.15-1.62-1.59-.15-.22-.24-.41-.29-.57-.02-.05-.03-.1-.04-.15l.48-1.48c.37-.49,1.02-1.1,1.94-1.71,1.62-1.09,4.05-2.21,7.1-3.21,4.58-1.51,10.54-2.79,17.41-3.67,5.15-.67,10.8-1.11,16.78-1.3,0,.03,0,.06,0,.09.04,1.25.39,2.53,1.02,3.7-4.05.64-6.75,1.81-6.75,3.14,0,.06,0,.11.02.16v8.14c0,2.03,6.29,3.67,14.05,3.67s14.05-1.64,14.05-3.67h0v-8.07c-.12.48-.59.93-1.35,1.34.75-.41,1.21-.86,1.33-1.33.02-.08.03-.16.03-.24h0c0-1.41-3.05-2.64-7.53-3.25.04-.68-.03-1.38-.24-2.05-.16-.53-.39-1.05-.66-1.55,4.25.17,8.33.48,12.16.9,4.61.51,8.87,1.19,12.65,2,2.83.61,5.39,1.29,7.61,2.03,3.34,1.1,5.93,2.35,7.51,3.53.68.5,1.16.98,1.47,1.39l.47,1.47c-.02.08-.04.15-.07.24Z"/>
      </g>
      <path class="cls-4" d="M81.05,14.79c-2.22-1.14-4.85-.57-6.44,1.21-.25-.25-.54-.47-.87-.64-1.69-.87-3.76-.2-4.62,1.49-.6,1.17-.46,2.52.24,3.53-.27.23-.5.51-.68.85-.69,1.35-.16,3,1.19,3.69.01,0,.02.01.04.02-.2.64-.13,1.32.19,1.88-.17.14-.32.31-.42.52-.25.49-.23,1.05,0,1.51-.06.07-.12.14-.16.22-.18.36-.13.78.1,1.08-.02.03-.04.05-.05.08-.18.36-.04.8.32.98.36.18.8.04.98-.31.08-.16.09-.33.06-.48.17-.09.31-.24.4-.42.04-.08.07-.17.09-.26.14-.02.27-.06.39-.11.15.25.37.46.65.6.82.42,1.82.1,2.24-.72.1-.19.15-.4.17-.6,1.15.52,2.53.08,3.31-1.01.18.15.38.28.59.39,1.69.87,3.76.2,4.62-1.49.68-1.33.41-2.9-.57-3.93.21-.26.39-.55.55-.86,1.35-2.63.31-5.86-2.32-7.21ZM77.22,20.14c-.22.42-.55.74-.94.94-.51.26-1.1.33-1.67.15.29.7.28,1.51-.09,2.24-.14.27-.32.51-.54.71-.42.4-.95.65-1.51.72.02.16,0,.33-.08.48-.21.41-.71.57-1.11.36-.41-.21-.57-.71-.36-1.11h0s0,0,0,0c-.23-.12-.44-.27-.62-.44-.84-.8-1.1-2.08-.54-3.16.32-.62.84-1.06,1.44-1.28,0,0,0,0,0,0-.07-.03-.14-.05-.21-.08-.99-.51-1.38-1.73-.87-2.72.51-.99,1.73-1.38,2.72-.87.55.28.91.79,1.04,1.35.4-.33.9-.49,1.41-.49.17,0,.35.02.52.06.05-.16.11-.33.19-.48.67-1.31,2.28-1.82,3.58-1.15,1.04.54,1.58,1.67,1.41,2.77.04.02.09.03.13.05.64.33.89,1.11.56,1.75-.33.64-1.11.89-1.75.56-.18-.09-.32-.22-.43-.36-.69.33-1.52.35-2.26,0,0,0,0,0,0,0ZM77.4,24.19c.07-.13.18-.22.3-.27.16-.07.35-.08.51,0,.3.15.42.52.26.82,0,.02-.03.03-.04.05-.17.26-.5.36-.78.22-.3-.15-.42-.52-.26-.82ZM81.8,26.75c-.46.9-1.56,1.25-2.46.79-.29-.15-.51-.37-.68-.62,0,0-.01,0-.02,0-.22.09-.47.09-.7-.02-.41-.21-.57-.71-.36-1.11.17-.32.52-.49.86-.44.03-.09.06-.19.11-.28,0-.01.01-.02.02-.03.47-.87,1.55-1.22,2.44-.76.9.46,1.25,1.56.79,2.46Z"/>
      <path class="cls-4" d="M72.8,19.66c.12.03.23.07.34.11-.03-.09-.05-.19-.06-.29-.09.07-.18.12-.28.17Z"/>
      <path class="cls-5" d="M79.48,20.12c-.3-.39-.37-.92-.13-1.39.31-.6,1.01-.85,1.62-.61.17-1.1-.37-2.23-1.41-2.77-1.31-.67-2.91-.16-3.58,1.15-.08.16-.14.32-.19.48-.17-.04-.35-.06-.52-.06-.51,0-1.01.17-1.41.49-.13-.56-.48-1.07-1.04-1.35-.99-.51-2.21-.12-2.72.87-.51.99-.12,2.21.87,2.72.07.04.14.06.21.08,0,0,0,0,0,0-.6.22-1.13.66-1.44,1.28-.56,1.08-.3,2.37.54,3.16.18.17.39.32.62.44,0,0,0,0,0,0h0c-.21.41-.05.9.36,1.11.41.21.9.05,1.11-.36.08-.16.1-.32.08-.48.56-.07,1.09-.32,1.51-.72.21-.2.39-.44.54-.71.37-.72.38-1.54.09-2.24.57.18,1.17.11,1.67-.15.39-.2.73-.52.94-.94,0,0,0,0,0,0,.74.35,1.57.32,2.26,0ZM72.8,19.66c.1-.05.19-.11.28-.17.02.1.03.19.06.29-.11-.05-.23-.09-.34-.11Z"/>
      <path class="cls-5" d="M81.01,24.29c-.89-.46-1.97-.11-2.44.76,0,.01-.01.02-.02.03-.05.09-.08.18-.11.28-.34-.05-.69.11-.86.44-.21.41-.05.9.36,1.11.23.12.48.11.7.02,0,0,.01,0,.02,0,.17.25.39.47.68.62.9.46,2,.11,2.46-.79.46-.9.11-2-.79-2.46Z"/>
      <path class="cls-11" d="M79.35,18.74c-.24.46-.17,1,.13,1.39.11.15.26.27.43.36.64.33,1.42.08,1.75-.56.33-.64.08-1.42-.56-1.75-.04-.02-.09-.03-.13-.05-.61-.24-1.32.02-1.62.61Z"/>
      <path class="cls-11" d="M78.45,24.79s.03-.03.04-.05c.15-.3.04-.66-.26-.82-.17-.09-.35-.08-.51,0-.12.05-.24.14-.3.27-.15.3-.04.67.26.82.28.14.62.04.78-.22Z"/>
      <path class="cls-9" d="M66.2,74.95v-31.79c-2.91.82-6.54,1.31-10.48,1.31s-7.57-.49-10.48-1.31v31.79c-11.46,4.26-19.63,15.29-19.63,28.23,0,8.59,3.6,16.33,9.37,21.81,1.12.12,2.26.23,3.44.33-6.58-5.14-10.81-13.15-10.81-22.15,0-7.76,3.14-14.78,8.23-19.87h0c.12-1.65,3.84-3.09,9.39-3.9.44-.06.89-.12,1.36-.18-.1-.32-.16-.67-.16-1.03,0-1.91,1.55-3.46,3.46-3.46s3.46,1.55,3.46,3.46c0,.18-.02.36-.05.54.79-.02,1.59-.04,2.41-.04,3.85,0,7.43.26,10.48.7,5.55.81,9.27,2.25,9.39,3.9h0c5.08,5.09,8.23,12.11,8.23,19.87,0,8.86-4.11,16.76-10.52,21.91,1.19-.12,2.34-.25,3.46-.39,5.59-5.47,9.06-13.09,9.06-21.52,0-12.94-8.17-23.98-19.63-28.23ZM60.29,52.13c1.14,0,2.07.93,2.07,2.07s-.93,2.07-2.07,2.07-2.07-.93-2.07-2.07.93-2.07,2.07-2.07ZM51.25,65.05c-1.91,0-3.46-1.55-3.46-3.46s1.55-3.46,3.46-3.46,3.46,1.55,3.46,3.46-1.55,3.46-3.46,3.46ZM60.29,77.22c-2.86,0-5.18-2.32-5.18-5.18s2.32-5.18,5.18-5.18,5.18,2.32,5.18,5.18-2.32,5.18-5.18,5.18Z"/>
      <path class="cls-9" d="M67.44,130.92c-4.07.25-8.39.38-12.82.38-3.51,0-6.96-.08-10.26-.24,3.51,1.43,7.34,2.23,11.36,2.23s8.11-.84,11.72-2.37Z"/>
      <path class="cls-8" d="M53.26,34.26c-.26-.1-.51-.23-.73-.39-.39.4-.89.71-1.46.87.71-.07,1.46-.12,2.22-.15-.02-.11-.03-.22-.02-.33Z"/>
      <path class="cls-9" d="M56.71,36.05c.21.79-.26,1.6-1.05,1.81-.04.01-.09.01-.13.02.07,0,.13,0,.2,0,4.62,0,8.55,1,9.94,2.39-2.48.68-6.01,1.11-9.94,1.11s-7.45-.43-9.94-1.11c1.32-1.32,4.93-2.29,9.25-2.38-.56-.09-1.04-.5-1.19-1.08-.09-.34-.05-.69.09-.99-.29-.26-.51-.6-.62-1-.02-.07-.02-.15-.04-.22-.76.04-1.51.09-2.22.15-.03,0-.05.02-.08.03-.37.1-.74.13-1.11.1-4.59.56-7.76,1.77-7.76,3.16,0,1.93,6.09,3.5,13.61,3.5s13.61-1.57,13.61-3.5c0-1.79-5.23-3.27-11.98-3.47-.07.51-.33.97-.72,1.3.03.06.05.12.07.19Z"/>
      <path class="cls-10" d="M55.72,41.37c3.92,0,7.45-.43,9.94-1.11-1.39-1.39-5.31-2.39-9.94-2.39-.07,0-.13,0-.2,0-.17.03-.33.03-.49,0-4.32.09-7.93,1.06-9.25,2.38,2.48.68,6.01,1.11,9.94,1.11Z"/>
      <path class="cls-3" d="M83.83,103.18c0-7.76-3.14-14.78-8.23-19.87h0s0,.05,0,.08c0,2.59-8.9,4.68-19.88,4.68s-19.88-2.1-19.88-4.68c0-.03,0-.05,0-.08h0c-5.08,5.09-8.23,12.11-8.23,19.87,0,9,4.23,17,10.81,22.15,5.01.42,10.54.64,16.2.64,6.61,0,13.05-.31,18.69-.88,6.41-5.15,10.52-13.05,10.52-21.91Z"/>
      <path class="cls-7" d="M55.72,88.08c10.98,0,19.88-2.1,19.88-4.68,0-.03,0-.05,0-.08-.12-1.65-3.84-3.09-9.39-3.9-3.04-.45-6.63-.7-10.48-.7-.81,0-1.62.01-2.41.04-.26,1.65-1.69,2.92-3.41,2.92-1.55,0-2.87-1.02-3.3-2.43-.46.06-.92.12-1.36.18-5.55.81-9.27,2.25-9.39,3.9,0,.03,0,.05,0,.08,0,2.59,8.9,4.68,19.88,4.68Z"/>
      <path class="cls-4" d="M.01,165.89c.03.71.17,1.4.42,2.04.26.67.62,1.28,1.05,1.85.81,1.06,1.86,1.97,3.1,2.8,2.17,1.45,4.95,2.69,8.27,3.79,4.99,1.64,11.21,2.96,18.3,3.88,7.09.92,15.05,1.43,23.47,1.43,7.29,0,14.25-.39,20.59-1.08,4.76-.52,9.17-1.22,13.13-2.08,2.97-.64,5.69-1.36,8.12-2.17,3.64-1.21,6.62-2.58,8.86-4.23,1.12-.83,2.06-1.74,2.77-2.81.35-.53.64-1.11.84-1.72.18-.55.28-1.13.3-1.72h0c0-.07,0-.14,0-.21,0-.78-.16-1.56-.43-2.27-.14-.36-.31-.71-.51-1.04l-12.92-40.09c0-.11.02-.23.02-.35,0-3.14-3.49-4.6-4.64-5.07-1.38-.57-3.12-1.1-5.19-1.58-.03.08-.07.16-.1.24-.11-.03-.22-.05-.34-.08-.65,1.55-1.41,3.03-2.28,4.45.19.04.39.08.57.12-.04.08-.08.16-.12.24,2.99.63,4.74,1.24,5.74,1.7-1.36.62-4.11,1.53-9.49,2.37-.14.02-.27.04-.42.07-.77.12-1.57.23-2.38.33-1.11.14-2.27.27-3.46.39-5.64.57-12.08.88-18.69.88-5.66,0-11.19-.22-16.2-.64-1.18-.1-2.32-.21-3.44-.33-.96-.1-1.89-.21-2.79-.33-.72-.09-1.42-.19-2.1-.3-5.66-.86-8.51-1.81-9.91-2.44,1.26-.57,3.7-1.39,8.31-2.18-.07-.07-.14-.15-.21-.22.02,0,.05,0,.07-.01-.85-1.43-1.6-2.93-2.22-4.5-.18.04-.36.07-.54.11-.04-.08-.07-.16-.11-.24-2.89.58-5.25,1.24-7.01,1.98-1.15.48-4.64,1.93-4.64,5.07,0,.12.01.23.02.35L.94,162.36c-.26.43-.47.89-.63,1.38C.11,164.36,0,165.01,0,165.67c0,.06,0,.12,0,.18,0,.01,0,.03,0,.04ZM5.33,164.46c.37-.49,1.02-1.1,1.94-1.71,1.62-1.09,4.05-2.21,7.1-3.21,4.58-1.51,10.54-2.79,17.41-3.67,5.15-.67,10.8-1.11,16.78-1.3-.04-1.77.44-3.42,1.39-4.86-5.59.13-10.94.48-15.91,1.03-4.76.52-9.17,1.23-13.13,2.08-2.97.64-5.69,1.36-8.12,2.17-1.86.62-3.54,1.28-5.04,1.99l9.8-30.39c.38.18.71.32.94.42,2.1.87,5.04,1.65,8.73,2.3,3.68.65,7.97,1.15,12.62,1.49,1.47.11,2.99.2,4.53.27,3.31.16,6.75.24,10.26.24,4.43,0,8.75-.13,12.82-.38,1.55-.1,3.07-.21,4.54-.34,3.67-.33,7.07-.75,10.06-1.28,3.69-.65,6.63-1.42,8.73-2.3.23-.1.56-.24.94-.42l9.8,30.39c-1.52-.73-3.23-1.4-5.11-2.02-4.99-1.64-11.21-2.96-18.3-3.88-6.04-.78-12.72-1.26-19.76-1.39.62.75,1.37,1.43,2.06,2.13.84.86,1.59,1.8,2.14,2.81,4.25.17,8.33.48,12.16.9,4.61.51,8.87,1.19,12.65,2,2.83.61,5.39,1.29,7.61,2.03,3.34,1.1,5.93,2.35,7.51,3.53.68.5,1.16.98,1.47,1.39l.47,1.47c-.02.08-.04.15-.07.24-.07.19-.2.42-.4.68-.37.5-1.02,1.1-1.95,1.72-1.62,1.09-4.05,2.21-7.1,3.21-4.58,1.51-10.54,2.79-17.41,3.67-6.86.89-14.63,1.39-22.85,1.39-7.12,0-13.91-.38-20.06-1.06-4.61-.51-8.87-1.19-12.65-2-2.83-.61-5.39-1.29-7.61-2.03-3.34-1.1-5.93-2.35-7.51-3.53-.79-.59-1.33-1.15-1.62-1.59-.15-.22-.24-.41-.29-.57-.02-.06-.03-.1-.04-.15l.48-1.48Z"/>
      <path class="cls-5" d="M69.09,161.48h0c0,.46-.59.89-1.63,1.26-.66-.23-1.5-.45-2.48-.62-1.55.28-3.46.49-5.58.58-1.3.33-2.76.34-4.13.03-2.46-.07-4.7-.29-6.47-.61-.97.18-1.81.39-2.46.62-1.04-.37-1.63-.8-1.63-1.26h0c0-.88,2.19-1.65,5.51-2.1-.24-.33-.46-.67-.65-1.03-4.05.64-6.75,1.81-6.75,3.14,0,.06,0,.11.02.16v8.14c0,2.03,6.29,3.67,14.05,3.67s14.05-1.64,14.05-3.67h0v-8.07c-.12.48-.59.93-1.35,1.34.75-.41,1.21-.86,1.33-1.33.02-.08.03-.16.03-.24h0c0-1.41-3.05-2.64-7.53-3.25-.02.37-.08.74-.19,1.09,3.51.44,5.86,1.24,5.86,2.15Z"/>
      <path class="cls-4" d="M44.71,161.48h0c0,.46.59.89,1.63,1.26.66-.23,1.49-.44,2.46-.62-.98-.18-1.82-.39-2.48-.62,1.15-.41,2.85-.75,4.9-.97-.37-.36-.7-.74-1-1.14-3.32.45-5.51,1.22-5.51,2.1Z"/>
      <path class="cls-4" d="M69.09,161.48h0c0-.91-2.35-1.71-5.86-2.15-.12.42-.31.82-.56,1.2,1.98.22,3.64.55,4.77.95-.66.23-1.49.44-2.46.62.98.18,1.82.39,2.48.62,1.04-.37,1.63-.8,1.63-1.26Z"/>
      <path class="cls-1" d="M49.57,158.35c.19.35.41.7.65,1.03.3.4.63.79,1,1.14-2.04.22-3.74.56-4.9.97.66.24,1.5.45,2.48.62,1.77.32,4,.54,6.47.61,1.38.31,2.84.3,4.13-.03,2.11-.09,4.02-.29,5.58-.58.97-.18,1.81-.39,2.46-.62-1.13-.4-2.78-.73-4.77-.95.25-.38.43-.78.56-1.2.1-.36.17-.72.19-1.09.04-.68-.03-1.38-.24-2.05-.16-.53-.39-1.05-.66-1.55-.55-1-1.3-1.94-2.14-2.81-.69-.71-1.44-1.38-2.06-2.13-.09-.11-.19-.22-.27-.33-.66-.89-1.07-1.95-.81-2.93.14-.51.45-.96.83-1.35.37-.38.78-.66,1.22-.99-2.49.56-4.89,1.64-6.82,3.03-1.05.75-1.9,1.63-2.54,2.59-.95,1.44-1.44,3.08-1.39,4.86,0,.03,0,.06,0,.09.04,1.25.39,2.53,1.02,3.7ZM49.49,153.71c.22-1.64.79-3.18,2.01-4.44,1.42-1.46,3.16-2.71,5.11-3.66-.6.29-1.04,1.32-1.26,1.85-.28.67-.51,1.5-.4,2.24.19,1.36,1.31,2.86,2.14,4.06,0-.94.27-1.87.79-2.67.05,1.26.76,2.48,1.52,3.61.77,1.13,1.61,2.25,2,3.49.13.42.45,2.21-.88,3.49-1.01.97-2.48,1.16-3.6,1.14,1.89-.09,3.42-1.41,3.39-3.06-.04-1.96-2.15-3.62-2.41-5.58-.24,1.01-.58,1.92-.33,2.99-.07-.3-.6-.73-.75-1.04-.19-.39-.38-.79-.49-1.2-.21.59-.25,1.23-.12,1.85-.7-.7-1.65-1.58-1.97-2.46-.17-.48-.15-1.04-.07-1.52.06-.37.2-1.1.54-1.35-1.12.83-2.06,1.83-2.76,2.94-.6.95-.74,2.03-.65,3.14.14,1.65,1.09,3.3,2.65,4.38.36.25.93.6,1.7.79-.17-.03-.29-.05-.31-.06-1.68-.4-2.73-1.32-3.31-1.89-1.97-1.95-2.85-4.59-2.52-7.03Z"/>
      <path class="cls-6" d="M55.31,162.64s.14.03.31.06c-.77-.19-1.34-.55-1.7-.79-1.56-1.09-2.51-2.74-2.65-4.38-.09-1.11.05-2.18.65-3.14.7-1.11,1.64-2.11,2.76-2.94-.35.26-.48.98-.54,1.35-.08.47-.11,1.04.07,1.52.32.88,1.26,1.76,1.97,2.46-.14-.62-.1-1.26.12-1.85.11.41.3.81.49,1.2.15.32.68.74.75,1.04-.24-1.07.09-1.98.33-2.99.26,1.96,2.37,3.62,2.41,5.58.03,1.65-1.49,2.97-3.39,3.06,1.12.02,2.59-.17,3.6-1.14,1.33-1.28,1.01-3.07.88-3.49-.38-1.24-1.23-2.36-2-3.49-.77-1.13-1.47-2.34-1.52-3.61-.51.81-.79,1.73-.79,2.67-.82-1.2-1.94-2.7-2.14-4.06-.1-.74.12-1.56.4-2.24.22-.53.66-1.56,1.26-1.85-1.95.95-3.69,2.19-5.11,3.66-1.22,1.25-1.79,2.8-2.01,4.44-.33,2.44.54,5.08,2.52,7.03.58.57,1.63,1.5,3.31,1.89Z"/>
      <path class="cls-3" d="M60.29,66.86c-2.86,0-5.18,2.32-5.18,5.18s2.32,5.18,5.18,5.18,5.18-2.32,5.18-5.18-2.32-5.18-5.18-5.18ZM59.01,70.45c-.63.51-1.47.51-1.88.01-.41-.5-.23-1.33.4-1.83.63-.51,1.47-.51,1.88,0,.41.5.23,1.32-.4,1.83ZM64.68,72.71c.41.5-.3,1.75-1.58,2.79-1.28,1.04-2.65,1.47-3.06.96-.41-.5.3-1.75,1.58-2.79,1.28-1.04,2.65-1.47,3.06-.96Z"/>
      <path class="cls-7" d="M57.54,68.63c-.63.51-.81,1.33-.4,1.83.41.5,1.25.5,1.88-.01.63-.51.81-1.33.4-1.83-.41-.5-1.25-.5-1.88,0Z"/>
      <path class="cls-2" d="M60.04,76.46c.41.5,1.78.07,3.06-.96,1.28-1.04,1.99-2.28,1.58-2.79-.41-.5-1.78-.07-3.06.96-1.28,1.04-1.99,2.28-1.58,2.79Z"/>
      <path class="cls-3" d="M51.25,58.13c-1.91,0-3.46,1.55-3.46,3.46s1.55,3.46,3.46,3.46,3.46-1.55,3.46-3.46-1.55-3.46-3.46-3.46ZM50.4,60.53c-.42.34-.98.34-1.25,0s-.15-.88.27-1.22c.42-.34.98-.34,1.25,0,.27.34.15.88-.27,1.22ZM54.18,62.04c.27.34-.2,1.17-1.06,1.86-.86.69-1.77.98-2.04.64-.27-.34.2-1.17,1.06-1.86.86-.69,1.77-.98,2.04-.64Z"/>
      <path class="cls-7" d="M49.41,59.31c-.42.34-.54.89-.27,1.22s.83.33,1.25,0c.42-.34.54-.89.27-1.22-.27-.34-.83-.33-1.25,0Z"/>
      <path class="cls-2" d="M51.08,64.54c.27.34,1.19.05,2.04-.64.86-.69,1.33-1.52,1.06-1.86-.27-.34-1.19-.05-2.04.64-.86.69-1.33,1.52-1.06,1.86Z"/>
      <path class="cls-3" d="M49.91,81.66c1.73,0,3.15-1.26,3.41-2.92.03-.18.05-.36.05-.54,0-1.91-1.55-3.46-3.46-3.46s-3.46,1.55-3.46,3.46c0,.36.05.7.16,1.03.44,1.41,1.75,2.43,3.3,2.43ZM50.8,79.3c.86-.69,1.77-.98,2.04-.64.27.34-.2,1.17-1.06,1.86-.86.69-1.77.98-2.04.64-.27-.34.2-1.17,1.06-1.86ZM48.07,75.93c.42-.34.98-.34,1.25,0,.27.34.15.88-.27,1.22-.42.34-.98.34-1.25,0-.27-.34-.15-.88.27-1.22Z"/>
      <path class="cls-7" d="M49.06,77.15c.42-.34.54-.89.27-1.22-.27-.34-.83-.33-1.25,0-.42.34-.54.89-.27,1.22.27.34.83.33,1.25,0Z"/>
      <path class="cls-2" d="M51.78,80.52c.86-.69,1.33-1.53,1.06-1.86-.27-.34-1.19-.05-2.04.64-.86.69-1.33,1.53-1.06,1.86.27.34,1.19.05,2.04-.64Z"/>
      <path class="cls-3" d="M60.29,56.27c1.14,0,2.07-.93,2.07-2.07s-.93-2.07-2.07-2.07-2.07.93-2.07,2.07.93,2.07,2.07,2.07ZM60.82,54.85c.51-.41,1.06-.59,1.22-.39.16.2-.12.7-.63,1.11-.51.41-1.06.59-1.22.39-.16-.2.12-.7.63-1.11ZM59.19,52.83c.25-.2.59-.21.75,0,.16.2.09.53-.16.73-.25.2-.59.21-.75,0-.16-.2-.09-.53.16-.73Z"/>
      <path class="cls-7" d="M59.78,53.56c.25-.2.32-.53.16-.73-.16-.2-.5-.2-.75,0-.25.2-.32.53-.16.73.16.2.5.2.75,0Z"/>
      <path class="cls-2" d="M61.41,55.58c.51-.41.79-.91.63-1.11-.16-.2-.71-.03-1.22.39-.51.41-.79.91-.63,1.11.16.2.71.03,1.22-.39Z"/>
      <path class="cls-4" d="M54.36,13.18c-.07.18-.15.36-.25.52.24-.04.48-.07.72-.08-.17-.14-.32-.28-.47-.45Z"/>
      <path class="cls-4" d="M49.88,34.87c.36.03.74,0,1.11-.1.03,0,.05-.02.08-.03.57-.17,1.07-.47,1.46-.87.23.16.47.29.73.39,0,.11,0,.22.02.33.01.07.02.15.04.22.11.4.33.75.62,1-.14.3-.18.65-.09.99.15.58.63.99,1.19,1.08.16.03.32.02.49,0,.04,0,.09,0,.13-.02.79-.21,1.26-1.02,1.05-1.81-.02-.07-.05-.13-.07-.19.39-.33.65-.79.72-1.3.03-.26.02-.53-.05-.8-.05-.19-.13-.35-.22-.51.38-.46.63-1.01.72-1.6.07-.46.06-.94-.07-1.41-.12-.46-.33-.87-.61-1.22.87-.98,1.33-2.29,1.2-3.65.02,0,.04,0,.07-.01,2.98-.79,4.75-3.84,3.96-6.82-.2-.74-.54-1.41-.98-1.98,1.84-1.7,2.7-4.33,2.01-6.92-.99-3.73-4.81-5.95-8.54-4.96-.73.19-1.4.5-2,.89-2.37-4.23-7.38-6.48-12.29-5.18-5.81,1.54-9.28,7.5-7.74,13.32.18.69.43,1.34.72,1.95-2.38,1.62-3.61,4.62-2.83,7.56.99,3.73,4.81,5.95,8.54,4.96.47-.13.92-.3,1.35-.51,1.08,2.5,3.63,3.97,6.14,3.45-.05.41-.02.84.09,1.26.01.04.03.09.04.13.42,1.36,1.63,2.28,2.99,2.38ZM41.49,25.8c-.5.13-1,.02-1.4-.26,0,0-.02-.01-.03-.02-.44.43-1,.76-1.64.93-1.99.53-4.02-.66-4.55-2.64-.53-1.99.66-4.02,2.64-4.55,1.96-.52,3.97.63,4.53,2.57,0,.02.02.05.02.07.05.2.09.4.1.6.7.05,1.32.52,1.51,1.24.24.9-.3,1.82-1.19,2.06ZM42.85,22.14c-.62.16-1.25-.18-1.47-.76-.01-.04-.03-.08-.04-.12-.18-.66.22-1.34.88-1.51.37-.1.75-.01,1.04.2.22.16.4.39.47.68.18.66-.22,1.34-.88,1.51ZM45.86,12.65s0,0,0-.01c-1.63.37-3.25-.04-4.49-.99-.29.24-.63.43-1.02.53-1.41.37-2.86-.47-3.24-1.88-.37-1.41.47-2.86,1.88-3.24.09-.03.19-.04.28-.06.15-2.25,1.71-4.26,4.01-4.87,2.89-.77,5.86.96,6.62,3.85.09.35.15.69.17,1.04.37-.01.73.02,1.07.1,1.01.22,1.92.78,2.56,1.59.5-1.06,1.44-1.9,2.66-2.22,2.19-.58,4.44.72,5.02,2.92.58,2.19-.72,4.44-2.92,5.02-.13.04-.27.06-.4.09-.02,0-.03,0-.05,0,1.09.71,1.93,1.8,2.29,3.16.63,2.39-.43,4.84-2.45,6.05-.43.26-.91.47-1.42.6,0,0-.01,0-.02,0h0c.24.9-.3,1.82-1.19,2.06-.9.24-1.82-.3-2.06-1.19-.09-.34-.07-.69.05-1-1.09-.39-2.03-1.12-2.69-2.09-.33-.49-.59-1.04-.75-1.64-.42-1.6-.09-3.22.78-4.48-1.2.1-2.37-.29-3.26-1.03-.69-.58-1.21-1.36-1.46-2.29Z"/>
      <path class="cls-5" d="M50.57,15.97c-.87,1.26-1.21,2.88-.78,4.48.16.6.42,1.15.75,1.64.66.97,1.6,1.7,2.69,2.09-.11.31-.14.66-.05,1,.24.9,1.16,1.43,2.06,1.19.9-.24,1.43-1.16,1.19-2.06h0s.01,0,.02,0c.51-.14.99-.34,1.42-.6,2.02-1.22,3.08-3.66,2.45-6.05-.36-1.35-1.2-2.45-2.29-3.16.02,0,.03,0,.05,0,.13-.02.27-.05.4-.09,2.19-.58,3.5-2.83,2.92-5.02-.58-2.19-2.83-3.5-5.02-2.92-1.22.32-2.16,1.16-2.66,2.22-.65-.81-1.56-1.37-2.56-1.59-.35-.08-.71-.11-1.07-.1-.02-.34-.08-.69-.17-1.04-.77-2.89-3.73-4.61-6.62-3.85-2.3.61-3.86,2.62-4.01,4.87,1.32-.2,2.6.62,2.95,1.94.27,1.02-.1,2.07-.86,2.71,1.24.95,2.86,1.36,4.49.99,0,0,0,0,0,.01.25.93.77,1.72,1.46,2.29.89.74,2.05,1.13,3.26,1.03ZM54.36,13.18c.14.16.3.31.47.45-.24,0-.48.04-.72.08.1-.17.18-.34.25-.52Z"/>
      <path class="cls-5" d="M41.17,22.5c-.02-.2-.05-.4-.1-.6,0-.03-.02-.05-.02-.07-.56-1.94-2.56-3.09-4.53-2.57-1.99.53-3.17,2.56-2.64,4.55.53,1.99,2.56,3.17,4.55,2.64.64-.17,1.2-.5,1.64-.93,0,0,.02.01.03.02.39.28.9.39,1.4.26.9-.24,1.43-1.16,1.19-2.06-.19-.71-.81-1.19-1.51-1.24Z"/>
      <path class="cls-11" d="M42.22,8.94c-.35-1.32-1.64-2.14-2.95-1.94-.09.01-.19.03-.28.06-1.41.37-2.26,1.82-1.88,3.24.37,1.41,1.82,2.26,3.24,1.88.39-.1.73-.29,1.02-.53.76-.64,1.13-1.68.86-2.71Z"/>
      <path class="cls-11" d="M43.26,19.95c-.29-.21-.67-.3-1.04-.2-.66.18-1.05.85-.88,1.51.01.04.03.08.04.12.22.59.85.93,1.47.76.66-.18,1.05-.85.88-1.51-.08-.29-.25-.52-.47-.68Z"/>
    </g>
  </g>
</svg>