<?xml version="1.0" encoding="UTF-8"?>
<svg id="Layer_2" data-name="Layer 2" xmlns="http://www.w3.org/2000/svg" viewBox="0 0 163.7 180.86">
  <defs>
    <style>
      .cls-1 {
        fill: #796aad;
      }

      .cls-1, .cls-2, .cls-3, .cls-4, .cls-5, .cls-6, .cls-7 {
        stroke-width: 0px;
      }

      .cls-2 {
        fill: #fcd377;
      }

      .cls-3 {
        fill: #655d94;
      }

      .cls-4 {
        fill: #8dd3f6;
      }

      .cls-5 {
        fill: #71cbf4;
      }

      .cls-6 {
        fill: #3abff0;
      }

      .cls-7 {
        fill: #eac06b;
      }
    </style>
  </defs>
  <g id="Capa_1" data-name="Capa 1">
    <g>
      <path class="cls-4" d="M129.78,72.88V19.23c4.92-2.04,7.92-4.74,7.92-7.69,0-6.37-13.92-11.54-31.08-11.54s-31.08,5.17-31.08,11.54c0,2.95,3,5.65,7.92,7.69v53.65c-10.63,4.9-19.55,13.08-25.57,23.29-4.93-.42-10.34-.65-16.01-.65-23.12,0-41.86,3.84-41.86,8.58,0,1.44,1.74,2.79,4.79,3.98v67.98c0,2.64,16.6,4.79,37.07,4.79,17.36,0,31.92-1.54,35.95-3.62,7.17,2.12,17.41,3.45,28.8,3.45,21.52,0,38.98-4.74,39.21-10.61h.01c11-10.8,17.87-26.09,17.87-43.04,0-24.16-13.94-44.93-33.93-54.15Z"/>
      <path class="cls-5" d="M70.81,92.83c0-3.13,6.81-5.86,17.02-7.39,5.46-.82,11.89-1.29,18.77-1.29s13.32.47,18.77,1.29c10.21,1.53,17.02,4.27,17.02,7.39,9.01,8.96,14.57,21.28,14.57,34.89s-5.86,26.55-15.27,35.56c-.16.16-.33.32-.49.47h0c-.2,4.92-15.61,8.89-34.59,8.89-11.32,0-21.37-1.41-27.69-3.59v3.73c6.79,1.98,16.67,3.23,27.69,3.23,20.34,0,36.84-4.25,37.06-9.52h0s.01-.01.02-.02c10.39-9.68,16.87-23.39,16.87-38.58,0-21.17-12.58-39.45-30.79-47.99-1.43-.67-2.9-1.28-4.39-1.83V20.73c-5.22,1.47-11.72,2.34-18.77,2.34s-13.56-.87-18.77-2.34v57.33c-1.5.55-2.96,1.16-4.39,1.83-8.18,3.84-15.23,9.64-20.51,16.8,1.37.16,2.69.34,3.95.53,1.22-1.54,2.53-3.01,3.93-4.4Z"/>
      <path class="cls-5" d="M131,11.54c0-3.46-10.92-6.27-24.39-6.27s-24.39,2.81-24.39,6.27,10.92,6.27,24.39,6.27,24.39-2.81,24.39-6.27ZM106.61,11.26c8.29,0,15.32,1.79,17.81,4.28-4.45,1.22-10.78,1.99-17.81,1.99s-13.35-.77-17.8-1.99c2.49-2.49,9.52-4.28,17.8-4.28Z"/>
      <path class="cls-1" d="M141.2,163.74h0c.17-.15.33-.31.49-.47,9.42-9.01,15.27-21.61,15.27-35.56s-5.56-25.93-14.57-34.89c0,4.8-16.03,8.69-35.79,8.69s-35.8-3.89-35.8-8.69c-1.4,1.39-2.71,2.86-3.93,4.4,10.22,1.56,16.83,4.06,16.83,6.88,0,1.44-1.74,2.8-4.79,3.99v60.95c6.31,2.18,16.36,3.59,27.69,3.59,18.98,0,34.39-3.97,34.59-8.89Z"/>
      <path class="cls-3" d="M106.61,101.51c19.77,0,35.79-3.89,35.79-8.69,0-3.13-6.81-5.86-17.02-7.39-5.46-.82-11.89-1.29-18.77-1.29s-13.32.47-18.77,1.29c-10.21,1.53-17.02,4.27-17.02,7.39,0,4.8,16.03,8.69,35.8,8.69Z"/>
      <path class="cls-6" d="M124.41,15.54c-2.49-2.49-9.52-4.28-17.81-4.28s-15.32,1.79-17.8,4.28c4.45,1.22,10.78,1.99,17.8,1.99s13.35-.77,17.81-1.99Z"/>
      <path class="cls-5" d="M7.17,108.91v65.02c0,.14.05.27.15.4,1.57,2.29,16.43,4.08,34.54,4.08s32.97-1.79,34.54-4.08c.09-.13.15-.27.15-.4v-65.02c-7.53,2.28-20.25,3.77-34.68,3.77s-27.16-1.5-34.69-3.78ZM74.11,122.07v50.68c0,2.38-14.44,4.31-32.26,4.31s-32.26-1.93-32.26-4.31v-50.68h0c0-3,14.44-5.44,32.26-5.44s32.26,2.43,32.26,5.44Z"/>
      <path class="cls-2" d="M41.86,127.51c-17.81,0-32.26-2.43-32.26-5.44h0v50.68c0,2.38,14.44,4.31,32.26,4.31s32.26-1.93,32.26-4.31v-50.68c0,3-14.44,5.44-32.26,5.44ZM32.64,171.87H13.74c-.54,0-.98-.44-.98-.98,0,0,0,0,0,0,0-.54.44-.97.98-.97h18.9c.54,0,.98.44.98.98s-.44.98-.98.98ZM32.64,164.48H13.74c-.54,0-.98-.44-.98-.98s.44-.98.98-.98h18.9c.54,0,.98.44.98.98s-.44.98-.98.98ZM32.64,157.09H13.74c-.54,0-.98-.44-.98-.98s.44-.98.98-.98h18.9c.54,0,.98.44.98.98s-.44.98-.98.98ZM32.64,149.7H13.74c-.54,0-.98-.44-.98-.98s.44-.98.98-.98h18.9c.54,0,.98.44.98.98s-.44.98-.98.98ZM32.64,142.31H13.74c-.54,0-.98-.44-.98-.98s.44-.98.98-.98h18.9c.54,0,.98.44.98.98s-.44.98-.98.98Z"/>
      <path class="cls-7" d="M9.6,122.07c0,3,14.44,5.44,32.26,5.44s32.26-2.43,32.26-5.44-14.44-5.44-32.26-5.44-32.26,2.43-32.26,5.44Z"/>
      <path class="cls-5" d="M9.6,107.05c6.15-2.41,18.28-4.06,32.26-4.06s26.1,1.64,32.26,4.06c3.06-.87,4.81-1.88,4.81-2.95,0-3.3-16.59-5.98-37.06-5.98s-37.06,2.68-37.06,5.98c0,1.07,1.75,2.08,4.81,2.95Z"/>
      <path class="cls-6" d="M9.6,107.05c6.37,1.81,18.43,3.03,32.26,3.03s25.89-1.22,32.26-3.03c-6.15-2.41-18.28-4.06-32.26-4.06s-26.1,1.64-32.26,4.06Z"/>
      <path class="cls-6" d="M32.64,169.91H13.74c-.54,0-.98.44-.98.97,0,0,0,0,0,0,0,.54.44.98.98.98h18.9c.54,0,.98-.44.98-.98s-.44-.98-.98-.98Z"/>
      <path class="cls-6" d="M32.64,162.52H13.74c-.54,0-.98.44-.98.98s.44.98.98.98h18.9c.54,0,.98-.44.98-.98s-.44-.98-.98-.98Z"/>
      <path class="cls-6" d="M32.64,155.13H13.74c-.54,0-.98.44-.98.98s.44.98.98.98h18.9c.54,0,.98-.44.98-.98s-.44-.98-.98-.98Z"/>
      <path class="cls-6" d="M32.64,147.74H13.74c-.54,0-.98.44-.98.98s.44.98.98.98h18.9c.54,0,.98-.44.98-.98s-.44-.98-.98-.98Z"/>
      <path class="cls-6" d="M32.64,140.35H13.74c-.54,0-.98.44-.98.98s.44.98.98.98h18.9c.54,0,.98-.44.98-.98s-.44-.98-.98-.98Z"/>
    </g>
  </g>
</svg>