<?xml version="1.0" encoding="UTF-8"?>
<svg id="Layer_2" data-name="Layer 2" xmlns="http://www.w3.org/2000/svg" viewBox="0 0 180.86 129.62">
  <defs>
    <style>
      .cls-1 {
        fill: #6ba55f;
      }

      .cls-1, .cls-2, .cls-3, .cls-4, .cls-5, .cls-6, .cls-7, .cls-8, .cls-9, .cls-10, .cls-11, .cls-12, .cls-13 {
        stroke-width: 0px;
      }

      .cls-2 {
        fill: #dba20e;
      }

      .cls-3 {
        fill: #796aad;
      }

      .cls-4 {
        fill: #abadae;
      }

      .cls-5 {
        fill: #b9babc;
      }

      .cls-6 {
        fill: #e25e5d;
      }

      .cls-7 {
        fill: #86c276;
      }

      .cls-8 {
        fill: #fcd377;
      }

      .cls-9 {
        fill: #655d94;
      }

      .cls-10 {
        fill: #8dd3f6;
      }

      .cls-11 {
        fill: #71cbf4;
      }

      .cls-12 {
        fill: #3abff0;
      }

      .cls-13 {
        fill: #ec6360;
      }
    </style>
  </defs>
  <g id="Capa_1" data-name="Capa 1">
    <g>
      <path class="cls-5" d="M180.65,106.54c.13-.16.2-.32.2-.48h0c0-1.83-8.5-3.5-22.51-4.77V25.22c1.95-.24,3.46-1.91,3.46-3.92v-3.12c0-2.19-1.77-3.96-3.96-3.96h-15.46v-5.66c2.19-.91,3.52-2.1,3.52-3.42,0-2.83-6.19-5.13-13.82-5.13s-13.82,2.3-13.82,5.13c0,1.31,1.33,2.51,3.52,3.42v5.66h-8.35v-5.66c2.19-.91,3.52-2.1,3.52-3.42,0-2.83-6.19-5.13-13.82-5.13s-13.82,2.3-13.82,5.13c0,1.31,1.33,2.51,3.52,3.42v5.67h-8.35v-5.66c2.19-.91,3.52-2.1,3.52-3.42,0-2.83-6.19-5.13-13.82-5.13s-13.82,2.3-13.82,5.13c0,1.31,1.33,2.51,3.52,3.42v5.67h-8.35v-5.66c2.19-.91,3.52-2.1,3.52-3.42,0-2.83-6.19-5.13-13.82-5.13s-13.82,2.3-13.82,5.13c0,1.31,1.33,2.51,3.52,3.42v5.66h-16.78c-2.19,0-3.96,1.77-3.96,3.96v3.12c0,2.06,1.57,3.75,3.58,3.94v76.52c-11.17,1.2-17.79,2.69-17.79,4.3h0c0,.11.04.23.1.34v16c0,3.99,40.44,7.22,90.33,7.22s90.32-3.23,90.33-7.22h0v-15.88c-.73.89-3.47,1.73-7.86,2.5,4.33-.77,7.03-1.6,7.76-2.49ZM28.19,25.25h6.76v56.42c0,5.69,4.61,10.3,10.3,10.3s10.3-4.61,10.3-10.3V25.25h8.35v56.42c0,5.69,4.61,10.3,10.3,10.3s10.3-4.61,10.3-10.3V25.25h8.35v56.42c0,5.69,4.61,10.3,10.3,10.3s10.3-4.61,10.3-10.3V25.25h8.35v56.42c0,5.69,4.61,10.3,10.3,10.3s10.3-4.61,10.3-10.3V25.25h5.56v75.23c-15.63-1.03-35.67-1.65-57.52-1.65-24.12,0-46.03.75-62.24,1.98V25.25Z"/>
      <path class="cls-4" d="M158.34,101.29V25.22c-.16.02-.33.03-.5.03h-9.9v75.23c-15.63-1.03-35.67-1.65-57.52-1.65-24.12,0-46.03.75-62.24,1.98V25.25h-10.02c-.13,0-.26,0-.38-.02v76.52c-11.17,1.2-17.79,2.69-17.79,4.3h0c0,.11.04.23.1.34,2.22,3.83,41.81,6.89,90.33,6.89,36.7,0,68.3-1.75,82.47-4.26,4.33-.77,7.03-1.6,7.76-2.49.13-.16.2-.32.2-.48h0c0-1.83-8.5-3.5-22.51-4.77Z"/>
      <path class="cls-10" d="M53.59,81.73c0,4.61-3.74,8.35-8.34,8.35s-8.34-3.74-8.34-8.35V27.65h-1.95v54.02c0,5.69,4.61,10.3,10.3,10.3s10.3-4.61,10.3-10.3V27.65h-1.95v54.08Z"/>
      <path class="cls-10" d="M36.9,9.22c2.32.65,5.21,1.04,8.34,1.04s6.03-.39,8.34-1.04v5h1.95v-5.66c2.19-.91,3.52-2.1,3.52-3.42,0-2.83-6.19-5.13-13.82-5.13s-13.82,2.3-13.82,5.13c0,1.31,1.33,2.51,3.52,3.42v5.66h1.95v-5ZM34.4,5.13c0-1.54,4.85-2.79,10.84-2.79s10.84,1.25,10.84,2.79c0,.74-1.11,1.41-2.93,1.9h0s-.02,0-.03,0c-.24.06-.48.13-.74.18,0,0-.01,0-.02,0-.26.06-.54.11-.82.17-.01,0-.03,0-.04,0-.28.05-.57.1-.86.14-.02,0-.04,0-.07,0-.29.04-.59.08-.9.12-.03,0-.05,0-.08,0-.31.03-.62.07-.95.09-.03,0-.06,0-.08,0-.33.03-.66.05-1,.07-.03,0-.05,0-.08,0-.35.02-.7.03-1.06.04-.01,0-.03,0-.05,0-.38.01-.76.02-1.14.02s-.77,0-1.14-.02c-.01,0-.03,0-.04,0-.36-.01-.71-.02-1.06-.04-.03,0-.05,0-.08,0-.34-.02-.67-.04-1-.07-.03,0-.05,0-.08,0-.32-.03-.64-.06-.95-.09-.03,0-.05,0-.08,0-.31-.04-.61-.07-.9-.12-.02,0-.04,0-.06,0-.3-.04-.59-.09-.87-.14-.01,0-.03,0-.04,0-.29-.05-.56-.11-.82-.17,0,0-.01,0-.02,0-.26-.06-.51-.12-.75-.19,0,0-.02,0-.03,0h0c-1.81-.5-2.93-1.17-2.93-1.9Z"/>
      <path class="cls-11" d="M45.24,10.26c-3.14,0-6.03-.39-8.34-1.04v5h16.69v-5c-2.32.65-5.21,1.04-8.34,1.04Z"/>
      <path class="cls-11" d="M45.24,90.08c4.61,0,8.34-3.74,8.34-8.35V27.65h-16.69v54.08c0,4.61,3.74,8.35,8.34,8.35ZM38.35,31.55c0-1.49,3.09-2.69,6.89-2.69s6.89,1.21,6.89,2.69v49.29c0,3.75-3.04,6.79-6.79,6.79h-.2c-3.75,0-6.79-3.04-6.79-6.79V31.55Z"/>
      <path class="cls-3" d="M45.14,87.63h.2c3.75,0,6.79-3.04,6.79-6.79V31.55c0,1.49-3.09,2.69-6.89,2.69s-6.89-1.21-6.89-2.69v49.29c0,3.75,3.04,6.79,6.79,6.79Z"/>
      <path class="cls-11" d="M45.24,5.13c3.68,0,6.81.8,7.91,1.9,1.81-.5,2.93-1.17,2.93-1.9,0-1.54-4.85-2.79-10.84-2.79s-10.84,1.25-10.84,2.79c0,.74,1.11,1.41,2.93,1.9,1.11-1.11,4.23-1.9,7.91-1.9Z"/>
      <path class="cls-12" d="M37.33,7.03h0s.02,0,.03,0c.24.07.49.13.75.19,0,0,.01,0,.02,0,.26.06.54.11.82.17.01,0,.03,0,.04,0,.28.05.57.1.87.14.02,0,.04,0,.06,0,.29.04.59.08.9.12.03,0,.05,0,.08,0,.31.03.62.07.95.09.03,0,.05,0,.08,0,.33.03.66.05,1,.07.03,0,.05,0,.08,0,.35.02.7.03,1.06.04.01,0,.03,0,.04,0,.38.01.76.02,1.14.02s.77,0,1.14-.02c.02,0,.03,0,.05,0,.36-.01.71-.02,1.06-.04.03,0,.05,0,.08,0,.34-.02.67-.04,1-.07.03,0,.06,0,.08,0,.32-.03.64-.06.95-.09.03,0,.05,0,.08,0,.31-.04.61-.07.9-.12.02,0,.04,0,.07,0,.3-.04.58-.09.86-.14.01,0,.03,0,.04,0,.28-.05.56-.11.82-.17,0,0,.01,0,.02,0,.26-.06.5-.12.74-.18,0,0,.02,0,.03,0h0c-1.11-1.11-4.23-1.9-7.91-1.9s-6.81.8-7.91,1.9Z"/>
      <path class="cls-9" d="M45.24,34.24c3.81,0,6.89-1.21,6.89-2.69s-3.09-2.69-6.89-2.69-6.89,1.21-6.89,2.69,3.09,2.69,6.89,2.69Z"/>
      <path class="cls-10" d="M82.54,81.73c0,4.61-3.74,8.35-8.34,8.35s-8.34-3.74-8.34-8.35V27.65h-1.95v54.02c0,5.69,4.61,10.3,10.3,10.3s10.3-4.61,10.3-10.3V27.65h-1.95v54.08Z"/>
      <path class="cls-10" d="M65.85,9.22c2.32.65,5.21,1.04,8.34,1.04s6.03-.39,8.34-1.04v5h1.95v-5.66c2.19-.91,3.52-2.1,3.52-3.42,0-2.83-6.19-5.13-13.82-5.13s-13.82,2.3-13.82,5.13c0,1.31,1.33,2.51,3.52,3.42v5.67h1.95v-5ZM63.35,5.13c0-1.54,4.85-2.79,10.84-2.79s10.84,1.25,10.84,2.79c0,.74-1.11,1.41-2.93,1.9h0s-.02,0-.03,0c-.24.06-.48.13-.74.18,0,0-.01,0-.02,0-.26.06-.54.11-.82.17-.01,0-.03,0-.04,0-.28.05-.57.1-.86.14-.02,0-.04,0-.06,0-.29.04-.59.08-.9.12-.03,0-.05,0-.08,0-.31.03-.62.07-.95.09-.03,0-.05,0-.08,0-.33.03-.66.05-1,.07-.03,0-.05,0-.08,0-.35.02-.7.03-1.06.04-.01,0-.03,0-.05,0-.37.01-.76.02-1.14.02s-.77,0-1.14-.02c-.01,0-.03,0-.04,0-.36-.01-.71-.02-1.06-.04-.03,0-.05,0-.08,0-.34-.02-.67-.04-1-.07-.03,0-.05,0-.08,0-.32-.03-.64-.06-.95-.09-.03,0-.05,0-.08,0-.31-.04-.61-.07-.9-.12-.02,0-.04,0-.06,0-.3-.04-.59-.09-.86-.14-.01,0-.03,0-.04,0-.28-.05-.56-.11-.82-.17,0,0-.01,0-.02,0-.26-.06-.5-.12-.74-.18-.01,0-.02,0-.03,0h0c-1.81-.5-2.93-1.17-2.93-1.9Z"/>
      <path class="cls-11" d="M74.19,90.08c4.61,0,8.34-3.74,8.34-8.35V27.65h-16.69v54.08c0,4.61,3.74,8.35,8.34,8.35ZM67.3,45.55c0-1.49,3.09-2.69,6.89-2.69s6.89,1.2,6.89,2.69v35.28c0,3.75-3.04,6.79-6.79,6.79h-.2c-3.75,0-6.79-3.04-6.79-6.79v-35.28Z"/>
      <path class="cls-11" d="M74.19,10.26c-3.14,0-6.03-.39-8.34-1.04v5h16.69v-5c-2.32.65-5.21,1.04-8.34,1.04Z"/>
      <path class="cls-13" d="M74.09,87.63h.2c3.75,0,6.79-3.04,6.79-6.79v-35.28c0,1.49-3.09,2.69-6.89,2.69s-6.89-1.21-6.89-2.69v35.28c0,3.75,3.04,6.79,6.79,6.79Z"/>
      <path class="cls-11" d="M74.19,5.13c3.68,0,6.81.8,7.91,1.9,1.81-.5,2.93-1.17,2.93-1.9,0-1.54-4.85-2.79-10.84-2.79s-10.84,1.25-10.84,2.79c0,.74,1.11,1.41,2.93,1.9,1.11-1.11,4.23-1.9,7.91-1.9Z"/>
      <path class="cls-12" d="M66.28,7.03h0s.02,0,.03,0c.24.06.48.13.74.18,0,0,.01,0,.02,0,.26.06.54.11.82.17.01,0,.03,0,.04,0,.28.05.57.1.86.14.02,0,.04,0,.06,0,.29.04.59.08.9.12.03,0,.05,0,.08,0,.31.03.62.07.95.09.03,0,.06,0,.08,0,.33.03.66.05,1,.07.03,0,.05,0,.08,0,.35.02.7.03,1.06.04.01,0,.03,0,.04,0,.38.01.76.02,1.14.02s.77,0,1.14-.02c.02,0,.03,0,.05,0,.36-.01.71-.02,1.06-.04.03,0,.05,0,.08,0,.34-.02.67-.04,1-.07.03,0,.05,0,.08,0,.32-.03.64-.06.95-.09.03,0,.05,0,.08,0,.31-.04.61-.07.9-.12.02,0,.04,0,.06,0,.3-.04.58-.09.86-.14.01,0,.03,0,.04,0,.28-.05.56-.11.82-.17,0,0,.01,0,.02,0,.26-.06.5-.12.74-.18,0,0,.02,0,.03,0h0c-1.11-1.11-4.23-1.9-7.91-1.9s-6.81.8-7.91,1.9Z"/>
      <path class="cls-6" d="M74.19,48.25c3.81,0,6.89-1.21,6.89-2.69s-3.09-2.69-6.89-2.69-6.89,1.2-6.89,2.69,3.09,2.69,6.89,2.69Z"/>
      <path class="cls-10" d="M94.79,9.22c2.32.65,5.21,1.04,8.34,1.04s6.03-.39,8.35-1.04v5h1.95v-5.66c2.19-.91,3.52-2.1,3.52-3.42,0-2.83-6.19-5.13-13.82-5.13s-13.82,2.3-13.82,5.13c0,1.31,1.33,2.51,3.52,3.42v5.67h1.95v-5ZM92.3,5.13c0-1.54,4.85-2.79,10.84-2.79s10.84,1.25,10.84,2.79c0,.74-1.11,1.41-2.93,1.9h0s-.02,0-.03,0c-.24.06-.48.13-.74.18,0,0-.01,0-.02,0-.26.06-.54.11-.82.17-.01,0-.03,0-.04,0-.28.05-.57.1-.86.14-.02,0-.04,0-.06,0-.29.04-.59.08-.9.12-.03,0-.05,0-.08,0-.31.03-.62.07-.95.09-.03,0-.05,0-.08,0-.33.03-.66.05-1,.07-.03,0-.05,0-.08,0-.35.02-.7.03-1.06.04-.01,0-.03,0-.04,0-.37.01-.76.02-1.14.02s-.77,0-1.14-.02c-.01,0-.03,0-.04,0-.36-.01-.71-.02-1.06-.04-.03,0-.05,0-.08,0-.34-.02-.67-.04-1-.07-.03,0-.05,0-.08,0-.32-.03-.64-.06-.95-.09-.03,0-.05,0-.08,0-.31-.04-.61-.07-.9-.12-.02,0-.04,0-.06,0-.3-.04-.59-.09-.86-.14-.01,0-.03,0-.04,0-.28-.05-.56-.11-.82-.17,0,0-.01,0-.02,0-.26-.06-.5-.12-.74-.18-.01,0-.02,0-.03,0h0c-1.81-.5-2.93-1.17-2.93-1.9Z"/>
      <path class="cls-10" d="M103.14,91.97c5.69,0,10.3-4.61,10.3-10.3V27.65h-1.95v54.08c0,4.61-3.74,8.35-8.35,8.35s-8.34-3.74-8.34-8.35V27.65h-1.95v-2.4h0v56.42c0,5.69,4.61,10.3,10.3,10.3Z"/>
      <path class="cls-11" d="M103.14,10.26c-3.14,0-6.03-.39-8.34-1.04v5h16.69v-5c-2.32.65-5.21,1.04-8.35,1.04Z"/>
      <path class="cls-11" d="M94.79,81.73c0,4.61,3.74,8.35,8.34,8.35s8.35-3.74,8.35-8.35V27.65h-16.69v54.08ZM96.25,31.55c0-1.49,3.09-2.69,6.89-2.69s6.89,1.21,6.89,2.69v49.29c0,3.75-3.04,6.79-6.79,6.79h-.2c-3.75,0-6.79-3.04-6.79-6.79V31.55Z"/>
      <path class="cls-8" d="M103.04,87.63h.2c3.75,0,6.79-3.04,6.79-6.79V31.55c0,1.49-3.09,2.69-6.89,2.69s-6.89-1.21-6.89-2.69v49.29c0,3.75,3.04,6.79,6.79,6.79Z"/>
      <path class="cls-11" d="M103.14,5.13c3.68,0,6.81.8,7.91,1.9,1.81-.5,2.93-1.17,2.93-1.9,0-1.54-4.85-2.79-10.84-2.79s-10.84,1.25-10.84,2.79c0,.74,1.11,1.41,2.93,1.9,1.11-1.11,4.23-1.9,7.91-1.9Z"/>
      <path class="cls-12" d="M95.23,7.03h0s.02,0,.03,0c.24.06.48.13.74.18,0,0,.01,0,.02,0,.26.06.54.11.82.17.01,0,.03,0,.04,0,.28.05.57.1.86.14.02,0,.04,0,.06,0,.29.04.59.08.9.12.03,0,.05,0,.08,0,.31.03.62.07.95.09.03,0,.06,0,.08,0,.33.03.66.05,1,.07.03,0,.05,0,.08,0,.35.02.7.03,1.06.04.01,0,.03,0,.04,0,.38.01.76.02,1.14.02s.77,0,1.14-.02c.02,0,.03,0,.04,0,.36-.01.71-.02,1.06-.04.03,0,.05,0,.08,0,.34-.02.67-.04,1-.07.03,0,.05,0,.08,0,.32-.03.64-.06.95-.09.03,0,.05,0,.08,0,.31-.04.61-.07.9-.12.02,0,.04,0,.06,0,.3-.04.58-.09.86-.14.01,0,.03,0,.04,0,.28-.05.56-.11.82-.17,0,0,.01,0,.02,0,.26-.06.5-.12.74-.18.01,0,.02,0,.03,0h0c-1.11-1.11-4.23-1.9-7.91-1.9s-6.81.8-7.91,1.9Z"/>
      <path class="cls-2" d="M103.14,34.24c3.81,0,6.89-1.21,6.89-2.69s-3.09-2.69-6.89-2.69-6.89,1.21-6.89,2.69,3.09,2.69,6.89,2.69Z"/>
      <path class="cls-10" d="M123.74,9.22c2.32.65,5.21,1.04,8.34,1.04s6.03-.39,8.35-1.04v5h1.95v-5.66c2.19-.91,3.52-2.1,3.52-3.42,0-2.83-6.19-5.13-13.82-5.13s-13.82,2.3-13.82,5.13c0,1.31,1.33,2.51,3.52,3.42v5.66h1.95v-5ZM121.25,5.13c0-1.54,4.85-2.79,10.84-2.79s10.84,1.25,10.84,2.79c0,.74-1.11,1.41-2.93,1.9h0s-.02,0-.03,0c-.24.06-.48.13-.74.18,0,0-.01,0-.02,0-.26.06-.54.11-.82.17-.01,0-.03,0-.04,0-.28.05-.57.1-.86.14-.02,0-.04,0-.06,0-.29.04-.59.08-.9.12-.03,0-.05,0-.08,0-.31.03-.62.07-.95.09-.03,0-.06,0-.08,0-.33.03-.66.05-1,.07-.03,0-.05,0-.08,0-.35.02-.7.03-1.06.04-.01,0-.03,0-.05,0-.37.01-.76.02-1.14.02s-.77,0-1.14-.02c-.01,0-.03,0-.05,0-.36-.01-.71-.02-1.06-.04-.03,0-.05,0-.08,0-.34-.02-.67-.04-1-.07-.03,0-.06,0-.08,0-.32-.03-.64-.06-.95-.09-.03,0-.05,0-.08,0-.31-.04-.61-.07-.9-.12-.02,0-.04,0-.07,0-.3-.04-.58-.09-.86-.14-.01,0-.03,0-.04,0-.28-.05-.56-.11-.82-.17,0,0-.01,0-.02,0-.26-.06-.5-.12-.74-.18-.01,0-.02,0-.03,0h0c-1.81-.5-2.93-1.17-2.93-1.9Z"/>
      <path class="cls-10" d="M140.43,81.73c0,4.61-3.74,8.35-8.35,8.35s-8.34-3.74-8.34-8.35V27.65h-1.95v54.02c0,5.69,4.61,10.3,10.3,10.3s10.3-4.61,10.3-10.3V27.65h-1.95v54.08Z"/>
      <path class="cls-11" d="M132.09,10.26c-3.14,0-6.03-.39-8.34-1.04v5h16.69v-5c-2.32.65-5.21,1.04-8.35,1.04Z"/>
      <path class="cls-11" d="M132.09,90.08c4.61,0,8.35-3.74,8.35-8.35V27.65h-16.69v54.08c0,4.61,3.74,8.35,8.34,8.35ZM125.19,48.25c0-1.49,3.09-2.69,6.89-2.69s6.89,1.21,6.89,2.69v32.59c0,3.75-3.04,6.79-6.79,6.79h-.2c-3.75,0-6.79-3.04-6.79-6.79v-32.59Z"/>
      <path class="cls-7" d="M131.99,87.63h.2c3.75,0,6.79-3.04,6.79-6.79v-32.59c0,1.49-3.09,2.69-6.89,2.69s-6.89-1.21-6.89-2.69v32.59c0,3.75,3.04,6.79,6.79,6.79Z"/>
      <path class="cls-11" d="M132.09,5.13c3.68,0,6.81.8,7.91,1.9,1.81-.5,2.93-1.17,2.93-1.9,0-1.54-4.85-2.79-10.84-2.79s-10.84,1.25-10.84,2.79c0,.74,1.11,1.41,2.93,1.9,1.11-1.11,4.23-1.9,7.91-1.9Z"/>
      <path class="cls-12" d="M124.17,7.03h0s.02,0,.03,0c.24.06.48.13.74.18,0,0,.01,0,.02,0,.26.06.54.11.82.17.01,0,.03,0,.04,0,.28.05.57.1.86.14.02,0,.04,0,.07,0,.29.04.59.08.9.12.03,0,.05,0,.08,0,.31.03.62.07.95.09.03,0,.06,0,.08,0,.33.03.66.05,1,.07.03,0,.05,0,.08,0,.35.02.7.03,1.06.04.02,0,.03,0,.05,0,.38.01.76.02,1.14.02s.77,0,1.14-.02c.02,0,.03,0,.05,0,.36-.01.71-.02,1.06-.04.03,0,.05,0,.08,0,.34-.02.67-.04,1-.07.03,0,.06,0,.08,0,.32-.03.64-.06.95-.09.03,0,.05,0,.08,0,.31-.04.61-.07.9-.12.02,0,.04,0,.06,0,.3-.04.58-.09.86-.14.01,0,.03,0,.04,0,.28-.05.56-.11.82-.17,0,0,.01,0,.02,0,.26-.06.5-.12.74-.18.01,0,.02,0,.03,0h0c-1.11-1.11-4.23-1.9-7.91-1.9s-6.81.8-7.91,1.9Z"/>
      <path class="cls-1" d="M132.09,50.94c3.81,0,6.89-1.21,6.89-2.69s-3.09-2.69-6.89-2.69-6.89,1.21-6.89,2.69,3.09,2.69,6.89,2.69Z"/>
      <polygon class="cls-12" points="36.9 27.65 53.59 27.65 55.54 27.65 55.54 25.25 34.95 25.25 34.95 27.65 36.9 27.65"/>
      <polygon class="cls-12" points="65.85 27.65 82.54 27.65 84.49 27.65 84.49 25.25 63.89 25.25 63.89 27.65 65.85 27.65"/>
      <polygon class="cls-12" points="94.79 27.65 111.48 27.65 113.44 27.65 113.44 25.25 92.84 25.25 92.84 27.65 94.79 27.65"/>
      <polygon class="cls-12" points="123.74 27.65 140.43 27.65 142.39 27.65 142.39 25.25 121.79 25.25 121.79 27.65 123.74 27.65"/>
      <rect class="cls-4" x="15.46" y="16.65" width="145.09" height="3.08"/>
      <polygon class="cls-4" points="102.88 22.33 147.94 22.33 158.34 22.33 160.55 22.33 160.55 20.79 102.88 20.79 102.88 22.33"/>
    </g>
  </g>
</svg>