<?xml version="1.0" encoding="UTF-8"?>
<svg id="Layer_2" data-name="Layer 2" xmlns="http://www.w3.org/2000/svg" viewBox="0 0 83.76 182.52">
  <defs>
    <style>
      .cls-1 {
        fill: #abadae;
      }

      .cls-1, .cls-2, .cls-3, .cls-4, .cls-5, .cls-6, .cls-7 {
        stroke-width: 0px;
      }

      .cls-2 {
        fill: #b9babc;
      }

      .cls-3 {
        fill: #fcd377;
      }

      .cls-4 {
        fill: #8dd3f6;
      }

      .cls-5 {
        fill: #71cbf4;
      }

      .cls-6 {
        fill: #3abff0;
      }

      .cls-7 {
        fill: #eac06b;
      }
    </style>
  </defs>
  <g id="Capa_1" data-name="Capa 1">
    <g>
      <path class="cls-4" d="M83.67,150.58c.06-.22.1-.44.1-.67h0c0-3.06-5.77-5.8-14.85-7.63V14.04c2.26-1.33,3.55-2.85,3.55-4.45,0-5.29-13.87-9.58-30.98-9.58S10.5,4.29,10.5,9.58c0,1.61,1.28,3.12,3.54,4.45v128.41c-8.61,1.83-14.05,4.5-14.05,7.47h0c0,.15.02.3.05.45v22.17c0,5.52,18.73,10,41.83,10s41.83-4.48,41.83-10h0v-21.97c-.32,1.15-1.45,2.25-3.26,3.26,1.78-1,2.9-2.09,3.21-3.23Z"/>
      <path class="cls-2" d="M.05,150.36v22.17c0,5.52,18.73,10,41.83,10s41.83-4.48,41.83-10h0v-21.97c-.32,1.15-1.45,2.25-3.26,3.26-6.36,3.58-21.24,6.1-38.58,6.1-22.5,0-40.85-4.24-41.83-9.55Z"/>
      <path class="cls-1" d="M83.67,150.58c.06-.22.1-.44.1-.67h0c0-3.06-5.77-5.8-14.85-7.63v7.51c0,2.95-12.28,5.35-27.43,5.35s-27.43-2.39-27.43-5.35v-7.34c-8.61,1.83-14.05,4.5-14.05,7.47h0c0,.15.02.3.05.45.98,5.31,19.33,9.55,41.83,9.55,17.34,0,32.21-2.52,38.58-6.1,1.78-1,2.9-2.09,3.21-3.23Z"/>
      <path class="cls-5" d="M15.81,14.95v132.45c0,.15.04.3.11.45,1.16,2.55,12.16,4.55,25.56,4.55s24.4-2,25.56-4.55c.07-.15.11-.3.11-.45V14.95c-5.57,2.54-14.99,4.21-25.67,4.21s-20.1-1.67-25.67-4.22ZM20.67,31.02h13.99c.54,0,.98.44.98.98s-.44.98-.98.98h-13.99c-.54,0-.98-.44-.98-.98s.44-.98.98-.98ZM20.67,39.8h13.99c.54,0,.98.44.98.98s-.44.98-.98.98h-13.99c-.54,0-.98-.44-.98-.98s.44-.98.98-.98ZM65.35,50.71v95.36c0,2.66-10.69,4.81-23.88,4.81s-23.88-2.16-23.88-4.81V50.71h0c0-2.53,10.69-4.58,23.87-4.58s23.87,2.05,23.87,4.58Z"/>
      <path class="cls-3" d="M41.48,55.29c-13.18,0-23.87-2.05-23.87-4.58h0v95.36c0,2.66,10.69,4.81,23.88,4.81s23.88-2.16,23.88-4.81V50.71c0,2.53-10.69,4.58-23.87,4.58ZM34.66,144.98h-13.99c-.54,0-.98-.44-.98-.98s.44-.98.98-.98h13.99c.54,0,.98.44.98.98s-.44.98-.98.98ZM34.66,136.73h-13.99c-.54,0-.98-.44-.98-.98s.44-.98.98-.98h13.99c.54,0,.98.44.98.98s-.44.98-.98.98ZM34.66,128.47h-13.99c-.54,0-.98-.44-.98-.98s.44-.98.98-.98h13.99c.54,0,.98.44.98.98s-.44.98-.98.98ZM34.66,120.22h-13.99c-.54,0-.98-.44-.98-.98s.44-.98.98-.98h13.99c.54,0,.98.44.98.98s-.44.98-.98.98ZM34.66,111.97h-13.99c-.54,0-.98-.44-.98-.98s.44-.98.98-.98h13.99c.54,0,.98.44.98.98s-.44.98-.98.98ZM34.66,103.19h-13.99c-.54,0-.98-.44-.98-.98s.44-.98.98-.98h13.99c.54,0,.98.44.98.98s-.44.98-.98.98ZM34.66,94.42h-13.99c-.54,0-.98-.44-.98-.98s.44-.98.98-.98h13.99c.54,0,.98.44.98.98s-.44.98-.98.98ZM34.66,85.64h-13.99c-.54,0-.98-.44-.98-.98s.44-.98.98-.98h13.99c.54,0,.98.44.98.98s-.44.98-.98.98ZM34.66,76.86h-13.99c-.54,0-.98-.44-.98-.98s.44-.98.98-.98h13.99c.54,0,.98.44.98.98s-.44.98-.98.98ZM34.66,68.09h-13.99c-.54,0-.98-.44-.98-.98s.44-.98.98-.98h13.99c.54,0,.98.44.98.98s-.44.98-.98.98ZM34.66,59.31h-13.99c-.54,0-.98-.44-.98-.98s.44-.98.98-.98h13.99c.54,0,.98.44.98.98s-.44.98-.98.98Z"/>
      <path class="cls-7" d="M17.61,50.71c0,2.53,10.69,4.58,23.87,4.58s23.87-2.05,23.87-4.58-10.69-4.58-23.87-4.58-23.87,2.05-23.87,4.58ZM34.66,50.54h-13.99c-.54,0-.98-.44-.98-.98s.44-.98.98-.98h13.99c.54,0,.98.44.98.98s-.44.98-.98.98Z"/>
      <path class="cls-5" d="M17.61,12.88c4.55-2.7,13.53-4.53,23.87-4.53s19.32,1.84,23.87,4.53c2.26-.97,3.56-2.09,3.56-3.29,0-3.69-12.28-6.68-27.43-6.68s-27.43,2.99-27.43,6.68c0,1.2,1.29,2.32,3.56,3.29Z"/>
      <path class="cls-6" d="M17.61,12.88c4.71,2.02,13.64,3.39,23.87,3.39s19.16-1.37,23.87-3.39c-4.56-2.7-13.53-4.53-23.87-4.53s-19.32,1.84-23.87,4.53Z"/>
      <path class="cls-6" d="M34.66,143.02h-13.99c-.54,0-.98.44-.98.98s.44.98.98.98h13.99c.54,0,.98-.44.98-.98s-.44-.98-.98-.98Z"/>
      <path class="cls-6" d="M34.66,134.76h-13.99c-.54,0-.98.44-.98.98s.44.98.98.98h13.99c.54,0,.98-.44.98-.98s-.44-.98-.98-.98Z"/>
      <path class="cls-6" d="M34.66,126.51h-13.99c-.54,0-.98.44-.98.98s.44.98.98.98h13.99c.54,0,.98-.44.98-.98s-.44-.98-.98-.98Z"/>
      <path class="cls-6" d="M34.66,118.26h-13.99c-.54,0-.98.44-.98.98s.44.98.98.98h13.99c.54,0,.98-.44.98-.98s-.44-.98-.98-.98Z"/>
      <path class="cls-6" d="M34.66,110h-13.99c-.54,0-.98.44-.98.98s.44.98.98.98h13.99c.54,0,.98-.44.98-.98s-.44-.98-.98-.98Z"/>
      <path class="cls-6" d="M34.66,101.23h-13.99c-.54,0-.98.44-.98.98s.44.98.98.98h13.99c.54,0,.98-.44.98-.98s-.44-.98-.98-.98Z"/>
      <path class="cls-6" d="M34.66,92.45h-13.99c-.54,0-.98.44-.98.98s.44.98.98.98h13.99c.54,0,.98-.44.98-.98s-.44-.98-.98-.98Z"/>
      <path class="cls-6" d="M34.66,83.68h-13.99c-.54,0-.98.44-.98.98s.44.98.98.98h13.99c.54,0,.98-.44.98-.98s-.44-.98-.98-.98Z"/>
      <path class="cls-6" d="M34.66,74.9h-13.99c-.54,0-.98.44-.98.98s.44.98.98.98h13.99c.54,0,.98-.44.98-.98s-.44-.98-.98-.98Z"/>
      <path class="cls-6" d="M34.66,66.13h-13.99c-.54,0-.98.44-.98.98s.44.98.98.98h13.99c.54,0,.98-.44.98-.98s-.44-.98-.98-.98Z"/>
      <path class="cls-6" d="M34.66,57.35h-13.99c-.54,0-.98.44-.98.98s.44.98.98.98h13.99c.54,0,.98-.44.98-.98s-.44-.98-.98-.98Z"/>
      <path class="cls-6" d="M34.66,48.57h-13.99c-.54,0-.98.44-.98.98s.44.98.98.98h13.99c.54,0,.98-.44.98-.98s-.44-.98-.98-.98Z"/>
      <path class="cls-6" d="M20.67,41.76h13.99c.54,0,.98-.44.98-.98s-.44-.98-.98-.98h-13.99c-.54,0-.98.44-.98.98s.44.98.98.98Z"/>
      <path class="cls-6" d="M20.67,32.99h13.99c.54,0,.98-.44.98-.98s-.44-.98-.98-.98h-13.99c-.54,0-.98.44-.98.98s.44.98.98.98Z"/>
    </g>
  </g>
</svg>