<?xml version="1.0" encoding="UTF-8"?>
<svg id="Layer_2" data-name="Layer 2" xmlns="http://www.w3.org/2000/svg" viewBox="0 0 162.26 182.23">
  <defs>
    <style>
      .cls-1 {
        fill: #abadae;
      }

      .cls-1, .cls-2, .cls-3, .cls-4, .cls-5, .cls-6, .cls-7 {
        stroke-width: 0px;
      }

      .cls-2 {
        fill: #e25e5d;
      }

      .cls-3 {
        fill: #ea544f;
      }

      .cls-4 {
        fill: #fcd377;
      }

      .cls-5 {
        fill: #f7cd70;
      }

      .cls-6 {
        fill: #ec6360;
      }

      .cls-7 {
        fill: #eac06b;
      }
    </style>
  </defs>
  <g id="Capa_1" data-name="Capa 1">
    <g>
      <g>
        <polygon class="cls-1" points="1.32 47.16 1.32 47.16 1.32 47.15 1.32 47.16"/>
        <path class="cls-1" d="M160.83,122.98c-1.6-4.04-4.41-8.36-8.23-12.93-5.3-6.33-12.57-13.14-21.38-20.05,4.08-3.15,7.83-6.26,11.2-9.31,6.03-5.44,10.86-10.64,14.25-15.44,1.69-2.4,3.03-4.7,3.96-6.91.93-2.21,1.47-4.35,1.47-6.44,0-1.67-.37-3.31-1.17-4.76-.62-1.14-1.49-2.11-2.51-2.91-1.54-1.19-3.4-1.98-5.51-2.49-2.11-.51-4.47-.74-7.08-.74-4.36,0-9.42.64-15.06,1.85-7.64,1.64-16.37,4.33-25.78,7.95-.33-2.44-.7-4.82-1.09-7.13,5.33-1.37,9.26-6.2,9.26-11.95,0-6.82-5.52-12.34-12.34-12.34-.98,0-1.93.12-2.85.33-2.03-5.7-4.31-10.34-6.93-13.76-1.38-1.79-2.86-3.25-4.51-4.3-.82-.52-1.69-.94-2.6-1.23C83.04.15,82.09,0,81.13,0c-1.14,0-2.26.22-3.32.61-1.99.75-3.75,2.1-5.36,3.86-1.4,1.54-2.69,3.41-3.91,5.59-2.13,3.8-4.03,8.54-5.71,14.07-2.16,7.09-3.95,15.49-5.31,24.86-1.85-.68-3.68-1.33-5.48-1.94-6.57-2.22-12.75-3.92-18.4-5.08-5.65-1.15-10.77-1.76-15.25-1.76-3.96,0-7.42.47-10.34,1.55-1.46.54-2.78,1.24-3.92,2.14-1.14.89-2.11,1.99-2.8,3.26C.41,48.79,0,50.64,0,52.54c0,2.16.52,4.4,1.43,6.71,1.6,4.04,4.41,8.36,8.23,12.93,5.3,6.33,12.57,13.14,21.38,20.05-4.08,3.15-7.83,6.26-11.2,9.31-6.03,5.44-10.86,10.64-14.25,15.44-1.69,2.4-3.03,4.7-3.96,6.91-.93,2.21-1.47,4.35-1.47,6.44,0,1.67.37,3.31,1.17,4.76.62,1.13,1.49,2.11,2.51,2.91,1.54,1.19,3.4,1.98,5.51,2.49,2.11.51,4.47.74,7.08.74,4.36,0,9.42-.64,15.06-1.85,7.64-1.64,16.37-4.33,25.78-7.95.81,5.94,1.8,11.52,2.95,16.63,1.12,5,2.38,9.57,3.78,13.62,2.1,6.08,4.48,11.01,7.22,14.59,1.38,1.79,2.86,3.25,4.51,4.3.82.52,1.69.94,2.6,1.23.91.29,1.86.44,2.82.44,1.14,0,2.26-.22,3.32-.61,1.99-.75,3.75-2.1,5.36-3.86,1.4-1.54,2.69-3.41,3.91-5.59,2.13-3.8,4.03-8.54,5.71-14.07,2.16-7.09,3.95-15.49,5.31-24.86,1.85.68,3.68,1.33,5.48,1.94.26.09.51.17.77.25.08,7.08,5.83,12.79,12.93,12.79,4.93,0,9.22-2.76,11.4-6.83,3.06.41,5.92.62,8.55.63,3.96,0,7.42-.47,10.34-1.55,1.46-.54,2.78-1.24,3.92-2.14,1.14-.89,2.11-1.99,2.8-3.26.9-1.64,1.32-3.49,1.32-5.38,0-2.16-.52-4.4-1.43-6.71ZM48.42,129.43c-6.51,2.25-12.56,3.98-17.97,5.14-5.4,1.16-10.16,1.74-14.04,1.74-3.09,0-5.61-.38-7.41-1.04-.9-.33-1.61-.72-2.16-1.15-.55-.43-.94-.88-1.22-1.4-.36-.66-.56-1.41-.56-2.39,0-1.21.33-2.75,1.09-4.53,1.31-3.13,3.88-6.96,7.54-11.14,5.16-5.9,12.46-12.53,21.39-19.33,6.09,4.55,12.82,9.11,20.07,13.55.32,5.91.8,11.61,1.42,17.04.02.16.04.32.06.49-2.8,1.09-5.54,2.11-8.2,3.03ZM54.88,102.93c-5.59-3.52-10.85-7.1-15.69-10.67,4.82-3.51,10.04-7.05,15.61-10.54-.09,3.09-.13,6.23-.13,9.4,0,4.01.08,7.95.22,11.81ZM55.02,75.8c-7.19,4.41-13.87,8.91-19.92,13.37-4.58-3.54-8.73-7.05-12.39-10.46-5.75-5.36-10.28-10.47-13.32-15-1.52-2.26-2.66-4.37-3.4-6.26-.75-1.89-1.09-3.55-1.09-4.91,0-1.2.25-2.17.71-3.01h0c.36-.66.86-1.24,1.53-1.77,1.01-.79,2.46-1.47,4.35-1.93,1.89-.46,4.21-.71,6.88-.71,4.03,0,8.85.56,14.26,1.66,7.17,1.47,15.38,3.89,24.2,7.2-.85,6.86-1.47,14.18-1.83,21.83ZM102.02,70.3c-2.35-1.38-4.74-2.74-7.17-4.08-1.98-1.09-3.95-2.15-5.92-3.17,4.08-1.92,8.09-3.69,11.99-5.31.45,4.04.82,8.24,1.11,12.56ZM65,35.25c1.08-4.85,2.31-9.25,3.63-13.09,1.98-5.76,4.22-10.29,6.47-13.2,1.12-1.46,2.23-2.51,3.25-3.15.51-.32.99-.55,1.45-.69.46-.14.9-.21,1.34-.21.52,0,1.04.09,1.59.3,1.03.38,2.22,1.21,3.45,2.57,1.08,1.18,2.18,2.75,3.26,4.68,1.42,2.54,2.8,5.69,4.08,9.35-3.05,2.25-5.02,5.86-5.02,9.93,0,6.18,4.55,11.31,10.48,12.2.49,2.81.93,5.73,1.33,8.75-5.45,2.23-11.1,4.75-16.88,7.55-7.27-3.61-14.39-6.78-21.2-9.46.78-5.56,1.71-10.76,2.78-15.53ZM61.44,56.88c.04-.36.09-.71.13-1.07,5.27,2.11,10.73,4.51,16.3,7.19-3.13,1.6-6.29,3.26-9.47,5.01-2.83,1.56-5.6,3.14-8.31,4.74.32-5.5.77-10.81,1.35-15.86ZM60.24,111.93c2.35,1.38,4.74,2.74,7.17,4.08,1.98,1.09,3.95,2.15,5.92,3.17-4.08,1.92-8.09,3.69-11.99,5.31-.45-4.04-.82-8.24-1.1-12.56ZM97.26,146.98c-1.08,4.85-2.31,9.25-3.63,13.09-1.98,5.76-4.22,10.29-6.47,13.2-1.12,1.46-2.23,2.51-3.25,3.15-.51.32-.99.55-1.45.69-.46.14-.9.21-1.34.21-.52,0-1.04-.09-1.59-.3-1.03-.38-2.22-1.21-3.45-2.57-1.08-1.18-2.18-2.75-3.26-4.68-1.89-3.37-3.69-7.81-5.3-13.1-2.29-7.51-4.2-16.74-5.57-27.13,5.45-2.23,11.1-4.75,16.88-7.55,7.27,3.61,14.39,6.78,21.2,9.46-.78,5.56-1.71,10.76-2.78,15.53ZM100.82,125.35c-.04.36-.09.71-.13,1.07-5.27-2.11-10.73-4.51-16.3-7.19,3.13-1.6,6.29-3.26,9.47-5.01,2.83-1.56,5.6-3.14,8.31-4.73-.32,5.5-.77,10.81-1.35,15.86ZM102.45,103.6c-3.54,2.13-7.2,4.24-10.96,6.32-4.25,2.34-8.46,4.53-12.61,6.59-3.01-1.53-6.04-3.12-9.09-4.8-3.38-1.86-6.67-3.76-9.87-5.68-.22-4.85-.34-9.83-.34-14.91,0-4.24.09-8.41.24-12.49,3.54-2.13,7.19-4.24,10.96-6.32,4.25-2.34,8.46-4.53,12.61-6.59,3.01,1.53,6.04,3.12,9.09,4.8,3.38,1.86,6.68,3.76,9.87,5.68.22,4.85.34,9.83.34,14.91,0,4.24-.09,8.41-.24,12.49ZM113.84,52.81c6.51-2.25,12.56-3.98,17.97-5.14,5.4-1.16,10.16-1.74,14.04-1.74,3.09,0,5.61.38,7.41,1.04.9.33,1.62.72,2.16,1.15.55.43.94.88,1.22,1.4.36.66.56,1.41.56,2.39,0,1.21-.33,2.75-1.09,4.53-1.31,3.13-3.88,6.96-7.54,11.14-5.16,5.9-12.47,12.53-21.39,19.33-6.09-4.55-12.82-9.11-20.07-13.55-.32-5.91-.8-11.61-1.42-17.04-.02-.16-.04-.32-.06-.49,2.8-1.09,5.54-2.11,8.2-3.03ZM107.38,79.3c5.59,3.52,10.85,7.1,15.69,10.67-4.82,3.51-10.04,7.05-15.61,10.54.09-3.09.13-6.23.13-9.4,0-4.01-.08-7.95-.22-11.81ZM156.64,132.71c-.36.66-.86,1.23-1.53,1.76-1.01.79-2.46,1.47-4.35,1.93-1.89.46-4.21.71-6.88.71-2.15,0-4.52-.16-7.09-.48.05-.44.07-.89.07-1.34,0-7.14-5.79-12.93-12.93-12.93-5.47,0-10.14,3.4-12.03,8.2-2.12-.71-4.27-1.48-6.47-2.3.85-6.86,1.47-14.18,1.83-21.83,7.19-4.41,13.87-8.91,19.92-13.37,4.58,3.54,8.73,7.05,12.39,10.46,5.75,5.36,10.28,10.47,13.31,15,1.52,2.26,2.65,4.37,3.4,6.26.75,1.89,1.09,3.55,1.09,4.91,0,1.2-.25,2.17-.71,3.01Z"/>
        <path class="cls-6" d="M81.13,74.99c-8.9,0-16.12,7.22-16.12,16.12s7.22,16.12,16.12,16.12,16.12-7.22,16.12-16.12-7.22-16.12-16.12-16.12Z"/>
        <path class="cls-4" d="M25.44,73.02c0,4.91,3.98,8.89,8.89,8.89s8.89-3.98,8.89-8.89-3.98-8.89-8.89-8.89-8.89,3.98-8.89,8.89Z"/>
      </g>
      <polygon class="cls-1" points="1.32 47.16 1.32 47.16 1.32 47.15 1.32 47.16"/>
      <path class="cls-2" d="M72.57,80.49c-1.96,1.59-2.52,4.14-1.25,5.71,1.27,1.57,3.89,1.55,5.85-.03,1.96-1.59,2.52-4.14,1.26-5.71-1.27-1.57-3.89-1.55-5.85.03Z"/>
      <path class="cls-3" d="M80.35,104.88c1.27,1.57,5.53.22,9.52-3,3.99-3.22,6.19-7.11,4.93-8.68-1.27-1.57-5.53-.22-9.52,3-3.99,3.22-6.19,7.11-4.93,8.68Z"/>
      <path class="cls-4" d="M88.49,31.74c0,6.18,4.55,11.31,10.48,12.2.6.09,1.22.14,1.85.14,1.06,0,2.09-.13,3.08-.39,5.33-1.37,9.26-6.2,9.26-11.95,0-6.82-5.52-12.34-12.34-12.34-.98,0-1.93.12-2.85.33-1.64.39-3.16,1.1-4.47,2.07-3.05,2.25-5.02,5.86-5.02,9.93ZM104,35.63c3.05-2.47,6.31-3.5,7.28-2.3.97,1.2-.72,4.17-3.77,6.64-3.05,2.47-6.31,3.5-7.28,2.3-.97-1.2.72-4.17,3.77-6.64ZM94.28,23.61c1.5-1.21,3.5-1.22,4.47-.02.97,1.2.54,3.16-.96,4.37-1.5,1.21-3.5,1.22-4.48.02-.97-1.2-.54-3.16.96-4.37Z"/>
      <path class="cls-7" d="M93.32,27.98c.97,1.2,2.97,1.19,4.48-.02,1.5-1.21,1.93-3.17.96-4.37-.97-1.2-2.97-1.19-4.47.02-1.5,1.21-1.93,3.17-.96,4.37Z"/>
      <path class="cls-5" d="M107.51,39.98c3.05-2.47,4.74-5.44,3.77-6.64-.97-1.2-4.23-.17-7.28,2.3-3.05,2.47-4.74,5.44-3.77,6.64.97,1.2,4.23.17,7.28-2.3Z"/>
      <path class="cls-7" d="M32.14,70.29c1.08-.87,1.39-2.28.69-3.15-.7-.86-2.14-.86-3.22.02s-1.39,2.28-.69,3.15c.7.86,2.14.86,3.22-.02Z"/>
      <path class="cls-5" d="M39.15,78.95c2.2-1.78,3.42-3.92,2.72-4.78-.7-.86-3.05-.12-5.25,1.65-2.2,1.78-3.42,3.92-2.72,4.78.7.86,3.05.12,5.25-1.65Z"/>
      <path class="cls-4" d="M136.85,135.3c0-7.14-5.79-12.93-12.93-12.93-5.47,0-10.14,3.4-12.03,8.2-.58,1.47-.9,3.06-.9,4.73,0,.05,0,.09,0,.14.08,7.08,5.83,12.79,12.93,12.79,4.93,0,9.22-2.76,11.4-6.83.78-1.44,1.28-3.05,1.46-4.76.05-.44.07-.89.07-1.34ZM120.74,131.33c-1.57,1.27-3.67,1.28-4.69.03-1.02-1.26-.57-3.31,1.01-4.58,1.57-1.27,3.67-1.28,4.69-.03,1.02,1.26.57,3.31-1.01,4.58ZM130.93,143.93c-3.2,2.59-6.62,3.66-7.63,2.41-1.02-1.26.75-4.37,3.95-6.96,3.2-2.59,6.62-3.66,7.63-2.41,1.02,1.26-.75,4.37-3.95,6.96Z"/>
      <path class="cls-7" d="M117.06,126.78c-1.57,1.27-2.02,3.32-1.01,4.58,1.02,1.26,3.12,1.25,4.69-.03,1.57-1.27,2.02-3.32,1.01-4.58-1.02-1.26-3.12-1.25-4.69.03Z"/>
      <path class="cls-5" d="M127.24,139.38c-3.2,2.59-4.97,5.7-3.95,6.96,1.02,1.26,4.43.18,7.63-2.41,3.2-2.59,4.97-5.7,3.95-6.96-1.02-1.26-4.44-.18-7.63,2.41Z"/>
    </g>
  </g>
</svg>