<?xml version="1.0" encoding="UTF-8"?>
<svg id="Layer_2" data-name="Layer 2" xmlns="http://www.w3.org/2000/svg" viewBox="0 0 183.52 176.04">
  <defs>
    <style>
      .cls-1 {
        fill: #ea8a68;
      }

      .cls-1, .cls-2, .cls-3, .cls-4, .cls-5 {
        stroke-width: 0px;
      }

      .cls-2 {
        fill: #8dd3f6;
      }

      .cls-3 {
        fill: #71cbf4;
      }

      .cls-4 {
        fill: #3abff0;
      }

      .cls-5 {
        fill: #e77361;
      }
    </style>
  </defs>
  <g id="Capa_1" data-name="Capa 1">
    <g>
      <path class="cls-2" d="M178.64,56.23c-4.84-5.86-11.19-8.6-14.19-6.13-1.39,1.15-1.8,3.21-1.38,5.68l-32.05,26.46c-4.39-4.11-9.47-7.5-15.05-9.98V18.26c4.67-1.94,7.52-4.5,7.52-7.3,0-6.05-13.22-10.96-29.52-10.96s-29.52,4.91-29.52,10.96c0,2.81,2.84,5.36,7.52,7.3v54c-6.45,2.87-12.24,6.96-17.07,11.98l-34.47-28.45c.42-2.47,0-4.54-1.38-5.68-3-2.47-9.35.27-14.19,6.13C.04,62.09-1.45,68.84,1.55,71.32c1.39,1.15,3.5,1.17,5.85.28l36.29,29.96c-2.52,6.26-3.92,13.1-3.92,20.26,0,29.94,24.27,54.22,54.22,54.22s54.22-24.27,54.22-54.22c0-8.21-1.83-15.99-5.09-22.96l33.02-27.26c2.35.89,4.46.86,5.85-.28,3-2.47,1.51-9.23-3.33-15.09Z"/>
      <path class="cls-3" d="M13.25,63.14c3.79-4.6,5.55-9.41,3.92-10.76-1.63-1.34-6.03,1.29-9.82,5.89-3.79,4.6-5.55,9.41-3.92,10.76,1.63,1.35,6.03-1.29,9.82-5.89ZM7.17,68.34c-.47-1.82.67-4.91,3-7.74,2.33-2.83,5.16-4.53,7.03-4.41-.68,1.99-2.1,4.45-4.08,6.85-1.98,2.4-4.12,4.26-5.95,5.3Z"/>
      <path class="cls-4" d="M17.2,56.18c-1.87-.12-4.7,1.59-7.03,4.41-2.33,2.83-3.47,5.92-3,7.74,1.83-1.04,3.97-2.91,5.95-5.3,1.98-2.4,3.4-4.86,4.08-6.85Z"/>
      <path class="cls-3" d="M117.14,10.96c0-3.29-10.37-5.96-23.16-5.96s-23.16,2.67-23.16,5.96,10.37,5.96,23.16,5.96,23.16-2.67,23.16-5.96ZM93.98,10.69c7.87,0,14.54,1.7,16.91,4.07-4.23,1.16-10.24,1.89-16.91,1.89s-12.68-.73-16.91-1.89c2.36-2.36,9.04-4.07,16.91-4.07Z"/>
      <path class="cls-4" d="M110.89,14.76c-2.36-2.36-9.04-4.07-16.91-4.07s-14.54,1.7-16.91,4.07c4.23,1.16,10.24,1.89,16.91,1.89s12.68-.73,16.91-1.89Z"/>
      <path class="cls-3" d="M167.78,65.19c-1.99-2.41-3.4-4.97-4.18-7.32l-33.48,27.64c-.46-.46-.94-.91-1.42-1.35-4.86-4.48-10.58-8.03-16.9-10.38V19.69c-4.95,1.4-11.13,2.23-17.83,2.23s-12.87-.83-17.83-2.23v54.09c-7.22,2.68-13.67,6.94-18.93,12.36-.45.47-.9.94-1.33,1.42l-35.97-29.7c-.78,2.35-2.19,4.91-4.18,7.32-1.99,2.41-4.23,4.29-6.39,5.5l37.52,30.98c-.27.62-.52,1.25-.76,1.89-2.17,5.67-3.36,11.83-3.36,18.26,0,28.3,22.94,51.23,51.23,51.23s51.23-22.94,51.23-51.23c0-7.48-1.6-14.59-4.49-21-.27-.61-.56-1.21-.86-1.81l34.31-28.33c-2.16-1.21-4.4-3.09-6.39-5.5ZM141.81,121.82c0,26.42-21.41,47.83-47.83,47.83s-47.83-21.41-47.83-47.83c0-13.2,5.35-25.16,14-33.81h.01c.2-2.8,6.54-5.25,15.99-6.63,5.18-.76,11.28-1.2,17.83-1.2s12.65.44,17.83,1.2c8.89,1.3,15.02,3.54,15.89,6.14.05.16.09.33.1.5h.01c3.82,3.83,7,8.3,9.36,13.23,2.98,6.23,4.64,13.21,4.64,20.58Z"/>
      <path class="cls-3" d="M166.34,52.38c-1.63,1.35.13,6.16,3.92,10.76,3.79,4.6,8.19,7.23,9.82,5.89,1.63-1.34-.13-6.16-3.92-10.76s-8.19-7.23-9.82-5.89ZM176.34,68.34c-1.83-1.04-3.97-2.91-5.95-5.3-1.98-2.4-3.4-4.86-4.08-6.85,1.87-.12,4.7,1.59,7.03,4.41,2.33,2.83,3.47,5.92,3,7.74Z"/>
      <path class="cls-4" d="M166.31,56.18c.68,1.99,2.1,4.45,4.08,6.85,1.98,2.4,4.12,4.26,5.95,5.3.47-1.82-.67-4.91-3-7.74-2.34-2.83-5.16-4.53-7.03-4.41Z"/>
      <path class="cls-1" d="M127.81,88.01h-.01s.01.09.01.14c0,4.4-15.15,7.97-33.83,7.97s-33.83-3.57-33.83-7.97c0-.05.01-.09.01-.14h-.01c-8.65,8.66-14,20.61-14,33.81,0,26.42,21.41,47.83,47.83,47.83s47.83-21.41,47.83-47.83c0-7.37-1.67-14.35-4.64-20.58-2.36-4.94-5.53-9.41-9.36-13.23Z"/>
      <path class="cls-5" d="M93.98,96.12c18.68,0,33.83-3.57,33.83-7.97,0-.05-.01-.09-.01-.14-.01-.17-.05-.33-.1-.5-.87-2.59-7-4.84-15.89-6.14-5.18-.76-11.28-1.2-17.83-1.2s-12.65.44-17.83,1.2c-9.45,1.38-15.78,3.83-15.99,6.63,0,.05-.01.09-.01.14,0,4.4,15.15,7.97,33.83,7.97Z"/>
    </g>
  </g>
</svg>