<?xml version="1.0" encoding="UTF-8"?>
<svg id="Layer_2" data-name="Layer 2" xmlns="http://www.w3.org/2000/svg" viewBox="0 0 110.23 180.51">
  <defs>
    <style>
      .cls-1 {
        fill: #8dd3f6;
      }

      .cls-1, .cls-2, .cls-3 {
        stroke-width: 0px;
      }

      .cls-2 {
        fill: #71cbf4;
      }

      .cls-3 {
        fill: #3abff0;
      }
    </style>
  </defs>
  <g id="Capa_1" data-name="Capa 1">
    <g>
      <path class="cls-1" d="M110.23,14.11h0c0-7.79-24.67-14.11-55.11-14.11S0,6.31,0,14.1h0c0,.32.05.64.13.95h-.13c.13.25.26.5.4.74.08.17.16.33.26.5,5.18,9.67,11.74,20.41,20.02,31.57,7.18,9.67,14.41,17.98,21.24,25.05v102.39c0,4.51,5.35,6.88,8.69,3.85l14.62-13.27c1.09-.98,1.7-2.38,1.7-3.85v-87.72c7.22-7.37,14.95-16.15,22.6-26.46,8.32-11.2,14.89-21.97,20.08-31.67.06-.1.12-.21.17-.32.15-.27.3-.55.44-.82h-.13s0,0,0,0c.08-.31.12-.62.12-.94Z"/>
      <path class="cls-2" d="M7.19,21.07c4.44,8,9.89,16.7,16.58,25.71,6.12,8.24,12.29,15.41,18.15,21.57.8.84,1.59,1.66,2.37,2.46v28.4h8.67c.54,0,.98.44.98.98s-.44.98-.98.98h-8.67v10.13h8.67c.54,0,.98.44.98.98s-.44.98-.98.98h-8.67v10.13h8.67c.54,0,.98.44.98.98s-.44.98-.98.98h-8.67v10.13h8.67c.54,0,.98.44.98.98s-.44.98-.98.98h-8.67v10.13h8.67c.54,0,.98.44.98.98s-.44.98-.98.98h-8.67v10.13h8.67c.54,0,.98.44.98.98s-.44.98-.98.98h-8.67v6.61c0,4.55,5.44,6.91,8.76,3.79l11.51-10.82v-89c.78-.79,1.58-1.59,2.37-2.42,6.27-6.48,12.92-14.11,19.52-23,6.69-9.01,12.14-17.72,16.58-25.71-9.48,4.26-27.39,7.13-47.92,7.13s-38.44-2.87-47.92-7.13Z"/>
      <path class="cls-3" d="M53.95,160.64c0-.54-.44-.98-.98-.98h-8.67c-.54,0-.98.44-.98.98s.44.98.98.98h8.67c.54,0,.98-.44.98-.98Z"/>
      <path class="cls-3" d="M53.95,148.56c0-.54-.44-.98-.98-.98h-8.67c-.54,0-.98.44-.98.98s.44.98.98.98h8.67c.54,0,.98-.44.98-.98Z"/>
      <path class="cls-3" d="M53.95,136.47c0-.54-.44-.98-.98-.98h-8.67c-.54,0-.98.44-.98.98s.44.98.98.98h8.67c.54,0,.98-.44.98-.98Z"/>
      <path class="cls-3" d="M53.95,124.38c0-.54-.44-.98-.98-.98h-8.67c-.54,0-.98.44-.98.98s.44.98.98.98h8.67c.54,0,.98-.44.98-.98Z"/>
      <path class="cls-3" d="M53.95,112.29c0-.54-.44-.98-.98-.98h-8.67c-.54,0-.98.44-.98.98s.44.98.98.98h8.67c.54,0,.98-.44.98-.98Z"/>
      <path class="cls-3" d="M53.95,100.2c0-.54-.44-.98-.98-.98h-8.67c-.54,0-.98.44-.98.98s.44.98.98.98h8.67c.54,0,.98-.44.98-.98Z"/>
      <path class="cls-2" d="M9.78,18.31c7.7-3.64,25.1-6.18,45.33-6.18s37.63,2.54,45.33,6.18c2.29-1.09,3.73-2.27,4.12-3.51.07-.23.11-.46.11-.69h0c0-5.74-22.19-10.39-49.56-10.39S5.55,8.37,5.55,14.1h0c0,1.5,1.51,2.92,4.23,4.21Z"/>
      <path class="cls-3" d="M9.78,18.31c7.7,3.64,25.1,6.18,45.33,6.18s37.63-2.54,45.33-6.19c-7.7-3.64-25.1-6.18-45.33-6.18s-37.63,2.54-45.33,6.18Z"/>
    </g>
  </g>
</svg>