<?xml version="1.0" encoding="UTF-8"?>
<svg id="Layer_2" data-name="Layer 2" xmlns="http://www.w3.org/2000/svg" viewBox="0 0 180.86 122.3">
  <defs>
    <style>
      .cls-1 {
        fill: #6ba55f;
      }

      .cls-1, .cls-2, .cls-3, .cls-4, .cls-5, .cls-6 {
        stroke-width: 0px;
      }

      .cls-2 {
        fill: #f9dca0;
      }

      .cls-3 {
        fill: #b9babc;
      }

      .cls-4 {
        fill: #86c276;
      }

      .cls-5 {
        fill: #fcd377;
      }

      .cls-6 {
        fill: #eac06b;
      }
    </style>
  </defs>
  <g id="Capa_1" data-name="Capa 1">
    <g>
      <path class="cls-3" d="M171.63,60.48c-6.16-2.53-13.04-.61-17.08,4.26l-21.98-11.99c.62-2.14.97-4.4.97-6.73,0-4.47-1.23-8.66-3.36-12.24l15.93-9.17c4.15,4.78,11.07,6.54,17.18,3.87,7.52-3.29,10.95-12.05,7.66-19.57-3.29-7.52-12.05-10.95-19.57-7.66-6.28,2.75-9.71,9.32-8.74,15.79l-17.98,10.35c-4.12-3.33-9.36-5.33-15.07-5.33-13.23,0-23.96,10.73-23.96,23.96,0,2.91.52,5.69,1.47,8.27l-19.16,10.45c-4.04-4.87-10.92-6.79-17.08-4.26-2.22.91-4.09,2.29-5.56,3.99l-16.11-8.16c1.73-6.09-.59-12.84-6.17-16.49-6.87-4.49-16.08-2.56-20.57,4.31-4.49,6.87-2.56,16.08,4.31,20.57,5.74,3.75,13.11,3.02,18-1.34l17.05,8.64c-.39,2.58-.12,5.29.94,7.87,3.11,7.59,11.79,11.22,19.39,8.11,6.34-2.6,9.92-9.09,9.1-15.58l20.04-10.93c3.08,3.65,7.24,6.37,11.98,7.67.28,10.22.11,11.97.48,23.85-6.13,1.43-10.91,6.69-11.43,13.31-.64,8.18,5.47,15.33,13.65,15.97,8.18.64,15.33-5.47,15.97-13.65.54-6.86-3.67-12.99-9.86-15.17-.38-12.11-.23-14.03-.47-23.54,7.1-.59,13.33-4.27,17.32-9.7l22.36,12.2c-.81,6.49,2.76,12.98,9.1,15.58,7.59,3.11,16.27-.51,19.39-8.11,3.11-7.59-.52-16.27-8.11-19.39Z"/>
      <path class="cls-5" d="M23.3,58.57c.96-2.27,2.85-3.27,3.37-3.53l2.48,1.26c1.73-6.09-.59-12.84-6.17-16.49-6.87-4.49-16.08-2.56-20.57,4.31-4.49,6.87-2.56,16.08,4.31,20.57,5.74,3.75,13.11,3.02,18-1.34l-1.88-.95c-.11-.65-.27-2.16.45-3.83ZM16.11,64.77c-2.31.23-4.34-1.07-4.53-2.92-.19-1.85,1.53-3.54,3.85-3.77,2.31-.23,4.34,1.07,4.53,2.92.19,1.85-1.53,3.54-3.85,3.77Z"/>
      <path class="cls-6" d="M15.43,58.07c-2.31.23-4.03,1.92-3.85,3.77.19,1.85,2.21,3.16,4.53,2.92,2.31-.24,4.03-1.92,3.85-3.77-.19-1.85-2.21-3.16-4.53-2.92Z"/>
      <path class="cls-4" d="M147.41,18.46c1.37,2.05,1.17,4.17,1.1,4.76l-2.41,1.39c4.15,4.78,11.07,6.54,17.18,3.87,7.52-3.29,10.95-12.05,7.66-19.57-3.29-7.52-12.05-10.95-19.57-7.66-6.28,2.75-9.71,9.32-8.74,15.79l1.82-1.05c.6.27,1.95.96,2.96,2.47ZM146.17,9.05c1.07-2.06,3.28-3.04,4.92-2.19s2.12,3.22,1.05,5.28c-1.07,2.06-3.28,3.04-4.92,2.19-1.65-.86-2.12-3.22-1.05-5.28Z"/>
      <path class="cls-1" d="M147.22,14.34c1.65.86,3.85-.12,4.92-2.19,1.07-2.06.6-4.43-1.05-5.28s-3.85.12-4.92,2.19c-1.07,2.06-.6,4.43,1.05,5.28Z"/>
      <path class="cls-4" d="M66.47,70.85c-1.32-2.08-1.08-4.2-.99-4.78l2.44-1.33c-4.04-4.87-10.92-6.79-17.08-4.26-2.22.91-4.09,2.29-5.56,3.99-1.85,2.13-3.06,4.75-3.49,7.53-.39,2.58-.12,5.29.94,7.87,3.11,7.59,11.79,11.22,19.39,8.11,6.34-2.6,9.92-9.09,9.1-15.58l-1.85,1.01c-.6-.28-1.93-1.01-2.91-2.54ZM67.49,80.29c-1.12,2.04-3.34,2.97-4.97,2.07-1.63-.89-2.04-3.27-.93-5.31,1.12-2.04,3.34-2.97,4.97-2.07,1.63.89,2.04,3.27.93,5.31Z"/>
      <path class="cls-1" d="M66.56,74.98c-1.63-.89-3.86.03-4.97,2.07-1.12,2.04-.7,4.41.93,5.31,1.63.89,3.86-.03,4.97-2.07,1.12-2.04.7-4.41-.93-5.31Z"/>
      <path class="cls-4" d="M171.63,60.48c-6.16-2.53-13.04-.61-17.08,4.26l2.44,1.33c.09.58.33,2.7-.99,4.78-.98,1.54-2.31,2.26-2.91,2.54l-1.85-1.01c-.81,6.49,2.76,12.98,9.1,15.58,7.59,3.12,16.27-.51,19.39-8.11,3.11-7.59-.52-16.27-8.11-19.39ZM159.95,82.36c-1.63.89-3.86-.03-4.97-2.07-1.12-2.04-.7-4.41.93-5.31,1.63-.89,3.86.03,4.97,2.07,1.12,2.04.7,4.41-.93,5.31Z"/>
      <path class="cls-1" d="M155.91,74.98c-1.63.89-2.04,3.27-.93,5.31,1.12,2.04,3.34,2.97,4.97,2.07,1.63-.89,2.04-3.27.93-5.31-1.12-2.04-3.34-2.97-4.97-2.07Z"/>
      <path class="cls-5" d="M133.54,46.02c0-4.47-1.23-8.66-3.36-12.24-1.45-2.44-3.33-4.6-5.53-6.38-4.12-3.33-9.36-5.33-15.07-5.33-13.23,0-23.96,10.73-23.96,23.96,0,2.91.52,5.69,1.47,8.27.97,2.64,2.4,5.06,4.18,7.17,3.08,3.65,7.24,6.37,11.98,7.67-.05-1.86-.12-4-.2-6.54.33-.3,2.08-1.85,4.67-1.7.49.03.94.11,1.35.23,1.31-2.37,3.65-5.08,6.68-7.54,5.93-4.79,12.26-6.79,14.15-4.46,1.88,2.33-1.39,8.11-7.32,12.9-4,3.23-8.17,5.18-11.05,5.4.03.88.05,1.7.07,2.47,7.1-.59,13.33-4.27,17.32-9.7,1.63-2.22,2.89-4.73,3.68-7.44.62-2.14.97-4.4.97-6.73ZM103.68,38.67c-2.91,2.36-6.8,2.38-8.69.05-1.88-2.33-1.05-6.13,1.87-8.49,2.91-2.36,6.8-2.38,8.69-.05,1.88,2.33,1.05,6.13-1.87,8.49Z"/>
      <path class="cls-6" d="M96.85,30.23c-2.91,2.36-3.75,6.16-1.87,8.49,1.88,2.33,5.77,2.31,8.69-.05,2.91-2.36,3.75-6.16,1.87-8.49-1.88-2.33-5.77-2.31-8.69.05Z"/>
      <path class="cls-2" d="M111.51,67.43c2.88-.22,7.05-2.17,11.05-5.4,5.93-4.79,9.21-10.57,7.32-12.9-1.88-2.33-8.22-.33-14.15,4.46-3.03,2.45-5.37,5.16-6.68,7.54,1.16.33,1.96.92,2.29,1.2.06,1.91.12,3.6.16,5.11Z"/>
      <path class="cls-5" d="M108.13,98.09c-2.4.11-3.99-1.25-4.29-1.53-.04-1.29-.08-2.48-.12-3.59-6.13,1.43-10.91,6.69-11.43,13.31-.64,8.18,5.47,15.33,13.65,15.97,8.18.64,15.33-5.47,15.97-13.65.54-6.86-3.67-12.99-9.86-15.17.03.89.06,1.84.09,2.85-.31.31-1.73,1.7-4.01,1.8ZM102.17,105.44c-1.92,1.32-4.32,1.14-5.37-.39-1.05-1.53-.35-3.84,1.56-5.16,1.92-1.32,4.32-1.14,5.37.39,1.05,1.53.35,3.84-1.56,5.16Z"/>
      <path class="cls-6" d="M98.36,99.89c-1.92,1.32-2.62,3.62-1.56,5.16,1.05,1.53,3.46,1.71,5.37.39,1.92-1.32,2.62-3.62,1.56-5.16-1.05-1.53-3.46-1.71-5.37-.39Z"/>
    </g>
  </g>
</svg>