<?xml version="1.0" encoding="UTF-8"?>
<svg id="Layer_2" data-name="Layer 2" xmlns="http://www.w3.org/2000/svg" viewBox="0 0 167.23 178.95">
  <defs>
    <style>
      .cls-1 {
        fill: #abadae;
      }

      .cls-1, .cls-2, .cls-3, .cls-4, .cls-5, .cls-6 {
        stroke-width: 0px;
      }

      .cls-2 {
        fill: #e25e5d;
      }

      .cls-3 {
        fill: #ea544f;
      }

      .cls-4 {
        fill: #fcd377;
      }

      .cls-5 {
        fill: #ec6360;
      }

      .cls-6 {
        fill: #eac06b;
      }
    </style>
  </defs>
  <g id="Capa_1" data-name="Capa 1">
    <g>
      <path class="cls-1" d="M148.77,100.21c-.07-.05-.14-.11-.2-.16-.04-.03-.08-.06-.12-.09-6.86-5.38-15.17-10.92-24.48-16.36.14-.15.28-.3.42-.45,0,0,0,0,0,.01,3.87-4.15,7.47-8.25,10.73-12.23.98.33,2.03.52,3.12.52,5.42,0,9.81-4.38,9.82-9.79,0-2.16-.7-4.15-1.88-5.77,7.46-11.65,9.81-20.05,7-25.05,0,0,0,0,0,0-.12-.21-.25-.42-.39-.62-.03-.04-.05-.07-.07-.11-.15-.21-.3-.41-.47-.6,0,0,0,0,0-.01-.13-.15-.27-.29-.41-.43-.07-.07-.14-.13-.22-.2-.06-.06-.12-.11-.18-.16-.12-.1-.24-.2-.36-.29,0,0,0,0,0,0-4.9-3.73-14.5-2.09-28.58,4.91-.1.05-.2.1-.29.15-.36.18-.72.36-1.09.55-.25.13-.49.25-.74.38-.19.1-.37.19-.56.29-.07.03-.13.07-.2.1-.23.12-.46.24-.69.37-.28.15-.55.29-.83.44-.21.11-.41.23-.62.34-.32.17-.64.35-.96.53-.16.09-.32.18-.49.27-.39.22-.77.43-1.17.66-.1.06-.2.11-.3.17-.48.27-.96.55-1.44.83-.01,0-.03.02-.04.02-4.25,2.48-8.66,5.27-13.19,8.35-1.1-.5-2.23-.94-3.38-1.34-2.46-7.33-5.08-14.08-7.8-20.05,0,0,0,0,0-.01-.04-.08-.07-.16-.11-.24-.18-.39-.36-.78-.53-1.16-.21-.46-.43-.9-.64-1.34,0,0,0-.02-.01-.02C80.17,7.54,73.3-.04,66.93,0h0c-.23,0-.46.01-.69.03-.04,0-.07,0-.11,0-.25.03-.49.06-.74.11h0s0,0,0,0c-.27.06-.54.13-.8.21-.05.01-.09.03-.14.05-3.98,1.33-6.86,5.81-8.62,13.37-4.17,1.13-7.24,4.92-7.25,9.44,0,3.78,2.13,7.05,5.25,8.7,0,.26-.01.54-.02.8,0,.35-.02.69-.02,1.05,0,.43-.01.87-.01,1.31,0,.41,0,.83,0,1.25,0,.06,0,.11,0,.17,0,.16,0,.32,0,.48,0,.78,0,1.57.02,2.37,0,.18,0,.36.01.54.02.86.04,1.74.06,2.62,0,.12,0,.24.01.37.03.99.07,1.98.12,2.99,0,.03,0,.06,0,.08.1,2.2.24,4.45.41,6.74-.66-.21-1.32-.4-1.98-.6-.2-.06-.4-.12-.6-.18-.74-.22-1.47-.44-2.2-.65-.02,0-.04-.01-.06-.02-.15-.04-.3-.09-.46-.13-1.2-.34-2.38-.67-3.55-.99-.45-.12-.9-.24-1.34-.36-.5-.13-1.01-.26-1.51-.39-.74-.19-1.47-.37-2.19-.54-.37-.09-.73-.18-1.1-.26-.81-.19-1.61-.37-2.4-.55-.28-.06-.57-.12-.85-.18-.94-.2-1.88-.4-2.8-.58-.02,0-.04,0-.05-.01,0,0,0,0-.01,0-.06-.01-.12-.02-.18-.03-.62-.12-1.24-.24-1.85-.35-.04,0-.09-.02-.13-.02-.07-.01-.14-.02-.22-.04-16.27-2.9-26.23-1.64-29.67,3.76-.05.08-.1.15-.14.23-.04.07-.09.14-.13.22-.09.17-.18.33-.26.51,0,0,0,0,0,0-.11.25-.21.5-.3.76-.01.04-.03.09-.04.13-1.98,6.19,3.67,14.7,16.84,25.32,0,0,.01.01.02.02.36.29.73.58,1.1.87.11.09.22.18.34.27.03.03.06.05.1.08.42.33.85.67,1.29,1,.01,0,.02.02.03.03.46.35.92.7,1.39,1.05.07.05.15.11.22.16.43.32.87.65,1.31.97.05.03.1.07.14.1,5.45,3.99,11.63,8.03,18.37,12.03,0,0,0,0,0,0,.57.34,1.14.68,1.72,1.01-3.18,3.39-6.17,6.75-8.95,10.04-.91-.28-1.88-.44-2.89-.44-5.42,0-9.81,4.38-9.82,9.79,0,1.92.56,3.71,1.51,5.22-9.08,13.27-12.12,22.73-9.07,28.17,0,0,0,0,0,0,.12.21.25.42.39.62.03.04.05.08.08.11.15.21.3.41.47.6,0,0,0,0,0,.01.2.23.41.43.63.63.04.04.08.08.12.11.18.15.37.3.56.43.22.16.45.31.68.44.03.02.06.04.09.05,1.58.9,3.53,1.36,5.89,1.36,5.26,0,12.47-2.26,21.55-6.75.17-.08.34-.17.52-.25.31-.15.62-.31.93-.47.32-.16.65-.33.97-.5.17-.09.33-.17.5-.26.08-.04.15-.08.23-.12.33-.17.66-.35.99-.53.24-.13.47-.25.71-.38.52-.28,1.05-.57,1.58-.87.39-.22.78-.44,1.17-.66.17-.09.33-.19.5-.28.44-.25.88-.5,1.32-.76.11-.06.21-.12.32-.18.5-.29.99-.58,1.49-.88.02-.01.04-.02.06-.03,4.49-2.68,9.16-5.71,13.94-9.03,2.28,7.08,4.72,13.66,7.26,19.58.11.25.22.51.33.76.12.27.23.53.35.79.16.37.32.73.48,1.09.08.18.16.37.25.55.04.09.08.19.12.28.21.45.41.9.62,1.34,0,.02.02.04.03.06,7.44,15.91,14.52,23.95,21.07,23.95.54,0,1.07-.05,1.6-.16.27-.06.54-.13.81-.21.04-.01.08-.03.12-.04,5.8-1.93,9.27-10.52,10.34-25.58,4.23-1.08,7.37-4.91,7.37-9.48,0-4.52-3.05-8.32-7.2-9.46-.11-2.52-.26-5.12-.46-7.77,4.16,1.3,8.2,2.44,12.08,3.42.01,0,.03,0,.04.01.72.18,1.43.35,2.13.52.1.02.2.05.3.07.62.15,1.23.29,1.83.43.15.03.3.07.45.1.58.13,1.15.25,1.72.37.15.03.31.07.46.1.69.15,1.38.29,2.06.42,0,0,.01,0,.02,0,.72.14,1.44.28,2.15.4.03,0,.06.01.09.02.55.1,1.08.19,1.61.27.14.02.28.05.42.07,4.87.79,9.15,1.2,12.81,1.2,7.46,0,12.38-1.65,14.72-4.94.11-.16.22-.31.32-.48.04-.06.07-.12.1-.18.12-.21.23-.42.33-.64,0,0,0,0,0,0,.12-.25.21-.51.3-.77.01-.04.03-.08.04-.12,2.05-6.38-4.02-15.23-18.07-26.31ZM109.35,46.3c.2-.12.4-.25.59-.37.6-.38,1.19-.74,1.78-1.11.41-.25.81-.5,1.22-.74.45-.27.9-.54,1.34-.81.88-.52,1.75-1.03,2.61-1.53.02-.01.05-.03.07-.04.78-.44,1.54-.87,2.3-1.29.01,0,.02-.01.04-.02.68-.37,1.35-.73,2.01-1.09.14-.07.27-.15.41-.22.54-.28,1.07-.56,1.6-.83.18-.09.37-.19.55-.28.69-.35,1.38-.68,2.05-1.01.11-.05.22-.1.33-.16.58-.28,1.16-.55,1.73-.81.08-.04.15-.07.23-.1,1.32-.6,2.59-1.14,3.82-1.62,2.54-1.01,4.87-1.76,6.94-2.27,2.06-.5,3.86-.74,5.32-.74,1.15,0,2.08.15,2.78.39.05.02.09.04.14.06.11.04.22.09.32.13.1.05.19.1.29.15.04.02.08.04.12.07.11.07.21.15.31.22.02.01.04.03.05.04.11.09.21.19.31.3.2.23.38.52.52.85.02.04.03.08.05.12.03.07.05.14.07.21.15.48.24,1.08.24,1.82,0,1.26-.28,2.9-.9,4.8-1.07,3.34-3.13,7.51-6.07,12.18-.03.05-.06.09-.09.14-1.26-.6-2.67-.94-4.16-.94-5.42,0-9.81,4.38-9.82,9.79,0,2.57.99,4.9,2.6,6.65-.06.08-.13.15-.19.23-.04.05-.08.1-.13.15-2.14,2.58-4.43,5.24-6.88,7.94-.29.32-.58.64-.88.96-1.64-11.9-8.53-22.11-18.28-28.23,1.57-1.05,3.12-2.05,4.65-3.02ZM106.93,115.19c.16,1.41.32,2.8.46,4.18-1.49-.51-3-1.04-4.53-1.58,1.41-.78,2.77-1.65,4.07-2.59ZM63.25,7.57c.54-.87,1.09-1.51,1.6-1.93.02-.02.04-.03.06-.05.09-.07.18-.14.27-.2.05-.03.1-.06.14-.09.06-.04.11-.07.17-.1.06-.03.12-.07.19-.1.05-.02.1-.04.15-.06.06-.02.12-.05.17-.07.1-.03.19-.06.29-.08.01,0,.02,0,.04,0,.18-.04.38-.06.58-.06.21,0,.43.02.67.07.23.04.47.11.73.2.99.36,2.24,1.15,3.59,2.43,2.38,2.23,5.07,5.89,7.78,10.68.75,1.32,1.5,2.72,2.25,4.2.04.08.08.16.12.24.2.39.39.78.59,1.18.07.13.13.27.2.4.18.37.36.75.54,1.13.07.14.14.29.2.43.3.63.6,1.28.89,1.94.01.03.03.05.04.08,2.16,4.79,4.3,10.2,6.37,16.11-2.36-.43-4.78-.67-7.26-.67-9.22,0-17.71,3.15-24.45,8.42-.26-3.58-.43-7.02-.51-10.3-.01-.44-.02-.88-.03-1.31,0-.33-.01-.66-.02-.98-.01-.8-.02-1.59-.02-2.38,0-.25,0-.49,0-.74,0-.34,0-.69,0-1.03,0-.42.01-.84.02-1.26,0-.21,0-.42,0-.62,0,0,0-.01,0-.02,5.29-.13,9.55-4.45,9.55-9.78,0-4.57-3.12-8.41-7.35-9.5.69-2.63,1.53-4.74,2.43-6.19ZM35.39,84.84c-.1-.06-.2-.13-.29-.19-.36-.23-.72-.47-1.07-.7-.58-.38-1.15-.76-1.72-1.14-.13-.09-.27-.18-.4-.27-.63-.43-1.25-.85-1.87-1.28-.32-.22-.64-.44-.95-.66-.31-.21-.61-.43-.91-.64-.57-.4-1.12-.8-1.67-1.2-.2-.15-.4-.29-.6-.44-.61-.45-1.21-.89-1.8-1.34-.12-.09-.24-.18-.36-.27-.64-.49-1.28-.98-1.9-1.46-.09-.07-.17-.13-.26-.2-.32-.25-.63-.5-.93-.74-.14-.11-.27-.22-.41-.33-.23-.19-.46-.37-.69-.56-.19-.16-.38-.31-.57-.47-.11-.09-.22-.18-.33-.28-.45-.38-.89-.75-1.32-1.12-.01-.01-.02-.02-.04-.03-3.05-2.64-5.6-5.15-7.58-7.45-1.68-1.96-2.94-3.77-3.74-5.34-.4-.78-.69-1.5-.87-2.14-.18-.61-.25-1.14-.26-1.6,0-.02,0-.05,0-.07,0-.07,0-.13,0-.2.02-.44.11-.83.27-1.16.05-.1.1-.2.16-.3.03-.05.07-.1.1-.15.03-.04.06-.09.09-.13.04-.05.09-.1.13-.16.04-.05.08-.09.13-.14.04-.04.08-.08.12-.12.07-.07.15-.13.23-.2.03-.02.05-.04.08-.06.08-.06.17-.13.26-.19,0,0,.01,0,.02-.01.77-.52,1.9-.99,3.41-1.33,1.72-.39,3.89-.6,6.43-.6,2.94,0,6.36.28,10.18.83.02,0,.03,0,.05,0,.54.08,1.08.16,1.64.25.12.02.24.04.35.06.48.08.96.16,1.45.25.18.03.36.06.55.1.22.04.45.08.67.12.32.06.65.12.98.18.13.03.27.05.4.08.93.18,1.87.38,2.82.58.16.03.32.07.48.1.88.19,1.77.4,2.66.61.29.07.58.14.86.21.77.19,1.55.38,2.34.58.45.11.9.23,1.35.35.44.12.89.24,1.34.36.81.22,1.63.44,2.45.68.15.04.29.08.44.13,1.93.55,3.91,1.14,5.92,1.77-5.83,6.92-9.36,15.85-9.36,25.61,0,2.57.25,5.08.72,7.52-3.22-1.9-6.29-3.8-9.2-5.68ZM56.74,133.35c-.18.11-.36.22-.54.33-.47.29-.94.58-1.41.87-.33.2-.66.4-.98.59-.36.22-.73.44-1.09.65-.15.09-.29.17-.44.25-.64.37-1.27.74-1.89,1.1-.78.44-1.55.88-2.31,1.3-.13.07-.26.14-.39.21-.58.32-1.15.63-1.72.93-.16.08-.32.17-.48.26-.67.35-1.34.7-1.99,1.03-.07.04-.14.07-.21.11-.67.34-1.33.66-1.99.98-.02,0-.03.02-.05.03-.52.25-1.03.49-1.53.72-.03.01-.05.02-.08.03-1.54.71-3.02,1.34-4.44,1.9-2.54,1-4.87,1.76-6.94,2.27-2.06.5-3.86.74-5.32.74-1.16,0-2.09-.15-2.79-.4-.02,0-.03-.01-.05-.02-.15-.06-.29-.11-.42-.18-.04-.02-.07-.04-.11-.06-.09-.04-.17-.09-.24-.14-.05-.03-.11-.07-.15-.1-.06-.04-.12-.09-.17-.13-.04-.03-.08-.06-.12-.1-.09-.08-.17-.16-.25-.25,0,0,0,0,0,0-.2-.23-.38-.52-.52-.85-.01-.03-.02-.07-.04-.1-.03-.08-.06-.15-.08-.23-.15-.48-.24-1.08-.24-1.81,0-1.26.28-2.9.9-4.8,1.07-3.34,3.13-7.51,6.07-12.18.25-.41.52-.82.78-1.23.03-.04.05-.08.07-.11.28-.42.56-.85.85-1.28.02-.02.03-.05.05-.07.07-.1.13-.2.2-.29,1.4.78,3.01,1.22,4.73,1.23,5.42,0,9.81-4.38,9.82-9.79,0-2.65-1.05-5.04-2.75-6.81,1.56-1.84,3.2-3.7,4.91-5.59,1.17-1.29,2.37-2.6,3.6-3.91,3.74,8.87,10.62,16.1,19.24,20.3.11.41.23.82.34,1.22,0,0,0,0,0,0,.55,1.94,1.11,3.86,1.69,5.74-3.96,2.78-7.8,5.34-11.5,7.64ZM71.88,120.99c.69.21,1.39.4,2.1.58-.53.39-1.06.78-1.58,1.16-.17-.58-.34-1.16-.51-1.74ZM108.05,155.58c-.3,2.93-.71,5.56-1.22,7.87-.76,3.46-1.76,6.16-2.86,7.92-.54.88-1.09,1.52-1.61,1.94,0,0-.02.01-.03.02-.1.08-.2.16-.3.22-.04.03-.08.06-.13.08-.06.04-.13.08-.19.11-.06.03-.11.06-.17.09-.06.03-.12.05-.18.07-.05.02-.1.04-.15.06-.11.04-.22.07-.33.09,0,0,0,0,0,0-.1.02-.2.03-.3.04-.02,0-.04,0-.07,0-.08,0-.17,0-.26,0-.03,0-.06,0-.08,0-.08,0-.16,0-.25-.02-.05,0-.09-.01-.14-.02-.06,0-.13-.02-.19-.03-.08-.02-.16-.03-.24-.06-.03,0-.06-.01-.09-.02-.12-.03-.23-.07-.36-.11-.99-.36-2.24-1.15-3.59-2.43-2.38-2.23-5.07-5.89-7.78-10.68-.25-.43-.49-.88-.74-1.33-.01-.02-.02-.04-.03-.06-.25-.45-.49-.92-.74-1.39-.01-.03-.03-.05-.04-.08-.22-.42-.43-.84-.65-1.27-.05-.1-.1-.21-.16-.31-.18-.36-.36-.73-.54-1.1-.08-.16-.16-.32-.24-.48-.16-.33-.33-.68-.49-1.02-.09-.19-.18-.37-.27-.57-.15-.33-.31-.66-.46-.99-.1-.22-.2-.44-.3-.66-.2-.43-.39-.87-.59-1.31-.05-.12-.1-.23-.16-.35-.32-.72-.63-1.46-.95-2.2-.16-.37-.32-.76-.48-1.14-.15-.36-.3-.72-.44-1.08-.2-.48-.39-.96-.59-1.45-.09-.23-.19-.47-.28-.7-1.36-3.45-2.7-7.12-4-10.99-.51-1.52-1.02-3.06-1.51-4.64,1.76-1.27,3.54-2.58,5.32-3.93,0,0,0,0,0,0,.47-.35.93-.7,1.4-1.06.99.07,1.99.12,3.01.12,4.51,0,8.85-.76,12.89-2.15,1.05.39,2.09.78,3.12,1.16,0,0,0,0,0,0,2.78,1.02,5.53,1.97,8.24,2.88.26,3.2.46,6.3.59,9.28-4.33,1.01-7.56,4.89-7.56,9.52,0,4.58,3.14,8.43,7.39,9.51-.07.9-.14,1.78-.23,2.63ZM162.38,124.31c-.03.35-.1.66-.21.95-.02.05-.03.1-.06.14-.05.1-.1.2-.16.3-.03.05-.06.09-.09.14-.03.05-.07.1-.11.15-.04.05-.08.1-.12.15-.04.05-.09.1-.14.15-.03.04-.07.07-.11.11-.08.07-.16.14-.25.22-.02.02-.04.03-.06.05-.76.59-1.99,1.16-3.69,1.54-1.72.39-3.89.6-6.43.6-2.93,0-6.34-.28-10.15-.83-.03,0-.05,0-.08-.01-.53-.08-1.07-.16-1.62-.25-.13-.02-.25-.04-.38-.06-.47-.08-.95-.16-1.43-.24-.19-.03-.37-.06-.56-.1-.22-.04-.44-.08-.66-.12-.32-.06-.65-.12-.98-.18-.2-.04-.4-.08-.6-.12-.36-.07-.71-.14-1.07-.22-.24-.05-.47-.1-.71-.15-.3-.06-.6-.13-.9-.19-.31-.07-.62-.13-.93-.2-.2-.05-.41-.09-.62-.14-.41-.09-.83-.19-1.25-.29-.05-.01-.09-.02-.14-.03-5.11-1.21-10.63-2.75-16.46-4.62-.29-3.13-.65-6.32-1.06-9.57,6.15-5.99,10.36-13.95,11.61-22.86,5.45,3.23,10.46,6.44,14.96,9.58.19.13.37.26.56.39.44.31.87.62,1.29.92.38.27.77.55,1.14.82.29.21.58.43.87.64.56.41,1.12.83,1.67,1.24.21.16.42.32.63.48.14.11.29.22.43.33.27.21.55.42.82.64.13.1.25.2.38.3.28.22.56.45.84.67.16.13.32.26.48.39.2.17.4.33.6.49.22.18.43.35.65.53.07.06.15.12.22.18.45.38.89.75,1.33,1.13.02.02.04.03.06.05,3.08,2.66,5.65,5.18,7.63,7.5,1.68,1.96,2.94,3.77,3.74,5.34.4.78.69,1.5.87,2.14.14.47.21.9.25,1.28,0,0,0,.01,0,.02,0,.04,0,.07,0,.1,0,.19.01.37,0,.54Z"/>
      <path class="cls-5" d="M59.16,51.68c-.75.59-1.49,1.2-2.2,1.84,2.27.73,4.58,1.51,6.92,2.33,4.62-2.9,10.2-2.62,13.04.89,1.08,1.33,1.61,2.96,1.66,4.67.33.14.67.27,1,.41,4.63-3.72,9.23-7.24,13.76-10.51-.8-2.53-1.62-4.99-2.46-7.38,0,0,0,0-.01,0-2.36-.43-4.78-.67-7.26-.67-9.22,0-17.71,3.15-24.45,8.42Z"/>
      <path class="cls-5" d="M44.59,90.52c.18.93.39,1.85.63,2.75,6.18-6.47,13.01-13.05,20.28-19.53-2.42-.1-4.61-1.04-6.08-2.86-2.46-3.05-2.11-7.6.5-11.31-2.26-.77-4.5-1.5-6.7-2.19,0,0,0,0,0,0-5.83,6.92-9.36,15.85-9.36,25.61,0,2.57.25,5.08.72,7.52Z"/>
      <path class="cls-5" d="M99.88,46.74c-1.1-.5-2.23-.94-3.38-1.34.33.99.66,1.98.98,2.99.8-.56,1.6-1.11,2.4-1.65Z"/>
      <path class="cls-5" d="M122.96,88.6c-5.41-3.2-11.19-6.38-17.24-9.47.41,1.85.8,3.71,1.19,5.59.2.97.39,1.94.58,2.91,4.52-1.54,8.17-1.49,9.81.54,2.51,3.1-.5,9.88-6.87,16.55.33,2.28.64,4.53.92,6.76,6.15-5.99,10.36-13.95,11.61-22.86,0,0,0,0,0,0Z"/>
      <path class="cls-5" d="M96.51,120.6c2.21-.76,4.33-1.7,6.35-2.82,1.41-.78,2.77-1.65,4.07-2.59,0,0,0,0,0,0-.25-2.12-.52-4.27-.81-6.44-.32.27-.64.54-.97.81-9.83,7.95-20.34,11.26-23.46,7.4-3.13-3.87,2.31-13.44,12.15-21.4,3.05-2.47,6.17-4.49,9.12-5.99-.25-1.29-.51-2.59-.77-3.88-.64-3.15-1.32-6.27-2.03-9.34-2.83-1.39-5.72-2.75-8.64-4.09-3.72-1.7-7.43-3.32-11.1-4.86-3.08,2.52-6.17,5.13-9.25,7.83-8.79,7.69-16.96,15.55-24.17,23.23,0,0,0,0,0,0,3.74,8.87,10.62,16.1,19.24,20.3,1.81.88,3.7,1.64,5.66,2.24.69.21,1.39.4,2.1.58,2.15.54,4.36.89,6.63,1.06.99.07,1.99.12,3.01.12,4.51,0,8.85-.76,12.89-2.15Z"/>
      <path class="cls-5" d="M104.7,49.32s0,0,0,0c-1.88,1.25-3.79,2.55-5.71,3.91,1.91,6.29,3.7,12.93,5.33,19.79,6.67,3.32,13.06,6.75,19.03,10.22,0-.08,0-.15,0-.23,0-1.85-.14-3.67-.38-5.46-1.64-11.9-8.53-22.11-18.28-28.23Z"/>
      <path class="cls-5" d="M98.68,70.27c-1.21-4.84-2.49-9.54-3.84-14.07-3.36,2.45-6.76,5.04-10.18,7.75,2.94,1.25,5.89,2.55,8.85,3.91,1.74.8,3.46,1.6,5.17,2.42Z"/>
      <path class="cls-2" d="M59.42,70.89c1.46,1.81,3.66,2.76,6.08,2.86.82-.73,1.64-1.45,2.47-2.18,2.45-2.14,4.9-4.23,7.36-6.27-5.24-2.1-10.39-4.01-15.4-5.72-2.62,3.71-2.97,8.26-.5,11.31Z"/>
      <path class="cls-2" d="M63.88,55.85c4.8,1.68,9.71,3.54,14.7,5.56-.05-1.72-.58-3.34-1.66-4.67-2.84-3.51-8.42-3.79-13.04-.89Z"/>
      <path class="cls-3" d="M117.3,88.15c-1.63-2.02-5.29-2.08-9.81-.54,1.13,5.78,2.12,11.5,2.94,17.09,6.37-6.67,9.38-13.45,6.87-16.55Z"/>
      <path class="cls-3" d="M81.69,116.95c3.13,3.87,13.63.55,23.46-7.4.33-.27.65-.54.97-.81-.85-6.24-1.91-12.66-3.17-19.18-2.94,1.5-6.06,3.52-9.12,5.99-9.83,7.95-15.27,17.53-12.15,21.4Z"/>
      <path class="cls-4" d="M108.29,140.45c-1.19.96-2.79.97-3.56.01-.77-.95-.43-2.51.77-3.47.98-.79,2.22-.92,3.06-.43-.03-.87-.06-1.75-.1-2.65,0,0,0,0,0,0-4.33,1.01-7.56,4.89-7.56,9.52,0,4.58,3.14,8.43,7.39,9.51,0,0,0,0,0,0,.12-1.6.21-3.29.28-5.1.09-2.47.11-5.06.08-7.73-.11.11-.22.23-.35.33Z"/>
      <path class="cls-4" d="M113.38,148.01c-.06,1.72-.15,3.36-.26,4.93,4.23-1.08,7.37-4.91,7.37-9.48,0-4.52-3.05-8.32-7.2-9.46.21,4.94.24,9.63.09,14Z"/>
      <path class="cls-6" d="M105.5,136.99c-1.19.96-1.54,2.52-.77,3.47.77.95,2.36.95,3.56-.01.13-.1.24-.22.35-.33-.01-1.17-.04-2.35-.08-3.55-.84-.5-2.08-.36-3.06.43Z"/>
      <path class="cls-4" d="M34.31,105.38c-.91-.28-1.88-.44-2.89-.44-5.42,0-9.81,4.38-9.82,9.79,0,1.92.56,3.71,1.51,5.22.44-.64.88-1.29,1.35-1.94,2.87-4.05,6.17-8.28,9.85-12.63ZM26.21,108.28c1.19-.96,2.79-.97,3.56-.01.77.96.43,2.51-.77,3.47-1.19.96-2.79.97-3.56.01-.77-.96-.43-2.51.77-3.47Z"/>
      <path class="cls-4" d="M41.22,114.76c0-2.65-1.05-5.04-2.75-6.81,0,0,0,0,0,0-3.77,4.43-7.15,8.74-10.06,12.86-.61.86-1.19,1.7-1.74,2.52,0,0,0,0,0,0,1.4.78,3.01,1.22,4.73,1.23,5.42,0,9.81-4.38,9.82-9.79Z"/>
      <path class="cls-6" d="M29,111.74c1.19-.96,1.54-2.52.77-3.47-.77-.95-2.36-.95-3.56.01-1.19.96-1.54,2.52-.77,3.47.77.95,2.36.95,3.56-.01Z"/>
      <path class="cls-4" d="M58.35,33.05c.09,0,.18-.01.26-.01,5.29-.13,9.55-4.45,9.55-9.78,0-4.57-3.12-8.41-7.35-9.5,0,0-.01,0-.02,0-.78-.2-1.58-.32-2.42-.32-.89,0-1.75.13-2.57.35-4.17,1.13-7.24,4.92-7.25,9.44,0,3.78,2.13,7.05,5.25,8.7,0,0,0,0,0,0,1.36.71,2.9,1.12,4.53,1.12ZM52.4,20.25c-.77-.96-.43-2.51.77-3.47,1.19-.96,2.79-.97,3.56-.01.77.96.43,2.51-.77,3.47-1.19.96-2.79.97-3.56.01Z"/>
      <path class="cls-6" d="M55.96,20.23c1.19-.96,1.54-2.52.77-3.47-.77-.95-2.36-.95-3.56.01-1.19.96-1.54,2.52-.77,3.47.77.95,2.36.95,3.56-.01Z"/>
      <path class="cls-4" d="M142.43,52.76s0,0,0,0c-1.26-.6-2.67-.94-4.16-.94-5.42,0-9.81,4.38-9.82,9.79,0,2.57.99,4.9,2.6,6.65t0,0c1.1,1.2,2.5,2.12,4.07,2.65.98.33,2.03.52,3.12.52,5.42,0,9.81-4.38,9.82-9.79,0-2.16-.7-4.15-1.88-5.77-.97-1.33-2.25-2.4-3.75-3.11ZM135.85,58.62c-1.19.96-2.79.97-3.56.01-.77-.95-.43-2.51.77-3.47,1.19-.96,2.79-.97,3.56-.01.77.95.43,2.51-.77,3.47Z"/>
      <path class="cls-6" d="M133.06,55.16c-1.19.96-1.54,2.52-.77,3.47.77.96,2.36.95,3.56-.01,1.19-.96,1.54-2.52.77-3.47-.77-.95-2.36-.95-3.56.01Z"/>
    </g>
  </g>
</svg>