<?xml version="1.0" encoding="UTF-8"?>
<svg id="Layer_2" data-name="Layer 2" xmlns="http://www.w3.org/2000/svg" viewBox="0 0 180.86 130.21">
  <defs>
    <style>
      .cls-1 {
        fill: #f9dca0;
      }

      .cls-1, .cls-2, .cls-3, .cls-4 {
        stroke-width: 0px;
      }

      .cls-2 {
        fill: #b9babc;
      }

      .cls-3 {
        fill: #fcd377;
      }

      .cls-4 {
        fill: #eac06b;
      }
    </style>
  </defs>
  <g id="Capa_1" data-name="Capa 1">
    <g>
      <path class="cls-2" d="M168.88,49.91c-8.01-3.28-16.94-.79-22.19,5.54l-28.55-15.57c.81-2.78,1.26-5.71,1.26-8.75,0-17.19-13.93-31.12-31.12-31.12s-31.12,13.93-31.12,31.12c0,3.78.67,7.4,1.91,10.75l-24.89,13.57c-5.24-6.33-14.18-8.82-22.19-5.54-9.86,4.05-14.57,15.32-10.53,25.18,4.05,9.86,15.32,14.57,25.18,10.53,8.24-3.38,12.88-11.81,11.83-20.24l26.02-14.19c4,4.75,9.4,8.28,15.56,9.96.36,13.27.15,15.55.62,30.98-7.97,1.86-14.17,8.69-14.85,17.29-.83,10.63,7.11,19.91,17.73,20.75,10.63.83,19.91-7.11,20.75-17.73.7-8.91-4.77-16.87-12.81-19.71-.49-15.73-.3-18.23-.61-30.58,9.23-.76,17.31-5.54,22.49-12.6l29.04,15.84c-1.06,8.43,3.58,16.86,11.83,20.24,9.86,4.05,21.13-.67,25.18-10.53,4.05-9.86-.67-21.13-10.53-25.18Z"/>
      <path class="cls-3" d="M32.28,63.38c-1.72-2.7-1.4-5.45-1.29-6.21l3.17-1.73c-5.24-6.33-14.18-8.82-22.19-5.54-9.86,4.05-14.57,15.32-10.53,25.18,4.05,9.86,15.32,14.57,25.18,10.53,8.24-3.38,12.88-11.81,11.83-20.24l-2.4,1.31c-.77-.36-2.51-1.31-3.77-3.3ZM33.61,75.64c-1.45,2.65-4.34,3.85-6.46,2.69-2.12-1.16-2.66-4.25-1.2-6.89,1.45-2.65,4.34-3.85,6.46-2.69,2.12,1.16,2.65,4.25,1.2,6.89Z"/>
      <path class="cls-4" d="M32.4,68.74c-2.12-1.16-5.01.04-6.46,2.69-1.45,2.65-.91,5.73,1.2,6.89,2.12,1.16,5.01-.04,6.46-2.69,1.45-2.65.91-5.73-1.2-6.89Z"/>
      <path class="cls-3" d="M168.88,49.91c-8.01-3.28-16.94-.79-22.19,5.54l3.17,1.73c.11.75.43,3.51-1.29,6.21-1.27,1.99-3,2.94-3.77,3.3l-2.4-1.31c-1.06,8.43,3.58,16.86,11.83,20.24,9.86,4.05,21.13-.67,25.18-10.53,4.05-9.86-.67-21.13-10.53-25.18ZM153.71,78.33c-2.12,1.16-5.01-.04-6.46-2.69-1.45-2.65-.91-5.73,1.2-6.89,2.12-1.16,5.01.04,6.46,2.69,1.45,2.65.91,5.73-1.2,6.89Z"/>
      <path class="cls-4" d="M148.45,68.74c-2.12,1.16-2.66,4.25-1.2,6.89,1.45,2.65,4.34,3.85,6.46,2.69,2.12-1.16,2.66-4.25,1.2-6.89-1.45-2.65-4.34-3.85-6.46-2.69Z"/>
      <path class="cls-3" d="M119.39,31.12c0-17.19-13.93-31.12-31.12-31.12s-31.12,13.93-31.12,31.12c0,3.78.67,7.4,1.91,10.75,1.26,3.43,3.11,6.57,5.43,9.31,4,4.75,9.4,8.28,15.56,9.96-.07-2.42-.15-5.2-.26-8.49.43-.39,2.7-2.4,6.06-2.21.64.04,1.22.15,1.75.3,1.7-3.08,4.74-6.6,8.68-9.79,7.7-6.22,15.93-8.82,18.37-5.79,2.45,3.03-1.81,10.53-9.51,16.75-5.19,4.19-10.61,6.74-14.35,7.03.03,1.14.06,2.2.09,3.2,9.23-.76,17.31-5.54,22.49-12.6,2.12-2.88,3.75-6.14,4.78-9.66.81-2.78,1.26-5.71,1.26-8.75ZM80.61,21.58c-3.79,3.06-8.84,3.09-11.29.06-2.45-3.03-1.36-7.96,2.42-11.02,3.78-3.06,8.84-3.09,11.28-.06,2.45,3.03,1.36,7.96-2.42,11.02Z"/>
      <path class="cls-4" d="M71.75,10.62c-3.79,3.06-4.87,7.99-2.42,11.02,2.45,3.03,7.5,3,11.29-.06,3.78-3.06,4.87-7.99,2.42-11.02-2.45-3.03-7.5-3-11.28.06Z"/>
      <path class="cls-1" d="M90.78,58.93c3.74-.29,9.16-2.83,14.35-7.03,7.7-6.23,11.96-13.73,9.51-16.75-2.45-3.03-10.67-.43-18.37,5.79-3.94,3.19-6.97,6.7-8.68,9.79,1.51.43,2.54,1.2,2.98,1.56.08,2.48.15,4.68.21,6.64Z"/>
      <path class="cls-3" d="M86.39,98.76c-3.11.15-5.18-1.63-5.58-1.99-.06-1.68-.11-3.23-.15-4.66-7.97,1.86-14.17,8.69-14.85,17.29-.83,10.63,7.11,19.91,17.73,20.75,10.63.83,19.91-7.11,20.75-17.73.7-8.91-4.77-16.87-12.81-19.71.04,1.16.08,2.39.12,3.71-.4.41-2.24,2.2-5.21,2.34ZM78.65,108.3c-2.49,1.71-5.61,1.48-6.98-.51-1.37-1.99-.46-4.99,2.03-6.7,2.49-1.71,5.61-1.48,6.98.51,1.37,1.99.46,4.99-2.03,6.7Z"/>
      <path class="cls-4" d="M73.7,101.1c-2.49,1.71-3.4,4.71-2.03,6.7,1.37,1.99,4.49,2.22,6.98.51,2.49-1.71,3.4-4.71,2.03-6.7-1.37-1.99-4.49-2.22-6.98-.51Z"/>
    </g>
  </g>
</svg>