<?xml version="1.0" encoding="UTF-8"?>
<svg id="Layer_2" data-name="Layer 2" xmlns="http://www.w3.org/2000/svg" viewBox="0 0 168.43 179.64">
  <defs>
    <style>
      .cls-1 {
        fill: #e25e5d;
      }

      .cls-1, .cls-2, .cls-3, .cls-4, .cls-5, .cls-6, .cls-7 {
        stroke-width: 0px;
      }

      .cls-2 {
        fill: #fcd377;
      }

      .cls-3 {
        fill: #8dd3f6;
      }

      .cls-4 {
        fill: #71cbf4;
      }

      .cls-5 {
        fill: #3abff0;
      }

      .cls-6 {
        fill: #ec6360;
      }

      .cls-7 {
        fill: #eac06b;
      }
    </style>
  </defs>
  <g id="Capa_1" data-name="Capa 1">
    <g>
      <path class="cls-3" d="M146.74,20.56c-11.98,0-21.68,3.6-21.68,8.05,0,2.06,2.09,3.94,5.52,5.36v83.49c-3.06-4.61-6.34-9.3-9.87-14.05-6.85-9.22-13.74-17.49-20.43-24.87V19.15c4.9-2.03,7.89-4.72,7.89-7.66,0-6.35-13.86-11.49-30.96-11.49s-30.96,5.15-30.96,11.49c0,2.94,2.98,5.63,7.89,7.66v57.46c-7.23,7.85-14.74,16.76-22.19,26.8-12.63,17.01-22.15,33.27-29.3,47.38-3.04,4.13-3.5,9.63-1.18,14.21,1.8,3.56,4.9,5.41,6.33,6.2,20.72,11.25,116.36,11.25,137.08,0,1.44-.78,4.53-2.63,6.33-6.2.14-.28.27-.57.4-.85,6.55-2.06,11.31-8.18,11.31-15.42V33.97c3.43-1.42,5.52-3.3,5.52-5.36,0-4.44-9.71-8.05-21.68-8.05Z"/>
      <path class="cls-4" d="M133.65,35.02v87.13c.78,1.21,1.53,2.42,2.28,3.62v-55.7c0-2.33,4.84-4.23,10.82-4.23s10.82,1.89,10.82,4.23v77.35c0,3.85-2.05,7.23-5.11,9.1.23,1.33.27,2.69.1,4.04,4.31-2.14,7.28-6.59,7.28-11.73V35.02c-3.64,1.03-8.17,1.63-13.1,1.63s-9.46-.61-13.1-1.63Z"/>
      <path class="cls-2" d="M157.56,147.42v-77.35c0,2.33-4.84,4.23-10.82,4.23s-10.82-1.89-10.82-4.23v55.7c5.5,8.84,10.16,17.26,14.09,25.03,1.27,1.72,2.08,3.69,2.43,5.72,3.06-1.87,5.11-5.25,5.11-9.1Z"/>
      <path class="cls-4" d="M146.74,28.61c5.78,0,10.68,1.25,12.42,2.99,2.85-.78,4.59-1.83,4.59-2.99,0-2.42-7.62-4.38-17.01-4.38s-17.01,1.96-17.01,4.38c0,1.16,1.75,2.21,4.59,2.99,1.74-1.74,6.64-2.99,12.42-2.99Z"/>
      <path class="cls-5" d="M134.32,31.59h0s0,0,0,0c.19.05.39.1.59.15,0,0,0,0,0,0,.2.05.4.1.61.14.01,0,.02,0,.03,0,.2.04.4.09.61.13.02,0,.04,0,.06.01.2.04.4.08.61.12.03,0,.06.01.09.02.2.04.4.07.6.1.04,0,.08.01.11.02.2.03.4.06.6.09.05,0,.09.01.14.02.19.03.39.06.59.08.06,0,.12.02.17.02.19.02.38.05.58.07.07,0,.13.02.2.02.19.02.38.04.57.06.08,0,.15.02.23.02.19.02.38.04.57.05.08,0,.16.01.25.02.18.01.37.03.56.04.09,0,.18.01.27.02.18.01.37.02.55.03.1,0,.19.01.29.02.18,0,.37.02.56.03.1,0,.2,0,.3.01.19,0,.38.01.57.02.1,0,.2,0,.3,0,.2,0,.41,0,.62.01.09,0,.18,0,.27,0,.3,0,.6,0,.9,0s.6,0,.9,0c.09,0,.18,0,.27,0,.21,0,.41,0,.61-.01.1,0,.2,0,.3,0,.19,0,.38-.01.57-.02.1,0,.2,0,.31-.01.19,0,.37-.02.56-.03.1,0,.2-.01.29-.02.18-.01.37-.02.55-.03.09,0,.18-.01.28-.02.19-.01.37-.03.56-.04.08,0,.17-.01.25-.02.19-.02.38-.03.56-.05.08,0,.15-.02.23-.02.19-.02.38-.04.57-.06.07,0,.14-.02.21-.02.19-.02.39-.05.58-.07.06,0,.12-.02.18-.02.2-.03.39-.05.59-.08.05,0,.1-.01.14-.02.2-.03.4-.06.6-.09.04,0,.08-.01.12-.02.2-.03.4-.07.6-.1.03,0,.06-.01.09-.02.2-.04.4-.08.6-.12h.07c.21-.06.41-.1.6-.14.01,0,.02,0,.04,0,.21-.05.41-.09.61-.14,0,0,0,0,.01,0,.2-.05.4-.1.59-.15,0,0,0,0,0,0h0c-1.74-1.74-6.64-2.99-12.42-2.99s-10.68,1.25-12.42,2.99Z"/>
      <path class="cls-7" d="M146.74,74.29c5.97,0,10.82-1.89,10.82-4.23s-4.84-4.23-10.82-4.23-10.82,1.89-10.82,4.23,4.84,4.23,10.82,4.23Z"/>
      <path class="cls-4" d="M101.51,11.49c0-3.45-10.88-6.25-24.29-6.25s-24.29,2.8-24.29,6.25,10.88,6.25,24.29,6.25,24.29-2.8,24.29-6.25ZM77.22,11.21c8.25,0,15.26,1.79,17.73,4.27-4.43,1.22-10.74,1.98-17.73,1.98s-13.3-.76-17.73-1.98c2.48-2.48,9.48-4.27,17.73-4.27Z"/>
      <path class="cls-5" d="M94.95,15.48c-2.48-2.48-9.48-4.27-17.73-4.27s-15.26,1.79-17.73,4.27c4.43,1.22,10.74,1.98,17.73,1.98s13.3-.76,17.73-1.98Z"/>
      <path class="cls-4" d="M13.93,166.51c18.86,10.24,105.94,10.24,124.8,0,1.31-.71,4.12-2.4,5.77-5.64,2.11-4.16,1.69-9.18-1.08-12.93-6.51-12.85-15.18-27.65-26.68-43.14-5.5-7.41-11.04-14.15-16.45-20.25-1.47-1.66-2.93-3.26-4.38-4.82V20.65c-5.2,1.46-11.67,2.33-18.7,2.33s-13.5-.87-18.7-2.33v57.19c-1.45,1.53-2.91,3.11-4.38,4.74-5.97,6.61-12.11,14-18.21,22.22-11.5,15.49-20.17,30.29-26.68,43.14-2.77,3.76-3.18,8.77-1.08,12.93,1.64,3.24,4.46,4.93,5.77,5.64ZM15.06,145.42c5.95-11.74,13.86-25.25,24.37-39.4.15-.21.31-.41.46-.61h.05c.95-4.58,16.99-8.22,36.63-8.22s36.68,3.87,36.68,8.65c0,.05-.01.1-.02.16,0,0,.01.01.02.02,10.5,14.15,18.42,27.67,24.37,39.4,2.52,3.43,2.91,8.01.98,11.81-1.5,2.96-4.07,4.5-5.27,5.15-17.23,9.35-96.76,9.35-113.99,0-1.2-.65-3.77-2.19-5.27-5.15-1.92-3.8-1.54-8.38.98-11.81Z"/>
      <path class="cls-6" d="M19.34,162.39c17.23,9.35,96.76,9.35,113.99,0,1.2-.65,3.77-2.19,5.27-5.15,1.92-3.8,1.54-8.38-.98-11.81-5.95-11.74-13.86-25.25-24.37-39.4,0,0-.01-.01-.02-.02-.36,4.7-16.63,8.49-36.66,8.49s-36.68-3.87-36.68-8.65c0-.14.02-.29.05-.43h-.05c-.15.2-.31.4-.46.61-10.5,14.15-18.42,27.67-24.37,39.4-2.53,3.43-2.91,8.01-.98,11.81,1.5,2.96,4.07,4.5,5.27,5.15Z"/>
      <path class="cls-1" d="M76.56,114.49c20.03,0,36.3-3.79,36.66-8.49,0-.05.02-.1.02-.16,0-4.78-16.42-8.65-36.68-8.65s-35.68,3.64-36.63,8.22c-.03.14-.05.29-.05.43,0,4.78,16.42,8.65,36.68,8.65Z"/>
    </g>
  </g>
</svg>