<?xml version="1.0" encoding="UTF-8"?>
<svg id="Layer_2" data-name="Layer 2" xmlns="http://www.w3.org/2000/svg" viewBox="0 0 180.86 85.37">
  <defs>
    <style>
      .cls-1 {
        fill: #abadae;
      }

      .cls-1, .cls-2, .cls-3 {
        stroke-width: 0px;
      }

      .cls-2 {
        fill: #8dd3f6;
      }

      .cls-3 {
        fill: #71cbf4;
      }
    </style>
  </defs>
  <g id="Capa_1" data-name="Capa 1">
    <g>
      <path class="cls-1" d="M179.63,28.87h-4.97L122.83.71c-1.91-1.04-4.23-.93-6.04.27l-20.22,13.48c-1.67,1.12-2.17,3.36-1.11,5.07,1.18,1.91,3.76,2.36,5.51.96l16.2-12.92c1.93-1.54,4.63-1.7,6.73-.4l34.94,21.69H22.28L57.21,7.18c2.1-1.3,4.8-1.15,6.73.4l16.21,12.92c1.76,1.4,4.34.95,5.51-.96,1.05-1.71.56-3.95-1.11-5.07L64.34.98c-1.81-1.2-4.13-1.31-6.04-.27L6.47,28.87H1.99l-1.99,5.56,6.09,6.75h4c2.32,9.22,4.51,18.44,6.83,27.66.35,1.39,1.22,2.58,2.45,3.32,5.2,3.13,12.6,6.78,22.01,9.06,9.96,2.42,18.76,2.49,25.32,1.93,0,.01,0,.03,0,.04.16,1.35,1.38,2.31,2.72,2.15h0c2.48-.29,4.67-1.74,5.92-3.91l12.9-22.49c.6-1.05,1.72-1.7,2.93-1.7s2.33.65,2.93,1.7l12.9,22.49c1.24,2.16,3.43,3.62,5.92,3.91,1.35.16,2.56-.81,2.72-2.15,0-.01,0-.03,0-.04,6.56.56,15.36.49,25.32-1.93,9.41-2.29,16.82-5.93,22.01-9.06,1.22-.74,2.1-1.93,2.45-3.32,2.32-9.22,4.64-18.44,6.97-27.66h3.81l4.67-6.75-1.22-5.56Z"/>
      <path class="cls-2" d="M167.12,34.44h-74.89c-.37,0-.72.04-1.06.1-.34-.07-.7-.1-1.06-.1H15.22c-3.54,0-6,3.33-5.13,6.75,2.32,9.22,4.51,18.44,6.83,27.66.35,1.39,1.22,2.58,2.45,3.32,5.2,3.13,12.6,6.78,22.01,9.06,9.96,2.42,18.76,2.49,25.32,1.93-.13-1.33.82-2.53,2.15-2.68.93-.11,1.76-.65,2.23-1.47l.86-1.5c-.7.41-1.5.68-2.36.77-6.6.67-16.17.9-27.2-1.44-9.22-1.96-16.48-5.09-21.57-7.77-1.2-.63-2.06-1.65-2.4-2.84-2.27-7.9-4.55-15.8-6.83-23.7-.85-2.94,1.69-5.79,5.16-5.79h73.39c.36,0,.71.03,1.04.09.33-.06.68-.09,1.04-.09h73.39c3.46,0,6,2.85,5.16,5.79-2.28,7.9-4.55,15.8-6.83,23.7-.34,1.19-1.2,2.21-2.4,2.84-5.09,2.68-12.35,5.81-21.57,7.77-11.03,2.34-20.6,2.12-27.2,1.44-.86-.09-1.66-.36-2.36-.77l.86,1.49c.47.82,1.3,1.37,2.23,1.47,1.33.16,2.29,1.35,2.15,2.68,6.56.56,15.36.49,25.32-1.93,9.41-2.29,16.82-5.93,22.01-9.06,1.22-.74,2.1-1.93,2.45-3.32,2.32-9.22,4.64-18.44,6.97-27.66.86-3.43-1.73-6.75-5.26-6.75Z"/>
      <path class="cls-3" d="M91.17,52.35c2.97,0,5.71,1.59,7.19,4.16l12.05,20.99c.7.41,1.5.68,2.36.77,6.6.67,16.18.9,27.2-1.44,9.22-1.96,16.48-5.09,21.57-7.77,1.2-.63,2.06-1.65,2.4-2.84,2.28-7.9,4.55-15.8,6.83-23.7.85-2.94-1.69-5.79-5.16-5.79h-73.39c-.36,0-.71.03-1.04.09-.33-.06-.68-.09-1.04-.09H16.74c-3.47,0-6,2.85-5.16,5.79,2.27,7.9,4.55,15.8,6.83,23.7.34,1.19,1.2,2.21,2.4,2.84,5.09,2.68,12.35,5.81,21.57,7.77,11.03,2.34,20.6,2.12,27.2,1.44.86-.09,1.66-.36,2.36-.77l12.05-20.99c1.48-2.57,4.22-4.16,7.19-4.16Z"/>
    </g>
  </g>
</svg>