<?xml version="1.0" encoding="UTF-8"?>
<svg id="Layer_2" data-name="Layer 2" xmlns="http://www.w3.org/2000/svg" viewBox="0 0 173.22 180.86">
  <defs>
    <style>
      .cls-1 {
        fill: #f9c03f;
      }

      .cls-1, .cls-2, .cls-3, .cls-4 {
        stroke-width: 0px;
      }

      .cls-2 {
        fill: #abadae;
      }

      .cls-3 {
        fill: #b9babc;
      }

      .cls-4 {
        fill: #fcd377;
      }
    </style>
  </defs>
  <g id="Capa_1" data-name="Capa 1">
    <g>
      <path class="cls-3" d="M173.02,108.64c.13-.5.2-1,.2-1.5h0c0-8.1-16.34-15.21-40.88-19.2.4-4.45-.12-9.04-1.43-13.45-2.92-9.84-9.46-18.88-17.25-26.86-4.88-5-10.3-9.68-14.34-15.16-4.04-5.48-6.61-12.03-5-18.05.84-3.13,2.77-5.89,5.11-8.34,2.26-2.37,4.82-4.04,7.53-6.08-15.32,3.46-30.11,10.11-41.97,18.63-16.22,11.65-24.81,27.92-24.22,46.41.24,7.44,2.26,15.03,5.89,22.04C18.94,90.84,0,98.41,0,107.13h0c0,.36.04.71.1,1.06v50.06H.1c0,12.48,38.73,22.6,86.51,22.6s86.51-10.12,86.51-22.6h0v-49.68c-.7,2.77-3.32,5.41-7.51,7.82,4.13-2.39,6.71-5.01,7.41-7.76Z"/>
      <path class="cls-2" d="M151.64,107.13c-4.05,1.44-9.2,2.74-15.22,3.84,6.01,1.1,11.17,2.4,15.22,3.84,6.39-2.27,10.04-4.92,10.05-7.73h0c0-5.12-12.08-9.66-30.68-12.48-.83,2.56-2.01,5.01-3.58,7.28,9.95,1.33,18.27,3.13,24.22,5.25Z"/>
      <path class="cls-2" d="M56.67,100.68c-2.26-2.24-4.28-4.65-6.08-7.18-23.27,2.63-39.05,7.72-39.05,13.58h0c0,2.82,3.66,5.46,10.05,7.73,4.05-1.44,9.2-2.74,15.22-3.84-6.01-1.1-11.17-2.4-15.22-3.84,8.01-2.85,20.31-5.13,35.09-6.45Z"/>
      <path class="cls-1" d="M56.67,100.68c-14.77,1.33-27.08,3.6-35.09,6.45,4.05,1.44,9.2,2.74,15.22,3.84,12.33,2.25,28.28,3.68,45.84,3.87,8.86,1.92,18.26,1.7,26.45-.68,10.22-.66,19.5-1.76,27.33-3.19,6.01-1.1,11.17-2.4,15.22-3.84-5.95-2.12-14.28-3.92-24.22-5.25,1.57-2.27,2.76-4.72,3.58-7.28.7-2.16,1.14-4.39,1.34-6.66.4-4.45-.12-9.04-1.43-13.45-2.92-9.84-9.46-18.88-17.25-26.86-4.88-5-10.3-9.68-14.34-15.16-4.04-5.48-6.61-12.03-5-18.05.84-3.13,2.77-5.89,5.11-8.34,2.26-2.37,4.82-4.04,7.53-6.08-15.32,3.46-30.11,10.11-41.97,18.63-16.22,11.65-24.81,27.92-24.22,46.41.24,7.44,2.26,15.03,5.89,22.04,1.15,2.21,2.45,4.36,3.92,6.43,1.8,2.53,3.82,4.94,6.08,7.18ZM46.52,59.26c1.38-10.09,4.88-19.6,12.39-27.32,8.76-9.01,19.45-16.66,31.47-22.52-3.72,1.81-6.41,8.15-7.76,11.41-1.72,4.15-3.11,9.23-2.47,13.77,1.18,8.39,8.08,17.63,13.15,24.99,0-5.79,1.67-11.48,4.84-16.45.29,7.79,4.66,15.25,9.37,22.21,4.71,6.96,9.95,13.86,12.29,21.51.79,2.58,2.75,13.59-5.45,21.48-6.12,5.89-14.99,7.12-21.84,7.01,11.51-.71,20.73-8.79,20.54-18.85-.24-12.04-13.27-22.31-14.86-34.36-1.49,6.2-3.57,11.81-2.06,18.43-.42-1.84-3.69-4.47-4.63-6.42-1.16-2.4-2.36-4.87-3.02-7.4-1.32,3.61-1.56,7.54-.72,11.37-4.34-4.34-10.14-9.74-12.12-15.16-1.07-2.94-.92-6.44-.41-9.35.4-2.29,1.2-6.75,3.34-8.33-6.9,5.1-12.67,11.25-17,18.11-3.71,5.87-4.59,12.51-4,19.32.87,10.14,6.72,20.31,16.3,27,2.17,1.52,5.65,3.69,10.34,4.87-1-.17-1.64-.32-1.81-.36-10.32-2.46-16.8-8.14-20.37-11.67-12.15-12.01-17.54-28.25-15.49-43.28Z"/>
      <path class="cls-4" d="M82.38,114.21c.17.04.81.18,1.81.36-4.69-1.18-8.17-3.36-10.34-4.87-9.58-6.69-15.43-16.86-16.3-27-.58-6.81.29-13.45,4-19.32,4.33-6.85,10.11-13,17-18.11-2.14,1.58-2.94,6.04-3.34,8.33-.51,2.92-.66,6.42.41,9.35,1.99,5.42,7.78,10.82,12.12,15.16-.85-3.82-.6-7.76.72-11.37.66,2.53,1.86,5,3.02,7.4.94,1.95,4.21,4.58,4.63,6.42-1.51-6.61.58-12.22,2.06-18.43,1.59,12.04,14.62,22.31,14.86,34.36.2,10.05-9.03,18.14-20.54,18.85,6.85.11,15.72-1.12,21.84-7.01,8.2-7.89,6.24-18.89,5.45-21.48-2.34-7.65-7.58-14.55-12.29-21.51-4.71-6.96-9.08-14.42-9.37-22.21-3.17,4.97-4.84,10.67-4.84,16.45-5.07-7.36-11.97-16.6-13.15-24.99-.64-4.54.75-9.63,2.47-13.77,1.36-3.26,4.04-9.59,7.76-11.41-12.02,5.86-22.71,13.51-31.47,22.52-7.51,7.72-11.01,17.23-12.39,27.32-2.05,15.03,3.35,31.27,15.49,43.28,3.57,3.53,10.05,9.21,20.37,11.67Z"/>
    </g>
  </g>
</svg>