<?xml version="1.0" encoding="UTF-8"?>
<svg id="Layer_2" data-name="Layer 2" xmlns="http://www.w3.org/2000/svg" viewBox="0 0 153.38 180.86">
  <defs>
    <style>
      .cls-1 {
        fill: #f9c03f;
      }

      .cls-1, .cls-2, .cls-3, .cls-4, .cls-5, .cls-6, .cls-7, .cls-8, .cls-9 {
        stroke-width: 0px;
      }

      .cls-2 {
        fill: #abadae;
      }

      .cls-3 {
        fill: #b9babc;
      }

      .cls-4 {
        fill: #e25e5d;
      }

      .cls-5 {
        fill: #fcd377;
      }

      .cls-6 {
        fill: #8dd3f6;
      }

      .cls-7 {
        fill: #71cbf4;
      }

      .cls-8 {
        fill: #3abff0;
      }

      .cls-9 {
        fill: #ec6360;
      }
    </style>
  </defs>
  <g id="Capa_1" data-name="Capa 1">
    <g>
      <path class="cls-3" d="M153.21,151.68c.11-.2.17-.4.17-.61h0c0-3.21-13.91-6.03-34.95-7.66v-7.97c-.2.79-.98,1.55-2.24,2.23,1.24-.68,2.01-1.42,2.21-2.21.03-.13.05-.27.05-.41h0c0-2.34-5.06-4.37-12.48-5.39.07-1.13-.07-2.29-.4-3.41-.79-2.65-2.55-5.09-4.65-7.24-1.31-1.35-2.77-2.61-3.86-4.08-1.09-1.48-1.78-3.24-1.35-4.86.23-.84.75-1.59,1.38-2.24.61-.64,1.3-1.09,2.03-1.64-4.13.93-8.11,2.72-11.31,5.02-4.37,3.14-6.68,7.52-6.52,12.5.07,2.08.65,4.2,1.69,6.14-6.72,1.07-11.2,3-11.2,5.2h0c0,.09.01.18.03.27v6.63c-13.98.1-26.94.65-37.89,1.53V28.7h50.56v13.26c-3.96,4.3-8.07,9.18-12.15,14.68-6.92,9.32-12.13,18.22-16.05,25.95-1.66,2.26-1.91,5.28-.65,7.78.99,1.95,2.68,2.97,3.47,3.39,11.34,6.16,63.73,6.16,75.07,0,.79-.43,2.48-1.44,3.47-3.39,1.27-2.5,1.02-5.52-.65-7.78-3.92-7.73-9.13-16.63-16.05-25.95-3.75-5.05-7.52-9.58-11.19-13.62v-14.32h22.07c1.92,0,3.48-1.56,3.48-3.48v-2.75c0-1.92-1.56-3.48-3.48-3.48h-22.07v-8.5c2.68-1.11,4.32-2.58,4.32-4.19,0-3.48-7.59-6.29-16.96-6.29s-16.96,2.82-16.96,6.29c0,1.61,1.63,3.08,4.32,4.19v8.5H9.04c-1.92,0-3.48,1.56-3.48,3.48v2.75c0,1.92,1.56,3.48,3.48,3.48h9.91v116.36c-11.8,1.61-18.95,3.71-18.95,6.01h0c0,.14.03.29.09.43v20.23H.09c0,5.04,34.3,9.13,76.6,9.13s76.6-4.09,76.6-9.13h0v-20.07c-.62,1.12-2.93,2.18-6.64,3.16,3.65-.97,5.94-2.02,6.55-3.13Z"/>
      <path class="cls-6" d="M86.89,11.31c2.85.8,6.39,1.28,10.24,1.28s7.4-.48,10.24-1.28v7.68h2.4v-8.5c2.68-1.11,4.32-2.58,4.32-4.19,0-3.48-7.59-6.29-16.96-6.29s-16.96,2.82-16.96,6.29c0,1.61,1.63,3.08,4.32,4.19v8.5h2.4v-7.68ZM83.83,6.29c0-1.89,5.96-3.42,13.3-3.42s13.3,1.53,13.3,3.42-5.96,3.42-13.3,3.42-13.3-1.53-13.3-3.42Z"/>
      <path class="cls-6" d="M107.38,43.67c.79.86,1.59,1.73,2.4,2.64,2.96,3.34,5.99,7.03,9.01,11.09,6.3,8.48,11.04,16.59,14.61,23.62,1.51,2.06,1.74,4.8.59,7.08-.9,1.78-2.44,2.7-3.16,3.09-10.33,5.61-58.02,5.61-68.34,0-.72-.39-2.26-1.31-3.16-3.09-1.15-2.28-.92-5.03.59-7.08,3.57-7.04,8.31-15.14,14.61-23.62,3.34-4.5,6.71-8.55,9.97-12.17.81-.89,1.6-1.75,2.4-2.59v-13.93h-2.4v13.26c-3.96,4.3-8.07,9.18-12.15,14.68-6.92,9.32-12.13,18.22-16.05,25.95-1.66,2.26-1.91,5.28-.65,7.78.99,1.95,2.68,2.97,3.47,3.39,11.34,6.16,63.73,6.16,75.07,0,.79-.43,2.48-1.44,3.47-3.39,1.27-2.5,1.02-5.52-.65-7.78-3.92-7.73-9.13-16.63-16.05-25.95-3.75-5.05-7.52-9.58-11.19-13.62v-14.32h-2.4v14.97Z"/>
      <path class="cls-7" d="M97.14,12.59c-3.85,0-7.4-.48-10.24-1.28v7.68h20.48v-7.68c-2.85.8-6.39,1.28-10.24,1.28Z"/>
      <path class="cls-7" d="M110.44,6.29c0-1.89-5.96-3.42-13.3-3.42s-13.3,1.53-13.3,3.42,5.96,3.42,13.3,3.42,13.3-1.53,13.3-3.42ZM97.14,6.14c4.52,0,8.35.98,9.71,2.34-2.43.67-5.88,1.08-9.71,1.08s-7.29-.42-9.71-1.08c1.36-1.36,5.19-2.34,9.71-2.34Z"/>
      <path class="cls-8" d="M106.85,8.48c-1.36-1.36-5.19-2.34-9.71-2.34s-8.35.98-9.71,2.34c2.43.67,5.88,1.08,9.71,1.08s7.29-.42,9.71-1.08Z"/>
      <path class="cls-7" d="M84.5,45.23c-3.27,3.62-6.63,7.67-9.97,12.17-6.3,8.48-11.04,16.59-14.61,23.62-1.51,2.06-1.74,4.8-.59,7.08.9,1.78,2.44,2.7,3.16,3.09,10.33,5.61,58.02,5.61,68.34,0,.72-.39,2.26-1.31,3.16-3.09,1.15-2.28.92-5.03-.59-7.08-3.57-7.04-8.31-15.14-14.61-23.62-3.01-4.06-6.05-7.75-9.01-11.09-.8-.91-1.6-1.79-2.4-2.64v-14.97h-20.48v13.93c-.79.84-1.59,1.7-2.4,2.59ZM96.78,53.23c11.09,0,20.09,2.12,20.09,4.74,0,.03,0,.06,0,.09,0,0,0,0,0,.01,5.75,7.75,10.09,15.15,13.35,21.58,1.38,1.88,1.59,4.39.54,6.47-.82,1.62-2.23,2.47-2.88,2.82-9.43,5.12-52.99,5.12-62.43,0-.65-.36-2.06-1.2-2.88-2.82-1.05-2.08-.84-4.59.54-6.47,3.26-6.43,7.59-13.83,13.35-21.58.08-.11.17-.22.25-.33h.03c.52-2.51,9.3-4.5,20.06-4.5Z"/>
      <path class="cls-9" d="M96.78,62.7c-11.09,0-20.09-2.12-20.09-4.74,0-.08,0-.16.03-.24h-.03c-.08.11-.17.22-.25.33-5.75,7.75-10.09,15.15-13.35,21.58-1.38,1.88-1.59,4.39-.54,6.47.82,1.62,2.23,2.47,2.88,2.82,9.43,5.12,52.99,5.12,62.43,0,.65-.36,2.06-1.2,2.88-2.82,1.05-2.08.84-4.59-.54-6.47-3.26-6.43-7.59-13.83-13.35-21.58,0,0,0,0,0-.01-.2,2.58-9.11,4.65-20.08,4.65Z"/>
      <path class="cls-4" d="M76.72,57.73c-.02.08-.03.16-.03.24,0,2.62,8.99,4.74,20.09,4.74s19.88-2.08,20.08-4.65c0-.03,0-.06,0-.09,0-2.62-8.99-4.74-20.09-4.74s-19.54,2-20.06,4.5Z"/>
      <path class="cls-2" d="M0,151.07h0c0,.14.03.29.09.43,1.88,4.84,35.46,8.7,76.6,8.7,31.15,0,57.96-2.21,69.97-5.39,3.65-.97,5.94-2.02,6.55-3.13.11-.2.17-.4.17-.61h0c0-3.21-13.91-6.03-34.95-7.66v5.42h0c0,3.36-10.43,6.09-23.3,6.09s-23.3-2.73-23.3-6.09h0v-6.87c-13.98.1-26.94.65-37.89,1.53V28.7h-14.99v116.36c-11.8,1.61-18.95,3.71-18.95,6.01Z"/>
      <rect class="cls-2" x="6.66" y="21.14" width="127.56" height="2.71"/>
      <rect class="cls-2" x="83.52" y="24.78" width="50.7" height="1.36"/>
      <path class="cls-2" d="M102.97,135.36c4.09.35,7.5.98,9.71,1.76,1.72-.61,2.71-1.32,2.71-2.08,0-1.51-3.89-2.83-9.71-3.56-.26.89-.68,1.74-1.27,2.5-.41.52-.89.98-1.43,1.38Z"/>
      <path class="cls-2" d="M84.07,131.55c-5.5.74-9.14,2.03-9.14,3.49,0,.76.99,1.47,2.71,2.08,2.34-.83,6.03-1.48,10.46-1.82-1.62-1.02-2.97-2.3-4.03-3.75Z"/>
      <path class="cls-1" d="M88.1,135.3c-4.43.34-8.12.99-10.46,1.82,3.5,1.24,10.03,2.08,17.52,2.08s14.02-.84,17.52-2.08c-2.2-.79-5.61-1.41-9.71-1.76.54-.4,1.02-.86,1.43-1.38.59-.76,1.01-1.61,1.27-2.5.17-.59.28-1.2.32-1.81.07-1.13-.07-2.29-.4-3.41-.79-2.65-2.55-5.09-4.65-7.24-1.31-1.35-2.77-2.61-3.86-4.08-1.09-1.48-1.78-3.24-1.35-4.86.23-.84.75-1.59,1.38-2.24.61-.64,1.3-1.09,2.03-1.64-4.13.93-8.11,2.72-11.31,5.02-4.37,3.14-6.68,7.52-6.52,12.5.07,2.08.65,4.2,1.69,6.14.32.59.68,1.15,1.08,1.7,1.06,1.45,2.41,2.73,4.03,3.75ZM82.85,122.15c.37-2.72,1.32-5.28,3.34-7.36,2.36-2.43,5.24-4.49,8.48-6.07-1,.49-1.73,2.19-2.09,3.07-.46,1.12-.84,2.49-.67,3.71.32,2.26,2.18,4.75,3.54,6.73,0-1.56.45-3.09,1.3-4.43.08,2.1,1.25,4.11,2.52,5.98,1.27,1.87,2.68,3.73,3.31,5.79.21.7.74,3.66-1.47,5.79-1.68,1.61-4.12,1.93-5.97,1.89,3.14-.15,5.67-2.34,5.62-5.08-.06-3.24-3.57-6.01-4-9.25-.4,1.67-.96,3.18-.56,4.96-.11-.5-.99-1.2-1.25-1.73-.31-.65-.64-1.31-.81-1.99-.35.97-.42,2.03-.19,3.06-1.17-1.17-2.73-2.62-3.27-4.08-.29-.79-.25-1.73-.11-2.52.11-.62.32-1.82.9-2.25-1.86,1.38-3.41,3.03-4.58,4.88-1,1.58-1.24,3.37-1.08,5.2.23,2.73,1.81,5.47,4.39,7.27.59.41,1.55,1.01,2.83,1.32-.29-.05-.48-.09-.53-.1-2.78-.66-4.53-2.19-5.49-3.14-3.27-3.24-4.73-7.61-4.17-11.66Z"/>
      <path class="cls-5" d="M92.51,136.96s.24.05.53.1c-1.28-.31-2.24-.91-2.83-1.32-2.58-1.8-4.16-4.54-4.39-7.27-.16-1.83.08-3.62,1.08-5.2,1.17-1.85,2.72-3.5,4.58-4.88-.58.43-.79,1.63-.9,2.25-.14.79-.18,1.73.11,2.52.54,1.46,2.1,2.92,3.27,4.08-.23-1.03-.16-2.09.19-3.06.18.68.5,1.35.81,1.99.25.52,1.13,1.23,1.25,1.73-.41-1.78.16-3.29.56-4.96.43,3.24,3.94,6.01,4,9.25.05,2.73-2.48,4.92-5.62,5.08,1.86.04,4.3-.27,5.97-1.89,2.21-2.13,1.68-5.09,1.47-5.79-.63-2.06-2.04-3.92-3.31-5.79-1.27-1.87-2.45-3.89-2.52-5.98-.85,1.34-1.3,2.87-1.3,4.43-1.36-1.98-3.22-4.47-3.54-6.73-.17-1.22.2-2.59.67-3.71.37-.88,1.09-2.58,2.09-3.07-3.24,1.58-6.12,3.64-8.48,6.07-2.02,2.08-2.97,4.64-3.34,7.36-.55,4.05.9,8.42,4.17,11.66.96.95,2.71,2.48,5.49,3.14Z"/>
    </g>
  </g>
</svg>