<?xml version="1.0" encoding="UTF-8"?>
<svg id="Layer_2" data-name="Layer 2" xmlns="http://www.w3.org/2000/svg" viewBox="0 0 168.31 179.77">
  <defs>
    <style>
      .cls-1 {
        fill: #6ba55f;
      }

      .cls-1, .cls-2, .cls-3, .cls-4 {
        stroke-width: 0px;
      }

      .cls-2 {
        fill: #86c276;
      }

      .cls-3 {
        fill: #fcd377;
      }

      .cls-4 {
        fill: #eac06b;
      }
    </style>
  </defs>
  <g id="Capa_1" data-name="Capa 1">
    <g>
      <path class="cls-2" d="M149.35,30.36c-6.05.37-12.95.67-17.25-3.61C124.93,19.62,128.46.43,114.51,0c-4.19-.13-8.14,2.12-11.19,4.99-6.69,6.31-9.94,15.57-16.45,22.08-5.98,5.98-16.29,11.13-24.92,10.4-9.1-.76-16.43-2.82-24.95,2.78-2,1.32-3.82,3-4.96,5.11-4.04,7.52,1.74,16.49,1.82,25.02.07,7.92-4.86,15.03-10.46,20.64-5.6,5.61-12.12,10.39-16.7,16.86-5.44,7.69-7.74,17.55-6.26,26.85,1.28,8.03,6.28,16.32,14.25,17.93,9.96,2,19.89-7.04,29.7-4.42,7.55,2.02,11.57,9.93,15.88,16.45,3.48,5.27,7.84,10.17,13.52,12.94,5.67,2.77,12.84,3.06,18.07-.46,8.56-5.77,9.31-19.14,18.02-24.67,7.5-4.77,17.22-1.63,26.08-.87,12.02,1.04,25.67-4.06,30.06-15.3,3.03-7.76.98-16.75-3.24-23.94-1.98-3.38-4.43-6.51-5.99-10.1-3.86-8.93-1.64-19.31,1.85-28.39,3.49-9.08,8.23-17.87,9.45-27.53.48-3.86.3-8.07-2.02-11.2-3.61-4.87-10.68-5.19-16.73-4.83ZM157.53,51.85c-1.06,8.44-5.21,16.12-8.26,24.06-3.05,7.94-4.99,17.01-1.62,24.82,1.36,3.15,3.5,5.88,5.23,8.83,3.69,6.28,5.48,14.14,2.83,20.92-3.84,9.82-15.77,14.28-26.28,13.37-7.74-.67-16.24-3.41-22.8.76-7.61,4.84-8.27,16.53-15.75,21.57-4.58,3.08-10.84,2.83-15.8.4-4.96-2.42-8.77-6.71-11.82-11.31-3.77-5.7-7.28-12.61-13.88-14.38-8.58-2.3-17.26,5.61-25.97,3.86-6.97-1.4-11.34-8.65-12.46-15.67-1.3-8.14.71-16.75,5.47-23.47,4-5.65,9.7-9.83,14.6-14.73,4.9-4.9,9.21-11.11,9.14-18.04-.07-7.46-5.12-15.3-1.59-21.87.99-1.85,2.58-3.32,4.33-4.47,7.45-4.9,13.86-3.1,21.81-2.43,7.54.63,16.55-3.87,21.78-9.09,5.69-5.69,8.53-13.78,14.38-19.3,2.67-2.52,6.12-4.48,9.79-4.36,12.2.37,9.11,17.14,15.38,23.38,3.76,3.74,9.78,3.47,15.07,3.15,5.29-.32,11.47-.04,14.63,4.22,2.02,2.73,2.19,6.41,1.76,9.79Z"/>
      <path class="cls-2" d="M141.14,37.85c-5.29.32-11.32.58-15.07-3.15-6.27-6.23-3.18-23-15.38-23.38-3.67-.11-7.12,1.85-9.79,4.36-5.85,5.52-8.69,13.61-14.38,19.3-5.23,5.23-14.24,9.73-21.78,9.09-7.96-.67-14.36-2.47-21.81,2.43-1.75,1.15-3.34,2.62-4.33,4.47-3.53,6.57,1.52,14.41,1.59,21.87.06,6.93-4.25,13.14-9.14,18.04-4.9,4.9-10.6,9.08-14.6,14.73-4.76,6.72-6.77,15.34-5.47,23.47,1.12,7.02,5.49,14.27,12.46,15.67,8.7,1.75,17.39-6.16,25.97-3.86,6.6,1.77,10.11,8.68,13.88,14.38,3.04,4.6,6.86,8.89,11.82,11.31,4.96,2.42,11.22,2.68,15.8-.4,7.48-5.04,8.14-16.73,15.75-21.57,6.56-4.17,15.06-1.43,22.8-.76,10.51.91,22.44-3.55,26.28-13.37,2.65-6.79.85-14.64-2.83-20.92-1.73-2.95-3.87-5.69-5.23-8.83-3.37-7.81-1.43-16.88,1.62-24.82,3.05-7.94,7.2-15.62,8.26-24.06.42-3.37.26-7.06-1.76-9.79-3.16-4.26-9.34-4.54-14.63-4.22ZM73.2,82.48c4.09,0,7.41,3.32,7.41,7.41s-3.32,7.41-7.41,7.41-7.41-3.32-7.41-7.41,3.32-7.41,7.41-7.41ZM33.32,138.28c-8.61,0-15.59-6.98-15.59-15.59s6.98-15.59,15.59-15.59,15.59,6.98,15.59,15.59-6.98,15.59-15.59,15.59ZM83.81,103.44c-2.19,3.86-5.05,7.33-8.43,10.2-2.49,2.12-5.44,4.21-6.15,7.4-.46,2.11.18,4.29.81,6.36,1.48,4.81,2.96,9.63,4.43,14.44,1.24,4.03,1.81,9.63-2.07,11.28-2.75,1.18-5.93-.8-7.59-3.29-1.67-2.49-2.45-5.49-4.15-7.96-2.53-3.66-7.07-6.18-7.84-10.56-.34-1.95.16-3.94.39-5.92.94-7.99-3.04-16.36-9.84-20.67-3-1.9-6.93-3.71-7.2-7.25-.39-5.14,7.67-10.3,9.92-14.73,2.91-5.74,2.43-9.5.31-15.53-1.59-4.52-3.75-9.31-1.33-13.81,2.75-5.1,9.33-3.72,12.97-.41,4.1,3.72,6.19,9.34,6.36,14.88.17,5.54-1.41,11.01-3.73,16.05-1.51,3.28-3.38,6.73-2.78,10.3.7,4.2,4.84,7.19,9.07,7.78,4.22.58,8.47-.76,12.39-2.43,1.67-.71,3.99-1.3,4.96.23.69,1.09.11,2.5-.52,3.62ZM103.2,133.99c-4.09,0-7.41-3.32-7.41-7.41s3.32-7.41,7.41-7.41,7.41,3.32,7.41,7.41-3.32,7.41-7.41,7.41ZM112.11,97.29c-4.09,0-7.41-3.32-7.41-7.41s3.32-7.41,7.41-7.41,7.41,3.32,7.41,7.41-3.32,7.41-7.41,7.41ZM107.57,62.7c-7.23,0-13.09-5.86-13.09-13.09s5.86-13.09,13.09-13.09,13.09,5.86,13.09,13.09-5.86,13.09-13.09,13.09ZM148.67,63.65c-3.82,10.97-11.13,21.62-9.32,33.1.78,4.94,3.22,9.44,5.36,13.96,2.39,5.04,4.74,10.89,3.35,16.55-.88,3.59-4.58,10.17-8.9,10.34-1.96.07-4.68-1.55-4.97-3.66-.36-2.54,1.93-3.14,3.02-5,2.13-3.63,1.96-7.81.26-11.61-1.85-4.13-4.97-7.55-7.14-11.52-4.79-8.78-4.28-20.19,1.26-28.51,2.8-4.2,6.72-7.6,9.29-11.95,2.57-4.35,3.45-10.37.1-14.15-3.28-3.71-9.03-3.69-13.41-5.99-3.77-1.99-6.49-5.87-7.06-10.09,5.24,3.47,10.71,7.03,16.93,7.96,2.32.35,4.74.33,6.89,1.26,3.35,1.44,5.43,5,5.92,8.61.49,3.61-.38,7.27-1.58,10.71Z"/>
      <path class="cls-2" d="M107.57,36.52c-7.23,0-13.09,5.86-13.09,13.09s5.86,13.09,13.09,13.09,13.09-5.86,13.09-13.09-5.86-13.09-13.09-13.09ZM107.57,47.94c-2.51,0-4.55-2.03-4.55-4.54s2.03-4.55,4.55-4.55,4.54,2.04,4.54,4.55-2.03,4.54-4.54,4.54Z"/>
      <path class="cls-2" d="M107.57,38.85c-2.51,0-4.55,2.04-4.55,4.55s2.03,4.54,4.55,4.54,4.54-2.03,4.54-4.54-2.03-4.55-4.54-4.55Z"/>
      <path class="cls-2" d="M103.2,119.17c-4.09,0-7.41,3.32-7.41,7.41s3.32,7.41,7.41,7.41,7.41-3.32,7.41-7.41-3.32-7.41-7.41-7.41ZM103.2,125.63c-1.42,0-2.57-1.15-2.57-2.57s1.15-2.57,2.57-2.57,2.57,1.15,2.57,2.57-1.15,2.57-2.57,2.57Z"/>
      <path class="cls-2" d="M103.2,120.49c-1.42,0-2.57,1.15-2.57,2.57s1.15,2.57,2.57,2.57,2.57-1.15,2.57-2.57-1.15-2.57-2.57-2.57Z"/>
      <path class="cls-2" d="M112.11,82.48c-4.09,0-7.41,3.32-7.41,7.41s3.32,7.41,7.41,7.41,7.41-3.32,7.41-7.41-3.32-7.41-7.41-7.41ZM112.11,88.94c-1.42,0-2.57-1.15-2.57-2.57s1.15-2.57,2.57-2.57,2.57,1.15,2.57,2.57-1.15,2.57-2.57,2.57Z"/>
      <path class="cls-2" d="M112.11,83.79c-1.42,0-2.57,1.15-2.57,2.57s1.15,2.57,2.57,2.57,2.57-1.15,2.57-2.57-1.15-2.57-2.57-2.57Z"/>
      <path class="cls-2" d="M73.2,97.29c4.09,0,7.41-3.32,7.41-7.41s-3.32-7.41-7.41-7.41-7.41,3.32-7.41,7.41,3.32,7.41,7.41,7.41ZM73.2,83.79c1.42,0,2.57,1.15,2.57,2.57s-1.15,2.57-2.57,2.57-2.57-1.15-2.57-2.57,1.15-2.57,2.57-2.57Z"/>
      <path class="cls-2" d="M73.2,88.94c1.42,0,2.57-1.15,2.57-2.57s-1.15-2.57-2.57-2.57-2.57,1.15-2.57,2.57,1.15,2.57,2.57,2.57Z"/>
      <path class="cls-2" d="M33.32,107.1c-8.61,0-15.59,6.98-15.59,15.59s6.98,15.59,15.59,15.59,15.59-6.98,15.59-15.59-6.98-15.59-15.59-15.59ZM33.32,120.7c-2.99,0-5.41-2.42-5.41-5.41s2.42-5.41,5.41-5.41,5.41,2.42,5.41,5.41-2.42,5.41-5.41,5.41Z"/>
      <path class="cls-2" d="M33.32,109.87c-2.99,0-5.41,2.42-5.41,5.41s2.42,5.41,5.41,5.41,5.41-2.42,5.41-5.41-2.42-5.41-5.41-5.41Z"/>
      <path class="cls-2" d="M79.38,99.59c-3.92,1.67-8.17,3.01-12.39,2.43-4.22-.59-8.36-3.57-9.07-7.78-.6-3.57,1.28-7.01,2.78-10.3,2.31-5.04,3.9-10.51,3.73-16.05-.17-5.54-2.25-11.15-6.36-14.88-3.65-3.31-10.23-4.68-12.97.41-2.43,4.5-.26,9.29,1.33,13.81,2.12,6.02,2.6,9.79-.31,15.53-2.25,4.43-10.31,9.59-9.92,14.73.27,3.54,4.2,5.35,7.2,7.25,6.8,4.31,10.78,12.68,9.84,20.67-.23,1.97-.74,3.96-.39,5.92.77,4.38,5.31,6.9,7.84,10.56,1.7,2.46,2.48,5.47,4.15,7.96,1.67,2.49,4.84,4.47,7.59,3.29,3.87-1.65,3.3-7.26,2.07-11.28-1.48-4.81-2.96-9.63-4.43-14.44-.64-2.07-1.28-4.25-.81-6.36.7-3.2,3.66-5.28,6.15-7.4,3.37-2.88,6.24-6.35,8.43-10.2.63-1.12,1.21-2.54.52-3.62-.97-1.53-3.29-.94-4.96-.23Z"/>
      <path class="cls-2" d="M144.32,44.33c-2.15-.93-4.57-.91-6.89-1.26-6.22-.93-11.68-4.49-16.93-7.96.58,4.23,3.29,8.1,7.06,10.09,4.38,2.31,10.13,2.29,13.41,5.99,3.35,3.78,2.46,9.81-.1,14.15-2.57,4.35-6.49,7.74-9.29,11.95-5.54,8.32-6.04,19.73-1.26,28.51,2.16,3.97,5.29,7.39,7.14,11.52,1.7,3.8,1.86,7.99-.26,11.61-1.09,1.86-3.38,2.46-3.02,5,.3,2.11,3.01,3.73,4.97,3.66,4.32-.17,8.01-6.75,8.9-10.34,1.39-5.66-.96-11.51-3.35-16.55-2.14-4.52-4.58-9.01-5.36-13.96-1.81-11.48,5.5-22.13,9.32-33.1,1.2-3.44,2.07-7.1,1.58-10.71-.49-3.61-2.58-7.17-5.92-8.61Z"/>
      <path class="cls-1" d="M141.14,37.85c-5.29.32-11.32.58-15.07-3.15-6.27-6.23-3.18-23-15.38-23.38-3.67-.11-7.12,1.85-9.79,4.36-5.85,5.52-8.69,13.61-14.38,19.3-5.23,5.23-14.24,9.73-21.78,9.09-7.95-.67-14.36-2.47-21.81,2.43-1.75,1.15-3.34,2.62-4.33,4.47-3.53,6.57,1.52,14.41,1.59,21.87.06,6.93-4.25,13.14-9.14,18.04-4.9,4.9-10.6,9.08-14.6,14.73-4.76,6.72-6.77,15.34-5.47,23.47,1.12,7.02,5.49,14.27,12.46,15.67,8.7,1.75,17.39-6.16,25.97-3.86,6.6,1.77,10.11,8.68,13.88,14.38,3.04,4.6,6.86,8.89,11.82,11.31,4.96,2.42,11.22,2.68,15.8-.41,7.48-5.04,8.14-16.73,15.75-21.57,6.56-4.17,15.06-1.43,22.8-.76,10.51.91,22.44-3.55,26.28-13.37,2.65-6.79.85-14.64-2.83-20.92-1.73-2.95-3.87-5.69-5.23-8.83-3.37-7.81-1.43-16.88,1.62-24.82,3.05-7.94,7.2-15.62,8.26-24.06.42-3.37.26-7.06-1.76-9.79-3.16-4.26-9.34-4.54-14.63-4.22ZM73.2,82.48c4.09,0,7.41,3.32,7.41,7.41s-3.32,7.41-7.41,7.41-7.41-3.32-7.41-7.41,3.32-7.41,7.41-7.41ZM33.32,138.28c-8.61,0-15.59-6.98-15.59-15.59s6.98-15.59,15.59-15.59,15.59,6.98,15.59,15.59-6.98,15.59-15.59,15.59ZM83.81,103.44c-2.19,3.86-5.05,7.33-8.43,10.2-2.49,2.12-5.44,4.21-6.15,7.4-.46,2.11.18,4.29.81,6.36,1.48,4.81,2.96,9.63,4.43,14.44,1.24,4.03,1.81,9.63-2.07,11.28-2.75,1.18-5.92-.8-7.59-3.29-1.67-2.49-2.45-5.49-4.15-7.96-2.53-3.66-7.07-6.18-7.84-10.56-.34-1.95.16-3.94.39-5.92.94-7.99-3.04-16.36-9.84-20.67-3-1.9-6.93-3.71-7.2-7.25-.39-5.14,7.67-10.3,9.92-14.73,2.91-5.74,2.43-9.5.31-15.53-1.59-4.52-3.75-9.31-1.33-13.81,2.75-5.1,9.33-3.72,12.97-.41,4.1,3.72,6.19,9.34,6.36,14.88.17,5.54-1.41,11.01-3.73,16.05-1.51,3.28-3.38,6.73-2.78,10.3.7,4.2,4.84,7.19,9.07,7.78,4.22.58,8.47-.76,12.39-2.43,1.67-.71,3.99-1.3,4.96.23.69,1.09.11,2.5-.52,3.62ZM103.2,133.99c-4.09,0-7.41-3.32-7.41-7.41s3.32-7.41,7.41-7.41,7.41,3.32,7.41,7.41-3.32,7.41-7.41,7.41ZM112.11,97.29c-4.09,0-7.41-3.32-7.41-7.41s3.32-7.41,7.41-7.41,7.41,3.32,7.41,7.41-3.32,7.41-7.41,7.41ZM107.57,62.7c-7.23,0-13.09-5.86-13.09-13.09s5.86-13.09,13.09-13.09,13.09,5.86,13.09,13.09-5.86,13.09-13.09,13.09ZM148.67,63.65c-3.82,10.97-11.13,21.62-9.32,33.1.78,4.94,3.22,9.44,5.36,13.96,2.39,5.04,4.74,10.89,3.35,16.55-.88,3.59-4.58,10.17-8.9,10.34-1.96.07-4.68-1.55-4.97-3.66-.36-2.54,1.93-3.14,3.02-5,2.13-3.63,1.96-7.81.26-11.61-1.85-4.13-4.97-7.55-7.14-11.52-4.79-8.78-4.28-20.19,1.26-28.51,2.8-4.2,6.72-7.6,9.29-11.95,2.57-4.35,3.45-10.37.1-14.15-3.28-3.71-9.03-3.69-13.41-5.99-3.77-1.99-6.49-5.87-7.06-10.09,5.24,3.47,10.71,7.03,16.93,7.96,2.32.35,4.74.33,6.89,1.26,3.35,1.44,5.43,5,5.92,8.61.49,3.61-.38,7.27-1.58,10.71Z"/>
      <path class="cls-3" d="M107.57,36.52c-7.23,0-13.09,5.86-13.09,13.09s5.86,13.09,13.09,13.09,13.09-5.86,13.09-13.09-5.86-13.09-13.09-13.09ZM107.57,47.94c-2.51,0-4.55-2.03-4.55-4.54s2.04-4.55,4.55-4.55,4.54,2.04,4.54,4.55-2.03,4.54-4.54,4.54Z"/>
      <path class="cls-4" d="M107.57,38.85c-2.51,0-4.55,2.04-4.55,4.55s2.04,4.54,4.55,4.54,4.54-2.03,4.54-4.54-2.03-4.55-4.54-4.55Z"/>
      <path class="cls-3" d="M103.2,119.17c-4.09,0-7.41,3.32-7.41,7.41s3.32,7.41,7.41,7.41,7.41-3.32,7.41-7.41-3.32-7.41-7.41-7.41ZM103.2,125.63c-1.42,0-2.57-1.15-2.57-2.57s1.15-2.57,2.57-2.57,2.57,1.15,2.57,2.57-1.15,2.57-2.57,2.57Z"/>
      <path class="cls-4" d="M103.2,120.49c-1.42,0-2.57,1.15-2.57,2.57s1.15,2.57,2.57,2.57,2.57-1.15,2.57-2.57-1.15-2.57-2.57-2.57Z"/>
      <path class="cls-3" d="M112.11,82.48c-4.09,0-7.41,3.32-7.41,7.41s3.32,7.41,7.41,7.41,7.41-3.32,7.41-7.41-3.32-7.41-7.41-7.41ZM112.11,88.94c-1.42,0-2.57-1.15-2.57-2.57s1.15-2.57,2.57-2.57,2.57,1.15,2.57,2.57-1.15,2.57-2.57,2.57Z"/>
      <path class="cls-4" d="M112.11,83.79c-1.42,0-2.57,1.15-2.57,2.57s1.15,2.57,2.57,2.57,2.57-1.15,2.57-2.57-1.15-2.57-2.57-2.57Z"/>
      <path class="cls-3" d="M73.2,97.29c4.09,0,7.41-3.32,7.41-7.41s-3.32-7.41-7.41-7.41-7.41,3.32-7.41,7.41,3.32,7.41,7.41,7.41ZM73.2,83.79c1.42,0,2.57,1.15,2.57,2.57s-1.15,2.57-2.57,2.57-2.57-1.15-2.57-2.57,1.15-2.57,2.57-2.57Z"/>
      <path class="cls-4" d="M73.2,88.94c1.42,0,2.57-1.15,2.57-2.57s-1.15-2.57-2.57-2.57-2.57,1.15-2.57,2.57,1.15,2.57,2.57,2.57Z"/>
      <path class="cls-3" d="M33.32,107.1c-8.61,0-15.59,6.98-15.59,15.59s6.98,15.59,15.59,15.59,15.59-6.98,15.59-15.59-6.98-15.59-15.59-15.59ZM33.32,120.7c-2.99,0-5.41-2.42-5.41-5.41s2.42-5.41,5.41-5.41,5.41,2.42,5.41,5.41-2.42,5.41-5.41,5.41Z"/>
      <path class="cls-4" d="M33.32,109.87c-2.99,0-5.41,2.42-5.41,5.41s2.42,5.41,5.41,5.41,5.41-2.42,5.41-5.41-2.42-5.41-5.41-5.41Z"/>
    </g>
  </g>
</svg>