<?xml version="1.0" encoding="UTF-8"?>
<svg id="Layer_2" data-name="Layer 2" xmlns="http://www.w3.org/2000/svg" viewBox="0 0 144.22 180.86">
  <defs>
    <style>
      .cls-1 {
        fill: #8dd3f6;
      }

      .cls-1, .cls-2 {
        stroke-width: 0px;
      }

      .cls-2 {
        fill: #71cbf4;
      }
    </style>
  </defs>
  <g id="Capa_1" data-name="Capa 1">
    <g>
      <path class="cls-1" d="M28.96,102.55c2.24,8.15,3.16,16.65,5.89,24.65,2.77,8.15,7.33,15.55,11.05,23.31,3.6,7.47,5.99,15.05,5.85,23.31.85.11,1.7.28,2.45.38,2.22.29,4.44.53,6.68.7,12.11.93,24.92.31,36.39-3.66.22-.07.44-.15.67-.22.09-.23.09-.49.08-.74-.21-6.5-.62-12.93.02-19.37.6-6.05,2.86-11.91,6.39-16.86,3.47-4.86,8.52-7.85,11.7-12.98,6-9.68,8.98-21.07,16.22-30.01,3.8-4.7,8.75-8.65,11.19-14.18.52-1.17.91-2.49.55-3.72-.69-2.35-3.65-3.11-6.11-3.05-6.6.15-12.86,3.28-17.88,7.57-5.02,4.29-8.95,9.69-12.7,15.12-.45.66-1.01,1.38-1.8,1.46-.7.07-1.34-.39-1.86-.87-2.53-2.35-3.94-5.67-4.99-8.96-7.34-23.02-.35-48.05-2.7-72.09-.23-2.37-.85-5.15-3.05-6.06-1.36-.56-2.96-.19-4.22.57-3.75,2.25-4.89,7.07-5.56,11.4-1.72,11.12-2.62,22.36-2.68,33.61,0,1.55-.07,6.41-3.03,4.84-1.24-.66-1.72-2.17-2.05-3.54-3.55-15.04-2.35-30.83-5.35-45.99-.62-3.13-2.12-6.87-5.3-7.15-1.7-.15-3.35.88-4.35,2.27-1,1.39-1.44,3.1-1.72,4.79-1.2,7.39-.44,15.66.1,23.11.59,8.18,1.55,16.33,1.74,24.53.06,2.34.04,4.73-.74,6.93-.26.75-.65,1.51-1.35,1.89-1.51.83-3.32-.64-3.97-2.23-5.49-13.42-9.08-27.63-14.76-41.09-1.21-2.87-2.54-5.81-4.87-7.87-1.91-1.68-5.19-2.49-6.8-.52-.57.7-.8,1.62-.97,2.51-1.35,7.51,1.08,15.12,3.49,22.36,2.85,8.58,5.71,17.16,8.56,25.74.77,2.32,3.71,9.24.76,11.06-1.38.85-3.01-.6-3.98-1.9-7.56-10.11-15.12-20.23-22.68-30.34-2.08-2.78-4.86-5.87-8.3-5.37C1.95,36.31,0,39.58,0,42.64c0,3.05,1.46,5.9,2.93,8.57,9.3,16.85,20.93,32.79,26.03,51.34Z"/>
      <path class="cls-1" d="M60.88,174.9c-2.23-.17-4.46-.41-6.68-.7-.74-.1-1.59-.27-2.45-.38-.92-.11-1.84-.15-2.63.07-1.42.4-1.93,1.33-1.54,2.74.53,1.92,3.76,2.76,4.82,3.02,8.06,1.99,20.62.99,30.71.55,0,0,3-.36,8.64-1.03,3.6-.43,7.54-1.03,9.88-3.68,1.02-1.16,1.57-3,.51-4.12-1.01-1.06-2.7-.81-4.2-.36-.23.07-.45.14-.67.22-11.47,3.97-24.27,4.59-36.39,3.66Z"/>
      <path class="cls-2" d="M60.88,174.9c-2.23-.17-4.46-.41-6.68-.7-.74-.1-1.59-.27-2.45-.38-.92-.11-1.84-.15-2.63.08-1.42.4-1.93,1.33-1.54,2.74.53,1.92,3.76,2.76,4.82,3.02,8.06,1.99,20.62.99,30.71.55,0,0,3-.36,8.64-1.03,3.6-.43,7.54-1.03,9.88-3.68,1.02-1.16,1.57-3,.51-4.12-1.01-1.06-2.7-.81-4.2-.36-.23.07-.45.14-.67.22-11.47,3.97-24.27,4.59-36.39,3.66Z"/>
    </g>
  </g>
</svg>