<?xml version="1.0" encoding="UTF-8"?>
<svg id="Layer_2" data-name="Layer 2" xmlns="http://www.w3.org/2000/svg" viewBox="0 0 54.34 180.86">
  <defs>
    <style>
      .cls-1 {
        fill: #dba20e;
      }

      .cls-1, .cls-2, .cls-3, .cls-4, .cls-5 {
        stroke-width: 0px;
      }

      .cls-2 {
        fill: #fcd377;
      }

      .cls-3 {
        fill: #8dd3f6;
      }

      .cls-4 {
        fill: #71cbf4;
      }

      .cls-5 {
        fill: #3abff0;
      }
    </style>
  </defs>
  <g id="Capa_1" data-name="Capa 1">
    <g>
      <path class="cls-3" d="M27.17,0C12.17,0,0,4.52,0,10.09c0,2.58,2.62,4.94,6.92,6.72v143.8c0,11.18,9.07,20.25,20.25,20.25s20.25-9.07,20.25-20.25V16.81c4.3-1.78,6.92-4.14,6.92-6.72,0-5.57-12.16-10.09-27.17-10.09Z"/>
      <path class="cls-4" d="M10.76,18.12v142.6c0,9.06,7.35,16.41,16.41,16.41s16.41-7.35,16.41-16.41V18.12c-4.56,1.28-10.24,2.05-16.41,2.05s-11.85-.76-16.41-2.05ZM40.73,62.04v96.92c0,7.38-5.98,13.36-13.36,13.36h-.39c-7.38,0-13.36-5.98-13.36-13.36V62.04c0-2.92,6.07-5.3,13.56-5.3s13.56,2.37,13.56,5.3Z"/>
      <path class="cls-2" d="M27.17,67.33c-7.49,0-13.56-2.37-13.56-5.3v96.92c0,7.38,5.98,13.36,13.36,13.36h.39c7.38,0,13.36-5.98,13.36-13.36V62.04c0,2.92-6.07,5.3-13.56,5.3Z"/>
      <path class="cls-4" d="M11.61,13.83c2.18-2.18,8.32-3.74,15.56-3.74s13.39,1.57,15.56,3.74c3.57-.98,5.75-2.3,5.75-3.74,0-3.03-9.54-5.48-21.32-5.48S5.85,7.06,5.85,10.09c0,1.45,2.19,2.76,5.75,3.74Z"/>
      <path class="cls-5" d="M11.61,13.83s0,0,0,0c.24.07.48.13.73.19.01,0,.02,0,.03,0,.24.06.49.12.74.18.02,0,.04,0,.06.01.24.05.49.11.74.16.03,0,.06.01.1.02.24.05.49.1.74.14.04,0,.09.02.13.02.24.04.48.09.73.13.06,0,.11.02.17.03.24.04.48.08.72.11.07.01.14.02.21.03.23.03.47.07.71.1.08.01.16.02.24.03.23.03.47.06.7.09.09.01.18.02.28.03.23.03.46.05.69.07.1.01.2.02.31.03.23.02.46.04.68.06.11,0,.22.02.34.03.22.02.45.04.68.05.12,0,.24.02.36.03.22.02.45.03.67.04.13,0,.26.02.39.02.22.01.45.02.68.03.13,0,.27.01.4.02.23,0,.46.02.69.02.13,0,.27,0,.4.01.25,0,.5.01.75.02.12,0,.24,0,.36,0,.37,0,.74,0,1.12,0s.75,0,1.12,0c.12,0,.24,0,.36,0,.25,0,.5,0,.75-.02.13,0,.27,0,.4-.01.23,0,.46-.01.69-.02.13,0,.27-.01.4-.02.23-.01.45-.02.68-.03.13,0,.26-.02.39-.02.22-.01.45-.03.67-.04.12,0,.24-.02.37-.03.23-.02.45-.03.68-.05.11,0,.23-.02.34-.03.23-.02.46-.04.68-.06.1-.01.21-.02.31-.03.23-.02.46-.05.69-.07.09-.01.19-.02.28-.03.24-.03.47-.06.7-.09.08-.01.16-.02.24-.03.24-.03.48-.06.71-.1.07,0,.14-.02.21-.03.24-.04.48-.07.71-.11.06,0,.12-.02.18-.03.24-.04.49-.08.72-.13.05,0,.09-.02.14-.03.25-.05.49-.09.73-.14.03,0,.07-.01.1-.02.25-.05.49-.1.73-.16.02,0,.05-.01.07-.02.25-.06.49-.11.73-.17.01,0,.03,0,.04-.01.25-.06.49-.12.72-.19,0,0,0,0,.01,0h0c-2.18-2.18-8.32-3.74-15.56-3.74s-13.39,1.57-15.56,3.74Z"/>
      <path class="cls-1" d="M13.62,62.04c0,2.92,6.07,5.3,13.56,5.3s13.56-2.37,13.56-5.3-6.07-5.3-13.56-5.3-13.56,2.37-13.56,5.3Z"/>
    </g>
  </g>
</svg>