<?xml version="1.0" encoding="UTF-8"?>
<svg id="Layer_2" data-name="Layer 2" xmlns="http://www.w3.org/2000/svg" viewBox="0 0 170.27 180.86">
  <defs>
    <style>
      .cls-1 {
        fill: #f08250;
      }

      .cls-1, .cls-2, .cls-3, .cls-4, .cls-5, .cls-6, .cls-7, .cls-8 {
        stroke-width: 0px;
      }

      .cls-2 {
        fill: #ea8a68;
      }

      .cls-3 {
        fill: #57c4f2;
      }

      .cls-4 {
        fill: #e25e5d;
      }

      .cls-5 {
        fill: #8dd3f6;
      }

      .cls-6 {
        fill: #71cbf4;
      }

      .cls-7 {
        fill: #ec6360;
      }

      .cls-8 {
        fill: #e77361;
      }
    </style>
  </defs>
  <g id="Capa_1" data-name="Capa 1">
    <g>
      <g>
        <path class="cls-5" d="M126.07,127.96c-.51,2.02-2.41,3.94-5.46,5.69,3.01-1.74,4.89-3.65,5.39-5.65.09-.36.14-.73.14-1.1h0c0-9.09-28.24-16.46-63.07-16.46S0,117.81,0,126.9h0c0,.26.03.52.07.77v36.45H.07s0,.09,0,.14c0,.04,0,.09,0,.13H.07c0,9.09,28.24,16.46,63.07,16.46s60.76-6.78,62.93-15.36c.09-.36.14-.73.14-1.1h0c0-.37-.05-.74-.14-1.1v-35.34Z"/>
        <path class="cls-5" d="M164.57,6.02c-8.15-8.33-22.03-7.97-31.01.81-4.13,4.04-6.5,9.15-7.07,14.31-.17,1.55-1.77,2.28-3.32,1.58-1.39-.63-2.4-.77-2.88-.3-1.25,1.22,1.54,6.2,6.51,12.03l-60.27,58.93-6.57,10.86c-1.29,2.13,1.91,5.4,4.07,4.16l11-6.33,60.27-58.93c5.72,5.1,10.63,8,11.88,6.78.48-.47.36-1.48-.24-2.89-.67-1.56.09-3.14,1.65-3.28,5.17-.45,10.34-2.71,14.47-6.74,8.98-8.78,9.65-22.65,1.5-30.98Z"/>
      </g>
      <path class="cls-5" d="M2.53,134.36v25.48c7.58-6.87,31.85-11.9,60.61-11.9s52.73,4.96,60.47,11.77v-24.5c-2.08,6.64-28.36,11.89-60.47,11.89s-60.61-5.7-60.61-12.74Z"/>
      <path class="cls-3" d="M126.07,164.13c0,9.09-28.21,16.46-63,16.46S.36,173.29.08,164.26c0,.04,0,.09,0,.13H.07c0,9.09,28.24,16.46,63.07,16.46s60.76-6.78,62.93-15.36c.09-.36.14-.73.14-1.1h0c0-.37-.05-.74-.14-1.1v.83h0Z"/>
      <path class="cls-3" d="M2.53,159.84v3.37h0c0,7.04,27.11,12.74,60.54,12.74s60.54-5.7,60.54-12.74h0v-3.49c-7.74-6.81-31.88-11.77-60.47-11.77s-53.03,5.03-60.61,11.9ZM96.8,161.08c0,4.06-15.07,7.35-33.66,7.35s-33.66-3.29-33.66-7.35,15.07-7.36,33.66-7.36,33.66,3.29,33.66,7.36Z"/>
      <path class="cls-2" d="M29.48,161.08c0,4.06,15.07,7.35,33.66,7.35s33.66-3.29,33.66-7.35-15.07-7.36-33.66-7.36-33.66,3.29-33.66,7.36ZM45.82,161.08c-4.52,0-8.19-.8-8.19-1.79s3.67-1.79,8.19-1.79,8.19.8,8.19,1.79-3.67,1.79-8.19,1.79ZM77.32,160.17c5.67,0,10.26,1,10.26,2.24s-4.59,2.24-10.26,2.24-10.26-1-10.26-2.24,4.6-2.24,10.26-2.24Z"/>
      <path class="cls-1" d="M45.82,157.5c-4.52,0-8.19.8-8.19,1.79s3.67,1.79,8.19,1.79,8.19-.8,8.19-1.79-3.67-1.79-8.19-1.79Z"/>
      <ellipse class="cls-8" cx="77.32" cy="162.42" rx="10.26" ry="2.24"/>
      <path class="cls-6" d="M.07,127.67v36.45H.07s0,.09,0,.14c.28,9.03,28.37,16.32,62.99,16.32s62.99-7.37,63-16.46h0v-36.17c-.51,2.02-2.41,3.94-5.46,5.69-9.87,5.72-31.92,9.71-57.53,9.71-33.84,0-61.45-6.95-63-15.68ZM123.61,135.21v27.99h0c0,7.04-27.11,12.74-60.54,12.74s-60.54-5.7-60.54-12.74h0v-28.84c0,7.03,27.14,12.74,60.61,12.74s58.39-5.25,60.47-11.89Z"/>
      <path class="cls-6" d="M15.79,132.49c8.01-2.85,21.92-4.91,38.29-5.48.13-1.02.44-1.98.91-2.83l4.05-8.56c-28.28.43-50.57,5.29-50.57,11.23h0c0,2.05,2.66,3.97,7.31,5.63Z"/>
      <path class="cls-6" d="M68.7,126.92c17.88.37,33.22,2.52,41.79,5.57,4.65-1.66,7.31-3.58,7.31-5.63h0c0-6.18-24.16-11.2-54.07-11.26l4.07,8.59c.45.83.76,1.75.9,2.73Z"/>
      <path class="cls-3" d="M68.78,128.02c0,4.24-3.27,7.69-7.33,7.75h-.11c-4.06-.06-7.33-3.5-7.33-7.75,0-.34.02-.68.06-1.01-16.37.56-30.28,2.62-38.29,5.48,9.45,3.37,27.12,5.63,47.35,5.63s37.9-2.27,47.35-5.63c-8.58-3.05-23.91-5.2-41.79-5.57.05.36.08.73.08,1.11Z"/>
      <path class="cls-6" d="M61.75,103.17c-1.33,2.02,1.33,4.74,3.38,3.46l10.45-6.54,58.96-57.65c-1.19-1.09-2.41-2.26-3.63-3.51-1.22-1.25-2.37-2.49-3.43-3.7l-58.96,57.65-6.77,10.3ZM99.35,64.26l9.49,1.78-32.55,31.83-9.85,6.74c-1.93,1.32-4.02-.81-2.65-2.71l6.96-9.69,28.59-27.95Z"/>
      <path class="cls-2" d="M66.45,104.62l9.85-6.74,32.55-31.83-9.49-1.78-28.59,27.95-6.96,9.69c-1.37,1.9.72,4.03,2.65,2.71Z"/>
      <path class="cls-7" d="M126.5,21.14c-.17,1.55-1.77,2.28-3.32,1.58-1.39-.63-2.4-.77-2.88-.3-1.25,1.22,1.54,6.2,6.51,12.03.22.26.45.52.68.78,1.06,1.21,2.21,2.46,3.43,3.7,1.22,1.25,2.44,2.42,3.63,3.51.26.24.51.47.77.69,5.72,5.1,10.63,8,11.88,6.78.48-.47.36-1.48-.24-2.89-.67-1.56.09-3.14,1.65-3.28,5.17-.45,10.34-2.71,14.47-6.74,8.98-8.78,9.65-22.65,1.5-30.98-8.15-8.33-22.03-7.97-31.01.81-4.13,4.04-6.5,9.15-7.07,14.31ZM147.57,4.49c4.68-.36,9.05,1.04,9.76,3.13.72,2.09-2.49,4.07-7.17,4.43-4.68.36-9.05-1.04-9.76-3.13-.72-2.09,2.49-4.07,7.17-4.43Z"/>
      <path class="cls-4" d="M150.16,12.05c4.68-.36,7.89-2.34,7.17-4.43-.72-2.09-5.09-3.49-9.76-3.13-4.68.36-7.89,2.34-7.17,4.43.72,2.09,5.09,3.49,9.76,3.13Z"/>
      <path class="cls-2" d="M54.08,127.01c-.04.33-.06.67-.06,1.01,0,4.24,3.27,7.69,7.33,7.75h.11c4.06-.06,7.33-3.5,7.33-7.75,0-.38-.03-.74-.08-1.11-.14-.98-.45-1.91-.9-2.73l-4.07-8.59-2.34-4.93-2.35,4.96-4.05,8.56c-.47.85-.79,1.81-.91,2.83ZM60.92,115.35c.42-.31,1.39.28,2.16,1.32.77,1.04,1.06,2.14.64,2.45-.42.31-1.39-.28-2.17-1.32-.77-1.04-1.06-2.14-.64-2.45ZM57.32,124.71c1.22-.54,3.06.96,4.12,3.34,1.05,2.38.92,4.75-.3,5.29-1.22.54-3.06-.96-4.12-3.34-1.05-2.38-.92-4.75.3-5.29Z"/>
      <path class="cls-8" d="M61.14,133.34c1.22-.54,1.36-2.91.3-5.29-1.05-2.38-2.9-3.88-4.12-3.34-1.22.54-1.36,2.91-.3,5.29,1.05,2.38,2.9,3.88,4.12,3.34Z"/>
      <path class="cls-1" d="M63.73,119.13c.42-.31.13-1.41-.64-2.45-.77-1.04-1.74-1.63-2.16-1.32-.42.31-.13,1.41.64,2.45.77,1.04,1.74,1.63,2.17,1.32Z"/>
    </g>
  </g>
</svg>