<?xml version="1.0" encoding="UTF-8"?>
<svg id="Layer_2" data-name="Layer 2" xmlns="http://www.w3.org/2000/svg" viewBox="0 0 153.22 180.86">
  <defs>
    <style>
      .cls-1 {
        fill: #6ba55f;
      }

      .cls-1, .cls-2, .cls-3, .cls-4, .cls-5, .cls-6, .cls-7, .cls-8 {
        stroke-width: 0px;
      }

      .cls-2 {
        fill: #abadae;
      }

      .cls-3 {
        fill: #b9babc;
      }

      .cls-4 {
        fill: #86c276;
      }

      .cls-5 {
        fill: #fcd377;
      }

      .cls-6 {
        fill: #71cbf4;
      }

      .cls-7 {
        fill: #3abff0;
      }

      .cls-8 {
        fill: #eac06b;
      }
    </style>
  </defs>
  <g id="Capa_1" data-name="Capa 1">
    <g>
      <path class="cls-6" d="M153.04,149.5c.11-.22.17-.43.17-.65h0c0-2.49-7.24-4.76-19.17-6.49V13.67c1.7-1.3,2.66-2.77,2.66-4.34,0-5.16-10.41-9.34-23.26-9.34s-23.26,4.18-23.26,9.34c0,1.57.96,3.04,2.66,4.34v125.58c-2.29-.06-4.63-.11-6.99-.15,3.56-5.83,5.63-12.75,5.63-20.16,0-15.38-8.88-28.59-21.6-34.46v-34.16c3.13-1.3,5.04-3.01,5.04-4.89,0-4.06-8.86-7.35-19.79-7.35s-19.79,3.29-19.79,7.35c0,1.88,1.91,3.6,5.04,4.89v34.16c-12.72,5.87-21.6,19.09-21.6,34.46,0,8.45,2.69,16.25,7.22,22.53-15.94,1.8-26.01,4.43-26.01,7.37h0c0,.15.03.31.09.46v21.74H.09c0,5.42,34.26,9.81,76.52,9.81s76.52-4.39,76.52-9.81h0v-21.57c-.62,1.2-2.94,2.35-6.65,3.4,3.66-1.04,5.95-2.18,6.56-3.37Z"/>
      <path class="cls-3" d="M.09,149.31v21.74H.09c0,5.42,34.26,9.81,76.52,9.81s76.52-4.39,76.52-9.81h0v-21.57c-.62,1.2-2.94,2.35-6.65,3.4-12,3.41-38.77,5.79-69.87,5.79-41.1,0-74.64-4.15-76.52-9.35Z"/>
      <path class="cls-2" d="M153.04,149.5c.11-.22.17-.43.17-.65h0c0-2.49-7.24-4.76-19.17-6.49v3.58c0,2.88-9.22,5.21-20.6,5.21s-20.6-2.33-20.6-5.21v-6.67c-2.29-.06-4.63-.11-6.99-.15-1.62,2.66-3.56,5.09-5.75,7.24h0c-.14,3.74-11.26,6.76-24.96,6.76s-24.82-3.02-24.96-6.76h0c-1.52-1.49-2.91-3.12-4.16-4.86-15.94,1.8-26.01,4.43-26.01,7.37h0c0,.15.03.31.09.46,1.88,5.21,35.42,9.35,76.52,9.35,31.11,0,57.88-2.38,69.87-5.79,3.66-1.04,5.95-2.18,6.56-3.37Z"/>
      <path class="cls-6" d="M31.53,144.04s0,0,.01.01h0c.14,3.35,10.64,6.06,23.59,6.06s23.45-2.71,23.59-6.06h0s0,0,.01-.01c6.61-6.16,10.74-14.89,10.74-24.56,0-13.48-8.01-25.11-19.6-30.55-.91-.43-1.84-.82-2.8-1.16v-36.5c-3.32.94-7.46,1.49-11.95,1.49s-8.63-.56-11.95-1.49v36.5c-.95.35-1.89.74-2.8,1.16-11.59,5.43-19.6,17.07-19.6,30.55,0,9.67,4.13,18.4,10.74,24.56ZM32.35,97.17c0-1.99,4.33-3.73,10.84-4.71,3.47-.52,7.57-.82,11.95-.82s8.48.3,11.95.82c6.5.97,10.84,2.72,10.84,4.71,5.73,5.7,9.28,13.55,9.28,22.21s-3.73,16.9-9.73,22.64c-.1.1-.2.2-.31.3h0c-.13,3.13-9.94,5.66-22.02,5.66s-21.89-2.53-22.02-5.66h0c-.11-.1-.2-.2-.31-.3-6-5.74-9.73-13.76-9.73-22.64s3.54-16.5,9.28-22.21Z"/>
      <path class="cls-6" d="M70.66,45.42c0-2.21-6.95-3.99-15.52-3.99s-15.52,1.79-15.52,3.99,6.95,3.99,15.52,3.99,15.52-1.79,15.52-3.99ZM55.14,45.24c5.28,0,9.75,1.14,11.34,2.73-2.83.78-6.86,1.27-11.34,1.27s-8.5-.49-11.33-1.27c1.59-1.58,6.06-2.73,11.33-2.73Z"/>
      <path class="cls-4" d="M33.11,142.32h0c.13,3.13,9.94,5.66,22.02,5.66s21.89-2.53,22.02-5.66h0c.11-.1.2-.2.31-.3,6-5.74,9.73-13.76,9.73-22.64s-3.54-16.5-9.28-22.21c0,3.05-10.2,5.53-22.79,5.53s-22.79-2.48-22.79-5.53c-5.73,5.7-9.28,13.55-9.28,22.21s3.73,16.9,9.73,22.64c.1.1.2.2.31.3Z"/>
      <path class="cls-1" d="M55.14,102.7c12.59,0,22.79-2.48,22.79-5.53,0-1.99-4.33-3.73-10.84-4.71-3.48-.52-7.57-.82-11.95-.82s-8.48.3-11.95.82c-6.5.97-10.84,2.72-10.84,4.71,0,3.05,10.2,5.53,22.79,5.53Z"/>
      <path class="cls-7" d="M66.47,47.97c-1.58-1.58-6.06-2.73-11.34-2.73s-9.75,1.14-11.33,2.73c2.83.78,6.86,1.27,11.33,1.27s8.5-.49,11.34-1.27Z"/>
      <path class="cls-6" d="M94.18,14.56v129.04c0,.15.03.29.08.44.87,2.49,9.13,4.44,19.19,4.44s18.32-1.95,19.19-4.44c.05-.14.08-.29.08-.44V14.57c-4.18,2.48-11.25,4.11-19.27,4.11s-15.09-1.63-19.27-4.11ZM97.83,30.2h10.5c.54,0,.98.44.98.98s-.44.98-.98.98h-10.5c-.54,0-.98-.44-.98-.98s.44-.98.98-.98ZM97.83,38.75h10.5c.54,0,.98.44.98.98s-.44.98-.98.98h-10.5c-.54,0-.98-.44-.98-.98s.44-.98.98-.98ZM131.37,49.41v92.9c0,2.59-8.03,4.69-17.92,4.69s-17.92-2.1-17.92-4.69V49.41h0c0-.68.61-1.32,1.7-1.9.1-.08.22-.14.34-.17,3-1.42,8.98-2.39,15.88-2.39,9.9,0,17.92,2,17.92,4.46Z"/>
      <path class="cls-5" d="M113.45,53.87c-9.9,0-17.92-2-17.92-4.46h0v92.9c0,2.59,8.02,4.69,17.92,4.69s17.92-2.1,17.92-4.69V49.41c0,2.46-8.02,4.46-17.92,4.46ZM108.33,141.27h-10.5c-.54,0-.98-.44-.98-.98s.44-.98.98-.98h10.5c.54,0,.98.44.98.98s-.44.98-.98.98ZM108.33,133.23h-10.5c-.54,0-.98-.44-.98-.98s.44-.98.98-.98h10.5c.54,0,.98.44.98.98s-.44.98-.98.98ZM108.33,125.19h-10.5c-.54,0-.98-.44-.98-.98s.44-.98.98-.98h10.5c.54,0,.98.44.98.98s-.44.98-.98.98ZM108.33,117.15h-10.5c-.54,0-.98-.44-.98-.98s.44-.98.98-.98h10.5c.54,0,.98.44.98.98s-.44.98-.98.98ZM108.33,109.11h-10.5c-.54,0-.98-.44-.98-.98s.44-.98.98-.98h10.5c.54,0,.98.44.98.98s-.44.98-.98.98ZM108.33,100.56h-10.5c-.54,0-.98-.44-.98-.98s.44-.98.98-.98h10.5c.54,0,.98.44.98.98s-.44.98-.98.98ZM108.33,92.01h-10.5c-.54,0-.98-.44-.98-.98s.44-.98.98-.98h10.5c.54,0,.98.44.98.98s-.44.98-.98.98ZM108.33,83.46h-10.5c-.54,0-.98-.44-.98-.98s.44-.98.98-.98h10.5c.54,0,.98.44.98.98s-.44.98-.98.98ZM108.33,74.91h-10.5c-.54,0-.98-.44-.98-.98s.44-.98.98-.98h10.5c.54,0,.98.44.98.98s-.44.98-.98.98ZM108.33,66.36h-10.5c-.54,0-.98-.44-.98-.98s.44-.98.98-.98h10.5c.54,0,.98.44.98.98s-.44.98-.98.98ZM108.33,57.81h-10.5c-.54,0-.98-.44-.98-.98s.44-.98.98-.98h10.5c.54,0,.98.44.98.98s-.44.98-.98.98Z"/>
      <path class="cls-8" d="M97.57,47.34c.08-.02.17-.04.26-.04h10.5c.54,0,.98.44.98.98s-.44.98-.98.98h-10.5c-.54,0-.98-.44-.98-.98,0-.32.15-.59.38-.77-1.09.58-1.7,1.22-1.7,1.9,0,2.46,8.02,4.46,17.92,4.46s17.92-2,17.92-4.46-8.02-4.46-17.92-4.46c-6.9,0-12.88.97-15.88,2.39Z"/>
      <path class="cls-6" d="M95.53,12.54c3.42-2.63,10.16-4.42,17.92-4.42s14.5,1.79,17.92,4.42c1.7-.95,2.67-2.04,2.67-3.21,0-3.59-9.22-6.51-20.59-6.51s-20.59,2.91-20.59,6.51c0,1.17.97,2.26,2.67,3.21Z"/>
      <path class="cls-7" d="M95.53,12.54c3.54,1.97,10.24,3.3,17.92,3.3s14.38-1.33,17.92-3.3c-3.42-2.63-10.16-4.42-17.92-4.42s-14.5,1.79-17.92,4.42Z"/>
      <path class="cls-7" d="M108.33,139.31h-10.5c-.54,0-.98.44-.98.98s.44.98.98.98h10.5c.54,0,.98-.44.98-.98s-.44-.98-.98-.98Z"/>
      <path class="cls-7" d="M108.33,131.27h-10.5c-.54,0-.98.44-.98.98s.44.98.98.98h10.5c.54,0,.98-.44.98-.98s-.44-.98-.98-.98Z"/>
      <path class="cls-7" d="M108.33,123.23h-10.5c-.54,0-.98.44-.98.98s.44.98.98.98h10.5c.54,0,.98-.44.98-.98s-.44-.98-.98-.98Z"/>
      <path class="cls-7" d="M108.33,115.19h-10.5c-.54,0-.98.44-.98.98s.44.98.98.98h10.5c.54,0,.98-.44.98-.98s-.44-.98-.98-.98Z"/>
      <path class="cls-7" d="M108.33,107.15h-10.5c-.54,0-.98.44-.98.98s.44.98.98.98h10.5c.54,0,.98-.44.98-.98s-.44-.98-.98-.98Z"/>
      <path class="cls-7" d="M108.33,98.6h-10.5c-.54,0-.98.44-.98.98s.44.98.98.98h10.5c.54,0,.98-.44.98-.98s-.44-.98-.98-.98Z"/>
      <path class="cls-7" d="M108.33,90.05h-10.5c-.54,0-.98.44-.98.98s.44.98.98.98h10.5c.54,0,.98-.44.98-.98s-.44-.98-.98-.98Z"/>
      <path class="cls-7" d="M108.33,81.5h-10.5c-.54,0-.98.44-.98.98s.44.98.98.98h10.5c.54,0,.98-.44.98-.98s-.44-.98-.98-.98Z"/>
      <path class="cls-7" d="M108.33,72.95h-10.5c-.54,0-.98.44-.98.98s.44.98.98.98h10.5c.54,0,.98-.44.98-.98s-.44-.98-.98-.98Z"/>
      <path class="cls-7" d="M108.33,64.4h-10.5c-.54,0-.98.44-.98.98s.44.98.98.98h10.5c.54,0,.98-.44.98-.98s-.44-.98-.98-.98Z"/>
      <path class="cls-7" d="M108.33,55.85h-10.5c-.54,0-.98.44-.98.98s.44.98.98.98h10.5c.54,0,.98-.44.98-.98s-.44-.98-.98-.98Z"/>
      <path class="cls-7" d="M96.85,48.28c0,.54.44.98.98.98h10.5c.54,0,.98-.44.98-.98s-.44-.98-.98-.98h-10.5c-.09,0-.17.02-.26.04-.13.03-.24.09-.34.17-.23.18-.38.46-.38.77Z"/>
      <path class="cls-7" d="M97.83,40.71h10.5c.54,0,.98-.44.98-.98s-.44-.98-.98-.98h-10.5c-.54,0-.98.44-.98.98s.44.98.98.98Z"/>
      <path class="cls-7" d="M97.83,32.16h10.5c.54,0,.98-.44.98-.98s-.44-.98-.98-.98h-10.5c-.54,0-.98.44-.98.98s.44.98.98.98Z"/>
    </g>
  </g>
</svg>