<?xml version="1.0" encoding="UTF-8"?>
<svg id="Layer_2" data-name="Layer 2" xmlns="http://www.w3.org/2000/svg" viewBox="0 0 93.93 180.86">
  <defs>
    <style>
      .cls-1 {
        fill: #7364a9;
      }

      .cls-1, .cls-2, .cls-3, .cls-4, .cls-5, .cls-6, .cls-7, .cls-8 {
        stroke-width: 0px;
      }

      .cls-2 {
        fill: #796aad;
      }

      .cls-3 {
        fill: #e25e5d;
      }

      .cls-4 {
        fill: #655d94;
      }

      .cls-5 {
        fill: #8dd3f6;
      }

      .cls-6 {
        fill: #71cbf4;
      }

      .cls-7 {
        fill: #3abff0;
      }

      .cls-8 {
        fill: #ec6360;
      }
    </style>
  </defs>
  <g id="Capa_1" data-name="Capa 1">
    <g>
      <path class="cls-5" d="M54.9,2.75c-10.35-3.74-19.87-3.66-21.26.18-.64,1.78.58,4.06,3.1,6.36L.89,108.48c-2.79,7.71,1.2,16.23,8.92,19.02,7.71,2.79,16.23-1.2,19.02-8.92L64.68,19.4c3.41-.16,5.81-1.13,6.45-2.91,1.39-3.84-5.88-9.99-16.23-13.73Z"/>
      <path class="cls-6" d="M80.54,48.62c-.06-1.41-.45-2.73-1.08-3.88l-7.16-15.1-7.16,15.1c-.69,1.27-1.09,2.73-1.09,4.29,0,.06,0,.11,0,.17-5.97,1.28-9.99,3.67-9.99,6.41,0,1.89,1.92,3.62,5.08,4.93v105.47c0,8.2,6.65,14.85,14.85,14.85s14.85-6.65,14.85-14.85V60.54c3.15-1.31,5.08-3.04,5.08-4.93,0-3.23-5.59-5.98-13.39-6.99Z"/>
      <path class="cls-6" d="M74,178.12c6.65,0,12.04-5.39,12.04-12.04V61.5c-3.34.94-7.51,1.5-12.04,1.5s-8.69-.56-12.04-1.5v104.59c0,6.65,5.39,12.04,12.04,12.04ZM64.06,93.71c0-2.14,4.45-3.88,9.94-3.88s9.94,1.74,9.94,3.88v71.09c0,5.41-4.39,9.8-9.8,9.8h-.29c-5.41,0-9.8-4.39-9.8-9.8v-71.09Z"/>
      <path class="cls-8" d="M73.85,174.59h.29c5.41,0,9.8-4.39,9.8-9.8v-71.09c0,2.15-4.45,3.88-9.94,3.88s-9.94-1.74-9.94-3.88v71.09c0,5.41,4.39,9.8,9.8,9.8Z"/>
      <path class="cls-6" d="M77.44,55.78c3.75.37,6.74,1.34,7.97,2.58,2.62-.72,4.22-1.68,4.22-2.75,0-1.67-3.94-3.1-9.56-3.71-.52,1.54-1.44,2.88-2.64,3.88Z"/>
      <path class="cls-6" d="M64.7,52.37c-3.84.73-6.34,1.91-6.34,3.23,0,1.06,1.6,2.03,4.22,2.75.9-.9,2.74-1.66,5.13-2.15-1.33-.94-2.39-2.26-3.01-3.82Z"/>
      <path class="cls-7" d="M72.37,57.68h-.13c-1.68-.02-3.23-.57-4.53-1.48-2.39.49-4.23,1.25-5.13,2.15h0s0,0,0,0c.18.05.36.1.54.14,0,0,.01,0,.02,0,.18.04.36.09.55.13.01,0,.03,0,.04,0,.18.04.36.08.55.12.02,0,.05,0,.07.01.18.04.36.07.54.1.03,0,.07.01.1.02.18.03.35.06.53.09.04,0,.09.01.13.02.17.03.35.06.52.08.05,0,.1.02.16.02.17.02.34.05.51.07.06,0,.13.02.19.03.16.02.33.04.5.06.07,0,.15.02.22.03.16.02.32.03.48.05.09,0,.17.02.26.03.15.01.3.03.45.04.1,0,.2.02.3.03.14.01.29.02.44.03.11,0,.22.02.33.02.14,0,.28.02.41.03.12,0,.24.02.37.02.13,0,.26.01.39.02.13,0,.27.01.4.02.12,0,.24,0,.35.01.15,0,.3.01.45.01.09,0,.17,0,.26,0,.45.01.9.02,1.36.02s.91,0,1.36-.02c.09,0,.17,0,.26,0,.15,0,.3,0,.45-.01.12,0,.24,0,.35-.01.14,0,.27-.01.4-.02.13,0,.26-.01.39-.02.12,0,.24-.01.37-.02.14,0,.28-.02.41-.03.11,0,.22-.02.33-.02.15-.01.29-.02.44-.03.1,0,.2-.02.3-.03.15-.01.3-.03.46-.04.09,0,.17-.02.26-.03.16-.02.32-.03.48-.05.07,0,.15-.02.22-.03.17-.02.33-.04.5-.06.06,0,.13-.02.19-.02.17-.02.34-.05.51-.07.05,0,.1-.01.15-.02.18-.03.35-.05.53-.08.04,0,.08-.01.12-.02.18-.03.36-.06.54-.09.03,0,.06-.01.09-.02.19-.03.37-.07.55-.11.02,0,.04,0,.06-.01.19-.04.37-.08.56-.12.01,0,.02,0,.03,0,.19-.04.38-.09.56-.13,0,0,0,0,0,0,.19-.05.37-.09.54-.14,0,0,0,0,0,0h0c-1.24-1.24-4.22-2.2-7.97-2.58-1.39,1.17-3.15,1.88-5.07,1.91Z"/>
      <ellipse class="cls-3" cx="74" cy="93.71" rx="9.94" ry="3.88"/>
      <path class="cls-2" d="M67.71,56.2c1.3.91,2.85,1.46,4.53,1.48h.13c1.92-.03,3.68-.74,5.07-1.91,1.2-1,2.12-2.34,2.64-3.88.3-.9.48-1.87.48-2.88,0-.14,0-.27-.01-.41-.06-1.41-.45-2.73-1.08-3.88l-7.16-15.1-7.16,15.1c-.69,1.27-1.09,2.73-1.09,4.29,0,.06,0,.11,0,.17.02,1.12.24,2.2.64,3.18.63,1.56,1.68,2.89,3.01,3.82ZM71.77,34.87c.47-.35,1.55.31,2.42,1.48.86,1.16,1.19,2.39.71,2.74-.47.35-1.55-.31-2.42-1.48-.87-1.16-1.19-2.39-.71-2.74ZM67.75,45.32c1.36-.6,3.42,1.07,4.6,3.73,1.18,2.66,1.03,5.31-.34,5.91-1.36.6-3.42-1.07-4.6-3.73-1.18-2.66-1.02-5.31.34-5.91Z"/>
      <path class="cls-4" d="M72.01,54.97c1.36-.6,1.52-3.25.34-5.91-1.18-2.66-3.24-4.33-4.6-3.73-1.36.6-1.52,3.25-.34,5.91,1.18,2.66,3.24,4.33,4.6,3.73Z"/>
      <path class="cls-1" d="M74.91,39.09c.47-.35.15-1.58-.71-2.74-.87-1.16-1.95-1.83-2.42-1.48-.47.35-.15,1.58.71,2.74.86,1.16,1.95,1.83,2.42,1.48Z"/>
      <path class="cls-6" d="M10.74,124.93c6.25,2.26,13.15-.98,15.41-7.23L61.7,19.34c-3.47-.25-7.58-1.14-11.83-2.68-4.25-1.54-7.98-3.48-10.81-5.5L3.51,109.52c-2.26,6.25.98,13.15,7.23,15.41ZM5.92,109.02L30.08,42.16c.73-2.02,5.51-2.14,10.67-.27,5.16,1.87,8.76,5.01,8.03,7.03l-24.16,66.85c-1.84,5.09-7.46,7.72-12.54,5.88l-.27-.1c-5.09-1.84-7.72-7.46-5.88-12.54Z"/>
      <path class="cls-2" d="M11.8,121.56l.27.1c5.09,1.84,10.71-.8,12.54-5.88l24.16-66.85c-.73,2.02-5.51,2.14-10.67.27-5.16-1.87-8.76-5.01-8.03-7.03L5.92,109.02c-1.84,5.09.79,10.71,5.88,12.54Z"/>
      <path class="cls-6" d="M40.72,8.41c2.04-.96,6.67-.51,11.67,1.3,5,1.81,8.84,4.42,9.8,6.46,2.7.21,4.54-.15,4.9-1.15.75-2.09-5.22-6.16-13.34-9.1-8.12-2.94-15.31-3.62-16.07-1.53-.36,1,.82,2.45,3.03,4.02Z"/>
      <path class="cls-7" d="M52.38,9.71c-5-1.81-9.62-2.26-11.67-1.3h0s0,0,0,0c.15.11.3.21.46.32,0,0,0,0,0,0,.16.1.32.21.48.32,0,0,.02.01.02.02.16.1.32.2.49.31.01,0,.03.02.04.03.16.1.33.2.49.3.02.01.04.02.06.04.16.09.33.19.5.28.03.02.06.03.09.05.16.09.32.18.49.27.04.02.08.04.12.06.16.09.32.17.49.26.05.02.09.05.13.07.16.08.32.16.49.25.05.03.11.05.16.08.16.08.32.15.48.23.06.03.13.06.19.09.16.07.31.15.47.22.07.03.14.06.21.1.16.07.31.14.47.21.08.03.15.07.23.1.16.07.31.14.47.2.08.04.16.07.25.11.15.07.31.13.47.2.09.04.17.07.26.11.16.07.33.13.49.2.08.03.17.07.25.1.17.07.35.14.53.2.08.03.15.06.23.09.26.1.51.19.77.29.52.19,1.04.37,1.56.54.02,0,.04.01.06.02.49.16.98.32,1.47.46.03,0,.06.02.09.03.47.14.94.27,1.4.4.03,0,.07.02.1.03.46.12.9.24,1.35.34.03,0,.06.01.09.02.44.1.88.2,1.3.29.03,0,.05.01.08.02.43.09.85.16,1.25.23.02,0,.03,0,.05,0,.41.07.81.13,1.2.18,0,0,.02,0,.03,0,.39.05.77.09,1.14.12h0c-.96-2.04-4.8-4.66-9.8-6.46Z"/>
      <path class="cls-4" d="M38.11,49.2c5.16,1.87,9.94,1.74,10.67-.27s-2.87-5.17-8.03-7.03c-5.16-1.87-9.94-1.74-10.67.27-.73,2.02,2.87,5.17,8.03,7.03Z"/>
    </g>
  </g>
</svg>