<?xml version="1.0" encoding="UTF-8"?>
<svg id="Layer_2" data-name="Layer 2" xmlns="http://www.w3.org/2000/svg" viewBox="0 0 180.86 100.9">
  <defs>
    <style>
      .cls-1 {
        fill: #6ba55f;
      }

      .cls-1, .cls-2, .cls-3, .cls-4, .cls-5, .cls-6 {
        stroke-width: 0px;
      }

      .cls-2 {
        fill: #abadae;
      }

      .cls-3 {
        fill: #999b9c;
      }

      .cls-4 {
        fill: #b9babc;
      }

      .cls-5 {
        fill: #86c276;
      }

      .cls-6 {
        fill: #98c989;
      }
    </style>
  </defs>
  <g id="Capa_1" data-name="Capa 1">
    <g>
      <path class="cls-4" d="M180.65,75.75V25.1c-.73,2.89-3.46,5.64-7.83,8.16,4.31-2.5,7-5.23,7.72-8.1.13-.52.2-1.04.2-1.57h0c0-13.03-40.46-23.59-90.38-23.59S0,10.56,0,23.58h0c0,.37.04.74.1,1.11v52.24H.1c0,.06,0,.13,0,.19,0,.06,0,.13,0,.19H.1c0,13.03,40.46,23.58,90.38,23.58s87.07-9.72,90.17-22.01c.13-.52.2-1.04.2-1.57h0c0-.53-.07-1.06-.2-1.58Z"/>
      <path class="cls-3" d="M180.65,76.93c0,13.02-40.42,23.58-90.27,23.58S.51,90.06.11,77.13c0,.06,0,.13,0,.19H.1c0,13.03,40.46,23.58,90.38,23.58s87.07-9.72,90.17-22.01c.13-.52.2-1.04.2-1.57h0c0-.53-.07-1.06-.2-1.58v1.19h0Z"/>
      <path class="cls-3" d="M139.68,57.54c0,3.41-2.76,6.17-6.17,6.17s-6.17-2.76-6.17-6.17c0-.6.09-1.18.25-1.73-11.32-1.33-23.88-2.07-37.11-2.07-8.09,0-15.93.28-23.39.8-1.06,2.43-3.48,4.13-6.3,4.13-2.38,0-4.48-1.21-5.71-3.05-24.8,2.76-43.91,8.32-51.46,15.17v4.83h0c0,10.08,38.84,18.25,86.75,18.25s86.75-8.17,86.75-18.25h0v-5.01c-6.18-5.43-19.64-10.05-37.45-13.07h0ZM35.72,67.15c-1.7,0-3.09-1.38-3.09-3.09s1.38-3.09,3.09-3.09,3.09,1.38,3.09,3.09-1.38,3.09-3.09,3.09ZM90.48,83.1c-26.64,0-48.23-4.72-48.23-10.54s21.59-10.54,48.23-10.54,48.23,4.72,48.23,10.54-21.59,10.54-48.23,10.54ZM149.18,64.07c1.7,0,3.09,1.38,3.09,3.09s-1.38,3.09-3.09,3.09-3.09-1.38-3.09-3.09,1.38-3.09,3.09-3.09Z"/>
      <path class="cls-5" d="M90.48,62.02c-26.64,0-48.23,4.72-48.23,10.54s21.59,10.54,48.23,10.54,48.23-4.72,48.23-10.54-21.59-10.54-48.23-10.54ZM65.66,72.56c-6.48,0-11.74-1.15-11.74-2.57s5.26-2.57,11.74-2.57,11.74,1.15,11.74,2.57-5.26,2.57-11.74,2.57ZM110.81,77.69c-8.12,0-14.71-1.44-14.71-3.21s6.59-3.21,14.71-3.21,14.71,1.44,14.71,3.21-6.58,3.21-14.71,3.21Z"/>
      <ellipse class="cls-6" cx="65.66" cy="70" rx="11.74" ry="2.57"/>
      <path class="cls-1" d="M110.81,71.26c-8.12,0-14.71,1.44-14.71,3.21s6.59,3.21,14.71,3.21,14.71-1.44,14.71-3.21-6.58-3.21-14.71-3.21Z"/>
      <path class="cls-5" d="M133.51,63.71c3.41,0,6.17-2.76,6.17-6.17h0c0-3.41-2.76-6.17-6.17-6.17-2.81,0-5.17,1.88-5.92,4.44-.16.55-.25,1.13-.25,1.73,0,3.41,2.76,6.17,6.17,6.17ZM135.1,59.49c1.53-1.23,3.16-1.75,3.64-1.15.49.6-.36,2.09-1.89,3.32-1.53,1.23-3.16,1.75-3.64,1.15-.48-.6.36-2.09,1.89-3.32ZM130.23,53.47c.75-.61,1.75-.61,2.24-.01.48.6.27,1.58-.48,2.19-.75.61-1.75.61-2.24.01-.49-.6-.27-1.58.48-2.19Z"/>
      <path class="cls-1" d="M131.99,55.65c.75-.61.97-1.59.48-2.19-.49-.6-1.49-.6-2.24.01-.75.61-.97,1.59-.48,2.19.48.6,1.49.59,2.24-.01Z"/>
      <path class="cls-6" d="M136.85,61.66c1.53-1.23,2.37-2.72,1.89-3.32-.48-.6-2.12-.09-3.64,1.15-1.53,1.23-2.37,2.72-1.89,3.32.49.6,2.12.09,3.64-1.15Z"/>
      <path class="cls-5" d="M55.08,55.61c1.23,1.84,3.33,3.05,5.71,3.05,2.82,0,5.24-1.7,6.3-4.13.35-.81.55-1.71.57-2.65-4.73-.27-9.29-.62-13.67-1.05-.04.31-.07.63-.07.95,0,1.41.43,2.73,1.16,3.82ZM62.56,53.96c1.7-1.37,3.52-1.95,4.06-1.28.54.67-.4,2.32-2.1,3.7-1.7,1.37-3.52,1.95-4.06,1.28s.4-2.32,2.1-3.7Z"/>
      <path class="cls-6" d="M64.52,56.38c1.7-1.37,2.64-3.03,2.1-3.7-.54-.67-2.36-.1-4.06,1.28-1.7,1.37-2.64,3.03-2.1,3.7s2.36.1,4.06-1.28Z"/>
      <path class="cls-2" d="M.1,24.69v52.24H.1c0,.06,0,.13,0,.19.4,12.94,40.66,23.39,90.27,23.39s90.27-10.56,90.27-23.58h0V25.1c-.73,2.89-3.46,5.64-7.83,8.16-14.15,8.2-45.74,13.92-82.45,13.92C41.89,47.17,2.32,37.2.1,24.69ZM177.13,35.49v40.12h0c0,10.08-38.84,18.25-86.75,18.25S3.63,85.69,3.62,75.61h0v-41.33c0,7.34,20.63,13.67,50.37,16.57,4.37.43,8.94.78,13.67,1.05,7.27.42,14.92.64,22.81.64,46.02,0,83.67-7.52,86.65-17.04Z"/>
      <path class="cls-2" d="M22.63,31.6c8.16-2.9,20.58-5.24,35.51-6.63.09-1.62,1.43-2.91,3.08-2.91,1.47,0,2.69,1.03,3.01,2.4,6.88-.5,14.2-.82,21.81-.9.77-4.88,4.98-8.62,10.07-8.62s9.48,3.89,10.12,8.92c22.26.94,41.09,3.82,52.12,7.74,6.66-2.37,10.48-5.13,10.48-8.07h0c0-8.92-35.07-16.14-78.34-16.14S12.14,14.61,12.14,23.53h0c0,2.94,3.82,5.7,10.48,8.07Z"/>
      <path class="cls-3" d="M106.31,25.14c0,5.64-4.57,10.21-10.21,10.21s-10.21-4.57-10.21-10.21c0-.54.05-1.07.14-1.59-7.61.09-14.93.4-21.81.9.05.22.08.45.08.69,0,1.7-1.38,3.09-3.09,3.09s-3.09-1.38-3.09-3.09c0-.06,0-.12,0-.18-14.93,1.4-27.35,3.73-35.51,6.63,13.54,4.82,38.86,8.07,67.85,8.07s54.31-3.25,67.85-8.07c-11.03-3.93-29.86-6.81-52.12-7.74.05.42.09.85.09,1.29ZM119.02,31.19c1.7,0,3.09,1.38,3.09,3.09s-1.38,3.09-3.09,3.09-3.09-1.38-3.09-3.09,1.38-3.09,3.09-3.09Z"/>
      <path class="cls-5" d="M96.1,35.35c5.64,0,10.21-4.57,10.21-10.21,0-.44-.04-.87-.09-1.29-.64-5.03-4.92-8.92-10.12-8.92s-9.31,3.74-10.07,8.62c-.08.52-.14,1.05-.14,1.59,0,5.64,4.57,10.21,10.21,10.21ZM98.72,28.36c2.53-2.04,5.22-2.89,6.03-1.9.8.99-.59,3.45-3.12,5.49-2.53,2.04-5.22,2.89-6.03,1.9-.8-.99.59-3.45,3.12-5.49ZM90.68,18.42c1.24-1,2.9-1.01,3.7-.02.8.99.45,2.61-.79,3.62-1.24,1-2.9,1.01-3.7.02-.8-.99-.45-2.61.79-3.61Z"/>
      <path class="cls-1" d="M93.59,22.01c1.24-1,1.6-2.62.79-3.62-.8-.99-2.46-.98-3.7.02-1.24,1-1.6,2.62-.79,3.61.8.99,2.46.98,3.7-.02Z"/>
      <path class="cls-6" d="M101.63,31.96c2.53-2.04,3.92-4.5,3.12-5.49-.8-.99-3.5-.14-6.03,1.9-2.53,2.04-3.92,4.5-3.12,5.49.8.99,3.5.14,6.03-1.9Z"/>
      <path class="cls-5" d="M61.21,28.23c1.7,0,3.09-1.38,3.09-3.09,0-.24-.03-.47-.08-.69-.31-1.37-1.54-2.4-3.01-2.4-1.64,0-2.98,1.29-3.08,2.91,0,.06,0,.12,0,.18,0,1.7,1.38,3.09,3.09,3.09ZM62,26.12c.76-.62,1.58-.87,1.82-.57.24.3-.18,1.04-.94,1.66-.76.62-1.58.87-1.82.57-.24-.3.18-1.04.94-1.66ZM59.57,23.11c.37-.3.88-.31,1.12,0s.14.79-.24,1.09-.88.31-1.12,0c-.24-.3-.14-.79.24-1.09Z"/>
      <path class="cls-1" d="M60.45,24.2c.38-.3.48-.79.24-1.09s-.74-.3-1.12,0c-.38.3-.48.79-.24,1.09.24.3.74.3,1.12,0Z"/>
      <path class="cls-6" d="M62.88,27.2c.76-.62,1.19-1.36.94-1.66-.24-.3-1.06-.04-1.82.57-.76.62-1.19,1.36-.94,1.66.24.3,1.06.04,1.82-.57Z"/>
      <path class="cls-5" d="M35.72,60.98c-1.7,0-3.09,1.38-3.09,3.09s1.38,3.09,3.09,3.09,3.09-1.38,3.09-3.09-1.38-3.09-3.09-3.09ZM34.96,63.12c-.38.3-.88.31-1.12,0-.24-.3-.14-.79.24-1.09.37-.3.88-.31,1.12,0,.24.3.14.79-.24,1.09ZM38.33,64.47c.24.3-.18,1.04-.94,1.66-.76.62-1.58.87-1.82.57-.24-.3.18-1.04.94-1.66.76-.62,1.58-.87,1.82-.57Z"/>
      <path class="cls-1" d="M34.08,62.03c-.38.3-.48.79-.24,1.09.24.3.74.3,1.12,0,.38-.3.48-.79.24-1.09-.24-.3-.74-.3-1.12,0Z"/>
      <path class="cls-6" d="M35.57,66.7c.24.3,1.06.04,1.82-.57.76-.62,1.19-1.36.94-1.66-.24-.3-1.06-.04-1.82.57-.76.62-1.19,1.36-.94,1.66Z"/>
      <path class="cls-5" d="M119.02,37.36c1.7,0,3.09-1.38,3.09-3.09s-1.38-3.09-3.09-3.09-3.09,1.38-3.09,3.09,1.38,3.09,3.09,3.09ZM119.82,35.25c.76-.62,1.58-.87,1.82-.57.24.3-.18,1.04-.94,1.66-.76.62-1.58.87-1.82.57-.24-.3.18-1.04.94-1.66ZM117.39,32.24c.38-.3.88-.31,1.12,0,.24.3.14.79-.24,1.09-.37.3-.88.31-1.12,0-.24-.3-.14-.79.24-1.09Z"/>
      <path class="cls-1" d="M118.26,33.33c.38-.3.48-.79.24-1.09-.24-.3-.74-.3-1.12,0-.38.3-.48.79-.24,1.09.24.3.74.3,1.12,0Z"/>
      <path class="cls-6" d="M120.7,36.34c.76-.62,1.19-1.36.94-1.66-.24-.3-1.06-.04-1.82.57-.76.62-1.19,1.36-.94,1.66.24.3,1.06.04,1.82-.57Z"/>
      <path class="cls-5" d="M149.18,70.24c1.7,0,3.09-1.38,3.09-3.09s-1.38-3.09-3.09-3.09-3.09,1.38-3.09,3.09,1.38,3.09,3.09,3.09ZM149.97,68.13c.76-.62,1.58-.87,1.82-.57.24.3-.18,1.04-.94,1.66-.76.62-1.58.87-1.82.57-.24-.3.18-1.04.94-1.66ZM147.54,65.12c.38-.3.88-.31,1.12,0,.24.3.13.79-.24,1.09-.37.3-.88.31-1.12,0-.24-.3-.14-.79.24-1.09Z"/>
      <path class="cls-1" d="M148.42,66.21c.38-.3.48-.79.24-1.09-.24-.3-.74-.3-1.12,0-.38.3-.48.79-.24,1.09.24.3.74.3,1.12,0Z"/>
      <path class="cls-6" d="M150.85,69.21c.76-.62,1.19-1.36.94-1.66-.24-.3-1.06-.04-1.82.57-.76.62-1.19,1.36-.94,1.66.24.3,1.06.04,1.82-.57Z"/>
    </g>
  </g>
</svg>