<?xml version="1.0" encoding="UTF-8"?>
<svg id="Layer_2" data-name="Layer 2" xmlns="http://www.w3.org/2000/svg" viewBox="0 0 155.48 185.76">
  <defs>
    <style>
      .cls-1 {
        fill: #f9c03f;
      }

      .cls-1, .cls-2, .cls-3 {
        stroke-width: 0px;
      }

      .cls-2 {
        fill: #abadae;
      }

      .cls-3 {
        fill: #fcd377;
      }
    </style>
  </defs>
  <g id="Capa_1" data-name="Capa 1">
    <g>
      <path class="cls-2" d="M154.9,162.61c-.22-.5-.49-.98-.79-1.43L84.19,4.19h0c-.6-1.36-1.58-2.44-2.72-3.14-1.14-.71-2.44-1.05-3.73-1.05s-2.58.34-3.73,1.05c-1.14.7-2.12,1.79-2.72,3.14h0S1.06,161.69,1.06,161.69c-.05.08-.1.16-.15.24C.34,162.99,0,164.18,0,165.41c0,.97.21,1.92.59,2.79.35.82.84,1.58,1.42,2.28,1.1,1.31,2.53,2.44,4.24,3.5,3.01,1.84,6.92,3.44,11.65,4.86,7.09,2.13,15.99,3.86,26.16,5.06,10.17,1.2,21.59,1.87,33.68,1.87,10.47,0,20.46-.5,29.55-1.42,6.82-.69,13.15-1.6,18.81-2.71,4.25-.83,8.13-1.78,11.58-2.82,2.59-.78,4.93-1.62,7.01-2.52,3.12-1.35,5.66-2.82,7.56-4.54.95-.86,1.74-1.8,2.31-2.86.57-1.05.92-2.25.92-3.48,0-.97-.21-1.92-.59-2.79ZM124.48,107s.04-.08.06-.12l21.49,48.26c-2.43-1.15-5.25-2.19-8.46-3.16-7.09-2.13-15.99-3.86-26.16-5.06-1.77-.21-3.57-.4-5.41-.57v-2.01c-.17.65-.66,1.28-1.44,1.88,0,0,0,0,0,0,.76-.59,1.25-1.21,1.42-1.86.04-.16.06-.33.06-.49h0c0-2.83-6.13-5.29-15.1-6.52.09-1.37-.08-2.77-.48-4.12-.95-3.21-3.09-6.16-5.62-8.76-.82-.84-1.69-1.66-2.52-2.49,4.74-.19,9.28-.65,13.51-1.34,4.24-.7,8.18-1.63,11.72-2.77,5.32-1.71,9.75-3.86,13.01-6.48,1.63-1.31,2.97-2.76,3.93-4.38ZM75.78,6.19h0c.21-.47.48-.75.82-.96.33-.21.74-.32,1.15-.32s.82.11,1.15.32c.33.21.61.49.82.96h0s13.11,29.44,13.11,29.44c-1.68-.68-3.55-1.23-5.59-1.65-2.89-.59-6.1-.92-9.48-.92-2.95,0-5.76.25-8.35.7-1.94.34-3.75.8-5.4,1.37-.47.16-.91.33-1.35.51l13.13-29.45ZM60.01,43.37c.11-.22.29-.5.58-.8.5-.53,1.3-1.13,2.36-1.68,1.6-.84,3.77-1.59,6.3-2.11,2.53-.52,5.43-.82,8.49-.82,2.67,0,5.21.23,7.5.63,1.71.3,3.28.7,4.65,1.18,2.05.7,3.65,1.58,4.59,2.41.47.41.78.79.95,1.1.17.31.21.52.21.73,0,.19-.04.37-.16.63-.11.22-.29.5-.58.8-.5.53-1.3,1.13-2.36,1.68-1.6.84-3.77,1.59-6.3,2.11-2.53.52-5.43.82-8.49.82-2.67,0-5.21-.23-7.49-.63-1.71-.3-3.28-.7-4.65-1.18-2.05-.7-3.65-1.58-4.59-2.41-.47-.41-.78-.79-.94-1.1-.17-.31-.21-.52-.22-.73,0-.19.04-.37.16-.63ZM56.86,48.62c.05.06.11.12.16.18.99,1.05,2.23,1.91,3.65,2.66,2.13,1.12,4.7,1.97,7.59,2.57,2.89.59,6.1.92,9.48.92,2.95,0,5.76-.25,8.35-.7,1.94-.34,3.75-.8,5.4-1.37,2.47-.86,4.57-1.93,6.21-3.34.33-.28.63-.59.92-.91l18.2,40.87c-.7-.4-1.42-.78-2.18-1.15-4.48-2.19-10.03-3.92-16.34-5.13-6.3-1.21-13.36-1.88-20.81-1.88-6.49,0-12.68.51-18.33,1.44-4.24.7-8.18,1.63-11.72,2.77-3.24,1.04-6.14,2.25-8.66,3.62l18.08-40.55ZM34.53,99.23c.4-.75.99-1.55,1.81-2.35,1.43-1.41,3.52-2.83,6.16-4.12,3.96-1.94,9.14-3.58,15.11-4.72,5.97-1.14,12.73-1.79,19.89-1.79,6.23,0,12.16.49,17.53,1.37,4.03.66,7.74,1.54,11.02,2.6,4.92,1.57,8.87,3.55,11.43,5.63,1.28,1.03,2.21,2.08,2.79,3.06.58.99.83,1.88.84,2.79,0,.81-.2,1.6-.65,2.46-.4.75-.99,1.55-1.81,2.35-1.43,1.41-3.52,2.83-6.16,4.12-3.96,1.94-9.14,3.58-15.11,4.72-5.6,1.07-11.9,1.7-18.56,1.78-.45-1.16-.61-2.36-.3-3.51.28-1.02.9-1.92,1.67-2.72.74-.77,1.57-1.32,2.46-1.98-5,1.13-9.82,3.3-13.69,6.07-.73.52-1.41,1.08-2.04,1.66-2.4-.22-4.73-.52-6.95-.88-4.03-.66-7.74-1.54-11.02-2.6-4.92-1.57-8.87-3.55-11.43-5.63-1.28-1.03-2.21-2.08-2.79-3.06-.58-.99-.83-1.88-.84-2.79,0-.81.2-1.6.65-2.46ZM30.69,107.31c.61.96,1.35,1.86,2.21,2.71,1.94,1.91,4.46,3.57,7.45,5.03,4.48,2.19,10.03,3.92,16.34,5.13,2.11.4,4.31.74,6.57,1.02-1.53,2.69-2.3,5.71-2.19,8.94.08,2.51.78,5.08,2.05,7.43-8.13,1.29-13.56,3.63-13.56,6.3h0c0,.11.01.22.03.33v2.15c-.46.04-.93.08-1.39.13-6.82.69-13.15,1.6-18.81,2.71-4.25.83-8.13,1.78-11.58,2.82-2.59.78-4.93,1.62-7.01,2.52-.5.22-.98.44-1.45.66l21.35-47.88ZM150.38,166.28c-.13.31-.35.67-.68,1.06-.61.74-1.63,1.6-3.04,2.46-2.45,1.51-6.04,3.01-10.5,4.35-6.7,2.02-15.37,3.71-25.32,4.88-9.96,1.17-21.2,1.84-33.1,1.84-10.32,0-20.14-.5-29.06-1.39-6.69-.67-12.87-1.57-18.36-2.65-4.12-.81-7.84-1.72-11.1-2.7-2.44-.74-4.62-1.52-6.49-2.33-2.81-1.21-4.92-2.49-6.19-3.66-.64-.58-1.06-1.12-1.3-1.57-.24-.46-.32-.8-.32-1.14,0-.27.05-.54.19-.87.13-.31.35-.67.68-1.06.61-.74,1.63-1.6,3.03-2.46,2.45-1.51,6.04-3.01,10.5-4.35,6.7-2.02,15.37-3.71,25.32-4.88,1.61-.19,3.26-.37,4.94-.53v9.27c0,4.07,12.63,7.37,28.21,7.37s28.21-3.3,28.21-7.37h0v-9.25c.26.03.53.05.8.07,6.69.67,12.87,1.57,18.36,2.65,4.12.81,7.84,1.72,11.1,2.7,2.44.74,4.62,1.52,6.49,2.33,2.81,1.21,4.92,2.49,6.19,3.66.64.58,1.06,1.12,1.3,1.57.24.46.32.8.32,1.14,0,.27-.05.54-.19.87Z"/>
      <path class="cls-2" d="M103.29,147.03c.49-.26.91-.54,1.27-.82,0,0,0,0,0,0-.36.28-.78.55-1.27.82Z"/>
      <path class="cls-2" d="M66.42,141.92c-.74-.72-1.41-1.48-2.01-2.29-6.66.9-11.07,2.45-11.07,4.22h0c0,.92,1.19,1.78,3.28,2.52,1.32-.47,2.99-.89,4.95-1.25-1.97-.36-3.65-.78-4.98-1.26,2.31-.82,5.73-1.5,9.83-1.94Z"/>
      <path class="cls-2" d="M99,143.86c-1.32.47-2.99.89-4.95,1.25,1.97.36,3.65.78,4.98,1.26,2.08-.74,3.28-1.6,3.28-2.52h0c0-1.83-4.71-3.43-11.76-4.31-.25.85-.61,1.66-1.11,2.42,3.98.44,7.29,1.11,9.56,1.91Z"/>
      <path class="cls-1" d="M63.1,137.56c.38.71.82,1.4,1.3,2.06.59.81,1.27,1.58,2.01,2.29-4.1.44-7.52,1.12-9.83,1.94,1.32.47,3.01.9,4.98,1.26,3.55.65,8.03,1.09,12.97,1.22,2.78.63,5.74.61,8.36-.07,4.22-.18,8.05-.59,11.16-1.16,1.95-.36,3.63-.78,4.95-1.25-2.26-.81-5.58-1.47-9.56-1.91.49-.76.86-1.57,1.11-2.42.21-.71.34-1.45.38-2.2.09-1.37-.08-2.77-.48-4.12-.95-3.21-3.09-6.16-5.62-8.76-.82-.84-1.69-1.66-2.52-2.49-1.58.06-3.19.1-4.82.1-1.04,0-2.08-.02-3.11-.04.84,2.21,2.5,4.47,3.8,6.35,0-1.89.54-3.74,1.58-5.37.1,2.54,1.52,4.97,3.06,7.24,1.54,2.27,3.24,4.52,4.01,7.01.26.84.9,4.43-1.78,7-2.03,1.95-4.98,2.33-7.23,2.28,3.8-.19,6.87-2.83,6.8-6.14-.08-3.93-4.33-7.28-4.84-11.2-.49,2.02-1.16,3.85-.67,6.01-.14-.6-1.2-1.46-1.51-2.09-.38-.78-.77-1.59-.98-2.41-.43,1.18-.51,2.46-.23,3.71-1.42-1.42-3.31-3.18-3.95-4.94-.35-.96-.3-2.1-.14-3.05.13-.75.39-2.2,1.09-2.72-2.25,1.66-4.13,3.67-5.55,5.9-1.21,1.92-1.5,4.08-1.3,6.3.28,3.31,2.19,6.62,5.31,8.81.72.5,1.87,1.22,3.43,1.6-.36-.06-.59-.11-.64-.13-3.37-.8-5.48-2.65-6.64-3.81-3.96-3.92-5.72-9.21-5.05-14.11.33-2.43,1.04-4.76,2.38-6.82-.69-.07-1.38-.15-2.06-.23-1.53,2.69-2.3,5.71-2.19,8.94.08,2.51.78,5.08,2.05,7.43Z"/>
      <path class="cls-1" d="M78.52,113.62c.27-1.02.9-1.92,1.67-2.72.74-.77,1.57-1.32,2.46-1.98-5,1.13-9.82,3.3-13.69,6.07-.73.52-1.41,1.08-2.04,1.66.9.08,1.81.16,2.73.22,2.27-1.88,4.82-3.53,7.59-4.88-1.21.59-2.09,2.66-2.53,3.72-.18.43-.35.9-.49,1.38,1.08.03,2.17.05,3.27.05.45,0,.89-.01,1.33-.01-.45-1.16-.61-2.36-.3-3.51Z"/>
      <path class="cls-3" d="M67.98,142.36c1.17,1.15,3.28,3,6.64,3.81.06.01.29.07.64.13-1.56-.38-2.71-1.1-3.43-1.6-3.13-2.18-5.03-5.5-5.31-8.81-.19-2.22.09-4.38,1.3-6.3,1.41-2.23,3.3-4.24,5.55-5.9-.7.52-.96,1.97-1.09,2.72-.16.95-.22,2.09.14,3.05.65,1.77,2.54,3.53,3.95,4.94-.28-1.25-.19-2.53.23-3.71.21.82.61,1.63.98,2.41.31.63,1.37,1.49,1.51,2.09-.49-2.16.19-3.99.67-6.01.52,3.93,4.77,7.28,4.84,11.2.07,3.31-3,5.96-6.8,6.14,2.25.05,5.2-.33,7.23-2.28,2.67-2.57,2.03-6.16,1.78-7-.76-2.49-2.47-4.75-4.01-7.01-1.54-2.27-2.96-4.7-3.06-7.24-1.03,1.62-1.58,3.48-1.58,5.37-1.3-1.88-2.96-4.14-3.8-6.35-3.12-.08-6.15-.28-9.08-.58-1.33,2.06-2.05,4.39-2.38,6.82-.67,4.9,1.09,10.2,5.05,14.11Z"/>
      <path class="cls-3" d="M77.23,112c-2.77,1.35-5.32,3-7.59,4.88,1.5.1,3.02.18,4.57.22.14-.48.3-.95.49-1.38.44-1.06,1.32-3.13,2.53-3.72Z"/>
    </g>
  </g>
</svg>