<?xml version="1.0" encoding="UTF-8"?>
<svg id="Layer_2" data-name="Layer 2" xmlns="http://www.w3.org/2000/svg" viewBox="0 0 151.71 180.1">
  <defs>
    <style>
      .cls-1 {
        fill: #fcd377;
      }

      .cls-1, .cls-2, .cls-3, .cls-4, .cls-5 {
        stroke-width: 0px;
      }

      .cls-2 {
        fill: #8dd3f6;
      }

      .cls-3 {
        fill: #71cbf4;
      }

      .cls-4 {
        fill: #3abff0;
      }

      .cls-5 {
        fill: #eac06b;
      }
    </style>
  </defs>
  <g id="Capa_1" data-name="Capa 1">
    <g>
      <path class="cls-2" d="M149.08,151.45c-7.11-14.03-16.57-30.18-29.12-47.09-6.8-9.17-13.65-17.38-20.3-24.71V19.03c4.87-2.02,7.84-4.69,7.84-7.61,0-6.31-13.77-11.42-30.77-11.42s-30.77,5.11-30.77,11.42c0,2.92,2.97,5.59,7.84,7.61v58.7c-7.19,7.8-14.65,16.66-22.05,26.63-12.55,16.91-22.01,33.06-29.12,47.09-3.02,4.1-3.47,9.57-1.18,14.12,1.79,3.54,4.86,5.38,6.29,6.16,20.59,11.18,115.63,11.18,136.22,0,1.43-.78,4.5-2.61,6.29-6.16,2.3-4.54,1.84-10.02-1.18-14.12Z"/>
      <path class="cls-3" d="M59.09,66.05c.41,0,.82,0,1.23-.01v-11.76c-.4,0-.8,0-1.2.01h0c-.48,0-.88-.33-.97-.77v13.31c.09-.44.48-.77.95-.78Z"/>
      <path class="cls-3" d="M100.87,11.42c0-3.43-10.81-6.21-24.14-6.21s-24.14,2.78-24.14,6.21,10.81,6.21,24.14,6.21,24.14-2.78,24.14-6.21ZM76.73,11.14c8.2,0,15.16,1.78,17.62,4.24-4.4,1.21-10.67,1.97-17.62,1.97s-13.22-.76-17.62-1.97c2.46-2.46,9.42-4.24,17.62-4.24Z"/>
      <path class="cls-4" d="M94.35,15.38c-2.46-2.46-9.42-4.24-17.62-4.24s-15.16,1.78-17.62,4.24c4.4,1.21,10.67,1.97,17.62,1.97s13.22-.76,17.62-1.97Z"/>
      <path class="cls-3" d="M13.85,167.06c18.74,10.18,105.27,10.18,124.01,0,1.3-.71,4.1-2.38,5.73-5.61,2.09-4.14,1.68-9.12-1.07-12.85-6.47-12.77-15.08-27.47-26.51-42.87-5.47-7.37-10.97-14.06-16.35-20.12-1.46-1.64-2.91-3.24-4.35-4.79V20.52c-5.16,1.45-11.6,2.32-18.58,2.32s-13.42-.86-18.58-2.32v5.14c.09-.44.48-.77.95-.78,2.47-.03,4.93-.05,7.36-.05s4.83.02,7.18.05c.54,0,.98.45.97,1,0,.54-.45.98-1,.97-2.34-.04-4.73-.05-7.15-.05s-4.87.02-7.33.05h0c-.48,0-.88-.33-.97-.77v13.31c.09-.44.48-.77.95-.78,2.47-.04,4.93-.05,7.36-.05s4.83.02,7.18.05c.54,0,.98.45.97,1,0,.54-.45.97-1,.97-2.34-.04-4.73-.05-7.15-.05s-4.87.02-7.33.05h0c-.48,0-.88-.33-.97-.77v13.31c.09-.44.48-.77.95-.78.41,0,.82,0,1.23-.01v-3.44c0-2.19,7.3-3.97,16.3-3.97s16.3,1.78,16.3,3.97v34.79c6.66,7.11,13.62,15.29,20.53,24.61,10.7,14.44,18.76,28.24,24.82,40.22,2.57,3.5,2.96,8.18,1,12.06-1.53,3.03-4.15,4.6-5.36,5.26-17.55,9.55-98.56,9.55-116.1,0-1.22-.66-3.84-2.23-5.36-5.26-1.96-3.88-1.57-8.56,1-12.06,6.06-11.98,14.12-25.78,24.82-40.22,7.44-10.05,14.94-18.76,22.06-26.24v-14.04c-.4,0-.8,0-1.2.01h0c-.48,0-.88-.33-.97-.77v11.71c-1.44,1.52-2.89,3.09-4.35,4.71-5.93,6.56-12.03,13.91-18.1,22.08-11.43,15.39-20.04,30.1-26.51,42.87-2.75,3.73-3.16,8.72-1.07,12.85,1.63,3.22,4.43,4.9,5.73,5.6Z"/>
      <path class="cls-1" d="M76.62,52.84c-.73,0-1.45-.01-2.16-.04.09.15.14.33.14.52,0,.54-.45.98-1,.97-2.34-.03-4.73-.05-7.15-.05-2.02,0-4.07.02-6.13.04v11.76c2.06-.02,4.1-.04,6.13-.04,2.43,0,4.83.02,7.18.05.54,0,.98.45.97,1,0,.54-.45.98-1,.97-2.34-.04-4.73-.05-7.15-.05-2.02,0-4.07.02-6.13.04v14.04c-7.12,7.48-14.62,16.19-22.06,26.24-10.7,14.44-18.76,28.24-24.82,40.22-2.57,3.5-2.96,8.18-1,12.06,1.53,3.03,4.15,4.6,5.36,5.26,17.55,9.55,98.56,9.55,116.1,0,1.22-.66,3.84-2.23,5.36-5.26,1.96-3.88,1.57-8.56-1-12.06-6.06-11.98-14.12-25.78-24.82-40.22-6.91-9.32-13.87-17.5-20.53-24.61v-34.79c0,2.19-7.3,3.97-16.3,3.97Z"/>
      <path class="cls-1" d="M68.27,52.28c-4.76-.69-7.94-1.96-7.94-3.41v3.44c2.06-.02,4.1-.04,6.13-.04.61,0,1.21,0,1.82,0Z"/>
      <path class="cls-5" d="M68.27,52.28c1.81,0,3.6.02,5.37.05.35,0,.66.2.82.48.71.02,1.43.04,2.16.04,9,0,16.3-1.78,16.3-3.97s-7.3-3.97-16.3-3.97-16.3,1.78-16.3,3.97c0,1.45,3.19,2.72,7.94,3.41Z"/>
      <path class="cls-4" d="M59.12,26.84h0c2.46-.04,4.91-.05,7.33-.05s4.81.02,7.15.05c.54,0,.99-.42,1-.97,0-.54-.42-.99-.97-1-2.35-.03-4.75-.05-7.18-.05s-4.89.02-7.36.05c-.47,0-.85.34-.95.78-.01.07-.02.14-.02.22,0,.07,0,.13.02.2.1.45.5.78.97.77Z"/>
      <path class="cls-4" d="M59.12,40.57h0c2.46-.04,4.91-.05,7.33-.05s4.81.02,7.15.05c.54,0,.99-.43,1-.97,0-.54-.42-.99-.97-1-2.35-.04-4.75-.05-7.18-.05s-4.89.02-7.36.05c-.47,0-.85.34-.95.78-.01.07-.02.14-.02.22,0,.07,0,.13.02.19.1.45.5.78.97.77Z"/>
      <path class="cls-4" d="M59.12,54.29h0c.4,0,.8,0,1.2-.01,2.06-.02,4.1-.04,6.13-.04,2.42,0,4.81.02,7.15.05.54,0,.99-.42,1-.97,0-.19-.05-.37-.14-.52-.17-.28-.47-.47-.82-.48-1.76-.03-3.56-.04-5.37-.05-.61,0-1.21,0-1.82,0-2.02,0-4.07.02-6.13.04-.41,0-.82,0-1.23.01-.47,0-.85.34-.95.78-.01.07-.02.14-.02.22,0,.07,0,.13.02.2.1.45.5.78.97.77Z"/>
      <path class="cls-4" d="M59.12,68.01h0c.4,0,.8,0,1.2-.01,2.06-.02,4.1-.04,6.13-.04,2.42,0,4.81.02,7.15.05.54,0,.99-.42,1-.97,0-.54-.42-.99-.97-1-2.35-.04-4.75-.05-7.18-.05-2.02,0-4.07.02-6.13.04-.41,0-.82,0-1.23.01-.47,0-.85.34-.95.78-.01.07-.02.14-.02.22,0,.07,0,.13.02.2.1.45.5.78.97.77Z"/>
    </g>
  </g>
</svg>