<?xml version="1.0" encoding="UTF-8"?>
<svg id="Layer_2" data-name="Layer 2" xmlns="http://www.w3.org/2000/svg" viewBox="0 0 177.8 147.96">
  <defs>
    <style>
      .cls-1 {
        fill: #abadae;
      }

      .cls-1, .cls-2, .cls-3, .cls-4, .cls-5 {
        stroke-width: 0px;
      }

      .cls-2 {
        fill: #999b9c;
      }

      .cls-3 {
        fill: #b9babc;
      }

      .cls-4 {
        fill: #e25e5d;
      }

      .cls-5 {
        fill: #ec6360;
      }
    </style>
  </defs>
  <g id="Capa_1" data-name="Capa 1">
    <g>
      <path class="cls-3" d="M177.6,125.27c.13-.16.2-.31.2-.47h0c0-1.8-8.36-3.44-22.13-4.69V10.82c1.92-.24,3.4-1.87,3.4-3.86v-3.07c0-2.15-1.74-3.89-3.89-3.89H17.86c-2.15,0-3.89,1.74-3.89,3.89v3.07c0,2.02,1.54,3.68,3.51,3.87v109.73c-10.98,1.18-17.49,2.65-17.49,4.23,0,.11.04.22.1.33v15.73H.1c0,3.92,39.76,7.1,88.8,7.1s88.8-3.18,88.8-7.1h0v-15.61c-.72.87-3.4,1.7-7.71,2.46,4.24-.75,6.89-1.57,7.6-2.44ZM27.71,10.85h14.38v60.76c-5.64.97-9.94,5.88-9.94,11.8,0,6.62,5.35,12,11.98,12.01,6.63,0,12-5.35,12.01-11.98,0-5.93-4.29-10.86-9.94-11.83V10.85h22.04v60.76c-5.64.97-9.93,5.88-9.94,11.8,0,6.62,5.35,12,11.98,12.01,6.63,0,12-5.35,12.01-11.98,0-5.93-4.29-10.86-9.94-11.83V10.85h22.04v60.76c-5.64.97-9.93,5.88-9.94,11.8,0,6.62,5.35,12,11.98,12.01,6.63,0,12-5.35,12.01-11.98,0-5.93-4.29-10.86-9.94-11.83V10.85h18.34c3.13,20.28,6.26,40.56,9.38,60.84-5.43,1.82-8.92,7.33-8.03,13.18,1,6.55,7.12,11.05,13.67,10.05,6.55-1,11.05-7.12,10.05-13.67-.9-5.86-5.89-10.08-11.63-10.18l-9.29-60.22h24.47v108.46c-15.37-1.01-35.07-1.62-56.54-1.62-23.71,0-45.25.74-61.19,1.95V10.85Z"/>
      <path class="cls-5" d="M128.75,74.21c-1.2.22-2.09-.42-2.24-.53-.1-.66-.2-1.32-.31-1.99-5.43,1.82-8.92,7.33-8.03,13.18,1,6.55,7.12,11.05,13.67,10.05,6.55-1,11.05-7.12,10.05-13.67-.9-5.86-5.89-10.08-11.63-10.18l.31,1.99c-.12.17-.71.95-1.82,1.15ZM126.56,79.88c-1.26,1.39-3.19,1.69-4.3.68-1.11-1.01-.98-2.95.28-4.34,1.26-1.39,3.19-1.69,4.3-.68,1.11,1.01.98,2.95-.28,4.34ZM133.65,86.34c2.57-2.82,5.55-4.29,6.66-3.28,1.11,1.01-.08,4.12-2.65,6.94-2.57,2.82-5.56,4.29-6.66,3.28-1.11-1.01.08-4.12,2.65-6.94Z"/>
      <path class="cls-4" d="M122.54,76.21c-1.26,1.39-1.39,3.33-.28,4.34,1.11,1.01,3.03.71,4.3-.68,1.26-1.39,1.39-3.33.28-4.34-1.11-1.01-3.03-.71-4.3.68Z"/>
      <path class="cls-4" d="M137.67,90c2.57-2.82,3.76-5.93,2.65-6.94-1.11-1.01-4.09.46-6.66,3.28-2.57,2.82-3.76,5.93-2.65,6.94,1.11,1.01,4.09-.46,6.66-3.28Z"/>
      <path class="cls-5" d="M96.51,74.49c-1.22.04-2.01-.73-2.13-.86v-2.01c-5.64.97-9.93,5.88-9.94,11.8,0,6.62,5.35,12,11.98,12.01,6.63,0,12-5.35,12.01-11.98,0-5.93-4.29-10.86-9.94-11.83v2.01c-.15.15-.85.83-1.97.86ZM93.48,79.75c-1.46,1.18-3.41,1.19-4.35.02-.94-1.17-.52-3.07.94-4.25,1.46-1.18,3.41-1.19,4.35-.02.94,1.17.52,3.07-.94,4.25ZM99.5,87.23c2.97-2.4,6.14-3.39,7.08-2.22.94,1.17-.7,4.06-3.68,6.45-2.97,2.4-6.14,3.39-7.08,2.22-.94-1.17.7-4.06,3.68-6.45Z"/>
      <path class="cls-4" d="M90.07,75.52c-1.46,1.18-1.88,3.08-.94,4.25.94,1.17,2.89,1.16,4.35-.02s1.88-3.08.94-4.25c-.94-1.17-2.89-1.16-4.35.02Z"/>
      <path class="cls-4" d="M95.83,93.68c.94,1.17,4.11.17,7.08-2.22,2.97-2.4,4.62-5.28,3.68-6.45-.94-1.17-4.11-.17-7.08,2.22-2.97,2.4-4.62,5.28-3.68,6.45Z"/>
      <path class="cls-5" d="M70.36,74.49c-1.22.04-2.01-.73-2.13-.86v-2.01c-5.64.97-9.93,5.88-9.94,11.8,0,6.62,5.35,12,11.98,12.01,6.62,0,12-5.35,12.01-11.98,0-5.93-4.29-10.86-9.94-11.83v2.01c-.15.15-.85.83-1.97.86ZM67.33,79.75c-1.46,1.18-3.41,1.19-4.35.02-.94-1.17-.52-3.07.94-4.25,1.46-1.18,3.41-1.19,4.35-.02.94,1.17.52,3.07-.94,4.25ZM73.36,87.23c2.97-2.4,6.14-3.39,7.08-2.22.94,1.17-.7,4.06-3.68,6.45-2.97,2.4-6.14,3.39-7.08,2.22-.94-1.17.7-4.06,3.68-6.45Z"/>
      <path class="cls-4" d="M63.93,75.52c-1.46,1.18-1.88,3.08-.94,4.25.94,1.17,2.89,1.16,4.35-.02,1.46-1.18,1.88-3.08.94-4.25-.94-1.17-2.89-1.16-4.35.02Z"/>
      <path class="cls-4" d="M69.68,93.68c.94,1.17,4.11.17,7.08-2.22,2.97-2.4,4.62-5.28,3.68-6.45-.94-1.17-4.11-.17-7.08,2.22-2.97,2.4-4.62,5.28-3.68,6.45Z"/>
      <path class="cls-5" d="M44.22,74.49c-1.22.04-2.01-.73-2.13-.86v-2.01c-5.64.97-9.93,5.88-9.94,11.8,0,6.62,5.35,12,11.98,12.01,6.63,0,12-5.35,12.01-11.98,0-5.93-4.29-10.86-9.94-11.83v2.01c-.14.15-.85.83-1.97.86ZM41.19,79.75c-1.46,1.18-3.41,1.19-4.35.02-.94-1.17-.52-3.07.94-4.25,1.46-1.18,3.41-1.19,4.35-.02.94,1.17.52,3.07-.94,4.25ZM47.22,87.23c2.97-2.4,6.14-3.39,7.08-2.22.94,1.17-.7,4.06-3.68,6.45-2.97,2.4-6.14,3.39-7.08,2.22-.94-1.17.7-4.06,3.68-6.45Z"/>
      <path class="cls-4" d="M37.78,75.52c-1.46,1.18-1.88,3.08-.94,4.25.94,1.17,2.89,1.16,4.35-.02,1.46-1.18,1.88-3.08.94-4.25-.94-1.17-2.89-1.16-4.35.02Z"/>
      <path class="cls-4" d="M43.54,93.68c.94,1.17,4.11.17,7.08-2.22,2.97-2.4,4.62-5.28,3.68-6.45-.94-1.17-4.11-.17-7.08,2.22-2.97,2.4-4.62,5.28-3.68,6.45Z"/>
      <path class="cls-2" d="M42.09,73.63c.13.13.91.9,2.13.86,1.12-.03,1.82-.71,1.97-.86V10.85h-4.1v62.77Z"/>
      <path class="cls-2" d="M68.23,73.63c.13.13.91.9,2.13.86,1.12-.03,1.82-.71,1.97-.86V10.85h-4.1v62.77Z"/>
      <path class="cls-2" d="M94.37,73.63c.13.13.91.9,2.13.86,1.12-.03,1.82-.71,1.97-.86V10.85h-4.1v62.77Z"/>
      <path class="cls-2" d="M126.51,73.69c.15.11,1.04.75,2.24.53,1.1-.2,1.69-.98,1.82-1.15l-.31-1.99-9.29-60.22h-4.15c3.13,20.28,6.26,40.56,9.38,60.84.1.66.2,1.32.31,1.99Z"/>
      <path class="cls-1" d="M155.67,120.1V10.82c-.16.02-.32.03-.49.03h-9.74v108.46c-15.37-1.01-35.07-1.62-56.54-1.62-23.71,0-45.25.74-61.19,1.95V10.85h-9.85c-.13,0-.25,0-.38-.02v109.73c-10.98,1.18-17.49,2.65-17.49,4.23,0,.11.04.22.1.33,2.18,3.77,41.1,6.77,88.8,6.77,36.1,0,67.18-1.72,81.1-4.19,4.24-.75,6.89-1.58,7.6-2.44.13-.16.2-.31.2-.47h0c0-1.8-8.36-3.44-22.13-4.69Z"/>
      <rect class="cls-1" x="15.2" y="2.4" width="142.64" height="3.03"/>
      <polygon class="cls-1" points="101.15 7.98 145.45 7.98 155.67 7.98 157.84 7.98 157.84 6.47 101.15 6.47 101.15 7.98"/>
    </g>
  </g>
</svg>