<svg xmlns="http://www.w3.org/2000/svg" xmlns:xlink="http://www.w3.org/1999/xlink" width="1080" zoomAndPan="magnify" viewBox="0 0 810 809.999993" height="1080" preserveAspectRatio="xMidYMid meet" version="1.0"><defs><clipPath id="5e2a049581"><path d="M 81.070312 272 L 728.929688 272 L 728.929688 646.699219 L 81.070312 646.699219 Z M 81.070312 272 " clip-rule="nonzero"/></clipPath></defs><path fill="#06a899" d="M 722.777344 285.425781 C 719.117188 264.148438 713.179688 243.535156 704.316406 223.761719 C 691.140625 194.324219 673.113281 168.394531 649.425781 146.398438 C 629.871094 128.234375 607.832031 113.984375 583.433594 103.273438 C 554.703125 90.660156 524.570312 83.859375 493.332031 82.292969 C 467.359375 80.976562 441.539062 82.929688 415.976562 88.179688 C 377.75 96.019531 342.089844 110.34375 308.402344 129.859375 C 301.367188 133.925781 294.785156 138.699219 286.941406 141.472656 C 264.953125 149.242188 244.199219 159.632812 224.554688 172.21875 C 203.664062 185.59375 184.59375 201.160156 167.378906 219.046875 C 156.507812 230.34375 146.539062 242.355469 137.503906 255.144531 C 122.386719 276.546875 110.351562 299.597656 101.25 324.1875 C 90.785156 352.441406 84.9375 381.625 83.523438 411.652344 C 82.996094 422.628906 83.152344 433.625 83.875 444.640625 C 84.671875 456.753906 86.039062 468.761719 88.371094 480.628906 C 95.925781 519.105469 110.460938 554.796875 132.027344 587.554688 C 147.898438 611.640625 166.816406 633.042969 188.722656 651.84375 C 208.628906 668.910156 230.324219 683.195312 253.75 694.902344 C 272.351562 704.191406 291.679688 711.625 311.742188 717.117188 C 337.058594 724.042969 362.796875 728.019531 389.070312 728.714844 C 398.128906 728.964844 407.167969 728.714844 416.203125 728.503906 C 422.753906 728.347656 429.328125 727.851562 435.828125 727.054688 C 452.339844 725.015625 468.683594 722.03125 484.753906 717.679688 C 506.371094 711.816406 527.214844 703.917969 547.140625 693.753906 C 568.816406 682.691406 588.996094 669.339844 607.65625 653.671875 C 623.707031 640.195312 638.222656 625.285156 651.222656 608.921875 C 667.515625 588.394531 680.765625 566.003906 691.269531 541.992188 C 699.511719 523.140625 705.660156 503.582031 709.875 483.488281 C 714.1875 462.949219 716.175781 442.109375 715.527344 421.070312 C 715.421875 417.972656 715.925781 414.996094 716.667969 412.011719 C 723.027344 386.324219 726.96875 360.324219 726.429688 332.347656 C 727.003906 317.519531 725.519531 301.386719 722.777344 285.425781 Z M 704.402344 464.660156 C 701.917969 482.273438 698.078125 499.597656 692.265625 516.453125 C 683.71875 541.21875 672.265625 564.542969 657.4375 586.203125 C 647.484375 600.738281 636.421875 614.289062 624.160156 626.953125 C 605.121094 646.613281 583.746094 663.257812 560.195312 677.128906 C 531.441406 694.054688 500.730469 706.023438 468.179688 713.214844 C 455.578125 715.992188 442.847656 717.878906 430 719.164062 C 420.050781 720.152344 410.113281 720.328125 400.152344 720.503906 C 359.777344 721.175781 320.964844 713.402344 283.414062 699.027344 C 253.222656 687.472656 225.5625 671.335938 200.488281 650.980469 C 173.902344 629.363281 151.527344 603.960938 133.664062 574.605469 C 118.039062 548.910156 106.628906 521.546875 99.53125 492.378906 C 95.640625 476.433594 93.21875 460.242188 92.109375 443.828125 C 91.347656 432.816406 91.210938 421.804688 91.757812 410.851562 C 92.898438 388.1875 96.78125 365.925781 103.296875 344.148438 C 108.722656 326.074219 115.800781 308.664062 124.632812 292 C 134.847656 272.710938 146.992188 254.75 161.222656 238.144531 C 180.621094 215.492188 202.8125 196.121094 227.835938 179.984375 C 238.300781 173.234375 248.996094 166.835938 260.433594 161.804688 C 260.660156 162.003906 260.871094 162.214844 261.085938 162.421875 C 253.597656 168.957031 245.882812 175.269531 238.636719 182.082031 C 215.085938 204.230469 194.375 228.808594 176.898438 256.023438 C 160.785156 281.109375 147.636719 307.644531 137.824219 335.847656 C 130.8125 356.007812 125.664062 376.613281 122.425781 397.671875 C 120.785156 408.28125 119.953125 418.996094 119.308594 429.75 C 118.726562 439.738281 118.972656 449.675781 119.484375 459.628906 C 120.558594 480.839844 124.070312 501.652344 130.035156 522.046875 C 137.371094 547.148438 148.339844 570.582031 163.199219 592.125 C 184.25 622.601562 211.078125 646.636719 243.601562 664.390625 C 265.480469 676.316406 288.664062 684.5625 312.992188 689.527344 C 328.40625 692.664062 344.035156 694.230469 359.820312 694.691406 C 407.269531 696.089844 452.421875 686.320312 495.914062 667.804688 C 528.042969 654.132812 557.605469 636.164062 584.726562 614.265625 C 607.027344 596.253906 627.09375 576.015625 645.085938 553.664062 C 662.148438 532.472656 676.710938 509.722656 689.078125 485.535156 C 694.949219 474.035156 700.117188 462.1875 704.652344 450.085938 C 704.914062 449.378906 705.199219 448.675781 705.851562 447.007812 C 706.269531 453.640625 705.179688 459.167969 704.402344 464.660156 Z M 716.234375 368.050781 C 715.53125 373.550781 714.773438 379.042969 714.046875 384.527344 C 713.644531 384.300781 713.238281 384.085938 712.835938 383.875 C 711.019531 370.289062 708.046875 356.9375 704.234375 343.78125 C 698.875 325.230469 691.9375 307.265625 682.847656 290.222656 C 671.375 268.660156 657.871094 248.46875 641.746094 230.019531 C 624.34375 210.132812 604.769531 192.722656 583.007812 177.820312 C 560.558594 162.457031 536.496094 150.164062 510.867188 140.90625 C 491.007812 133.734375 470.640625 128.558594 449.816406 125.296875 C 439.878906 123.746094 429.855469 122.847656 419.800781 122.175781 C 409.921875 121.5 400.074219 121.554688 390.222656 121.683594 C 370.371094 121.96875 350.773438 124.585938 331.347656 128.5 C 330.636719 128.398438 329.820312 128.652344 329.335938 127.847656 C 360.886719 111.625 394.011719 100.246094 429.035156 94.257812 C 450.023438 90.667969 471.140625 89.394531 492.316406 90.519531 C 523.53125 92.171875 553.621094 99.015625 582.285156 111.855469 C 611.058594 124.75 636.085938 142.78125 657.234375 166.0625 C 681.40625 192.683594 698.058594 223.585938 707.992188 258.113281 C 713.222656 276.210938 716.484375 294.636719 717.644531 313.46875 C 718.773438 331.71875 718.53125 349.902344 716.234375 368.050781 Z M 716.234375 368.050781 " fill-opacity="1" fill-rule="nonzero"/><g clip-path="url(#5e2a049581)"><path fill="#213949" d="M 489.894531 307.785156 C 477.910156 307.785156 462.992188 317.910156 455.269531 330.164062 C 447.546875 342.410156 451.542969 367.714844 462.195312 379.699219 C 472.847656 391.683594 492.558594 390.617188 492.558594 393.28125 C 492.558594 393.28125 495.136719 380.519531 504.335938 380.367188 C 513.53125 380.214844 517.777344 388.292969 517.777344 388.292969 L 517.796875 388.296875 C 518.042969 387.433594 518.402344 386.753906 518.925781 386.359375 C 525.582031 381.296875 533.574219 368.246094 535.4375 358.125 C 537.300781 348.003906 531.976562 331.226562 526.382812 322.171875 C 520.789062 313.117188 501.878906 307.785156 489.894531 307.785156 Z M 409.195312 561.207031 C 385.585938 561.207031 366.445312 580.34375 366.445312 603.949219 C 366.445312 627.558594 385.585938 646.699219 409.195312 646.699219 C 432.800781 646.699219 451.9375 627.558594 451.9375 603.949219 C 451.9375 580.34375 432.800781 561.207031 409.195312 561.207031 Z M 689.113281 480.238281 C 667.125 480.238281 649.292969 498.0625 649.292969 520.054688 C 649.292969 542.046875 667.125 559.875 689.113281 559.875 C 711.105469 559.875 728.929688 542.046875 728.929688 520.054688 C 728.929688 498.0625 711.105469 480.238281 689.113281 480.238281 Z M 362.855469 405 C 367.378906 400.738281 372.441406 399.675781 382.292969 400.738281 C 383.0625 400.820312 384.234375 401.195312 385.734375 401.816406 C 387.988281 394.847656 389.21875 387.417969 389.21875 379.699219 C 389.21875 339.980469 357.023438 307.785156 317.3125 307.785156 C 277.59375 307.785156 245.398438 339.980469 245.398438 379.699219 C 245.398438 399.03125 253.042969 416.570312 265.457031 429.492188 C 271.402344 423.128906 275.882812 418.984375 277.355469 419.117188 C 283.484375 419.648438 291.472656 422.308594 293.339844 430.570312 C 294.53125 435.847656 293.75 440.691406 290.324219 446.351562 C 298.660156 449.734375 307.765625 451.609375 317.3125 451.609375 C 335.851562 451.609375 352.757812 444.585938 365.503906 433.0625 L 353.261719 426.039062 C 354.332031 416.1875 358.324219 409.261719 362.855469 405 Z M 184.410156 307.785156 C 185.207031 316.046875 185.527344 325.175781 185.527344 325.175781 L 176.828125 355.648438 C 176.828125 355.648438 169.761719 379.34375 131.144531 379.253906 C 92.523438 379.167969 78.9375 341.351562 81.332031 322.042969 C 83.734375 302.730469 92.523438 285.945312 107.972656 277.691406 C 123.417969 269.4375 155.113281 272.367188 166.03125 281.152344 C 176.949219 289.945312 183.609375 299.53125 184.410156 307.785156 " fill-opacity="1" fill-rule="nonzero"/></g><path fill="#f46a61" d="M 573.789062 495.023438 L 587.328125 496.855469 C 587.347656 496.242188 587.371094 495.636719 587.371094 495.023438 C 587.371094 463.253906 561.613281 437.496094 529.84375 437.496094 C 498.074219 437.496094 472.316406 463.253906 472.316406 495.023438 C 472.316406 505.753906 475.261719 515.789062 480.378906 524.390625 L 489.625 516.324219 C 506.671875 517.660156 504.542969 532.574219 504.542969 533.640625 L 496.3125 541.75 C 505.753906 548.542969 517.328125 552.550781 529.84375 552.550781 C 552.035156 552.550781 571.273438 539.984375 580.875 521.578125 C 573 520.53125 567.851562 519.773438 567.398438 519.523438 C 565.199219 518.324219 559.808594 515.328125 561.007812 505.539062 C 562.203125 495.75 573.789062 495.023438 573.789062 495.023438 Z M 192.132812 489.960938 C 164.035156 489.960938 141.261719 512.738281 141.261719 540.832031 C 141.261719 568.925781 164.035156 591.699219 192.132812 591.699219 C 220.226562 591.699219 243 568.925781 243 540.832031 C 243 512.738281 220.226562 489.960938 192.132812 489.960938 Z M 452.738281 194.328125 C 460.929688 214.902344 457.734375 233.28125 455.9375 238.273438 C 454.140625 243.269531 437.757812 261.445312 426.570312 265.042969 C 415.386719 268.636719 396.972656 267.515625 396.972656 267.515625 L 369.65625 255.265625 C 369.65625 255.265625 351.867188 241.871094 353.664062 216.097656 C 355.464844 190.332031 369.246094 176.554688 379.828125 170.5625 C 390.417969 164.570312 407.195312 163.167969 416.585938 165.363281 C 425.972656 167.558594 444.550781 173.753906 452.738281 194.328125 " fill-opacity="1" fill-rule="nonzero"/><path fill="#d8d8d8" d="M 517.796875 388.296875 L 517.777344 388.292969 C 517.777344 388.292969 513.53125 380.214844 504.335938 380.367188 C 495.136719 380.519531 492.558594 393.28125 492.558594 393.28125 C 492.558594 395.945312 502.523438 444.382812 502.523438 444.382812 C 526.164062 452.394531 529.84375 437.496094 529.84375 437.496094 C 529.84375 437.496094 514.9375 398.410156 517.796875 388.296875 Z M 489.625 516.324219 L 431.152344 567.273438 C 439.203125 572.109375 445.53125 579.523438 449 588.371094 L 504.542969 533.640625 C 504.542969 532.574219 506.671875 517.660156 489.625 516.324219 Z M 652.007812 505.617188 L 573.789062 495.023438 C 573.789062 495.023438 562.203125 495.75 561.007812 505.539062 C 559.808594 515.328125 565.199219 518.324219 567.398438 519.523438 C 568.832031 520.308594 617.144531 526.214844 650.589844 530.152344 C 649.75 526.929688 649.292969 523.546875 649.292969 520.054688 C 649.292969 514.960938 650.261719 510.09375 652.007812 505.617188 Z M 472.355469 493.382812 C 472.722656 480.363281 477.402344 468.429688 485.035156 458.960938 C 482.828125 457.21875 480.507812 455.726562 478.179688 454.804688 C 468.054688 450.8125 392.148438 401.804688 382.292969 400.738281 C 372.441406 399.675781 367.378906 400.738281 362.855469 405 C 358.324219 409.261719 354.332031 416.1875 353.261719 426.039062 L 469.386719 492.625 C 469.386719 492.625 470.539062 492.925781 472.355469 493.382812 Z M 277.355469 419.117188 C 271.230469 418.585938 213.171875 491.824219 213.171875 491.824219 L 211.183594 493.664062 C 220.800781 497.554688 228.953125 504.285156 234.597656 512.832031 C 235.675781 511.546875 236.34375 510.738281 236.34375 510.738281 C 236.34375 510.738281 271.5 467.859375 281.886719 456.933594 C 292.273438 446.019531 295.203125 438.824219 293.339844 430.570312 C 291.472656 422.308594 283.484375 419.648438 277.355469 419.117188 Z M 402.667969 250.792969 C 399.074219 239.609375 385.488281 241.734375 381.226562 241.203125 C 377.824219 240.777344 346.5625 289.964844 334.109375 309.78125 C 344.414062 312.25 353.847656 316.933594 361.898438 323.300781 C 378.457031 299.179688 405.167969 258.558594 402.667969 250.792969 Z M 245.410156 379.253906 C 217.878906 370.714844 162.894531 352.914062 159.90625 346.140625 C 155.90625 337.082031 166.03125 324.570312 170.5625 322.171875 C 173.960938 320.367188 227.132812 337.960938 253.359375 346.824219 C 248.34375 356.558594 245.480469 367.570312 245.410156 379.253906 " fill-opacity="1" fill-rule="nonzero"/><path fill="#ffffff" d="M 689.566406 547.5 C 688.277344 546.503906 686.503906 546.375 685.078125 547.179688 C 684.84375 547.3125 684.628906 547.4375 684.382812 547.542969 C 683.027344 548.140625 682.222656 549.910156 682.222656 551.308594 C 682.222656 552.695312 682.867188 553.90625 683.945312 554.742188 C 686.464844 556.683594 689.816406 555.355469 690.796875 552.472656 L 690.875 552.265625 C 690.894531 552.199219 690.902344 552.128906 690.917969 552.058594 C 690.953125 551.957031 690.980469 551.851562 691.015625 551.746094 C 691.527344 550.21875 690.777344 548.433594 689.566406 547.5 Z M 677.875 490.835938 C 670.46875 497.789062 664.835938 508.296875 663.867188 518.492188 C 663.148438 526.039062 663.328125 539.769531 672.238281 542.449219 C 673.507812 542.828125 675.03125 541.765625 674.945312 540.386719 C 674.433594 532.394531 670.5 525.976562 671.371094 517.453125 C 672.203125 509.371094 675.535156 499.265625 680.445312 492.820312 C 681.605469 491.292969 679.175781 489.617188 677.875 490.835938 Z M 502.332031 454.9375 C 494.894531 460.46875 491.417969 469.199219 488.574219 477.789062 C 485.804688 486.140625 483.21875 498.796875 489.425781 506.050781 C 490.691406 507.527344 492.890625 506.550781 493.449219 504.988281 C 496.03125 497.714844 493.613281 488.894531 495.117188 481.132812 C 496.589844 473.542969 498.710938 463.210938 504.523438 457.777344 C 505.984375 456.402344 504 453.6875 502.332031 454.9375 Z M 406.613281 629.347656 C 403.683594 627.660156 399.644531 630.421875 399.9375 633.734375 C 400.074219 635.265625 400.664062 636.601562 402.042969 637.40625 C 403.300781 638.144531 405.089844 638.230469 406.335938 637.40625 C 408.046875 636.269531 408.925781 634.691406 408.648438 632.636719 C 408.472656 631.3125 407.8125 630.035156 406.613281 629.347656 Z M 398.65625 572.59375 C 384.996094 578.191406 379.035156 590.59375 376.976562 604.722656 C 375.652344 613.808594 377.71875 629.347656 390.078125 627.605469 C 391.636719 627.386719 391.972656 625.445312 391.425781 624.300781 C 390.078125 621.5 388.179688 618.914062 387.0625 616.046875 C 385.5 612.058594 385.765625 607.632812 386.152344 603.425781 C 387.109375 592.898438 390.457031 581.363281 399.765625 575.230469 C 401.046875 574.390625 400.253906 571.941406 398.65625 572.59375 Z M 183.125 568.46875 C 183.058594 568.453125 182.992188 568.433594 182.929688 568.417969 C 180.164062 567.664062 177.5625 570.269531 178.308594 573.035156 C 178.328125 573.101562 178.34375 573.164062 178.367188 573.226562 C 179.128906 576.039062 182.777344 576.988281 184.828125 574.9375 C 186.882812 572.882812 185.9375 569.234375 183.125 568.46875 Z M 178.328125 507.40625 C 179.644531 506.515625 178.867188 504.03125 177.175781 504.664062 C 165.210938 509.140625 158.980469 522.046875 157.574219 534.183594 C 156.621094 542.398438 155.609375 566.128906 169.148438 565.207031 C 171.113281 565.070312 172.816406 562.890625 171.558594 561.007812 C 162.042969 546.78125 163.058594 517.804688 178.328125 507.40625 Z M 109.339844 349.558594 C 106.878906 349.558594 104.523438 351.71875 104.640625 354.253906 C 104.753906 356.800781 106.699219 358.953125 109.339844 358.953125 C 111.792969 358.953125 114.144531 356.789062 114.035156 354.253906 C 113.917969 351.707031 111.96875 349.558594 109.339844 349.558594 Z M 141.253906 279.628906 C 126.839844 275.605469 111.34375 282.652344 102.550781 294.398438 C 94.398438 305.285156 88.578125 326.527344 99.441406 337.496094 C 101.027344 339.097656 103.300781 337.757812 103.515625 335.804688 C 104.175781 329.917969 102.617188 324.117188 102.820312 318.21875 C 103.042969 311.699219 104.691406 305.277344 108.109375 299.675781 C 115.238281 288.007812 127.765625 282.660156 140.980469 281.632812 C 142.089844 281.546875 142.414062 279.953125 141.253906 279.628906 Z M 270.367188 392.058594 C 267.902344 392.058594 265.542969 394.222656 265.65625 396.769531 C 265.769531 399.320312 267.722656 401.484375 270.367188 401.484375 C 272.832031 401.484375 275.191406 399.316406 275.078125 396.769531 C 274.960938 394.21875 273.007812 392.058594 270.367188 392.058594 Z M 289.535156 327.597656 C 279.308594 333.382812 271.441406 340.675781 266.070312 351.277344 C 261.996094 359.320312 256.847656 372.34375 261.453125 380.984375 C 262.191406 382.375 264.527344 382.457031 265.238281 380.984375 C 267.136719 377.082031 266.984375 373.082031 267.714844 368.847656 C 268.503906 364.25 269.894531 359.730469 271.726562 355.449219 C 275.832031 345.871094 282.730469 336.554688 291.101562 330.289062 C 292.671875 329.121094 291.324219 326.582031 289.535156 327.597656 Z M 477.6875 370.558594 C 476.355469 369.214844 475.417969 367.785156 475.640625 365.839844 C 475.859375 363.976562 472.671875 363.53125 472.351562 365.394531 C 471.945312 367.777344 472.542969 370.046875 474.0625 371.949219 C 475.226562 373.410156 477.671875 375.488281 479.679688 375.246094 C 480.308594 375.167969 480.839844 374.664062 480.644531 373.980469 C 480.234375 372.527344 478.714844 371.585938 477.6875 370.558594 Z M 479.277344 318.914062 C 468.863281 323.613281 456.378906 344.222656 462.988281 355.207031 C 463.632812 356.277344 465.226562 356.027344 465.589844 354.867188 C 467.238281 349.636719 467.355469 344.234375 469.441406 339.066406 C 471.839844 333.128906 475.5 325.289062 480.851562 321.609375 C 482.519531 320.453125 481.09375 318.097656 479.277344 318.914062 Z M 375.933594 245.410156 C 376.28125 247.007812 374.476562 248.859375 372.90625 247.730469 C 363.851562 241.242188 361.011719 227.632812 361.71875 217.089844 C 362.570312 204.398438 368.425781 194.324219 377.882812 186.140625 C 379.808594 184.46875 382.167969 186.949219 380.632812 188.886719 C 374.140625 197.074219 370.105469 207.984375 369.816406 218.410156 C 369.550781 228.296875 373.902344 236.121094 375.933594 245.410156 " fill-opacity="1" fill-rule="nonzero"/><path fill="#a8a8a8" d="M 384.25 237.808594 C 383.332031 237.808594 382.4375 237.816406 381.566406 237.832031 L 381.089844 237.835938 C 379.527344 237.859375 378.269531 239.035156 378.109375 240.644531 C 377.945312 242.199219 378.882812 243.511719 380.386719 243.839844 C 381.875 244.167969 383.46875 244.371094 385.152344 244.578125 C 389.871094 245.167969 394.746094 245.773438 396.949219 249.285156 C 398.957031 252.496094 398.292969 255.683594 397.523438 259.375 C 397.105469 261.394531 396.675781 263.484375 396.683594 265.671875 C 396.6875 267.351562 398.023438 268.667969 399.726562 268.667969 C 400.5 268.667969 401.238281 268.371094 401.804688 267.847656 C 407.828125 262.273438 407.605469 251.457031 403.636719 245.242188 C 399.46875 238.707031 391.855469 237.808594 384.25 237.808594 Z M 492.375 515.742188 C 491.941406 515.742188 491.507812 515.757812 491.078125 515.789062 C 489.871094 515.875 488.96875 516.800781 488.9375 517.992188 C 488.90625 519.179688 489.792969 520.191406 491 520.34375 C 494.242188 520.738281 497.820312 523.234375 499.328125 526.15625 C 500.042969 527.542969 500.84375 529.15625 501.261719 530.78125 C 501.390625 531.257812 501.445312 531.726562 501.503906 532.230469 C 501.636719 533.316406 501.789062 534.546875 502.667969 535.8125 C 503.175781 536.542969 503.984375 536.976562 504.839844 536.976562 C 505.488281 536.976562 506.117188 536.722656 506.609375 536.273438 C 508.621094 534.398438 509.890625 530.359375 504.476562 521.75 C 502.109375 517.992188 497.582031 515.742188 492.375 515.742188 Z M 433.234375 564.578125 L 433.003906 564.566406 C 432.027344 564.566406 431.1875 565.203125 430.914062 566.15625 C 430.625 567.15625 431.019531 568.234375 431.882812 568.773438 C 436.445312 571.636719 440.003906 574.34375 442.554688 578.246094 C 443.769531 580.105469 444.773438 582.210938 445.617188 584.671875 C 445.785156 585.15625 445.90625 585.601562 446.023438 586.019531 C 446.433594 587.480469 446.847656 588.988281 448.488281 590.382812 C 448.933594 590.769531 449.535156 590.988281 450.128906 590.988281 C 451.035156 590.988281 451.832031 590.492188 452.210938 589.6875 C 454.703125 584.386719 449.519531 576.476562 447.175781 573.324219 C 444.480469 569.6875 439.867188 565.222656 433.234375 564.578125 Z M 484.140625 456.089844 C 483.839844 456.089844 483.554688 456.15625 483.28125 456.277344 C 476.714844 459.238281 474.027344 465.929688 471.644531 471.863281 C 469.492188 477.210938 465.492188 487.167969 469.308594 494.136719 C 469.75 494.941406 470.554688 495.421875 471.464844 495.421875 C 472.578125 495.421875 473.566406 494.71875 473.925781 493.664062 C 474.929688 490.726562 475.324219 487.664062 475.703125 484.703125 C 476.066406 481.878906 476.441406 478.960938 477.351562 476.238281 C 477.601562 475.496094 477.847656 474.730469 478.097656 473.953125 C 479.746094 468.828125 481.613281 463.019531 485.542969 459.714844 C 486.207031 459.15625 486.441406 458.28125 486.15625 457.492188 C 485.847656 456.652344 485.042969 456.089844 484.140625 456.089844 Z M 653.179688 509.042969 L 653.480469 506.628906 C 653.558594 505.941406 653.351562 505.28125 652.902344 504.769531 C 652.417969 504.222656 651.699219 503.910156 650.933594 503.910156 C 649.992188 503.910156 649.140625 504.410156 648.714844 505.214844 C 646.328125 509.765625 645.085938 514.691406 644.929688 520.261719 L 644.925781 520.4375 C 644.820312 524.144531 644.652344 529.75 649.140625 531.769531 C 649.546875 531.949219 649.96875 532.042969 650.390625 532.042969 C 651.863281 532.042969 653.027344 530.941406 653.164062 529.433594 C 653.296875 527.980469 652.992188 526.929688 652.695312 525.914062 C 652.578125 525.496094 652.445312 525.0625 652.351562 524.566406 C 651.992188 522.738281 652.101562 520.714844 652.203125 518.734375 C 652.375 515.511719 652.785156 512.222656 653.179688 509.042969 Z M 530.371094 434.332031 C 529.855469 434.332031 529.347656 434.511719 528.9375 434.847656 C 527.671875 435.878906 526.621094 436.941406 525.601562 437.96875 C 523.257812 440.34375 521.40625 442.214844 517.90625 442.875 C 516.679688 443.109375 515.34375 443.222656 513.9375 443.222656 C 510.566406 443.222656 506.757812 442.539062 503.226562 441.304688 C 502.957031 441.210938 502.683594 441.164062 502.40625 441.164062 C 501.449219 441.164062 500.578125 441.757812 500.183594 442.667969 C 499.769531 443.617188 499.953125 444.707031 500.640625 445.4375 C 503.332031 448.3125 508.445312 450.019531 514.3125 450.019531 C 514.3125 450.019531 514.3125 450.019531 514.316406 450.019531 C 520.84375 450.019531 526.640625 447.953125 529.824219 444.480469 C 531.878906 442.238281 532.820312 439.433594 532.558594 436.367188 C 532.457031 435.207031 531.515625 434.332031 530.371094 434.332031 Z M 580.320312 519.023438 C 579.679688 518.917969 579.019531 518.832031 578.359375 518.738281 C 576.683594 518.511719 574.953125 518.273438 573.46875 517.742188 L 572.890625 517.539062 C 571.039062 516.882812 567.929688 515.777344 566.6875 514.730469 C 566.25 514.367188 565.695312 514.164062 565.113281 514.164062 C 564.140625 514.164062 563.246094 514.699219 562.835938 515.535156 C 562.445312 516.316406 562.546875 517.210938 563.09375 517.929688 C 567.277344 523.4375 573.140625 524.863281 578.777344 525.851562 C 579 525.890625 579.21875 525.90625 579.429688 525.90625 C 581.507812 525.90625 582.886719 524.164062 583.023438 522.484375 C 583.171875 520.734375 582.058594 519.3125 580.320312 519.023438 Z M 362.417969 428.464844 C 361.992188 428.253906 361.578125 428.050781 361.1875 427.832031 C 359.792969 427.058594 358.363281 426.511719 356.984375 425.984375 C 356.546875 425.816406 356.117188 425.65625 355.683594 425.480469 C 355.386719 425.363281 355.085938 425.300781 354.777344 425.300781 C 353.75 425.300781 352.828125 425.960938 352.433594 426.976562 C 352.039062 427.988281 352.273438 429.097656 353.039062 429.800781 L 353.859375 430.566406 C 355.019531 431.648438 356.214844 432.773438 357.628906 433.75 C 357.980469 433.992188 358.328125 434.253906 358.6875 434.523438 C 360.007812 435.511719 361.511719 436.632812 363.304688 437.050781 C 363.585938 437.121094 363.871094 437.148438 364.148438 437.148438 C 365.476562 437.148438 366.644531 436.402344 367.207031 435.195312 C 367.792969 433.9375 367.597656 432.480469 366.679688 431.390625 C 365.527344 430.019531 363.875 429.195312 362.417969 428.464844 Z M 377.75 394.261719 C 374.230469 394.261719 370.148438 395.308594 366.820312 397.058594 C 359.949219 400.683594 354.925781 407.570312 351.894531 417.527344 C 351.605469 418.472656 351.78125 419.472656 352.371094 420.269531 C 353.015625 421.140625 354.082031 421.675781 355.15625 421.675781 C 356.355469 421.675781 357.371094 421.023438 357.878906 419.921875 C 360.261719 414.734375 362.953125 409.363281 367.359375 405.671875 C 370.125 403.351562 373.546875 401.933594 376.753906 401.78125 C 376.890625 401.777344 377.027344 401.769531 377.15625 401.769531 C 378.449219 401.769531 379.734375 402.039062 381.101562 402.328125 C 382.453125 402.605469 383.847656 402.898438 385.414062 402.945312 C 386.363281 402.945312 387.25 402.402344 387.714844 401.539062 C 388.175781 400.6875 388.136719 399.671875 387.617188 398.890625 C 385.613281 395.863281 382.203125 394.261719 377.75 394.261719 Z M 493.917969 393.089844 C 494.742188 393.089844 495.507812 392.722656 496.007812 392.078125 C 498.695312 388.621094 501.429688 385.421875 505.25 384.285156 C 506.136719 384.019531 507.042969 383.890625 507.933594 383.890625 C 510.667969 383.890625 513.441406 385.097656 516.410156 387.59375 C 516.820312 387.933594 517.332031 388.121094 517.859375 388.121094 C 518.539062 388.121094 519.164062 387.820312 519.585938 387.296875 C 520 386.773438 520.152344 386.097656 520 385.421875 C 518.679688 379.621094 512.894531 377.019531 507.75 377.019531 C 507.074219 377.019531 506.394531 377.066406 505.730469 377.152344 C 499.429688 377.96875 493.828125 382.59375 491.097656 389.222656 C 490.761719 390.050781 490.863281 390.960938 491.367188 391.71875 C 491.925781 392.554688 492.925781 393.089844 493.917969 393.089844 Z M 213.550781 491.238281 C 213.371094 491.207031 213.1875 491.191406 213.015625 491.191406 C 211.519531 491.191406 210.273438 492.273438 210.058594 493.773438 C 209.851562 495.203125 210.707031 496.5 212.128906 496.914062 C 217.230469 498.414062 221.578125 501.089844 225.042969 504.867188 C 227.34375 507.382812 228.609375 510.214844 229.945312 513.21875 C 230.605469 514.699219 231.289062 516.234375 232.117188 517.777344 C 232.566406 518.613281 233.382812 519.113281 234.289062 519.113281 C 235.613281 519.113281 236.785156 518.066406 236.953125 516.730469 C 237.847656 509.734375 232.34375 502.828125 229.9375 500.183594 C 225.648438 495.484375 219.832031 492.300781 213.550781 491.238281 Z M 169.625 319.066406 C 169.320312 319.066406 169.023438 319.113281 168.71875 319.203125 C 162.398438 321.09375 156.359375 329.242188 154.691406 335.667969 C 153.351562 340.816406 154.378906 351.839844 161.105469 354.554688 C 161.382812 354.667969 161.683594 354.726562 161.992188 354.726562 C 162.746094 354.726562 163.511719 354.371094 164.03125 353.773438 C 164.523438 353.222656 164.75 352.507812 164.664062 351.820312 C 164.394531 349.738281 163.738281 347.820312 163.101562 345.972656 C 162.269531 343.554688 161.484375 341.265625 161.644531 338.832031 C 161.945312 334.070312 166.289062 326.460938 170.476562 324.914062 C 171.890625 324.390625 172.691406 322.984375 172.421875 321.496094 C 172.171875 320.066406 171.015625 319.066406 169.625 319.066406 Z M 363.117188 325.996094 C 363.546875 326.199219 363.996094 326.300781 364.46875 326.300781 C 365.433594 326.300781 366.351562 325.855469 366.921875 325.109375 C 367.476562 324.386719 367.65625 323.449219 367.410156 322.546875 C 365.945312 317.070312 360.007812 314.253906 355.242188 311.996094 C 354.660156 311.71875 354.09375 311.449219 353.554688 311.1875 C 348.773438 308.832031 343.027344 306.425781 336.722656 306.425781 C 335.992188 306.425781 335.257812 306.453125 334.519531 306.519531 C 333.148438 306.648438 332.058594 307.8125 332 309.222656 C 331.945312 310.519531 332.808594 311.582031 334.101562 311.816406 C 339.65625 312.816406 344.679688 314.679688 349.917969 317.679688 C 351.714844 318.707031 353.519531 319.957031 355.261719 321.167969 C 357.773438 322.90625 360.359375 324.699219 363.117188 325.996094 Z M 295.414062 429.367188 C 298.375 436.742188 297.234375 447.671875 290.800781 452.207031 C 290.410156 452.488281 289.949219 452.628906 289.464844 452.628906 C 288.769531 452.628906 288.097656 452.335938 287.617188 451.8125 C 287.15625 451.316406 286.921875 450.691406 286.972656 450.03125 C 287.144531 447.664062 287.746094 445.492188 288.328125 443.390625 C 289.242188 440.117188 290.105469 437.019531 289.164062 433.546875 C 287.449219 427.203125 282.429688 424.242188 273.363281 424.222656 C 271.675781 424.222656 270.398438 423.019531 270.320312 421.359375 C 270.238281 419.621094 271.480469 418.191406 273.210938 418.023438 C 274.457031 417.902344 275.671875 417.847656 276.820312 417.847656 C 286.082031 417.847656 292.339844 421.722656 295.414062 429.367188 " fill-opacity="1" fill-rule="nonzero"/></svg>