<svg xmlns="http://www.w3.org/2000/svg" xmlns:xlink="http://www.w3.org/1999/xlink" width="1080" zoomAndPan="magnify" viewBox="0 0 810 809.999993" height="1080" preserveAspectRatio="xMidYMid meet" version="1.0"><defs><g/><clipPath id="3aa0ddf76d"><path d="M 187.320312 121.234375 L 622.320312 121.234375 L 622.320312 559 L 187.320312 559 Z M 187.320312 121.234375 " clip-rule="nonzero"/></clipPath><clipPath id="19970d2452"><path d="M 186.136719 250.234375 L 623.863281 250.234375 L 623.863281 503.449219 L 186.136719 503.449219 Z M 186.136719 250.234375 " clip-rule="nonzero"/></clipPath></defs><g clip-path="url(#3aa0ddf76d)"><path fill="#06a899" d="M 619.710938 259.355469 C 617.234375 244.980469 613.222656 231.050781 607.234375 217.691406 C 598.332031 197.804688 586.15625 180.285156 570.148438 165.421875 C 556.9375 153.152344 542.046875 143.523438 525.558594 136.285156 C 506.148438 127.761719 485.789062 123.167969 464.683594 122.109375 C 447.132812 121.222656 429.691406 122.539062 412.417969 126.085938 C 386.589844 131.382812 362.496094 141.0625 339.734375 154.246094 C 334.980469 156.996094 330.535156 160.222656 325.234375 162.09375 C 310.378906 167.34375 296.355469 174.367188 283.082031 182.867188 C 268.964844 191.902344 256.082031 202.421875 244.453125 214.507812 C 237.105469 222.140625 230.371094 230.257812 224.265625 238.898438 C 214.054688 253.359375 205.921875 268.929688 199.769531 285.546875 C 192.699219 304.636719 188.75 324.351562 187.792969 344.644531 C 187.4375 352.058594 187.542969 359.488281 188.03125 366.929688 C 188.570312 375.117188 189.496094 383.226562 191.070312 391.246094 C 196.171875 417.242188 205.996094 441.359375 220.566406 463.492188 C 231.289062 479.765625 244.070312 494.226562 258.875 506.929688 C 272.320312 518.457031 286.980469 528.113281 302.808594 536.023438 C 315.378906 542.296875 328.433594 547.320312 341.992188 551.03125 C 359.09375 555.710938 376.484375 558.398438 394.238281 558.867188 C 400.359375 559.035156 406.464844 558.867188 412.570312 558.722656 C 416.996094 558.621094 421.4375 558.285156 425.832031 557.746094 C 436.988281 556.367188 448.027344 554.351562 458.886719 551.410156 C 473.492188 547.449219 487.578125 542.113281 501.039062 535.246094 C 515.683594 527.773438 529.320312 518.75 541.925781 508.164062 C 552.773438 499.058594 562.578125 488.984375 571.363281 477.925781 C 582.371094 464.058594 591.320312 448.933594 598.421875 432.707031 C 603.988281 419.96875 608.144531 406.753906 610.992188 393.179688 C 613.90625 379.300781 615.25 365.21875 614.808594 351.007812 C 614.738281 348.910156 615.082031 346.902344 615.578125 344.886719 C 619.878906 327.53125 622.542969 309.960938 622.175781 291.058594 C 622.566406 281.039062 621.5625 270.140625 619.710938 259.355469 Z M 607.292969 380.457031 C 605.613281 392.359375 603.019531 404.0625 599.09375 415.449219 C 593.316406 432.183594 585.582031 447.945312 575.5625 462.578125 C 568.839844 472.398438 561.363281 481.554688 553.078125 490.109375 C 540.214844 503.394531 525.773438 514.640625 509.859375 524.011719 C 490.433594 535.449219 469.683594 543.535156 447.6875 548.394531 C 439.175781 550.269531 430.574219 551.546875 421.894531 552.414062 C 415.167969 553.082031 408.457031 553.199219 401.726562 553.320312 C 374.445312 553.773438 348.222656 548.523438 322.851562 538.808594 C 302.453125 531.003906 283.761719 520.097656 266.824219 506.34375 C 248.859375 491.742188 233.742188 474.578125 221.671875 454.742188 C 211.113281 437.382812 203.40625 418.894531 198.609375 399.1875 C 195.980469 388.410156 194.347656 377.472656 193.59375 366.382812 C 193.082031 358.941406 192.988281 351.5 193.359375 344.101562 C 194.128906 328.789062 196.75 313.746094 201.152344 299.03125 C 204.820312 286.820312 209.601562 275.058594 215.570312 263.796875 C 222.472656 250.765625 230.679688 238.632812 240.292969 227.410156 C 253.398438 212.105469 268.394531 199.019531 285.300781 188.113281 C 292.371094 183.554688 299.597656 179.230469 307.324219 175.832031 C 307.476562 175.964844 307.621094 176.109375 307.765625 176.246094 C 302.707031 180.664062 297.492188 184.929688 292.597656 189.53125 C 276.683594 204.496094 262.691406 221.101562 250.882812 239.492188 C 239.996094 256.441406 231.113281 274.371094 224.484375 293.425781 C 219.746094 307.046875 216.265625 320.96875 214.078125 335.195312 C 212.972656 342.367188 212.410156 349.605469 211.972656 356.871094 C 211.578125 363.621094 211.746094 370.332031 212.09375 377.058594 C 212.816406 391.390625 215.191406 405.449219 219.222656 419.230469 C 224.175781 436.191406 231.585938 452.023438 241.625 466.578125 C 255.851562 487.171875 273.976562 503.410156 295.953125 515.40625 C 310.734375 523.464844 326.398438 529.035156 342.835938 532.390625 C 353.25 534.511719 363.808594 535.566406 374.476562 535.878906 C 406.535156 536.824219 437.042969 530.222656 466.425781 517.714844 C 488.136719 508.472656 508.109375 496.335938 526.433594 481.539062 C 541.503906 469.371094 555.058594 455.695312 567.21875 440.59375 C 578.742188 426.273438 588.585938 410.90625 596.941406 394.5625 C 600.90625 386.789062 604.398438 378.785156 607.460938 370.609375 C 607.640625 370.132812 607.832031 369.65625 608.273438 368.53125 C 608.554688 373.011719 607.820312 376.746094 607.292969 380.457031 Z M 615.289062 315.183594 C 614.8125 318.898438 614.300781 322.609375 613.8125 326.3125 C 613.539062 326.160156 613.261719 326.019531 612.992188 325.875 C 611.765625 316.695312 609.753906 307.675781 607.179688 298.785156 C 603.558594 286.253906 598.871094 274.113281 592.730469 262.597656 C 584.980469 248.027344 575.855469 234.386719 564.960938 221.921875 C 553.203125 208.484375 539.976562 196.722656 525.273438 186.652344 C 510.105469 176.273438 493.847656 167.96875 476.53125 161.710938 C 463.113281 156.867188 449.351562 153.367188 435.28125 151.164062 C 428.570312 150.117188 421.796875 149.511719 415 149.054688 C 408.328125 148.601562 401.671875 148.636719 395.019531 148.722656 C 381.605469 148.917969 368.363281 150.6875 355.238281 153.328125 C 354.757812 153.257812 354.203125 153.433594 353.878906 152.890625 C 375.195312 141.925781 397.578125 134.238281 421.242188 130.191406 C 435.421875 127.765625 449.6875 126.90625 463.996094 127.667969 C 485.085938 128.785156 505.417969 133.410156 524.785156 142.085938 C 544.226562 150.792969 561.136719 162.976562 575.421875 178.707031 C 591.757812 196.695312 603.007812 217.574219 609.71875 240.902344 C 613.253906 253.132812 615.457031 265.582031 616.242188 278.304688 C 617.003906 290.632812 616.839844 302.921875 615.289062 315.183594 Z M 615.289062 315.183594 " fill-opacity="1" fill-rule="nonzero"/></g><g clip-path="url(#19970d2452)"><path fill="#213949" d="M 462.359375 274.464844 C 454.257812 274.464844 444.183594 281.304688 438.964844 289.582031 C 433.746094 297.859375 436.445312 314.953125 443.640625 323.050781 C 450.839844 331.148438 464.15625 330.429688 464.15625 332.230469 C 464.15625 332.230469 465.902344 323.605469 472.113281 323.503906 C 478.328125 323.402344 481.195312 328.859375 481.195312 328.859375 L 481.210938 328.863281 C 481.375 328.277344 481.617188 327.820312 481.972656 327.550781 C 486.46875 324.132812 491.871094 315.3125 493.128906 308.476562 C 494.386719 301.636719 490.789062 290.300781 487.011719 284.183594 C 483.230469 278.066406 470.457031 274.464844 462.359375 274.464844 Z M 407.832031 445.6875 C 391.878906 445.6875 378.949219 458.617188 378.949219 474.566406 C 378.949219 490.519531 391.878906 503.449219 407.832031 503.449219 C 423.78125 503.449219 436.714844 490.519531 436.714844 474.566406 C 436.714844 458.617188 423.78125 445.6875 407.832031 445.6875 Z M 596.957031 390.980469 C 582.101562 390.980469 570.054688 403.027344 570.054688 417.882812 C 570.054688 432.742188 582.101562 444.789062 596.957031 444.789062 C 611.816406 444.789062 623.863281 432.742188 623.863281 417.882812 C 623.863281 403.027344 611.816406 390.980469 596.957031 390.980469 Z M 376.523438 340.148438 C 379.578125 337.265625 383 336.550781 389.65625 337.265625 C 390.175781 337.324219 390.96875 337.574219 391.984375 337.996094 C 393.503906 333.285156 394.335938 328.265625 394.335938 323.050781 C 394.335938 296.21875 372.582031 274.464844 345.75 274.464844 C 318.917969 274.464844 297.164062 296.21875 297.164062 323.050781 C 297.164062 336.113281 302.328125 347.964844 310.714844 356.695312 C 314.734375 352.394531 317.761719 349.597656 318.757812 349.683594 C 322.898438 350.042969 328.292969 351.84375 329.554688 357.421875 C 330.359375 360.992188 329.832031 364.261719 327.515625 368.085938 C 333.148438 370.371094 339.300781 371.640625 345.75 371.640625 C 358.277344 371.640625 369.699219 366.894531 378.3125 359.105469 L 370.042969 354.363281 C 370.761719 347.703125 373.460938 343.027344 376.523438 340.148438 Z M 255.957031 274.464844 C 256.496094 280.046875 256.710938 286.214844 256.710938 286.214844 L 250.832031 306.800781 C 250.832031 306.800781 246.058594 322.8125 219.96875 322.75 C 193.875 322.691406 184.695312 297.144531 186.3125 284.097656 C 187.933594 271.046875 193.875 259.707031 204.3125 254.128906 C 214.75 248.554688 236.164062 250.53125 243.539062 256.46875 C 250.914062 262.410156 255.414062 268.886719 255.957031 274.464844 " fill-opacity="1" fill-rule="nonzero"/></g><path fill="#f46a61" d="M 519.039062 400.96875 L 528.1875 402.207031 C 528.203125 401.792969 528.21875 401.382812 528.21875 400.96875 C 528.21875 379.503906 510.816406 362.101562 489.347656 362.101562 C 467.882812 362.101562 450.480469 379.503906 450.480469 400.96875 C 450.480469 408.21875 452.472656 415 455.929688 420.8125 L 462.175781 415.363281 C 473.695312 416.265625 472.253906 426.339844 472.253906 427.0625 L 466.695312 432.542969 C 473.070312 437.128906 480.890625 439.839844 489.347656 439.839844 C 504.339844 439.839844 517.339844 431.347656 523.828125 418.914062 C 518.507812 418.207031 515.027344 417.691406 514.722656 417.523438 C 513.238281 416.714844 509.59375 414.691406 510.40625 408.078125 C 511.210938 401.460938 519.039062 400.96875 519.039062 400.96875 Z M 261.175781 397.550781 C 242.191406 397.550781 226.804688 412.941406 226.804688 431.921875 C 226.804688 450.902344 242.191406 466.289062 261.175781 466.289062 C 280.15625 466.289062 295.542969 450.902344 295.542969 431.921875 C 295.542969 412.941406 280.15625 397.550781 261.175781 397.550781 Z M 437.253906 197.808594 C 442.785156 211.707031 440.628906 224.125 439.414062 227.496094 C 438.199219 230.871094 427.132812 243.152344 419.574219 245.585938 C 412.015625 248.011719 399.574219 247.257812 399.574219 247.257812 L 381.117188 238.976562 C 381.117188 238.976562 369.097656 229.929688 370.3125 212.515625 C 371.53125 195.105469 380.839844 185.796875 387.992188 181.75 C 395.144531 177.699219 406.484375 176.753906 412.828125 178.234375 C 419.167969 179.71875 431.71875 183.90625 437.253906 197.808594 " fill-opacity="1" fill-rule="nonzero"/><path fill="#d8d8d8" d="M 481.210938 328.863281 L 481.195312 328.859375 C 481.195312 328.859375 478.328125 323.402344 472.113281 323.503906 C 465.902344 323.605469 464.15625 332.230469 464.15625 332.230469 C 464.15625 334.027344 470.890625 366.757812 470.890625 366.757812 C 486.863281 372.167969 489.347656 362.101562 489.347656 362.101562 C 489.347656 362.101562 479.277344 335.695312 481.210938 328.863281 Z M 462.175781 415.363281 L 422.667969 449.785156 C 428.109375 453.054688 432.382812 458.0625 434.726562 464.039062 L 472.253906 427.0625 C 472.253906 426.339844 473.695312 416.265625 462.175781 415.363281 Z M 571.886719 408.128906 L 519.039062 400.96875 C 519.039062 400.96875 511.210938 401.460938 510.40625 408.078125 C 509.59375 414.691406 513.238281 416.714844 514.722656 417.523438 C 515.691406 418.054688 548.332031 422.046875 570.929688 424.707031 C 570.363281 422.527344 570.054688 420.242188 570.054688 417.882812 C 570.054688 414.441406 570.707031 411.15625 571.886719 408.128906 Z M 450.507812 399.863281 C 450.753906 391.066406 453.917969 383.003906 459.074219 376.605469 C 457.582031 375.429688 456.015625 374.417969 454.441406 373.796875 C 447.601562 371.097656 396.316406 337.988281 389.65625 337.265625 C 383 336.550781 379.578125 337.265625 376.523438 340.148438 C 373.460938 343.027344 370.761719 347.703125 370.042969 354.363281 L 448.5 399.347656 C 448.5 399.347656 449.28125 399.554688 450.507812 399.863281 Z M 318.757812 349.683594 C 314.617188 349.324219 275.390625 398.808594 275.390625 398.808594 L 274.046875 400.054688 C 280.542969 402.679688 286.054688 407.226562 289.867188 413.003906 C 290.59375 412.136719 291.046875 411.589844 291.046875 411.589844 C 291.046875 411.589844 314.800781 382.617188 321.816406 375.238281 C 328.835938 367.859375 330.8125 363 329.554688 357.421875 C 328.292969 351.84375 322.898438 350.042969 318.757812 349.683594 Z M 403.421875 235.957031 C 400.992188 228.398438 391.816406 229.835938 388.9375 229.476562 C 386.636719 229.191406 365.515625 262.421875 357.101562 275.8125 C 364.0625 277.480469 370.4375 280.644531 375.875 284.945312 C 387.066406 268.652344 405.109375 241.203125 403.421875 235.957031 Z M 297.171875 322.75 C 278.570312 316.980469 241.417969 304.953125 239.402344 300.378906 C 236.699219 294.257812 243.539062 285.804688 246.601562 284.183594 C 248.898438 282.964844 284.820312 294.851562 302.542969 300.839844 C 299.152344 307.417969 297.21875 314.859375 297.171875 322.75 " fill-opacity="1" fill-rule="nonzero"/><path fill="#ffffff" d="M 597.265625 436.425781 C 596.394531 435.753906 595.195312 435.667969 594.234375 436.210938 C 594.074219 436.300781 593.929688 436.386719 593.765625 436.457031 C 592.847656 436.859375 592.304688 438.054688 592.304688 439 C 592.304688 439.9375 592.738281 440.753906 593.46875 441.320312 C 595.167969 442.632812 597.433594 441.734375 598.097656 439.789062 L 598.148438 439.648438 C 598.160156 439.601562 598.167969 439.554688 598.179688 439.507812 C 598.203125 439.4375 598.21875 439.367188 598.246094 439.296875 C 598.589844 438.261719 598.082031 437.058594 597.265625 436.425781 Z M 589.367188 398.140625 C 584.363281 402.839844 580.558594 409.941406 579.902344 416.828125 C 579.414062 421.925781 579.539062 431.203125 585.558594 433.011719 C 586.414062 433.269531 587.445312 432.550781 587.386719 431.621094 C 587.042969 426.222656 584.382812 421.886719 584.972656 416.125 C 585.53125 410.664062 587.785156 403.835938 591.105469 399.484375 C 591.886719 398.449219 590.246094 397.316406 589.367188 398.140625 Z M 470.761719 373.886719 C 465.734375 377.625 463.386719 383.523438 461.464844 389.328125 C 459.59375 394.96875 457.847656 403.523438 462.039062 408.421875 C 462.894531 409.421875 464.382812 408.761719 464.757812 407.703125 C 466.503906 402.789062 464.871094 396.828125 465.886719 391.585938 C 466.882812 386.457031 468.316406 379.476562 472.242188 375.804688 C 473.230469 374.878906 471.886719 373.042969 470.761719 373.886719 Z M 406.089844 491.726562 C 404.109375 490.589844 401.378906 492.453125 401.578125 494.691406 C 401.671875 495.722656 402.066406 496.628906 403 497.171875 C 403.847656 497.671875 405.058594 497.726562 405.902344 497.171875 C 407.058594 496.40625 407.652344 495.339844 407.464844 493.949219 C 407.34375 493.054688 406.898438 492.191406 406.089844 491.726562 Z M 400.714844 453.382812 C 391.484375 457.164062 387.457031 465.542969 386.0625 475.089844 C 385.171875 481.226562 386.566406 491.726562 394.917969 490.550781 C 395.96875 490.402344 396.195312 489.089844 395.828125 488.316406 C 394.917969 486.425781 393.632812 484.679688 392.878906 482.738281 C 391.820312 480.042969 392.003906 477.054688 392.261719 474.214844 C 392.910156 467.101562 395.171875 459.308594 401.460938 455.164062 C 402.328125 454.59375 401.789062 452.941406 400.714844 453.382812 Z M 255.085938 450.59375 C 255.042969 450.582031 255 450.570312 254.957031 450.558594 C 253.085938 450.050781 251.328125 451.8125 251.835938 453.679688 C 251.847656 453.722656 251.859375 453.769531 251.871094 453.808594 C 252.390625 455.710938 254.855469 456.347656 256.238281 454.964844 C 257.628906 453.574219 256.988281 451.109375 255.085938 450.59375 Z M 251.847656 409.339844 C 252.738281 408.738281 252.210938 407.058594 251.070312 407.484375 C 242.984375 410.507812 238.773438 419.226562 237.824219 427.429688 C 237.183594 432.980469 236.496094 449.015625 245.644531 448.390625 C 246.972656 448.300781 248.125 446.824219 247.273438 445.554688 C 240.84375 435.941406 241.53125 416.363281 251.847656 409.339844 Z M 205.234375 302.6875 C 203.574219 302.6875 201.984375 304.148438 202.0625 305.859375 C 202.136719 307.582031 203.453125 309.035156 205.234375 309.035156 C 206.894531 309.035156 208.484375 307.574219 208.40625 305.859375 C 208.328125 304.140625 207.011719 302.6875 205.234375 302.6875 Z M 226.800781 255.441406 C 217.058594 252.722656 206.589844 257.480469 200.648438 265.417969 C 195.140625 272.773438 191.207031 287.128906 198.550781 294.539062 C 199.621094 295.617188 201.15625 294.714844 201.300781 293.394531 C 201.746094 289.417969 200.691406 285.5 200.828125 281.511719 C 200.980469 277.109375 202.09375 272.769531 204.402344 268.984375 C 209.222656 261.101562 217.6875 257.488281 226.613281 256.792969 C 227.363281 256.734375 227.582031 255.660156 226.800781 255.441406 Z M 314.035156 331.402344 C 312.367188 331.402344 310.773438 332.867188 310.851562 334.585938 C 310.929688 336.308594 312.25 337.769531 314.035156 337.769531 C 315.699219 337.769531 317.292969 336.304688 317.21875 334.585938 C 317.136719 332.863281 315.820312 331.402344 314.035156 331.402344 Z M 326.984375 287.847656 C 320.074219 291.757812 314.757812 296.6875 311.128906 303.851562 C 308.378906 309.285156 304.898438 318.082031 308.011719 323.921875 C 308.511719 324.859375 310.085938 324.914062 310.570312 323.921875 C 311.851562 321.285156 311.75 318.582031 312.242188 315.71875 C 312.773438 312.613281 313.714844 309.5625 314.953125 306.667969 C 317.726562 300.199219 322.386719 293.902344 328.042969 289.667969 C 329.105469 288.878906 328.195312 287.164062 326.984375 287.847656 Z M 454.109375 316.875 C 453.210938 315.96875 452.578125 315 452.726562 313.6875 C 452.875 312.429688 450.71875 312.128906 450.503906 313.386719 C 450.230469 315 450.632812 316.53125 451.660156 317.816406 C 452.445312 318.804688 454.097656 320.207031 455.457031 320.042969 C 455.878906 319.992188 456.238281 319.648438 456.105469 319.1875 C 455.828125 318.207031 454.804688 317.570312 454.109375 316.875 Z M 455.183594 281.984375 C 448.148438 285.15625 439.710938 299.082031 444.179688 306.503906 C 444.613281 307.230469 445.691406 307.058594 445.9375 306.273438 C 447.050781 302.742188 447.128906 299.089844 448.539062 295.597656 C 450.160156 291.585938 452.632812 286.289062 456.246094 283.804688 C 457.375 283.023438 456.410156 281.429688 455.183594 281.984375 Z M 385.359375 232.320312 C 385.59375 233.398438 384.375 234.652344 383.3125 233.890625 C 377.195312 229.503906 375.277344 220.308594 375.757812 213.1875 C 376.332031 204.609375 380.289062 197.804688 386.675781 192.273438 C 387.976562 191.144531 389.570312 192.820312 388.535156 194.132812 C 384.148438 199.660156 381.421875 207.035156 381.226562 214.078125 C 381.046875 220.757812 383.988281 226.042969 385.359375 232.320312 " fill-opacity="1" fill-rule="nonzero"/><path fill="#a8a8a8" d="M 390.976562 227.183594 C 390.359375 227.183594 389.753906 227.191406 389.164062 227.199219 L 388.84375 227.203125 C 387.785156 227.21875 386.9375 228.015625 386.828125 229.101562 C 386.71875 230.152344 387.351562 231.035156 388.367188 231.257812 C 389.375 231.480469 390.449219 231.617188 391.589844 231.757812 C 394.777344 232.15625 398.070312 232.566406 399.558594 234.9375 C 400.914062 237.105469 400.46875 239.261719 399.949219 241.753906 C 399.664062 243.117188 399.371094 244.53125 399.378906 246.007812 C 399.382812 247.144531 400.285156 248.03125 401.433594 248.03125 C 401.957031 248.03125 402.457031 247.835938 402.839844 247.480469 C 406.910156 243.714844 406.757812 236.40625 404.078125 232.207031 C 401.261719 227.792969 396.117188 227.183594 390.976562 227.183594 Z M 464.035156 414.972656 C 463.738281 414.972656 463.449219 414.980469 463.15625 415 C 462.339844 415.058594 461.730469 415.683594 461.710938 416.488281 C 461.691406 417.292969 462.289062 417.976562 463.101562 418.078125 C 465.296875 418.347656 467.714844 420.03125 468.730469 422.003906 C 469.214844 422.941406 469.753906 424.03125 470.039062 425.128906 C 470.125 425.453125 470.160156 425.769531 470.203125 426.109375 C 470.292969 426.84375 470.394531 427.675781 470.988281 428.53125 C 471.332031 429.023438 471.878906 429.316406 472.457031 429.316406 C 472.894531 429.316406 473.316406 429.144531 473.648438 428.839844 C 475.011719 427.574219 475.867188 424.847656 472.210938 419.03125 C 470.609375 416.488281 467.550781 414.972656 464.035156 414.972656 Z M 424.074219 447.964844 L 423.917969 447.957031 C 423.261719 447.957031 422.691406 448.386719 422.507812 449.03125 C 422.3125 449.707031 422.578125 450.4375 423.160156 450.800781 C 426.246094 452.734375 428.648438 454.566406 430.371094 457.199219 C 431.195312 458.457031 431.871094 459.878906 432.441406 461.539062 C 432.554688 461.867188 432.636719 462.171875 432.714844 462.453125 C 432.992188 463.4375 433.273438 464.457031 434.378906 465.402344 C 434.683594 465.660156 435.089844 465.808594 435.488281 465.808594 C 436.101562 465.808594 436.640625 465.472656 436.898438 464.929688 C 438.582031 461.347656 435.078125 456.003906 433.496094 453.875 C 431.671875 451.417969 428.558594 448.402344 424.074219 447.964844 Z M 458.46875 374.664062 C 458.269531 374.664062 458.074219 374.710938 457.886719 374.792969 C 453.453125 376.792969 451.636719 381.3125 450.027344 385.320312 C 448.574219 388.9375 445.871094 395.664062 448.449219 400.371094 C 448.746094 400.914062 449.289062 401.242188 449.90625 401.242188 C 450.660156 401.242188 451.324219 400.765625 451.566406 400.054688 C 452.246094 398.066406 452.511719 396 452.769531 393.996094 C 453.015625 392.089844 453.269531 390.121094 453.882812 388.28125 C 454.050781 387.777344 454.21875 387.261719 454.386719 386.734375 C 455.5 383.273438 456.761719 379.347656 459.417969 377.113281 C 459.863281 376.738281 460.023438 376.148438 459.832031 375.613281 C 459.621094 375.046875 459.078125 374.664062 458.46875 374.664062 Z M 572.683594 410.441406 L 572.882812 408.8125 C 572.9375 408.347656 572.796875 407.902344 572.492188 407.558594 C 572.164062 407.1875 571.679688 406.976562 571.164062 406.976562 C 570.527344 406.976562 569.953125 407.3125 569.664062 407.859375 C 568.050781 410.933594 567.214844 414.257812 567.109375 418.023438 L 567.105469 418.140625 C 567.03125 420.648438 566.917969 424.433594 569.953125 425.796875 C 570.226562 425.921875 570.511719 425.980469 570.796875 425.980469 C 571.792969 425.980469 572.578125 425.242188 572.671875 424.222656 C 572.761719 423.238281 572.554688 422.527344 572.351562 421.839844 C 572.273438 421.5625 572.1875 421.265625 572.121094 420.929688 C 571.878906 419.695312 571.953125 418.328125 572.023438 416.992188 C 572.136719 414.8125 572.414062 412.589844 572.683594 410.441406 Z M 489.707031 359.964844 C 489.355469 359.964844 489.015625 360.085938 488.738281 360.3125 C 487.882812 361.011719 487.171875 361.730469 486.484375 362.421875 C 484.902344 364.027344 483.648438 365.292969 481.28125 365.738281 C 480.453125 365.894531 479.550781 365.972656 478.601562 365.972656 C 476.324219 365.972656 473.753906 365.511719 471.363281 364.675781 C 471.183594 364.613281 471 364.582031 470.8125 364.582031 C 470.164062 364.582031 469.578125 364.980469 469.308594 365.597656 C 469.03125 366.238281 469.152344 366.976562 469.617188 367.46875 C 471.4375 369.410156 474.890625 370.566406 478.855469 370.566406 C 478.855469 370.566406 478.855469 370.566406 478.859375 370.566406 C 483.269531 370.566406 487.183594 369.167969 489.335938 366.820312 C 490.722656 365.304688 491.359375 363.410156 491.183594 361.339844 C 491.113281 360.554688 490.476562 359.964844 489.707031 359.964844 Z M 523.453125 417.1875 C 523.019531 417.113281 522.574219 417.058594 522.128906 416.996094 C 520.996094 416.839844 519.828125 416.679688 518.824219 416.320312 L 518.433594 416.183594 C 517.183594 415.738281 515.082031 414.996094 514.242188 414.285156 C 513.949219 414.039062 513.570312 413.902344 513.179688 413.902344 C 512.523438 413.902344 511.917969 414.265625 511.640625 414.832031 C 511.375 415.355469 511.445312 415.960938 511.8125 416.449219 C 514.640625 420.167969 518.601562 421.132812 522.410156 421.800781 C 522.5625 421.828125 522.710938 421.835938 522.851562 421.835938 C 524.253906 421.835938 525.1875 420.660156 525.28125 419.527344 C 525.378906 418.34375 524.628906 417.382812 523.453125 417.1875 Z M 376.226562 356 C 375.941406 355.855469 375.660156 355.71875 375.398438 355.574219 C 374.453125 355.050781 373.488281 354.679688 372.554688 354.324219 C 372.261719 354.210938 371.96875 354.101562 371.675781 353.984375 C 371.476562 353.90625 371.273438 353.863281 371.0625 353.863281 C 370.371094 353.863281 369.746094 354.308594 369.480469 354.996094 C 369.214844 355.679688 369.375 356.429688 369.890625 356.902344 L 370.445312 357.421875 C 371.230469 358.152344 372.035156 358.910156 372.992188 359.570312 C 373.230469 359.734375 373.464844 359.914062 373.707031 360.09375 C 374.601562 360.761719 375.617188 361.519531 376.828125 361.800781 C 377.019531 361.847656 377.210938 361.871094 377.398438 361.871094 C 378.292969 361.871094 379.082031 361.363281 379.464844 360.550781 C 379.859375 359.699219 379.726562 358.710938 379.109375 357.976562 C 378.328125 357.050781 377.214844 356.492188 376.226562 356 Z M 386.585938 332.890625 C 384.210938 332.890625 381.449219 333.597656 379.203125 334.78125 C 374.558594 337.230469 371.167969 341.882812 369.117188 348.609375 C 368.921875 349.25 369.039062 349.925781 369.441406 350.464844 C 369.875 351.050781 370.597656 351.414062 371.320312 351.414062 C 372.132812 351.414062 372.820312 350.972656 373.160156 350.226562 C 374.769531 346.722656 376.589844 343.09375 379.566406 340.601562 C 381.4375 339.03125 383.75 338.074219 385.914062 337.972656 C 386.003906 337.96875 386.097656 337.964844 386.1875 337.964844 C 387.058594 337.964844 387.925781 338.144531 388.851562 338.339844 C 389.761719 338.53125 390.707031 338.726562 391.765625 338.757812 C 392.40625 338.757812 393.003906 338.394531 393.320312 337.808594 C 393.632812 337.234375 393.605469 336.546875 393.253906 336.019531 C 391.902344 333.972656 389.597656 332.890625 386.585938 332.890625 Z M 465.078125 332.101562 C 465.632812 332.101562 466.148438 331.851562 466.488281 331.417969 C 468.304688 329.082031 470.152344 326.917969 472.734375 326.148438 C 473.332031 325.972656 473.945312 325.882812 474.546875 325.882812 C 476.390625 325.882812 478.265625 326.699219 480.273438 328.386719 C 480.550781 328.617188 480.894531 328.742188 481.25 328.742188 C 481.710938 328.742188 482.132812 328.539062 482.417969 328.183594 C 482.699219 327.832031 482.800781 327.375 482.699219 326.917969 C 481.804688 323 477.898438 321.242188 474.421875 321.242188 C 473.964844 321.242188 473.507812 321.273438 473.058594 321.332031 C 468.800781 321.882812 465.015625 325.007812 463.171875 329.488281 C 462.941406 330.046875 463.011719 330.660156 463.351562 331.171875 C 463.730469 331.738281 464.40625 332.101562 465.078125 332.101562 Z M 275.648438 398.414062 C 275.523438 398.390625 275.402344 398.382812 275.285156 398.382812 C 274.273438 398.382812 273.429688 399.113281 273.289062 400.125 C 273.148438 401.09375 273.726562 401.96875 274.6875 402.25 C 278.132812 403.261719 281.070312 405.070312 283.410156 407.621094 C 284.964844 409.320312 285.820312 411.238281 286.722656 413.265625 C 287.167969 414.265625 287.628906 415.300781 288.191406 416.34375 C 288.496094 416.910156 289.046875 417.25 289.65625 417.25 C 290.554688 417.25 291.34375 416.539062 291.457031 415.636719 C 292.0625 410.910156 288.34375 406.242188 286.714844 404.457031 C 283.820312 401.28125 279.890625 399.128906 275.648438 398.414062 Z M 245.96875 282.085938 C 245.761719 282.085938 245.558594 282.117188 245.355469 282.179688 C 241.082031 283.453125 237.003906 288.960938 235.878906 293.304688 C 234.972656 296.78125 235.667969 304.230469 240.210938 306.0625 C 240.398438 306.140625 240.601562 306.179688 240.808594 306.179688 C 241.320312 306.179688 241.835938 305.9375 242.1875 305.535156 C 242.519531 305.164062 242.675781 304.679688 242.617188 304.214844 C 242.433594 302.808594 241.988281 301.515625 241.558594 300.265625 C 241 298.632812 240.46875 297.085938 240.574219 295.441406 C 240.78125 292.222656 243.714844 287.082031 246.542969 286.035156 C 247.5 285.683594 248.039062 284.734375 247.859375 283.726562 C 247.6875 282.761719 246.90625 282.085938 245.96875 282.085938 Z M 376.699219 286.769531 C 376.992188 286.90625 377.296875 286.972656 377.613281 286.972656 C 378.265625 286.972656 378.886719 286.671875 379.273438 286.167969 C 379.644531 285.679688 379.769531 285.046875 379.601562 284.4375 C 378.613281 280.734375 374.601562 278.835938 371.378906 277.308594 C 370.984375 277.121094 370.601562 276.941406 370.238281 276.761719 C 367.007812 275.171875 363.128906 273.542969 358.867188 273.542969 C 358.375 273.542969 357.878906 273.566406 357.378906 273.609375 C 356.453125 273.695312 355.714844 274.480469 355.675781 275.433594 C 355.636719 276.3125 356.222656 277.027344 357.09375 277.1875 C 360.851562 277.863281 364.242188 279.121094 367.78125 281.148438 C 368.996094 281.84375 370.214844 282.6875 371.394531 283.507812 C 373.089844 284.679688 374.835938 285.894531 376.699219 286.769531 Z M 330.957031 356.609375 C 332.957031 361.59375 332.183594 368.980469 327.839844 372.042969 C 327.574219 372.230469 327.265625 372.328125 326.9375 372.328125 C 326.46875 372.328125 326.011719 372.128906 325.6875 371.777344 C 325.375 371.441406 325.21875 371.015625 325.253906 370.574219 C 325.371094 368.972656 325.777344 367.503906 326.171875 366.085938 C 326.785156 363.875 327.371094 361.78125 326.734375 359.433594 C 325.574219 355.148438 322.183594 353.148438 316.058594 353.136719 C 314.917969 353.136719 314.054688 352.320312 314.003906 351.199219 C 313.949219 350.027344 314.785156 349.058594 315.957031 348.945312 C 316.796875 348.863281 317.617188 348.828125 318.394531 348.828125 C 324.652344 348.828125 328.878906 351.445312 330.957031 356.609375 " fill-opacity="1" fill-rule="nonzero"/><g fill="#213949" fill-opacity="1"><g transform="translate(58.973794, 618.222762)"><g><path d="M 0.875 -15.828125 C 0.875 -20.410156 2.429688 -24.285156 5.546875 -27.453125 C 8.671875 -30.617188 12.429688 -32.203125 16.828125 -32.203125 C 21.253906 -32.203125 25.015625 -30.625 28.109375 -27.46875 C 31.203125 -24.3125 32.75 -20.429688 32.75 -15.828125 C 32.75 -11.203125 31.226562 -7.3125 28.1875 -4.15625 C 25.144531 -1 21.359375 0.578125 16.828125 0.578125 C 12.203125 0.578125 8.382812 -0.984375 5.375 -4.109375 C 2.375 -7.242188 0.875 -11.148438 0.875 -15.828125 Z M 8.671875 -15.828125 C 8.671875 -14.171875 8.925781 -12.65625 9.4375 -11.28125 C 9.945312 -9.914062 10.835938 -8.757812 12.109375 -7.8125 C 13.390625 -6.875 14.960938 -6.40625 16.828125 -6.40625 C 19.515625 -6.40625 21.539062 -7.320312 22.90625 -9.15625 C 24.28125 -11 24.96875 -13.222656 24.96875 -15.828125 C 24.96875 -18.410156 24.269531 -20.628906 22.875 -22.484375 C 21.476562 -24.335938 19.460938 -25.265625 16.828125 -25.265625 C 14.222656 -25.265625 12.210938 -24.335938 10.796875 -22.484375 C 9.378906 -20.628906 8.671875 -18.410156 8.671875 -15.828125 Z M 8.671875 -15.828125 "/></g></g></g><g fill="#213949" fill-opacity="1"><g transform="translate(92.590416, 618.222762)"><g><path d="M 9.515625 -19.625 L 9.515625 0 L 2.296875 0 L 2.296875 -31.640625 L 9.515625 -31.640625 L 22.09375 -12 L 22.15625 -12 L 22.15625 -31.640625 L 29.375 -31.640625 L 29.375 0 L 22.15625 0 L 9.578125 -19.625 Z M 9.515625 -19.625 "/></g></g></g><g fill="#213949" fill-opacity="1"><g transform="translate(124.252123, 618.222762)"><g><path d="M 9.515625 -31.640625 L 9.515625 -6.328125 L 20.40625 -6.328125 L 20.40625 0 L 2.296875 0 L 2.296875 -31.640625 Z M 9.515625 -31.640625 "/></g></g></g><g fill="#213949" fill-opacity="1"><g transform="translate(145.909352, 618.222762)"><g><path d="M 9.515625 -31.640625 L 9.515625 0 L 2.296875 0 L 2.296875 -31.640625 Z M 9.515625 -31.640625 "/></g></g></g><g fill="#213949" fill-opacity="1"><g transform="translate(157.715409, 618.222762)"><g><path d="M 9.515625 -19.625 L 9.515625 0 L 2.296875 0 L 2.296875 -31.640625 L 9.515625 -31.640625 L 22.09375 -12 L 22.15625 -12 L 22.15625 -31.640625 L 29.375 -31.640625 L 29.375 0 L 22.15625 0 L 9.578125 -19.625 Z M 9.515625 -19.625 "/></g></g></g><g fill="#213949" fill-opacity="1"><g transform="translate(189.377115, 618.222762)"><g><path d="M 20.40625 -31.640625 L 20.40625 -25.3125 L 9.515625 -25.3125 L 9.515625 -19.015625 L 19.9375 -19.015625 L 19.9375 -12.6875 L 9.515625 -12.6875 L 9.515625 -6.328125 L 20.40625 -6.328125 L 20.40625 0 L 2.296875 0 L 2.296875 -31.640625 Z M 20.40625 -31.640625 "/></g></g></g><g fill="#213949" fill-opacity="1"><g transform="translate(211.609319, 618.222762)"><g/></g></g><g fill="#213949" fill-opacity="1"><g transform="translate(222.073777, 618.222762)"><g><path d="M 9.515625 -31.640625 L 9.515625 -6.328125 L 20.40625 -6.328125 L 20.40625 0 L 2.296875 0 L 2.296875 -31.640625 Z M 9.515625 -31.640625 "/></g></g></g><g fill="#213949" fill-opacity="1"><g transform="translate(243.731006, 618.222762)"><g><path d="M 18.359375 -31.640625 L 31.140625 0 L 23.390625 0 L 21.046875 -6.328125 L 9.015625 -6.328125 L 6.671875 0 L -1.078125 0 L 11.6875 -31.640625 Z M 18.59375 -12.65625 L 15.0625 -21.859375 L 15 -21.859375 L 11.46875 -12.65625 Z M 18.59375 -12.65625 "/></g></g></g><g fill="#213949" fill-opacity="1"><g transform="translate(273.782813, 618.222762)"><g><path d="M 2.296875 -31.640625 L 12.109375 -31.640625 C 15.078125 -31.640625 17.441406 -31.003906 19.203125 -29.734375 C 20.972656 -28.472656 21.859375 -26.421875 21.859375 -23.578125 C 21.859375 -20.410156 20.539062 -18.148438 17.90625 -16.796875 C 22.40625 -16.003906 24.65625 -13.34375 24.65625 -8.8125 C 24.65625 -6.15625 23.734375 -4.019531 21.890625 -2.40625 C 20.054688 -0.800781 17.523438 0 14.296875 0 L 2.296875 0 Z M 9.515625 -19.25 L 10.078125 -19.25 C 11.691406 -19.25 12.894531 -19.53125 13.6875 -20.09375 C 14.476562 -20.65625 14.875 -21.578125 14.875 -22.859375 C 14.875 -25.003906 13.273438 -26.078125 10.078125 -26.078125 L 9.515625 -26.078125 Z M 9.515625 -5.5625 L 11.765625 -5.5625 C 15.296875 -5.5625 17.0625 -6.738281 17.0625 -9.09375 C 17.0625 -10.5 16.617188 -11.503906 15.734375 -12.109375 C 14.859375 -12.722656 13.535156 -13.03125 11.765625 -13.03125 L 9.515625 -13.03125 Z M 9.515625 -5.5625 "/></g></g></g><g fill="#213949" fill-opacity="1"><g transform="translate(299.311501, 618.222762)"><g><path d="M 0.875 -15.828125 C 0.875 -20.410156 2.429688 -24.285156 5.546875 -27.453125 C 8.671875 -30.617188 12.429688 -32.203125 16.828125 -32.203125 C 21.253906 -32.203125 25.015625 -30.625 28.109375 -27.46875 C 31.203125 -24.3125 32.75 -20.429688 32.75 -15.828125 C 32.75 -11.203125 31.226562 -7.3125 28.1875 -4.15625 C 25.144531 -1 21.359375 0.578125 16.828125 0.578125 C 12.203125 0.578125 8.382812 -0.984375 5.375 -4.109375 C 2.375 -7.242188 0.875 -11.148438 0.875 -15.828125 Z M 8.671875 -15.828125 C 8.671875 -14.171875 8.925781 -12.65625 9.4375 -11.28125 C 9.945312 -9.914062 10.835938 -8.757812 12.109375 -7.8125 C 13.390625 -6.875 14.960938 -6.40625 16.828125 -6.40625 C 19.515625 -6.40625 21.539062 -7.320312 22.90625 -9.15625 C 24.28125 -11 24.96875 -13.222656 24.96875 -15.828125 C 24.96875 -18.410156 24.269531 -20.628906 22.875 -22.484375 C 21.476562 -24.335938 19.460938 -25.265625 16.828125 -25.265625 C 14.222656 -25.265625 12.210938 -24.335938 10.796875 -22.484375 C 9.378906 -20.628906 8.671875 -18.410156 8.671875 -15.828125 Z M 8.671875 -15.828125 "/></g></g></g><g fill="#213949" fill-opacity="1"><g transform="translate(332.928124, 618.222762)"><g><path d="M 2.296875 -31.640625 L 13.609375 -31.640625 C 16.648438 -31.640625 19.128906 -30.828125 21.046875 -29.203125 C 22.960938 -27.578125 23.921875 -25.253906 23.921875 -22.234375 C 23.921875 -19.910156 23.335938 -17.960938 22.171875 -16.390625 C 21.015625 -14.816406 19.441406 -13.710938 17.453125 -13.078125 L 28.34375 0 L 19.171875 0 L 9.515625 -12.5 L 9.515625 0 L 2.296875 0 Z M 9.515625 -17.59375 L 10.359375 -17.59375 C 11.015625 -17.59375 11.570312 -17.601562 12.03125 -17.625 C 12.5 -17.65625 13.023438 -17.75 13.609375 -17.90625 C 14.203125 -18.0625 14.675781 -18.28125 15.03125 -18.5625 C 15.382812 -18.84375 15.6875 -19.25 15.9375 -19.78125 C 16.195312 -20.320312 16.328125 -20.972656 16.328125 -21.734375 C 16.328125 -22.503906 16.195312 -23.15625 15.9375 -23.6875 C 15.6875 -24.226562 15.382812 -24.640625 15.03125 -24.921875 C 14.675781 -25.203125 14.203125 -25.421875 13.609375 -25.578125 C 13.023438 -25.734375 12.5 -25.820312 12.03125 -25.84375 C 11.570312 -25.863281 11.015625 -25.875 10.359375 -25.875 L 9.515625 -25.875 Z M 9.515625 -17.59375 "/></g></g></g><g fill="#213949" fill-opacity="1"><g transform="translate(360.373386, 618.222762)"><g><path d="M 18.359375 -31.640625 L 31.140625 0 L 23.390625 0 L 21.046875 -6.328125 L 9.015625 -6.328125 L 6.671875 0 L -1.078125 0 L 11.6875 -31.640625 Z M 18.59375 -12.65625 L 15.0625 -21.859375 L 15 -21.859375 L 11.46875 -12.65625 Z M 18.59375 -12.65625 "/></g></g></g><g fill="#213949" fill-opacity="1"><g transform="translate(390.425193, 618.222762)"><g><path d="M 0.3125 -25.3125 L 0.3125 -31.640625 L 22.546875 -31.640625 L 22.546875 -25.3125 L 15.03125 -25.3125 L 15.03125 0 L 7.828125 0 L 7.828125 -25.3125 Z M 0.3125 -25.3125 "/></g></g></g><g fill="#213949" fill-opacity="1"><g transform="translate(413.270683, 618.222762)"><g><path d="M 0.875 -15.828125 C 0.875 -20.410156 2.429688 -24.285156 5.546875 -27.453125 C 8.671875 -30.617188 12.429688 -32.203125 16.828125 -32.203125 C 21.253906 -32.203125 25.015625 -30.625 28.109375 -27.46875 C 31.203125 -24.3125 32.75 -20.429688 32.75 -15.828125 C 32.75 -11.203125 31.226562 -7.3125 28.1875 -4.15625 C 25.144531 -1 21.359375 0.578125 16.828125 0.578125 C 12.203125 0.578125 8.382812 -0.984375 5.375 -4.109375 C 2.375 -7.242188 0.875 -11.148438 0.875 -15.828125 Z M 8.671875 -15.828125 C 8.671875 -14.171875 8.925781 -12.65625 9.4375 -11.28125 C 9.945312 -9.914062 10.835938 -8.757812 12.109375 -7.8125 C 13.390625 -6.875 14.960938 -6.40625 16.828125 -6.40625 C 19.515625 -6.40625 21.539062 -7.320312 22.90625 -9.15625 C 24.28125 -11 24.96875 -13.222656 24.96875 -15.828125 C 24.96875 -18.410156 24.269531 -20.628906 22.875 -22.484375 C 21.476562 -24.335938 19.460938 -25.265625 16.828125 -25.265625 C 14.222656 -25.265625 12.210938 -24.335938 10.796875 -22.484375 C 9.378906 -20.628906 8.671875 -18.410156 8.671875 -15.828125 Z M 8.671875 -15.828125 "/></g></g></g><g fill="#213949" fill-opacity="1"><g transform="translate(446.887306, 618.222762)"><g><path d="M 2.296875 -31.640625 L 13.609375 -31.640625 C 16.648438 -31.640625 19.128906 -30.828125 21.046875 -29.203125 C 22.960938 -27.578125 23.921875 -25.253906 23.921875 -22.234375 C 23.921875 -19.910156 23.335938 -17.960938 22.171875 -16.390625 C 21.015625 -14.816406 19.441406 -13.710938 17.453125 -13.078125 L 28.34375 0 L 19.171875 0 L 9.515625 -12.5 L 9.515625 0 L 2.296875 0 Z M 9.515625 -17.59375 L 10.359375 -17.59375 C 11.015625 -17.59375 11.570312 -17.601562 12.03125 -17.625 C 12.5 -17.65625 13.023438 -17.75 13.609375 -17.90625 C 14.203125 -18.0625 14.675781 -18.28125 15.03125 -18.5625 C 15.382812 -18.84375 15.6875 -19.25 15.9375 -19.78125 C 16.195312 -20.320312 16.328125 -20.972656 16.328125 -21.734375 C 16.328125 -22.503906 16.195312 -23.15625 15.9375 -23.6875 C 15.6875 -24.226562 15.382812 -24.640625 15.03125 -24.921875 C 14.675781 -25.203125 14.203125 -25.421875 13.609375 -25.578125 C 13.023438 -25.734375 12.5 -25.820312 12.03125 -25.84375 C 11.570312 -25.863281 11.015625 -25.875 10.359375 -25.875 L 9.515625 -25.875 Z M 9.515625 -17.59375 "/></g></g></g><g fill="#213949" fill-opacity="1"><g transform="translate(474.332568, 618.222762)"><g><path d="M -1.15625 -31.640625 L 7.515625 -31.640625 L 14.109375 -21.515625 L 20.703125 -31.640625 L 29.375 -31.640625 L 17.71875 -14.1875 L 17.71875 0 L 10.5 0 L 10.5 -14.1875 Z M -1.15625 -31.640625 "/></g></g></g><g fill="#213949" fill-opacity="1"><g transform="translate(502.544453, 618.222762)"><g/></g></g><g fill="#213949" fill-opacity="1"><g transform="translate(513.008912, 618.222762)"><g><path d="M 13.953125 -32.203125 C 15.671875 -32.203125 17.347656 -31.953125 18.984375 -31.453125 C 20.617188 -30.960938 21.832031 -30.472656 22.625 -29.984375 L 23.765625 -29.21875 L 20.859375 -23.46875 C 20.628906 -23.625 20.304688 -23.820312 19.890625 -24.0625 C 19.484375 -24.300781 18.71875 -24.625 17.59375 -25.03125 C 16.46875 -25.445312 15.421875 -25.65625 14.453125 -25.65625 C 13.253906 -25.65625 12.328125 -25.398438 11.671875 -24.890625 C 11.023438 -24.378906 10.703125 -23.6875 10.703125 -22.8125 C 10.703125 -22.375 10.851562 -21.96875 11.15625 -21.59375 C 11.46875 -21.226562 11.992188 -20.832031 12.734375 -20.40625 C 13.472656 -19.988281 14.125 -19.648438 14.6875 -19.390625 C 15.25 -19.140625 16.117188 -18.757812 17.296875 -18.25 C 19.335938 -17.382812 21.078125 -16.203125 22.515625 -14.703125 C 23.960938 -13.210938 24.6875 -11.519531 24.6875 -9.625 C 24.6875 -7.8125 24.359375 -6.226562 23.703125 -4.875 C 23.054688 -3.519531 22.164062 -2.457031 21.03125 -1.6875 C 19.894531 -0.914062 18.632812 -0.347656 17.25 0.015625 C 15.875 0.390625 14.378906 0.578125 12.765625 0.578125 C 11.390625 0.578125 10.035156 0.4375 8.703125 0.15625 C 7.367188 -0.125 6.253906 -0.472656 5.359375 -0.890625 C 4.472656 -1.316406 3.671875 -1.734375 2.953125 -2.140625 C 2.234375 -2.554688 1.707031 -2.90625 1.375 -3.1875 L 0.875 -3.609375 L 4.484375 -9.65625 C 4.796875 -9.40625 5.21875 -9.082031 5.75 -8.6875 C 6.289062 -8.289062 7.242188 -7.757812 8.609375 -7.09375 C 9.972656 -6.425781 11.179688 -6.09375 12.234375 -6.09375 C 15.273438 -6.09375 16.796875 -7.128906 16.796875 -9.203125 C 16.796875 -9.640625 16.6875 -10.039062 16.46875 -10.40625 C 16.25 -10.78125 15.863281 -11.148438 15.3125 -11.515625 C 14.769531 -11.890625 14.285156 -12.1875 13.859375 -12.40625 C 13.441406 -12.625 12.753906 -12.957031 11.796875 -13.40625 C 10.835938 -13.851562 10.125 -14.191406 9.65625 -14.421875 C 7.738281 -15.359375 6.253906 -16.535156 5.203125 -17.953125 C 4.160156 -19.378906 3.640625 -20.910156 3.640625 -22.546875 C 3.640625 -25.378906 4.6875 -27.695312 6.78125 -29.5 C 8.882812 -31.300781 11.273438 -32.203125 13.953125 -32.203125 Z M 13.953125 -32.203125 "/></g></g></g><g fill="#213949" fill-opacity="1"><g transform="translate(538.76759, 618.222762)"><g><path d="M 9.515625 -31.640625 L 9.515625 0 L 2.296875 0 L 2.296875 -31.640625 Z M 9.515625 -31.640625 "/></g></g></g><g fill="#213949" fill-opacity="1"><g transform="translate(550.573647, 618.222762)"><g><path d="M 28.453125 0 L 26.953125 -18.75 L 26.765625 -18.75 L 20.28125 -0.1875 L 15.984375 -0.1875 L 9.515625 -18.75 L 9.3125 -18.75 L 7.828125 0 L 0.609375 0 L 3.453125 -31.640625 L 11.125 -31.640625 L 18.140625 -13.375 L 25.15625 -31.640625 L 32.828125 -31.640625 L 35.65625 0 Z M 28.453125 0 "/></g></g></g><g fill="#213949" fill-opacity="1"><g transform="translate(586.835125, 618.222762)"><g><path d="M 26.609375 -31.640625 L 26.609375 -11.234375 C 26.609375 -7.347656 25.5625 -4.40625 23.46875 -2.40625 C 21.375 -0.414062 18.304688 0.578125 14.265625 0.578125 C 10.222656 0.578125 7.15625 -0.414062 5.0625 -2.40625 C 2.96875 -4.40625 1.921875 -7.347656 1.921875 -11.234375 L 1.921875 -31.640625 L 9.125 -31.640625 L 9.125 -13.34375 C 9.125 -10.789062 9.523438 -9.015625 10.328125 -8.015625 C 11.140625 -7.015625 12.453125 -6.515625 14.265625 -6.515625 C 16.078125 -6.515625 17.382812 -7.015625 18.1875 -8.015625 C 19 -9.015625 19.40625 -10.789062 19.40625 -13.34375 L 19.40625 -31.640625 Z M 26.609375 -31.640625 "/></g></g></g><g fill="#213949" fill-opacity="1"><g transform="translate(615.353654, 618.222762)"><g><path d="M 9.515625 -31.640625 L 9.515625 -6.328125 L 20.40625 -6.328125 L 20.40625 0 L 2.296875 0 L 2.296875 -31.640625 Z M 9.515625 -31.640625 "/></g></g></g><g fill="#213949" fill-opacity="1"><g transform="translate(637.010914, 618.222762)"><g><path d="M 18.359375 -31.640625 L 31.140625 0 L 23.390625 0 L 21.046875 -6.328125 L 9.015625 -6.328125 L 6.671875 0 L -1.078125 0 L 11.6875 -31.640625 Z M 18.59375 -12.65625 L 15.0625 -21.859375 L 15 -21.859375 L 11.46875 -12.65625 Z M 18.59375 -12.65625 "/></g></g></g><g fill="#213949" fill-opacity="1"><g transform="translate(667.062752, 618.222762)"><g><path d="M 0.3125 -25.3125 L 0.3125 -31.640625 L 22.546875 -31.640625 L 22.546875 -25.3125 L 15.03125 -25.3125 L 15.03125 0 L 7.828125 0 L 7.828125 -25.3125 Z M 0.3125 -25.3125 "/></g></g></g><g fill="#213949" fill-opacity="1"><g transform="translate(689.908274, 618.222762)"><g><path d="M 0.875 -15.828125 C 0.875 -20.410156 2.429688 -24.285156 5.546875 -27.453125 C 8.671875 -30.617188 12.429688 -32.203125 16.828125 -32.203125 C 21.253906 -32.203125 25.015625 -30.625 28.109375 -27.46875 C 31.203125 -24.3125 32.75 -20.429688 32.75 -15.828125 C 32.75 -11.203125 31.226562 -7.3125 28.1875 -4.15625 C 25.144531 -1 21.359375 0.578125 16.828125 0.578125 C 12.203125 0.578125 8.382812 -0.984375 5.375 -4.109375 C 2.375 -7.242188 0.875 -11.148438 0.875 -15.828125 Z M 8.671875 -15.828125 C 8.671875 -14.171875 8.925781 -12.65625 9.4375 -11.28125 C 9.945312 -9.914062 10.835938 -8.757812 12.109375 -7.8125 C 13.390625 -6.875 14.960938 -6.40625 16.828125 -6.40625 C 19.515625 -6.40625 21.539062 -7.320312 22.90625 -9.15625 C 24.28125 -11 24.96875 -13.222656 24.96875 -15.828125 C 24.96875 -18.410156 24.269531 -20.628906 22.875 -22.484375 C 21.476562 -24.335938 19.460938 -25.265625 16.828125 -25.265625 C 14.222656 -25.265625 12.210938 -24.335938 10.796875 -22.484375 C 9.378906 -20.628906 8.671875 -18.410156 8.671875 -15.828125 Z M 8.671875 -15.828125 "/></g></g></g><g fill="#213949" fill-opacity="1"><g transform="translate(723.524897, 618.222762)"><g><path d="M 2.296875 -31.640625 L 13.609375 -31.640625 C 16.648438 -31.640625 19.128906 -30.828125 21.046875 -29.203125 C 22.960938 -27.578125 23.921875 -25.253906 23.921875 -22.234375 C 23.921875 -19.910156 23.335938 -17.960938 22.171875 -16.390625 C 21.015625 -14.816406 19.441406 -13.710938 17.453125 -13.078125 L 28.34375 0 L 19.171875 0 L 9.515625 -12.5 L 9.515625 0 L 2.296875 0 Z M 9.515625 -17.59375 L 10.359375 -17.59375 C 11.015625 -17.59375 11.570312 -17.601562 12.03125 -17.625 C 12.5 -17.65625 13.023438 -17.75 13.609375 -17.90625 C 14.203125 -18.0625 14.675781 -18.28125 15.03125 -18.5625 C 15.382812 -18.84375 15.6875 -19.25 15.9375 -19.78125 C 16.195312 -20.320312 16.328125 -20.972656 16.328125 -21.734375 C 16.328125 -22.503906 16.195312 -23.15625 15.9375 -23.6875 C 15.6875 -24.226562 15.382812 -24.640625 15.03125 -24.921875 C 14.675781 -25.203125 14.203125 -25.421875 13.609375 -25.578125 C 13.023438 -25.734375 12.5 -25.820312 12.03125 -25.84375 C 11.570312 -25.863281 11.015625 -25.875 10.359375 -25.875 L 9.515625 -25.875 Z M 9.515625 -17.59375 "/></g></g></g><g fill="#06a899" fill-opacity="1"><g transform="translate(142.027639, 671.094744)"><g><path d="M 39.75 -22.78125 L 39.75 -13.953125 C 38.695312 -9.117188 36.394531 -5.460938 32.84375 -2.984375 C 29.289062 -0.503906 25.328125 0.734375 20.953125 0.734375 C 15.460938 0.734375 10.785156 -1.316406 6.921875 -5.421875 C 3.066406 -9.535156 1.140625 -14.5 1.140625 -20.3125 C 1.140625 -26.226562 3.023438 -31.222656 6.796875 -35.296875 C 10.578125 -39.378906 15.296875 -41.421875 20.953125 -41.421875 C 27.566406 -41.421875 32.796875 -39.101562 36.640625 -34.46875 L 30.578125 -27.8125 C 28.398438 -31.300781 25.375 -33.046875 21.5 -33.046875 C 18.632812 -33.046875 16.191406 -31.800781 14.171875 -29.3125 C 12.148438 -26.832031 11.140625 -23.832031 11.140625 -20.3125 C 11.140625 -16.863281 12.148438 -13.914062 14.171875 -11.46875 C 16.191406 -9.019531 18.632812 -7.796875 21.5 -7.796875 C 23.863281 -7.796875 25.925781 -8.507812 27.6875 -9.9375 C 29.445312 -11.363281 30.328125 -13.257812 30.328125 -15.625 L 20.953125 -15.625 L 20.953125 -22.78125 Z M 39.75 -22.78125 "/></g></g></g><g fill="#06a899" fill-opacity="1"><g transform="translate(185.864713, 671.094744)"><g><path d="M 1.140625 -20.359375 C 1.140625 -26.242188 3.144531 -31.222656 7.15625 -35.296875 C 11.164062 -39.378906 15.992188 -41.421875 21.640625 -41.421875 C 27.328125 -41.421875 32.160156 -39.390625 36.140625 -35.328125 C 40.117188 -31.273438 42.109375 -26.285156 42.109375 -20.359375 C 42.109375 -14.410156 40.148438 -9.40625 36.234375 -5.34375 C 32.328125 -1.289062 27.460938 0.734375 21.640625 0.734375 C 15.691406 0.734375 10.785156 -1.273438 6.921875 -5.296875 C 3.066406 -9.328125 1.140625 -14.347656 1.140625 -20.359375 Z M 11.140625 -20.359375 C 11.140625 -18.222656 11.46875 -16.273438 12.125 -14.515625 C 12.78125 -12.765625 13.929688 -11.28125 15.578125 -10.0625 C 17.222656 -8.84375 19.242188 -8.234375 21.640625 -8.234375 C 25.097656 -8.234375 27.707031 -9.414062 29.46875 -11.78125 C 31.226562 -14.15625 32.109375 -17.015625 32.109375 -20.359375 C 32.109375 -23.679688 31.210938 -26.535156 29.421875 -28.921875 C 27.628906 -31.304688 25.035156 -32.5 21.640625 -32.5 C 18.296875 -32.5 15.707031 -31.304688 13.875 -28.921875 C 12.050781 -26.535156 11.140625 -23.679688 11.140625 -20.359375 Z M 11.140625 -20.359375 "/></g></g></g><g fill="#06a899" fill-opacity="1"><g transform="translate(232.068716, 671.094744)"><g><path d="M 2.953125 -40.6875 L 17.5 -40.6875 C 21.414062 -40.6875 24.601562 -39.640625 27.0625 -37.546875 C 29.53125 -35.460938 30.765625 -32.476562 30.765625 -28.59375 C 30.765625 -25.601562 30.015625 -23.097656 28.515625 -21.078125 C 27.023438 -19.054688 25 -17.632812 22.4375 -16.8125 L 36.4375 0 L 24.65625 0 L 12.234375 -16.078125 L 12.234375 0 L 2.953125 0 Z M 12.234375 -22.640625 L 13.3125 -22.640625 C 14.164062 -22.640625 14.890625 -22.65625 15.484375 -22.6875 C 16.078125 -22.71875 16.75 -22.832031 17.5 -23.03125 C 18.257812 -23.226562 18.867188 -23.503906 19.328125 -23.859375 C 19.785156 -24.222656 20.175781 -24.75 20.5 -25.4375 C 20.832031 -26.132812 21 -26.972656 21 -27.953125 C 21 -28.941406 20.832031 -29.78125 20.5 -30.46875 C 20.175781 -31.164062 19.785156 -31.691406 19.328125 -32.046875 C 18.867188 -32.410156 18.257812 -32.691406 17.5 -32.890625 C 16.75 -33.085938 16.078125 -33.203125 15.484375 -33.234375 C 14.890625 -33.265625 14.164062 -33.28125 13.3125 -33.28125 L 12.234375 -33.28125 Z M 12.234375 -22.640625 "/></g></g></g><g fill="#06a899" fill-opacity="1"><g transform="translate(270.333696, 671.094744)"><g><path d="M 2.953125 -40.6875 L 14.75 -40.6875 C 20.394531 -40.6875 25.222656 -38.753906 29.234375 -34.890625 C 33.253906 -31.023438 35.265625 -26.179688 35.265625 -20.359375 C 35.265625 -14.515625 33.265625 -9.660156 29.265625 -5.796875 C 25.273438 -1.929688 20.4375 0 14.75 0 L 2.953125 0 Z M 12.234375 -8.28125 L 13.65625 -8.28125 C 17.039062 -8.28125 19.8125 -9.421875 21.96875 -11.703125 C 24.125 -13.992188 25.21875 -16.863281 25.25 -20.3125 C 25.25 -23.769531 24.171875 -26.644531 22.015625 -28.9375 C 19.859375 -31.238281 17.070312 -32.390625 13.65625 -32.390625 L 12.234375 -32.390625 Z M 12.234375 -8.28125 "/></g></g></g><g fill="#06a899" fill-opacity="1"><g transform="translate(309.68352, 671.094744)"><g><path d="M 1.140625 -20.359375 C 1.140625 -26.242188 3.144531 -31.222656 7.15625 -35.296875 C 11.164062 -39.378906 15.992188 -41.421875 21.640625 -41.421875 C 27.328125 -41.421875 32.160156 -39.390625 36.140625 -35.328125 C 40.117188 -31.273438 42.109375 -26.285156 42.109375 -20.359375 C 42.109375 -14.410156 40.148438 -9.40625 36.234375 -5.34375 C 32.328125 -1.289062 27.460938 0.734375 21.640625 0.734375 C 15.691406 0.734375 10.785156 -1.273438 6.921875 -5.296875 C 3.066406 -9.328125 1.140625 -14.347656 1.140625 -20.359375 Z M 11.140625 -20.359375 C 11.140625 -18.222656 11.46875 -16.273438 12.125 -14.515625 C 12.78125 -12.765625 13.929688 -11.28125 15.578125 -10.0625 C 17.222656 -8.84375 19.242188 -8.234375 21.640625 -8.234375 C 25.097656 -8.234375 27.707031 -9.414062 29.46875 -11.78125 C 31.226562 -14.15625 32.109375 -17.015625 32.109375 -20.359375 C 32.109375 -23.679688 31.210938 -26.535156 29.421875 -28.921875 C 27.628906 -31.304688 25.035156 -32.5 21.640625 -32.5 C 18.296875 -32.5 15.707031 -31.304688 13.875 -28.921875 C 12.050781 -26.535156 11.140625 -23.679688 11.140625 -20.359375 Z M 11.140625 -20.359375 "/></g></g></g><g fill="#06a899" fill-opacity="1"><g transform="translate(355.887527, 671.094744)"><g><path d="M 12.234375 -25.25 L 12.234375 0 L 2.953125 0 L 2.953125 -40.6875 L 12.234375 -40.6875 L 28.40625 -15.4375 L 28.5 -15.4375 L 28.5 -40.6875 L 37.78125 -40.6875 L 37.78125 0 L 28.5 0 L 12.328125 -25.25 Z M 12.234375 -25.25 "/></g></g></g><g fill="#06a899" fill-opacity="1"><g transform="translate(399.576692, 671.094744)"><g/></g></g><g fill="#06a899" fill-opacity="1"><g transform="translate(415.997114, 671.094744)"><g><path d="M 24.609375 -8.390625 C 26.023438 -8.390625 27.394531 -8.601562 28.71875 -9.03125 C 30.050781 -9.457031 31.03125 -9.863281 31.65625 -10.25 L 32.59375 -10.890625 L 36.546875 -3.015625 C 36.410156 -2.910156 36.226562 -2.773438 36 -2.609375 C 35.769531 -2.441406 35.234375 -2.132812 34.390625 -1.6875 C 33.554688 -1.25 32.660156 -0.863281 31.703125 -0.53125 C 30.753906 -0.207031 29.503906 0.0820312 27.953125 0.34375 C 26.410156 0.601562 24.816406 0.734375 23.171875 0.734375 C 19.390625 0.734375 15.804688 -0.191406 12.421875 -2.046875 C 9.035156 -3.898438 6.304688 -6.453125 4.234375 -9.703125 C 2.171875 -12.960938 1.140625 -16.484375 1.140625 -20.265625 C 1.140625 -23.128906 1.742188 -25.875 2.953125 -28.5 C 4.171875 -31.132812 5.789062 -33.382812 7.8125 -35.25 C 9.832031 -37.125 12.191406 -38.617188 14.890625 -39.734375 C 17.585938 -40.859375 20.347656 -41.421875 23.171875 -41.421875 C 25.804688 -41.421875 28.234375 -41.109375 30.453125 -40.484375 C 32.671875 -39.859375 34.238281 -39.234375 35.15625 -38.609375 L 36.546875 -37.671875 L 32.59375 -29.78125 C 32.363281 -29.976562 32.019531 -30.21875 31.5625 -30.5 C 31.101562 -30.78125 30.179688 -31.148438 28.796875 -31.609375 C 27.421875 -32.066406 26.023438 -32.296875 24.609375 -32.296875 C 22.367188 -32.296875 20.359375 -31.929688 18.578125 -31.203125 C 16.804688 -30.484375 15.40625 -29.53125 14.375 -28.34375 C 13.34375 -27.164062 12.550781 -25.894531 12 -24.53125 C 11.457031 -23.164062 11.1875 -21.773438 11.1875 -20.359375 C 11.1875 -17.273438 12.34375 -14.507812 14.65625 -12.0625 C 16.976562 -9.613281 20.296875 -8.390625 24.609375 -8.390625 Z M 24.609375 -8.390625 "/></g></g></g><g fill="#06a899" fill-opacity="1"><g transform="translate(456.0866, 671.094744)"><g><path d="M 1.140625 -20.359375 C 1.140625 -26.242188 3.144531 -31.222656 7.15625 -35.296875 C 11.164062 -39.378906 15.992188 -41.421875 21.640625 -41.421875 C 27.328125 -41.421875 32.160156 -39.390625 36.140625 -35.328125 C 40.117188 -31.273438 42.109375 -26.285156 42.109375 -20.359375 C 42.109375 -14.410156 40.148438 -9.40625 36.234375 -5.34375 C 32.328125 -1.289062 27.460938 0.734375 21.640625 0.734375 C 15.691406 0.734375 10.785156 -1.273438 6.921875 -5.296875 C 3.066406 -9.328125 1.140625 -14.347656 1.140625 -20.359375 Z M 11.140625 -20.359375 C 11.140625 -18.222656 11.46875 -16.273438 12.125 -14.515625 C 12.78125 -12.765625 13.929688 -11.28125 15.578125 -10.0625 C 17.222656 -8.84375 19.242188 -8.234375 21.640625 -8.234375 C 25.097656 -8.234375 27.707031 -9.414062 29.46875 -11.78125 C 31.226562 -14.15625 32.109375 -17.015625 32.109375 -20.359375 C 32.109375 -23.679688 31.210938 -26.535156 29.421875 -28.921875 C 27.628906 -31.304688 25.035156 -32.5 21.640625 -32.5 C 18.296875 -32.5 15.707031 -31.304688 13.875 -28.921875 C 12.050781 -26.535156 11.140625 -23.679688 11.140625 -20.359375 Z M 11.140625 -20.359375 "/></g></g></g><g fill="#06a899" fill-opacity="1"><g transform="translate(502.290608, 671.094744)"><g><path d="M 12.234375 -40.6875 L 12.234375 -8.140625 L 26.234375 -8.140625 L 26.234375 0 L 2.953125 0 L 2.953125 -40.6875 Z M 12.234375 -40.6875 "/></g></g></g><g fill="#06a899" fill-opacity="1"><g transform="translate(533.109728, 671.094744)"><g><path d="M 12.234375 -40.6875 L 12.234375 -8.140625 L 26.234375 -8.140625 L 26.234375 0 L 2.953125 0 L 2.953125 -40.6875 Z M 12.234375 -40.6875 "/></g></g></g><g fill="#06a899" fill-opacity="1"><g transform="translate(563.928848, 671.094744)"><g><path d="M 26.234375 -40.6875 L 26.234375 -32.546875 L 12.234375 -32.546875 L 12.234375 -24.453125 L 25.640625 -24.453125 L 25.640625 -16.328125 L 12.234375 -16.328125 L 12.234375 -8.140625 L 26.234375 -8.140625 L 26.234375 0 L 2.953125 0 L 2.953125 -40.6875 Z M 26.234375 -40.6875 "/></g></g></g><g fill="#06a899" fill-opacity="1"><g transform="translate(595.487598, 671.094744)"><g><path d="M 39.75 -22.78125 L 39.75 -13.953125 C 38.695312 -9.117188 36.394531 -5.460938 32.84375 -2.984375 C 29.289062 -0.503906 25.328125 0.734375 20.953125 0.734375 C 15.460938 0.734375 10.785156 -1.316406 6.921875 -5.421875 C 3.066406 -9.535156 1.140625 -14.5 1.140625 -20.3125 C 1.140625 -26.226562 3.023438 -31.222656 6.796875 -35.296875 C 10.578125 -39.378906 15.296875 -41.421875 20.953125 -41.421875 C 27.566406 -41.421875 32.796875 -39.101562 36.640625 -34.46875 L 30.578125 -27.8125 C 28.398438 -31.300781 25.375 -33.046875 21.5 -33.046875 C 18.632812 -33.046875 16.191406 -31.800781 14.171875 -29.3125 C 12.148438 -26.832031 11.140625 -23.832031 11.140625 -20.3125 C 11.140625 -16.863281 12.148438 -13.914062 14.171875 -11.46875 C 16.191406 -9.019531 18.632812 -7.796875 21.5 -7.796875 C 23.863281 -7.796875 25.925781 -8.507812 27.6875 -9.9375 C 29.445312 -11.363281 30.328125 -13.257812 30.328125 -15.625 L 20.953125 -15.625 L 20.953125 -22.78125 Z M 39.75 -22.78125 "/></g></g></g><g fill="#06a899" fill-opacity="1"><g transform="translate(639.324676, 671.094744)"><g><path d="M 26.234375 -40.6875 L 26.234375 -32.546875 L 12.234375 -32.546875 L 12.234375 -24.453125 L 25.640625 -24.453125 L 25.640625 -16.328125 L 12.234375 -16.328125 L 12.234375 -8.140625 L 26.234375 -8.140625 L 26.234375 0 L 2.953125 0 L 2.953125 -40.6875 Z M 26.234375 -40.6875 "/></g></g></g></svg>