<?xml version="1.0" encoding="UTF-8"?>
<svg xmlns="http://www.w3.org/2000/svg" viewBox="0 0 166 129.92">
  <defs>
    <style>
      .cls-1 {
        fill: #3074fe;
      }

      .cls-1, .cls-2, .cls-3, .cls-4, .cls-5, .cls-6, .cls-7, .cls-8, .cls-9, .cls-10, .cls-11, .cls-12, .cls-13, .cls-14, .cls-15, .cls-16, .cls-17, .cls-18, .cls-19 {
        stroke-width: 0px;
      }

      .cls-2 {
        fill: #00114f;
      }

      .cls-3, .cls-19 {
        fill: #13217d;
      }

      .cls-4 {
        fill: #06a899;
      }

      .cls-5 {
        fill: #f88b7f;
      }

      .cls-20 {
        isolation: isolate;
      }

      .cls-6 {
        fill: #f8a786;
      }

      .cls-7 {
        fill: #92f1ff;
      }

      .cls-8 {
        fill: #ff525e;
      }

      .cls-9 {
        fill: #008e7d;
      }

      .cls-10, .cls-14 {
        fill: #aceadd;
      }

      .cls-10, .cls-19 {
        opacity: .5;
      }

      .cls-11 {
        fill: #55d3b9;
      }

      .cls-12 {
        fill: #54dde8;
      }

      .cls-13 {
        fill: #fff;
      }

      .cls-15 {
        fill: #88d8c5;
      }

      .cls-16 {
        fill: #213949;
      }

      .cls-17 {
        fill: #f78658;
      }

      .cls-18 {
        fill: #010340;
      }

      .cls-19 {
        mix-blend-mode: multiply;
      }
    </style>
  </defs>
  <g class="cls-20">
    <g id="Layer_2" data-name="Layer 2">
      <g id="Layer_1-2" data-name="Layer 1">
        <g>
          <g>
            <path class="cls-10" d="M72.21,114.7c-.4,5.06-2.24,8.12-7.5,8.79-5.25.67-7.37-3.98-7.82-6.36-.37-1.92-.9-9.54-.81-14.31.02-1,.05-5.02.09-10.73.15-21.44.41-66.82.41-66.82l14.82.05c.08,4.21.6,41.63.8,66.77.1,11.92.13,21.07,0,22.61Z"/>
            <path class="cls-14" d="M72.03,23.94l-15.69-.05c-.6,0-1.1.41-1.1.93,0,.51.49.93,1.09.93h.47s14.81.05,14.81.05h.41c.61,0,1.1-.41,1.1-.92,0-.51-.49-.93-1.09-.93Z"/>
            <path class="cls-11" d="M72.21,114.7c-.4,5.06-2.24,8.12-7.5,8.79-5.25.67-7.37-3.98-7.82-6.36-.37-1.92-.9-9.54-.81-14.31.02-1,.05-5.02.09-10.73h16.03c.1,11.92.13,21.07,0,22.61Z"/>
            <path class="cls-13" d="M58.48,103.38c-.08,0-.13-.06-.13-.14V29.94c0-.07.06-.14.13-.14s.13.06.13.14v73.3c0,.08-.06.14-.13.14Z"/>
          </g>
          <g>
            <path class="cls-4" d="M129.81,65.29c-.44.61-.85,1.16-1.2,1.64-.04.06-.09.13-.14.19-.13.17-.24.33-.35.47.65.34,3.06,1.41,7.45,1.29.12-.33.24-.64.36-.94.91-2.21,1.95-3.68,1.95-3.69h0c-2.77.65-5.63.93-8.08,1.04Z"/>
            <path class="cls-10" d="M125,40.81s13.59-7.25,21.21-7.76l-11.27,10.73s-11.49,1.3-13.8,2.63l3.86-5.6Z"/>
            <path class="cls-14" d="M151.98,32.74l-.31,1.94-.53,3.29s-7.42,9.25-10.48,12.84c-1.43,1.67-3.76,4.79-6.1,7.96-1.21.46-2.37.86-3.26,1.07-3.2.76-6.71,1.78-6.71,1.78,0,0-1.24,2.05-1.23,3.6,0,0,2.74.24,6.44.07-.36.49-.69.95-.99,1.36-.26.35-.49.67-.7.94-.07.09-.13.17-.19.25-2.48,3.29-5.44,6.93-5.44,6.93l-6.98-3.54-.39-.2s10.12-15.34,13.63-20.42c3.51-5.08,17.27-17.54,17.27-17.54,0,0,.27-.04.72-.09,1.09-.12,3.23-.32,5.25-.24Z"/>
            <path class="cls-15" d="M151.98,32.74l-.31,1.94c-1.71-.11-3.53-.55-4.91-1.67-.01,0-.02-.01-.03-.03,1.09-.12,3.23-.32,5.25-.24Z"/>
            <path class="cls-4" d="M157.39,34.91s-3.28,1.98-4.93,3.21c-.37.26-.62.47-.7.57-1.08,1.04-8.41,13.63-10.48,17.19,0,0-3.55,1.68-6.72,2.89,2.33-3.17,4.66-6.29,6.1-7.96,3.06-3.58,10.48-12.84,10.48-12.84l.54-3.42.29-1.81c2.25-.15,3.87.81,4.72,1.5.46.37.7.67.7.67Z"/>
            <path class="cls-9" d="M156.69,34.24c-1.4.32-3.38.54-5.01.31l.29-1.81c2.25-.15,3.87.81,4.72,1.5Z"/>
            <path class="cls-10" d="M151.77,3.09c-.27.48-29.42,41.62-32.17,45.52-2.76,3.9-6.6,10.5-7.38,12.3-.96,2.22-1.83,7.26,2.89,9.66,4.72,2.4,7.96.9,11.14-3.06,3.01-3.74,34.45-51.91,37.84-57.11l-12.22-8.37c.03.38.04.82-.1,1.07Z"/>
            <path class="cls-14" d="M118.27,48.91c.35-.53,1.17-1.38,1.74-1.35.1,0,.23.05.38.12l4.61-6.87s-9.49,4.88-7.42,10.62h0c-.17-1.07.35-2.02.69-2.53Z"/>
            <path class="cls-8" d="M121.69,46.81s2.97-.12,5.69,2.34c2.71,2.46,5.59,4.63,7.19,4.2,0,0-9.27,17.69-15.78,17.39-5.46-.25-6.59-4.81-6.33-7.14.36-3.18,9.24-16.79,9.24-16.79Z"/>
            <path class="cls-7" d="M157.39,34.92s-3.28,1.98-4.92,3.21c1.52-1.1,4.92-3.21,4.92-3.21Z"/>
            <path class="cls-4" d="M121.85,124.2c-.48-.24-2.09.21-3.84,1.01-.2.09-.41.19-.61.29-1.98.99-2.39,2.02-2.02,2.56.36.54,3.06-.27,4.5-1.04,1.44-.76,2.7-1.93,2.7-1.93l-.72-.9Z"/>
            <path class="cls-4" d="M149.61,126.36c-.15-.28-2.36,0-4.67.85-.5.18-1,.4-1.49.64-2.75,1.35-1.4,2.02-1.04,2.07.36.05,6.97-1.08,7.51-1.48.54-.41-.31-2.07-.31-2.07Z"/>
            <path class="cls-6" d="M124.6,61.62c-.09-.06-1.59-1.89-2.1-1.77-.51.12.42,1.32.42,1.32,0,0-2.72-1.41-3.02-1.2-.3.21,1.98,2.19,1.98,2.19,0,0-3.03-.93-3.09-.6-.06.33,2.7,1.56,2.7,1.56,0,0-2.4-.45-2.43,0-.03.45,2.04,1.05,2.04,1.05,0,0-1.8-.33-1.77.15.03.48,3.18.96,4.05.9,0,0,.09-.84.42-1.86.33-1.02.81-1.74.81-1.74Z"/>
            <path class="cls-6" d="M162.02,29.23c-.9.72-1.65.48-1.65.48-1.2,1.77-3.45,2.67-3.45,2.67-1.02,1.62-3.12,4.11-3.69,4.05-.57-.06-.69-.87-.33-1.86.07-.18.15-.38.24-.59.4-.9.93-1.9.93-1.9-.43-.11-1.35-.99-1.62-2.6-.1-.54-.12-1.16-.03-1.86.03-.26.08-.52.12-.77.44-2.46,1.41-4.61,2.37-5.47.76.38,1.3.57,1.95.7.33.09.67.15.99.17.11,0,.22.02.34.03,1.41.19,2.74,1.2,3,2.02.26.84.29,3.44.29,3.44.09-.24.21-.42.34-.55.13-.11.29-.19.51-.21.08.01.16.04.23.1.33.27.36,1.44-.54,2.16Z"/>
            <path class="cls-18" d="M163.44,23.22c-.11-2.14-.77-3.53-2.38-3.91-1.62-.38-3.15-.63-3.8-1.19-.65-.56-2.05-.85-3.15,0-1.1.85-.56,2.56.7,3.2.04.02.08.04.11.06.75.38,1.3.58,1.95.71.33.09.67.15.99.17.12,0,.23.02.34.03,1.41.19,2.74,1.2,3,2.02.26.84.29,3.44.29,3.44.09-.24.21-.42.34-.55.13-.11.29-.2.51-.21,0,0,0,0,.01,0,0,0,1.21-1.62,1.09-3.75Z"/>
            <path class="cls-14" d="M165.48,9.08L152.53.22c-.5-.34-1.14-.28-1.43.15-.29.42-.12,1.04.38,1.39l.39.27,12.22,8.37.34.23c.5.34,1.14.28,1.43-.15.29-.42.12-1.04-.38-1.39Z"/>
            <path class="cls-6" d="M120.4,47.67c-.15-.07-.29-.11-.38-.12-.57-.03-1.39.82-1.74,1.35-.34.51-.86,1.45-.69,2.53.02.13.05.25.09.38.39,1.23,1.05,2.67,1.41,2.43.36-.24-.3-2.66-.3-2.66,0,0,.75,2.12,1.23,1.88.48-.24-.21-2.88-.21-2.88,0,0,1.23,2.43,1.56,2.13.33-.3-.57-3.09-.57-3.09,0,0,1.26.81,1.44.03.15-.65-1.08-1.64-1.83-1.98Z"/>
            <path class="cls-3" d="M128.47,67.11c.04-.06.09-.13.14-.19-.05.06-.09.13-.14.19Z"/>
            <path class="cls-3" d="M135.93,67.94h0c-.12.3-.24.61-.36.94.12-.33.24-.64.36-.94Z"/>
            <path class="cls-16" d="M149.6,126.36c-.18-.27-2.38,0-4.67.86-1.24-1.4-11.33-12.75-14.49-17.85-3.38-5.44-3.24-9.13-2.79-13.72.45-4.59,1.98-19.88,1.98-19.88t0,0c-.23.22-7.54,7.11-9.76,10.03-2.25,2.97-5.17,7.38-5.17,8.91s2.16,5.98,4.14,11.56c1.98,5.58,3.01,17.95,3.01,17.95-.19-.09-.55-.08-1.02.01-.74.15-1.75.51-2.82,1-.86-1.95-6.55-14.93-8.17-17.97-1.75-3.28-4.5-10.39-4.68-11.29-.18-.9.54-4.68,2.88-10.25,1.85-4.41,4.96-10.02,6.56-12.86.42-.75.74-1.31.9-1.6h0s6.98,3.53,6.98,3.53c0,0,2.96-3.64,5.44-6.93.06-.08.13-.17.19-.25.02.01.04.02.06.03.73.37,3.09,1.36,7.27,1.26.04,0,.08,0,.12,0-.26.74-.5,1.54-.67,2.38-.81,3.96-.77,5.94-.77,5.94,0,0,2.27,1.96,7.71,3.2-.19.65-.44,1.51-.73,2.51-1.47,5.05-3.9,13.57-4.28,15.84-.54,3.28,2.75,8.68,4.54,12.1,1.77,3.36,8.03,15.14,8.23,15.51Z"/>
            <path class="cls-1" d="M128.12,67.59c.11-.15.23-.31.35-.47-.13.17-.24.33-.35.47Z"/>
            <path class="cls-17" d="M156.71,32.32s-1.18,1.93-3.57,1.66c.4-.9.93-1.9.93-1.9,0,0,.72.42,2.64.24Z"/>
            <path class="cls-5" d="M156.77,29.59c0-.76.62-1.38,1.38-1.38s1.38.62,1.38,1.38-.62,1.38-1.38,1.38-1.38-.62-1.38-1.38Z"/>
            <path class="cls-5" d="M153.78,28.16c0,.73-.59,1.32-1.32,1.32h0c-.1-.54-.12-1.16-.03-1.86.03-.26.08-.52.12-.77.69.04,1.24.62,1.24,1.32Z"/>
            <path class="cls-14" d="M159.64,51.42c-2.28,4.05-5.45,6.22-7.01,7.11-.59.34-.96.49-.96.49,0,0-.01.03-.04.09-.15.35-.75,1.68-1.43,3.36-.8,2-1.72,4.5-2.13,6.42-.81,3.79-2.34,12.18-2.34,12.18-1.45-.18-2.74-.41-3.9-.67-5.44-1.24-7.71-3.2-7.71-3.2,0,0-.05-1.98.77-5.94.17-.84.41-1.64.67-2.38.12-.33.24-.64.36-.94.27-.65.55-1.25.81-1.75.18-.35.35-.66.51-.93.35-.59.59-.95.63-1.01,0,0,0,0,0,0-.09.02-.18.04-.27.06,0,0-.02,0-.02,0-.36.08-.7.14-1.03.21-.2.04-.4.07-.6.11-.24.04-.48.08-.7.12-.13.02-.26.04-.38.06-.12.02-.23.04-.33.05-.1.02-.2.03-.31.05-.03,0-.06,0-.09.01-.14.02-.28.04-.42.05-.68.08-1.36.15-2.01.2-.66.05-1.3.09-1.9.12-3.7.17-6.44-.07-6.44-.07-.02-1.55,1.23-3.6,1.23-3.6,0,0,3.51-1.02,6.71-1.78.88-.21,2.04-.61,3.26-1.07h0c3.17-1.22,6.72-2.89,6.72-2.89,2.07-3.56,9.4-16.15,10.48-17.19.16-.15.41-.35.7-.57,1.52-1.1,4.93-3.21,4.93-3.21,1.03.36,3.01,2.97,3.68,4.91.68,1.93,1.71,6.03-1.44,11.6Z"/>
            <path class="cls-12" d="M137.59,64.32c-.36.08-.7.14-1.03.2.35-.07.69-.13,1.03-.2Z"/>
            <path class="cls-12" d="M135.26,64.75c.41-.07.84-.14,1.3-.23-.43.08-.87.16-1.3.23Z"/>
            <path class="cls-12" d="M134.24,64.91c.34-.04.68-.1,1.02-.16-.36.06-.71.11-1.02.16Z"/>
            <path class="cls-15" d="M151.63,59.11c-.15.35-.75,1.68-1.43,3.36-1.65,1.22-6.04,3.81-13.46,3.72.18-.35.35-.66.51-.93.35-.59.59-.95.63-1.01,3.75-.81,8.77-2.33,13.76-5.14Z"/>
            <path class="cls-19" d="M128.18,67.62l-5.47,8.36s-4.91-2.45-8.1-3.14c.42-.75.74-1.31.9-1.6h0s6.98,3.53,6.98,3.53c0,0,2.96-3.64,5.44-6.93.06-.08.13-.17.19-.25.02.01.04.02.06.03Z"/>
            <path class="cls-19" d="M141.84,80.4c-.19.65-.44,1.51-.73,2.51-4.34-.75-8.11-3.38-8.11-3.38.19-4.03,1.21-8.01,2.45-10.65.04,0,.08,0,.12,0-.26.74-.5,1.54-.67,2.38-.81,3.96-.77,5.94-.77,5.94,0,0,2.27,1.96,7.71,3.2Z"/>
            <path class="cls-19" d="M119.87,85.79c-2.25,2.97-5.17,7.38-5.17,8.91s2.16,5.98,4.14,11.56c1.98,5.58,3.01,17.95,3.01,17.95-.19-.09-.55-.08-1.02.01-.4-3.72-1.14-8.84-2.53-13.87-1.89-6.84-6.57-12.5-4.95-17.18,1.62-4.67,10.43-15.83,16.28-17.41-.23.22-7.54,7.11-9.76,10.03Z"/>
            <path class="cls-2" d="M155.81,32.48c-1.85,0-2.49-.84-2.52-.89-.03-.04-.02-.1.02-.12.04-.03.1-.02.12.02,0,.01.82,1.07,3.27.75.05,0,.09.03.1.08,0,.05-.03.09-.08.1-.33.04-.64.06-.92.06Z"/>
            <path class="cls-2" d="M160.97,28.99s-.05-.01-.07-.03c-.03-.04-.03-.09,0-.13.24-.21.82-.69.83-.69.04-.03.1-.03.13.01.03.04.03.1-.01.13,0,0-.58.48-.82.69-.02.02-.04.02-.06.02Z"/>
            <path class="cls-2" d="M154.93,28.51c-.11,0-.22-.01-.31-.04-.15-.05-.25-.13-.27-.24-.04-.18.25-.64.91-1.66.31-.47.63-.96.77-1.25.33-.65.13-.97-.33-1.33-.77-.59-1.69-.12-1.7-.11-.04.02-.1,0-.12-.04-.02-.05,0-.1.04-.12.04-.02,1.04-.53,1.9.13.5.39.76.8.39,1.55-.15.3-.46.77-.78,1.27-.38.58-.9,1.38-.89,1.52,0,.04.06.08.15.1.27.08.72.02.96-.21.04-.03.09-.03.13,0,.04.04.03.09,0,.13-.21.2-.54.29-.83.29Z"/>
            <path class="cls-2" d="M160.4,26.29s-.07-.02-.08-.05c-.51-1.15-2.14-.88-2.15-.88-.05,0-.1-.02-.11-.07,0-.05.03-.1.08-.1.02,0,1.78-.3,2.35.98.02.05,0,.1-.05.12-.01,0-.03,0-.04,0Z"/>
            <path class="cls-2" d="M155.22,30.38c-.57,0-1.04-.19-1.07-.2-.05-.02-.07-.07-.05-.12.02-.05.07-.07.12-.05,0,0,.8.31,1.54.12.05-.01.1.02.11.06.01.05-.01.1-.06.11-.2.05-.4.07-.59.07Z"/>
            <path class="cls-2" d="M132.83,58.86s-.02,0-.02,0l-1.23-.35s-.08-.06-.06-.11c.01-.05.06-.08.11-.06l1.17.34.74-.84c-.49-.27-1.02-.53-1.15-.55-.03.01-.06.01-.08,0-.04-.03-.06-.08-.03-.12.05-.08.11-.17,1.45.58.02.01.04.04.04.06,0,.03,0,.05-.02.08l-.85.96s-.04.03-.07.03Z"/>
            <path class="cls-2" d="M127.51,65.47c-2.21,0-4.12-.16-4.15-.17-.05,0-.09-.05-.08-.1,0-.05.05-.09.1-.08.04,0,3.8.32,6.88.06.21-.02.43-.03.66-.05,2.81-.23,7.28-.59,12.66-2.5,0-.04.05-.08.1-.07h.09c.71-.25,1.44-.53,2.19-.84.01,0,.03,0,.04,0l2.78.19s.05.02.07.04c.01.02.02.05.01.08l-.32,1.12s-.05.07-.09.07l-4.65-.45c-5.46,1.95-10,2.33-12.85,2.56-.23.02-.45.04-.66.05-.9.08-1.86.11-2.76.11ZM144.17,62.61l4.2.41.27-.95-2.65-.18c-.62.26-1.23.5-1.82.72Z"/>
            <path class="cls-2" d="M126.19,61.26s-.08-.03-.09-.07c-.01-.05.01-.1.06-.11,0,0,.05-.01.12-.03,2.13-.45,7.51-1.7,11.38-3.65.06-.03,5.49-2.45,7.8-3.4,2.17-.89,8.61-6.09,8.88-10.15,0-.05.04-.08.1-.08.05,0,.09.05.08.1-.16,2.41-2.4,5.01-3.72,6.34-1.97,1.99-4.15,3.5-5.27,3.96-2.31.95-7.74,3.37-7.79,3.39-3.89,1.96-9.28,3.22-11.42,3.67-.06.01-.1.02-.11.02,0,0-.01,0-.02,0Z"/>
            <path class="cls-2" d="M154.18,25.05c0-.22.18-.41.4-.41s.41.18.41.41-.18.4-.41.4-.4-.18-.4-.4Z"/>
            <path class="cls-2" d="M157.82,26.34c0-.22.18-.4.4-.4s.41.18.41.4-.18.4-.41.4-.4-.18-.4-.4Z"/>
            <path class="cls-14" d="M131.98,103.06s-.06-.02-.08-.05c-.02-.04,0-.1.03-.12.78-.43,1.52-2.01,1.53-2.03.02-.05.07-.06.12-.04.04.02.06.08.04.12-.03.07-.78,1.65-1.6,2.11-.01,0-.03.01-.04.01Z"/>
            <path class="cls-14" d="M108.58,96.04s-.08-.03-.09-.08c0-.05.03-.09.08-.1.66-.08,1.18-1.2,1.19-1.21.02-.05.08-.07.12-.04.04.02.06.07.04.12-.02.05-.57,1.22-1.33,1.31,0,0,0,0-.01,0Z"/>
            <path class="cls-13" d="M123.28,48.24s-.05,0-.08-.02c-.06-.04-.08-.13-.03-.19l28.84-41c.04-.06.13-.07.19-.03.06.04.08.13.03.19l-28.84,41s-.07.06-.11.06Z"/>
          </g>
          <g>
            <path class="cls-10" d="M48.52,114.61s0,.03,0,.05c0,.01,0,.03,0,.04-.41,5.06-2.24,8.12-7.5,8.79-5.25.67-7.37-3.98-7.82-6.36-.37-1.92-.9-9.54-.81-14.31v-.04c.02-1.06.05-5.04.09-10.69.04-5.82.09-13.41.14-21.37.13-21.36.27-45.44.27-45.44l14.81.05c.06,3.15.36,24.85.6,46.11.08,7.18.15,14.31.21,20.66.1,11.7.13,20.74.01,22.52Z"/>
            <path class="cls-14" d="M48.33,23.94l-15.69-.05c-.6,0-1.1.41-1.1.93,0,.51.49.93,1.09.93h.47s14.81.05,14.81.05h.41c.6,0,1.1-.41,1.1-.92,0-.51-.49-.93-1.09-.93Z"/>
            <path class="cls-4" d="M48.52,114.61s0,.03,0,.05c0,.01,0,.03,0,.04-.41,5.06-2.24,8.12-7.5,8.79-5.25.67-7.37-3.98-7.82-6.36-.37-1.92-.9-9.54-.81-14.31v-.04c.02-1.06.05-5.04.09-10.69.04-5.82.09-13.41.14-21.37l15.68.71c.08,7.18.15,14.31.21,20.66.1,11.7.13,20.74.01,22.52Z"/>
            <path class="cls-13" d="M34.78,103.38c-.08,0-.13-.06-.13-.14V29.94c0-.07.06-.14.13-.14s.13.06.13.14v73.3c0,.08-.06.14-.13.14Z"/>
          </g>
          <g>
            <path class="cls-10" d="M24.82,114.56s0,.04,0,.06c0,.02,0,.04,0,.05s0,.03,0,.04c-.41,5.06-2.24,8.12-7.49,8.79-5.25.67-7.37-3.98-7.82-6.36-.37-1.92-.9-9.54-.81-14.31v-.02c.02-1.03.05-5.03.09-10.71.04-5.3.08-12.07.13-19.25.14-21.86.28-47.56.28-47.56l14.82.05c.06,3.3.39,26.98.64,49.17.07,6.13.12,12.15.17,17.59.1,11.58.13,20.56.02,22.46Z"/>
            <path class="cls-14" d="M24.63,23.94l-15.69-.05c-.61,0-1.1.41-1.1.93,0,.51.49.93,1.09.93h.47s14.81.05,14.81.05h.41c.61,0,1.1-.41,1.1-.92,0-.51-.49-.93-1.09-.93Z"/>
            <path class="cls-16" d="M24.82,114.56s0,.04,0,.06c0,.02,0,.04,0,.05s0,.03,0,.04c-.41,5.06-2.24,8.12-7.49,8.79-5.25.67-7.37-3.98-7.82-6.36-.37-1.92-.9-9.54-.81-14.31v-.02c.02-1.03.05-5.03.09-10.71.04-5.3.08-12.07.13-19.25l15.74,1.66c.07,6.13.12,12.15.17,17.59.1,11.58.13,20.56.02,22.46Z"/>
            <path class="cls-13" d="M11.08,103.38c-.07,0-.13-.06-.13-.14V29.94c0-.07.06-.14.13-.14s.13.06.13.14v73.3c0,.08-.06.14-.13.14Z"/>
          </g>
          <path class="cls-16" d="M101.18,129.59c-.2,0-.36-.16-.36-.36v-46.83c0-.2.16-.36.36-.36s.36.16.36.36v46.83c0,.2-.16.36-.36.36Z"/>
          <path class="cls-16" d="M101.18,86.39c.3,0,.54-.24.54-.54s-.24-.54-.54-.54H1.08v-2.91c0-.3-.24-.54-.54-.54s-.54.24-.54.54v46.83c0,.3.24.54.54.54s.54-.24.54-.54v-12.55h100.1c.2,0,.36-.16.36-.36s-.16-.36-.36-.36H1.08v-29.57h100.1Z"/>
        </g>
      </g>
    </g>
  </g>
</svg>