<?xml version="1.0" encoding="UTF-8"?>
<svg id="Layer_2" data-name="Layer 2" xmlns="http://www.w3.org/2000/svg" xmlns:xlink="http://www.w3.org/1999/xlink" viewBox="0 0 132.85 192.92">
  <defs>
    <style>
      .cls-1 {
        fill: #3074fe;
      }

      .cls-1, .cls-2, .cls-3, .cls-4, .cls-5, .cls-6, .cls-7, .cls-8, .cls-9, .cls-10, .cls-11, .cls-12, .cls-13, .cls-14, .cls-15, .cls-16, .cls-17, .cls-18, .cls-19 {
        stroke-width: 0px;
      }

      .cls-2 {
        fill: #00114f;
      }

      .cls-3 {
        fill: url(#linear-gradient);
      }

      .cls-4 {
        fill: #06a899;
      }

      .cls-5 {
        fill: #f88b7f;
      }

      .cls-6 {
        fill: #1468ef;
      }

      .cls-7 {
        fill: #ff2238;
      }

      .cls-8 {
        fill: #f8a786;
      }

      .cls-9 {
        fill: #92f1ff;
      }

      .cls-10 {
        fill: #93e5d1;
      }

      .cls-11 {
        fill: #ff525e;
      }

      .cls-12 {
        fill: #55d3b9;
      }

      .cls-13 {
        fill: #54dde8;
      }

      .cls-14 {
        fill: #fff;
      }

      .cls-15 {
        fill: #5fa0ff;
      }

      .cls-16 {
        fill: #aceadd;
      }

      .cls-17 {
        fill: #213949;
      }

      .cls-18 {
        fill: #f78658;
      }

      .cls-19 {
        fill: #010340;
      }
    </style>
    <linearGradient id="linear-gradient" x1="101.78" y1="103.9" x2="101.44" y2="95.02" gradientUnits="userSpaceOnUse">
      <stop offset="0" stop-color="#18aa5d"/>
      <stop offset="1" stop-color="#5fc15d"/>
    </linearGradient>
  </defs>
  <g id="Layer_1-2" data-name="Layer 1">
    <g>
      <g>
        <path class="cls-4" d="M25.85,13.74s-.33.83-.77,2.25c-.54,1.71-1.26,4.27-1.81,7.3-1.01,5.57-1.33,12.4-1.33,12.4,0,0-1.04-.1-1.51-.24,0,0,.91-7.6,1.11-11.11.14-2.46,1.1-6.9,1.66-9.36.24-1.06.41-1.75.41-1.75l2.24.51Z"/>
        <path class="cls-6" d="M25.85,13.74s-.33.83-.77,2.25c-.85-.27-1.46-.66-1.87-1.02.24-1.06.41-1.75.41-1.75l2.24.51Z"/>
        <path class="cls-4" d="M19.4,41.94c-.05.23-.09.53-.14.89.65.01,1.4.02,2.1.03.02-.62.02-.98.02-.98-.66.25-1.97.05-1.97.05Z"/>
        <path class="cls-7" d="M21.35,42.87s0-.02,0-.03c-.68-.03-1.38-.06-2.08-.12,0,.04-.01.07-.02.11-.4,2.87-.96,9.58-1.39,15.16.7-4.22,1.4-8.2,1.74-8.2s.75,3.32,1.08,7.24c.05-1.23.11-2.45.19-3.59.3-4.34.44-8.69.48-10.57Z"/>
        <path class="cls-9" d="M12.05,41.71s0-.03,0-.03c0,0-.02,0,0,.03Z"/>
        <path class="cls-16" d="M38.44,34.55s-4-10.23-5.77-13.83c-1.43-2.89-2-3.91-2.9-4.65-.22-.18-.46-.34-.74-.51-.65-.39-1.37-.81-1.96-1.14-.1-.06-.19-.11-.29-.16-.55-.31-.92-.51-.92-.51,0,0-.33.83-.78,2.26-.08.26-.17.55-.26.85h0c-.04.13-.08.26-.11.39-.47,1.61-1,3.69-1.43,6.05-1.01,5.57-1.33,12.39-1.33,12.39,0,0-1.04-.1-1.51-.24,0,0,.91-7.6,1.11-11.11.11-1.97.75-5.2,1.28-7.67.02-.09.04-.19.06-.28.11-.52.22-1.01.32-1.43.24-1.04.4-1.73.4-1.73,0,0-.48-.03-1.27-.03h-.41c-3.26.02-10.33.43-12.72,3.63-2.32,3.11-4.51,10.79-4.25,14.18.12,1.59.39,3.05.98,4.35,0,0,0,0,0,0,.63,1.39,1.63,2.61,3.19,3.63.09.06.18.12.28.17,0,0-1.62,8.36-2.73,15.55-1.11,7.2-1.01,11.34-1.01,11.34,0,0,1.22.11,2.88.24,2.51.2,6.01.45,7.8.45.36,0,.66,0,.86-.03,0,0,.28-3.95.64-8.72.43-5.58.99-12.29,1.39-15.15,0-.04,0-.07.02-.11.04-.31.09-.58.13-.79,0,0,1.32.2,1.98-.05,0,0,0,.34-.02.95v.03c-.05,1.88-.18,6.23-.49,10.57-.08,1.14-.14,2.36-.19,3.59-.2,4.98-.16,10.03-.16,10.03,0,0,.22,0,.61-.01,1.31-.04,4.5-.15,7.48-.52,1.2-.15,2.37-.34,3.36-.58,0,0-1.06-24.57-1.11-27.75-.05-3.19-.05-8.76-.05-8.76,0,0,3.19,5.17,7.65,5.12Z"/>
        <path class="cls-11" d="M28.6,66.53c-.06.34-.13.73-.21,1.15-1.04,5.48-3.49,17.22-3.95,19.39-1.67.03-2.35.93-2.35.94-.21-.97-.99-4.85-1.16-8.59-.15-3.14.03-8.27.13-10.82.04-.95.07-1.55.07-1.55,1.31-.04,4.5-.15,7.48-.52Z"/>
        <path class="cls-11" d="M16.36,66.74c-.1.45-.22,1.08-.36,1.83-.99,5.29-2.93,16.91-3.2,18.52-.1-.01-.2-.02-.3-.02-1.42.03-2.41,1.17-2.41,1.17,0,0-1.06-4.31-1.11-9.57-.04-3.94-.25-8.9-.36-11.16-.03-.76-.06-1.22-.06-1.22,2.51.2,6.01.45,7.8.45Z"/>
        <path class="cls-4" d="M12.79,87.08c-.1-.01-.2-.02-.3-.02-1.42.03-2.41,1.17-2.41,1.17l4.68.15s-.73-1.16-1.96-1.3Z"/>
        <path class="cls-4" d="M24.44,87.07h0c-1.66.03-2.35.94-2.35.94l.07.55,4.96-.17s-1.01-1.35-2.68-1.32Z"/>
        <path class="cls-8" d="M29.17,34.9s3.09-1.82,3.24-1.52c.15.3-1.16,1.52-1.16,1.52,0,0,2.94-1.42,3.09-1.11.15.3-2.58,1.77-2.58,1.77,0,0,3.09-.81,3.24-.46.15.35-2.91,1.67-2.91,1.67,0,0,2.25-.15,2.41,0,.15.15-2.68,1.11-2.68,1.11,0,0,1.32.05,1.32.25s-4.71,1.62-4.71,1.62c0,0,.2-1.32.46-2.68.25-1.37.3-2.18.3-2.18Z"/>
        <path class="cls-8" d="M25.96,13.55c-.21.38-.54.94-.88,1.41-.41.56-.85.98-1.14.83-.54-.28-.27-2.13-.11-3.06.06-.32.11-.53.11-.53h0c.04.06.09.12.13.17.47.51,1.14.94,1.88,1.16Z"/>
        <path class="cls-8" d="M33.07,6.88c-.13.95-.77,2.76-1.86,4.31-.33.47-.71.92-1.13,1.31-.08.08-.15.15-.23.21-1.25,1.07-2.69,1.2-3.89.83-.75-.23-1.41-.65-1.88-1.16-.05-.05-.09-.11-.13-.17-1.07-1.4-.54-3.98-.54-3.98-.91-.54-.64-3.18,0-3.44.37-.16.66.08.82.37.06.1.12.58.12.58,0,0,1.31-1.39,3.21-1.5,1.9-.1,2.81.89,3.37,1.55.38.45,1.17,1.09,2.15,1.1Z"/>
        <path class="cls-19" d="M33.65,1.15c-1.29-1.14-4.84-1.87-7.19,0-2.35,1.87-2.24,4.01-2.24,4.01.09.17.14.35.14.48,0,.04,0,.07-.01.1,0,0,1.31-1.39,3.21-1.49,1.9-.1,2.81.89,3.37,1.54.38.45,1.17,1.09,2.15,1.11.47,0,.97-.13,1.5-.5,1.63-1.15.38-4.1-.91-5.24Z"/>
        <path class="cls-19" d="M24.34,5.73s.01-.06.01-.1c-.02.06-.01.1-.01.1Z"/>
        <path class="cls-19" d="M24.34,5.73s0-.03.01-.1c0-.13-.04-.31-.14-.48h0c.07.1.12.58.12.58Z"/>
        <path class="cls-7" d="M8.55,66.29c2.51.2,6.01.45,7.8.45-.1.45-.22,1.08-.36,1.83-3.13-.17-5.74-.61-7.39-1.07-.03-.76-.06-1.22-.06-1.22Z"/>
        <path class="cls-7" d="M28.6,66.53c-.06.34-.13.73-.21,1.15-2.5.53-4.98.81-7.33.92.04-.95.07-1.55.07-1.55,1.31-.04,4.5-.15,7.48-.52Z"/>
        <path class="cls-10" d="M21.94,13.19c1.03,0,1.68.03,1.68.03,0,0-.17.68-.4,1.73-.64-.57-1.03-1.22-1.27-1.76Z"/>
        <path class="cls-10" d="M29.76,16.07c-2.03.4-3.55.29-4.69-.08.45-1.43.78-2.26.78-2.26,0,0,1.75.96,3.17,1.82.28.17.52.33.74.51Z"/>
        <path class="cls-18" d="M25.96,13.55c-.21.38-.54.94-.88,1.41-.54-.51-.98-1.43-1.24-2.22.06-.32.11-.53.11-.53h0c.04.06.09.12.13.17.47.51,1.14.94,1.88,1.16Z"/>
        <path class="cls-10" d="M28.55,38.9l-.14.86s-9.84,5.67-19.27-.78c-1.56-1.01-2.56-2.23-3.19-3.63,2.34,2.23,9.48,8.59,22.6,3.54Z"/>
        <path class="cls-5" d="M23.9,9.35c0-.49.4-.89.89-.89s.89.4.89.89-.4.89-.89.89-.89-.4-.89-.89Z"/>
        <path class="cls-5" d="M31.21,11.2c-.33.47-.71.92-1.13,1.31-.28-.15-.46-.44-.46-.77,0-.49.4-.88.89-.88.29,0,.54.14.7.35Z"/>
        <path class="cls-2" d="M28.41,6.99s-.07-.02-.09-.05c-.75-1.39-2.43-.94-2.45-.94-.05.02-.11-.02-.12-.07-.02-.05.02-.11.07-.12.02,0,1.86-.49,2.68,1.04.03.05,0,.11-.04.14-.01,0-.03.01-.05.01Z"/>
        <path class="cls-2" d="M28.65,11.47c-.26,0-.58-.64-.81-1.2-.02-.05,0-.11.06-.13.05-.02.11,0,.13.06.22.55.51,1.05.62,1.07.16-.08.54-1.26.77-1.97l.11-.35c.31-.94.53-1.63,1.68-1.7,1.14-.07,1.24.53,1.24.56,0,.06-.03.11-.09.11-.05,0-.11-.03-.11-.08,0-.02-.09-.45-1.03-.39-.97.06-1.17.55-1.5,1.56l-.11.35c-.46,1.43-.69,2.04-.91,2.11-.01,0-.03,0-.04,0Z"/>
        <path class="cls-2" d="M27.94,12.45c-.73,0-1.29-.68-1.31-.71-.04-.04-.03-.11.02-.14.04-.04.11-.03.14.02,0,0,.52.63,1.15.63.06,0,.1.05.1.1s-.05.1-.1.1Z"/>
        <path class="cls-2" d="M23.61,6.99c-.06,0-.1-.05-.1-.1v-1.16c0-.06.05-.1.1-.1s.1.05.1.1v1.16c0,.06-.04.1-.1.1Z"/>
        <path class="cls-2" d="M22.89,16.39c-.02.09-.04.18-.06.28-.19-.29-.4-.56-.55-.57-.14-.02-.6.22-.94.4-.55.28-.79.4-.92.34-.05-.02-.07-.05-.09-.1-.06-.22,1-2.16,1.78-3.54h.23c-.71,1.26-1.69,3.05-1.8,3.44.14-.04.47-.21.7-.33.51-.26.85-.44,1.05-.42.21.02.42.26.59.5Z"/>
        <path class="cls-2" d="M27.81,17.57c-.03.13-.09.21-.17.26-.07.04-.14.06-.22.06-.39,0-.88-.46-1.29-.85-.2-.19-.39-.37-.5-.43-.14-.07-.52.21-.93.61.04-.13.08-.26.11-.39h0c.34-.29.69-.51.91-.4.14.07.33.25.55.46.39.37.98.93,1.27.76.03-.02.06-.07.08-.14.13-.56-.33-2.17-.84-3.27.09.05.19.1.29.16.47,1.09.89,2.57.74,3.16Z"/>
        <path class="cls-2" d="M22.98,35.7c-4.88,0-8.4-1.39-9.31-2.28-1.32-1.29-1.51-4.07-1.01-6.04.47-1.85,1.83-5.79,2.52-6.56.04-.04.1-.04.14,0,.04.04.04.1,0,.14-.66.73-2.02,4.69-2.48,6.47-.49,1.94-.27,4.65.95,5.84,1.25,1.22,7.47,3.38,15.42,1.48.06-.01.11.02.12.08.01.05-.02.11-.07.12-2.26.54-4.39.75-6.3.75Z"/>
        <path class="cls-2" d="M18.91,42.07c-.62,0-1.27-.02-1.95-.08-7.94-.62-10.71-5.61-11.53-7.73-.02-.05,0-.11.06-.13.05-.02.11,0,.13.06.81,2.08,3.53,6.98,11.36,7.6,7.07.55,11.34-2.08,11.38-2.11.05-.03.11-.02.14.03.03.05.02.11-.03.14-.01,0-1.1.69-3.05,1.29-1.47.45-3.7.93-6.51.93Z"/>
        <path class="cls-2" d="M16.21,42.97s0,0,0,0l-5.98-.49c-.05,0-.09-.05-.09-.1v-.89s.01-.06.03-.08c.02-.02.05-.03.08-.02l5.98.69c.05,0,.09.05.09.1v.69s-.01.06-.03.07c-.02.02-.04.03-.07.03ZM10.33,42.29l5.77.47v-.49l-5.77-.67v.69Z"/>
        <path class="cls-2" d="M24.53,43.51s-.05-.01-.07-.03c-.02-.02-.03-.05-.03-.07v-.88c0-.05.04-.1.1-.1l5.02-.36s.09.03.11.08l.22,1.03s0,.06-.02.08c-.02.02-.05.04-.08.04l-5.24.2h0ZM24.63,42.63v.68l5.01-.19-.18-.83-4.83.34Z"/>
        <path class="cls-2" d="M27.01,7.65c0-.23.18-.41.41-.41s.41.18.41.41-.18.41-.41.41-.41-.18-.41-.41Z"/>
        <path class="cls-2" d="M30.65,8.73c0-.23.19-.41.41-.41s.41.18.41.41-.18.41-.41.41-.41-.18-.41-.41Z"/>
        <g>
          <path class="cls-12" d="M.41,181.85s-.02,0-.02,0c-.22-.01-.39-.2-.38-.43L7.19,53.08c.01-.22.21-.39.43-.38.22.01.39.2.38.43L.81,181.47c-.01.22-.19.38-.4.38Z"/>
          <path class="cls-12" d="M27.11,181.85s-.01,0-.02,0c-.22-.01-.4-.2-.39-.42l6.28-128.35c.01-.22.2-.39.43-.38.22.01.4.2.38.42l-6.28,128.35c-.01.22-.19.39-.4.39Z"/>
          <path class="cls-12" d="M32.47,72.42H6.54c-.22,0-.41-.18-.41-.41s.18-.4.41-.4h25.93c.22,0,.4.18.4.4s-.18.41-.4.41Z"/>
          <path class="cls-12" d="M31.66,88.79H5.62c-.22,0-.4-.18-.4-.4s.18-.41.4-.41h26.04c.22,0,.41.18.41.41s-.18.4-.41.4Z"/>
          <path class="cls-12" d="M30.83,105.77H4.67c-.22,0-.41-.18-.41-.41s.18-.41.41-.41h26.17c.22,0,.41.18.41.41s-.18.41-.41.41Z"/>
          <path class="cls-12" d="M30.02,121.97H3.76c-.22,0-.41-.18-.41-.41s.18-.41.41-.41h26.26c.22,0,.41.18.41.41s-.18.41-.41.41Z"/>
          <path class="cls-12" d="M29.24,138.33H2.84c-.22,0-.4-.18-.4-.41s.18-.41.4-.41h26.4c.22,0,.41.18.41.41s-.18.41-.41.41Z"/>
          <path class="cls-12" d="M28.45,154.52H1.94c-.22,0-.4-.18-.4-.41s.18-.41.4-.41h26.51c.22,0,.41.18.41.41s-.18.41-.41.41Z"/>
          <path class="cls-12" d="M27.64,171.07H1.01c-.22,0-.41-.18-.41-.41s.18-.41.41-.41h26.63c.22,0,.41.18.41.41s-.18.41-.41.41Z"/>
        </g>
      </g>
      <polygon class="cls-4" points="93.75 75.57 102.34 89.43 104.84 88.27 98.11 73.41 93.75 75.57"/>
      <polygon class="cls-4" points="99.66 72.65 107.54 86.67 109.97 85.65 103.62 70.69 99.66 72.65"/>
      <polygon class="cls-4" points="80.03 82.47 86.42 92.47 88.68 91.52 84.81 80.34 80.03 82.47"/>
      <path class="cls-12" d="M88.36,143.96l-5.92-19.17c-1.53,1.73-4.68,3.53-5.86,3.8-1.64.24-8.66.84-17.32-4.68-9.93-6.33-13.23-17.33-14.86-23.95-1.62-6.62-.14-17.15,3.17-22.15,3.31-5,5.81-7.7,13.37-7.4l3.37.27-7.33-11.37s-6.11.41-10.5,4.12c-1.55,1.31-4.86,4.46-8.37,12.73-3.51,8.27-3.92,19.08-1.89,29.54,2.03,10.47,7.5,18.5,13.44,24.99,5.26,5.73,12.29,9.04,17.33,10.33h0c9.57,2.5,21.36,2.94,21.36,2.94Z"/>
      <path class="cls-12" d="M130.5,118.91c0,.11-.02.21-.05.31-.18.61-.88,1.18-1.99,1.68h0c-2.62,1.19-7.48,1.98-13.05,1.98s-10.44-.79-13.05-1.98c-1.3-.59-2.05-1.27-2.05-2,0-2.2,6.76-3.97,15.1-3.97s15.1,1.78,15.1,3.97Z"/>
      <polygon class="cls-19" points="41.02 35.86 43.42 38.71 55.34 31.42 53.5 28.25 41.02 35.86"/>
      <polygon class="cls-17" points="54.14 32.16 44.42 38.1 47.01 41.51 56.57 35.53 54.14 32.16"/>
      <path class="cls-17" d="M70.87,80.31c.34.02,33.36-16.14,33.36-16.14l-3.11-4.86-33.41,16.6,3.16,4.4Z"/>
      <polygon class="cls-19" points="70.87 80.31 72.36 82.75 105.11 66.29 104.23 64.18 70.87 80.31"/>
      <polygon class="cls-17" points="76.13 80.85 79.35 82.75 85.46 80.31 85.46 76.16 76.13 80.85"/>
      <polygon class="cls-17" points="89.14 74.31 92.62 76.16 104.57 70.25 104.23 66.73 89.14 74.31"/>
      <polygon class="cls-16" points="71.75 109.15 80.7 122.58 123.34 96.18 115.51 85.11 71.75 109.15"/>
      <polygon class="cls-17" points="78.2 109.01 82.44 116.24 119.15 95.51 113.82 89.16 78.2 109.01"/>
      <polygon class="cls-12" points="123.34 96.18 125.03 99.36 83.06 126.27 80.7 122.58 123.34 96.18"/>
      <path class="cls-17" d="M132.79,125.2c-.71,2.67-8.4,4.78-17.79,4.78-9.86,0-17.85-2.32-17.85-5.19v6.54h.06c.71,2.67,8.4,4.78,17.79,4.78,9.86,0,17.85-2.32,17.85-5.19,0-.14-.02-.27-.06-.41v-5.32Z"/>
      <path class="cls-4" d="M132.85,124.79c0,.14-.02.27-.06.41-.21.79-1.04,1.54-2.35,2.19h0c-3.09,1.55-8.85,2.59-15.43,2.59s-12.34-1.04-15.44-2.58c-1.54-.77-2.42-1.66-2.42-2.61,0-2.87,8-5.19,17.86-5.19s17.85,2.32,17.85,5.19Z"/>
      <path class="cls-12" d="M115.68,129.34c-.62-1.89-4.15-2.22-7.66-.81-3.51,1.42-9.93,3.24-12.09,3.24s-3.65-2.7,1.22-5.5c0,0-.11-1.87.56-2.77,0,0-6.41,3.65-10.21,7.94-3.8,4.29-1.97,6.96,1.75,8.37,3.72,1.42,12.02,1.28,19.25-2.23,7.23-3.51,8.04-5.67,7.19-8.24Z"/>
      <rect class="cls-17" x="54.19" y="172.42" width="76.78" height="9.02"/>
      <polygon class="cls-12" points="54.19 172.42 57.63 164.05 128.67 164.05 130.97 172.42 54.19 172.42"/>
      <path class="cls-4" d="M72.15,135.13c-2.68,3.16-7.83,9.95-10.06,16.12-2.23,6.18-3.38,11.04-3.17,12.8h34.37s-10.46-11.28-10.53-18.43c-.07-7.16-2.91-19.55-10.61-10.49Z"/>
      <path class="cls-17" d="M130.45,119.22c-.6,2.05-7.11,3.66-15.05,3.66-8.34,0-15.1-1.78-15.1-3.97v5.01h.05c.6,2.05,7.11,3.66,15.05,3.66,8.34,0,15.1-1.78,15.1-3.97,0-.1-.02-.21-.05-.31v-4.08Z"/>
      <path class="cls-16" d="M129.18,119.64c0,.44-.25.87-.72,1.27h0c-2.62,1.19-7.48,1.98-13.05,1.98s-10.44-.79-13.05-1.98c-.47-.4-.72-.83-.72-1.27,0-2.2,6.17-3.97,13.78-3.97s13.78,1.78,13.78,3.97Z"/>
      <path class="cls-4" d="M34.34,11.68c-4.59,2.6-6.51,6.22-6.51,6.22,6.79-2.12,14-7.66,14-7.66,0,0-2.9-1.16-7.5,1.44Z"/>
      <path class="cls-17" d="M54.93,27.37l-1.35.82-.26.16-2.56,1.56-.26.15-2.2,1.34-.26.16-2.83,1.73-.26.16-2.45,1.49-.26.16-2.37,1.45-11.28-15.77s.21-.12.59-.33c.54-.3,1.4-.79,2.46-1.4.09-.05.17-.1.27-.15.81-.47,1.72-.98,2.68-1.53.09-.05.18-.1.27-.15.99-.56,2.02-1.15,3.02-1.73.09-.05.18-.1.27-.15,1-.58,1.98-1.13,2.85-1.64.09-.05.18-.1.26-.15.71-.41,1.35-.79,1.89-1.1.06-.03.11-.06.17-.1.03-.02.07-.04.1-.06.45-.27.81-.49,1.05-.63l10.47,15.7Z"/>
      <path class="cls-17" d="M41.83,10.24s-7.21,5.54-14,7.66l1.35,2.56c2.3-1.3,10.72-6.08,14.14-8.09l-1.49-2.13Z"/>
      <path class="cls-4" d="M79.55,64.98l1.04,1.56s0-.01.01-.02l-21.95-32.29-2.08,1.3-9.55,5.98-1.06.66,20.94,32.51c9.12-2.9,12.66-9.71,12.66-9.71Z"/>
      <path class="cls-1" d="M67.43,75.52s.01,0,.03-.01l-.57-.82.54.83Z"/>
      <path class="cls-12" d="M80.58,66.54l-1.04-1.56s-3.54,6.8-12.66,9.71h0l.57.82,2.45,3.54s8.71.48,12.96-9.05l-2.29-3.46Z"/>
      <path class="cls-17" d="M40.48,54.69c0-6.17,5.01-11.18,11.18-11.18s11.18,5,11.18,11.18-5.01,11.18-11.18,11.18-11.18-5-11.18-11.18Z"/>
      <path class="cls-4" d="M43.42,54.69c0-4.55,3.69-8.24,8.24-8.24s8.24,3.69,8.24,8.24-3.69,8.24-8.24,8.24-8.24-3.69-8.24-8.24Z"/>
      <g>
        <path class="cls-17" d="M58.35,67.06c0-2,1.62-3.63,3.63-3.63s3.63,1.62,3.63,3.63-1.62,3.63-3.63,3.63-3.63-1.62-3.63-3.63Z"/>
        <path class="cls-12" d="M60.17,67.06c0-1,.81-1.8,1.81-1.8s1.8.81,1.8,1.8-.81,1.8-1.8,1.8-1.81-.81-1.81-1.8Z"/>
      </g>
      <path class="cls-14" d="M98.68,111.38s-.09-.02-.12-.05l-8.41-10.16c-.05-.06-.04-.16.02-.21.06-.05.16-.04.21.02l8.41,10.16c.05.07.04.16-.02.21-.03.02-.06.04-.1.04Z"/>
      <path class="cls-14" d="M114.99,99.27s-.09-.02-.12-.06l-6.98-8.81c-.05-.07-.04-.16.02-.21.07-.05.16-.04.21.02l6.98,8.81c.05.07.04.16-.02.21-.03.02-.06.03-.09.03Z"/>
      <path class="cls-14" d="M77.29,66.02s-.1-.02-.13-.07l-19.45-29.04c-.05-.07-.03-.16.04-.21.07-.05.16-.03.21.04l19.45,29.04c.05.07.03.16-.04.21-.03.02-.06.03-.08.03Z"/>
      <g>
        <path class="cls-4" d="M53.59,28.2l-.26.16-10.17-15.89c.06-.03.11-.06.17-.1.03-.02.07-.04.1-.06l10.17,15.89Z"/>
        <path class="cls-4" d="M50.76,29.92l-.26.15-9.5-16.36c.09-.05.18-.1.26-.15l9.5,16.36Z"/>
        <path class="cls-4" d="M48.31,31.41l-.26.16-10.17-16.07c.09-.05.18-.1.27-.15l10.16,16.07Z"/>
        <path class="cls-4" d="M45.22,33.3l-.26.16-10.36-16.07c.09-.05.18-.1.27-.15l10.36,16.07Z"/>
        <path class="cls-4" d="M42.51,34.95l-.26.16-10.6-16.05c.09-.05.17-.1.27-.15l10.59,16.04Z"/>
      </g>
      <path class="cls-4" d="M111.13,130.69c0-.88.71-1.59,1.59-1.59s1.59.71,1.59,1.59-.71,1.59-1.59,1.59-1.59-.71-1.59-1.59Z"/>
      <path class="cls-11" d="M122.87,158.51c-2.46-1.75-5.84-4.25-16.17-4.45-1.99.08-7.52.26-10.34-.21-2.33-.38-4.02-.59-5.7-1.69-.04-.03-.09-.06-.13-.09l-6.66.81c-.07.11-.14.23-.21.33-.29.43-.59.79-.59.79-.91.14-2.8.03-2.8.03.54,1.25,3.99,2.93,6.82,4.52,1.73.96,3.02,2.59,3.78,3.71.49.73.75,1.25.75,1.25.43.62.76,1.37,1.02,2.17,1.75.32,9.47.64,11.34.77,0,0-.44,3.21,1.56,7.29,1.99,4.08,5.47,8.47,5.47,8.47l-.04.34-.61,5.47s1.89.81,2.77,1.35c.26.16.4.25.49.31l1.37-2.81s3.58,4.25,4.15,4.66c0,0,.28.03.7.04.78.03,2.05,0,2.78-.45l-4.62-11.18s4.76-10.03,5.5-12.49c.74-2.47,1.86-7.19-.61-8.95ZM113.38,164.15c2.57.81,2.75,1.27,2.75,1.27-.83.86-1.39,2.41-1.74,3.69,0,.01-.01.02-.01.04-.3,1.14-.43,2.05-.43,2.05,0,0-.94-2.45-2.26-4.49-1.28-1.98-2.78-3.84-2.87-3.96.12.03,2.07.63,4.55,1.41Z"/>
      <path class="cls-7" d="M119.82,191.58c-.42-.01-.7-.04-.7-.04-.57-.4-4.15-4.66-4.15-4.66,0,0-2.18-2.33-4.02-4.32l.04-.34s-3.48-4.39-5.47-8.47c-1.99-4.09-1.56-7.29-1.56-7.29-1.87-.13-9.59-.45-11.34-.77-.26-.8-.6-1.56-1.02-2.17,0,0-.26-.52-.75-1.25,4.29,1.81,10.76,2.68,14.18,2.77,0,0-.68,3.21,2.03,8.54,2.29,4.52,10.35,14.93,12.76,18.01Z"/>
      <path class="cls-7" d="M118.21,164.66s-3.2,2.89-3.81,4.45c.34-1.28.9-2.83,1.74-3.69,0,0-.19-.46-2.75-1.27-2.48-.79-4.43-1.38-4.55-1.41h0c-.74-.78-1.62-1.73-1.62-1.73,0,0,7.27,1.15,9.34,1.96,2.07.81,1.67,1.69,1.67,1.69Z"/>
      <path class="cls-1" d="M113.6,189.68v.03s.18.1,0-.03Z"/>
      <path class="cls-16" d="M92.62,165.68c-.26-.8-.6-1.56-1.02-2.17,0,0-1.69-3.38-4.52-4.96-2.84-1.59-6.28-3.27-6.82-4.52,0,0,1.89.11,2.8-.03v-.02c.06-.06.22-.26.41-.52.06-.08.12-.16.18-.25.07-.11.15-.22.21-.33.18-.3.32-.6.34-.81l-5.06-2.63s-.81-6.86-.54-11.18c.15-2.36.51-6.84.8-10.4h0c.02-.21.03-.41.05-.6h0c.22-2.67.4-4.69.4-4.69-.02,0-.04,0-.07,0-.12,0-.26-.02-.44-.04-.07,0-.15-.01-.23-.02-2.26-.17-7.95-.32-10.67,3.05-3.11,3.85-6.35,10.87-6.96,14.86-.32,2.12-.05,4.64,1.52,6.81,0,0,0,0,0,0,1.38,1.91,3.78,3.54,7.66,4.39,0,0-.04.27-.07.73,0,.07,0,.13-.01.2-.02.38-.04.86-.03,1.4v.2c.04,2.08.43,5.03,2,7.18,2.7,3.71,6.96,6.28,10.5,7.09,3.55.81,8.68,2.43,10.5,3.65,0,0,0-3.51-.94-6.4ZM70.4,143.96h0c-.08-.1-1.29-1.58-1.52-3.31-.16-1.19.57-2.54,1.07-3.32.25-.39.45-.63.45-.63,0,0-.03,1.65,0,3.31.03,1.65,0,3.95,0,3.95Z"/>
      <path class="cls-16" d="M93.39,149.22s-.02,0-.03,0c-.1.03-1.28.54-2.07.89l.41.89,2.15-1.11c-.18-.21-.34-.45-.47-.68ZM93.39,149.22s-.02,0-.03,0c-.1.03-1.28.54-2.07.89l.41.89,2.15-1.11c-.18-.21-.34-.45-.47-.68ZM103.45,146.76c-2.23-1.21-6.58-3.17-7.6-6.72-1.01-3.55-1.69-9.83-3.41-12.26-.86-1.22-2.59-2.29-4.37-3.11-1.16-.53-2.33-.95-3.31-1.22-.09-.03-.17-.05-.26-.07-.41-.11-.78-.2-1.08-.25,0,0,0,.52.02,1.37.02.9.04,2.17.06,3.61,0,.14,0,.28,0,.42.04,2.29.1,4.94.16,7.19.15,5.2,1.67,10.64,4.4,14.01.86,1.06,1.65,1.79,2.44,2.33.04.03.09.06.13.09,1.68,1.1,3.37,1.31,5.7,1.69,2.82.47,8.34.29,10.34.21.47-.02.72.02.72.02,0,0,.75-.89,1.31-1.43.56-.55,2.12-2.1,2.12-2.1,0,0-5.17-2.57-7.39-3.79ZM94.64,150.55c-.23-.11-.45-.28-.64-.49-.05-.05-.09-.1-.14-.16-.18-.21-.34-.45-.47-.68-.04-.06-.07-.12-.1-.18-.22-.41-.35-.75-.37-.79.03.03.2.18.57.43h0c.15.1.34.22.57.36.26.15.58.33.95.51,1.59.8,2.94,1.26,2.94,1.26,0,0-2.26.2-3.31-.27ZM93.39,149.22s-.02,0-.03,0c-.1.03-1.28.54-2.07.89l.41.89,2.15-1.11c-.18-.21-.34-.45-.47-.68Z"/>
      <path class="cls-17" d="M110.34,188.02c-.65-.1-.68,1.86,1.22,3,1.89,1.15,4.63,1.76,4.96,1.21.34-.54-4.25-3.92-6.18-4.22Z"/>
      <path class="cls-17" d="M119.12,191.53c.1.3.37.95,2.7,1.21,2.33.27,4.73.26,4.79-.31.07-.57-2.37-1.45-4.09-1.48,0,0-3.54.19-3.41.57Z"/>
      <path class="cls-17" d="M90.66,152.16c-.43.24-1.44.72-2.91,1.02-.86.17-2.51.13-4.11.03.27-.39.53-.84.56-1.15l-5.06-2.63s-.81-6.86-.54-11.18c.15-2.36.51-6.83.8-10.39,0-.1.02-.21.02-.31h0c.23-2.82.42-4.99.42-4.99-.02,0-.04,0-.07,0,.32,0,.62,0,.92.03-.17,1.47-.32,3.19.03,3.68.04.06.09.11.15.13,0,0,.01,0,.02,0,.13.04.26-.07.41-.26.04-.05.08-.11.12-.17.44-.71.91-2.12,1.21-3.07.49.12.8.23.8.23,0,0,.03,2.05.08,4.74,0,.09,0,.19,0,.28h0c.04,2.38.11,5.2.17,7.57.15,5.2,1.67,10.64,4.4,14.01.9,1.11,1.73,1.88,2.57,2.42Z"/>
      <path class="cls-8" d="M89,116.11c-.19.94-.58,2.08-1.01,3.03-.25.54-.5,1.03-.75,1.39-.12.17-.24.34-.39.49-.93,1.04-2.39,1.79-4.1,1.46-.32-.06-.65-.15-.98-.3-.37-.16-.68-.37-.94-.62-1.45-1.34-1.49-3.7-1.49-3.7-.88-.03-1.55-2.73-.74-3.07.39-.16.65-.12.83.05.02.02.04.05.06.07.15.2.21.51.2.9,0,0,.22-.41.69-1.17.21-.32.46-.65.74-.95.32-.35.69-.65,1.02-.81.04-.02.07-.03.11-.04.07-.03.13-.05.19-.07h0c.58-.12,1.35.2,2.21.78.11.09.21.16.32.23.02.02.04.03.06.04.54.4,1.03.55,1.48.55.38,0,.74-.11,1.06-.25.39-.11.64-.24.85-.25.19.02.35.12.52.37,0,0,0,0,0,.01.29.45.13,1.51.06,1.87Z"/>
      <path class="cls-19" d="M79.43,114.84s.04.04.06.06c-.02-.02-.04-.04-.06-.06Z"/>
      <path class="cls-19" d="M82.24,112.83c.07-.03.13-.05.19-.07-.06.02-.13.04-.19.07Z"/>
      <path class="cls-19" d="M82.13,112.87c-.18.09-.37.2-.56.36-.16.13-.31.29-.46.45.33-.35.69-.65,1.02-.81Z"/>
      <path class="cls-11" d="M86.55,108.97c-2.51-.86-4.51.1-5.85,2.15-1.34,2.05-1.3,3.68-1.3,3.68.01,0,.02.02.03.03.02.02.04.04.06.06.29.35.2.9.2.9,0,0,.22-.41.69-1.17,0,0,0,0,0,0,.19-.3.45-.64.74-.94.15-.16.3-.31.46-.45.19-.16.37-.28.56-.36.04-.02.07-.03.11-.04.06-.03.13-.05.19-.07,0,0,0,0,0,0h0c.58-.12,1.35.2,2.21.78.11.07.22.15.32.23.02.02.04.03.06.04,1.01.75,1.85.6,2.54.29h0c.39-.11.64-.24.85-.25.19.02.35.12.52.38,0,0,0,0,0,0,0,0,0,0,0,0,.29.46.13,1.51.06,1.87-.02.08-.03.13-.03.13,0,0,.64-1.04.77-2.53.13-1.49-.68-3.87-3.19-4.73Z"/>
      <polygon class="cls-17" points="104.43 157.74 119.76 144.91 128.67 152.02 112.16 165.03 104.43 157.74"/>
      <polygon class="cls-16" points="108.01 155.78 114.83 161.86 127.16 152.2 126.41 151.32 125.64 151.69 120.6 147.26 120.98 146.73 119.79 145.88 108.01 155.78"/>
      <path class="cls-8" d="M110.85,150.54s1.15-.1,1.69.41l-.91.76s1,1.54.77,1.91c-.24.37-1.68-1.14-1.68-1.14l-1.56,1.31s-.71-.06-1.15-.4c0,0,.64-.68,1.35-1.36.8-.76,1.49-1.48,1.49-1.48Z"/>
      <g>
        <path class="cls-8" d="M82.76,122.48c-.04.13-.08.27-.13.42-.09.3-.21.66-.33,1.02-.43,1.24-1,2.6-1.4,2.48-.52-.14-.41-1.92-.23-3.51.01-.1.02-.2.04-.3.04-.36.09-.71.13-1.02.26.25.58.46.94.62.34.14.66.24.98.3Z"/>
        <path class="cls-18" d="M82.76,122.48c-.04.13-.08.27-.13.42-.09.3-.21.66-.33,1.02-.56-.25-1.18-.6-1.64-1.03.01-.1.02-.2.04-.3.04-.36.09-.71.13-1.02.26.25.58.46.94.62.34.14.66.24.98.3Z"/>
      </g>
      <path class="cls-8" d="M84.21,152.06c.3,0,2.36-.17,2.43.17.07.34-.98.51-.98.51,0,0,1.96.78,1.92,1.15-.03.37-1.49-.2-1.49-.2,0,0,1.76,1.18,1.66,1.49-.1.3-2.13-.74-2.13-.74,0,0,1.52,1.05,1.42,1.45-.1.41-1.64-.78-1.64-.78,0,0,.56.52.35.87-.2.35-2.03-.95-2.7-1.97,0,0,.3-.48.68-.99.37-.51.47-.95.47-.95Z"/>
      <path class="cls-13" d="M88.08,124.68c-1.79.53-3.33.33-4.62-.17-.01-.86-.02-1.37-.02-1.37,1.06.19,2.88.74,4.64,1.55Z"/>
      <path class="cls-10" d="M71.26,144.65c-.4-.2-.86-.69-.86-.69,0,0,.03-2.3,0-3.95-.03-1.66,0-3.31,0-3.31,0,0-.2.24-.45.63.36-.74.88-1.24.88-1.24.08,1.21.43,8.56.43,8.56Z"/>
      <path class="cls-10" d="M83.54,153.47l-.47.52v.02s-2.82.03-2.82.03c0,0-6.53-1.46-9.59-2.4-3.88-.85-6.28-2.48-7.66-4.39,1.3.98,4.15,2.8,8.7,4.1,5.95,1.7,11.09,2.08,11.75,2.13.05,0,.07,0,.07,0Z"/>
      <path class="cls-5" d="M81.9,118.24c0,.61-.49,1.1-1.1,1.1s-1.1-.49-1.1-1.1.49-1.1,1.1-1.1,1.1.49,1.1,1.1Z"/>
      <path class="cls-5" d="M87.99,119.14c-.25.54-.5,1.03-.75,1.39-.12.17-.24.34-.39.49-.38-.17-.65-.56-.65-1.01,0-.61.49-1.1,1.11-1.1.26,0,.49.09.68.23Z"/>
      <path class="cls-2" d="M79.24,117.24s-.09-.04-.1-.09c-.1-.7-.43-1.5-.43-1.51-.02-.05,0-.11.05-.13.05-.02.11,0,.13.05.02.03.35.84.45,1.56,0,.06-.03.11-.09.12,0,0,0,0-.01,0Z"/>
      <path class="cls-2" d="M84.41,115.9s-.06-.01-.08-.04c-.89-1.24-2.64-.6-2.65-.59-.05.02-.11,0-.13-.06-.02-.05,0-.11.06-.13.02,0,1.91-.7,2.89.66.03.05.02.11-.02.14-.02.01-.04.02-.06.02Z"/>
      <path class="cls-2" d="M85.75,120.33c-.08,0-.3-.12-1.25-1.35-.03-.04-.03-.11.02-.14.04-.03.11-.03.14.02.4.52.86,1.07,1.05,1.23.03-.17.06-.58.08-.95.03-.47.05-1,.11-1.5.13-1.15.24-1.71,1.18-1.93.94-.22,1.27.48,1.27.49.02.05,0,.11-.05.13-.05.02-.11,0-.13-.05-.01-.03-.27-.56-1.04-.38-.78.18-.89.58-1.03,1.76-.06.49-.09,1.02-.11,1.49-.05.96-.07,1.14-.21,1.17,0,0-.02,0-.03,0Z"/>
      <path class="cls-2" d="M84.65,121.2c-.68,0-1.23-.27-1.26-.28-.05-.02-.07-.09-.05-.14.02-.05.09-.07.14-.05,0,0,.89.42,1.75.18.05-.02.11.02.12.07.02.05-.02.11-.07.12-.22.06-.43.08-.63.08Z"/>
      <path class="cls-2" d="M79.45,127.25h0c-.02.2-.03.4-.05.6l-.45-1.68c-.38.14-1.54.55-1.92.33-.03-.02-.07-.05-.08-.12-.11-.47,1.46-2.84,2.16-3.87.08,0,.16.01.23.02-1.18,1.73-2.29,3.56-2.2,3.81.25.14,1.26-.17,1.84-.4.03,0,.06,0,.08,0,.03.02.04.04.05.06l.33,1.24Z"/>
      <path class="cls-2" d="M86.32,127.7s-.05.06-.09.07c-.24.04-.66-.22-1.18-.56-.18-.12-.36-.23-.45-.27-.14,0-.64.73-1.08,1.6,0-.14,0-.28,0-.42.36-.68.88-1.5,1.17-1.36.11.05.28.16.47.29.31.2.77.5.98.53-.02-.38-.8-2.3-1.63-4.19.08.02.17.04.26.07.69,1.57,1.71,3.97,1.55,4.25Z"/>
      <path class="cls-15" d="M80.88,126.4l-1.48,1.46c0-.1.02-.21.02-.31h0s1.3-1.28,1.3-1.28c.04.06.09.11.15.13Z"/>
      <path class="cls-15" d="M83.52,128.15c-.7-.68-1.73-1.59-2.21-2.01.04-.05.08-.11.12-.17.44.39,1.38,1.23,2.09,1.9,0,.09,0,.19,0,.28Z"/>
      <path class="cls-2" d="M68.97,139.57s-.01,0-.02,0c-.06,0-.09-.06-.08-.12.18-1,.7-1.86,1.46-2.93.75-1.04,2.99-5.73,3.01-5.77.02-.05.08-.07.14-.05.05.02.07.09.05.14-.09.19-2.27,4.75-3.03,5.8-.75,1.05-1.25,1.89-1.43,2.85,0,.05-.05.08-.1.08Z"/>
      <path class="cls-2" d="M81.11,150.56s-.02,0-.04,0c-1.66-.63-4.95-2.29-7.05-3.46-1.7-.95-3.01-2.02-3.88-3.17-.03-.04-.02-.11.02-.14.04-.03.11-.02.14.02.86,1.13,2.14,2.17,3.82,3.11,2.09,1.17,5.37,2.82,7.02,3.45.05.02.08.08.06.13-.01.04-.05.06-.09.06Z"/>
      <path class="cls-2" d="M94.06,149.04s0,0,0,.01c-.02.02-.05.04-.08.04-.02,0-.04,0-.06-.02-.15-.12-.28-.24-.42-.38h0c-2.02-2.09-2.79-6.46-2.93-8.84-.13-2.2-.85-4.94-1.16-6.12-.17-.64-.17-.66-.16-.71.02-.05.08-.08.13-.07.04.02.07.06.07.11,0,.06.07.32.15.62.31,1.18,1.04,3.94,1.17,6.16.14,2.5.99,7.24,3.28,9.07.04.03.05.09.02.13Z"/>
      <path class="cls-2" d="M93.99,150.06l-2.29,1.18s-.03.01-.04.01c-.01,0-.02,0-.03,0-.03,0-.05-.03-.06-.05l-.49-1.08s-.01-.05,0-.08c0-.02.03-.04.05-.06.46-.21,1.93-.85,2.17-.93.01,0,.02,0,.03,0,.06-.01.11.02.12.08,0,.04-.01.09-.05.11,0,0-.02,0-.03,0-.1.03-1.28.54-2.07.89l.41.89,2.15-1.11c.04.06.09.11.14.16Z"/>
      <path class="cls-2" d="M81.91,154.21c-1.75,0-4.06-.59-6.31-1.17-.55-.14-1.1-.28-1.64-.41-3.24-.79-6.7-1.99-7.5-2.38-.05-.02-.07-.09-.05-.13.02-.05.09-.07.14-.05.67.33,4.02,1.53,7.46,2.37.54.13,1.09.27,1.64.41,2.78.71,5.66,1.45,7.39,1.05.05-.01.11.02.12.08.01.05-.02.11-.08.12-.35.08-.75.12-1.18.12Z"/>
      <path class="cls-2" d="M76.58,153.58v.84s-.01.06-.03.07c-.02.02-.04.03-.07.03h0l-5.91-.37v-.2l5.81.36v-.66l-5.79-1.11c0-.07,0-.14.01-.2l5.89,1.13s.08.05.08.1Z"/>
      <path class="cls-2" d="M110.55,165.13s-.06-.02-.08-.04c-.11-.16-2.7-3.83-4.87-5.1-2-1.17-15.01-5.68-15.14-5.73-.05-.02-.08-.08-.06-.13.02-.05.08-.08.13-.06.54.19,13.16,4.56,15.18,5.74,2.17,1.27,4.66,4.77,4.94,5.16.03.04.02.11-.03.14-.02.01-.04.02-.06.02Z"/>
      <path class="cls-2" d="M114.04,170.77s0,0-.01,0c-.06,0-.1-.06-.09-.11.36-2.86,3.07-7.22,3.1-7.27.03-.05.09-.06.14-.03.05.03.06.09.03.14-.03.04-2.72,4.37-3.07,7.18,0,.05-.05.09-.1.09Z"/>
      <path class="cls-2" d="M118.14,180.36s-.08-.02-.09-.06c-.77-1.88-4.26-9.39-4.72-10.29-.03-.05,0-.11.04-.14s.11,0,.14.04c.47.91,3.96,8.43,4.73,10.31.02.05,0,.11-.06.13-.01,0-.03,0-.04,0Z"/>
      <path class="cls-2" d="M115.6,187.73s-.06-.01-.08-.04c-1.52-1.76-4.62-5.41-5.14-6.08-.03-.04-.03-.11.02-.14.04-.03.11-.03.14.02.51.67,3.61,4.31,5.13,6.07.04.04.03.11-.01.14-.02.02-.04.03-.07.03Z"/>
      <path class="cls-2" d="M125.57,151.25s-.05,0-.07-.03l-4.22-4s-.04-.1,0-.14c.04-.04.1-.04.14,0l4.22,4s.04.1,0,.14c-.02.02-.05.03-.07.03Z"/>
      <g>
        <path class="cls-2" d="M124.59,153.4s-.05,0-.07-.03l-5.47-5.05s-.04-.1,0-.14c.04-.04.1-.04.14,0l5.47,5.05s.04.1,0,.14c-.02.02-.05.03-.08.03Z"/>
        <path class="cls-2" d="M123.27,154.53s-.05,0-.07-.02l-5.69-4.87s-.05-.1-.01-.14c.04-.04.1-.05.14-.01l5.69,4.87s.05.1.01.14c-.02.02-.05.04-.08.04Z"/>
        <path class="cls-2" d="M121.21,155.27s-.04,0-.06-.02l-5.44-4.4s-.05-.1-.01-.14c.04-.04.1-.05.14-.01l5.44,4.4s.05.1.02.14c-.02.02-.05.04-.08.04Z"/>
        <path class="cls-2" d="M119.32,156.93s-.04,0-.06-.02l-5.44-4.29s-.05-.1-.02-.14c.04-.04.1-.05.14-.02l5.44,4.29s.05.1.02.14c-.02.03-.05.04-.08.04Z"/>
        <path class="cls-2" d="M116.76,158.45s-.05,0-.06-.02l-4.69-3.92s-.05-.1-.01-.14c.04-.04.1-.05.14-.01l4.69,3.92s.05.1.01.14c-.02.02-.05.04-.08.04Z"/>
        <path class="cls-2" d="M114.41,160s-.05,0-.07-.02l-4.14-3.51s-.05-.1-.01-.14c.04-.04.1-.05.14-.01l4.14,3.51s.05.1.01.14c-.02.02-.05.04-.08.04Z"/>
      </g>
      <path class="cls-2" d="M83.02,116.89c0-.18.15-.33.33-.33s.32.15.32.33-.15.32-.32.32-.33-.14-.33-.32Z"/>
      <path class="cls-2" d="M86.79,117.68c0-.19.16-.35.35-.35s.35.15.35.35-.16.35-.35.35-.35-.16-.35-.35Z"/>
      <g>
        <path class="cls-3" d="M106.91,96.18s-1.1,4.41-3.9,6.46c-2.8,2.04-6.66,1.09-6.66,1.09,0,0,0-.05.02-.12.02-.07.04-.15.06-.26.24-.92,1.03-3.3,3.23-5.06,2.78-2.23,7.25-2.1,7.25-2.1Z"/>
        <path class="cls-2" d="M105.47,97.47c-.9.94-1.99,1.82-3.12,2.62.39-.04,1.05-.13,1.86-.3.06-.01.11.03.12.08.01.06-.02.11-.08.12-1.21.26-2.11.33-2.23.34-.78.54-1.56,1.03-2.3,1.47,0,0-.01,0-.02.01-.68.4-1.33.76-1.89,1.06.51.14,1.76.45,2.47.26.06-.01.11.02.12.07.02.05-.02.11-.07.12-.18.04-.38.07-.6.07-.88,0-1.97-.32-2.18-.38-.47.24-.87.45-1.18.6.02-.07.04-.15.06-.26.73-.36,1.87-.95,3.14-1.71.19-.42,1.39-3.1,1.7-3.35.05-.04.11-.03.15.01.04.04.03.11-.01.15-.19.16-.99,1.82-1.53,3.01,1.85-1.11,3.93-2.55,5.44-4.12.04-.04.11-.04.15,0,.04.04.04.1,0,.14Z"/>
      </g>
    </g>
  </g>
</svg>