<?xml version="1.0" encoding="UTF-8"?>
<svg id="Layer_2" data-name="Layer 2" xmlns="http://www.w3.org/2000/svg" viewBox="0 0 127.71 128.51">
  <defs>
    <style>
      .cls-1 {
        fill: #192e3a;
      }

      .cls-1, .cls-2, .cls-3, .cls-4, .cls-5, .cls-6, .cls-7, .cls-8, .cls-9, .cls-10, .cls-11, .cls-12, .cls-13, .cls-14, .cls-15, .cls-16, .cls-17, .cls-18, .cls-19, .cls-20, .cls-21, .cls-22 {
        stroke-width: 0px;
      }

      .cls-2 {
        fill: #3074fe;
      }

      .cls-3 {
        fill: #00114f;
      }

      .cls-4 {
        fill: #ff92bc;
      }

      .cls-23, .cls-8, .cls-12 {
        opacity: .5;
      }

      .cls-5 {
        fill: #06a899;
      }

      .cls-6 {
        fill: #42c1a3;
      }

      .cls-7 {
        fill: #f88b7f;
      }

      .cls-8 {
        fill: #cef8ff;
      }

      .cls-9 {
        fill: #f8a786;
      }

      .cls-10 {
        fill: #ff525e;
      }

      .cls-11 {
        fill: #008e7d;
      }

      .cls-12, .cls-17 {
        fill: #aceadd;
      }

      .cls-13 {
        fill: #55d3b9;
      }

      .cls-14 {
        fill: #54dde8;
      }

      .cls-15 {
        fill: #fff;
      }

      .cls-16 {
        fill: #e2276f;
      }

      .cls-18 {
        fill: #213949;
      }

      .cls-19 {
        fill: #f78658;
      }

      .cls-20 {
        fill: #010340;
      }

      .cls-21 {
        fill: #f93245;
      }

      .cls-22 {
        fill: #c0f2e6;
      }
    </style>
  </defs>
  <g id="Layer_1-2" data-name="Layer 1">
    <g>
      <polygon class="cls-17" points="9.22 102.46 120.06 102.46 118.93 99.27 10.35 99.27 9.22 102.46"/>
      <path class="cls-21" d="M36.79,15.79c.02-.79.83-1.75,1.44-3.51.61-1.76,1.39-3.9,2-4.81.61-.92,1.39-2.66,2.44-4.18,1.05-1.53,3.75-1.74,4.49-.96,0,0,2.27-.87,3.57,1.18,1.31,2.05,1.4,3.57,1.31,5.34-.09,1.77,0,3.56.87,5.17.87,1.61,1.87,4.84-.91,6.15-2.79,1.31-8.5.92-10.68.44-2.18-.48-4.58-2.83-4.53-4.8Z"/>
      <g>
        <path class="cls-4" d="M43.11,5.83s-.08-.03-.09-.08c0-.05.03-.09.08-.09,1.54-.11,3.29-2.14,3.31-2.16.03-.04.08-.04.12,0,.04.03.04.09,0,.12-.07.09-1.82,2.1-3.43,2.22h0Z"/>
        <path class="cls-4" d="M49.65,5.83s0,0,0,0c-1.19-.12-1.97-1.44-2.01-1.5-.02-.04,0-.09.03-.12.04-.02.1-.01.12.03,0,.01.77,1.3,1.87,1.41.05,0,.08.05.08.1,0,.04-.04.08-.09.08Z"/>
        <path class="cls-4" d="M50.52,5.08s-.07-.02-.08-.06c-.39-1.29-1.79-2.09-1.8-2.1-.04-.02-.06-.08-.03-.12.02-.04.08-.06.12-.03.06.03,1.47.85,1.88,2.2.01.05-.01.09-.06.11,0,0-.02,0-.03,0Z"/>
        <path class="cls-4" d="M41,7.05s-.03,0-.04-.01c-.04-.02-.06-.07-.04-.12.65-1.23,1.96-2.56,2.14-2.7.04-.03.09-.02.12.01.03.04.02.09-.01.12-.16.13-1.46,1.46-2.09,2.65-.01.03-.04.05-.08.05Z"/>
        <path class="cls-4" d="M38.84,14s-.03,0-.05-.01c-.04-.03-.05-.08-.03-.12.46-.72,1.19-1.63,1.19-1.64.03-.04.09-.04.12-.01.04.03.04.08.01.12,0,0-.73.91-1.18,1.63-.02.03-.04.04-.07.04Z"/>
        <path class="cls-4" d="M52.21,16.46s-.04,0-.05-.02c-.6-.43-.85-2.67-.86-2.77,0-.05.03-.09.08-.1.05,0,.09.03.09.08.07.63.34,2.32.79,2.64.04.03.05.08.02.12-.02.02-.04.04-.07.04Z"/>
        <path class="cls-4" d="M49.92,17.98s-.03,0-.04,0c-.04-.02-.06-.07-.04-.12.32-.61.3-2.37.3-2.39,0-.05.04-.09.09-.09h0s.09.04.09.09c0,.07.02,1.82-.32,2.47-.02.03-.05.05-.08.05Z"/>
      </g>
      <path class="cls-5" d="M109.36,32.66c-.53,1.01-1.15,1.92-1.75,2.69-1.42,1.81-2.77,2.89-2.77,2.89,0,0-.4.99-.94,2.22-.7,1.62-1.63,3.65-2.18,4.38-.09.12-.17.21-.24.25,0,0-5.52,1.11-12.31-1.94-.01,0-.02,0-.02,0v-.07s-.05-.85-.05-.85c0,0-1.52.22-2.48-.22,0,0-.23-.62-.48-1.37-.22-.63-.46-1.35-.6-1.88l2.93-1.21h0s-.01-.04-.04-.09c-.01-.03-.02-.06-.04-.09-.17-.38-.59-1.28-.93-1.66,0,0,1.55-5.08,1.72-6.73,0,0-2.83,2.86-5.18,3.51-1.68-.99-3.65-1.56-5.76-1.56-.8,0-1.58.08-2.33.24,1.26-.69,4.42-2.45,6.47-3.89,2.62-1.83,3.84-4.19,4.88-7.15,1.04-2.96,2.13-6.97,5.8-7.32,1.22-.11,2.32-.15,3.23-.15,1.05,0,1.87.05,2.37.09.06,0,.11.01.16.01.28.02.42.04.42.04.05.11.09.21.14.31.25.5.58.92,1,1.17.55.32,1.15.43,1.75.39.49-.04.99-.17,1.48-.38,0,0,.01,0,.02,0h0s1.3,1.36,2.7,2.95c1.15,1.31,2.37,2.78,3,3.81,1.41,2.27,1.77,8.24,0,11.64Z"/>
      <path class="cls-11" d="M106.35,17.21c-6.21,1.23-7.65-2.2-7.52-4.48.28.02.42.04.42.04.05.11.09.21.14.31.25.5.58.92,1,1.17.55.32,1.15.43,1.75.39.5-.04,1.01-.18,1.5-.39h0s1.3,1.36,2.7,2.95Z"/>
      <g>
        <path class="cls-13" d="M103.63,14.26c-.64.86-1.61,1.78-2.58,2.59-1.64,1.38-3.28,2.46-3.28,2.46-.45-1.61.54-5.31.9-6.6.04,0,.08,0,.11.01.02,0,.03,0,.05,0,.28.02.42.04.42.04.05.11.09.21.14.31.25.5.58.92,1,1.17.55.32,1.15.43,1.75.39.49-.04.99-.17,1.48-.38Z"/>
        <path class="cls-5" d="M102.15,14.65c.49-.04.99-.17,1.48-.38-.64.86-1.61,1.78-2.58,2.59-2.14-1.04-2.3-3.19-2.27-4.13.02,0,.03,0,.05,0,.28.02.42.04.42.04.05.11.09.21.14.31.25.5.58.92,1,1.17.55.32,1.15.43,1.75.39Z"/>
        <path class="cls-14" d="M108.15,14.27s-.02,0-.03,0c.03-.01.04-.02.03,0Z"/>
      </g>
      <path class="cls-18" d="M116.37,94.91s-.97.21-1.99.7c-.15.07-.39.19-.67.34-1.05-1.32-10.4-13.14-12.92-16.32-2.67-3.37-3.84-5.99-5.06-10.87-1.22-4.88-5.12-17.03-5.12-17.03,0,0-8.49,8.37-11.16,11.45-2.68,3.08-4.3,4.94-3.78,7.01.52,2.07,2.79,6.01,3.89,10.6,1.11,4.59-.64,14.76-1.05,15.29,0,0-1.3.09-2.03.37-.1.04-.22.09-.35.14-.77-2.5-8.83-28.74-8.66-29.74.12-.72,3.81-7.64,6.1-11.86,1.01-1.87,1.75-3.21,1.78-3.25,4.85-6.8,10.43-11.2,10.43-11.2l.34.09c.25.75.48,1.37.48,1.37.96.44,2.48.22,2.48.22l.05.92c.4.18.8.35,1.2.5,6.24,2.43,11.14,1.45,11.14,1.45.07-.04.15-.13.24-.25.57,3.28,1.81,17.18,1.69,19.91-.12,2.73.81,7.5,1.8,8.72.99,1.22,4.88,5.29,7.73,10.29,2.85,5,3.43,11.16,3.43,11.16Z"/>
      <path class="cls-1" d="M90.34,43.63c-.07,3.48-1.69,9.3-9.65,10.85-3.08.6-5.39.67-7.1.49,1.01-1.87,1.75-3.21,1.78-3.25,4.85-6.8,10.43-11.2,10.43-11.2l.34.09c.25.75.48,1.37.48,1.37.96.44,2.48.22,2.48.22l.05.92c.4.18.8.35,1.2.5Z"/>
      <path class="cls-17" d="M89.14,43.13v-.07s-.05-.85-.05-.85c0,0-1.52.22-2.48-.22,0,0-.23-.62-.48-1.37-.22-.63-.46-1.35-.6-1.88l2.94-1.21s-.03-.06-.04-.09c0-.02-.02-.05-.04-.09-.91-2.04-2.45-3.74-4.4-4.89-1.68-.99-3.65-1.56-5.76-1.56-.8,0-1.58.08-2.33.24-3.13.65-5.76,2.57-7.29,5.18-.9,1.54-1.42,3.32-1.42,5.22,0,5.88,4.95,10.64,11.05,10.64,3.72,0,7.01-1.78,9.02-4.49.98-1.33,1.64-2.88,1.9-4.56,0,0-.02,0-.02,0Z"/>
      <path class="cls-21" d="M87.26,47.7c-2,2.72-5.29,4.49-9.02,4.49-6.1,0-11.05-4.77-11.05-10.64,0-1.9.52-3.68,1.42-5.22.54,1.92,2.1,4.87,4.1,6.36,2.38,1.78,4.06.38,6.1,2.12,1.62,1.39,5.47,3.15,8.44,2.89Z"/>
      <path class="cls-22" d="M71.82,41.75c0-3.69,3-6.69,6.69-6.69s6.69,3,6.69,6.69-2.99,6.69-6.69,6.69-6.69-2.99-6.69-6.69Z"/>
      <path class="cls-15" d="M79.76,31.9c-2.16-.48-1.92,1.8-.75,1.86,1.16.06,4.9,1.51,5.64,2.15.75.64,2.1.06.55-1.34-1.55-1.39-3.06-2.15-5.44-2.67Z"/>
      <path class="cls-10" d="M82.02,51.23c-.72-1.82-1.07-4.23-.97-5.94-.72.51-1.59.82-2.54.82-1.64,0-3.06-.9-3.81-2.24-.79,1.56-1.22,3.82.11,6.34,1.51,2.86,3.03,4.66,3.43,6.46.41,1.8,1.9,3.77,3.77,1.51,1.87-2.26.98-4.48,0-6.95Z"/>
      <path class="cls-17" d="M78.51,37.39c-2.41,0-4.36,1.95-4.36,4.36,0,.77.2,1.49.55,2.12.74,1.34,2.17,2.24,3.81,2.24.95,0,1.82-.31,2.54-.82,1.1-.79,1.82-2.08,1.82-3.54,0-2.41-1.95-4.36-4.36-4.36Z"/>
      <path class="cls-2" d="M88.4,37.35s.03.06.04.09c-.01-.03-.03-.06-.04-.09Z"/>
      <path class="cls-10" d="M61.81,97.53c-.96.48-3.75.44-3.75.44,0,0-6.7-18.17-9.17-24.81-.25-.66-.45-1.21-.6-1.61-.01-.04-.03-.08-.04-.13,2.06-.08,5.59-.35,7.72-1.15.12.49.25,1.04.39,1.62.67,2.78,1.51,6.39,1.88,8.51.66,3.79,3.58,17.13,3.58,17.13Z"/>
      <path class="cls-21" d="M56.36,71.89c-1.42.51-4.13,1.28-7.47,1.27-.25-.66-.45-1.21-.6-1.61-.01-.04-.03-.08-.04-.13,2.06-.08,5.59-.35,7.72-1.15.12.49.25,1.04.39,1.62Z"/>
      <path class="cls-10" d="M46.62,66.88v.05c-.27-.75-.54-1.53-.83-2.33,0,0,0,0,0,0-1.93-5.41-4.07-11.48-4.21-11.57-.08-.05-.98,2.73-2.16,6.47-1.4,4.45-3.19,10.28-4.45,14.34-.6,1.93-1.08,3.46-1.34,4.26-1.26,3.88-6.93,19.84-6.93,19.84-2.62,1.05-4.06,0-4.06,0,0,0,1.44-7.23,2.14-11.51.58-3.59,2.53-13.31,3.14-16.33.12-.57.18-.91.18-.91.1.02.2.04.29.07,2.14.48,4.33,1.74,5.11,2.22,0,0,1.56-1.92,3.08-7.15,1.43-4.89,3.46-15,4.37-21.64,0-.05,0-.09.02-.14.45.04.9.07,1.35.1.56.03,1.12.05,1.66.07.35.01.7.01,1.04.02,0,.13,0,.26,0,.39,0,1.29-.03,2.44-.1,3.39-.31,3.97-.22,6.21-.22,6.21,0,0,0,.05-.03.13h0c-.16.68-.88,3.73-.95,4.49,0,0,.74.68,1.47,1.39.54.52,1.07,1.07,1.29,1.37,0,0,.1,3.59.12,6.81Z"/>
      <path class="cls-21" d="M42.35,42.62c-.41,3.77-1.66,10.52-2.92,16.87-1.4,4.45-3.19,10.28-4.45,14.34-2.95-2.14-5.64-3.26-7.04-3.75.12-.57.18-.91.18-.91.1.02.2.04.29.07,2.14.48,4.33,1.74,5.11,2.22,0,0,1.56-1.92,3.08-7.15,1.43-4.89,3.46-15,4.37-21.64,0-.05,0-.09.02-.14.45.04.9.07,1.35.1Z"/>
      <path class="cls-21" d="M44.01,42.68c.35.01.7.01,1.04.02,0,.13,0,.26,0,.39,0,1.29-.03,2.44-.1,3.39-.31,3.97-.22,6.21-.22,6.21,0,0,0,.05-.03.13-.34-4.02-.63-7.85-.69-10.13Z"/>
      <path class="cls-16" d="M46.62,66.88v.05c-.27-.75-.54-1.53-.83-2.33,0,0,0,0,0,0-.17-1.65-.37-3.7-.57-5.89.54.52,1.07,1.07,1.29,1.37,0,0,.1,3.59.12,6.81Z"/>
      <path class="cls-13" d="M56.71,69.93c-.22.12-.47.23-.75.33-2.12.81-5.66,1.07-7.72,1.15-.98.04-1.62.04-1.62.04,0,0,.01-1.34,0-4.53v-.05c-.01-3.22-.12-6.81-.12-6.81-.52-.71-2.76-2.76-2.76-2.76.07-.86.97-4.62.97-4.62,0,0-.09-2.24.22-6.21.07-.96.1-2.1.1-3.39,0-.13,0-.26,0-.39,0-4.02-.17-9.43.27-15.36.22-2.97.5-5.18.77-6.79.02-.12.04-.24.06-.35h0c.02-.14.05-.28.07-.41.42-2.2.77-3.02.77-3.02,0,0,.13.02.36.07h0c.06.01.14.03.22.05.64.15,1.74.43,2.86.87.9.36,1.66.76,2.32,1.28,1.15.9,1.98,2.17,2.68,4.19,1.15,3.3,1.11,6.87-.16,13.15-1.26,6.28-3.7,11.35-3.7,11.35,0,0,.74,3.17,1.57,6.61.83,3.45,3.57,15.61,3.57,15.61Z"/>
      <path class="cls-18" d="M41.15,41.33c-.05.38-.1.78-.15,1.19,1.38.12,2.78.16,4.05.18,0-4.03-.16-9.43.27-15.36.59-8.06,1.68-10.58,1.68-10.58l-3.88-.84-.26,3.64c-.26,3.95-.91,15.23-1.7,21.77Z"/>
      <path class="cls-13" d="M42.98,15.9h0s-.11-.02-.19-.03c-.54-.07-1.84-.21-4.56-.39-.4-.03-.82-.03-1.28.05-1.18.21-2.65.99-4.78,3.53-2.97,3.53-7.11,10.16-8.42,14.78-1.31,4.62.35,11.03,7.06,14.84,0,0-1.31,5.17-2.09,7.83-.78,2.66-3.53,11.68-3.4,12.03.13.33.89.23,2.8.63.1.02.2.04.29.07,2.14.48,4.33,1.74,5.11,2.22,0,0,1.56-1.92,3.08-7.15,1.43-4.89,3.46-15,4.37-21.64,0-.05,0-.09.02-.14.05-.41.1-.8.15-1.19.75-6.21,1.37-16.7,1.66-21.12,0-.09,0-.17.02-.26,0-.14.02-.27.02-.4l.04-.49.22-3.16s-.04,0-.13-.02ZM35.04,37.91c-.47,3.58-2.21,6.34-2.26,6.43h0s0,0-.02-.02c-.06-.08-.29-.42-.67-1.06-.26-.43-.58-.99-.96-1.71-.71-1.33-.94-2.86-.87-4.54.03-.8.12-1.62.26-2.48.44-2.66,3.45-6.63,3.45-6.63,0,0,.04.87.22,1.7.18.83,1.14,1.7,1.14,1.7,0,0,.22,2.96-.26,6.61Z"/>
      <path class="cls-9" d="M52.35,10.89c-.46.99-1.6.99-1.6.99,0,0-.03.11-1.02,2.18-.99,2.06-3.34,2.01-3.34,2.01,0,0-.36,1.27-.83,2.28-.33.71-.71,1.3-1.06,1.2-.56-.16-.56-1.93-.49-3.08.03-.57.08-.99.08-.99-2.24-1.22-2.35-4.71-2.35-4.71-1.45-.23-1.4-2.85-.81-2.88.58-.03.65,1.45.64.99-.03-1.69,2.13-2.32,3.29-2.53,1.16-.2,1.69-1.36,1.69-1.36,0,.75,1.42,1.36,2.17,1.28.76-.09,1.17.73,1.28,1.63.12.9,1.34,1.86,1.34,1.86,1.08-.7,1.48.15,1.02,1.13Z"/>
      <path class="cls-19" d="M100.39,14.26c-.42-.25-.75-.67-1-1.17h0s-.28,1.05-.25,1.32c.03.26,1.16,1.1,1.86,1.02.38-.05.82-.43,1.15-.77-.61.04-1.21-.06-1.75-.39Z"/>
      <path class="cls-9" d="M75.37,31.44c-.09-.37-1.28-.87-2.62-.23-1.34.64-2.38,2.93-2.21,3.69.17.76,1.45-1.6,1.45-1.6,0,0-.58,1.55-.18,1.75.41.2,1.34-1.92,1.34-1.92,0,0-.72,1.92-.21,1.94.5.01,1.52-2.37,1.52-2.37,0,0,.06,1.71.64,1.54.58-.17.41-2.21.26-2.79Z"/>
      <path class="cls-9" d="M85.54,38.73c-.38-.29-1.77-1.05-2.35-.76-.58.29,1.18,1.25,1.18,1.25,0,0-1.52.67-1.67,1.22-.15.55.73.61.73.61,0,0-.49.44-.44.76.06.32.79.23.79.23,0,0-.41.18-.32.55.09.38.38.64,1.37.49.99-.15,1.8-1.11,1.8-1.11,0,0-.26-.9-.55-1.74-.29-.84-.52-1.51-.52-1.51Z"/>
      <path class="cls-9" d="M108.47,9.78c-.29.03-.7.41-.7.41,0,0,.41-1.59.38-2.88h0s0-.07,0-.1c0-.06,0-.12,0-.17-.1-1.32-.53-1.74-.84-1.58-.3.16-.39,2.68-1.9,2.44-1.5-.24-1.32-2.26-1.64-3.01-.32-.75-.95-1.39-1.59-1.33-.64.06-3.04,3.29-3.04,3.29,0,0,0-.1.02-.26,0,.02-.01.02-.01.02,0-.03.01-.06.02-.1,0-.2,0-.45-.02-.67-.02-.11-.05-.23-.08-.33h0c-.1-.33-.28-.59-.53-.62-.55-.06-1.39,3.52,0,3.84,0,0,0,2.34.72,4.04.04.11.09.21.14.31.25.5.58.92,1,1.17.55.33,1.15.43,1.75.39.5-.04,1.01-.18,1.5-.39.94-.41,1.83-1.07,2.5-1.77,0,0,1.54.03,2.33-.87.79-.9.29-1.87,0-1.83Z"/>
      <path class="cls-20" d="M99.16,6.52c.03-.18.02-.43-.02-.67.03.22.02.47.02.67Z"/>
      <path class="cls-20" d="M108.15,7.29s0-.05,0-.08c0,.03,0,.06,0,.09h0Z"/>
      <path class="cls-20" d="M108.15,7.31c.03,1.29-.38,2.88-.38,2.88,0,0,.43-1.21.38-2.88Z"/>
      <path class="cls-20" d="M106.67.33c-1.9-.83-4.34-.02-5.8,1.39-1.46,1.42-1.81,3.79-1.81,3.79,0,0,0,0,0,0,.04.08.06.2.08.33.04.24.04.48.02.67,0,.03,0,.05,0,.07,0,.15-.02.26-.02.26,0,0,2.4-3.23,3.04-3.29.64-.06,1.28.58,1.59,1.33.32.75.13,2.77,1.64,3.01,1.5.24,1.59-2.28,1.9-2.44.3-.16.74.26.84,1.58,0,0,0,0,0,0,0,.05,0,.11,0,.16,0,.03,0,.05,0,.08h0v.02c.05,1.67-.38,2.88-.38,2.88,1.1-.89,1.47-3.23,1.58-5,.11-1.77-.78-4.03-2.68-4.86Z"/>
      <polygon class="cls-20" points="99.06 5.52 99.06 5.52 99.06 5.52 99.06 5.52"/>
      <path class="cls-18" d="M22.7,97.74c-1.12.13-3.87.96-4.09,1.88-.22.91,1.94,1.05,4.09.7,2.14-.35,3.8-1.13,4.11-1.66.31-.52-.09-.74-.09-.74,0,0-1.44.61-2.75.3-1.31-.3-1.27-.48-1.27-.48Z"/>
      <path class="cls-18" d="M57.98,97.74s-.05.92,1.26,1.38c1.31.46,6.24,1.68,6.89,1.02.65-.65-4.31-2.62-4.31-2.62,0,0-1.09.26-2.18.21-1.09-.04-1.65,0-1.65,0Z"/>
      <path class="cls-14" d="M78.54,96.07s-1.3.09-2.04.36c-.1.04-.22.09-.35.14-1.22.52-3.67,1.77-3.7,2.35-.04.65,2.14.26,3.53-.18,1.4-.44,3.14-1.48,3.14-1.48,0,0-.2-.77-.58-1.19Z"/>
      <path class="cls-14" d="M116.38,94.91s-.97.21-1.99.7c-.15.07-.39.19-.67.34-.98.51-2.51,1.36-2.95,1.72-.57.47-.3,1.16.7,1.08,1-.09,4.62-1.25,5.19-1.98.57-.73-.28-1.86-.28-1.86Z"/>
      <path class="cls-9" d="M46.51,60.06s.26,1.86,0,2.06c-.26.2-.7-1.22-.7-1.22,0,0-.38,1.6-.9,1.71-.52.12.17-1.89.17-1.89,0,0-.84,1.96-1.42,1.89-.58-.06.67-2.33.67-2.33,0,0-.87,1.34-1.28,1.19-.41-.15.55-1.86.55-1.86,0,0-.64.81-1.05.73-.41-.09,1.1-3.02,1.19-3.05.08-.03.84.61,1.71,1.4.87.78,1.05,1.36,1.05,1.36Z"/>
      <path class="cls-19" d="M46.39,16.07s-.36,1.27-.83,2.28c-.78-.3-1.27-1.2-1.55-1.88.03-.57.08-.99.08-.99.93.75,2.3.58,2.3.58Z"/>
      <path class="cls-6" d="M38.23,15.48c3.88.26,4.88.44,4.88.44l-.22,3.16c-2.84-.94-4.91-2.52-5.94-3.55.46-.08.88-.07,1.28-.05Z"/>
      <path class="cls-6" d="M52.75,19.03c-2.37.78-4.57.95-6.53.76.42-2.2.77-3.02.77-3.02,0,0,1.68.29,3.44.99.9.36,1.66.76,2.32,1.28Z"/>
      <path class="cls-14" d="M32.08,43.26c.38.64.62.98.67,1.06-.07-.08-.33-.4-.67-1.06Z"/>
      <path class="cls-6" d="M36.24,38.7c-1.73,3.83-3.36,5.53-3.46,5.63.05-.08,1.79-2.84,2.26-6.43.48-3.64.26-6.61.26-6.61,0,0-.96-.87-1.14-1.7-.17-.83-.22-1.7-.22-1.7,0,0-3.01,3.97-3.45,6.63-.14.85-.23,1.68-.26,2.48,0-.02,0-.04-.01-.06-.92-5.62,4.26-11.45,4.4-11.62-1.28,2.33,1.6,6.16,1.6,6.16,0,0,1.79,3.25,0,7.21Z"/>
      <path class="cls-6" d="M48.93,27.91s-.65,9.4-2.41,16.61c0,0-.54-9.98,2.41-16.61Z"/>
      <path class="cls-11" d="M107.61,35.35c-1.42,1.81-2.77,2.89-2.77,2.89,0,0-.4.99-.94,2.22-1.23.71-2.66,1.26-4.3,1.53-4.94.81-8.49,1.03-10.47,1.07l-.04-.85s-1.52.22-2.48-.22c0,0,9.42-.7,15.17-3.23,2.46-1.08,4.4-2.33,5.82-3.41Z"/>
      <path class="cls-7" d="M42.15,12.28c0-.53.43-.96.96-.96s.96.43.96.96-.43.96-.96.96-.96-.43-.96-.96Z"/>
      <path class="cls-7" d="M48,12.71c0-.53.43-.96.96-.96s.96.43.96.96-.43.96-.96.96-.96-.43-.96-.96Z"/>
      <path class="cls-7" d="M98.79,9.71c0-.53.43-.96.96-.96s.96.43.96.96-.43.96-.96.96-.96-.43-.96-.96Z"/>
      <path class="cls-7" d="M104.02,12.13c0-.53.43-.96.96-.96s.96.43.96.96-.43.96-.96.96-.96-.43-.96-.96Z"/>
      <path class="cls-3" d="M46.22,8.81s-.05-.01-.07-.04c-1.04-1.36-2.54-.43-2.6-.39-.04.03-.1.01-.12-.03-.03-.04-.01-.09.03-.12.02-.01,1.71-1.05,2.83.44.03.04.02.09-.02.12-.01,0-.03.02-.05.02Z"/>
      <path class="cls-3" d="M46.99,12.8s-.05,0-.07-.03l-.94-.96s-.03-.09,0-.12c.03-.03.09-.03.12,0l.81.83c.05-.42.16-1.52.2-2.38.04-1.14.26-1.34,1.09-1.5.82-.16,1.48.5,1.5.52.03.03.03.09,0,.12-.03.03-.09.03-.12,0,0,0-.62-.62-1.34-.48-.74.14-.91.28-.95,1.33-.04,1.1-.22,2.56-.22,2.58,0,.03-.03.06-.06.07,0,0-.02,0-.03,0Z"/>
      <path class="cls-3" d="M41.41,9.68s-.08-.03-.09-.08c-.06-.47-.39-.84-.39-.85-.03-.04-.03-.09,0-.12.04-.03.09-.03.12,0,.01.02.37.42.43.94,0,.05-.03.09-.07.1,0,0,0,0-.01,0Z"/>
      <path class="cls-3" d="M51.04,11.21s-.01,0-.02,0c-.05-.01-.07-.06-.06-.11.14-.54.7-.77.73-.78.04-.02.1,0,.11.05s0,.09-.05.11c0,0-.51.21-.62.66,0,.04-.04.06-.08.06Z"/>
      <path class="cls-3" d="M46.08,14.36c-.79,0-1.12-.37-1.14-.39-.03-.04-.03-.09,0-.12.04-.03.09-.03.12,0h0s.54.58,1.9.19c.05-.01.09.01.11.06.01.05-.01.09-.06.11-.36.11-.67.14-.94.14Z"/>
      <path class="cls-3" d="M42.98,15.9h0s-.02.05-.05.07c-.22.17-2.52,3.01-2.79,3.53.25-.01,1.08-.25,1.83-.51.03-.01.07,0,.1.03l.76.94c0,.08-.01.17-.02.26l-.84-1.04c-1.88.63-1.97.49-2.02.43-.04-.05-.01-.12.1-.3.02-.03,2.18-2.93,2.73-3.43.08.01.14.02.19.03Z"/>
      <path class="cls-3" d="M48.69,20.07c-.22.15-.62-.13-1.01-.38-.19-.13-.4-.26-.49-.28-.12,0-.61.53-1.11,1.14.02-.12.04-.24.06-.35h0c.41-.51.88-1,1.07-.97.12.02.29.13.56.31.26.18.69.47.82.38.07-.18-.55-1.64-1.24-3.09.06.01.14.03.22.05.7,1.47,1.37,3.02,1.12,3.19Z"/>
      <path class="cls-3" d="M74.84,36.93s-.05-.01-.07-.03c-.03-.04-.03-.09,0-.12.03-.02,3.01-2.5,6.55-.27.04.02.05.08.03.12-.02.04-.08.05-.12.03-3.43-2.16-6.32.23-6.35.26-.02.02-.04.02-.06.02Z"/>
      <path class="cls-3" d="M102.59,27.69h0c-2.38-.17-3.8-1.49-3.82-1.51-.04-.03-.04-.09,0-.12.03-.04.09-.04.12,0,.01.01,1.39,1.29,3.71,1.46.05,0,.08.05.08.09,0,.05-.04.08-.08.08Z"/>
      <path class="cls-3" d="M85.54,38.82s-.07-.02-.08-.05c-.02-.05,0-.09.05-.12.04-.01,3.81-1.64,5.92-2.41,2.07-.76,6.8-2.85,8.34-4.21,1.47-1.3,3.5-4.96,3.48-6.78,0-.05.04-.09.08-.09h0s.08.04.09.09c.02,1.86-2.04,5.59-3.54,6.91-1.56,1.38-6.32,3.48-8.4,4.25-2.11.77-5.87,2.39-5.91,2.41-.01,0-.02,0-.04,0Z"/>
      <path class="cls-3" d="M88.94,30.4s-.02,0-.02,0c-.05-.01-.07-.06-.06-.11.4-1.61.92-4.03.73-6.48-.17-2.23.65-3.65.68-3.71.02-.04.08-.06.12-.03.04.03.06.08.03.12,0,.01-.83,1.44-.66,3.61.2,2.47-.33,4.91-.73,6.53,0,.04-.05.07-.08.07Z"/>
      <path class="cls-3" d="M89.2,42.39c-1.79,0-2.56-.3-2.62-.32-.05-.02-.07-.07-.05-.11.02-.05.07-.07.11-.05.03,0,2.8,1.08,10.23-.88,7.69-2.02,8.67-3.26,9.91-4.84.03-.04.09-.04.12-.01.04.03.04.08.01.12-1.26,1.6-2.26,2.86-10,4.9-3.59.94-6.08,1.19-7.72,1.19Z"/>
      <path class="cls-3" d="M73.96,46.74s-.04,0-.05-.02c-.03-.02-2.97-2.48-2.06-6.21.01-.05.06-.08.11-.06.05.01.08.06.07.1-.88,3.63,1.97,6.01,2,6.04.04.03.04.09.01.12-.02.02-.04.03-.07.03Z"/>
      <path class="cls-3" d="M81.17,47.97s-.07-.02-.08-.06c-.02-.04,0-.1.05-.11.02,0,2.51-1.02,3.55-3.72.02-.04.07-.07.11-.05.04.02.07.07.05.11-1.06,2.78-3.62,3.81-3.64,3.82-.01,0-.02,0-.03,0Z"/>
      <path class="cls-3" d="M102.52,13.18c-1.05,0-1.2-.64-1.21-.66-.01-.05.02-.09.06-.1.05,0,.09.02.11.07,0,.02.14.55,1.11.53h0s.08.04.09.08c0,.05-.04.09-.08.09-.02,0-.05,0-.07,0Z"/>
      <path class="cls-3" d="M103.47,12.13h-.01c-.08,0-.16-.05-.24-.15-.27-.33-.51-1.12-.49-1.32,0-.05.05-.08.1-.08.05,0,.08.05.08.09-.01.14.21.9.46,1.19.06.08.1.09.12.09h0c.11,0,.35-.67.48-1.03.15-.42.31-.86.48-1.13.45-.72,1.18-1.34,1.81-1.12.64.22.99.97,1.01,1,.02.04,0,.1-.04.12s-.09,0-.12-.04c0,0-.34-.71-.91-.91-.54-.19-1.19.39-1.6,1.05-.16.26-.31.68-.46,1.1-.26.73-.42,1.15-.65,1.15Z"/>
      <path class="cls-3" d="M103.33,7.59s-.06-.02-.08-.05c-.73-1.48-2.1-1.37-2.11-1.37-.05,0-.09-.03-.09-.08,0-.05.03-.09.08-.09.01,0,1.5-.12,2.29,1.46.02.04,0,.1-.04.12-.01,0-.02,0-.04,0Z"/>
      <path class="cls-3" d="M98.63,7.9s0,0-.02,0c-.05,0-.08-.06-.07-.1.12-.64-.21-1.42-.21-1.43-.02-.04,0-.1.04-.11.04-.02.1,0,.12.05.01.03.36.84.22,1.53,0,.04-.04.07-.09.07Z"/>
      <path class="cls-3" d="M107.28,11.26s-.04,0-.06-.02c-.04-.03-.04-.09,0-.12,0-.01.22-.26.74-.3.05,0,.09.03.09.08,0,.05-.03.09-.08.09-.45.04-.63.24-.63.24-.02.02-.04.03-.07.03Z"/>
      <path class="cls-3" d="M101.82,8.62c0-.23.19-.41.41-.41s.41.18.41.41-.18.41-.41.41-.41-.19-.41-.41Z"/>
      <path class="cls-3" d="M105.11,10.19c0-.23.18-.41.41-.41s.41.19.41.41-.18.41-.41.41-.41-.19-.41-.41Z"/>
      <path class="cls-3" d="M44.2,10.49c0-.2.16-.37.37-.37s.37.17.37.37-.17.37-.37.37-.37-.17-.37-.37Z"/>
      <path class="cls-3" d="M48.31,10.93c0-.2.17-.37.37-.37s.37.17.37.37-.16.37-.37.37-.37-.16-.37-.37Z"/>
      <path class="cls-3" d="M44.64,11.73c-.89,0-1.62-.73-1.62-1.62s.73-1.62,1.62-1.62,1.62.73,1.62,1.62-.73,1.62-1.62,1.62ZM44.64,8.66c-.8,0-1.45.65-1.45,1.45s.65,1.45,1.45,1.45,1.45-.65,1.45-1.45-.65-1.45-1.45-1.45Z"/>
      <path class="cls-3" d="M48.8,12.13c-.85,0-1.54-.69-1.54-1.54s.69-1.53,1.54-1.53,1.54.69,1.54,1.53-.69,1.54-1.54,1.54ZM48.8,9.24c-.75,0-1.36.61-1.36,1.36s.61,1.36,1.36,1.36,1.36-.61,1.36-1.36-.61-1.36-1.36-1.36Z"/>
      <path class="cls-3" d="M43.11,9.92s-.04,0-.06-.02l-1.76-1.61s-.04-.09,0-.12c.03-.04.09-.04.12,0l1.76,1.6s.04.09,0,.12c-.02.02-.04.03-.07.03Z"/>
      <path class="cls-3" d="M49.15,25.33s-.05-.08-.09-.08c-.05,0-.08.05-.08.09.08,1.23-.81,10.07-1.45,13.75-.61,3.53-3.9,18.13-3.93,18.28-.01.05.02.09.07.1,0,0,.01,0,.02,0,.04,0,.08-.03.09-.07.03-.15,3.32-14.75,3.93-18.28.59-3.43,1.54-12.45,1.46-13.79Z"/>
      <path class="cls-3" d="M51.99,46.77s-.09,0-.11.05c-1.1,2.77-5.53,12.84-5.58,12.94-.02.04,0,.1.04.11.01,0,.02,0,.04,0,.03,0,.06-.02.08-.05.04-.1,4.47-10.17,5.58-12.94.02-.04,0-.09-.05-.11Z"/>
      <path class="cls-12" d="M55.93,57.48s0,0,0,0l-.02-.02c-.09-.08-.2-.13-.32-.15-2.79-.34-6.18,4.57-7.66,8.15-.46,1.11-.8,2.11-1.03,2.99-.78,2.94-.3,4.43,1.37,3.54,2.53-1.35,4.19-4.75,6.41-8.37,1.93-3.14,1.95-5.49,1.27-6.13Z"/>
      <path class="cls-3" d="M47.37,10.43s-.03,0-.04,0c-.38-.19-1.15-.22-1.16-.22-.05,0-.08-.04-.08-.09,0-.05.04-.08.09-.08.03,0,.81.04,1.22.24.04.02.06.07.04.12-.02.03-.04.05-.08.05Z"/>
      <path class="cls-12" d="M55.9,57.45c-.1-.08-.21-.14-.32-.15-2.71-.32-5.98,4.3-7.53,7.84-.04.11-.09.21-.13.31-.46,1.11-.8,2.11-1.04,2.99-2.91-2.63-17.77-16.03-20.08-18.24-2.04-1.96-2.42-3.7-2.34-5.02.02-.34.07-.65.13-.92.06-.29.21-.7.42-1.17.78-1.69,2.5-4.14,4.7-4.5.19-.03.38-.05.57-.06,2.59-.09,5.08,1.98,5.08,1.98l10.13,8.36,4.09,3.38,6.32,5.21Z"/>
      <path class="cls-3" d="M50.24,10.43s-.06-.02-.08-.05c-.02-.04,0-.1.03-.12l1.42-.76s.09,0,.12.04c.02.04,0,.09-.04.12l-1.42.76s-.03,0-.04,0Z"/>
      <path class="cls-5" d="M48.25,65.38c.35.43,2.74,5.33,1.6,8.14-1.13,2.82-2.07,4.04-.9,5.84,1.17,1.8,2.79,7.64,1.21,9.36-1.58,1.71-4.55,1.89-5.85-2.24-1.31-4.13.04-7.85.92-9.45.88-1.6,2.13-5.11,2.3-6.45.17-1.34.17-1.75-.43-2.03,0,0,.24-.69.54-1.63.31-.94.61-1.55.61-1.55Z"/>
      <polygon class="cls-8" points="55.93 57.48 55.92 57.47 55.93 57.48 55.93 57.48"/>
      <path class="cls-8" d="M55.9,57.45l.02.02s-.02-.01-.02-.02Z"/>
      <path class="cls-5" d="M48.05,65.14c-.04.11-.09.21-.13.31-.46,1.11-.8,2.11-1.04,2.99-2.91-2.63-17.77-16.03-20.08-18.24-2.04-1.96-2.42-3.7-2.34-5.02,1.04,1.61,4.16,4.82,7.53,7.01,3.93,2.56,11.98,9.48,14.99,11.86.43.34.78.71,1.06,1.09Z"/>
      <path class="cls-9" d="M34.36,47.71s2.09.87,1.86,1.45c-.23.58-1.42-.17-1.42-.17,0,0,.86,2.12.5,2.41-.36.29-1.41-1.63-1.41-1.63,0,0,.96,2.06.58,2.3-.38.23-1.54-1.95-1.54-1.95,0,0,.73,2.41.38,2.56-.35.14-1.31-2.49-1.31-2.49,0,0,.55,2.34,0,2.28-.55-.06-1.08-2.5-1.19-3.81,0,0,.9-.06,1.95-.35,1.05-.29,1.6-.61,1.6-.61Z"/>
      <path class="cls-13" d="M34.28,47.75c-1.18.75-3.47.93-3.47.93,0,0-.81-.63-1.83-1.26-1.02-.63-2.14-1.89-2.79-2.66-.44-.52-.88-1.18-1.18-1.67.78-1.69,2.5-4.14,4.7-4.5.19-.03.38-.05.57-.06.07.69.3,1.9.62,2.57.35.72,1.09,1.96,1.86,3.24.76,1.29,1.52,3.4,1.52,3.4Z"/>
      <g>
        <path class="cls-3" d="M37.04,31.87c-2.8-.41-3.03-2.83-3-3.85.05-1.59,1.22-4.29,1.84-4.9.03-.03.03-.09,0-.12-.03-.04-.09-.04-.12,0-.66.63-1.83,3.32-1.89,4.98-.2.22-2.18,2.47-3.14,5.38-.77,2.31-.82,4.67-.18,7.02.01.04.05.06.08.06,0,0,.01,0,.02,0,.05-.01.07-.06.06-.11-.64-2.31-.58-4.64.17-6.91.85-2.55,2.47-4.58,2.97-5.16.01,1.16.41,3.38,3.15,3.79h.01s.08-.03.09-.07c0-.05-.03-.09-.08-.1Z"/>
        <path class="cls-3" d="M32.16,43.22s-.08-.06-.12-.03c-.04.02-.05.08-.03.12,1.25,2.06,2.26,4.42,2.27,4.44.01.03.05.06.08.06.01,0,.02,0,.03,0,.05-.02.07-.07.05-.11,0-.02-1.02-2.4-2.28-4.46Z"/>
        <path class="cls-3" d="M27.82,46.4s-.09-.03-.12,0c-.03.04-.03.09,0,.12,1.3,1.15,3.05,2.21,3.06,2.22.01,0,.03.01.04.01.03,0,.06-.02.07-.04.03-.04.01-.09-.03-.12-.02,0-1.75-1.06-3.04-2.2Z"/>
      </g>
      <g class="cls-23">
        <polygon class="cls-12" points="36.86 68.32 39.67 71.57 92.3 71.57 92.3 68.32 36.86 68.32"/>
        <path class="cls-12" d="M92.3,71.57v53.94c0,1.26-.93,2.28-2.08,2.28h-48.27c-1.15,0-2.08-1.02-2.08-2.28v-53.94h52.44Z"/>
      </g>
      <path class="cls-10" d="M40.58,104.39v19.94s-.17,2.73,1.63,2.73h46.04s3.37.23,3.37-2.91v-20.87s-1.63-2.38-5.29-1.92c-3.66.47-12.2,5.29-19.12,6.05-6.92.76-12.09.58-16.04-1.34-3.95-1.92-8.55-3.02-10.58-1.69Z"/>
      <g>
        <path class="cls-3" d="M55.26,78.08h-12.24s-.09-.04-.09-.09.04-.09.09-.09h12.24s.09.04.09.09-.04.09-.09.09Z"/>
        <path class="cls-3" d="M55.26,86.21h-12.24s-.09-.04-.09-.09.04-.09.09-.09h12.24s.09.04.09.09-.04.09-.09.09Z"/>
        <path class="cls-3" d="M55.26,94.34h-12.24s-.09-.04-.09-.09.04-.09.09-.09h12.24s.09.04.09.09-.04.09-.09.09Z"/>
        <path class="cls-3" d="M55.26,102.46h-12.24s-.09-.04-.09-.09.04-.09.09-.09h12.24s.09.04.09.09-.04.09-.09.09Z"/>
        <path class="cls-3" d="M55.26,110.59h-12.24s-.09-.04-.09-.09.04-.08.09-.08h12.24s.09.04.09.08-.04.09-.09.09Z"/>
        <path class="cls-3" d="M55.26,118.71h-12.24s-.09-.04-.09-.09.04-.09.09-.09h12.24s.09.04.09.09-.04.09-.09.09Z"/>
      </g>
      <g>
        <g>
          <path class="cls-3" d="M51.53,115.15v2.78h-.22v-2.39l-.22.28-.14-.14.41-.52h.17Z"/>
          <path class="cls-3" d="M52.54,115.13c.44,0,.41.34.41.53v1.75c0,.18.03.54-.41.54s-.41-.34-.41-.54v-1.75c0-.19-.03-.53.41-.53ZM52.53,117.77c.2,0,.19-.19.19-.36v-1.74c0-.17.01-.36-.19-.36s-.19.19-.19.36v1.74c0,.17-.02.36.19.36Z"/>
          <path class="cls-3" d="M53.68,115.13c.44,0,.41.34.41.53v1.75c0,.18.03.54-.41.54s-.41-.34-.41-.54v-1.75c0-.19-.03-.53.41-.53ZM53.68,117.77c.2,0,.19-.19.19-.36v-1.74c0-.17.02-.36-.19-.36s-.18.19-.18.36v1.74c0,.17-.02.36.18.36Z"/>
        </g>
        <g>
          <path class="cls-3" d="M51.22,109.65h.59v.2h-.84v-.19c.35-.74.6-1.21.6-1.95v-.12c0-.18.02-.36-.19-.36s-.19.19-.19.36v.3h-.23v-.3c0-.19-.03-.53.41-.53s.41.34.41.53v.14c0,.72-.24,1.2-.57,1.93Z"/>
          <path class="cls-3" d="M52.54,107.06c.44,0,.41.34.41.53v1.75c0,.18.03.54-.41.54s-.41-.34-.41-.54v-1.75c0-.19-.03-.53.41-.53ZM52.53,109.69c.2,0,.19-.19.19-.36v-1.74c0-.18.01-.36-.19-.36s-.19.19-.19.36v1.74c0,.17-.02.36.19.36Z"/>
          <path class="cls-3" d="M53.68,107.06c.44,0,.41.34.41.53v1.75c0,.18.03.54-.41.54s-.41-.34-.41-.54v-1.75c0-.19-.03-.53.41-.53ZM53.68,109.69c.2,0,.19-.19.19-.36v-1.74c0-.18.02-.36-.19-.36s-.18.19-.18.36v1.74c0,.17-.02.36.18.36Z"/>
        </g>
        <g>
          <path class="cls-3" d="M51.55,100.82c0-.27.03-.41-.31-.41v-.17c.35,0,.31-.14.31-.41v-.32c0-.17.01-.36-.19-.36-.17,0-.16.2-.16.36v.34h-.22v-.34c0-.18-.03-.53.38-.53s.41.34.41.53v.52c0,.12,0,.22-.15.3.15.07.15.18.15.3v.62c0,.2.03.53-.41.53s-.41-.34-.41-.53v-.37h.22v.36c0,.17-.01.36.18.36s.19-.19.19-.36v-.42Z"/>
          <path class="cls-3" d="M52.54,98.97c.44,0,.41.34.41.53v1.75c0,.18.03.54-.41.54s-.41-.34-.41-.54v-1.75c0-.2-.03-.53.41-.53ZM52.53,101.61c.2,0,.19-.19.19-.36v-1.74c0-.17.01-.36-.19-.36s-.19.19-.19.36v1.74c0,.17-.02.36.19.36Z"/>
          <path class="cls-3" d="M53.68,98.97c.44,0,.41.34.41.53v1.75c0,.18.03.54-.41.54s-.41-.34-.41-.54v-1.75c0-.2-.03-.53.41-.53ZM53.68,101.61c.2,0,.19-.19.19-.36v-1.74c0-.17.02-.36-.19-.36s-.18.19-.18.36v1.74c0,.17-.02.36.18.36Z"/>
        </g>
        <g>
          <path class="cls-3" d="M51.35,90.91h.35v2.04h.17v.2h-.17v.54h-.23v-.54h-.55v-.54l.42-1.7ZM51.48,92.96v-1.79l-.4,1.79h.4Z"/>
          <path class="cls-3" d="M52.54,90.89c.44,0,.41.34.41.53v1.75c0,.18.03.54-.41.54s-.41-.34-.41-.54v-1.75c0-.2-.03-.53.41-.53ZM52.53,93.53c.2,0,.19-.19.19-.36v-1.74c0-.18.01-.36-.19-.36s-.19.19-.19.36v1.74c0,.17-.02.36.19.36Z"/>
          <path class="cls-3" d="M53.68,90.89c.44,0,.41.34.41.53v1.75c0,.18.03.54-.41.54s-.41-.34-.41-.54v-1.75c0-.2-.03-.53.41-.53ZM53.68,93.53c.2,0,.19-.19.19-.36v-1.74c0-.18.02-.36-.19-.36s-.18.19-.18.36v1.74c0,.17-.02.36.18.36Z"/>
        </g>
        <g>
          <path class="cls-3" d="M51.39,83.84c-.2,0-.18.23-.18.36h-.22v-1.37h.8v.19h-.58v.73c.09-.06.17-.09.25-.09.26,0,.35.18.35.49v.94c0,.19.03.53-.41.53s-.41-.34-.41-.53v-.37h.22v.36c0,.17-.02.36.18.36s.19-.19.19-.36v-.88c0-.17.01-.36-.19-.36Z"/>
          <path class="cls-3" d="M52.54,82.82c.44,0,.41.34.41.53v1.74c0,.18.03.54-.41.54s-.41-.34-.41-.54v-1.74c0-.2-.03-.53.41-.53ZM52.53,85.45c.2,0,.19-.19.19-.36v-1.74c0-.18.01-.36-.19-.36s-.19.19-.19.36v1.74c0,.17-.02.36.19.36Z"/>
          <path class="cls-3" d="M53.68,82.82c.44,0,.41.34.41.53v1.74c0,.18.03.54-.41.54s-.41-.34-.41-.54v-1.74c0-.2-.03-.53.41-.53ZM53.68,85.45c.2,0,.19-.19.19-.36v-1.74c0-.18.02-.36-.19-.36s-.18.19-.18.36v1.74c0,.17-.02.36.18.36Z"/>
        </g>
        <g>
          <path class="cls-3" d="M51.2,76.08c.09-.06.17-.09.25-.09.26,0,.35.18.35.49v.54c0,.2.03.53-.41.53s-.41-.34-.41-.53v-1.74c0-.2-.03-.53.41-.53s.41.34.41.53v.3h-.22v-.3c0-.17.01-.36-.18-.36s-.19.19-.19.36v.81ZM51.2,77.01c0,.17-.02.36.18.36s.19-.19.19-.36v-.46c0-.17.01-.36-.19-.36s-.18.19-.18.36v.46Z"/>
          <path class="cls-3" d="M52.54,74.74c.44,0,.41.34.41.53v1.75c0,.18.03.54-.41.54s-.41-.34-.41-.54v-1.75c0-.2-.03-.53.41-.53ZM52.53,77.37c.2,0,.19-.19.19-.36v-1.74c0-.17.01-.36-.19-.36s-.19.19-.19.36v1.74c0,.18-.02.36.19.36Z"/>
          <path class="cls-3" d="M53.68,74.74c.44,0,.41.34.41.53v1.75c0,.18.03.54-.41.54s-.41-.34-.41-.54v-1.75c0-.2-.03-.53.41-.53ZM53.68,77.37c.2,0,.19-.19.19-.36v-1.74c0-.17.02-.36-.19-.36s-.18.19-.18.36v1.74c0,.18-.02.36.18.36Z"/>
        </g>
      </g>
      <path class="cls-3" d="M127.54,128.51c-.08,0-.14-.05-.17-.12l-8.57-28.94H10.48L.34,127.83c-.03.09-.13.14-.22.11-.09-.03-.14-.13-.1-.22l10.18-28.5c.02-.07.09-.12.16-.12h108.58c.08,0,.15.05.17.12l8.6,29.06c.02.09-.03.19-.12.22-.02,0-.03,0-.05,0Z"/>
    </g>
  </g>
</svg>