<?xml version="1.0" encoding="UTF-8"?>
<svg id="Layer_2" data-name="Layer 2" xmlns="http://www.w3.org/2000/svg" viewBox="0 0 150.13 150.41">
  <defs>
    <style>
      .cls-1 {
        fill: #ff3347;
      }

      .cls-1, .cls-2, .cls-3, .cls-4, .cls-5, .cls-6, .cls-7, .cls-8, .cls-9, .cls-10, .cls-11, .cls-12, .cls-13, .cls-14, .cls-15, .cls-16, .cls-17, .cls-18, .cls-19 {
        stroke-width: 0px;
      }

      .cls-2 {
        fill: #192e3a;
      }

      .cls-3 {
        fill: #00114f;
      }

      .cls-4 {
        fill: #06a899;
      }

      .cls-5 {
        fill: #f88b7f;
      }

      .cls-6 {
        fill: #f8a786;
      }

      .cls-7 {
        fill: #ff525e;
      }

      .cls-8 {
        fill: #2f5063;
      }

      .cls-9 {
        fill: #008e7d;
      }

      .cls-10 {
        fill: #55d3b9;
      }

      .cls-11 {
        fill: #ff7d8a;
      }

      .cls-12 {
        fill: #45bfa2;
      }

      .cls-13 {
        fill: #e2276f;
      }

      .cls-14 {
        fill: #aceadd;
      }

      .cls-15 {
        fill: #88d8c5;
      }

      .cls-16 {
        fill: #213949;
      }

      .cls-17 {
        fill: #f78658;
      }

      .cls-18 {
        fill: #010340;
      }

      .cls-19 {
        fill: #d8d8d8;
      }
    </style>
  </defs>
  <g id="Layer_1-2" data-name="Layer 1">
    <g>
      <path class="cls-19" d="M36.34,28.66l-.58,1.01-5.7,9.9c2.11.66,4.04,1.69,5.71,3.02l3.93-10.2.67-1.73c-1.44-2.43-4.03-2-4.03-2Z"/>
      <path class="cls-16" d="M57.11,18.29c-1.17-5.75-6.26-10.07-12.36-10.07-5.01,0-9.34,2.92-11.37,7.15-.69,1.43-1.11,3.01-1.21,4.68-.02.26-.03.52-.03.78,0,3.44,1.38,6.56,3.62,8.84l.58-1.01s2.6-.44,4.03,2l-.67,1.73c1.54.67,3.25,1.05,5.04,1.05,5.96,0,10.95-4.13,12.27-9.69-.15-.07-.3-.13-.42-.19-2.78-1.31.51-5.27.51-5.27Z"/>
      <path class="cls-10" d="M55.25,133.42c-.15,3.29-.64,11.5-.73,13-2.4-.25-3.45-.09-3.75-.02-.07.01-.1.02-.1.02-.37-.44-1.45-3.43-1.85-7.57-.4-4.14.13-9.72-.37-12.21-.5-2.49-3.53-4.11-7.47-4.95-3.94-.84-9.82-1.62-9.82-1.62,0,0,.03.15.08.41v.02s0,0,0,0c.3,1.45,1.28,6.13,1.76,8.65.57,3,1.15,6.29,1.21,9.79.02.97-.04,1.76-.18,2.42-.36,1.74-1.29,2.54-2.88,3.06-2.19.71-9.69-.23-13.09-.23s-15.68-.34-15.68-.34c-.01-.07-.03-.15-.05-.24-.04-.16-.09-.33-.15-.5-.01-.04-.02-.07-.04-.1-.2-.59-.44-1.14-.44-1.14,0,0,4.04-2.25,7.47-3.97,3.43-1.72,8.72-2.42,11.41-2.12,2.69.3,5.72,1.75,5.72,1.75,0,0-.3-1.24-1.04-3.03-.65-1.55-1.44-3.29-1.66-3.82.42-.01.73-.06.88-.15,0,0-.06-1.85-.08-4.34,0-.14,0-.28,0-.43-.03-3.19-.02-7.27.22-9.84.14-1.49.35-3.31.57-5.23,2.52.23,9.41-.49,9.41-.49,0,0,0,0,.01,0,.03.03.06.07.09.1,2.54,2.56,6.93,3.64,11.8,4.18,1.31.51,2.42.97,3.08,1.3,2.99,1.48,5.52,3.23,5.92,5.15.4,1.92-.1,8.85-.27,12.47Z"/>
      <path class="cls-12" d="M50.77,146.39c-.07.01-.1.02-.1.02-.37-.44-1.45-3.43-1.85-7.57-.4-4.14.13-9.72-.37-12.21-.5-2.49-3.53-4.11-7.47-4.95-3.94-.84-9.82-1.62-9.82-1.62,0,0,.03.15.08.41l-.56-2.23s5.18.23,11.91,1.71c6.73,1.48,8.15,3.3,7.71,7.07-.44,3.77-.5,5.92,0,12.25.29,3.68.41,5.9.46,7.11Z"/>
      <path class="cls-3" d="M34.22,138.99h0s-.05-.02-.05-.05c.03-3.83-.89-8.31-1.7-12.27-.13-.62-.25-1.22-.37-1.8-.43-2.16-.83-3.91-1.09-5.06-.32-1.4-.42-1.85-.37-1.94.01-.02.04-.04.07-.02.02.01.03.04.02.07-.03.09.14.84.38,1.87.26,1.16.66,2.9,1.09,5.07.12.58.24,1.18.37,1.8.81,3.96,1.73,8.45,1.7,12.29,0,.03-.02.05-.05.05Z"/>
      <path class="cls-3" d="M27.67,138.95s-.01.03-.02.04c-.02,0-.03,0-.04,0-.06-.02-5.34-2.55-10.22-1.56-4.37.89-13.27,4.82-15.2,5.69-.01-.04-.02-.07-.04-.1,1.94-.86,10.85-4.79,15.22-5.69,4.59-.94,9.54,1.23,10.21,1.54-.02-.21-.14-.99-.81-3.64-.31-1.25-.79-3.09-1.26-4.86-.45-1.7-.82-3.11-1.09-4.17,0-.14,0-.28,0-.43.32,1.25.77,2.97,1.19,4.57.46,1.77.95,3.61,1.26,4.86.86,3.41.81,3.74.81,3.76Z"/>
      <path class="cls-6" d="M115.3,58.12s0,.03,0,.04h0c-.15.57-1.26,1.03-1.85,1.03,0,0-.01.02-.04.05-.03.02-.05.06-.08.1,0,0-.01.02-.03.03-.25.34-.76,1.14-.79,2.04-.03.08-.05.15-.08.23,0,0,0,.02-.01.03h-.01c-.88,0-2.1.4-2.72.7,0-.39.01-.94,0-1.05,0-.03-.04-.06-.1-.09-.31-.19-1.32-.41-1.53-1.76-.07-.44-.1-.86-.11-1.22,0-.04,0-.08,0-.13,0-.87.11-1.45.11-1.45-.95-.4-1.57-1.41-1.57-1.41.78-.03,2.12-1.45,2.96-2.96.57-1.02,1.29-1.72,1.69-2,.17.78.46,1.34.8,1.74h0c.56.67,1.26.95,1.82,1.17.2.08.37.16.53.24.01,0,.03.02.04.02.05.03.11.07.16.1.03.02.06.04.1.06.04.03.08.06.11.09.04.03.07.06.11.09.03.03.06.06.08.09.03.04.07.07.09.11.02.03.04.06.06.1.02.04.05.09.07.14.02.04.03.07.04.1.02.06.03.11.04.17.01.04.02.08.03.12.01.1.03.2.03.31,0,0,0,0,0,.01h0s0,.09-.01.13c0,.03,0,.06,0,.09,0,.06-.02.13-.03.19-.16.71-.73,1.42-1.39,2.03-.14.13-.28.25-.42.37,0,0,0,0,.02,0,.02-.01.04-.02.06-.03.28-.14,1.25-.56,1.7-.09.03.03.06.06.08.1.08.12.09.25.07.36Z"/>
      <path class="cls-17" d="M113.29,59.37c-.25.34-.76,1.14-.79,2.04-.03.08-.05.15-.08.23,0,0,0,.02-.01.03h-.01c-.88,0-2.1.4-2.72.7,0-.39.01-.94,0-1.05,0-.03-.04-.06-.1-.09h0s1.5.34,2.49-.59c.65-.61,1.04-1.04,1.22-1.26Z"/>
      <path class="cls-16" d="M114.09,143.79c-.75-.28-2.21.17-3.67.88-.81-1.82-3.5-7.94-5.37-12.69-1.56-3.97-3.05-9.51-3.81-12.46-.32-1.26-.5-2.04-.51-2.04,2.14.37,5.06.71,8.36.72.33.55.71,1.4,1.1,2.42.82,2.11,1.7,4.96,2.33,7.52,1.06,4.29,2.02,14.84,1.57,15.65Z"/>
      <path class="cls-16" d="M124.89,141.87s-1.21,0-1.83.15c-.23-.87-.71-2.52-1.6-4.9-1.03-2.75-5.08-11.66-7.24-16.48-.48-1.08-.87-1.95-1.11-2.51,2.85-.16,5.7-.45,8.05-.78.26.48.65,1.23,1.1,2.18.98,2.08,2.24,5.17,3.09,8.7,1.56,6.51-.05,12.82-.46,13.63Z"/>
      <path class="cls-2" d="M109.09,118.2c.33.55.71,1.4,1.1,2.42-4.26-.19-7.7-.84-8.95-1.1-.32-1.26-.5-2.04-.51-2.04,2.14.37,5.06.71,8.36.72Z"/>
      <path class="cls-2" d="M122.25,119.54c-2.65.7-5.41,1.02-8.04,1.11-.48-1.08-.87-1.95-1.11-2.51,2.85-.16,5.7-.45,8.05-.78.26.48.65,1.23,1.1,2.18Z"/>
      <path class="cls-14" d="M126.56,116.18c-.47.33-2.57.78-5.4,1.18-2.35.33-5.2.62-8.05.78-1.08.06-2.15.1-3.2.11-.25,0-.5,0-.75,0-3.29,0-6.21-.35-8.36-.72-1.13-.19-2.04-.39-2.67-.56-.66-.17-1.03-.29-1.04-.33-.05-.15-.4-1.47-.76-7.27-.32-5.21.22-10.25.69-17.03,0-.04,0-.08.01-.12.05-.74.1-1.5.15-2.28.22-3.55.58-7.54.9-10.88.4-4.21.76-7.39.76-7.39-2.11-.85-4.77-2.17-7.38-3.99-2.34-1.62-4.64-3.64-6.5-6.08-.91-1.2-1.7-2.39-2.36-3.51-2.22-3.74-3.14-6.78-3.13-6.99l3.7-4.04s4.46,7.35,6.98,9.83c2.53,2.47,9.34,6.61,12.22,6.51,2.67-.1,5.55-.02,5.96,0,.03,0,.05,0,.05,0,.27-.33.55-.57.81-.74h0s.07-.05.11-.07c.06-.06.19-.13.36-.21v.03s0,.05,0,.08c0,.17,0,.28,0,.28l2.52-.37s.09-.32.23-.76c0,0,0-.01,0-.02.01-.03.02-.07.04-.1,0-.04.02-.07.04-.11.04-1.2.94-2.21.94-2.21.6,0,1.71-.46,1.85-1.03h0s0-.02,0-.04c.02-.12,0-.24-.07-.36-.02-.04-.05-.08-.08-.1-.45-.47-1.43-.04-1.7.09-.02,0-.04.02-.06.03,0,0-.01,0-.02,0,.14-.12.28-.24.42-.37.66-.6,1.23-1.31,1.39-2.03,0-.06.02-.13.03-.19,0-.03,0-.06,0-.09,0-.04.01-.08.01-.13h0s0-.01,0-.02c0-.09,0-.18-.02-.26,0-.02,0-.03,0-.04,0-.04-.02-.08-.03-.12-.01-.06-.03-.12-.04-.17-.02-.04-.03-.07-.04-.1-.02-.05-.05-.1-.07-.14-.02-.03-.04-.07-.06-.1-.03-.04-.06-.08-.09-.11-.03-.03-.06-.06-.08-.09-.03-.03-.07-.06-.11-.09-.04-.03-.07-.06-.11-.09-.03-.02-.06-.04-.1-.06-.05-.03-.11-.06-.16-.1-.01,0-.03-.01-.04-.02-.16-.09-.33-.16-.53-.24-.56-.23-1.26-.5-1.82-1.17v-.17c-.1-7.62-1.48-11.09-1.48-11.09l4.38-1.05c3.65,5.03,6.9,12.99,7.2,20.51.3,7.52-2.02,13.23-3.03,17.42-.38,1.58-.74,2.98-1,4.29-.11.52-.2,1.03-.27,1.52,0,0,0,.02,0,.02-.19,1.28-.25,2.48-.1,3.7,0,.01,0,.02,0,.03.03.26.07.52.12.78.04.2.09.41.14.64,0,.02.01.04.01.05.56,2.19,1.94,5.58,3.45,9.29.01.04.03.08.04.11.49,1.2.99,2.44,1.48,3.68.34.84.66,1.69.98,2.52,2.38,6.31,2.73,11.86,2.73,11.86Z"/>
      <path class="cls-15" d="M115.72,62.38c-2.19,1.13-5.35.7-6.52.27.04-.02.07-.05.11-.07.3-.26,1.96-.91,3.08-.91h.01c.03-.08.06-.17.09-.26.04-1.2.94-2.21.94-2.21.73,0,2.25-.71,1.79-1.44-.39-.63-1.49-.16-1.78-.01-.02.01-.05.02-.08.04.83-.67,1.62-1.53,1.82-2.39,0-.06.02-.13.03-.19,0-.07.02-.15.02-.22,0,0,0-.01,0-.02,0-.09,0-.18-.02-.26,2.22-.84,4.1-1.06,4.37.39.74,3.83-1.21,5.93-3.87,7.3Z"/>
      <path class="cls-6" d="M113.43,59.19c.6,0,1.7-.46,1.86-1.03-.15.57-1.26,1.03-1.86,1.03Z"/>
      <path class="cls-6" d="M114.78,53.8s.06.06.08.09c-.03-.03-.05-.06-.08-.09Z"/>
      <path class="cls-6" d="M113.74,53.21c.19.08.37.16.53.24-.16-.08-.34-.16-.53-.24-.56-.23-1.26-.5-1.81-1.17,0,0,0,0,0,0h0c.56.67,1.26.94,1.82,1.17Z"/>
      <path class="cls-6" d="M115.22,55.1s.01-.09.01-.13h0s0,0,0,0c0,.05,0,.09-.01.13Z"/>
      <path class="cls-6" d="M114.3,53.47c.05.03.11.06.16.1-.05-.03-.11-.07-.16-.1Z"/>
      <path class="cls-6" d="M114.56,53.62s.08.06.12.09c-.04-.03-.07-.06-.12-.09Z"/>
      <path class="cls-6" d="M115.14,57.65c-.45-.47-1.42-.04-1.7.09-.02.01-.04.02-.06.03.02,0,.04-.02.06-.03.28-.14,1.25-.56,1.7-.09Z"/>
      <path class="cls-6" d="M115.18,54.52s.02.08.03.12c0-.04-.02-.08-.03-.12Z"/>
      <path class="cls-6" d="M115.3,58.12s0,.03,0,.04c0-.01,0-.03,0-.04Z"/>
      <path class="cls-6" d="M114.96,54.01s.04.06.06.1c-.02-.03-.04-.07-.06-.1Z"/>
      <path class="cls-6" d="M115.09,54.24s.03.07.04.11c-.01-.04-.03-.07-.04-.11Z"/>
      <path class="cls-6" d="M113.37,57.78c.14-.12.29-.24.43-.37-.14.13-.28.25-.43.37,0,0,0,0,0,0Z"/>
      <path class="cls-6" d="M81.33,44.38s.27-2.22-.17-3.6c-.44-1.38-.74-1.68-.88-1.51-.13.17,0,2.42,0,2.42,0,0-1.21-2.25-1.88-3-.67-.74-1.04-.57-.71.2.34.77.87,2.42.87,2.42,0,0-1.58-2.93-1.98-2.32-.4.61.91,2.83.91,2.83,0,0-1.35-2.09-1.65-1.78-.26.26.64,1.84.88,2.25.04.06.06.1.06.1,0,0-.02-.04-.06-.1-.22-.36-.99-1.59-1.22-1.24-.27.4,1.55,3.43,2.02,5.22.47,1.78,1.95,4.81,1.95,4.81l3.7-4.04s-1.31-2.09-1.85-2.66Z"/>
      <path class="cls-6" d="M76.73,42.3c.04.06.06.1.06.1,0,0-.02-.04-.06-.1Z"/>
      <path class="cls-6" d="M111.24,35.17c.06.33.11.56.11.56,0,0-.04-.23-.11-.56Z"/>
      <path class="cls-6" d="M113.87,37.65c-.37-1.21-.81-3.67-1.18-3.63-.37.03-.17,1.58-.17,1.58,0,0-.61-2.39-1.18-2.39-.4,0-.24,1.22-.11,1.96.07.33.11.56.11.56,0,0-.05-.24-.11-.56-.19-.91-.9-2.47-1.35-2.31-.49.17.37,2.88.37,2.88,0,0-1.4-3.06-1.9-2.46-.51.6,1.11,3.7,1.11,3.7,0,0-1.01-1.18-1.35-.77-.34.4.54,1.41,1.28,2.49.74,1.08.97,1.99,1.04,2.09l4.37-1.04s-.57-.88-.94-2.09Z"/>
      <path class="cls-6" d="M8.44,66.36s-.25-3.53.2-3.73c.45-.2,1.06,2.17,1.06,2.17,0,0-.15-2.4.35-2.18.5.21.86,2.59.86,2.59l1.36,1.51s-1.78,1.2-3.84-.35Z"/>
      <path class="cls-6" d="M30.1,84.97s-.14.54-.42,1.11c-.19.38-.43.77-.73,1.02,0,0,0,0,0,0-.18.15-.38.25-.61.28-.73.09-1.21-.81-1.48-1.5h0s-.02-.06-.03-.08c-.14-.4-.22-.71-.22-.71,1.05.41,2.38.5,3.49-.12h.01Z"/>
      <path class="cls-6" d="M32.38,79.75c-.05.1-.11.19-.18.27,0,0,.04-2.28-1.93-3.74-1.97-1.46-3.83-.98-4.74-.21-.91.77-1.87,2.79-1.64,4.28l-.39-.65c-.38-.19-.77.06-.72.97.07,1.11.78,1.82,1.41,1.35,0,0,.27,2.05,2.05,2.93.11.06.23.11.36.16,1.04.41,2.38.51,3.49-.12.8-.46,1.49-1.29,1.85-2.69,0,0,1.08-.04,1.21-1.15.12-.98-.31-1.88-.76-1.38Z"/>
      <path class="cls-3" d="M32.38,79.75c-.06.06-.12.15-.18.27.07-.08.13-.17.18-.27Z"/>
      <path class="cls-18" d="M32.26,76.83c-.48-1.52-.42-2.12-.05-3.41.38-1.29-1.62-1.54-3.51-1.13-1.89.4-3.84,1.24-5,3.23-1.16,2-.45,3.84-.22,4.17h0s.39.66.39.66c-.23-1.48.73-3.51,1.64-4.28.91-.77,2.78-1.25,4.74.21,1.97,1.46,1.93,3.74,1.93,3.74.06-.12.12-.21.18-.27.31-.61.3-1.62-.12-2.91Z"/>
      <path class="cls-3" d="M115.24,54.97c0,.07-.01.15-.02.22,0-.08.02-.15.02-.22Z"/>
      <path class="cls-18" d="M117.85,49.02c-1.44-.86-2.6-2.02-2.9-2.9-.3-.88-1.31-1.82-2.6-.6-1.29,1.21-1.68,2.73-1.23,4.78h0c.45,2.06,1.71,2.55,2.62,2.91.9.36,1.49.74,1.5,1.74h0v.02c0,.07-.01.15-.02.22,0,.06-.01.13-.03.19-.2.87-.99,1.72-1.82,2.39,0,0,.03-.02.08-.04.29-.14,1.38-.62,1.78.01.46.73-1.06,1.44-1.79,1.44,0,0-.89,1.02-.94,2.21h0c-.02.43,2.93.21,4.9-1.68,1.97-1.89,3.03-3.91,3.1-6.33.08-2.42-1.21-3.51-2.65-4.37Z"/>
      <path class="cls-6" d="M44.75,63.77s-.27-3.97-.77-4c-.5-.03-.44,2.89-.44,2.89,0,0-.27-3.2-.67-3.16-.4.03-.17,3.3-.17,3.4s-.57-4.14-1.08-3.8c-.51.34,0,3.87,0,3.97s-.74-2.66-1.11-2.29c-.37.37.17,3.63.2,3.77.03.13-1.01-1.38-1.31-.81-.3.57.91,1.97,1.01,1.95,0,0,.82-.22,2.42-.94,1.58-.71,1.92-.98,1.92-.98Z"/>
      <path class="cls-16" d="M34.62,110.21s0,0,.01,0c.03.03.06.07.09.1-.16-.17-.32-.34-.47-.52-2.42-2.96-3.53-6.19-4.15-11.41-.62-5.22-.25-12.21-.25-12.21,0,0-.05-.04-.16-.1-.29.6-.74,1.24-1.35,1.31-.75.09-1.25-.88-1.51-1.59-.23,0-.37,0-.37,0,0,0,.24,1.01.34,2.89.1,1.88-.1,6.63-.34,10.5-.16,2.66-.75,7.31-1.25,11.5,2.52.23,9.42-.49,9.42-.49Z"/>
      <path class="cls-4" d="M26.79,91.54c0,.07,0,.15,0,.23-.06,2.2-.19,5-.34,7.44-.16,2.66-.75,7.31-1.24,11.5-.23,1.92-.44,3.74-.57,5.23-.44,4.74-.13,14.61-.13,14.61-.15.09-.47.14-.88.15-2.12.06-6.9-.77-6.96-.86-.07-.1-.71-1.51-1.01-5.12-.23-2.81.29-7.58.75-11.83,0-.03,0-.07.01-.1.12-1.17.25-2.3.35-3.34.47-4.85,1.51-14.23,1.51-15.82s-1.07-1.92-2.35-2.56c-1.28-.64-3.74-1.45-6.59-5.15-2.86-3.7-3.23-6.83-3.13-10.06.1-3.23,1.98-8.45,2.25-9.49,0,0,.64.51,1.62.67.98.16,2.22-.32,2.22-.32,0,0-.1,2.34-.2,4.83-.1,2.49-.1,6.46.81,8.41.91,1.95,4.34,3.9,7.5,4.64.97.23,1.91.43,2.76.6,1.13.22,2.08.4,2.67.5.04,0,.07.01.1.02.34.06.53.09.53.09,0,0,.18.77.29,2.23.02.21.03.43.04.67.04.65.03,1.65,0,2.83Z"/>
      <path class="cls-4" d="M36.71,92.78c-.33.61.2,4.64.44,8.08.16,2.29.87,4.36,1.89,6.06.02.03.04.06.05.09.49.8,1.05,1.52,1.66,2.13.94.96,2.39,2.3,3.59,3.4,1.21,1.1,2.18,1.96,2.18,1.96-4.87-.54-9.26-1.62-11.8-4.18-.03-.04-.06-.07-.09-.1-.13-.14-.25-.27-.37-.42-2.42-2.96-3.53-6.19-4.15-11.41-.2-1.66-.29-3.51-.34-5.25,0-.14,0-.29-.01-.43-.03-1.86,0-3.58.03-4.78.03-1.08.07-1.75.07-1.75.26-.03.51-.07.76-.11.04,0,.09-.01.12-.02.57-.09,1.11-.2,1.63-.32,3.39-.79,5.84-2.12,7.18-3.15,1.65-1.28,2.52-4.17,2.19-8.28-.34-4.11-1.15-7.74-1.31-8.62,0,0,.82-.22,2.42-.94,1.57-.71,1.92-.98,1.92-.98.81.84,2.08,4.31,2.73,7.07.64,2.76,1.14,6.2.57,10.4-.57,4.21-3.67,7.03-5.52,8.35-1.85,1.31-5.49,2.59-5.82,3.2Z"/>
      <path class="cls-7" d="M54.53,146.42c-2.94-.3-3.85,0-3.85,0-.44.67-.94,2.19,1.48,2.39,2.42.2,5.96.27,6.19-.34.24-.61-.88-1.75-3.82-2.05Z"/>
      <path class="cls-4" d="M114.14,143.84c-.75-.27-2.21.17-3.67.88-1.33.64-2.66,1.51-3.45,2.25-1.67,1.56-.96,1.82,0,1.72.96-.1,6.24-1.19,7.23-2.46,1-1.26.44-2.19-.11-2.39Z"/>
      <path class="cls-4" d="M124.89,141.87s-1.22,0-1.84.15c-1.31.31-2.46.59-4.37,1.73-1.92,1.14-2.22,1.99-1.72,2.47.51.49,4.09-.07,5.91-.52,1.82-.45,2.93-.81,2.93-1.62s-.91-2.22-.91-2.22Z"/>
      <path class="cls-9" d="M26.45,85.81s.18.77.29,2.23c-1.88-.51-3.04-1.97-3.59-2.84,1.91.38,3.3.61,3.3.61Z"/>
      <path class="cls-9" d="M32.36,85.73c-.56.87-1.39,1.76-2.58,2.2.03-1.08.07-1.75.07-1.75.89-.11,1.72-.27,2.52-.45Z"/>
      <path class="cls-15" d="M101.32,70.6s-1.31,6.13-2.12,15.58c-.67,7.78-.99,24.96-1.08,30.79-.66-.17-1.03-.29-1.04-.33-.05-.15-.4-1.47-.76-7.27-.36-5.8.35-11.41.86-19.44.51-8.02,1.66-18.27,1.66-18.27-2.11-.85-4.77-2.17-7.38-3.99,2.98,1.29,7.54,3.06,9.86,2.93Z"/>
      <path class="cls-12" d="M34.04,141.37c-.36,1.74-1.29,2.54-2.88,3.06-2.19.71-9.69-.23-13.09-.23s-15.68-.34-15.68-.34c-.01-.07-.03-.15-.05-.24,2.4-.16,11.1-.77,16.38-.77,5,0,12.21.96,15.33-1.48Z"/>
      <path class="cls-7" d="M1.71,141.87c-.61-.27-1.96.34-1.67,1.82.29,1.48,2.31,5.96,2.72,6.6.4.64,1.11-1.31.71-3.16-.4-1.85-1.75-5.25-1.75-5.25Z"/>
      <path class="cls-17" d="M30.1,84.97s-.14.54-.42,1.11c-.19.38-.43.77-.73,1.02,0,0,0,0,0,0-.84.06-1.63-.68-2.09-1.22h0s-.02-.06-.03-.08c-.14-.4-.22-.71-.22-.71,1.05.41,2.38.5,3.49-.12h.01Z"/>
      <g>
        <path class="cls-3" d="M23.77,81.49s-.05-.02-.05-.05c-.02-.47-.18-.82-.47-1.03-.02-.02-.03-.02-.04-.04-.01-.02,0-.05.02-.07.02-.01.05,0,.06,0,0,0,0,0,.02.01.32.23.5.6.52,1.11,0,.03-.02.05-.05.05h0Z"/>
        <path class="cls-3" d="M24.94,78.46s-.02,0-.02,0c-.03-.01-.04-.05-.02-.07.02-.05.39-.28.83-.39.48-.11.91-.04,1.23.22.02.02.02.05,0,.07-.02.02-.05.02-.07,0-.74-.6-1.83.07-1.9.14,0,.02-.02.03-.04.03Z"/>
        <path class="cls-3" d="M29.55,82.11c-.29,0-1.06-.46-1.23-.56-.02-.01-.03-.05-.02-.07.02-.02.05-.03.07-.02.57.35,1.13.6,1.2.54.03-.22-.43-1.97-.6-2.63l-.06-.22c-.14-.55-.07-.91.7-1.21.49-.19.93,0,1.14.12.19.11.34.26.36.33,0,.03-.02.05-.04.06-.03,0-.05-.02-.06-.04-.01-.04-.16-.2-.41-.32-.22-.11-.56-.2-.95-.05-.71.28-.78.57-.64,1.09l.06.22c.31,1.2.63,2.46.6,2.66,0,.04-.03.07-.06.08-.02,0-.04.01-.07.01Z"/>
        <path class="cls-3" d="M32.2,81.49h0s-.05-.03-.05-.05c.04-.51.49-1.1.55-1.13.02-.02.05,0,.07.02.01.02,0,.05-.02.07-.05.04-.47.59-.5,1.05,0,.03-.02.05-.05.05Z"/>
        <path class="cls-3" d="M28.43,83.42c-.57,0-.99-.2-1.01-.21-.03,0-.04-.04-.02-.07.01-.02.04-.04.07-.02,0,0,.93.44,1.91,0,.03-.01.06,0,.07.03.01.02,0,.05-.02.07-.35.16-.68.21-.98.21Z"/>
        <path class="cls-3" d="M28.36,85.48c-1.28,0-2.34-.61-2.36-.62-.02-.01-.03-.05-.02-.07.01-.03.04-.03.07-.02.03.01,2.58,1.49,4.52-.21.02-.02.05-.02.07,0,.02.02.02.05,0,.07-.73.64-1.54.84-2.28.84Z"/>
      </g>
      <path class="cls-3" d="M26.79,91.54c0,.07,0,.15,0,.23-.29-.65-.73-1.35-1.3-2.08-.04-.04-.06-.08-.08-.1-.04-.02-.22.13-.33.21-.25.21-.55.45-.72.27-.23-.23.9-3.02,1.45-4.36.04,0,.07.01.1.02-.84,2.02-1.61,4.12-1.48,4.28.11.11.37-.11.59-.28.19-.16.31-.25.4-.24.03,0,.05.02.07.04.01.02.04.05.07.09.52.67.93,1.32,1.22,1.92Z"/>
      <path class="cls-3" d="M32.63,89.94c-.26.26-.95.1-1.45,0-.16-.04-.3-.07-.38-.08h0c-.23,0-.99,2.85-1.03,3.28,0-.14,0-.29-.01-.43.2-.86.66-2.66.96-2.91.03-.03.06-.04.1-.04.09,0,.23.04.41.08.45.1,1.12.26,1.35.04.01-.01.06-.09,0-.38-.19-.88-1.11-2.71-1.96-3.41.04,0,.09-.01.12-.02.87.75,1.74,2.55,1.93,3.41.06.25.05.41-.03.48Z"/>
      <path class="cls-3" d="M21.11,113.98s-.02.05-.04.06c-.24.02-.47.04-.7.04-1.82,0-3.24-.72-3.97-1.2,0-.03,0-.07.01-.1.81.52,2.56,1.37,4.65,1.16.03,0,.05.02.05.05Z"/>
      <path class="cls-3" d="M39.09,107c-.52.7-1.53,1.71-3.25,2.29h-.02s-.04-.01-.05-.03c0-.03,0-.06.03-.07,1.73-.58,2.73-1.59,3.23-2.28.02.03.04.06.05.09Z"/>
      <path class="cls-3" d="M52.26,123.09c-.58,0-1.04-1.1-1.06-1.14-.01-.03,0-.05.03-.07.03-.01.06,0,.07.03,0,0,.45,1.08.96,1.08.03,0,.05.02.05.05,0,.03-.02.05-.05.05Z"/>
      <path class="cls-3" d="M28.48,143.54s-.01,0-.02,0c-.03,0-.04-.04-.03-.06.06-.17.67-1.04,1.04-1.14.03,0,.05,0,.06.04,0,.03,0,.05-.03.06-.33.09-.93.93-.98,1.08,0,.02-.03.04-.05.04Z"/>
      <path class="cls-5" d="M26.24,81.8c0,.46-.38.84-.84.84s-.84-.38-.84-.84.38-.84.84-.84.84.38.84.84Z"/>
      <path class="cls-5" d="M31.91,81.38c0,.46-.38.84-.84.84s-.84-.38-.84-.84.38-.84.84-.84.84.38.84.84Z"/>
      <path class="cls-5" d="M111.44,57.88c0,.46-.38.84-.84.84s-.84-.38-.84-.84.38-.84.84-.84.84.38.84.84Z"/>
      <path class="cls-3" d="M109.62,58.55s-.01.05-.04.06c-.12.02-.23.03-.35.03-.52,0-.98-.21-1.29-.4,0-.04,0-.08,0-.13.37.23.97.52,1.63.4.03,0,.05.01.06.04Z"/>
      <path class="cls-3" d="M112.42,54.85s-.05-.02-.05-.05c-.16-1.62-1.48-1.85-2.05-1.95-.17-.03-.23-.04-.26-.08-.02-.02-.02-.05,0-.07.02-.02.05-.02.07,0,.02.01.11.03.2.04.54.09,1.96.35,2.13,2.04,0,.03-.02.05-.04.06,0,0,0,0,0,0Z"/>
      <path class="cls-3" d="M113.44,58.73s-.04,0-.04-.03c-.01-.02,0-.06.02-.07.04-.02.9-.5,1.02-.56.03-.01.05,0,.07.02.01.02,0,.06-.02.07-.12.06-1.01.55-1.02.56,0,0-.02,0-.03,0Z"/>
      <path class="cls-3" d="M108.39,63.43s-.02,0-.03,0c-.02-.01-.03-.04-.02-.07.02-.03.38-.66,2.17-1.38,1.79-.71,2.57-.41,2.6-.4.01,0,.02.01.03.02l.7,1.2s0,.05-.02.07c-.03.01-.06,0-.07-.02l-.69-1.18c-.12-.04-.9-.24-2.51.4-1.75.7-2.12,1.33-2.12,1.33,0,.02-.03.02-.04.02Z"/>
      <path class="cls-3" d="M101.37,94.63s-.03.04-.05.04c0,0,0,0,0,0-1.18-.21-3.15-1.49-4.29-2.34,0-.04,0-.08.01-.12,1.12.84,3.12,2.16,4.29,2.37.03,0,.05.03.04.06Z"/>
      <path class="cls-3" d="M122.84,101.8s-.04-.01-.05-.03c-.21-.56-.5-1.3-.83-2.15-1.47-3.78-3.69-9.5-4.28-11.59-.43-1.53-.35-3.63.22-5.93.01-.05.02-.09.03-.11,0-.03.03-.04.06-.04.03,0,.04.03.04.06,0,.02-.01.05-.03.11-.57,2.28-.65,4.36-.22,5.87.59,2.09,2.81,7.8,4.28,11.58.33.85.62,1.59.83,2.15,0,.02,0,.05-.03.06,0,0-.01,0-.02,0Z"/>
      <path class="cls-3" d="M86.59,59.48c-.36,0-.66-.03-.73-.06-.02-.01-.04-.04-.02-.07.01-.03.04-.04.07-.02.14.07,1.68.12,2.01-.17.02-.02.05-.02.07,0,.02.02.02.05,0,.07-.22.19-.87.25-1.39.25Z"/>
      <path class="cls-3" d="M98.08,79.05h0s-.05-.03-.04-.05c.14-1.5.7-6.77.76-7.29-1.56-.49-7.01-3.35-10.44-6.41-3.16-2.81-5.35-6.44-5.76-7.13h0s0-.07.02-.08c.02-.01.05,0,.07.02v.02c.41.7,2.6,4.31,5.74,7.11,3.39,3.02,8.98,5.96,10.44,6.4.02,0,.04.03.04.05,0,.06-.61,5.76-.76,7.33,0,.03-.02.05-.05.05Z"/>
      <path class="cls-3" d="M109.61,54.3c0-.27.22-.5.5-.5s.49.22.49.5-.22.5-.49.5-.5-.22-.5-.5Z"/>
      <path class="cls-3" d="M29.56,78.69c0-.22.18-.4.4-.4s.4.18.4.4-.18.4-.4.4-.4-.18-.4-.4Z"/>
      <path class="cls-3" d="M25.83,78.83c0-.23.19-.41.41-.41s.41.18.41.41-.18.41-.41.41-.41-.18-.41-.41Z"/>
      <path class="cls-7" d="M26.65,14.64c-1.88,2.02-.82,4.71-.82,4.71l.47.05c-.28.7-.64,1.37-1.06,1.99-1.9,2.8-5.11,4.64-8.74,4.64-5.84,0-10.58-4.74-10.58-10.58,0-3.86,2.07-7.24,5.16-9.09,1.59-.95,3.44-1.49,5.42-1.49,5.59,0,10.16,4.33,10.55,9.82l-.39-.04Z"/>
      <path class="cls-19" d="M27.04,14.68l-.38-.04c-1.88,2.02-.82,4.71-.82,4.71l.47.05,5.87.65c.1-1.67.53-3.25,1.21-4.68l-6.34-.69Z"/>
      <path class="cls-19" d="M125.06,14.6c-.05.01-.1.02-.16.04-.56.16-13.32,4.46-17.28,5.8-.73.25-1.16.39-1.16.39,0,0-2.02,1.39-.94,4.4,1.07,3,4.43,1.94,4.45,1.93h0l17.81-6.52c-1.4-1.69-2.36-3.76-2.72-6.03Z"/>
      <path class="cls-16" d="M137.52,0c-6.96,0-12.61,5.65-12.61,12.61,0,.68.05,1.34.16,1.99.36,2.27,1.32,4.33,2.72,6.03,2.31,2.8,5.81,4.59,9.73,4.59,6.96,0,12.61-5.65,12.61-12.61s-5.65-12.61-12.61-12.61Z"/>
      <path class="cls-19" d="M57.11,18.29s-3.29,3.95-.51,5.27c.13.06.27.13.42.19,3.89,1.75,15.73,6.1,15.73,6.1,0-2.52.5-4.91,1.4-7.11-2.38-.69-15.78-4.56-17.04-4.45Z"/>
      <g>
        <path class="cls-7" d="M42.06,55.38c0,.55-.03,1.1-.08,1.64-.86,8.42-8.3,15.01-17.36,15.01-9.63,0-17.44-7.46-17.44-16.65,0-1.45.19-2.85.56-4.19,1.95-7.16,8.77-12.46,16.89-12.46,1.9,0,3.73.29,5.44.83,2.11.66,4.05,1.7,5.71,3.02,3.84,3.06,6.29,7.65,6.29,12.8Z"/>
        <path class="cls-1" d="M41.98,57.02c-.86,8.42-8.3,15.01-17.36,15.01-9.63,0-17.44-7.46-17.44-16.65,0-1.45.19-2.85.56-4.19,1.94,4.68,5.95,11.26,13.38,12.24,7.81,1.03,16.08-1.67,20.87-6.41Z"/>
      </g>
      <path class="cls-1" d="M25.24,21.39c-1.9,2.8-5.11,4.64-8.74,4.64-5.84,0-10.58-4.74-10.58-10.58,0-3.86,2.07-7.24,5.16-9.09-.98,2.77-1.31,6.6,1.2,10.43,3.35,5.11,9.65,5.04,12.96,4.6Z"/>
      <g>
        <path class="cls-7" d="M110.17,29.84c0,10.33-8.38,18.71-18.71,18.71-8.92,0-16.39-6.25-18.26-14.61-.29-1.32-.45-2.69-.45-4.1,0-2.52.5-4.91,1.4-7.1,2.8-6.81,9.49-11.61,17.31-11.61,5.86,0,11.08,2.69,14.51,6.91.62.75,1.17,1.55,1.66,2.39-.73.25-1.16.39-1.16.39,0,0-.37.25-.7.77-.37.56-.71,1.46-.49,2.7.05.29.13.6.25.93,1.07,3,4.43,1.94,4.45,1.93.13.88.2,1.78.2,2.69Z"/>
        <path class="cls-13" d="M105.77,21.59c.16-1.27.22-2.47.2-3.55.62.75,1.17,1.55,1.66,2.39-.73.25-1.16.39-1.16.39,0,0-.37.25-.7.77Z"/>
        <path class="cls-1" d="M110.17,29.84c0,10.33-8.38,18.71-18.71,18.71-8.92,0-16.39-6.25-18.26-14.61,4.78,3.11,14.46,7.75,22.36,3.71,5.7-2.92,8.54-8.35,9.71-13.37.05.29.13.6.25.93,1.07,3,4.43,1.94,4.45,1.93.13.88.2,1.78.2,2.69Z"/>
      </g>
      <path class="cls-11" d="M23.15,10.41c0,1.21-.98,2.2-2.2,2.2s-2.2-.98-2.2-2.2.98-2.2,2.2-2.2,2.2.98,2.2,2.2Z"/>
      <path class="cls-11" d="M87.54,18.2c0,1.69-1.37,3.06-3.05,3.06s-3.06-1.37-3.06-3.06,1.37-3.06,3.06-3.06,3.05,1.37,3.05,3.06Z"/>
      <path class="cls-11" d="M22.77,44.65c0,1.21-.98,2.2-2.2,2.2s-2.2-.98-2.2-2.2.98-2.2,2.2-2.2,2.2.98,2.2,2.2Z"/>
      <path class="cls-8" d="M43.06,13.9c0,1.52-1.2,2.76-2.69,2.76s-2.69-1.23-2.69-2.76,1.2-2.76,2.69-2.76,2.69,1.24,2.69,2.76Z"/>
      <path class="cls-8" d="M133.3,7.1c0,1.23-.97,2.24-2.18,2.24s-2.18-1-2.18-2.24.97-2.24,2.18-2.24,2.18,1,2.18,2.24Z"/>
    </g>
  </g>
</svg>