<?xml version="1.0" encoding="UTF-8"?>
<svg id="Layer_2" data-name="Layer 2" xmlns="http://www.w3.org/2000/svg" viewBox="0 0 214.6 132.71">
  <defs>
    <style>
      .cls-1 {
        fill: #3074fe;
      }

      .cls-1, .cls-2, .cls-3, .cls-4, .cls-5, .cls-6, .cls-7, .cls-8, .cls-9, .cls-10, .cls-11, .cls-12, .cls-13, .cls-14, .cls-15, .cls-16, .cls-17 {
        stroke-width: 0px;
      }

      .cls-2 {
        fill: #00114f;
      }

      .cls-3 {
        fill: #13217d;
      }

      .cls-4 {
        fill: #06a899;
      }

      .cls-5 {
        fill: #42c1a3;
      }

      .cls-6 {
        fill: #f88b7f;
      }

      .cls-7 {
        fill: #cef8ff;
      }

      .cls-7, .cls-12 {
        opacity: .5;
      }

      .cls-8 {
        fill: #f8a786;
      }

      .cls-9 {
        fill: #92f1ff;
      }

      .cls-10 {
        fill: #ff525e;
      }

      .cls-11 {
        fill: #152a35;
      }

      .cls-12, .cls-15 {
        fill: #aceadd;
      }

      .cls-13 {
        fill: #55d3b9;
      }

      .cls-14 {
        fill: #008978;
      }

      .cls-16 {
        fill: #213949;
      }

      .cls-17 {
        fill: #f78658;
      }
    </style>
  </defs>
  <g id="Layer_1-2" data-name="Layer 1">
    <g>
      <rect class="cls-2" x="114.9" y="17.25" width="3.08" height="11.33"/>
      <path class="cls-2" d="M183.79,131.45H32.94c-.12,0-.22-.1-.22-.23s.1-.22.22-.22h150.85c.12,0,.22.1.22.22s-.1.23-.22.23Z"/>
      <polygon class="cls-15" points="35.99 84.38 38.42 86.95 83.92 86.95 83.92 84.38 35.99 84.38"/>
      <path class="cls-12" d="M83.92,86.95v42.67c0,.99-.81,1.8-1.8,1.8h-41.73c-1,0-1.8-.81-1.8-1.8v-42.67h45.33Z"/>
      <path class="cls-16" d="M83.92,97.45v32.17c0,.99-.81,1.8-1.8,1.8h-41.73c-1,0-1.8-.81-1.8-1.8v-26.39c2.06-1.19,6.76-3.18,13.96-2.12,9.41,1.38,20.76,3.56,31.37-3.66Z"/>
      <path class="cls-2" d="M63.13,109.41c-.12,0-.22-.1-.22-.23v-26.88s-.11-1.27-2.95-1.18c-3.61.1-14.77-.23-15.38-.25-.17.03-.99.14-1.76-.49-.97-.79-1.43-2.36-1.37-4.68.14-6.21.61-6.58,4.23-6.58h32.92s1.19.17,2.1-.62c.82-.72,1.2-2,1.13-3.79-.03-.91-.04-1.73-.05-2.45-.05-3.73-.06-4.73-2.73-4.73h-33.37s-1.71.22-2.9-.85c-.8-.72-1.19-1.83-1.15-3.31,0-.32.02-.64.02-.94.09-3.86.14-6.19,4.03-6.19h30.82s1.7.1,2.81-.9c.63-.56.97-1.37,1.02-2.41.21-4.76,0-6.89,0-6.91,0-.07-.05-1.31-2.33-1.31h-33.85c-.19.05-1,.23-1.77-.33-.92-.67-1.38-2.09-1.38-4.21,0-5.14.5-7.29,3.58-7.29h31.93s1.34.19,2.09-.46c.35-.31.53-.76.53-1.35v-5.77s.1-.96-.47-1.61c-.38-.43-.98-.64-1.78-.64h-33.82c-.13.03-.59.09-1.04-.25-.68-.51-1.02-1.64-1.02-3.35V3.59s-.21-1.4.68-2.44c.62-.72,1.59-1.08,2.9-1.08h68.58c.21-.05,1.43-.27,2.4.49.75.59,1.13,1.6,1.13,3.01v36.41c0,.12-.1.23-.22.23s-.23-.1-.23-.23V3.57c0-1.26-.32-2.16-.95-2.66-.86-.68-2.03-.4-2.04-.4-.02,0-.04,0-.05,0H44.56c-1.17,0-2.02.31-2.55.92-.75.88-.58,2.11-.58,2.12v5.89c0,1.95.46,2.7.84,2.99.35.26.68.17.69.17.02,0,.04,0,.06,0h33.84c.94,0,1.65.27,2.12.8.71.8.58,1.88.58,1.93v5.74c0,.73-.23,1.3-.69,1.7-.91.78-2.36.58-2.42.57h-31.9c-2.51,0-3.13,1.35-3.13,6.85,0,1.95.42,3.28,1.2,3.85.67.49,1.4.26,1.41.26.02,0,.05,0,.07,0h33.88c2.74,0,2.78,1.72,2.78,1.74,0,.06.21,2.16,0,6.96-.05,1.16-.44,2.08-1.17,2.73-1.26,1.12-3.05,1.02-3.12,1.01h-30.8c-3.45,0-3.49,1.92-3.58,5.75,0,.3-.01.62-.02.94-.04,1.34.3,2.34,1,2.97,1.04.93,2.56.74,2.57.73h33.4c3.11,0,3.13,1.51,3.18,5.17,0,.72.02,1.53.05,2.44.07,1.94-.36,3.33-1.29,4.15-1.06.94-2.37.74-2.42.73h-32.88c-3.22,0-3.63,0-3.78,6.14-.05,2.13.36,3.62,1.2,4.31.67.55,1.39.41,1.42.4.02,0,.04,0,.06,0,.12,0,11.71.35,15.38.25,1.39-.04,2.39.22,2.96.76.43.41.45.82.45.87v26.88c0,.12-.1.23-.23.23Z"/>
      <path class="cls-16" d="M187.42,82.95c-.24,1.96-.51,4.07-.74,5.66-.21,1.46-.41,2.64-.58,3.57-.17.92-.3,1.58-.4,1.98l-1.46.13-9.88.9-1.13-12.89,8.19.37,6,.27Z"/>
      <path class="cls-11" d="M187.42,82.95c-.24,1.96-.51,4.07-.74,5.66-.21,1.46-.41,2.64-.58,3.57-.17.92-.3,1.58-.4,1.98l-1.46.13c-.77-3.45-2.27-9.41-2.82-11.62l6,.27Z"/>
      <path class="cls-4" d="M212.31,82.27c-1.13-4.65-3.64-10.99-3.64-10.99,0,0,2.44-4.92,3.49-9,1.05-4.09,1.46-8.14-1.61-13.09-3.08-4.95-10.06-11.33-11.82-12.57-1.77-1.24-2.55-1.88-7.28-1.61-2.77.15-4.51.48-5.47.72-.11.03-.2.05-.29.08-.47.13-.68.22-.68.22,0,0,1.23,2.5,2.53,5.23.08.18.17.36.25.53.28.61.58,1.22.85,1.81,1.62,3.45,4.99,11.33,6.27,15.23.77,2.37,2.14,6.3,3.29,9.76.03.08.05.16.08.24.71,2.15,1.33,4.09,1.66,5.31.86,3.23,4.01,17.07,4.62,19.81,0,0,3.76.43,7.38.09.92-.09,1.84-.22,2.67-.43,0,0-1.16-6.68-2.29-11.33ZM205.58,62.02s-.04-.09-.1-.25h0c-.34-.9-1.49-3.94-2.25-6.02-.9-2.48-1.58-5.1-1.58-5.1.05.04.11.07.16.1,1.52,1.01,2.98,2.49,3.63,4.85.68,2.44.17,6.31.13,6.43Z"/>
      <path class="cls-14" d="M205.64,63.09s-2.08-3.41-3.65-7.12c-1.58-3.71-2.08-6.81-2.08-6.81l1.81,1.39.09.19s-.1-.07-.16-.1c0,0,.68,2.62,1.58,5.1.76,2.09,1.91,5.12,2.25,6.02h0c.12.77.16,1.33.16,1.33Z"/>
      <path class="cls-4" d="M189.91,93.31c-.69.5-2.24.91-3.29,1.14-.6.14-1.03.21-1.03.21,0,0,.04-.17.11-.49.18-.81.55-2.63.97-5.55.23-1.6.5-3.7.74-5.66.27-2.13.5-4.1.61-5.1h0c.04-.31.06-.51.07-.62-.32,1.96-1.43,5.07-1.43,5.07-.04-.01-.07-.03-.11-.04-1.35-.48-3.63-.97-3.63-.97,0,0-.26-3.6-.34-8.22-.08-4.61-1.62-12.53-1.99-15.01-.37-2.48-2.67-10.58-2.7-13.02-.01-.98.13-1.84.45-2.64.47-1.19,1.33-2.24,2.63-3.28.02-.01.04-.03.06-.04.07-.05.14-.1.21-.15.25-.17.47-.27.59-.33.07-.03.12-.05.12-.05,0,0,.71,1.36,1.42,3.01.03.09.07.17.1.26.08.19.19.47.33.81.04.1.08.2.12.32,1.11,2.94,3.44,9.65,4.27,13.95.63,3.23,1.66,7.74,2.35,12.2,0,.04.01.09.02.13.38,2.43.65,4.84.71,7.03.15,6.23-1.35,17.04-1.35,17.04Z"/>
      <path class="cls-14" d="M183.37,41.57c-1.56,1.81-3.95,1.57-5.02.85.47-1.19,1.33-2.24,2.63-3.28.02-.01.04-.03.06-.04.07-.05.14-.1.21-.15.25-.17.47-.27.59-.33.07-.03.12-.05.12-.05,0,0,.71,1.36,1.42,3.01Z"/>
      <path class="cls-13" d="M213.81,129.06c-.1-.12-.25-.25-.46-.35-.51-.26-1.38-.4-2.69-.19-.72-2.83-4.13-16.24-6.54-26.92-2.7-12-5.78-22.14-5.78-22.14,0,0-3.23,20.26-5.63,29.56-2.41,9.31-6.27,20.34-6.27,20.34-.1-.27-1.14-1.11-2.58-1.14.07-1.16.48-8.16.89-13.04.35-4.2,1.34-15.03,1.73-19.41.05-.55.09-1,.12-1.32,1.04-.23,2.59-.64,3.29-1.14,0,0,1.5-10.81,1.35-17.04-.05-2.18-.33-4.6-.71-7.03,0-.05-.01-.09-.02-.13.03,0,.07,0,.1,0,2.66.22,4.77.02,6.23-.25.54-.09.98-.19,1.33-.29.03.08.05.16.08.24.71,2.15,1.33,4.09,1.66,5.31.31,1.15.9,3.66,1.57,6.52,1.21,5.17,2.65,11.53,3.04,13.29,0,0,2.28.26,5,.21.77,0,1.58-.05,2.38-.12.61,3.25,1.49,11.15,1.89,17.62.45,7.27,0,17.41,0,17.41Z"/>
      <path class="cls-5" d="M199.93,74.13c.31,1.15.9,3.66,1.57,6.52-1.54-4.19-3.51-9.41-4.65-11.79.54-.09.98-.19,1.33-.29.03.08.05.16.08.24.71,2.15,1.33,4.09,1.66,5.31Z"/>
      <path class="cls-5" d="M213.81,129.06c-.1-.12-.25-.25-.46-.35-.01-4.08-.12-13.46-.59-18.63-.41-4.39-2.3-12.27-3.21-15.93.77,0,1.58-.05,2.38-.12.61,3.25,1.49,11.15,1.89,17.62.45,7.27,0,17.41,0,17.41Z"/>
      <path class="cls-5" d="M191.27,94.16c-1.31.86-3.58,1.38-4.77,1.6.05-.55.09-1,.12-1.32,1.04-.23,2.59-.64,3.29-1.14,0,0,1.5-10.81,1.35-17.04-.05-2.18-.33-4.6-.71-7.03,0-.05-.01-.09-.02-.13.03,0,.07,0,.1,0,.52,1.89,1.41,5.64,1.57,9.67.22,5.78-.93,15.38-.93,15.38Z"/>
      <path class="cls-16" d="M52.51,44.99c-.45-5.34-5.44-15.44-7.96-18.89,0,0-1.05,2.27-2.89,3.34,0,0,2.85,6.27,3.3,8.86.45,2.59-.68,7.49-3.66,6.7-2.98-.78-9.12-7.09-10.92-7.99-1.06-.54-2.44-1.05-5.29-1.13-.71-.02-1.52-.02-2.44.02-.08,0-.15,0-.23,0-.5.02-1.04.06-1.62.1-1.01.08-2.12.19-3.37.34h0c-.25.04-.52.07-.78.1-.03,0-.06,0-.09,0-.32.04-.76.13-1.29.25-.08.02-.16.04-.25.06-1.77.43-4.3,1.21-6,1.9-2.33.94-3.3,2.1-4.24,4.42-.94,2.32-4.35,12.12-4.65,14.59-.3,2.48-.34,6.72,2.59,8.44,1.45.86,3.12,1.33,4.45,1.59,1.35.28,2.34.32,2.34.32,0,0,0,.04-.02.11,0,0,0,.01,0,.02-.04.26-.14.9-.28,1.77-.43,2.82-1.22,8.11-1.5,11.06-.39,4.17-1.35,11.48-1.35,11.48,0,0,.86.07,2.17.17l10.04.69c.33.01.65.03.95.04l1.39-7.28.22-1.16.02.29h0s.56,7.3.56,7.3c0,0,1.15-.31,2.67-.59.82-.15,1.75-.29,2.66-.37,2.06-.18,6-.36,8.34-1.4.62-.27,1.14-.61,1.47-1.02,0,0-4.11-19.59-4.33-25.1-.12-2.9-.21-6.85-.27-9.95,0,0,0,0,0-.01-.05-2.8-.08-4.89-.08-4.89,0,0,5.69,3.94,11.2,4.39,3.32.27,6.1-.96,7.7-3.16,1.06-1.45,1.59-3.32,1.41-5.45ZM10.36,55.02c-.11,3.21-.45,6.75-.45,6.75-.09-.02-.17-.04-.25-.06,0,0-.02,0-.03-.01-1.35-.4-2.18-1.81-1.97-4.6.14-1.8,1.05-4.21,1.78-5.88.01-.04.07-.15.14-.31.02-.05.04-.1.06-.14.01-.02.03-.05.04-.08.28-.62.51-1.09.62-1.29.02-.05.04-.08.05-.1,0,0,0-.02,0-.02v5.74Z"/>
      <path class="cls-11" d="M25.1,35.87c-2.56,2.54-6.47,1.5-7.65.48,1.24-.15,2.36-.27,3.37-.34.58-.04,1.11-.08,1.62-.1.08,0,.16,0,.23,0,.92-.04,1.72-.04,2.44-.02Z"/>
      <path class="cls-11" d="M22.45,64.83c-.1.11-1.69,1.89-3.04,2.51-1.32.61-4.69,2.48-10.2,2.62.13-.87.23-1.51.28-1.77.84.04,2.26.02,3.89-.34,2.63-.57,7.13-1.86,9.08-3.02Z"/>
      <path class="cls-11" d="M10.87,61.84s-.62.16-1.22-.13c.08.02.17.04.25.06,0,0,.34-3.55.45-6.75v-5.74s.36,1.75.66,4.22c.3,2.48-.14,8.35-.14,8.35Z"/>
      <path class="cls-11" d="M51.1,50.45c-1.6,2.2-4.38,3.43-7.7,3.16-5.52-.45-11.2-4.39-11.2-4.39,0,0,.02,2.1.08,4.89-.52-3.53-.95-7.09-.95-7.09,0,0,7.09,4.07,11.29,5.25,3.64,1.02,6.64-.76,8.49-1.83Z"/>
      <path class="cls-4" d="M18.68,93.36s-.12.71-.32,1.88c-.59,3.59-1.91,11.54-2.72,16.69-1.07,6.82-3.77,19.13-3.77,19.13,0,0-2.94-1.01-4.68-.9-.04-1.98-.25-14.11,0-18.29.24-3.85.8-13.86,1.07-17.74.05-.72.09-1.23.11-1.45h.15c2.59.22,6.95.55,10.04.69h.1Z"/>
      <path class="cls-4" d="M40.73,130.14c-.22.05-2.53.52-2.91.74-3.15-3.55-8.21-17.9-8.83-20.83-.44-2.09-2.62-10.35-3.81-14.95-.47-1.81-.78-3.05-.78-3.13h0c.82-.16,1.75-.3,2.66-.38,2.06-.18,6-.36,8.34-1.4.02,0,.03,0,.03,0,0,0,.1.73.28,1.94.72,5.11,2.66,18.73,3.07,22.14.47,3.93,1.77,14.41,1.95,15.87Z"/>
      <path class="cls-14" d="M18.68,93.36s-.12.71-.32,1.88c-3.04-.18-7.63-.78-10.09-1.12.05-.72.09-1.23.11-1.45h.15c2.59.22,6.95.55,10.04.69h.1Z"/>
      <path class="cls-14" d="M35.71,92.13c-2.67,1.45-8.19,2.55-10.53,2.97-.47-1.81-.78-3.05-.78-3.13h0c.82-.16,1.75-.3,2.66-.38,2.06-.18,6-.36,8.34-1.4.02,0,.03,0,.03,0,0,0,.1.73.28,1.94Z"/>
      <path class="cls-4" d="M17.55,42.95s-.05.03-.08.03c-.03,0-.06-.01-.09-.04-.5-.57-1.14-1.19-1.29-1.2-.04.02-.24.13-.47.25-1.7.89-1.81.89-1.91.81-.03-.03-.05-.1-.03-.15.05-.15.78-3.35,1.34-5.87.09-.02.17-.04.25-.06-.35,1.55-1.14,5.05-1.34,5.86.33-.13,1.15-.56,1.58-.78.26-.13.44-.23.51-.26.19-.08.71.34,1.54,1.27.04.04.04.12,0,.16Z"/>
      <path class="cls-4" d="M24.53,41.54c-.29.23-.85-.01-1.4-.28-.08-.04-.15-.07-.19-.09-.16,0-.93.77-1.54,1.49-.02.03-.05.04-.09.04-.03,0-.05,0-.07-.03-.05-.04-.05-.11-.01-.16.66-.77,1.51-1.67,1.79-1.55.05.02.12.06.21.1.28.14.93.46,1.14.32.06-.34-.91-2.94-1.94-5.47.08,0,.16,0,.23,0,1.07,2.59,2.14,5.41,1.86,5.64Z"/>
      <path class="cls-12" d="M37.85,34.97c-1.28.15-1.66-1.36-1.81-4.07-.02-.39-.04-.84-.05-1.33-.07-2.54-.03-6.14-.02-7.1h2.9l.24,7.13.05,1.33s.2,3.85-1.3,4.02Z"/>
      <path class="cls-10" d="M37.85,34.97c-1.28.15-1.66-1.36-1.81-4.07-.02-.39-.04-.84-.05-1.33.59.13,1.69.27,3.12.04l.05,1.33s.2,3.85-1.3,4.02Z"/>
      <path class="cls-15" d="M38.95,22.06h-3.11c-.11,0-.21.1-.21.21s.1.21.21.21h3.11c.12,0,.21-.09.21-.21s-.09-.21-.21-.21Z"/>
      <path class="cls-8" d="M204.96,71.28c-1.46.49-3.79,1.91-3.64,2.33.15.41,2.55-.75,2.55-.75,0,0-2.25,1.69-2.03,2.06.22.37,2.48-1.2,2.48-1.2,0,0-1.43,1.31-1.18,1.65.25.34,2.12-1.16,2.12-1.16,0,0-.94,1.24-.71,1.46.22.23,1.95-.6,2.66-1.43.71-.83,1.09-2.1,1.09-2.1,0,0-1.58-.08-2.03-.26-.45-.19-1.31-.6-1.31-.6Z"/>
      <path class="cls-8" d="M182.93,81.3l.1,1.46s.53-.1.47.31c-.09.59.08,3.3.75,3.38.67.08.75-3.52.75-3.52h1.65s.1-.41.03-.6c-.08-.19-3.03-.86-3.74-1.01Z"/>
      <path class="cls-8" d="M44.56,26.1c0-.26-1.5-3.9-2.59-4.31-1.09-.41-3.53.08-4.43,1.01-.9.94-1.91,2.74.71,1.07,0,0-.75.84-.56,1.07.19.23,2.66-.64,2.66-.64,0,0-1.16,1.09-1.01,1.8.15.71,1.69-.79,1.58-.64-.11.15-.56,2.7.75,3.98,0,0,1.12-.67,1.8-1.5.68-.83,1.09-1.84,1.09-1.84Z"/>
      <path class="cls-1" d="M18.58,93.36l-10.04-.68c2.59.21,6.95.54,10.04.68Z"/>
      <path class="cls-10" d="M11.88,131.05s-2.94-1.02-4.68-.9c-1.38.09-3.54,1.33-3.71,2.03-.15.64,2.04.62,5.07.39,2.25-.17,2.76-.51,3.15-.79.39-.28.17-.73.17-.73Z"/>
      <path class="cls-10" d="M40.75,130.14s-.01,0-.02,0c-.22.05-2.53.52-2.91.74,0,0-.85,1.01,1.41,1.24,1.52.15,6.1.47,6.42-.28.28-.67-2.03-1.43-4.9-1.7Z"/>
      <path class="cls-9" d="M21.72,40.02v.27c0,.15,0,.31-.01.48-.05,1.02-.2,2.02-.39,2.91-.44,2.05-1.07,3.58-1.07,3.58,0,0-1.12-1.45-2.1-2.96-.67-1.03-1.28-2.09-1.43-2.74-.03-.14-.06-.3-.08-.47-.01-.09-.03-.19-.04-.29-.16-1.41-.05-3.29.06-4.35.21-.03.42-.05.63-.08.4.96.91,1.96,1.41,2.23.04.02.07.04.11.05.04,0,.08.02.11.02h.05c.12,0,.22-.05.3-.12h0s.05-.05.08-.08c.02-.03.05-.06.07-.09.35-.52.34-1.62.3-2.28.38-.04.74-.07,1.09-.1.31.59.87,1.94.91,4.02Z"/>
      <path class="cls-8" d="M23.75,30.57c0,.72-.07,1.44-.19,2.11,0,.05-.01.1-.02.14-.4,2.09-2.68,2.59-3.54,2.71h0s-.02,0-.03,0c-.02,0-.04,0-.06,0-.14.01-.22.02-.22.02h0c0,.07.03.26.04.54.02.33.03.77,0,1.2-.06.69-.25,1.34-.75,1.37-.5.04-1.05-.88-1.49-1.87-.06-.14-.13-.29-.18-.43-.33-.8-.58-1.58-.67-1.88-.03-.09-.04-.14-.04-.14-.11-.08-.21-.16-.31-.25h0c-.88-.82-1.46-2.15-1.46-2.15-1.39.26-2.72-2.61-2.17-3.12.28-.26.55-.25.8-.14.02.06.03.09.03.09.35.1.6.5.66.61,0,0,0,.02.01.03,0,0,.3-1.95.9-2.85.13-.2.26-.34.39-.44.1-.07.22-.13.33-.18.4-.14.9-.04,1.72.03,1.35.11,2.82-.56,3.53-1.09.71-.53.9-.34,1.58.15.5.36.74,1.16.83,1.55.21.94.38,2.45.35,3.97Z"/>
      <path class="cls-3" d="M14.11,29.42c-.1-.19-.36-.55-.69-.71.02.06.03.1.03.1.36.1.6.5.66.61Z"/>
      <path class="cls-16" d="M20.21,21.3c-2.55-.75-5.4.34-6.57,2.33-1.05,1.79-.36,4.55-.22,5.08.33.16.59.52.69.71,0,.02.01.03.01.03,0,0,.3-1.95.9-2.85.13-.2.26-.34.39-.44.11-.08.21-.14.33-.18.4-.13.9-.04,1.72.02,1.35.11,2.81-.56,3.53-1.09.71-.53.9-.34,1.58.15.5.36.74,1.15.83,1.55.03.14.05.23.05.23.21-1.6-.69-4.78-3.24-5.53Z"/>
      <g>
        <path class="cls-12" d="M27.65,64.4c-1.23.38-1.88-1.04-2.52-3.66-.14-.57-.29-1.28-.45-2.06-.48-2.4-1-5.36-1.15-6.21l2.85-.53,1.35,6.11.48,2.15s.89,3.75-.55,4.19Z"/>
        <path class="cls-9" d="M26.38,51.51l-3.06.57c-.12.02-.19.13-.17.25.02.11.13.19.25.17l.13-.02,2.85-.53.09-.02c.12-.02.19-.13.17-.25-.02-.11-.13-.19-.24-.17Z"/>
      </g>
      <g>
        <path class="cls-12" d="M32.12,63.39c-1.23.38-1.88-1.04-2.52-3.66-.14-.55-.29-1.24-.44-2-.49-2.4-1.01-5.41-1.16-6.27l2.85-.53,1.35,6.14.47,2.13s.89,3.75-.55,4.19Z"/>
        <path class="cls-9" d="M30.85,50.5l-3.06.57c-.11.02-.19.13-.17.25.02.11.13.19.25.17l.13-.02,2.84-.53.09-.02c.12-.02.19-.13.17-.25-.02-.11-.13-.19-.25-.17Z"/>
      </g>
      <g>
        <path class="cls-12" d="M36.74,62.42c-1.23.38-1.88-1.03-2.52-3.66-.13-.54-.27-1.2-.42-1.93-.49-2.42-1.03-5.48-1.18-6.34l2.84-.53,1.35,6.08.48,2.19s.89,3.75-.55,4.2Z"/>
        <path class="cls-9" d="M35.47,49.52l-3.06.57c-.11.02-.19.13-.17.25.02.12.13.19.25.17l.13-.02,2.84-.53.09-.02c.12-.02.19-.13.17-.25-.02-.11-.13-.19-.25-.17Z"/>
      </g>
      <path class="cls-10" d="M21.31,43.69c-.44,2.05-1.07,3.58-1.07,3.58,0,0-1.12-1.45-2.1-2.96l.97-2.43-1.64-1.75,1.32-1.48c.06.02.11.03.17.02.16,0,.28-.08.38-.2l1.62,1.23-1.16,2.11,1.5,1.87Z"/>
      <path class="cls-13" d="M27.65,64.4c-1.23.38-1.88-1.04-2.52-3.66-.14-.57-.29-1.28-.45-2.06.57.03,1.69-.02,3.05-.62l.48,2.15s.89,3.75-.55,4.19Z"/>
      <path class="cls-10" d="M32.12,63.39c-1.23.38-1.88-1.04-2.52-3.66-.14-.55-.29-1.24-.44-2,.65-.05,2.03-.19,3.04-.66l.47,2.13s.89,3.75-.55,4.19Z"/>
      <path class="cls-15" d="M36.74,62.42c-1.23.38-1.88-1.03-2.52-3.66-.13-.54-.27-1.2-.42-1.93.65-.05,2.19-.22,3.01-.79l.48,2.19s.89,3.75-.55,4.2Z"/>
      <g>
        <path class="cls-4" d="M24.52,66.1c-.1,0-.2-.07-.22-.18l-2.8-13.38c-.03-.12.05-.24.17-.27.12-.03.24.05.27.17l2.8,13.38c.03.12-.05.24-.17.27-.01,0-.03,0-.05,0Z"/>
        <path class="cls-4" d="M39.79,62.7c-.1,0-.2-.07-.22-.18l-2.8-13.21c-.02-.12.05-.24.17-.27.12-.03.24.05.27.17l2.8,13.21c.03.12-.05.24-.17.27-.02,0-.03,0-.05,0Z"/>
        <path class="cls-4" d="M23.21,59.79c-.1,0-.18-.06-.22-.15-.04-.11.02-.24.13-.28.14-.05,10.67-2.37,15.19-3.36.12-.03.24.05.27.17.03.12-.05.24-.17.27-5.11,1.12-14.86,3.27-15.14,3.34-.02,0-.04,0-.06,0Z"/>
      </g>
      <path class="cls-8" d="M21.15,60.62s1.24-2.81,1.69-2.63c.45.19-.38,1.88-.38,1.88,0,0,3.04-1.31,3.08-.9.04.41-1.54,1.39-1.54,1.39,0,0,2.89-1.05,3.04-.64.15.41-2.7,1.73-2.7,1.73,0,0,2.45-.79,2.71-.41.26.38-2.29,1.65-2.29,1.65,0,0,1.65-.71,1.91-.26.26.45-2.44,1.91-4.2,2.4,0,0,0-1.54-.38-2.55-.38-1.01-.94-1.65-.94-1.65Z"/>
      <path class="cls-10" d="M186.17,129.36c-.1-.27-1.14-1.11-2.58-1.14-.16,0-.33,0-.5.02-1.69.19-4.2,1.69-4.24,2.06-.04.38,6.79.07,7.32,0,.52-.08,0-.94,0-.94Z"/>
      <path class="cls-10" d="M210.38,128.51c-.32.05-.65.12-1.02.21-2.51.64-3.45,2.33-3.45,2.33,0,0,5.14.38,7.62-.26v-1.73c-.35-.45-1.31-.84-3.14-.55Z"/>
      <path class="cls-16" d="M194.9,58.82c-1.28-3.9-4.65-11.78-6.27-15.23-1.61-3.45-3.64-7.58-3.64-7.58l-1.54.21c.13.15.26.31.38.47.83,1.05,1.73,3.6.71,4.24-.57.36-1.19,0-1.63-.39.18.4.37.83.56,1.29.73,1.76,3.73,10.06,4.71,15.08.63,3.27,1.68,7.83,2.37,12.33.95.09,4.63.36,7.71-.42-1.16-3.51-2.58-7.57-3.37-9.99Z"/>
      <g>
        <path class="cls-2" d="M14.3,31.15s-.08-.03-.1-.07c-.35-.74-1.17-1.21-1.18-1.22-.05-.03-.07-.1-.04-.15.03-.05.1-.07.15-.04.04.02.9.51,1.27,1.32.03.06,0,.12-.05.15-.02,0-.03.01-.05.01Z"/>
        <path class="cls-2" d="M15.42,28.62s-.05,0-.07-.02c-.05-.04-.06-.11-.02-.16.84-1.11,2.73-.85,2.82-.83.06,0,.1.07.1.13,0,.06-.07.1-.13.09-.02,0-1.84-.26-2.6.75-.02.03-.06.05-.09.05Z"/>
        <path class="cls-2" d="M21.04,31.18c-.39,0-.86-.04-1.09-.19-.05-.03-.07-.1-.03-.16.03-.05.1-.07.15-.03.26.16.99.16,1.4.13-.25-.51-1.06-2.17-1.23-2.81-.22-.84.23-1.27,1.02-1.69.85-.45,1.76.18,1.79.2.05.04.06.11.03.16-.04.05-.11.06-.16.03,0,0-.83-.57-1.56-.19-.85.45-1.08.81-.91,1.43.19.73,1.28,2.9,1.29,2.92.02.03.02.07,0,.1-.02.03-.05.05-.09.06-.06,0-.31.03-.62.03Z"/>
        <path class="cls-2" d="M19.68,33.44c-.17,0-.28,0-.3,0-.06,0-.11-.06-.1-.12,0-.06.06-.12.12-.11.02,0,1.67.09,2.24-.47.04-.04.11-.04.16,0,.04.05.04.12,0,.16-.48.48-1.58.55-2.11.55Z"/>
      </g>
      <g>
        <path class="cls-2" d="M18.91,38.67h0s-.01.04-.03.05l-2.25,2.37c-.01-.09-.03-.19-.04-.29l2.1-2.21s.07.04.11.05c.04,0,.08.02.11.02Z"/>
        <path class="cls-2" d="M21.72,40.02v.27c-1.06-.68-2.42-1.72-2.44-1.73t0-.01s.05-.05.08-.08c.02-.03.05-.06.07-.09h0c.14.12,1.31,1.01,2.29,1.64Z"/>
      </g>
      <path class="cls-4" d="M16.64,72.48s0,0-.02,0l-6.79-.98s-.07-.02-.08-.06c-.02-.03-.02-.07,0-.1l.5-1.31s.07-.08.12-.07l6.55.79s.06.02.08.04c.02.02.03.06.02.09l-.26,1.5c-.01.05-.06.09-.11.09ZM10.01,71.3l6.54.94.22-1.27-6.34-.76-.42,1.1Z"/>
      <path class="cls-4" d="M26.63,71.88s-.1-.03-.11-.08l-.36-1.31s0-.06.01-.09c.02-.03.04-.04.08-.05,2.09-.33,5.9-1.87,5.94-1.89.03-.01.06-.01.09,0,.03.01.05.04.06.07l.38,1.52s0,.1-.05.13c-1.22.68-5.82,1.66-6.01,1.7,0,0-.02,0-.02,0ZM26.41,70.54l.3,1.09c.69-.15,4.58-1.01,5.77-1.61l-.33-1.31c-.66.26-3.82,1.5-5.74,1.83Z"/>
      <path class="cls-4" d="M21.12,60.52s-.17.05-.45.11c0,0,0,0,0,0,0-.04.02-3.89,0-6.6-.02-2.71-.41-6.86-.42-6.9,0-.06-.06-.11-.12-.1-.06,0-.11.06-.1.12,0,.04.39,4.18.42,6.88.02,2.71,0,6.56,0,6.6,0,.02.01.04.02.06-2.01.49-8.22,1.87-10.93.87-.06-.02-.12,0-.14.07-.02.06,0,.12.07.14.73.27,1.68.37,2.73.37,3.75,0,8.72-1.33,8.98-1.4.06-.02.1-.08.08-.14-.02-.06-.08-.1-.14-.08Z"/>
      <path class="cls-4" d="M22.51,64.93c-.42.22-.91.45-1.45.68.04.63.29,5.12.19,8.34-.05,1.44-.05,3.6-.05,5.88,0,1.9,0,3.84-.04,5.43l-.02-.29-.22,1.16c.04-1.71.05-4.04.05-6.3,0-2.28,0-4.44.05-5.88.1-3.1-.13-7.38-.18-8.24-2.78,1.14-6.66,2.17-9.26,2.39-.66.05-1.24.08-1.74.08-.12,0-.24,0-.35,0-1.55-.04-2.21-.29-2.25-.3-.05-.02-.08-.08-.07-.13,0,0,0-.01,0-.02.02-.06.09-.09.14-.06.01,0,1.24.47,4.24.22,3.15-.27,8.21-1.74,10.84-3.14.05-.03.12,0,.15.04.03.05,0,.12-.04.15Z"/>
      <path class="cls-2" d="M10.75,106.06s-.06,0-.08-.03c-.35-.35-.85-1.78-.87-1.84-.02-.06,0-.12.07-.14.06-.02.12.01.14.07.14.4.55,1.5.82,1.76.05.04.05.12,0,.16-.02.02-.05.03-.08.03Z"/>
      <path class="cls-2" d="M32.56,105.61s-.02,0-.04,0c-.56-.18-1.3-1.35-1.33-1.4-.03-.05-.02-.12.04-.15.05-.03.12-.02.15.04.2.32.8,1.17,1.21,1.3.06.02.09.08.07.14-.02.05-.06.08-.11.08Z"/>
      <path class="cls-2" d="M183.92,42.95c-.26-.16-.59-.29-.81-.24-.13.03-.33.34-.49.59-.26.39-.52.8-.82.8-.03,0-.06,0-.08,0-.48-.11-.63-3.21-.67-5.01.07-.05.14-.1.21-.15.04,1.77.24,4.75.52,4.94.19.04.45-.37.66-.69.22-.35.42-.64.64-.69.21-.05.48.03.73.14.04.1.08.2.12.32Z"/>
      <path class="cls-2" d="M190.01,38.91s-.01.09-.04.11c-.18.21-.88.28-1.7.36-.19.02-.34.03-.42.05-.11.12-.13,1.22-.07,2.35-.09-.18-.17-.36-.25-.53-.04-1.32.06-2,.29-2.04.08-.01.25-.03.44-.04.43-.04,1.28-.12,1.51-.25-.23-.34-2.13-1.75-4.09-3.11.09-.03.19-.05.29-.08,1.54,1.09,3.99,2.85,4.04,3.19Z"/>
      <path class="cls-2" d="M192.76,50.01c-.06,0-.11-.05-.11-.1,0-.06.04-.12.1-.12.03,0,3.32-.29,4.46-1.43.04-.04.11-.04.16,0,.04.04.04.12,0,.16-1.2,1.2-4.46,1.48-4.6,1.5,0,0,0,0,0,0Z"/>
      <path class="cls-2" d="M208.3,72.26s-.03,0-.05-.01c-.06-.03-.08-.09-.05-.15,0-.02.96-2.02,1.52-3.36.02-.06.09-.08.15-.06.06.02.08.09.06.15-.57,1.35-1.52,3.35-1.53,3.37-.02.04-.06.07-.1.07Z"/>
      <path class="cls-2" d="M205.63,55.86c-.5-2.5-1.58-3.4-3.22-4.74-.22-.18-.44-.36-.68-.56-2.06-1.73-3.82-3.99-4.68-5.18-.04-.05-.11-.06-.16-.02-.05.04-.06.11-.02.16.87,1.2,2.64,3.47,4.72,5.22.24.2.46.39.68.56,1.66,1.37,2.66,2.19,3.14,4.62.35,1.77.02,7.61-.26,11.56-.01,0-.03,0-.04,0l-3.49,1.49s-.06.04-.06.08c0,.03,0,.07.02.1l1.07,1.4s.06.05.09.05c.02,0,.04,0,.06-.02.07-.05,1.69-1.02,2.23-1.37-.1,1.24-.17,2.05-.17,2.08,0,.06.04.12.1.12,0,0,0,0,0,0,.06,0,.11-.04.11-.1.05-.52,1.11-12.65.56-15.43ZM205.01,68.92c-.31.21-1.87,1.16-2.26,1.39l-.92-1.21,3.29-1.4c-.03.43-.06.84-.09,1.22,0,0-.02,0-.02,0Z"/>
      <path class="cls-2" d="M189.31,69.69c0-.06-.05-.1-.11-.1h-.76s-.03.01-.05.02c-.28-2.75-.89-5.17-1.59-6.78-1.32-3.04-5.34-12.14-5.38-12.23-.03-.06-.09-.08-.15-.06-.06.02-.08.09-.06.15.04.09,4.06,9.19,5.38,12.23,1.29,2.98,2.28,8.7,1.4,14.22l-1.44,5.13c-.02.06.02.12.08.14,0,0,.02,0,.03,0,.05,0,.09-.03.11-.08l1.44-5.15c.26-1.65.35-3.32.33-4.93h.95s.06-.01.08-.04c.02-.02.03-.06.03-.09l-.3-2.44ZM188.55,72.03c-.02-.76-.07-1.5-.14-2.23.01,0,.02.01.03.01h.66l.27,2.21h-.82Z"/>
      <path class="cls-2" d="M175.54,93.24h0c-.06,0-.11-.05-.11-.11.04-1.59-.48-8.66-.49-8.73,0-.06.04-.12.1-.12.07,0,.12.04.12.1,0,.07.53,7.15.49,8.75,0,.06-.05.11-.11.11Z"/>
      <path class="cls-2" d="M200.12,85.73s-.09-.03-.11-.08c-.95-3.52-2.28-7.54-2.29-7.58-.02-.06.01-.12.07-.14.06-.02.12.01.14.07.01.04,1.34,4.07,2.29,7.6.02.06-.02.12-.08.14-.01,0-.02,0-.03,0Z"/>
      <path class="cls-2" d="M188.75,105.05s-.09-.02-.1-.07c-.03-.06,0-.12.06-.15.21-.09,1.06-.65,1.37-.85.05-.03.12-.02.16.03.03.05.02.12-.03.16-.04.03-1.14.76-1.41.87-.01,0-.03,0-.04,0Z"/>
      <path class="cls-2" d="M209.65,106.62s-.06-.01-.08-.03c-.04-.04-.04-.11,0-.16.21-.21.76-1.19.96-1.55.03-.05.1-.08.15-.05.05.03.07.1.05.15-.03.05-.72,1.33-1,1.6-.02.02-.05.03-.08.03Z"/>
      <path class="cls-6" d="M175,37.63c0,.33-.15.63-.37.84-.01,0-.02,0-.03,0-.52-.38-.93-.86-1.31-1.26-.1-.1-.2-.22-.31-.33.21-.24.52-.4.86-.4.63,0,1.15.52,1.15,1.15Z"/>
      <g>
        <path class="cls-8" d="M184.55,40.92c-.25.16-.5.18-.76.12-.32-.08-.62-.29-.87-.5-.13-.12-.25-.23-.34-.34.04-.05.08-.11.11-.16.4-.73.52-2.1.27-3.58-.06-.36-.14-.72-.24-1.08.08.09.17.18.25.28.16.18.32.37.49.56.13.15.26.31.38.47.82,1.05,1.72,3.6.71,4.24Z"/>
        <path class="cls-17" d="M183.79,41.04c-.32-.08-.62-.29-.87-.5-.13-.12-.25-.23-.34-.34.04-.05.08-.11.11-.16.4-.73.52-2.1.27-3.58-.06-.36-.14-.72-.24-1.08.08.09.17.18.25.28.67,1.39,1.61,4.04.83,5.38Z"/>
      </g>
      <path class="cls-17" d="M19.73,36.1c.02.33.03.77,0,1.2-.94.36-1.69.05-2.24-.49-.06-.14-.13-.29-.18-.43-.33-.8-.58-1.58-.67-1.88.23.19.59.45,1.15.71.81.38,1.52.4,1.91.37,0,.05.03.25.04.53Z"/>
      <path class="cls-17" d="M20.01,35.53h0s0,0,0,0c0,0,0,0,0,0Z"/>
      <path class="cls-7" d="M14.5,29.42s5.19-2.34,9.26-2.37c0,0,.31,1.88-.03,2.18-.34.3-1.95.53-2.23.36-.28-.17-.54-.9-.95-.87-.41.03-.67.41-.8.87-.14.47-.4,1.1-1.3,1.46-.9.36-1.15.51-1.83.28-.69-.22-2.11-1.9-2.11-1.9Z"/>
      <path class="cls-2" d="M17.28,29.22c0-.27.22-.49.49-.49s.49.22.49.49-.22.49-.49.49-.49-.22-.49-.49Z"/>
      <path class="cls-2" d="M22.12,28.1c0-.27.22-.49.49-.49s.49.22.49.49-.22.49-.49.49-.49-.22-.49-.49Z"/>
      <g>
        <path class="cls-6" d="M16.22,32.69c0-.59.48-1.06,1.06-1.06s1.06.47,1.06,1.06-.47,1.06-1.06,1.06-1.06-.47-1.06-1.06Z"/>
        <path class="cls-6" d="M23.75,30.57c0,.72-.07,1.44-.19,2.11-.49-.09-.87-.52-.87-1.04,0-.59.47-1.06,1.06-1.06Z"/>
      </g>
      <path class="cls-12" d="M96.07,24.59h32.08c.99,0,1.8.81,1.8,1.8v41.76c0,.99-.81,1.8-1.8,1.8h-32.08c-.99,0-1.8-.81-1.8-1.8V26.39c0-.99.81-1.8,1.8-1.8Z"/>
      <path class="cls-15" d="M130.4,25.37c0,.68-.55,1.23-1.23,1.23h-34.13c-.68,0-1.23-.55-1.23-1.23h0c0-.68.55-1.23,1.23-1.23h34.13c.68,0,1.23.55,1.23,1.23h0Z"/>
      <path class="cls-4" d="M129.95,36.79v31.36c0,1-.8,1.8-1.8,1.8h-32.08c-1,0-1.8-.81-1.8-1.8v-28.93c2.01-.87,5.39-1.59,10.47-.48,7.98,1.76,18.39,2.06,25.21-1.95Z"/>
      <path class="cls-13" d="M101.34,47.27c0-1.07.87-1.93,1.93-1.93s1.93.87,1.93,1.93-.87,1.94-1.93,1.94-1.93-.87-1.93-1.94Z"/>
      <path class="cls-13" d="M115.3,59.26c0-1.07.86-1.93,1.93-1.93s1.93.87,1.93,1.93-.87,1.93-1.93,1.93-1.93-.87-1.93-1.93Z"/>
      <path class="cls-13" d="M100.11,63.01c0-1.31,1.06-2.38,2.38-2.38s2.38,1.06,2.38,2.38-1.07,2.38-2.38,2.38-2.38-1.06-2.38-2.38Z"/>
      <path class="cls-13" d="M119.8,44.67c0-1,.81-1.81,1.81-1.81s1.81.81,1.81,1.81-.81,1.82-1.81,1.82-1.81-.81-1.81-1.82Z"/>
      <path class="cls-13" d="M122.62,64.46c0-1,.81-1.81,1.82-1.81s1.81.81,1.81,1.81-.81,1.82-1.81,1.82-1.82-.81-1.82-1.82Z"/>
      <g>
        <path class="cls-13" d="M122.13,77.43c0,.95-.77,1.73-1.73,1.73h-17.28c-.95,0-1.73-.77-1.73-1.73h0c0-.95.77-1.72,1.73-1.72h17.28c.95,0,1.73.77,1.73,1.72h0Z"/>
        <path class="cls-4" d="M99.94,79.16h23.64c.99,0,1.8.81,1.8,1.8v.77c0,.99-.81,1.8-1.8,1.8h-23.65c-.99,0-1.8-.81-1.8-1.8v-.77c0-.99.81-1.8,1.8-1.8Z"/>
        <g>
          <path class="cls-16" d="M111.59,75.71c-1.61.19-2.98-2.48,0-5.36,0,0,3.53,4.95,0,5.36Z"/>
          <path class="cls-10" d="M111.5,74.97c-.86.25-1.23-1.38,0-3.19,0,0,1.72,2.69,0,3.19Z"/>
        </g>
      </g>
      <path class="cls-2" d="M88.64,131.45c-.12,0-.23-.1-.23-.23V10.95c0-.12.1-.22.23-.22s.23.1.23.22v120.28c0,.12-.1.23-.23.23Z"/>
      <path class="cls-2" d="M132.62,83.76h-46.07c-.12,0-.23-.1-.23-.22s.1-.23.23-.23h46.07c.12,0,.23.1.23.23s-.1.22-.23.22Z"/>
      <path class="cls-2" d="M131.87,31.16h-47.95c-.12,0-.22-.1-.22-.22s.1-.22.22-.22h47.95c.13,0,.23.1.23.22s-.1.22-.23.22Z"/>
      <path class="cls-2" d="M91.05,20.03h-14.56c-.12,0-.23-.1-.23-.22s.1-.23.23-.23h14.56c.12,0,.23.1.23.23s-.1.22-.23.22Z"/>
      <polygon class="cls-2" points="145.24 58.24 149.44 58.24 148.6 88.36 146.44 88.36 145.24 58.24"/>
      <path class="cls-2" d="M147.33,106.28c-.12,0-.22-.1-.22-.22V30.94c0-.59,0-1.19,0-1.81.04-7.16.08-16.07-4.79-20.97-2.46-2.48-5.88-3.68-10.45-3.68s-8.24,1.39-10.71,4.14c-4.5,5.01-3.71,12.92-3.7,13,.01.12-.08.24-.2.25-.12.01-.24-.08-.25-.2,0-.08-.82-8.19,3.81-13.35,2.56-2.85,6.27-4.29,11.04-4.29s8.25,1.28,10.77,3.82c5.01,5.03,4.96,14.05,4.92,21.29,0,.62,0,1.22,0,1.81v75.12c0,.12-.1.22-.23.22Z"/>
      <path class="cls-2" d="M87.14,83.53c0-.83.67-1.5,1.5-1.5s1.5.67,1.5,1.5-.67,1.5-1.5,1.5-1.5-.67-1.5-1.5Z"/>
      <path class="cls-2" d="M87.15,30.94c0-.83.67-1.5,1.5-1.5s1.5.67,1.5,1.5-.67,1.5-1.5,1.5-1.5-.67-1.5-1.5Z"/>
      <path class="cls-2" d="M87.27,19.8c0-.76.61-1.37,1.37-1.37s1.37.61,1.37,1.37-.61,1.37-1.37,1.37-1.37-.61-1.37-1.37Z"/>
      <path class="cls-12" d="M179.14,126.66v2.51c0,1-.81,1.8-1.8,1.8h-50.13c-.99,0-1.8-.81-1.8-1.8v-2.51c0-.26.06-.52.16-.74l10-24.1,6.2-14.93v-18.76h17.11v19.21l7.71,14.81,12.38,23.76c.11.23.17.49.17.76Z"/>
      <path class="cls-15" d="M159.63,64.38h-18.61c-1,0-1.8.81-1.8,1.8v.14c0,1,.81,1.8,1.8,1.8h18.61c1,0,1.8-.81,1.8-1.8v-.14c0-.99-.81-1.8-1.8-1.8Z"/>
      <path class="cls-10" d="M178.86,126.66v2.51c0,1-.81,1.8-1.8,1.8h-50.13c-.99,0-1.8-.81-1.8-1.8v-2.51c0-.26.06-.52.16-.74l10-24.1c2.53.07,7.79.24,13.29.64,6.2.46,13.08.17,17.73-.31l12.38,23.76c.11.23.17.49.17.76Z"/>
      <path class="cls-8" d="M181.32,30.08c-.33-.98-1.34-1.77-1.87-1.31.03.61.71,1.68,1.46,2.93.26-.2.71-.7.41-1.62Z"/>
      <path class="cls-8" d="M179.37,34.94c-.79.21-1.46.41-1.46.41,0,0-1.49-.59-2.36.23,0,0,.22.64-.23.56,0,0-.28.87-.14,1.46,0,0,.35,1.09-.55.87-.01,0-.02,0-.03,0-.52-.38-.93-.86-1.31-1.26-.1-.1-.2-.22-.31-.33-.96-1.07-2.06-2.62-2.16-3.34.09-.03.18-.06.27-.1,2.28-.99,2.9-3.21,3.6-3.91.71-.7,1.72-1.71,2.93-.82,1.21.9,2.76,3.38,3.01,4.22.25.85-.48,1.81-1.27,2.02Z"/>
      <path class="cls-10" d="M182.71,35.38c-.13-.45-.3-.9-.5-1.33-.38-.81-.85-1.61-1.3-2.35-.76-1.25-1.43-2.32-1.46-2.93,0,0-.56-2.66-3.51-3.48-1.03-.28-2.51.2-4.45,1.35-1.94,1.15-4.08,3.91-3.97,5.09.11,1.13,1.2,2.55,3.3,1.79.09-.03.18-.06.27-.1,2.28-.98,2.9-3.21,3.6-3.91.7-.71,1.72-1.72,2.93-.82,1.21.9,2.76,3.38,3.01,4.22.25.84-.48,1.81-1.27,2.01-.79.21-1.46.41-1.46.41,0,0-1.49-.59-2.36.23,0,0,.22.65-.23.56,0,0-.28.87-.14,1.46,0,0,.36,1.12-.58.87h0s.95,1.41,3.06,2.45c2,.99,4.17.31,4.92-.72.04-.05.08-.11.11-.17.5-.9.56-2.81.03-4.66Z"/>
      <g>
        <path class="cls-2" d="M180.54,31.2s-.07-.02-.1-.05c-.38-.64-.32-1.45-.28-1.58.02-.06.08-.09.14-.07.06.02.09.08.07.14-.02.07-.09.82.26,1.39.03.05.01.12-.04.16-.02.01-.04.02-.06.02Z"/>
        <path class="cls-2" d="M175.4,36.27c-.05,0-.1-.02-.15-.05-.24-.16-.32-.34-.57-.87-.05-.11-.11-.23-.17-.37-.1-.22-.18-.43-.26-.63-.21-.55-.38-.99-.84-1.07-.51-.09-1.16,1.02-1.37,1.46-.03.06-.1.08-.15.05-.06-.03-.08-.1-.05-.15.08-.17.85-1.7,1.61-1.58.59.1.79.61,1.01,1.21.08.2.15.41.25.62.07.14.12.26.17.37.24.52.31.65.49.78.02.02.03,0,.04,0,.11-.08.18-.51-.04-1.06-.02-.06,0-.12.06-.15.06-.02.12,0,.15.06.25.64.18,1.15-.03,1.32-.05.04-.1.06-.16.06Z"/>
        <path class="cls-2" d="M175.15,31.82s-.01,0-.02,0c-.06,0-.1-.07-.09-.13,0-.02.29-1.63,2.05-1.63.06,0,.11.05.11.11s-.05.11-.11.11c-1.57,0-1.82,1.38-1.83,1.44,0,.06-.06.1-.11.1Z"/>
      </g>
      <path class="cls-2" d="M172.7,34.94c0-.19.15-.34.34-.34s.34.15.34.34-.15.34-.34.34-.34-.15-.34-.34Z"/>
      <path class="cls-2" d="M175.3,32.61c0-.19.15-.34.34-.34s.34.15.34.34-.15.34-.34.34-.34-.15-.34-.34Z"/>
      <path class="cls-6" d="M177.83,33.42c0-.63.51-1.15,1.15-1.15s1.15.51,1.15,1.15-.51,1.15-1.15,1.15-1.15-.52-1.15-1.15Z"/>
    </g>
  </g>
</svg>