<?xml version="1.0" encoding="UTF-8"?>
<svg xmlns="http://www.w3.org/2000/svg" xmlns:xlink="http://www.w3.org/1999/xlink" viewBox="0 0 94.42 106.25">
  <defs>
    <style>
      .cls-1 {
        fill: #ff3e51;
      }

      .cls-1, .cls-2, .cls-3, .cls-4, .cls-5, .cls-6, .cls-7, .cls-8, .cls-9, .cls-10, .cls-11, .cls-12, .cls-13, .cls-14, .cls-15, .cls-16, .cls-17, .cls-18, .cls-19, .cls-20, .cls-21, .cls-22 {
        stroke-width: 0px;
      }

      .cls-2 {
        fill: #00114f;
      }

      .cls-3 {
        fill: #92f1ff;
      }

      .cls-3, .cls-12, .cls-22 {
        opacity: .5;
      }

      .cls-4 {
        fill: url(#linear-gradient);
      }

      .cls-5 {
        fill: #06a899;
      }

      .cls-6 {
        fill: #f88b7f;
      }

      .cls-23 {
        isolation: isolate;
      }

      .cls-7 {
        fill: #fff;
        opacity: .7;
      }

      .cls-8 {
        fill: #f8a786;
      }

      .cls-9 {
        fill: #ff525e;
      }

      .cls-10 {
        fill: url(#linear-gradient-2);
      }

      .cls-11 {
        fill: #008e7d;
      }

      .cls-12, .cls-16 {
        fill: #aceadd;
      }

      .cls-13 {
        fill: #55d3b9;
      }

      .cls-14 {
        fill: url(#linear-gradient-3);
      }

      .cls-15 {
        fill: #18aa5d;
      }

      .cls-17 {
        fill: #88d8c5;
      }

      .cls-18 {
        fill: #213949;
      }

      .cls-19 {
        fill: #f78658;
      }

      .cls-20 {
        fill: #010340;
      }

      .cls-21 {
        fill: url(#linear-gradient-4);
      }

      .cls-22 {
        fill: #13217d;
        mix-blend-mode: multiply;
      }
    </style>
    <linearGradient id="linear-gradient" x1="61.84" y1="83.74" x2="72.57" y2="83.74" gradientUnits="userSpaceOnUse">
      <stop offset="0" stop-color="#18aa5d"/>
      <stop offset="1" stop-color="#3f8f75"/>
    </linearGradient>
    <linearGradient id="linear-gradient-2" x1="72.93" y1="82.72" x2="84.01" y2="82.72" gradientUnits="userSpaceOnUse">
      <stop offset="0" stop-color="#18aa5d"/>
      <stop offset="1" stop-color="#41a336"/>
    </linearGradient>
    <linearGradient id="linear-gradient-3" x1="75.84" y1="78.39" x2="75.14" y2="60.43" gradientUnits="userSpaceOnUse">
      <stop offset="0" stop-color="#18aa5d"/>
      <stop offset="1" stop-color="#5fc15d"/>
    </linearGradient>
    <linearGradient id="linear-gradient-4" x1="79.89" y1="72.52" x2="90.62" y2="72.52" gradientUnits="userSpaceOnUse">
      <stop offset="0" stop-color="#18aa5d"/>
      <stop offset="1" stop-color="#a3c15d"/>
    </linearGradient>
  </defs>
  <g class="cls-23">
    <g id="Layer_2" data-name="Layer 2">
      <g id="Layer_1-2" data-name="Layer 1">
        <g>
          <path class="cls-9" d="M53.97,14.05s-.89.83-2.15,1.98c-.14.13-.29.27-.44.4-.04.04-.08.08-.12.11h0c-.68.62-1.44,1.3-2.2,1.98-1.62,1.45-3.27,2.88-4.25,3.62.05-.12,1.13-2.55,2.24-4.82.58-1.18,1.15-2.31,1.59-3.05.03-.05.06-.09.08-.13.02-.03.04-.06.05-.09,1.09-1.73,1.67-2.7,1.81-2.93.17.11.53.36.98.71.71.54,1.63,1.34,2.41,2.22Z"/>
          <path class="cls-1" d="M53.97,14.05s-.89.83-2.15,1.98c-.44-1.05-.62-2.53-.26-4.2.71.54,1.63,1.34,2.41,2.22Z"/>
          <path class="cls-2" d="M51.38,16.43s-.08.08-.12.11l-.31-2.06-2.31-.21s.06-.09.08-.13l2.29.21s.06.03.06.06l.3,2.02Z"/>
          <path class="cls-13" d="M51.27,16.28l-1.89.75-.33,1.5c-1.62,1.45-3.27,2.88-4.25,3.62.05-.12,1.13-2.55,2.24-4.82l1.94-.51.4-2.47,1.56.14.32,1.79Z"/>
          <path class="cls-18" d="M44.31,74.31c-.13,4.2-.02,23.95,0,27.08-.13-.02-.26-.04-.39-.05-2.58-.22-4.14.61-4.66.95-1.33-2.42-3.08-11.97-3.36-17.68-.28-5.82-1.05-12.35-2.53-15.72-.78-1.77-2.56-5.68-4.08-8.98-1.37-2.98-2.52-5.47-2.52-5.47,0,0-.08,1.46-.23,3.63-.15,2.18-.36,5.07-.61,7.94-.49,5.75-1.82,9.54-5.19,14.24-3.14,4.39-14.28,18.05-15.76,19.86-.21-.15-.42-.29-.63-.43-2.2-1.45-3.47-1.82-3.47-1.82.42-3.3,8.35-18.52,11.93-23.72,3.58-5.19,3.51-8.21,3.09-10.45-.34-1.82-1.38-6.88-1.53-9.83-.01-.25-.02-.49-.02-.7,0-.38.02-.7.07-.95,2.55,1.25,7,3.2,10.65,3.61,0,0,3.8-9.12,5.56-11.69-.04.27-1.25,8.14.85,13.75,0,0,1.51,1.03,8.91,1.08.34.71.67,1.42.96,2.13,2.02,4.77,3.06,9.5,2.95,13.21Z"/>
          <path class="cls-22" d="M41.36,61.1c-4.55.69-10.13-.65-12.07-1.18-1.37-2.98-2.52-5.47-2.52-5.47,0,0-.08,1.46-.23,3.63-4.68-.22-9.68-2.76-12.17-4.21-.01-.25-.02-.49-.02-.7,0-.38.02-.7.07-.95,2.55,1.25,7,3.2,10.65,3.61,0,0,3.8-9.12,5.56-11.69-.04.27-1.25,8.14.85,13.75,0,0,1.51,1.03,8.91,1.08.34.71.67,1.42.96,2.13Z"/>
          <path class="cls-16" d="M53.97,14.05s-.77.71-1.88,1.73c-.22.21-.46.42-.71.65-.04.04-.08.08-.12.12-.24.21-.48.43-.73.66-.05.04-.1.09-.15.13-2,1.81-4.33,3.87-5.58,4.82,0,0,1.64-3.69,2.97-6.27l.12-.23c.28-.53.53-1,.75-1.38.03-.05.06-.09.08-.13.02-.03.04-.06.05-.09,1.09-1.73,1.67-2.7,1.81-2.93.02-.04.03-.06.03-.06-.19-.11-.4-.23-.64-.36-.04-.02-.09-.05-.13-.07-2.04-1.14-5.73-3.05-9.49-2.8-4.31.29-16.37,8.29-19.69,10.72-1.72,1.26-4.03,4.08-4.74,7.67-.64,3.18-.03,6.96,3.32,10.79l.02.02c.15.17.31.35.47.52,0,0-2.57,3.93-4.73,7.06-2.15,3.13-2.67,6.55-2.67,6.55,0,0,.8.45,2.07,1.07,2.55,1.25,7,3.2,10.65,3.61,0,0,3.8-9.12,5.56-11.69-.04.27-1.25,8.14.85,13.75,0,0,1.51,1.03,8.91,1.08.5,0,1.04,0,1.6,0,0,0-1.5-4.72-.98-10.15.35-3.73,1.45-7.41,2.37-9.75h0c.42-1.06.79-1.85,1.04-2.22,0,0-.54-.66-.87-1.88-.31-1.14-.45-2.77.21-4.81.11-.35.24-.7.39-1.05.02-.04.04-.09.05-.13.89-2.09,2.3-4.06,3.68-5.59,0,0,0,0,0,0,1.09-1.22,2.18-2.18,2.98-2.72.86-.58,2.13-1.17,3.31-1.65,1.59-.65,3.01-1.11,3.01-1.11,0,0-1.92-2.63-3.23-3.84ZM25.29,30.1s0,0,0,0c-.03-.08-.33-.91-.13-2.13,0-.05.02-.11.03-.17.01-.05.02-.11.03-.16.02-.1.05-.2.08-.3,0-.03.02-.07.03-.1.08-.27.19-.56.34-.85,1.01-2.1,4.97-3.67,5.1-3.72-1.27,1.13-5.47,7.43-5.47,7.43Z"/>
          <path class="cls-16" d="M61.03,23.56c-.89,3.04-2.29,9.57-1.08,11.44-2.99,1.28-5.88,1.88-8.38,2-.74.04-1.45.03-2.11-.01-.34-.05-.68-.11-1.02-.18,0,0-.28-3.37.61-4.35,0,0-2.92,1.87-3.88,3.32,0,0-.14.02-.35-.01-.38-.23-.69-.49-.91-.76-.07-.09-.14-.18-.19-.28-.66-1.18-.42-3.35.44-5.6.02-.04.04-.09.05-.13.79-2.03,2.09-4.11,3.68-5.59,0,0,0,0,0,0,.18-.17.36-.33.55-.48,1.75-1.41,3.75-2.67,6.09-3.69,1.7-.74,3.59-1.36,5.7-1.82.41.45.76,1.08.97,1.88.3,1.13.32,2.59-.18,4.29Z"/>
          <path class="cls-17" d="M57.2,17.89s-1.42.46-3.01,1.11c-1.13-.73-1.78-1.89-2.1-3.22,1.11-1.02,1.88-1.73,1.88-1.73,1.31,1.21,3.23,3.84,3.23,3.84Z"/>
          <path class="cls-17" d="M61.21,19.26c-3.09.85-5.23.71-6.67-.05,1.7-.74,3.59-1.36,5.7-1.82.41.45.76,1.08.97,1.88Z"/>
          <path class="cls-17" d="M43.56,34.96c.33,1.21.87,1.88.87,1.88-.25.38-.63,1.16-1.04,2.22-.37-1.1-.55-2.41-.05-3.65.06-.15.14-.3.22-.45Z"/>
          <path class="cls-17" d="M51.58,36.99c-.74.04-1.45.03-2.11-.01-.34-.05-.68-.11-1.02-.18,0,0-.28-3.37.61-4.35,0,0-2.92,1.87-3.88,3.32,0,0-.14.02-.35-.01-.38-.23-.69-.49-.91-.76-.07-.09-.14-.18-.19-.28,1.81-2.71,7.3-5.21,7.3-5.21-1.69,2.44-.45,5.64.56,7.49Z"/>
          <path class="cls-17" d="M33.43,21.12c-1.33,2.03-7.65,10.31-7.65,10.31-.35-.63-.49-1.33-.49-1.33,0,0,4.21-6.3,5.47-7.43-.12.05-4.08,1.62-5.1,3.72-.24.51-.4.98-.48,1.41.84-4.76,8.25-6.68,8.25-6.68Z"/>
          <path class="cls-17" d="M25.95,41.51l-.66.85s-3.46-2.78-6.03-5.33l-.02-.02c-3.35-3.82-3.96-7.61-3.32-10.79.39,3.52,1.86,6.97,3.76,9.47,2.32,3.04,6.27,5.81,6.27,5.81Z"/>
          <path class="cls-8" d="M65.69,10.15c-1.2,1.47-3.29,3.06-5.6,3.66-.73.19-1.48.28-2.23.24-.13,0-.25-.02-.38-.03-1.49-.17-2.46-.62-3.09-1.23-.67-.65-.97-1.49-1.12-2.42-.02-.12-.04-.25-.05-.38-.23-1.97,1.22-4.44,1.22-4.44-1.26-.65.38-3.6,1.59-3.88.88-.21,1.2.19,1.11.7-1.07.9-1.7,1.69-1.39,1.5,2.48-1.5,5.04-.96,6.46-.67,1.41.29,2.2,2.16,2.24,4.33-.05.4.03.78.17,1.12.21.68.61,1.17,1.09,1.5Z"/>
          <path class="cls-20" d="M64.61,8.65c.21.69.61,1.18,1.09,1.5,0,0,.01-.01.02-.02,0,0-.75-.6-1.1-1.48Z"/>
          <path class="cls-20" d="M67.34,2.16C64.63.03,62.9-.49,60.28.45c-1.16.41-2.3,1.2-3.15,1.92-1.07.9-1.7,1.68-1.39,1.5,2.48-1.5,5.04-.96,6.46-.67,1.41.29,2.2,2.16,2.24,4.33h0c0,.42.07.8.17,1.12.35.88,1.1,1.48,1.1,1.48,0,0-.01.01-.02.02.46.32,1,.49,1.51.54,1.31.14,2.34.28,3.04-1.54.7-1.82-.19-4.86-2.9-6.99Z"/>
          <path class="cls-9" d="M4.97,100.14c-.21-.15-.42-.29-.63-.43-2.2-1.45-3.47-1.82-3.47-1.82-.42.42-1.03,1.82-.84,2.2.19.37,3.32,2.24,4.91,3.09s3.23,1.45,3.74.94c.46-.47-1.67-2.51-3.72-3.97Z"/>
          <path class="cls-9" d="M44.31,101.39c-.13-.02-.26-.04-.4-.05-2.58-.22-4.14.61-4.66.95-.13.09,0,0,0,0-.05.44.41,1.57.73,1.67.33.09,7.91.38,8.79.33.85-.05-1.44-2.45-4.47-2.9Z"/>
          <path class="cls-16" d="M59.45,37.96c-.45.16-.88.29-1.31.41,1.37.19,4.13.3,7.57-.93-1-.2-1.94-.68-2.45-1.14-1.33.68-2.63,1.25-3.81,1.66Z"/>
          <path class="cls-8" d="M67.72,33.89s-.06-.03-.17-.08h0c.1.06.17.08.17.08Z"/>
          <path class="cls-8" d="M67.55,33.81s-.01,0-.02,0c0,0,.01,0,.02.01h0Z"/>
          <path class="cls-8" d="M69.31,32.61c-.21-.04-.43-.07-.65-.08-1.12-.04-1.92-.28-2.11.24-.14.39.61.84.98,1.03,0,0,.01,0,.02,0,.1.05.17.08.17.08,0,0-.07-.03-.17-.08,0,0-.01,0-.02-.01-.4-.18-1.32-.53-1.82-.09-.36.3.08.66.55.92.39.22.81.37.81.37,0,0-.42-.16-.93-.29-.66-.18-1.48-.34-1.74-.1-.23.21.1.55.48.84.38.29.83.52.83.52,0,0-.51-.2-1.08-.37-.72-.21-1.57-.36-1.72,0-.05.11-.02.23.06.38.06.11.17.23.3.35.5.46,1.44.94,2.45,1.14.6.12,1.22.14,1.78,0,2.06-.51,2.71-2.06,3.13-3.23.34-.94-.42-1.43-1.31-1.61Z"/>
          <g>
            <path class="cls-8" d="M54.39,12.78c-.43.35-1.19.92-2.04,1.4-.12.07-.25.14-.38.2-1.49.75-1.46-.14-1.23-1.03.14-.54.87-1.35,1.57-2.06.35-.36.7-.68.96-.93.15.93.45,1.77,1.12,2.42Z"/>
            <path class="cls-19" d="M54.39,12.78c-.43.35-1.19.92-2.04,1.4-.36-.75-.29-1.9-.04-2.89.35-.36.7-.68.96-.93.15.93.45,1.77,1.12,2.42Z"/>
          </g>
          <path class="cls-3" d="M57.68,1.93c.09-.07,1.75.77,3.23,2.32,1.47,1.54,3.05,4.24,3.7,7.33,0,0-1.36,1.14-3.07,1.71,0,0-1.19-1.19-1.09-1.71.11-.52.87-1.66.98-2.18.11-.52-.35-.87-1.29-.9-.95-.03-2.57-.14-2.93-1.09-.36-.95-1.22-3.94-1.22-3.94,0,0,1.17-1.14,1.7-1.53Z"/>
          <path class="cls-12" d="M51.37,20.61c-2.57,1.24-4.65,3.06-6.94,7.84-2.29,4.78-1.57,8.33,5.04,8.53s12.59-2.24,19.16-6.87c6.58-4.63,6.7-6.83,6.87-7.95.17-1.13,1.27-3.82-5.29-5.24-6.56-1.41-13.2.98-18.84,3.69Z"/>
          <path class="cls-7" d="M72.68,22.15c-1.78-1.36-5.84,2.01-6.08,4.23-.24,2.22,2.8,1.65,4.72.25,1.92-1.4,2.53-3.6,1.36-4.48Z"/>
          <path class="cls-2" d="M47.72,14.05l.17,1.61-.12.23-.18-1.76-2.19-.12s-.05-.02-.06-.05c0-.03,0-.06.03-.08l4.49-3.24s.09.05.13.07l-4.38,3.17,2.05.11s.07.03.07.06Z"/>
          <path class="cls-2" d="M52.16,17.39s-.03.07-.07.07h0l-1.7-.12s.1-.09.15-.13l1.57.11s.07.04.06.08Z"/>
          <path class="cls-2" d="M25.26,27.56s-.01,0-.02,0c-.04,0-.06-.04-.05-.08.37-1.66,1.9-3.18,4.43-4.38,1.22-.58,3.55-1.85,5.42-2.87,2.89-1.58,3.18-1.72,3.26-1.68.04,0,.05.05.04.09-.01.03-.04.05-.07.04-.16.04-1.62.83-3.16,1.67-1.87,1.02-4.2,2.29-5.43,2.87-2.46,1.17-4,2.69-4.36,4.28,0,.03-.03.05-.07.05Z"/>
          <path class="cls-2" d="M29.41,38.45s-.05-.01-.06-.04c-.01-.03-1.74-3.32-2.75-5.13-1.03-1.86-1.39-3.21-1.58-3.94,0-.04.01-.08.05-.09.04-.01.07.01.08.05.19.72.55,2.06,1.57,3.91,1.01,1.81,2.73,5.1,2.75,5.13.02.03,0,.08-.03.1,0,0-.02,0-.03,0Z"/>
          <path class="cls-2" d="M25.29,42.43s-.03,0-.04-.02c-.05-.04-5.1-3.96-6.94-6.44-.02-.03-.02-.07.01-.1.03-.02.08-.01.1.02,1.82,2.46,6.86,6.37,6.91,6.41.03.02.04.07.01.1-.01.02-.04.03-.06.03Z"/>
          <path class="cls-2" d="M32.86,39.34s-.03,0-.04-.01c-.03-.02-.04-.06-.02-.1.29-.46,1.36-2.04,2.6-3.87,1.79-2.64,4.02-5.93,4.85-7.26,1.39-2.23,4.46-5.96,4.5-6,.02-.03.07-.03.1,0,.03.02.03.07,0,.1-.03.04-3.1,3.76-4.49,5.98-.83,1.33-3.06,4.62-4.85,7.26-1.24,1.83-2.31,3.41-2.59,3.87-.01.02-.04.03-.06.03Z"/>
          <path class="cls-2" d="M45.01,36s-.03,0-.04-.01c-.03-.03-.03-.07,0-.1.02-.02,1.94-2.23,4.06-3.51.03-.02.08,0,.09.02.02.03,0,.08-.02.1-2.09,1.26-4,3.46-4.02,3.48-.01.02-.03.02-.05.02Z"/>
          <path class="cls-2" d="M55.07,4.28s-.03,0-.04-.01c-.03-.02-.04-.06-.02-.1.27-.43.44-1.15.45-1.3,0,0,0,0,0,0-.02-.03,0-.08.02-.1.03-.02.07-.02.1,0,.11.1-.18,1.05-.44,1.47-.01.02-.04.03-.06.03Z"/>
          <path class="cls-2" d="M61.1,6.64s-.07-.03-.07-.07c-.03-1.87-1.76-2.47-2.29-2.61h-.03s-.06-.06-.04-.1c.01-.04.05-.06.09-.05h.02c.55.15,2.36.79,2.39,2.76,0,.04-.03.07-.07.07h0Z"/>
          <path class="cls-2" d="M58.48,12.07s-.07,0-.11-.04c-.29-.26-.35-2-.36-2.2,0-.04.03-.07.07-.07.04,0,.07.03.07.07.02.72.13,1.93.31,2.1.11,0,.54-.41.96-.79.94-.87,2.22-2.06,3.04-2.2,1.28-.22,2.26,1.85,2.3,1.94.02.03,0,.08-.04.09-.04.02-.08,0-.09-.03,0-.02-.97-2.06-2.15-1.86-.78.13-2.1,1.35-2.97,2.16-.6.56-.9.83-1.03.83h-.01Z"/>
          <path class="cls-2" d="M56.99,12.35s-.01,0-.02,0c-1.42-.32-1.37-1.96-1.37-1.98,0-.04.04-.07.07-.07.04,0,.07.03.07.08,0,.06-.04,1.54,1.27,1.84.04,0,.06.04.05.08,0,.03-.04.06-.07.06Z"/>
          <path class="cls-2" d="M55.06,13.36s-.02,0-.04,0c-1.26-.71-1.64-2.15-1.66-2.21-.01-.04.01-.08.05-.08.04-.01.08,0,.09.05,0,.02.39,1.45,1.59,2.13.04.02.05.06.03.1-.01.02-.04.03-.06.03Z"/>
          <path class="cls-2" d="M58.74,6.57c0-.22.18-.4.4-.4s.4.18.4.4-.18.4-.4.4-.4-.18-.4-.4Z"/>
          <path class="cls-2" d="M61.8,10.76c0-.22.18-.4.4-.4s.4.18.4.4-.18.4-.4.4-.4-.18-.4-.4Z"/>
          <path class="cls-6" d="M53.95,8.08c0-.61.5-1.11,1.12-1.11s1.11.5,1.11,1.11-.5,1.11-1.11,1.11-1.12-.5-1.12-1.11Z"/>
          <path class="cls-6" d="M60.09,13.81c-.73.19-1.48.28-2.23.24,0-.03,0-.08,0-.11,0-.62.5-1.12,1.12-1.12.58,0,1.05.43,1.11,1Z"/>
          <g>
            <path class="cls-12" d="M72.32,94.46c-12.01,0-21.75.34-21.75,1.96,0,1.96,9.74,1.96,21.75,1.96s22.1-.49,22.1-1.96h0c0-1.96-10.09-1.96-22.1-1.96Z"/>
            <path class="cls-4" d="M61.85,78.47s-.28,6.64,2.04,8.46c2.32,1.83,5.11,2.28,8.68,2,0,0-.76-4.24-3.49-6.7-2.74-2.46-7.23-3.76-7.23-3.76Z"/>
            <path class="cls-10" d="M83.88,79.99s-9.33-1.89-10.95,5.68h4.56c2.38,0,7.37-1.68,6.38-5.68Z"/>
            <path class="cls-14" d="M76.46,78.23s3-3.57,2.3-7.57c-.7-4-4.77-7.44-4.77-7.44,0,0-2.46,4.63-1.54,8.7.91,4.07,4.02,6.31,4.02,6.31Z"/>
            <path class="cls-21" d="M79.89,75.68s1.04-5.44,4.83-6.77c3.79-1.33,5.89,1.39,5.89,1.39,0,0-1.05,3.8-4.98,5.48-3.93,1.69-5.75-.1-5.75-.1Z"/>
            <path class="cls-15" d="M73.52,83.3s1.67-3.44-2.33-6.71c0,0-.74,5.8,2.33,6.71Z"/>
            <path class="cls-18" d="M57.2,104.83s4.86-4.42,6.34-6.11c1.47-1.68,2.44-2.74,3.61-2.74s2.22.42,3.06-.35c.84-.77,2.24-1.47,5.05-1.05,2.81.42,4.56,2.46,5.26,3.16.7.7,1.33,1.8,3.23,1.64,1.89-.17,3.93,1.94,4.35,5.45h-30.9Z"/>
            <path class="cls-12" d="M72.32,98.37c-12.01,0-21.75,0-21.75-1.96v7.88c0,1.96,9.74,1.96,21.75,1.96s22.1-.49,22.1-1.96v-7.88c0,1.47-10.09,1.96-22.1,1.96Z"/>
            <path class="cls-2" d="M69.53,98.46c-9.06,0-16.49-.68-17.37-.87-.04,0-.06-.05-.05-.08,0-.04.04-.06.08-.06.91.2,9.72.98,19.6.85l1.48-.02c9.42-.12,15.64-.2,18.68-.88.04,0,.08.01.08.05,0,.04-.01.07-.05.08-3.06.68-9.29.76-18.71.88l-1.48.02c-.76.01-1.51.01-2.26.01Z"/>
            <path class="cls-2" d="M87.53,72.93c-.8.24-1.53.11-1.84.04.71-.46,1.25-.92,1.54-1.43.02-.04,0-.08-.03-.09-.03-.02-.08,0-.1.03-.41.71-1.33,1.35-2.56,1.99.24-.49.93-1.86,1.6-2.71.02-.03.02-.08-.01-.1-.03-.02-.07-.02-.1.01-.79,1.01-1.6,2.7-1.7,2.9-.75.38-1.61.77-2.55,1.19.83-1.45,2.03-3.49,2.24-3.62.04-.02.04-.06.03-.1-.02-.03-.06-.04-.1-.03-.32.19-2.13,3.38-2.39,3.83-.15.07-.29.13-.44.19-.37.17-.75.33-1.14.51-1.31.58-2.47,1.43-3.47,2.51,0-.4-.06-1.43-.17-2.79.17-.33,1.43-2.91,1.2-4.21,0-.04-.04-.07-.08-.06-.04,0-.06.04-.06.08.19,1.09-.75,3.19-1.09,3.92-.11-1.32-.27-2.91-.5-4.51.13-.18.79-1.12.7-2.46,0-.04-.03-.07-.07-.07t0,0s-.07.03-.06.07c.07,1.09-.38,1.93-.59,2.25-.33-2.28-.81-4.57-1.46-6.12-.01-.04-.06-.05-.09-.04-.04.02-.05.06-.04.09.41.97.75,2.24,1.02,3.61-.25-.35-.72-.93-1.35-1.36-.03-.02-.08-.01-.1.02-.02.03-.01.08.02.1.9.59,1.48,1.56,1.5,1.6.14.74.27,1.51.38,2.27,0,.01,0,.02,0,.03.14.95.25,1.89.34,2.78-.49-.96-1.65-2.54-1.7-2.62-.02-.03-.07-.04-.1-.01-.03.02-.04.07-.01.1.01.02,1.48,2.04,1.83,2.9,0,.01.01.02.03.03.05.56.1,1.09.14,1.57,0,0,0,0,0,0-.01.02,0,.05,0,.07.13,1.62.18,2.76.17,2.9-1.18,1.33-2.13,3-2.82,4.98-.07-.25-.3-1.03-.59-1.96.07-.11.29-.49.25-1.05,0-.04-.04-.07-.07-.07-.04,0-.07.04-.07.07.02.4-.09.7-.17.86-.4-1.29-.9-2.8-1.25-3.54-.02-.04-.06-.05-.09-.04-.04.02-.05.06-.04.09.21.45.47,1.18.74,1.97-.33-.24-.87-.5-.9-.52-.03-.02-.07,0-.09.04-.02.03,0,.08.04.09.24.11.88.45,1.05.66.55,1.66,1.07,3.48,1.08,3.51,0,.02.03.04.05.04-.2.58-.37,1.2-.53,1.83-.3,1.23-.42,2.45-.45,3.58-.3-.36-1.37-1.55-2.91-2.42-.25-.14-.54-.28-.84-.43-.09-.18-.89-1.79-.71-3.48,0-.04-.03-.07-.06-.08-.04,0-.07.02-.08.06-.15,1.49.42,2.9.65,3.4-.8-.38-1.72-.83-2.63-1.56-.06-.17-.87-2.26-.87-3.23,0-.04-.03-.07-.07-.07s-.07.03-.07.07c0,.84.57,2.43.8,3.05-1.13-.97-2.25-2.4-3.09-4.71-.01-.03-.05-.05-.09-.04-.04.01-.05.05-.04.09,1.06,2.89,2.53,4.42,3.94,5.39-.44.04-1.48.15-2.31.56-.04.02-.05.06-.03.09.01.02.04.04.06.04.01,0,.02,0,.03,0,.98-.48,2.26-.55,2.45-.56.68.44,1.35.76,1.95,1.05.35.17.68.32.97.49.14.08.28.17.42.26-.37,0-1.14.03-2.26.32-.04,0-.06.05-.05.08,0,.03.04.05.07.05h.02c1.53-.4,2.41-.31,2.46-.3,1.41.95,2.29,2.07,2.3,2.08,0,0,.01,0,.02.01-.02,2.43.44,4.45.71,5.41.01.04.02.07.02.08,0,.03.03.06.06.06,0,0,0,0,0,0,.04,0,.07-.03.07-.07,0-.02,0-.02-.02-.11-.37-1.35-1.12-4.75-.41-8.45.05-.08.73-1.11,2.09-2.02.28,0,3.13.02,4.52.48,0,0,.01,0,.02,0,.03,0,.06-.02.07-.05.01-.04,0-.08-.04-.09-1.24-.41-3.6-.48-4.35-.49.41-.26.88-.5,1.41-.71.83-.32,1.76-.64,2.67-.94.19.04,2.09.51,2.84.94.01,0,.02,0,.04,0,.02,0,.05-.01.06-.03.02-.04,0-.08-.03-.1-.65-.36-2.09-.75-2.66-.89,1.83-.61,3.4-1.14,3.8-1.64.02-.03.02-.07-.01-.1-.03-.02-.07-.02-.1.01-.39.48-2.07,1.04-3.85,1.63-.38.13-.77.25-1.15.38.3-.45,1.13-1.69,1.55-1.91.03-.02.05-.06.03-.1-.02-.03-.06-.05-.1-.03-.53.27-1.58,1.92-1.7,2.11-.5.17-.99.35-1.45.52-.63.25-1.18.55-1.64.86t0,0c-.25.16-.46.33-.67.49.27-.56.89-1.77,1.29-2.15.03-.03.03-.07,0-.1-.03-.03-.07-.03-.1,0-.53.51-1.39,2.35-1.45,2.48-.49.43-.82.82-1.01,1.08.02-.11.04-.23.07-.34,1.14-4.73,3.54-8.04,6.94-9.55.39-.17.77-.34,1.14-.51.64-.28,1.25-.55,1.82-.81.18.12,1.08.7,1.98.7.19,0,.37-.03.55-.08.04-.01.06-.05.04-.09-.01-.04-.05-.06-.09-.04-.88.29-2-.34-2.33-.55.45-.21.87-.41,1.26-.61,0,0,0,0,0,0,.4-.2.76-.4,1.09-.61.11.03.5.14,1.01.14.31,0,.66-.04,1.03-.14.04-.01.06-.05.05-.09,0-.04-.05-.06-.09-.04Z"/>
          </g>
          <g>
            <path class="cls-5" d="M75.2,27.18c-1.1,1.61-3.3,3.59-5.89,5.44-.22-.04-.44-.07-.65-.08-1.12-.04-1.92-.28-2.11.23-.14.39.61.84.98,1.03-.4-.18-1.32-.53-1.82-.09-.36.3.08.66.55.92-.04.02-.08.05-.12.07-.66-.18-1.48-.34-1.74-.1-.23.21.09.55.48.84-.08.05-.17.1-.26.14-.72-.21-1.57-.36-1.72,0-.05.11-.02.23.06.38.06.11.17.23.3.35-1.33.68-2.63,1.25-3.81,1.66-.44.16-.88.29-1.31.41-4.8,1.39-8.54,1-11.84-.41-1.59-.68-2.32-1.54-3.12-2.8-.13-.2-.25-.4-.39-.62-1.25-2.03-2.34-6.08.8-10.53,1.91-2.71,4.56-5.04,7.92-6.79,2.14-1.11,4.57-1.98,7.28-2.56,6.97-1.49,13.52-.51,16.56,4.77,0,0-3.27-3.53-10.62-2.78-1.61.17-3.09.41-4.49.72-4,.88-7.2,2.31-9.88,4.11-.67.45-1.3.92-1.91,1.41-3.4,2.75-5.65,8.34-5,11.1.09.39.25.73.46.99.22.28.53.53.91.76,1.05.64,2.66,1.09,4.64,1.22,2.91.19,6.61-.32,10.49-1.98,7.49-3.21,16.47-9.66,15.67-14.76,0,0,2.01,3.36-.42,6.94Z"/>
            <path class="cls-11" d="M51.51,17.23c-.66,1.7-1,3.12-1.15,4.26-.67.45-1.3.92-1.91,1.41-3.4,2.75-5.65,8.34-5,11.1-.12.38-.22.77-.28,1.16-.13-.2-.25-.4-.39-.62-1.25-2.03-2.34-6.08.8-10.53,1.91-2.71,4.56-5.04,7.92-6.79Z"/>
          </g>
          <path class="cls-9" d="M44.52,36.85s-16.95,10.58-17.87,10.26c-.5-.18-.81-.79-.93-1.36-.12-.5-.12-.95,0-1.08.28-.28,6.06-3.95,6.06-3.95,1.27-.9,10.85-6.42,10.85-6.42.33.59.63,1.05.88,1.42.61.84,1,1.14,1,1.14Z"/>
          <path class="cls-1" d="M44.52,36.85s-16.95,10.58-17.87,10.26c-.5-.18-.81-.79-.93-1.36l17.8-10.04c.61.84,1,1.14,1,1.14Z"/>
          <path class="cls-8" d="M25.29,42.36c-.08.12,1.31,1.07,2.2,1.54,0,0,2.01,3.79,2.76,3.46.75-.33-.47-1.96-.47-1.96,0,0,1.45,1.96,1.96,1.45.51-.51-1.17-2.39-1.17-2.39,0,0,1.92,1.78,2.53,1.26.61-.52-1.64-2.95-1.5-2.85.14.09,2.11,2.1,2.62,1.49.51-.61-2.57-3.32-2.43-3.65.14-.33,2.2-1.21,2.01-1.45-.19-.23-3.27.38-3.27.38,0,0-.75-1.12-1.12-1.26,0,0-2.39,1.55-4.12,3.98Z"/>
        </g>
      </g>
    </g>
  </g>
</svg>