<?xml version="1.0" encoding="UTF-8"?>
<svg id="Layer_2" data-name="Layer 2" xmlns="http://www.w3.org/2000/svg" viewBox="0 0 140.15 152.21">
  <defs>
    <style>
      .cls-1 {
        fill: #192e3a;
      }

      .cls-1, .cls-2, .cls-3, .cls-4, .cls-5, .cls-6, .cls-7, .cls-8, .cls-9, .cls-10, .cls-11, .cls-12, .cls-13, .cls-14, .cls-15 {
        stroke-width: 0px;
      }

      .cls-2 {
        fill: #3074fe;
      }

      .cls-3 {
        fill: #00114f;
      }

      .cls-4 {
        fill: #13217d;
      }

      .cls-16, .cls-8 {
        opacity: .5;
      }

      .cls-5 {
        fill: #06a899;
      }

      .cls-6 {
        fill: #f8a786;
      }

      .cls-7 {
        fill: #ff525e;
      }

      .cls-8, .cls-11 {
        fill: #aceadd;
      }

      .cls-9 {
        fill: #55d3b9;
      }

      .cls-10 {
        fill: #fff;
      }

      .cls-12 {
        fill: #88d8c5;
      }

      .cls-13 {
        fill: #213949;
      }

      .cls-14 {
        fill: #f78658;
      }

      .cls-15 {
        fill: #ff7b88;
      }
    </style>
  </defs>
  <g id="Layer_1-2" data-name="Layer 1">
    <g>
      <path class="cls-4" d="M87.62,76.67c0,.6-.48,1.08-1.08,1.08h0c-.59,0-1.08-.48-1.08-1.08v-8.2c0-.59.48-1.08,1.08-1.08h0c.59,0,1.08.48,1.08,1.08v8.2Z"/>
      <path class="cls-4" d="M20.24,94.47s-.08-.01-.11-.04c-.08-.06-.09-.18-.03-.26.08-.1,7.67-9.71,11.35-16.84,5.09-9.85,10.11-21.37,8.69-32.11-.44-3.33-1.12-6.37-2.01-9.05-2.06,1.64-4.32,3.06-7.57,3.81-4.48,1.04-9.41-.35-12.54-3.56-2.54-2.6-3.5-6.01-2.64-9.36.54-2.11,1.91-3.65,3.96-4.44,3.61-1.39,8.35-.24,11.17,1.62,3.32,2.19,5.98,6.08,7.8,11.3.58-.47,1.15-.96,1.72-1.46,2.49-2.15,5.06-4.36,9.19-5.81,8.37-2.93,24.71-1.33,33.2,11.42,7.5,11.26,5.32,24.88,4.14,32.2-.13.79-.24,1.51-.33,2.16-.01.1-.11.17-.21.16-.1-.02-.17-.11-.16-.21.09-.65.21-1.37.33-2.16,1.17-7.27,3.33-20.81-4.09-31.94-8.38-12.58-24.51-14.16-32.78-11.27-4.07,1.42-6.61,3.62-9.08,5.74-.61.53-1.21,1.05-1.83,1.55.93,2.74,1.63,5.84,2.08,9.25,1.43,10.84-3.61,22.43-8.73,32.33-3.7,7.16-11.32,16.8-11.39,16.89-.04.05-.09.07-.14.07ZM22.9,22.37c-1.19,0-2.37.18-3.43.59-1.96.75-3.21,2.16-3.73,4.19-.83,3.22.1,6.51,2.55,9.01,3.05,3.12,7.83,4.47,12.19,3.46,3.23-.75,5.47-2.18,7.53-3.83-1.8-5.21-4.42-9.08-7.7-11.24-1.91-1.25-4.7-2.18-7.41-2.18Z"/>
      <path class="cls-4" d="M19.5,93.27l1.94,1.1s-2.85,9.2-4.13,17.29c0,0-.49-13.15,2.19-18.4Z"/>
      <path class="cls-11" d="M127.83,84.62s-.46.52-2.5,1.1c-.22.06-.46.13-.72.19-1.53.37-4.53.78-7.72,1.01-1.19.08-2.41.15-3.58.17-1.18.02-2.32.01-3.35-.05-2.84-.16-5.17-.39-6.61-.55-1-.11-1.57-.19-1.57-.19,0,0-.09-2.79-.49-5.92-.26-2.02-.81-7.1-1.25-11.38,0-.06-.02-.12-.02-.19-.04-.42-.09-.84-.13-1.24,0-.06-.01-.12-.02-.19-.17-1.67-.31-3.11-.39-4.05-.3-3.49-1.13-8.89-1.13-8.89,0,0-.52,6.69.18,10.58.71,3.89,1.69,7.11,1.69,7.11l-2.15,3.34c-1.68-1.87-4.97-5.99-6.21-10.18-1.24-4.19-1.92-12.72-.75-18.61,1.16-5.89,3.46-8.4,6.04-9.54.95-.42,1.9-.67,2.73-.83,1.42-.27,2.46-.25,2.46-.25.34-.83,1.13-1.32,1.13-1.32.49-.4,1.78-1.24,2.75-1.14.97.1,1.7,1.6,1.7,1.6,0,0,.77-.11,1.93-.2,2.26-.18,5.99-.27,8.33.7,3.54,1.47,6.94,9.52,8.09,12.28.89,2.14,1.45,4.98.92,6.87-.15.54-.39,1.01-.74,1.36-1.57,1.56-5.25,1.24-5.25,1.24,0,0,1.61,5.29,2.26,7.96.64,2.66,4.38,19.17,4.38,19.17Z"/>
      <path class="cls-12" d="M109.83,35.03c-2.81,1.98-5.05,3.27-9.97,1.3,1.42-.27,2.46-.25,2.46-.25.34-.83,1.13-1.32,1.13-1.32.49-.4,1.78-1.24,2.75-1.14.97.1,1.7,1.6,1.7,1.6,0,0,.77-.11,1.93-.2Z"/>
      <path class="cls-6" d="M108.24,24.56c-.15,0-.26.05-.35.14-.22.38-.19.61-.35,1.06,0,0-1.17-1.41-1.69-1.87-.08-.07-.16-.12-.23-.16-.02,0-.05-.02-.07-.03-.1-.02-.19-.04-.27-.05-.31.02-.62.25-.96.64-.55.61-2.7,2.05-5.12,1.81-.64-.07-1.12-.21-1.47-.4-.15.83.21,2.95.95,4.78,0,0,1.72.86,4.02.37,2.3-.49,3.74-1.9,3.86-2.3,0,0,1.4,2.42.86,3.46.22-.34.4-.73.46-1.16.21-1.44.25-2.09.25-2.09,0,0,1.04-.55,1.1-1.75.06-1.2-.28-2.45-.98-2.45Z"/>
      <path class="cls-2" d="M107.53,25.76c.16-.45.13-.68.35-1.06-.35.31-.35,1.06-.35,1.06Z"/>
      <path class="cls-7" d="M105.17,20.67c-1.84-1.04-3.8-.95-5.79-.21-1.99.74-2.45,2.29-2.58,3.19-.09.65-.06,1.54.92,2.06.35.19.83.33,1.47.4,2.42.25,4.57-1.2,5.12-1.81.34-.38.65-.62.96-.64.11,0,.23.02.34.08.08.04.16.09.23.16.52.46,1.69,1.87,1.69,1.87,0,0,0-.75.35-1.06h0s-.87-2.99-2.71-4.03Z"/>
      <path class="cls-9" d="M106.55,28.55c-.12.4-1.56,1.81-3.86,2.3-2.3.49-4.01-.37-4.02-.37h0c0,.47.96,3.71,3.66,4.02.4.05.77.06,1.12.05,1.26-.05,2.13-.46,2.75-.97.61-.5.97-1.1,1.21-1.56,0,0,0,0,0,0,.55-1.05-.86-3.46-.86-3.46Z"/>
      <path class="cls-13" d="M113.66,101.48c0,1.98-.16,6.76-.32,11.06-.15,4.29-.31,8.09-.31,8.09-.33-.4-1.16-.8-3.21-.79-.25,0-.48.01-.71.03-.27-1.45-2.02-10.87-2.65-15.53-.56-4.12-2.3-13.35-2.91-16.65-.14-.74-.22-1.18-.22-1.2h0c1.44.16,3.77.39,6.61.55,1.03.06,2.17.07,3.35.05.02.5.04,1.17.07,1.96.12,3.34.29,8.84.29,12.44Z"/>
      <path class="cls-13" d="M127.12,120.17c-.54-.45-1.41-.76-3.03-.56-.1.02-.2.03-.3.04-.31-1.22-1.45-5.92-2.5-12.96-.9-5.93-2.84-13.79-3.86-17.72-.24-.93-.43-1.64-.54-2.05,3.19-.23,6.2-.64,7.72-1.01.26-.06.5-.12.72-.19.08.51.2,1.24.34,2.11.52,3.39,1.31,8.98,1.46,12.7.23,5.66,0,19.64,0,19.64Z"/>
      <path class="cls-5" d="M113.04,120.64c-.33-.4-1.16-.8-3.21-.79-.25,0-.48.02-.71.03-2.73.23-3.69,1.56-3.77,1.9-.09.37,2.58.46,4.66.25,2.09-.21,3.25-.5,3.25-.77,0-.14-.02-.38-.22-.62Z"/>
      <path class="cls-5" d="M127.12,120.17c-.54-.45-1.41-.77-3.03-.56-.1.01-.2.03-.3.04-1.52.25-2.98.86-2.98,1.34,0,.51,1.25.44,3.86.3,2.16-.12,2.29-.25,2.29-.25,0,0,.43-.64.16-.87Z"/>
      <path class="cls-12" d="M127.17,54.89c-.15.54-.39,1.01-.74,1.36-1.57,1.56-5.25,1.24-5.25,1.24-6.64-.34-14.18-3.5-14.18-3.5l.23-1.5s3.61,1.71,10.9,2.94c4.3.72,7.3.09,9.04-.55Z"/>
      <path class="cls-1" d="M113.3,87.09c.02.5.04,1.17.07,1.96-4.55-.09-7.91-.81-9.82-1.35-.14-.74-.22-1.18-.22-1.2h0c1.44.16,3.77.39,6.61.55,1.03.06,2.17.07,3.35.05Z"/>
      <path class="cls-1" d="M125.66,87.83c-2.98.64-5.74.99-8.24,1.14-.24-.93-.43-1.64-.54-2.05,3.19-.23,6.2-.64,7.72-1.01.26-.06.5-.12.72-.19.08.51.2,1.24.34,2.11Z"/>
      <g>
        <path class="cls-6" d="M106.1,35.87c-.19,1.18-.55,2.25-.99,2.19-.56-.09-.65-.66-.76-1.34-.05-.28-.1-.58-.19-.87-.25-.8-.59-1.19-.72-1.31,1.26-.05,2.13-.46,2.76-.97.08.58.04,1.46-.09,2.3Z"/>
        <path class="cls-14" d="M106.1,35.87c-.35.46-.9.78-1.75.85-.05-.28-.1-.58-.19-.87-.25-.8-.59-1.19-.72-1.31,1.26-.05,2.13-.46,2.76-.97.08.58.04,1.46-.09,2.3Z"/>
      </g>
      <path class="cls-3" d="M98,24.07s-.08-.03-.09-.07c-.08-.29.02-.75.16-.96.05-.07.1-.12.16-.12.05,0,.1.03.1.08,0,.05-.03.09-.07.1-.09.05-.26.55-.17.86.01.05-.02.1-.06.11,0,0-.02,0-.03,0Z"/>
      <path class="cls-3" d="M100.36,21.83s-.04,0-.06-.02c-.04-.03-.04-.09,0-.13.02-.03.59-.68,1.15-.61.05,0,.09.05.08.1,0,.05-.05.09-.1.08-.46-.06-.99.54-.99.55-.02.02-.04.03-.07.03Z"/>
      <path class="cls-3" d="M99.41,24.79s-.08-.02-.09-.06c-.01-.05.01-.1.06-.12.19-.06.69-.27.73-.52,0-.05.06-.08.11-.08.05,0,.08.06.08.1-.07.41-.78.64-.86.67,0,0-.02,0-.03,0Z"/>
      <path class="cls-3" d="M102.5,24.49s-.06-.01-.08-.04c-.03-.04-.02-.1.03-.13,0,0,.64-.42.66-.83,0-.05.04-.09.1-.09.05,0,.09.05.08.1-.03.5-.72.96-.75.98-.02.01-.03.02-.05.02Z"/>
      <path class="cls-3" d="M105.61,22.78s-.06-.01-.08-.04c-.27-.42-.99-.6-1-.6-.05-.01-.08-.06-.07-.11.01-.05.06-.08.11-.07.03,0,.8.2,1.11.68.03.04.01.1-.03.13-.02.01-.03.01-.05.01Z"/>
      <path class="cls-3" d="M103.44,27.11s-.05-.01-.07-.03c-.03-.04-.03-.1.01-.13.06-.05,1.44-1.19,2.89-.66.05.02.07.07.06.12-.02.05-.07.07-.12.05-1.35-.5-2.69.62-2.71.63-.02.01-.04.02-.06.02Z"/>
      <path class="cls-3" d="M101.75,31.43s-.03,0-.04-.01c-.03-.02-.05-.04-.05-.08,0-.01-.05-1.12-.14-2.27-.09-1.18-.15-1.47-1.19-1.76-.93-.26-1.64.18-1.94.36-.05.03-.08.05-.11.06-.04.02-.1,0-.12-.04-.02-.05,0-.1.04-.12.02-.01.05-.03.09-.05.3-.18,1.09-.66,2.09-.38,1.14.32,1.23.71,1.32,1.92.07.9.12,1.77.13,2.12.22-.14.66-.46.79-.82.02-.05.07-.07.12-.06.05.02.07.07.06.12-.19.55-.97.98-1,1-.01,0-.03.01-.04.01Z"/>
      <path class="cls-3" d="M102.78,32.67c-.44,0-.83-.14-.86-.15-.05-.02-.07-.07-.05-.12.02-.05.07-.07.12-.06.01,0,1.14.4,1.65-.19.03-.04.09-.04.13-.01.04.03.04.09,0,.13-.26.3-.64.39-.99.39Z"/>
      <path class="cls-3" d="M107.88,27.24s-.08-.03-.09-.07c-.11-.41.39-1.35.45-1.46.03-.05.08-.06.13-.04.04.02.06.08.04.12-.15.27-.51,1.03-.44,1.32.01.05-.02.1-.06.11,0,0-.02,0-.02,0Z"/>
      <path class="cls-3" d="M106.55,28.64s-.03,0-.05-.01c-.04-.03-.06-.08-.03-.13.28-.47.88-2.35,1.03-3.26,0-.05.06-.08.11-.08.05,0,.08.06.07.11-.16.92-.77,2.84-1.06,3.32-.02.03-.05.05-.08.05Z"/>
      <path class="cls-3" d="M107.41,32.1s-.04,0-.05-.02c-.04-.03-.05-.09-.02-.13,0,0,.54-.78.69-3.2,0-.05.04-.09.1-.09.05,0,.09.05.09.1-.15,2.48-.7,3.26-.72,3.29-.02.03-.04.04-.07.04Z"/>
      <path class="cls-3" d="M105.38,42.71s-.06-.02-.08-.05c-.02-.03-1.75-3.03-2.14-3.51-.15-.19-.4-.02-.78.28-.29.23-.56.45-.82.4-.11-.02-.19-.07-.24-.15-.12-.2,0-.53.2-1.19.12-.38.28-.86.44-1.47.52-1.95,1.41-2.32,1.45-2.34.05-.02.1,0,.12.05.02.05,0,.1-.05.12-.01,0-.85.37-1.34,2.22-.16.61-.32,1.09-.44,1.48-.18.55-.29.91-.22,1.04.01.02.03.05.11.06.17.03.43-.17.67-.36.35-.28.76-.6,1.04-.25.34.42,1.64,2.65,2.04,3.34.25-1.01,1.03-3.9,1.65-3.99.29-.04.58.12.82.26.39.22.62.33.83,0,.42-.65-.52-3.25-1.18-3.96-.03-.04-.03-.1,0-.13.04-.03.1-.03.13,0,.65.7,1.71,3.41,1.2,4.18-.32.49-.72.26-1.08.06-.23-.13-.47-.27-.71-.24-.42.06-1.17,2.53-1.55,4.07,0,.04-.04.06-.08.07,0,0,0,0-.01,0Z"/>
      <path class="cls-3" d="M106.05,48.79s-.09-.04-.09-.08c0-.04-.4-3.68-.64-5.37-.25-1.72-.31-4.21-.31-5.29,0-.05.04-.09.09-.09h0c.05,0,.09.04.09.09,0,1.07.06,3.55.3,5.26.24,1.7.63,5.34.64,5.38,0,.05-.03.1-.08.1,0,0,0,0,0,0Z"/>
      <path class="cls-3" d="M121.99,57.62c-2.67,0-6.13-.7-8.11-1.27-2.82-.82-6.86-2.26-6.9-2.27-.05-.02-.07-.07-.05-.12.02-.05.07-.07.12-.05.04.01,4.08,1.46,6.89,2.27,3.16.91,7.75,1.6,10.04,1.08.05-.01.1.02.11.07.01.05-.02.1-.07.11-.58.13-1.27.19-2.03.19Z"/>
      <path class="cls-3" d="M116.82,50.78c-.59,0-1.66-.16-3.12-.39-.82-.13-1.66-.26-2.44-.36-2.43-.3-4.23-.7-4.24-.7-.05-.01-.08-.06-.07-.11.01-.05.06-.08.11-.07.02,0,1.81.39,4.23.7.78.1,1.63.23,2.44.36,1.59.25,3.23.5,3.47.33.02-.04.11-.42-.95-3.45-.56-1.6-1.25-3.37-1.47-3.82-.02-.05,0-.1.04-.12.05-.02.1,0,.12.04.25.51,2.88,7.15,2.36,7.5-.08.06-.24.08-.48.08Z"/>
      <path class="cls-3" d="M98.24,56.02h0c-.05,0-.09-.05-.09-.1.03-.46.02-1.41.02-2.5,0-1.94-.02-4.36.14-5.6,0-.05.05-.09.1-.08.05,0,.09.05.08.1-.16,1.22-.14,3.64-.13,5.58,0,1.1,0,2.04-.02,2.51,0,.05-.04.09-.09.09Z"/>
      <path class="cls-3" d="M111.91,87.44s-.06-.01-.08-.04c-.18-.23-2.47-14.86-3.07-19.42-.7-5.32-2.21-13.96-2.23-14.04,0-.05.02-.1.08-.11.05-.01.1.02.11.07.01.09,1.53,8.73,2.23,14.05.75,5.65,2.89,18.97,3.05,19.34.03.04.02.09-.02.12-.02.01-.03.02-.05.02Z"/>
      <path class="cls-3" d="M105,67.93v1.33s0,.05-.03.07c-.02.02-.04.03-.06.03h0l-4.88-.34c0-.06-.02-.12-.02-.19l4.81.33v-1.14c-.66-.01-3.91-.33-4.94-.44,0-.06-.01-.12-.02-.19,2.01.2,4.85.47,5.03.44.03,0,.05,0,.08.02.02.02.03.04.03.07Z"/>
      <path class="cls-3" d="M121.09,65.13s-.03-.04-.05-.05c-.03,0-.05,0-.08,0-2.03,1.15-7.26,2.09-7.31,2.1-.03,0-.05.02-.06.04-.01.02-.02.05-.01.07l.35,1.08s.05.06.08.06h0c2.52-.07,7.52-1.8,7.57-1.82.02,0,.04-.03.05-.05.01-.02.01-.05,0-.07l-.55-1.38ZM114.08,68.27l-.29-.92c.76-.14,5.2-.99,7.18-2.06l.47,1.19c-.68.24-5.03,1.69-7.35,1.78Z"/>
      <path class="cls-3" d="M99.59,28.64c0-.25.2-.45.44-.45s.45.2.45.45-.2.44-.45.44-.44-.2-.44-.44Z"/>
      <path class="cls-3" d="M104.04,28.01c0-.25.2-.44.45-.44s.44.2.44.44-.2.44-.44.44-.45-.2-.45-.44Z"/>
      <path class="cls-9" d="M85.66,74.64l-1.81,4.23,4.06-2.63,38.11-56.07c-1.36-1.13-2.91-2.03-3.78-2.49l-36.58,56.95Z"/>
      <path class="cls-13" d="M140.14,7.38c.12,4.2-3.19,7.7-7.38,7.82-.15,0-.29,0-.45,0l-5.68,5.5c-.19-.18-.39-.35-.6-.53-.64-.53-1.32-1.01-1.96-1.42-.71-.46-1.36-.82-1.83-1.07-.42-.22-.68-.35-.68-.35l3.88-7.01c-.3-.78-.48-1.62-.5-2.5-.12-4.2,3.19-7.7,7.38-7.82,2.38-.07,4.53.96,5.97,2.63,1.11,1.28,1.79,2.93,1.85,4.75Z"/>
      <path class="cls-6" d="M107.01,49.18c-.77-.34-2.51-1.53-3.4-.67-.89.86-2.18,2.91-1.78,3.25.4.34,1.53-1.13,1.53-1.13,0,0-1.32,1.66-1.04,1.96.28.31,1.9-1.17,1.9-1.17,0,0-1.35,1.56-1.13,1.75.21.18,1.9-1.01,1.9-1.01,0,0-.64,1.47,2.02,1.84,0,0,.28-1.47.34-2.7.06-1.23-.34-2.12-.34-2.12Z"/>
      <g>
        <path class="cls-8" d="M115,132.63v2.61c0,1.03-.83,1.87-1.87,1.87h-51.98c-1.03,0-1.86-.84-1.86-1.87v-2.61c0-.28.06-.54.17-.77l10.37-25,.86-2.07,5.56-13.41v-19.46h17.75v19.92l7.25,13.93.74,1.43,12.84,24.64c.11.24.18.5.18.78Z"/>
        <path class="cls-11" d="M94.76,68.04h-19.3c-1.03,0-1.87.84-1.87,1.87v.15c0,1.03.84,1.87,1.87,1.87h19.3c1.03,0,1.87-.83,1.87-1.87v-.15c0-1.03-.84-1.87-1.87-1.87Z"/>
      </g>
      <path class="cls-7" d="M115,132.63v2.61c0,1.03-.83,1.87-1.87,1.87h-51.98c-1.03,0-1.86-.84-1.86-1.87v-2.61c0-.28.06-.54.17-.77l10.37-25,.86-2.07c7.79,1.62,12.36,1.79,17.48.74,3.62-.74,9.57-.19,13.09.25l.74,1.43,12.84,24.64c.11.24.18.5.18.78Z"/>
      <path class="cls-15" d="M81.66,115.34c0-1.21.98-2.2,2.2-2.2h0c1.21,0,2.2.98,2.2,2.2h0c0,1.21-.99,2.2-2.2,2.2h0c-1.21,0-2.2-.98-2.2-2.2h0Z"/>
      <path class="cls-15" d="M68.53,114c0-1.29,1.04-2.33,2.33-2.33h0c1.29,0,2.33,1.04,2.33,2.33h0c0,1.29-1.04,2.33-2.33,2.33h0c-1.29,0-2.33-1.04-2.33-2.33h0Z"/>
      <path class="cls-15" d="M72.21,129.32c0-.76.62-1.38,1.38-1.38h0c.76,0,1.38.62,1.38,1.38h0c0,.76-.62,1.39-1.38,1.39h0c-.77,0-1.38-.62-1.38-1.39h0Z"/>
      <path class="cls-15" d="M62.37,129.94c0-1.1.89-2,2-2h0c1.1,0,2,.89,2,2h0c0,1.1-.89,2-2,2h0c-1.1,0-2-.9-2-2h0Z"/>
      <path class="cls-15" d="M88.2,122.14c0-.92.75-1.67,1.67-1.67h0c.92,0,1.67.75,1.67,1.67h0c0,.92-.75,1.67-1.67,1.67h0c-.92,0-1.67-.75-1.67-1.67h0Z"/>
      <path class="cls-15" d="M87.67,132.63c0-.88.71-1.59,1.59-1.59h0c.88,0,1.59.71,1.59,1.59h0c0,.88-.71,1.59-1.59,1.59h0c-.88,0-1.59-.71-1.59-1.59h0Z"/>
      <path class="cls-15" d="M99.89,129.32c0-.76.62-1.38,1.38-1.38h0c.76,0,1.38.62,1.38,1.38h0c0,.76-.62,1.39-1.38,1.39h0c-.77,0-1.38-.62-1.38-1.39h0Z"/>
      <path class="cls-15" d="M96.44,113.28c0-.89.72-1.62,1.62-1.62h0c.89,0,1.62.72,1.62,1.62h0c0,.9-.72,1.62-1.62,1.62h0c-.89,0-1.62-.72-1.62-1.62h0Z"/>
      <path class="cls-15" d="M90.83,107.88c0-.89.72-1.62,1.61-1.62h0c.89,0,1.61.72,1.61,1.62h0c0,.89-.72,1.61-1.61,1.61h0c-.89,0-1.61-.72-1.61-1.61h0Z"/>
      <g>
        <path class="cls-9" d="M99.13,145.39c0,1.01-.82,1.83-1.83,1.83h-18.3c-1.01,0-1.83-.82-1.83-1.83h0c0-1.01.82-1.83,1.83-1.83h18.3c1.01,0,1.83.82,1.83,1.83h0Z"/>
        <path class="cls-5" d="M75.63,147.21h25.04c1.05,0,1.91.85,1.91,1.91v.81c0,1.05-.86,1.91-1.91,1.91h-25.04c-1.05,0-1.91-.86-1.91-1.91v-.81c0-1.05.86-1.91,1.91-1.91Z"/>
        <g>
          <path class="cls-13" d="M87.97,143.56c-1.7.2-3.16-2.63,0-5.68,0,0,3.74,5.24,0,5.68Z"/>
          <path class="cls-7" d="M87.87,142.78c-.91.26-1.31-1.46,0-3.38,0,0,1.82,2.85,0,3.38Z"/>
        </g>
      </g>
      <path class="cls-8" d="M24.22,107.95v-14.07h-9.44v14.07c-8.49,2.11-14.78,9.78-14.78,18.92,0,10.77,8.73,19.5,19.5,19.5s19.5-8.73,19.5-19.5c0-9.14-6.29-16.81-14.78-18.92Z"/>
      <path class="cls-11" d="M24.22,91.31h-9.44c-.71,0-1.29.58-1.29,1.29s.58,1.29,1.29,1.29h9.44c.71,0,1.29-.58,1.29-1.29s-.58-1.29-1.29-1.29Z"/>
      <path class="cls-5" d="M.93,123.81s.92,4.87,7.73,5.52c6.81.64,20.42-8.64,29.52-2.76,0,0-1.47,18.82-19.5,18.82C2.03,145.39.29,126.66.93,123.81Z"/>
      <path class="cls-10" d="M23.26,117.54c0-2.45,1.98-4.43,4.43-4.43s4.43,1.99,4.43,4.43-1.98,4.44-4.43,4.44-4.43-1.99-4.43-4.44Z"/>
      <path class="cls-13" d="M50.26,152.21c-.2,0-.37-.16-.37-.37V39.8c0-.2.16-.37.37-.37s.37.17.37.37v112.04c0,.2-.17.37-.37.37Z"/>
      <path class="cls-13" d="M105.58,152.21H31.01c-.2,0-.37-.16-.37-.37s.17-.37.37-.37h74.58c.21,0,.37.17.37.37s-.16.37-.37.37Z"/>
      <path class="cls-13" d="M96.62,84.43h0l-46.36-.19c-.2,0-.37-.17-.37-.37,0-.2.16-.37.37-.37h0l46.36.18c.2,0,.37.17.37.37,0,.2-.17.37-.37.37Z"/>
      <path class="cls-13" d="M50.26,102.59H12.98c-.2,0-.37-.17-.37-.37s.17-.37.37-.37h37.28c.2,0,.37.16.37.37s-.17.37-.37.37Z"/>
      <path class="cls-13" d="M47.51,83.88c0-1.52,1.23-2.75,2.75-2.75s2.75,1.23,2.75,2.75-1.23,2.75-2.75,2.75-2.75-1.23-2.75-2.75Z"/>
      <g>
        <g class="cls-16">
          <path class="cls-11" d="M20.43,88.49s-1.66-5.24-4.32-6.26c0,0-6.35,3.04-8.46-1.84-2.12-4.87,3.31-5.61,3.31-5.61,0,0-1.65-3.13.37-3.77,2.02-.64,2.47,2.39,2.47,2.39,0,0,2.02-7.57,5.71-6.63,3.69.93,1.48,5.38,1.48,5.38,0,0,4.32-2.05,5.98.71,1.66,2.76-1.14,6.35-3.7,6.62,0,0,1.86.83,1.31,2.39-.55,1.56-2.85.92-2.85.92l-1.29,5.7Z"/>
          <path class="cls-11" d="M11.64,66.41c0-.74.6-1.33,1.33-1.33s1.33.6,1.33,1.33-.6,1.33-1.33,1.33-1.33-.6-1.33-1.33Z"/>
          <path class="cls-11" d="M17.76,57.12c0-1.17.95-2.12,2.12-2.12s2.12.95,2.12,2.12-.95,2.12-2.12,2.12-2.12-.95-2.12-2.12Z"/>
          <path class="cls-11" d="M23.95,65.86c0-.86.7-1.56,1.56-1.56s1.56.7,1.56,1.56-.7,1.56-1.56,1.56-1.56-.7-1.56-1.56Z"/>
        </g>
        <path class="cls-10" d="M17.31,80.58c-.07,0-.13-.03-.16-.09-.77-1.42-1.71-2.25-2.78-2.48-1.41-.3-2.59.57-2.61.58-.08.06-.2.05-.26-.04-.06-.08-.04-.2.04-.26.05-.04,1.32-.98,2.9-.64,1.18.25,2.2,1.15,3.03,2.66.05.09.02.2-.07.25-.03.01-.06.02-.09.02Z"/>
        <path class="cls-10" d="M21.5,77.14c-.57,0-1.09-.13-1.55-.38-1.48-.82-1.85-2.62-1.87-2.7-.02-.1.04-.2.14-.22.1-.02.2.05.22.15,0,.02.36,1.72,1.69,2.45.82.46,1.86.45,3.08-.01.09-.04.2.01.24.11.04.09-.01.2-.11.24-.66.25-1.27.38-1.83.38Z"/>
      </g>
      <path class="cls-4" d="M117.89,30.48s-.03,0-.05-.01c-.83-.48-2.2-1.26-2.36-1.29-.05,0-.08-.06-.07-.11,0-.05.05-.08.11-.07.25.05,2.2,1.18,2.42,1.31.04.03.06.08.03.13-.02.03-.05.05-.08.05Z"/>
      <path class="cls-4" d="M109.83,42.22s-.04,0-.05-.02l-1.95-1.35s-.05-.09-.02-.13c.03-.04.09-.05.13-.02l1.95,1.35s.05.09.02.13c-.02.03-.05.04-.08.04Z"/>
      <path class="cls-4" d="M100.26,56.11s-.03,0-.05-.01l-1.6-1.01s-.06-.08-.03-.13c.03-.04.08-.05.13-.03l1.6,1.02s.05.08.03.13c-.02.03-.05.04-.08.04Z"/>
      <path class="cls-4" d="M94.29,65.77s-.03,0-.05-.01c-.05-.03-1.3-.81-1.61-1.12-.04-.04-.04-.09,0-.13.04-.04.09-.04.13,0,.29.3,1.56,1.08,1.58,1.09.04.03.06.08.03.13-.02.03-.05.04-.08.04Z"/>
      <path class="cls-1" d="M140.14,7.38c.12,4.2-3.19,7.7-7.38,7.82-.15,0-.29,0-.45,0l-5.68,5.5c-.19-.18-.39-.35-.6-.53-.64-.53-1.32-1.01-1.96-1.42l4.24-6.12s4.68-.07,7.71-3.65c1.77-2.09,2.21-4.61,2.27-6.35,1.11,1.28,1.79,2.93,1.85,4.75Z"/>
      <path class="cls-9" d="M136.47,9.42s-.05-.01-.07-.03c-4.88-5.37-9.92-5.26-9.96-5.25-.04.01-.1-.02-.11-.06-.01-.05,0-.1.06-.11.04-.01,5.12-.24,10.15,5.3.04.04.03.1,0,.13-.02.02-.04.02-.06.02Z"/>
      <path class="cls-5" d="M135.24,151.77c-.19-.91-18.67-91.23-18.88-92.57-.02-.19-.17-.33-.37-.33-.2,0-.37.16-.37.37,0,.08.98,4.95,2.53,12.54h-16.74l-1.58-11.47c-.03-.2-.21-.34-.41-.32-.2.03-.34.21-.31.42l12.53,91.12c.02.18.18.32.36.32.02,0,.03,0,.05,0,.2-.03.34-.21.31-.42l-2.04-14.84h21.06c1.18,5.75,2.25,10.99,3.14,15.33.04.17.19.29.36.29.02,0,.05,0,.07,0,.2-.04.33-.23.29-.43ZM106.2,106.64h19.06c.98,4.79,1.97,9.65,2.94,14.4h-20.02l-1.98-14.4ZM122.98,95.45h-18.31l-1.67-12.11h17.51c.77,3.79,1.61,7.87,2.47,12.11ZM123.13,96.19c.65,3.17,1.31,6.43,1.98,9.71h-19.01l-1.33-9.71h18.36ZM118.3,72.51c.61,3,1.3,6.41,2.06,10.1h-17.46l-1.39-10.1h16.79ZM110.22,135.85l-1.94-14.08h20.07c.99,4.87,1.97,9.63,2.88,14.08h-21.01Z"/>
      <path class="cls-6" d="M100.2,72.14c.12.06,2.12.98,1.93,1.5-.18.52-1.69-.03-1.59,0,.09.03,2.21,1.35,1.93,1.9-.28.55-2.3-1.32-2.27-1.23.03.09,2.05,2.15,1.84,2.55-.21.4-2.45-1.75-2.45-1.75,0,0,1.41,1.78.98,2.24-.43.46-2.51-1.87-2.51-1.87,0,0,.8-1.2,1.32-1.99.52-.8.83-1.35.83-1.35Z"/>
      <path class="cls-9" d="M17.31,139.4c0-1.54,1.25-2.79,2.79-2.79s2.79,1.25,2.79,2.79-1.25,2.79-2.79,2.79-2.79-1.25-2.79-2.79Z"/>
      <path class="cls-9" d="M30.54,129.94c0-.88.71-1.59,1.59-1.59s1.59.71,1.59,1.59-.71,1.6-1.59,1.6-1.59-.71-1.59-1.6Z"/>
      <path class="cls-9" d="M6.27,134.23c0-1.27,1.03-2.29,2.3-2.29s2.29,1.03,2.29,2.29-1.03,2.29-2.29,2.29-2.3-1.03-2.3-2.29Z"/>
    </g>
  </g>
</svg>