<?xml version="1.0" encoding="UTF-8"?>
<svg id="Layer_2" data-name="Layer 2" xmlns="http://www.w3.org/2000/svg" viewBox="0 0 72.3 107.2">
  <defs>
    <style>
      .cls-1 {
        fill: #00114f;
      }

      .cls-1, .cls-2, .cls-3, .cls-4, .cls-5, .cls-6, .cls-7, .cls-8, .cls-9, .cls-10, .cls-11, .cls-12 {
        stroke-width: 0px;
      }

      .cls-2 {
        fill: #06a899;
      }

      .cls-3 {
        fill: #42c1a3;
      }

      .cls-4 {
        fill: #f88b7f;
      }

      .cls-5 {
        fill: #f8a786;
      }

      .cls-6 {
        fill: #ff525e;
      }

      .cls-7 {
        fill: #55d3b9;
      }

      .cls-8 {
        fill: #aceadd;
      }

      .cls-9 {
        fill: #213949;
      }

      .cls-10 {
        fill: #f78658;
      }

      .cls-11 {
        fill: #ea2f41;
      }

      .cls-12 {
        fill: #010340;
      }
    </style>
  </defs>
  <g id="Layer_1-2" data-name="Layer 1">
    <g>
      <g>
        <path class="cls-5" d="M49.34,79.53c-.1.4-.31,1.29-.61,2.46-.79,3.14-2.17,8.33-3.38,11.68-1.74,4.8-5.51,10.83-5.93,11.5-.16-.4-.58-.87-1.63-1.08-.26-.05-.54-.08-.84-.07.16-.89.72-4.04,1.41-8.89.64-4.46,2.34-12.22,3.1-15.65.23-1.01.38-1.65.39-1.7.66.47,2.92,1.19,7.48,1.74Z"/>
        <path class="cls-10" d="M49.34,79.53c-.1.4-.31,1.29-.61,2.46-2.82-.47-5.44-1.58-7.27-2.5.23-1.01.38-1.65.39-1.7.66.47,2.92,1.19,7.48,1.74Z"/>
      </g>
      <path class="cls-6" d="M60.55,16.53s-.81,1.66-1.65,4.69c-.22.78-.44,1.64-.64,2.6-1.02,4.66-1.1,11.95-1.1,14.24,0,0-2.97-.36-5.3-1.59,0,0,.72-4.51,1.91-8.07.6-1.81,1.49-4.36,2.21-6.43.7-2,1.25-3.55,1.25-3.55,0,0-.21-.12-.6-.23.23-.54.36-.85.36-.85.04,0,.23-.04.51-.1,0,.03-.02.07-.02.11-.02.08-.04.17-.06.24-.11.37-.18.73-.21,1.04t0,0c-.06.69.11,1.21.72,1.32.69.13,1.35-1.09,1.81-2.25-.08-.32-.13-.64-.15-.95.55-.13.97-.23.97-.23Z"/>
      <path class="cls-11" d="M60.55,16.53s-.81,1.66-1.65,4.69c-1.23.67-2.3.77-2.92.75.7-2,1.25-3.55,1.25-3.55,0,0-.21-.12-.6-.23.23-.54.36-.85.36-.85.04,0,.23-.04.51-.1,0,.03-.02.07-.02.11-.02.08-.04.17-.06.24-.11.37-.18.73-.21,1.04t0,0c-.06.69.11,1.21.72,1.32.69.13,1.35-1.09,1.81-2.25-.08-.32-.13-.64-.15-.95.55-.13.97-.23.97-.23Z"/>
      <path class="cls-7" d="M72.13,33.92c-.2,1.74-.58,3.46-1.16,4.97-1.63,4.25-5.6,5.11-6.09,5.2h-.05s.17,1.41.72,2.21c.55.8,3.13,4.4,4.32,9.23,1.18,4.83,0,14.57,0,14.57,0,0,0,0-.96.01-.49,0-1.21.02-2.31.03-3.26.04-6.86,0-6.86,0,0,0-.08-8.47-.55-12.71-.45-4.04-1.66-11.83-1.77-12.53,0-.03,0-.05,0-.05-.33,0-.64-.03-.94-.07-.02,0-.05,0-.07,0-3.11-.43-4.94-2.02-4.94-2.02,0,0-.36,8.15-.87,13.87-.51,5.72-1.99,12.71-1.99,12.71-1.22.27-3.54-.02-4.75-.21-.47-.07-.78-.13-.78-.13,0,0,2.61-10.21,3.92-15.84.46-1.98.86-4.07,1.2-5.94,0-.05.01-.09.02-.13.6-3.41.94-6.09.94-6.09-.81-.38-2.33-2.03-2.33-2.03-5.47,6.82-13.68,5.34-16.4,3.01-2.52-2.17-4.6-6.19-4.78-6.9-.01-.05-.02-.09,0-.11.63-1.21,3.99-1.42,3.99-1.42,1.69,1.61,4.36,3.73,8.22,3.05,3.85-.68,6.91-6.44,7.92-8.43,1.02-1.99,1.65-6.52,5.17-8.9.22-.15.43-.28.65-.4,2.26-1.26,4.14-.98,5.05-.7.39.11.6.23.6.23,0,0-.5,1.4-1.14,3.24-.14.41-.29.84-.45,1.29-.02.05-.03.1-.05.15-.63,1.81-1.32,3.81-1.82,5.3-1.19,3.56-1.91,8.07-1.91,8.07,2.18,1.08,5.3,1.59,5.3,1.59,0-2.29.08-9.57,1.1-14.24.05-.22.09-.43.14-.64.03-.1.05-.2.07-.3.22-.92.45-1.75.66-2.48h0c.75-2.51,1.41-3.87,1.41-3.87,0,0,1.78-.09,4.7,1.22.87.39,1.64.87,2.33,1.44,1.65,1.35,2.84,3.19,3.77,5.51.87,2.2,1.18,5.75.78,9.22Z"/>
      <path class="cls-3" d="M57.22,18.41s-.5,1.4-1.14,3.24c-3.12,1.31-4.26-.68-4.51-2.78,2.26-1.26,4.14-.98,5.05-.7.39.11.6.23.6.23Z"/>
      <path class="cls-3" d="M67.58,19.19c-.19,1.16-.98,2.5-3.56,2.89-3.09.47-4.37-.75-4.89-1.68,0,0,0,0,0,0,.75-2.51,1.41-3.87,1.41-3.87,0,0,1.78-.09,4.7,1.22.87.39,1.64.87,2.33,1.44Z"/>
      <path class="cls-3" d="M72.13,33.92c-.2,1.74-.58,3.46-1.16,4.97-1.63,4.25-5.61,5.29-6.1,5.38h0s-3.98,1.36-7.45.64c-.3-.06-.62-.07-.94-.12-.02,0-.05,0-.07-.01h0c-1.39-.19-3.01-.81-5.7-2.52-2.33-1.48-3.88-3.29-3.88-3.29-5.47,6.82-13.68,5.34-16.4,3.01-2.52-2.17-4.6-6.19-4.78-6.9-.01-.05-.02-.09,0-.11.23.66,4.22,6.14,8.6,6.84,4.39.7,10.35-1.84,11.5-4.26,0,0-1.92-2.16-2.52-3.37l1.16-1.04s1.85,4.4,7.48,7.65c5.63,3.24,12.43,1.82,15.74-.81,1.81-1.44,3.45-3.77,4.53-6.08Z"/>
      <path class="cls-5" d="M25.63,34.97c.63-1.21,3.99-1.42,3.99-1.42-.04-.17-.42-1.31-.42-1.31,0,0-.98,1.23-2.46,1.1-1.48-.13-2.8-1.29-2.8-1.29,0,0,1.16,2.6,1.71,3.02-.01-.05-.02-.09,0-.11Z"/>
      <path class="cls-7" d="M39.42,105.17c-.16-.4-.58-.86-1.63-1.08-.26-.05-.54-.08-.84-.07-2.08.03-4.9,1.35-6.27,2.57,0,0,6.1.21,8.81-.68,0,0,.09-.34-.06-.74Z"/>
      <path class="cls-7" d="M69.17,105.37c-.44-.39-1.23-.91-2.39-.94-.22,0-.46,0-.7.04-2.32.34-3.88,2.71-3.88,2.71,0,0,1.82.13,4.28-.38,2.46-.51,3.09-1.02,3.09-1.02,0,0-.13-.18-.39-.42Z"/>
      <path class="cls-6" d="M68.08,73.93c-.51,2.16-.72,4.2-.38,4.91,0,0-.08.03-.24.09-.28.1-.81.26-1.6.44-1.04.24-2.52.49-4.46.64-1.74.13-3.85.17-6.33.02-2.22-.13-4.12-.3-5.73-.5-4.57-.55-6.83-1.27-7.48-1.74l1.99-8.64c1.21.19,3.53.48,4.75.21,0,0,1.48-6.99,1.99-12.71.51-5.72.87-13.88.87-13.88,0,0,2.09,1.63,5.97,2.25,0,0,1.29,8.19,1.76,12.43.47,4.24.55,12.71.55,12.71,0,0,2.79.03,5.68.01.39,0,.79,0,1.18-.01,1.1-.01,1.82-.02,2.31-.03.01.03.02.05.02.05,0,0-.34,1.59-.85,3.75Z"/>
      <path class="cls-12" d="M57.66,14.98s-.02-.08-.02-.12c-2.02-.37-3.16-1.19-3.78-2.17.18,1.33.42,3.09-.31,3.79-.89.85-1.95,3.13-.63,4.19,1.31,1.06,3.6.32,4.28-2.04h0c.03-.32.1-.68.21-1.05.29-1,.27-2.23.26-2.6Z"/>
      <path class="cls-6" d="M23.77,31.1c0-1.61,1.31-2.92,2.92-2.92s2.92,1.31,2.92,2.92-1.31,2.92-2.92,2.92-2.92-1.31-2.92-2.92Z"/>
      <path class="cls-9" d="M65.54,47.45c0,.3-.06.59-.16.86-1.36-.51-3.28-.69-4.5-.77,0-.03,0-.06,0-.09,0-1.29,1.04-2.33,2.33-2.33s2.33,1.04,2.33,2.33Z"/>
      <path class="cls-5" d="M46.27,32.03c0-.17-.21-2.92-.68-3.01-.47-.08-.34,1.5-.34,1.5,0,0-1.06-2.99-1.57-2.86-.51.13.51,2.84.51,2.84,0,0-1.14-2.63-1.69-2.42-.55.21,1.19,3.39,1.19,3.39,0,0-1.36-2.2-1.74-2.03-.38.17.98,2.84.98,2.84,0,0-.93-1.7-1.44-1.44-.51.26,1.74,3.35,1.74,3.35,0,0,.76-.72,1.44-1.27.68-.55,1.61-.89,1.61-.89Z"/>
      <path class="cls-5" d="M64.02,9.57c-.04.8-.85,1.48-1.4,1.65-.04.01-.08.03-.12.05,0,0,0,0,0,0-.04.02-.08.05-.12.08-.66.48-1.58,1.39-2.19,2.59-.29.59-.52,1.24-.59,1.95-.03.28-.04.56-.01.85-.67.16-1.54.35-2.08.47.19-.91.18-1.9.17-2.23,0,0,0,0,0-.01,0-.07,0-.11,0-.11,0,0-.02,0-.02,0-2.02-.37-3.16-1.19-3.78-2.17-.19-.31-.34-.64-.44-.97-.27-.85-.28-1.76-.21-2.59.01-.18.03-.36.05-.53.16-1.44.71-2.9,1.19-3.81.29-.54.56-.89.71-.94,0,0,.3.55,1.14.93.85.38,2.88.38,3.98,0,1.1-.38,1.78.17,2.08,1.44.3,1.27,0,2.92,0,2.92,1.48-1.31,1.69-.38,1.64.43Z"/>
      <path class="cls-5" d="M57.47,17.34c-.02.08-.04.17-.06.24-.11.37-.18.73-.21,1.04t0,0c-.06.69.11,1.21.72,1.32.69.13,1.35-1.09,1.81-2.25-.09-.32-.13-.64-.15-.95-.67.16-1.54.35-2.08.47,0,.04-.01.07-.02.11Z"/>
      <path class="cls-12" d="M64.31,3.39c-1.53-1.78-5.04-4.02-7.5-3.22-2.46.81-2.33,3.73-2.37,4.62h0c.29-.54.56-.89.71-.94,0,0,.3.55,1.14.93.85.38,2.88.38,3.98,0,1.1-.38,1.78.17,2.08,1.44.3,1.27,0,2.92,0,2.92,1.48-1.31,1.69-.37,1.64.43-.04.81-.85,1.48-1.4,1.65-.04.01-.08.03-.12.06,0,0,0,0-.01,0-.04.02-.08.05-.12.08h0c-1.24.9-3.42,3.34-2.64,6.33.2,1.74,1.58,3.39,3.91,3.39,2.75,0,2.97-3.35,3.01-6.82.04-3.47-.81-9.11-2.33-10.89Z"/>
      <path class="cls-12" d="M62.5,11.28s0,0-.01,0c0,0,0,0,.01,0Z"/>
      <path class="cls-5" d="M23.77,29.4c-.34.7.64,2.92,1.1,2.63.47-.3-.3-2.2-.3-2.2,0,0,.8,1.31,1.06,1.1.25-.21,0-2.12,0-2.12,0,0,.76,1.53,1.06,1.23.29-.3-.08-2.38-.72-2.38-.64,0-.47.68-.47.68,0,0-.59-.21-.93-.17-.34.04-.08,1.06-.08,1.06,0,0-.53-.21-.72.17Z"/>
      <path class="cls-5" d="M28.22,31.35c.26.3,1.95-.97,1.1-1.7-.85-.72-1.36,1.4-1.1,1.7Z"/>
      <path class="cls-10" d="M60.18,13.96c-.29.59-.52,1.24-.59,1.95-.4.52-1.08,1.26-2.12,1.43.22-.94.2-1.99.19-2.34,0,0,0,0,0-.01,0-.07,0-.11,0-.11,0,0-.02,0-.02,0,0,0,1.36.05,2.54-.9Z"/>
      <path class="cls-11" d="M68.08,73.93c-.51,2.16-.72,4.2-.38,4.91,0,0-.08.03-.24.09-.28.1-.81.26-1.6.44-.27-2.13-.66-5.97-.45-9.2.39,0,.79,0,1.18-.01,1.1-.01,1.82-.02,2.31-.03.01.03.02.05.02.05,0,0-.34,1.59-.85,3.75Z"/>
      <g>
        <path class="cls-5" d="M69.17,105.37c-.43-.39-1.23-.91-2.39-.94-.3-1.31-1.86-7.96-3-12.92-.83-3.62-1.61-7.5-2.05-9.76-.16-.84-.28-1.45-.33-1.74,3.4-.26,5.4-.85,6.06-1.08.13.47.33,1.24.53,1.93.14.47.27.91.37,1.18.32.89.95,2.35,2.1,8.39,1.06,5.58-.71,13.65-1.28,14.94Z"/>
        <path class="cls-10" d="M67.99,80.86c-1.94.34-4.41.65-6.26.9-.16-.84-.28-1.45-.33-1.74,3.4-.26,5.4-.85,6.06-1.08.13.47.33,1.24.53,1.93Z"/>
      </g>
      <path class="cls-4" d="M58.42,11.75c0-.72.59-1.31,1.31-1.31s1.31.59,1.31,1.31-.59,1.31-1.31,1.31-1.31-.59-1.31-1.31Z"/>
      <path class="cls-4" d="M54.48,10.44c0,.64-.46,1.17-1.07,1.29-.27-.85-.28-1.76-.21-2.59.71.02,1.28.6,1.28,1.31Z"/>
      <path class="cls-1" d="M55.63,22.94s-.03.1-.05.15l-.61-.93c-.78.47-2.06,1.18-2.23.98-.16-.2.58-1.6,1.03-2.43.02-.03.05-.04.09-.02.03.01.04.06.03.09-.65,1.17-1.1,2.15-1.04,2.28.13.05,1.2-.5,2.11-1.04.03-.02.07,0,.09.02l.59.9Z"/>
      <path class="cls-1" d="M62.09,23.13c-.12.04-.41-.13-1.08-.55-.5-.31-1.07-.67-1.28-.68h0c-.26,0-.91.75-1.32,1.28.03-.1.05-.2.07-.3.22-.28.48-.58.71-.79.25-.23.43-.34.56-.33.24.02.8.37,1.34.7.38.23.89.55.98.54.09-.11.05-1.55-.05-2.86,0-.03.02-.07.06-.07.04,0,.07.02.07.06.1,1.33.18,2.92-.05,2.99Z"/>
      <path class="cls-1" d="M58,7.69s-.04,0-.05-.02c-.02-.03-.02-.07,0-.09,0,0,1.03-.84,2.39-.17.03.02.04.05.03.08-.02.03-.06.04-.08.03-1.28-.64-2.24.14-2.25.15-.01,0-.03.01-.04.01Z"/>
      <path class="cls-1" d="M62.37,10.49s-.02,0-.02,0c-.03-.01-.05-.05-.03-.08.11-.25.73-1.03.76-1.07.02-.03.06-.03.09-.01.03.02.03.06.01.09,0,0-.63.8-.74,1.04,0,.02-.03.04-.06.04Z"/>
      <path class="cls-1" d="M54.77,11.11s-.08,0-.1,0c-.04-.01-.06-.04-.07-.06-.02-.05,0-.1.31-.76.36-.8.98-2.13,1-2.66.04-.72-1.41-1.16-1.52-1.17-.03,0-.06-.03-.06-.07,0-.03.03-.06.06-.06.08,0,.94.25,1.39.71.18.19.26.39.25.59-.03.55-.62,1.85-1.01,2.71-.13.28-.25.54-.29.65.23.01,1.33-.18,1.7-.48.03-.02.07-.02.09,0,.02.03.02.07,0,.09-.35.3-1.38.51-1.75.51Z"/>
      <path class="cls-1" d="M56.25,12.8c-.59,0-1.04-.18-1.07-.19-.03-.01-.05-.05-.04-.08.01-.03.05-.05.08-.04.01,0,1.01.4,1.97,0,.03-.01.07,0,.08.04.01.03,0,.07-.03.08-.34.14-.69.19-1,.19Z"/>
      <path class="cls-1" d="M49.87,35.27s-.01,0-.02,0c-.03,0-.06-.04-.05-.08,0-.02.43-1.82-.15-2.48-.37-.43-1.58-1.98-1.48-3.76.06-.94.59-2.32,1.59-4.12.03-.06.06-.11.07-.13.02-.03.05-.04.09-.03.03.02.04.05.03.09-.01.02-.04.07-.07.13-.99,1.79-1.52,3.15-1.57,4.07-.1,1.73,1.08,3.25,1.45,3.67.62.71.19,2.52.17,2.6,0,.03-.03.05-.06.05Z"/>
      <path class="cls-1" d="M58.83,38.26c-3.16,0-6.52-1.29-8.3-2.49-1.54-1.04-4.28-3.67-4.31-3.69-.02-.03-.03-.07,0-.09.03-.03.07-.03.09,0,.03.03,2.76,2.65,4.29,3.68,1.77,1.19,5.09,2.47,8.23,2.47,3.43,0,5.64-1.92,5.91-5.12.28-3.32-.46-6.43-.77-7.35-.01-.03,0-.07.04-.08.03,0,.07,0,.08.04.31.93,1.07,4.06.78,7.4-.28,3.28-2.54,5.24-6.04,5.24Z"/>
      <path class="cls-1" d="M59.82,45.21c-1.37,0-2.79-.17-4.27-.52-3.06-.72-6.84-3.6-8.54-5.42-1.81-1.94-3.82-5.02-3.84-5.05-.02-.03-.01-.07.02-.09.03-.02.07-.01.09.02.02.03,2.03,3.1,3.83,5.03,2.81,3,6.65,4.96,8.48,5.38,4.7,1.1,8.8.44,12.53-2,.03-.02.07-.01.09.02.02.03,0,.07-.02.09-2.58,1.7-5.35,2.54-8.36,2.54Z"/>
      <path class="cls-1" d="M49.93,47.06s-.03.06-.07.06c-.5-.03-1.16.04-1.68.11,0-.05.01-.09.02-.13.52-.07,1.16-.14,1.67-.1.04,0,.06.03.06.07Z"/>
      <path class="cls-1" d="M66.04,48.61s-.01,0-.02,0c0,0-1.16-.41-2.97-.79-1.8-.38-2.71-.26-2.71-.26-.03,0-.07-.02-.07-.05,0-.03.02-.07.05-.07.04,0,.93-.13,2.76.26,1.82.38,2.98.79,2.99.79.03.01.05.05.04.08-.01.03-.03.04-.06.04Z"/>
      <path class="cls-1" d="M64.42,81.53s-.06-.03-.06-.06c0-.04.03-.06.06-.06.08,0,.14-.03.19-.09.24-.26.19-.97.19-.97,0-.03.02-.07.06-.07.04,0,.07.02.07.06,0,.03.05.77-.22,1.07-.08.08-.17.13-.28.13Z"/>
      <path class="cls-1" d="M42.94,79.95s-.05-.02-.06-.04c-.01-.03,0-.07.04-.08l1.33-.52s.07,0,.08.04c.01.03,0,.07-.04.08l-1.33.52s-.01,0-.02,0Z"/>
      <circle class="cls-1" cx="54.48" cy="7.96" r=".38"/>
      <path class="cls-1" d="M58.24,8.6c0,.21-.17.38-.38.38s-.38-.17-.38-.38.17-.38.38-.38.38.17.38.38Z"/>
      <path class="cls-2" d="M50.06,99.43c-.64-2.41-1.91-5.56-4.41-8.74,0-.02-.02-.04-.05-.06-1.2-1.52-2.68-3.04-4.5-4.48-2.18-1.73-4.33-3.12-6.42-4.27,0,0,0,0,0,0-4.12-2.26-8.03-3.57-11.53-4.59,4.07-1.86,8.61-4.18,13.88-7.87,3.31-2.32,5.32-5.48,5.98-9.38.54-3.23.07-6.6-.8-9.54,0,0,0,0,0,0,0-.03,0-.06-.03-.08-.86-2.86-2.1-5.29-3.13-6.73-.28-.39-.66-.77-1.11-1.15h.26c.07,0,.13-.06.13-.13s-.06-.13-.13-.13h-.58c-1.99-1.51-5.22-2.89-8.53-4.1,5.58-3.93,11.37-8.86,13.21-13.39h.06c.07,0,.12-.07.12-.14,0-.05-.04-.09-.08-.11.02-.06.05-.12.07-.19,2.5-7.11,1.06-17.46-.94-22.2-.03-.06-.1-.09-.16-.07-.06.03-.1.1-.07.17,1.19,2.83,2.18,7.67,2.24,12.61l-36.73,1.76c-.21-2.83-.29-5.77-.32-8.16l35.87-2.3c.07,0,.12-.06.12-.14,0-.07-.07-.12-.14-.12L6.47,8.21c-.01-1.66,0-3.03,0-3.86v-.11c0-.07-.05-.13-.12-.13s-.13.06-.13.13v.11c-.01.84-.02,2.23,0,3.92-.02.03-.04.06-.04.1,0,.03.02.06.04.08.05,4.56.3,11.19,1.28,15.15.3,1.24.74,2.34,1.27,3.31,0,.02.02.04.03.06,2.23,4.07,6.06,6.06,8.54,7.34,1.1.57,3.32,1.3,5.89,2.15,1.65.54,3.47,1.15,5.28,1.8-2.45,1.71-4.85,3.22-6.82,4.4-4.38,2.64-7.46,5-9.64,7.01h-.55c-.07-.02-.13.04-.13.11,0,.07.05.13.12.13h.29c-3.09,2.92-4.23,5.04-4.64,6.09-.25.65-.44,1.41-.57,2.26,0,.02-.01.03-.01.05,0,0,0,0,0,.01-.43,2.97-.06,6.88,1.37,10.21,0,0,0,.01,0,.02,0,.05.03.09.06.11,1.13,2.56,2.89,4.76,5.41,5.86.15.06.29.12.44.18,0,.02-.01.04-.01.06,0,.07.06.12.13.12h0l.28-.02c1.88.74,3.99,1.33,6.21,1.94.63.18,1.27.35,1.93.54-1.06.48-2.08.93-3.08,1.36-2.54,1.11-4.93,2.16-7.19,3.39-5.09,2.79-9.4,9.84-9.13,18.49,0,0,0,0,0,0s0,0,0,0c.06,1.81.31,3.68.8,5.6.01.06.07.1.12.1.01,0,.02,0,.03,0,.07-.02.11-.09.09-.16-.48-1.86-.73-3.67-.79-5.42h46.82s.01,0,.02,0c.69,3.29.43,5.64.36,5.86-.02.07.01.14.08.16.01,0,.03,0,.04,0,.05,0,.1-.03.12-.09.09-.27.43-3.19-.64-7.22ZM6.82,16.88l36.71-1.76c.02,3.19-.35,6.42-1.32,9.16-.03.09-.07.18-.11.27l-33.13,2.19c-.51-.95-.93-2.01-1.23-3.21-.45-1.81-.74-4.18-.93-6.65ZM9.11,26.98l32.89-2.17c-.96,2.29-2.93,4.68-5.37,6.99l-21.23,1.17c-2.16-1.25-4.64-3.07-6.29-5.98ZM23.32,36.21c-2.56-.84-4.77-1.57-5.85-2.13-.51-.26-1.07-.55-1.66-.89l20.53-1.13c-2.29,2.13-4.95,4.18-7.56,6.01-1.87-.68-3.76-1.3-5.46-1.86ZM37.18,42.28h-14.36c1.81-1.11,3.88-2.44,6-3.92,3.21,1.17,6.35,2.49,8.36,3.92ZM21.84,42.88c.18-.11.37-.23.56-.34h15.11c.55.42,1,.85,1.31,1.29,1.01,1.4,2.21,3.75,3.06,6.52l-29.42-.68c3.48-3.13,7.64-5.76,9.37-6.8ZM7.41,56.09c.8-2.07,2.65-4.21,4.79-6.17l29.77.69c.69,2.34,1.12,4.97.98,7.57,0,0,0,0,0,0H6.86c.13-.78.31-1.48.54-2.09ZM6.83,58.43h36.1c-.04.52-.09,1.04-.18,1.56-.6,3.58-2.36,6.52-5.24,8.74l-29.34-.31c-1.4-3.25-1.76-7.07-1.35-9.99ZM8.29,68.68l28.88.31c-.1.07-.2.15-.3.22-2.62,1.84-5.06,3.34-7.36,4.61l-15.21.79c-.27-.11-.53-.21-.79-.33-2.42-1.06-4.12-3.15-5.23-5.6ZM20.54,76.55c-2-.55-3.91-1.09-5.64-1.73l14.1-.73c-2.21,1.2-4.27,2.19-6.23,3.08-.76-.22-1.51-.42-2.23-.62ZM12.26,82.32c2.24-1.23,4.63-2.28,7.17-3.38,1.08-.47,2.2-.97,3.36-1.49,3.45.99,7.3,2.26,11.36,4.43-3.01.08-19.18.53-22.15.59.09-.05.18-.11.26-.15ZM11.58,82.73s.09,0,.16,0c.16,0,.41,0,.78-.02.63-.02,1.54-.04,2.62-.07,2.17-.06,5.05-.13,7.94-.21,5.49-.15,10.98-.3,11.51-.32,2.07,1.14,4.2,2.52,6.35,4.23,1.74,1.38,3.16,2.82,4.32,4.27l-40.43.73c1.52-3.85,3.99-6.87,6.75-8.62ZM3.26,100.46c-.09-3.23.47-6.23,1.47-8.86l40.73-.74c2.46,3.14,3.72,6.25,4.35,8.63.09.33.17.65.24.96H3.26Z"/>
      <path class="cls-8" d="M6.36,68.55c0-1.82,1.48-3.31,3.3-3.31s3.3,1.48,3.3,3.31-1.48,3.31-3.3,3.31-3.3-1.48-3.3-3.31Z"/>
      <path class="cls-9" d="M9.66,81.47c0-1.9,1.54-3.43,3.43-3.43s3.43,1.54,3.43,3.43-1.54,3.43-3.43,3.43-3.43-1.54-3.43-3.43Z"/>
      <path class="cls-8" d="M2.12,90.2c0-1.9,1.54-3.43,3.43-3.43s3.43,1.54,3.43,3.43-1.54,3.43-3.43,3.43-3.43-1.53-3.43-3.43Z"/>
      <path class="cls-9" d="M0,100.59c0-1.9,1.54-3.43,3.43-3.43s3.43,1.54,3.43,3.43-1.54,3.43-3.43,3.43-3.43-1.54-3.43-3.43Z"/>
      <path class="cls-9" d="M46.27,100.59c0-1.9,1.53-3.43,3.43-3.43s3.43,1.54,3.43,3.43-1.54,3.43-3.43,3.43-3.43-1.54-3.43-3.43Z"/>
      <path class="cls-8" d="M41.4,90.74c0-1.9,1.54-3.43,3.43-3.43s3.43,1.54,3.43,3.43-1.54,3.43-3.43,3.43-3.43-1.54-3.43-3.43Z"/>
      <path class="cls-9" d="M35.47,83.56c0-1.9,1.54-3.43,3.43-3.43s3.43,1.54,3.43,3.43-1.54,3.43-3.43,3.43-3.43-1.54-3.43-3.43Z"/>
      <path class="cls-9" d="M3.94,58.31c0-1.61,1.31-2.92,2.92-2.92s2.92,1.31,2.92,2.92-1.31,2.92-2.92,2.92-2.92-1.31-2.92-2.92Z"/>
      <path class="cls-6" d="M8.6,49.78c0-1.62,1.31-2.92,2.92-2.92s2.92,1.31,2.92,2.92-1.31,2.92-2.92,2.92-2.92-1.31-2.92-2.92Z"/>
      <path class="cls-9" d="M17.41,42.92c0-1.62,1.31-2.92,2.92-2.92s2.92,1.31,2.92,2.92-1.31,2.92-2.92,2.92-2.92-1.31-2.92-2.92Z"/>
      <path class="cls-8" d="M6.31,27.66c0-1.85,1.5-3.35,3.35-3.35s3.35,1.5,3.35,3.35-1.5,3.35-3.35,3.35-3.35-1.5-3.35-3.35Z"/>
      <path class="cls-9" d="M3.01,17.92c0-1.85,1.5-3.35,3.35-3.35s3.35,1.5,3.35,3.35-1.5,3.35-3.35,3.35-3.35-1.5-3.35-3.35Z"/>
      <path class="cls-6" d="M2.97,8.89c0-2.03,1.64-3.68,3.68-3.68s3.68,1.65,3.68,3.68-1.65,3.68-3.68,3.68-3.68-1.65-3.68-3.68Z"/>
      <path class="cls-6" d="M38.18,6.76c0-2.03,1.65-3.68,3.68-3.68s3.68,1.65,3.68,3.68-1.65,3.68-3.68,3.68-3.68-1.65-3.68-3.68Z"/>
      <path class="cls-9" d="M38.93,14.98c0-1.88,1.52-3.4,3.4-3.4s3.4,1.52,3.4,3.4-1.52,3.4-3.4,3.4-3.4-1.52-3.4-3.4Z"/>
      <path class="cls-8" d="M37.08,24.31c0-1.88,1.52-3.4,3.4-3.4s3.4,1.52,3.4,3.4-1.52,3.4-3.4,3.4-3.4-1.52-3.4-3.4Z"/>
      <path class="cls-9" d="M25.23,38.51c0-1.61,1.31-2.92,2.92-2.92s2.92,1.31,2.92,2.92-1.31,2.92-2.92,2.92-2.92-1.31-2.92-2.92Z"/>
      <path class="cls-9" d="M34.63,42.41c0-1.61,1.31-2.92,2.92-2.92s2.92,1.31,2.92,2.92-1.31,2.92-2.92,2.92-2.92-1.31-2.92-2.92Z"/>
      <path class="cls-6" d="M38.93,49.78c0-1.62,1.31-2.92,2.92-2.92s2.92,1.31,2.92,2.92-1.31,2.92-2.92,2.92-2.92-1.31-2.92-2.92Z"/>
      <path class="cls-9" d="M15.38,75.54c0-1.62,1.31-2.92,2.92-2.92s2.92,1.31,2.92,2.92-1.31,2.92-2.92,2.92-2.92-1.31-2.92-2.92Z"/>
      <path class="cls-6" d="M24.83,79.29c0-1.62,1.31-2.92,2.92-2.92s2.92,1.31,2.92,2.92-1.31,2.92-2.92,2.92-2.92-1.31-2.92-2.92Z"/>
      <path class="cls-8" d="M34.63,68.55c0-1.61,1.31-2.92,2.92-2.92s2.92,1.31,2.92,2.92-1.31,2.92-2.92,2.92-2.92-1.31-2.92-2.92Z"/>
      <path class="cls-9" d="M27.75,73.1c0-1.62,1.31-2.92,2.92-2.92s2.92,1.31,2.92,2.92-1.31,2.92-2.92,2.92-2.92-1.31-2.92-2.92Z"/>
      <path class="cls-9" d="M39.51,59.92c0-1.9,1.54-3.43,3.43-3.43s3.43,1.54,3.43,3.43-1.54,3.43-3.43,3.43-3.43-1.54-3.43-3.43Z"/>
    </g>
  </g>
</svg>